<?xml version="1.0" encoding="utf-8"?>
<!-- Generator: Adobe Illustrator 21.1.0, SVG Export Plug-In . SVG Version: 6.00 Build 0)  -->
<svg version="1.1" id="Ebene_1" xmlns="http://www.w3.org/2000/svg" xmlns:xlink="http://www.w3.org/1999/xlink" x="0px" y="0px"
	 viewBox="0 0 42.5 42.5" style="enable-background:new 0 0 42.5 42.5;" xml:space="preserve">
<path d="M38.1,35.1L24.3,35l16.2-16.2c0.4-0.4,0.4-1.2,0-1.6L27.6,4.3C27.4,4.1,27.1,4,26.8,4c-0.3,0-0.6,0.1-0.8,0.3L1.6,28.7
	c-0.4,0.4-0.4,1.2,0,1.6L9,37.7C9.2,37.9,9.5,38,9.8,38h29.9c0.6,0,1.5-0.4,1.5-1.5c0-0.6-0.7-1.3-1.3-1.3L38.1,35.1z M26.7,7.6
	l10.5,10.5L24.8,30.5L14.3,20L26.7,7.6z M19.7,35.2h-9.2l-5.7-5.7l7.2-7.2l10.3,10.3L19.7,35.2z M20.3,35.7"/>
</svg>
