<?xml version="1.0" encoding="utf-8"?>
<!-- Generator: Adobe Illustrator 21.1.0, SVG Export Plug-In . SVG Version: 6.00 Build 0)  -->
<svg version="1.1" id="Ebene_1" xmlns="http://www.w3.org/2000/svg" xmlns:xlink="http://www.w3.org/1999/xlink" x="0px" y="0px"
	 viewBox="0 0 42.5 42.5" style="enable-background:new 0 0 42.5 42.5;" xml:space="preserve">
<path id="Pfeil_links_4_" d="M23.5,21.2c0-0.2-0.1-0.5-0.3-0.7L10,7.3C9.8,7.1,9.6,7,9.4,7S8.9,7.1,8.7,7.3L7.3,8.7
	C7.1,8.9,7,9.1,7,9.4C7,9.6,7.1,9.8,7.3,10l11.2,11.2L7.3,32.3C7.1,32.5,7,32.7,7,33c0,0.2,0.1,0.5,0.3,0.7l1.4,1.4
	c0.2,0.2,0.4,0.3,0.7,0.3s0.5-0.1,0.7-0.3l13.2-13.2C23.4,21.6,23.5,21.4,23.5,21.2z"/>
<path id="Pfeil_links_5_" d="M29.3,35.1c0.2-0.2,0.3-0.4,0.3-0.7v-3.1V7.9c0-0.3-0.1-0.5-0.3-0.7C29.2,7.1,28.9,7,28.7,7h-2
	c-0.3,0-0.5,0.1-0.7,0.3c-0.2,0.2-0.3,0.4-0.3,0.7v23.6l0,2.9c0,0.3,0.1,0.5,0.3,0.7c0.2,0.2,0.4,0.3,0.7,0.3h2
	C28.9,35.3,29.2,35.2,29.3,35.1z"/>
<path id="Pfeil_links_6_" d="M35.5,35.1c0.2-0.2,0.3-0.4,0.3-0.7v-3.1V7.9c0-0.3-0.1-0.5-0.3-0.7C35.3,7.1,35.1,7,34.8,7h-2
	c-0.3,0-0.5,0.1-0.7,0.3c-0.2,0.2-0.3,0.4-0.3,0.7v23.6l0,2.9c0,0.3,0.1,0.5,0.3,0.7c0.2,0.2,0.4,0.3,0.7,0.3h2
	C35.1,35.3,35.3,35.2,35.5,35.1z"/>
</svg>
