<?xml version="1.0" encoding="utf-8"?>
<!-- Generator: Adobe Illustrator 21.1.0, SVG Export Plug-In . SVG Version: 6.00 Build 0)  -->
<svg version="1.1" id="Ebene_1" xmlns="http://www.w3.org/2000/svg" xmlns:xlink="http://www.w3.org/1999/xlink" x="0px" y="0px"
	 viewBox="0 0 42.5 42.5" style="enable-background:new 0 0 42.5 42.5;" xml:space="preserve">
<path d="M28.8,22.8l-2.2-1.1c1-1.2,1.8-2.8,2.2-4.2c0.9-0.3,1.6-1.2,1.9-2.4c0.4-1.6-0.2-3.1-1.3-3.5c0.1-0.4-0.3-2.1-0.5-2.5
	c-1.5-3.5-3-5.2-7.6-5.2c-4.6,0-6.7,3-7.8,5.9c-0.2,0.5-0.6,1.6-0.4,2.1c-0.8,0.6-1.2,1.9-0.9,3.2c0.3,1.1,1,2,1.9,2.3
	c0.5,1.5,1.2,3,2.2,4.2C11,23.2,8,27.8,8,30.8V38h26.7v-7.2C34.7,27.8,32.2,24.5,28.8,22.8z M15,16.5l-0.4-0.1
	c-0.5-0.1-1.1-0.6-1.3-1.5c-0.2-0.7-0.1-1.3,0.2-1.7c0.1-0.2,0.3-0.3,0.5-0.4c0,0,0.1,0,0.1,0c0,0,0.1,0,0.1,0l0.6,0.1l0.1-0.6
	c0.2-1.2,0.5-2.3,1.1-3.2c1,1.1,2.9,1.8,5.2,1.8c0.5,0,1.6-0.1,2.1-0.2c0.4-0.1-1.2-2.4-2.2-3.6c-0.2-0.3,2.8,0.5,3.6,3
	c0.2,0.6,1.6-0.9,1.9-1.6c0.7,1,1.1,2.2,1.3,3.6l0.1,0.6l0.6-0.1c0.1,0,0.2,0,0.2,0c0,0,0.1,0,0.1,0c0.5,0.2,0.8,1.1,0.6,2.1
	c-0.2,0.9-0.8,1.5-1.3,1.5l-0.4,0.1l-0.1,0.4c-0.9,3.2-3.3,6.4-6.3,6.4S16,20,15.2,16.8L15,16.5z M23.4,31h-1.2v2.4h-2.2V31h-1.2
	v-2.2h1.2v-1.2h2.2v1.2h1.2V31z"/>
</svg>
