<?xml version="1.0" encoding="utf-8"?>
<!-- Generator: Adobe Illustrator 21.1.0, SVG Export Plug-In . SVG Version: 6.00 Build 0)  -->
<svg version="1.1" id="Ebene_1" xmlns="http://www.w3.org/2000/svg" xmlns:xlink="http://www.w3.org/1999/xlink" x="0px" y="0px"
	 viewBox="0 0 42.5 42.5" style="enable-background:new 0 0 42.5 42.5;" xml:space="preserve">
<path d="M11.5,35.2h19.8v-5.7H11.5V35.2z M11.5,21h19.8v-8.5h-3.5c-0.6,0-1.1-0.2-1.5-0.6c-0.4-0.4-0.6-0.9-0.6-1.5V6.8H11.5V21z
	 M37,22.4c0-0.4-0.1-0.7-0.4-1c-0.3-0.3-0.6-0.4-1-0.4c-0.4,0-0.7,0.1-1,0.4c-0.3,0.3-0.4,0.6-0.4,1s0.1,0.7,0.4,1
	c0.3,0.3,0.6,0.4,1,0.4c0.4,0,0.7-0.1,1-0.4C36.9,23.1,37,22.8,37,22.4z M39.9,22.4v9.2c0,0.2-0.1,0.4-0.2,0.5
	c-0.1,0.1-0.3,0.2-0.5,0.2h-5v3.5c0,0.6-0.2,1.1-0.6,1.5c-0.4,0.4-0.9,0.6-1.5,0.6H10.8c-0.6,0-1.1-0.2-1.5-0.6
	c-0.4-0.4-0.6-0.9-0.6-1.5v-3.5h-5c-0.2,0-0.4-0.1-0.5-0.2C3.1,32,3,31.8,3,31.6v-9.2c0-1.2,0.4-2.2,1.3-3s1.8-1.3,3-1.3h1.4v-12
	c0-0.6,0.2-1.1,0.6-1.5C9.7,4.2,10.2,4,10.8,4h14.9c0.6,0,1.2,0.1,1.9,0.4c0.7,0.3,1.3,0.6,1.7,1.1l3.4,3.4c0.4,0.4,0.8,1,1.1,1.7
	c0.3,0.7,0.4,1.4,0.4,1.9v5.7h1.4c1.2,0,2.2,0.4,3,1.3S39.9,21.3,39.9,22.4z"/>
</svg>
