<?xml version="1.0" encoding="utf-8"?>
<!-- Generator: Adobe Illustrator 21.1.0, SVG Export Plug-In . SVG Version: 6.00 Build 0)  -->
<svg version="1.1" id="Ebene_1" xmlns="http://www.w3.org/2000/svg" xmlns:xlink="http://www.w3.org/1999/xlink" x="0px" y="0px"
	 viewBox="0 0 42.5 42.5" style="enable-background:new 0 0 42.5 42.5;" xml:space="preserve">
<path d="M32.2,17.1h-0.7v-3.3c0,0,0,0,0-0.1c0-0.1,0-0.3-0.1-0.4l-5.5-6.2c0,0,0,0,0,0c0,0-0.1-0.1-0.1-0.1c0,0,0,0,0,0
	c0,0-0.1,0-0.1,0c0,0,0,0,0,0c0,0-0.1,0-0.1,0H12.1C11.5,7,11,7.5,11,8.1v9h-0.7c-0.9,0-1.6,0.7-1.6,1.6V27c0,0.9,0.7,1.6,1.6,1.6
	H11v5.7c0,0.6,0.5,1.1,1.1,1.1h18.3c0.6,0,1.1-0.5,1.1-1.1v-5.7h0.7c0.9,0,1.6-0.7,1.6-1.6v-8.3C33.8,17.8,33.1,17.1,32.2,17.1
	L32.2,17.1z M12.1,8.1H25v5.7c0,0.3,0.2,0.6,0.6,0.6h4.9v2.8H12.1V8.1z M30.4,33.9H12.1v-5.4h18.3V33.9z M28.5,26.3 M19.2,23.6
	c0,1-0.2,1.8-0.6,2.4c-0.4,0.6-1,0.8-1.7,0.8c-0.7,0-1.3-0.3-1.7-0.8c-0.4-0.6-0.6-1.3-0.6-2.3v-1.3c0-1,0.2-1.9,0.6-2.4
	s1-0.9,1.7-0.9c0.7,0,1.3,0.3,1.7,0.9s0.6,1.4,0.6,2.4V23.6z M17.9,22.3c0-0.7-0.1-1.2-0.2-1.5s-0.4-0.5-0.8-0.5
	c-0.3,0-0.6,0.2-0.8,0.5s-0.2,0.8-0.3,1.5v1.3c0,0.7,0.1,1.1,0.3,1.5c0.2,0.3,0.4,0.5,0.8,0.5c0.3,0,0.6-0.2,0.8-0.5
	s0.2-0.8,0.3-1.4V22.3z M23.9,20.4h-1.6v6.3H21v-6.3h-1.6v-1.3h4.4V20.4z M27.9,23.6h-2v3.1h-1.3v-7.6h3.5v1.3h-2.2v1.9h2V23.6z"/>
</svg>
