<?xml version="1.0" encoding="utf-8"?>
<!-- Generator: Adobe Illustrator 28.2.0, SVG Export Plug-In . SVG Version: 6.00 Build 0)  -->
<svg version="1.1" id="Ebene_1" xmlns="http://www.w3.org/2000/svg" xmlns:xlink="http://www.w3.org/1999/xlink" x="0px" y="0px"
	 viewBox="0 0 42.5 42.5" style="enable-background:new 0 0 42.5 42.5;" xml:space="preserve">
<path d="M39.5,26h-1c-0.1-4.8-3.9-8.6-8.6-8.7v-0.8h-0.5v0.8c-4.7,0.1-8.5,4-8.6,8.7h-1v0.5h1c0.2,4.6,4,8.3,8.6,8.5v1.1H30V35
	c4.7-0.1,8.4-3.8,8.6-8.5h1V26z M36.4,26h-2.1c-0.1-2.4-1.9-4.3-4.3-4.4v-2.1C33.5,19.6,36.3,22.5,36.4,26z M29.5,26h-2.2
	c0.1-1.2,1-2.2,2.2-2.4V26z M29.5,26.5v2.1c-1.1-0.1-2-1-2.2-2.1H29.5z M30,26.5h2.2c-0.2,1.1-1.1,2-2.2,2.1V26.5z M30,26v-2.4
	c1.2,0.1,2.2,1.1,2.3,2.4H30z M29.5,19.5v2.1c-2.4,0.1-4.2,2-4.3,4.4h-2.1C23.1,22.5,25.9,19.6,29.5,19.5z M23.1,26.5h2.1
	c0.2,2.2,2,4,4.3,4.2v2.1C26,32.7,23.3,29.9,23.1,26.5z M30,32.8v-2.1c2.3-0.1,4.1-1.9,4.3-4.2h2.1C36.2,29.9,33.4,32.7,30,32.8z
	 M22.9,33.8C22.9,33.8,22.9,33.8,22.9,33.8l-15.6,0c-1.2,0-2.2-0.4-3.1-1.3C3.4,31.7,3,30.7,3,29.5V10.8c0-1.2,0.4-2.2,1.3-3.1
	c0.9-0.9,1.9-1.3,3.1-1.3h6.2c1.2,0,2.2,0.4,3.1,1.3c0.9,0.9,1.3,1.9,1.3,3.1v0.6H31c1.2,0,2.2,0.4,3.1,1.3c0.9,0.9,1.3,1.9,1.3,3.1
	v1.8c-0.7-0.3-1.6-0.6-2.5-0.7v-1.1c0-0.5-0.2-1-0.5-1.3c-0.4-0.4-0.8-0.5-1.3-0.5H17.3c-0.5,0-1-0.2-1.3-0.5
	c-0.4-0.4-0.5-0.8-0.5-1.3v-1.2c0-0.5-0.2-1-0.5-1.3c-0.4-0.4-0.8-0.5-1.3-0.5H7.3c-0.5,0-1,0.2-1.3,0.5c-0.4,0.4-0.5,0.8-0.5,1.3
	v18.7c0,0.5,0.2,1,0.5,1.3c0.4,0.4,0.8,0.5,1.3,0.5h14C21.7,32.2,22.2,33,22.9,33.8z"/>
</svg>
