<?xml version="1.0" encoding="utf-8"?>
<svg version="1.1" id="Ebene_1" x="0px" y="0px" viewBox="0 0 42.5 42.5" style="enable-background:new 0 0 42.5 42.5;" xmlns="http://www.w3.org/2000/svg">
  <g style="" transform="matrix(0.028176, 0, 0, 0.028176, 4.206453, 6.508791)">
    <path style="opacity: 0.974; paint-order: stroke; fill-rule: evenodd;" d="M 557.5 -0.5 C 582.306 -4.01 608.644 -3.071 636.5 -0.5 C 762.77 14.355 857.937 76.355 922 185.5 C 982.251 300.479 981.918 415.146 921 529.5 C 901.058 563.77 878.391 596.103 853 626.5 C 835.023 653.698 825.023 683.698 823 716.5 C 820.872 746.126 819.539 775.793 819 805.5 C 816.787 840.417 802.953 869.584 777.5 893 C 772.176 897.317 766.176 900.317 759.5 902 C 651.167 902.667 542.833 902.667 434.5 902 C 420.492 897.005 408.992 888.505 400 876.5 C 383.177 852.239 374.511 825.239 374 795.5 C 374.615 762.333 372.615 729.333 368 696.5 C 365.123 675.535 358.456 655.868 348 637.5 C 334.717 619.216 321.051 601.216 307 583.5 C 276.697 542.561 254.03 497.561 239 448.5 C 210.503 327.837 235.503 219.837 314 124.5 C 378.854 51.488 460.021 9.821 557.5 -0.5 Z M 570.5 68.5 C 678.665 61.195 767.165 98.862 836 181.5 C 890.692 254.281 908.358 335.281 889 424.5 C 877.533 463.43 860.2 499.43 837 532.5 C 821 553.833 805 575.167 789 596.5 C 771.455 625.466 760.455 656.8 756 690.5 C 751.508 728.024 749.175 765.691 749 803.5 C 747.826 813.688 744.66 823.188 739.5 832 C 644.5 832.667 549.5 832.667 454.5 832 C 447.67 820.857 444.17 808.691 444 795.5 C 444.876 751.763 441.21 708.43 433 665.5 C 427.512 641.694 418.512 619.36 406 598.5 C 389.577 575.988 372.91 553.655 356 531.5 C 330.454 495.734 312.454 456.4 302 413.5 C 284.66 303.17 317.494 211.004 400.5 137 C 449.924 96.464 506.59 73.63 570.5 68.5 Z" fill="#000000"/>
  </g>
  <g style="" transform="matrix(0.028176, 0, 0, 0.028176, 4.206453, 6.508791)">
    <path style="opacity:0.946" fill="#000000" d="M 748.5 940.5 C 755.909 939.621 762.909 940.788 769.5 944 C 778.833 953.667 778.833 963.333 769.5 973 C 767.283 974.275 764.949 975.275 762.5 976 C 652.177 989.003 541.843 993.262 431.5 993 C 418.139 987.933 414.306 978.767 420 965.5 C 422.803 961.354 426.636 958.854 431.5 958 C 537.334 942.584 643.001 938 748.5 940.5 Z"/>
  </g>
  <g style="" transform="matrix(0.028176, 0, 0, 0.028176, 4.206453, 6.508791)">
    <path style="opacity:0.946" fill="#000000" d="M 751.5 1008.5 C 772.777 1009.771 779.974 1017.62 773 1037.5 C 770.222 1040.81 766.722 1042.97 762.5 1044 C 654.345 1055.377 546.178 1059.626 438 1061.5 C 419.928 1060.03 413.928 1050.7 420 1033.5 C 422.928 1029.62 426.761 1027.12 431.5 1026 C 538.331 1011.374 644.997 1002.139 751.5 1008.5 Z"/>
  </g>
  <g style="" transform="matrix(0.028176, 0, 0, 0.028176, 4.206453, 6.508791)">
    <path style="opacity:0.979" fill="#000000" d="M 618.5 1199.5 C 603.833 1199.5 589.167 1199.5 574.5 1199.5 C 544.134 1195.32 517.134 1183.48 493.5 1164 C 472.359 1144.88 461.026 1121.05 459.5 1092.5 C 550.833 1083.337 642.167 1077.56 733.5 1092.5 C 733.572 1112.45 727.739 1130.45 716 1146.5 C 698.104 1169.03 675.271 1184.53 647.5 1193 C 637.805 1195.68 628.138 1197.84 618.5 1199.5 Z"/>
  </g>
  <g transform="matrix(1, 0, 0, 1, -375.186887, -241.766937)">
    <path style="opacity:1" fill="#0c0c0c" d="M 407.5,49.5 C 411.417,50.2483 413.917,52.5817 415,56.5C 415.667,77.5 415.667,98.5 415,119.5C 411.654,127.263 406.154,129.597 398.5,126.5C 396.501,124.507 395.001,122.173 394,119.5C 393.333,98.1667 393.333,76.8333 394,55.5C 394.996,53.3395 396.496,51.6728 398.5,50.5C 401.43,49.701 404.43,49.3677 407.5,49.5 Z"/>
  </g>
  <g transform="matrix(1, 0, 0, 1, -375.186887, -241.766937)">
    <path style="opacity:1" fill="#070707" d="M 259.5,96.5 C 259.704,93.4824 260.037,90.4824 260.5,87.5C 266.133,80.9454 271.966,80.9454 278,87.5C 289.298,105.767 299.798,124.433 309.5,143.5C 307.286,152.939 301.619,156.106 292.5,153C 280.592,134.681 269.592,115.848 259.5,96.5 Z"/>
  </g>
  <g transform="matrix(1, 0, 0, 1, -375.186887, -241.766937)">
    <path style="opacity:1" fill="#080808" d="M 541.5,87.5 C 547.802,89.1007 550.302,93.1007 549,99.5C 538.667,117.5 528.333,135.5 518,153.5C 510.28,160.874 503.947,159.874 499,150.5C 498.333,148.167 498.333,145.833 499,143.5C 509.066,127.092 518.733,110.426 528,93.5C 529.049,91.3825 530.549,89.7158 532.5,88.5C 535.43,87.701 538.43,87.3677 541.5,87.5 Z"/>
  </g>
  <g transform="matrix(1, 0, 0, 1, -375.186887, -241.766937)">
    <path style="opacity:1" fill="#060606" d="M 171.5,180.5 C 190.766,190.802 209.766,201.635 228.5,213C 232.566,220.822 230.566,226.488 222.5,230C 220.167,230.667 217.833,230.667 215.5,230C 197.637,219.236 179.637,208.736 161.5,198.5C 159.857,194.705 159.191,190.705 159.5,186.5C 160.167,183.833 161.833,182.167 164.5,181.5C 166.764,180.781 169.097,180.448 171.5,180.5 Z"/>
  </g>
  <g transform="matrix(1, 0, 0, 1, -375.186887, -241.766937)">
    <path style="opacity:1" fill="#080808" d="M 631.5,186.5 C 641.876,185.711 646.709,190.378 646,200.5C 644.859,202.609 643.359,204.442 641.5,206C 623.671,215.747 606.004,225.747 588.5,236C 580.353,237.371 575.686,233.871 574.5,225.5C 574.743,221.849 576.41,219.016 579.5,217C 597.061,207.059 614.394,196.892 631.5,186.5 Z"/>
  </g>
  <path style="opacity:1" fill="#050505" d="M 193.5,315.5 C 200.319,318.498 202.153,323.498 199,330.5C 197.629,332.041 196.129,333.375 194.5,334.5C 172.879,335.478 151.212,335.811 129.5,335.5C 121.963,332.753 119.463,327.419 122,319.5C 123.039,318.29 124.206,317.29 125.5,316.5C 148.121,315.521 170.788,315.188 193.5,315.5 Z" transform="matrix(1, 0, 0, 1, -375.186887, -241.766937)"/>
  <g transform="matrix(1, 0, 0, 1, -375.186887, -241.766937)">
    <path style="opacity:1" fill="#050505" d="M 607.5,321.5 C 629.503,321.333 651.503,321.5 673.5,322C 679.657,324.511 681.824,329.011 680,335.5C 678.5,338.333 676.333,340.5 673.5,342C 651.5,342.667 629.5,342.667 607.5,342C 601.529,337.803 600.029,332.303 603,325.5C 604.397,323.93 605.897,322.596 607.5,321.5 Z"/>
  </g>
  <g transform="matrix(1, 0, 0, 1, -375.186887, -241.766937)">
    <path style="opacity:1" fill="#070707" d="M 211.5,420.5 C 222.989,419.155 227.823,424.155 226,435.5C 224.833,436.667 223.667,437.833 222.5,439C 204.758,449.733 186.758,460.066 168.5,470C 158.222,470.038 154.055,464.871 156,454.5C 157.5,453 159,451.5 160.5,450C 177.858,440.659 194.858,430.825 211.5,420.5 Z"/>
  </g>
  <g transform="matrix(1, 0, 0, 1, -375.186887, -241.766937)">
    <path style="opacity:1" fill="#070707" d="M 576.5,426.5 C 581.08,426.113 585.414,426.947 589.5,429C 606.335,439.252 623.335,449.252 640.5,459C 643.157,463.819 642.991,468.653 640,473.5C 636.239,476.243 632.072,477.076 627.5,476C 609.646,465.468 591.813,454.968 574,444.5C 569.995,437.686 570.828,431.686 576.5,426.5 Z"/>
  </g>
  <g transform="matrix(1, 0, 0, 1, -395.829234, -255.206802)">
    <path style="opacity:1" fill="#0c0c0c" d="M 407.5,49.5 C 411.417,50.2483 413.917,52.5817 415,56.5C 415.667,77.5 415.667,98.5 415,119.5C 411.654,127.263 406.154,129.597 398.5,126.5C 396.501,124.507 395.001,122.173 394,119.5C 393.333,98.1667 393.333,76.8333 394,55.5C 394.996,53.3395 396.496,51.6728 398.5,50.5C 401.43,49.701 404.43,49.3677 407.5,49.5 Z"/>
  </g>
  <g transform="matrix(1, 0, 0, 1, -395.829234, -255.206802)">
    <path style="opacity:1" fill="#070707" d="M 259.5,96.5 C 259.704,93.4824 260.037,90.4824 260.5,87.5C 266.133,80.9454 271.966,80.9454 278,87.5C 289.298,105.767 299.798,124.433 309.5,143.5C 307.286,152.939 301.619,156.106 292.5,153C 280.592,134.681 269.592,115.848 259.5,96.5 Z"/>
  </g>
  <g transform="matrix(1, 0, 0, 1, -395.829234, -255.206802)">
    <path style="opacity:1" fill="#080808" d="M 541.5,87.5 C 547.802,89.1007 550.302,93.1007 549,99.5C 538.667,117.5 528.333,135.5 518,153.5C 510.28,160.874 503.947,159.874 499,150.5C 498.333,148.167 498.333,145.833 499,143.5C 509.066,127.092 518.733,110.426 528,93.5C 529.049,91.3825 530.549,89.7158 532.5,88.5C 535.43,87.701 538.43,87.3677 541.5,87.5 Z"/>
  </g>
  <g transform="matrix(1, 0, 0, 1, -395.829234, -255.206802)">
    <path style="opacity:1" fill="#060606" d="M 171.5,180.5 C 190.766,190.802 209.766,201.635 228.5,213C 232.566,220.822 230.566,226.488 222.5,230C 220.167,230.667 217.833,230.667 215.5,230C 197.637,219.236 179.637,208.736 161.5,198.5C 159.857,194.705 159.191,190.705 159.5,186.5C 160.167,183.833 161.833,182.167 164.5,181.5C 166.764,180.781 169.097,180.448 171.5,180.5 Z"/>
  </g>
  <g transform="matrix(1, 0, 0, 1, -395.829234, -255.206802)">
    <path style="opacity:1" fill="#080808" d="M 631.5,186.5 C 641.876,185.711 646.709,190.378 646,200.5C 644.859,202.609 643.359,204.442 641.5,206C 623.671,215.747 606.004,225.747 588.5,236C 580.353,237.371 575.686,233.871 574.5,225.5C 574.743,221.849 576.41,219.016 579.5,217C 597.061,207.059 614.394,196.892 631.5,186.5 Z"/>
  </g>
  <path style="opacity:1" fill="#050505" d="M 193.5,315.5 C 200.319,318.498 202.153,323.498 199,330.5C 197.629,332.041 196.129,333.375 194.5,334.5C 172.879,335.478 151.212,335.811 129.5,335.5C 121.963,332.753 119.463,327.419 122,319.5C 123.039,318.29 124.206,317.29 125.5,316.5C 148.121,315.521 170.788,315.188 193.5,315.5 Z" transform="matrix(1, 0, 0, 1, -395.829234, -255.206802)"/>
  <g transform="matrix(1, 0, 0, 1, -395.829234, -255.206802)">
    <path style="opacity:1" fill="#050505" d="M 607.5,321.5 C 629.503,321.333 651.503,321.5 673.5,322C 679.657,324.511 681.824,329.011 680,335.5C 678.5,338.333 676.333,340.5 673.5,342C 651.5,342.667 629.5,342.667 607.5,342C 601.529,337.803 600.029,332.303 603,325.5C 604.397,323.93 605.897,322.596 607.5,321.5 Z"/>
  </g>
  <g transform="matrix(1, 0, 0, 1, -395.829234, -255.206802)">
    <path style="opacity:1" fill="#070707" d="M 211.5,420.5 C 222.989,419.155 227.823,424.155 226,435.5C 224.833,436.667 223.667,437.833 222.5,439C 204.758,449.733 186.758,460.066 168.5,470C 158.222,470.038 154.055,464.871 156,454.5C 157.5,453 159,451.5 160.5,450C 177.858,440.659 194.858,430.825 211.5,420.5 Z"/>
  </g>
  <g transform="matrix(1, 0, 0, 1, -395.829234, -255.206802)">
    <path style="opacity:1" fill="#070707" d="M 576.5,426.5 C 581.08,426.113 585.414,426.947 589.5,429C 606.335,439.252 623.335,449.252 640.5,459C 643.157,463.819 642.991,468.653 640,473.5C 636.239,476.243 632.072,477.076 627.5,476C 609.646,465.468 591.813,454.968 574,444.5C 569.995,437.686 570.828,431.686 576.5,426.5 Z"/>
  </g>
  <g transform="matrix(1.796967, 0, 0, 1.796967, -212.34024, -88.097351)" style="">
    <g style="" transform="matrix(0.031739, 0, 0, 0.031739, 117.199821, 47.901592)">
      <path style="opacity:1" fill="#0c0c0c" d="M 407.5,49.5 C 411.417,50.2483 413.917,52.5817 415,56.5C 415.667,77.5 415.667,98.5 415,119.5C 411.654,127.263 406.154,129.597 398.5,126.5C 396.501,124.507 395.001,122.173 394,119.5C 393.333,98.1667 393.333,76.8333 394,55.5C 394.996,53.3395 396.496,51.6728 398.5,50.5C 401.43,49.701 404.43,49.3677 407.5,49.5 Z"/>
    </g>
    <g style="" transform="matrix(0.031739, 0, 0, 0.031739, 117.199821, 47.901592)">
      <path style="opacity:1" fill="#070707" d="M 259.5,96.5 C 259.704,93.4824 260.037,90.4824 260.5,87.5C 266.133,80.9454 271.966,80.9454 278,87.5C 289.298,105.767 299.798,124.433 309.5,143.5C 307.286,152.939 301.619,156.106 292.5,153C 280.592,134.681 269.592,115.848 259.5,96.5 Z"/>
    </g>
    <g style="" transform="matrix(0.031739, 0, 0, 0.031739, 117.199821, 47.901592)">
      <path style="opacity:1" fill="#080808" d="M 541.5,87.5 C 547.802,89.1007 550.302,93.1007 549,99.5C 538.667,117.5 528.333,135.5 518,153.5C 510.28,160.874 503.947,159.874 499,150.5C 498.333,148.167 498.333,145.833 499,143.5C 509.066,127.092 518.733,110.426 528,93.5C 529.049,91.3825 530.549,89.7158 532.5,88.5C 535.43,87.701 538.43,87.3677 541.5,87.5 Z"/>
    </g>
    <g style="" transform="matrix(0.031739, 0, 0, 0.031739, 117.199821, 47.901592)">
      <path style="opacity:1" fill="#060606" d="M 171.5,180.5 C 190.766,190.802 209.766,201.635 228.5,213C 232.566,220.822 230.566,226.488 222.5,230C 220.167,230.667 217.833,230.667 215.5,230C 197.637,219.236 179.637,208.736 161.5,198.5C 159.857,194.705 159.191,190.705 159.5,186.5C 160.167,183.833 161.833,182.167 164.5,181.5C 166.764,180.781 169.097,180.448 171.5,180.5 Z"/>
    </g>
    <g style="" transform="matrix(0.031739, 0, 0, 0.031739, 117.199821, 47.901592)">
      <path style="opacity:1" fill="#080808" d="M 631.5,186.5 C 641.876,185.711 646.709,190.378 646,200.5C 644.859,202.609 643.359,204.442 641.5,206C 623.671,215.747 606.004,225.747 588.5,236C 580.353,237.371 575.686,233.871 574.5,225.5C 574.743,221.849 576.41,219.016 579.5,217C 597.061,207.059 614.394,196.892 631.5,186.5 Z"/>
    </g>
    <path style="opacity: 1;" fill="#050505" d="M 123.341 57.915 C 123.558 58.01 123.616 58.169 123.516 58.392 C 123.473 58.441 123.425 58.483 123.373 58.518 C 122.687 58.549 121.999 58.56 121.31 58.55 C 121.071 58.463 120.991 58.294 121.072 58.042 C 121.105 58.004 121.142 57.972 121.183 57.947 C 121.901 57.916 122.621 57.906 123.341 57.915 Z"/>
    <g style="" transform="matrix(0.031739, 0, 0, 0.031739, 117.199821, 47.901592)">
      <path style="opacity:1" fill="#050505" d="M 607.5,321.5 C 629.503,321.333 651.503,321.5 673.5,322C 679.657,324.511 681.824,329.011 680,335.5C 678.5,338.333 676.333,340.5 673.5,342C 651.5,342.667 629.5,342.667 607.5,342C 601.529,337.803 600.029,332.303 603,325.5C 604.397,323.93 605.897,322.596 607.5,321.5 Z"/>
    </g>
    <g style="" transform="matrix(0.031739, 0, 0, 0.031739, 117.199821, 47.901592)">
      <path style="opacity:1" fill="#070707" d="M 211.5,420.5 C 222.989,419.155 227.823,424.155 226,435.5C 224.833,436.667 223.667,437.833 222.5,439C 204.758,449.733 186.758,460.066 168.5,470C 158.222,470.038 154.055,464.871 156,454.5C 157.5,453 159,451.5 160.5,450C 177.858,440.659 194.858,430.825 211.5,420.5 Z"/>
    </g>
    <g style="" transform="matrix(0.031739, 0, 0, 0.031739, 117.199821, 47.901592)">
      <path style="opacity:1" fill="#070707" d="M 576.5,426.5 C 581.08,426.113 585.414,426.947 589.5,429C 606.335,439.252 623.335,449.252 640.5,459C 643.157,463.819 642.991,468.653 640,473.5C 636.239,476.243 632.072,477.076 627.5,476C 609.646,465.468 591.813,454.968 574,444.5C 569.995,437.686 570.828,431.686 576.5,426.5 Z"/>
    </g>
  </g>
</svg>