<?xml version="1.0" encoding="utf-8"?>
<!-- Generator: Adobe Illustrator 21.1.0, SVG Export Plug-In . SVG Version: 6.00 Build 0)  -->
<svg version="1.1" id="Ebene_1" xmlns="http://www.w3.org/2000/svg" xmlns:xlink="http://www.w3.org/1999/xlink" x="0px" y="0px"
	 viewBox="0 0 42.5 42.5" style="enable-background:new 0 0 42.5 42.5;" xml:space="preserve">
<path d="M19.9,20.5 M21.2,23.1c0-0.4-0.3-0.6-0.6-0.6c-0.4,0-0.6,0.3-0.6,0.6c0,0.9-0.6,1.9-1.6,2.6c-2.2,1.6-3.8,3.3-4.8,5.1
	c-0.1,0.2-0.1,0.4,0,0.6s0.3,0.3,0.6,0.3H27c0.2,0,0.4-0.1,0.6-0.3c0.1-0.2,0.1-0.4,0-0.6c-1-1.8-2.6-3.5-4.8-5.1
	C21.8,25,21.2,24,21.2,23.1L21.2,23.1z M31.8,32.8h-0.4c-0.4-5-3.4-8.9-5.7-11.6c2.3-2.7,5.2-6.6,5.7-11.6h0.4
	c0.7,0,1.3-0.6,1.3-1.3S32.5,7,31.8,7H9.3C8.6,7,8,7.6,8,8.3C8,9,8.6,9.6,9.3,9.6h0.4c0.4,5,3.4,8.9,5.7,11.6
	c-2.3,2.7-5.2,6.6-5.7,11.6H9.3c-0.7,0-1.3,0.6-1.3,1.3s0.6,1.3,1.3,1.3h22.5c0.7,0,1.3-0.6,1.3-1.3S32.5,32.8,31.8,32.8L31.8,32.8z
	 M12.3,32.8c0.5-4.5,3.4-8,5.6-10.6L18,22c0.4-0.5,0.4-1.2,0-1.7l-0.1-0.1c-2.2-2.6-5.1-6.1-5.6-10.6h16.6c-0.5,4.5-3.4,8-5.6,10.6
	l-0.1,0.1c-0.4,0.5-0.4,1.2,0,1.7l0.1,0.1c2.2,2.6,5.1,6.1,5.6,10.6L12.3,32.8L12.3,32.8z M19.1,17.9h-1.4v-7.1h1.4V17.9z
	 M21.7,15.4v2.5h-1.4v-7.1h2.4c0.7,0,1.3,0.2,1.7,0.7c0.4,0.4,0.6,1,0.6,1.7s-0.2,1.2-0.6,1.7c-0.4,0.4-1,0.6-1.7,0.6H21.7z
	 M21.7,14.2h1c0.3,0,0.5-0.1,0.6-0.3c0.1-0.2,0.2-0.4,0.2-0.8c0-0.4-0.1-0.6-0.2-0.8C23.2,12.1,23,12,22.7,12h-1V14.2z"/>
</svg>
