<?xml version="1.0" encoding="UTF-8" standalone="no"?>
<!-- Generator: Adobe Illustrator 21.1.0, SVG Export Plug-In . SVG Version: 6.00 Build 0)  -->

<svg
   xmlns:dc="http://purl.org/dc/elements/1.1/"
   xmlns:cc="http://creativecommons.org/ns#"
   xmlns:rdf="http://www.w3.org/1999/02/22-rdf-syntax-ns#"
   xmlns:svg="http://www.w3.org/2000/svg"
   xmlns="http://www.w3.org/2000/svg"
   xmlns:sodipodi="http://sodipodi.sourceforge.net/DTD/sodipodi-0.dtd"
   xmlns:inkscape="http://www.inkscape.org/namespaces/inkscape"
   version="1.1"
   id="Ebene_1"
   x="0px"
   y="0px"
   viewBox="0 0 42.5 42.5"
   style="enable-background:new 0 0 42.5 42.5;"
   xml:space="preserve"
   sodipodi:docname="icon_email_mailinglist.svg"
   inkscape:version="0.92.5 (2060ec1f9f, 2020-04-08)"><metadata
   id="metadata9"><rdf:RDF><cc:Work
       rdf:about=""><dc:format>image/svg+xml</dc:format><dc:type
         rdf:resource="http://purl.org/dc/dcmitype/StillImage" /><dc:title></dc:title></cc:Work></rdf:RDF></metadata><defs
   id="defs7" /><sodipodi:namedview
   pagecolor="#ffffff"
   bordercolor="#666666"
   borderopacity="1"
   objecttolerance="10"
   gridtolerance="10"
   guidetolerance="10"
   inkscape:pageopacity="0"
   inkscape:pageshadow="2"
   inkscape:window-width="1864"
   inkscape:window-height="1016"
   id="namedview5"
   showgrid="true"
   inkscape:object-paths="false"
   inkscape:snap-nodes="true"
   inkscape:snap-others="true"
   inkscape:snap-bbox="false"
   showguides="false"
   inkscape:zoom="3.9265224"
   inkscape:cx="-11.555007"
   inkscape:cy="33.980354"
   inkscape:window-x="1009"
   inkscape:window-y="1107"
   inkscape:window-maximized="1"
   inkscape:current-layer="Ebene_1"><inkscape:grid
     type="xygrid"
     id="grid3728" /></sodipodi:namedview>
<path
   d="m 33,22.238764 v -7.05337 c -0.348314,0.435393 -1.219101,1.044943 -1.741573,1.393258 -3.308988,2.438202 -5.921348,4.353932 -7.837079,5.921348 -0.60955,0.522472 -1.132022,0.870786 -1.567416,1.132022 -0.435393,0.261236 -0.957864,0.522473 -1.567416,0.870787 -0.696628,0.261236 -1.306179,0.435393 -1.91573,0.435393 v 0 c -0.60955,0 -1.219101,-0.174157 -1.91573,-0.435393 C 15.758427,24.241573 15.235955,23.893258 14.887641,23.632022 14.539326,23.370786 14.016854,22.935393 13.320225,22.5 11.404494,20.932584 8.7921348,19.016854 5.4831461,16.578652 l -1.741573,-1.393258 v 13.932584 c 0,0.174157 0.087078,0.261235 0.1741572,0.435392 0.261236,0 0.4353933,0.08708 0.522472,0.08708 H 22.02809 v 2.002809 H 4.9606741 c -0.7837078,0 -1.480337,-0.261236 -2.0898876,-0.783709 C 2.261236,30.337079 2,29.640449 2,28.856742 V 9.7865169 C 2,9.002809 2.261236,8.3932584 2.8707865,7.7837078 3.4803371,7.1741573 4.0898876,7 4.9606741,7 H 31.955056 c 0.783708,0 1.480337,0.261236 2.089888,0.7837078 0.60955,0.6095506 0.870786,1.2191012 0.870786,2.0028091 V 22.238764 M 33,10.483146 v -0.6095501 0 L 32.912921,9.4382023 32.825843,9.2640449 32.651686,9.0898876 32.39045,9.002809 H 4.4382023 c -0.1741574,0 -0.261236,0.087079 -0.4353933,0.1741573 C 3.91573,9.3511236 3.91573,9.4382023 3.91573,9.6123596 c 0,2.0028084 1.3932584,3.9185384 3.1348315,5.3117974 2.3511236,1.828652 4.7893265,3.744382 7.4016855,5.660112 0.08708,0.08708 0.261237,0.261236 0.609551,0.522473 0.348314,0.261236 0.60955,0.522472 0.870786,0.696629 0.174158,0.174157 0.522472,0.348314 0.783708,0.522471 0.348315,0.261237 0.60955,0.348316 0.957866,0.522473 0.261235,0.08708 0.522471,0.174157 0.783707,0.174157 v 0 c 0.261236,0 0.522472,-0.08708 0.783708,-0.174157 0.261236,-0.08708 0.60955,-0.261236 0.957865,-0.522473 0.348315,-0.261235 0.609551,-0.435393 0.783708,-0.522471 0.174157,-0.174157 0.522472,-0.348315 0.870786,-0.696629 0.348315,-0.348315 0.609551,-0.435394 0.609551,-0.522473 2.525281,-2.002808 4.963483,-3.83146 7.401686,-5.660112 0.696628,-0.522472 1.828651,-1.480337 2.351123,-2.351123 C 32.738764,11.702247 33,11.179775 33,10.483146 Z"
   id="path2"
   inkscape:connector-curvature="0"
   sodipodi:nodetypes="ccccscccsscccscsccssssssscscsccccccscsccscccccsscscsss"
   style="stroke-width:0.87078649" />
<path
   id="path3742"
   d="m 40.047508,34.737525 v 1.852682 c 0,0.09502 -0.0475,0.142514 -0.09502,0.237525 -0.04752,0.09502 -0.142514,0.09502 -0.237524,0.09502 H 26.888706 c -0.09502,0 -0.142515,-0.04749 -0.237523,-0.09502 -0.04752,-0.04751 -0.09502,-0.142515 -0.09502,-0.237525 v -1.852682 c 0,-0.09502 0.0475,-0.142515 0.09502,-0.237525 0.04752,-0.04751 0.142513,-0.09502 0.237523,-0.09502 h 12.873768 c 0.09502,0 0.142516,0.04751 0.237526,0.09502 0,0.0475 0.0475,0.142514 0.0475,0.237525 z m 0,-5.320526 v 1.852684 c 0,0.09502 -0.0475,0.142514 -0.09502,0.237522 -0.04752,0.0475 -0.142514,0.09502 -0.237524,0.09502 H 26.888706 c -0.09502,0 -0.142515,-0.04749 -0.237523,-0.09502 -0.04752,-0.0475 -0.09502,-0.142514 -0.09502,-0.237522 v -1.852684 c 0,-0.09502 0.0475,-0.142515 0.09502,-0.237523 0.04752,-0.0475 0.142513,-0.09502 0.237523,-0.09502 h 12.873768 c 0.09502,0 0.142516,0.0475 0.237526,0.09502 0.09502,0.0475 0.0475,0.142514 0.0475,0.237523 z m 0,-5.225514 v 1.852682 c 0,0.09502 -0.0475,0.142514 -0.09502,0.237524 -0.04752,0.09502 -0.142514,0.09502 -0.237524,0.09502 H 26.888706 c -0.09502,0 -0.142515,-0.04749 -0.237523,-0.09502 -0.04752,-0.04751 -0.09502,-0.142516 -0.09502,-0.237524 v -1.852682 c 0,-0.09502 0.0475,-0.142516 0.09502,-0.237526 0.04752,-0.0475 0.142513,-0.09502 0.237523,-0.09502 h 12.873768 c 0.09502,0 0.142516,0.0475 0.237526,0.09502 0.09502,0.04752 0.0475,0.142515 0.0475,0.237526 z m -16.246604,1.377634 c -0.142515,-0.142515 -0.237523,-0.332532 -0.237523,-0.570057 0,-0.237521 0.09502,-0.427541 0.237523,-0.570054 0.142514,-0.142517 0.332533,-0.237523 0.570058,-0.237523 0.237522,0 0.427541,0.09502 0.570055,0.237523 0.142515,0.142513 0.237523,0.332533 0.237523,0.570054 0,0.237525 -0.09502,0.427542 -0.237523,0.570057 -0.142514,0.142515 -0.332533,0.237524 -0.570055,0.237524 -0.190019,0 -0.38004,-0.09502 -0.570058,-0.237524 z m 0,5.225516 c -0.142515,-0.142513 -0.237523,-0.332532 -0.237523,-0.570058 0,-0.237521 0.09502,-0.427542 0.237523,-0.570053 0.142514,-0.142514 0.332533,-0.237525 0.570058,-0.237525 0.237522,0 0.427541,0.09502 0.570055,0.237525 0.142515,0.142511 0.237523,0.332532 0.237523,0.570053 0,0.237526 -0.09502,0.427545 -0.237523,0.570058 -0.142514,0.142514 -0.332533,0.237524 -0.570055,0.237524 -0.190019,0 -0.38004,-0.09502 -0.570058,-0.237524 z m 0,5.225516 c -0.142515,-0.142514 -0.237523,-0.332533 -0.237523,-0.570057 0,-0.237522 0.09502,-0.427542 0.237523,-0.570056 0.142514,-0.142513 0.332533,-0.237524 0.570058,-0.237524 0.237522,0 0.427541,0.09502 0.570055,0.237524 0.142515,0.142514 0.237523,0.332534 0.237523,0.570056 0,0.237524 -0.09502,0.427543 -0.237523,0.570057 -0.142514,0.142513 -0.332533,0.237525 -0.570055,0.237525 -0.190019,0 -0.38004,-0.09502 -0.570058,-0.237525 z"
   inkscape:connector-curvature="0"
   style="stroke-width:0.4750469" /></svg>