<?xml version="1.0" encoding="utf-8"?>
<!-- Generator: Adobe Illustrator 23.0.1, SVG Export Plug-In . SVG Version: 6.00 Build 0)  -->
<svg version="1.1" id="Ebene_1" xmlns="http://www.w3.org/2000/svg" xmlns:xlink="http://www.w3.org/1999/xlink" x="0px" y="0px"
	 viewBox="0 0 42.52 42.52" style="enable-background:new 0 0 42.52 42.52;" xml:space="preserve">
<style type="text/css">
	.st0{fill:#FFFFFF;}
</style>
<g>
	<path d="M11.23,4C9.19,4,7.54,5.65,7.54,7.69v26.51c0,2.04,1.65,3.69,3.69,3.69h7.49c2.04,0,3.69-1.65,3.69-3.69V19.44h-7.44
		c-2.49,0-4.52-2.02-4.52-4.52c0-2.5,2.02-4.52,4.52-4.52h7.44V7.69c0-2.04-1.65-3.69-3.69-3.69H11.23L11.23,4z M13.37,28.01"/>
	<path d="M12.15,14.92c0,1.56,1.26,2.82,2.82,2.82h19.95c1.56,0,2.82-1.26,2.82-2.82c0-1.56-1.26-2.82-2.82-2.82H14.98
		C13.42,12.09,12.15,13.36,12.15,14.92L12.15,14.92z M12.15,14.92"/>
</g>
<g>
	<path class="st0" d="M16.56,32.37h-2.35v-4.54c0-0.55,0.01-1.05,0.04-1.51c-0.14,0.18-0.32,0.36-0.54,0.55l-0.97,0.8l-1.2-1.48
		l2.94-2.4h2.09V32.37z"/>
</g>
</svg>
