<?xml version="1.0" encoding="utf-8"?>
<!-- Generator: Adobe Illustrator 21.1.0, SVG Export Plug-In . SVG Version: 6.00 Build 0)  -->
<svg version="1.1" id="Ebene_1" xmlns="http://www.w3.org/2000/svg" xmlns:xlink="http://www.w3.org/1999/xlink" x="0px" y="0px"
	 viewBox="0 0 42.5 42.5" style="enable-background:new 0 0 42.5 42.5;" xml:space="preserve">
<style type="text/css">
	.st0{fill:#FFFFFF;}
</style>
<g>
	<path d="M27.8,15.3H9.3c-0.1,0-0.3,0.1-0.4,0.2s-0.2,0.2-0.2,0.4V19c0,0.1,0.1,0.3,0.2,0.4s0.2,0.2,0.4,0.2h15.1
		C25,17.7,26.2,16.2,27.8,15.3z"/>
	<path d="M23,24c0.3-0.5,0.7-0.9,1.2-1.2c0,0,0,0,0,0H9.3c-0.1,0-0.3,0.1-0.4,0.2c-0.1,0.1-0.2,0.2-0.2,0.4v3.1
		c0,0.1,0.1,0.3,0.2,0.4s0.2,0.2,0.4,0.2h12.5c0.1-0.3,0.1-0.6,0.2-0.9C22.3,25.2,22.6,24.6,23,24z"/>
	<path d="M9.3,11.5h21.9c0.1,0,0.3-0.1,0.4-0.2s0.2-0.2,0.2-0.4V7.9c0-0.1-0.1-0.3-0.2-0.4s-0.2-0.2-0.4-0.2H9.3
		C9.2,7.3,9.1,7.4,9,7.5S8.8,7.7,8.8,7.9V11c0,0.1,0.1,0.3,0.2,0.4S9.2,11.5,9.3,11.5z"/>
	<path class="st0" d="M24.3,22.8L24.3,22.8C24.2,22.8,24.2,22.8,24.3,22.8C24.2,22.8,24.3,22.8,24.3,22.8z"/>
	<path d="M7.4,7.1C7.3,7,7.2,7,7.1,7C7,7,6.9,7,6.8,7.1l-3.5,3.5L1.9,9.2C1.8,9.1,1.7,9.1,1.6,9.1c-0.1,0-0.2,0-0.3,0.1L1.1,9.3
		C1,9.4,1,9.5,1,9.6S1,9.9,1.1,10L3,11.8C3.1,11.9,3.2,12,3.3,12c0.1,0,0.2,0,0.3-0.1l3.9-3.9c0.1-0.1,0.1-0.2,0.1-0.3
		c0-0.1,0-0.2-0.1-0.3L7.4,7.1z"/>
	<path d="M7.4,14.8c-0.1-0.1-0.2-0.1-0.3-0.1c-0.1,0-0.2,0-0.3,0.1l-3.5,3.5l-1.4-1.4c-0.1-0.1-0.2-0.1-0.3-0.1
		c-0.1,0-0.2,0-0.3,0.1L1.1,17C1,17.1,1,17.2,1,17.3c0,0.1,0,0.2,0.1,0.3L3,19.5c0.1,0.1,0.2,0.1,0.3,0.1c0.1,0,0.2,0,0.3-0.1
		l3.9-3.9c0.1-0.1,0.1-0.2,0.1-0.3s0-0.2-0.1-0.3L7.4,14.8z"/>
	<path d="M7.4,22.1C7.3,22,7.2,22,7.1,22c-0.1,0-0.2,0-0.3,0.1l-3.5,3.5l-1.4-1.4c-0.1-0.1-0.2-0.1-0.3-0.1c-0.1,0-0.2,0-0.3,0.1
		l-0.1,0.1C1,24.4,1,24.5,1,24.6s0,0.2,0.1,0.3L3,26.8c0.1,0.1,0.2,0.1,0.3,0.1c0.1,0,0.2,0,0.3-0.1l3.9-3.9
		c0.1-0.1,0.1-0.2,0.1-0.3c0-0.1,0-0.2-0.1-0.3L7.4,22.1z"/>
</g>
<path d="M40.7,31.9c0,0.9-0.3,1.8-0.8,2.4c-0.5,0.7-1.2,1-2,1H26.8c-0.8,0-1.4-0.3-2-1c-0.5-0.7-0.8-1.5-0.8-2.4
	c0-0.7,0-1.4,0.1-2.1c0.1-0.7,0.2-1.3,0.4-2c0.2-0.7,0.5-1.2,0.8-1.7c0.3-0.5,0.7-0.9,1.2-1.2s1.1-0.4,1.8-0.4
	c1.1,1.1,2.5,1.7,4.1,1.7s2.9-0.6,4.1-1.7c0.7,0,1.2,0.1,1.8,0.4c0.5,0.3,0.9,0.7,1.2,1.2c0.3,0.5,0.6,1,0.8,1.7s0.3,1.3,0.4,2
	C40.7,30.5,40.7,31.2,40.7,31.9z"/>
<path d="M37.4,20.3c0,1.4-0.5,2.6-1.5,3.5c-1,1-2.2,1.5-3.5,1.5c-1.4,0-2.6-0.5-3.5-1.5s-1.5-2.2-1.5-3.5c0-1.4,0.5-2.6,1.5-3.5
	s2.2-1.5,3.5-1.5c1.4,0,2.6,0.5,3.5,1.5C36.9,17.8,37.4,19,37.4,20.3z"/>
</svg>
