<?xml version="1.0" encoding="utf-8"?>
<!-- Generator: Adobe Illustrator 21.1.0, SVG Export Plug-In . SVG Version: 6.00 Build 0)  -->
<svg version="1.1" id="Ebene_1" xmlns="http://www.w3.org/2000/svg" xmlns:xlink="http://www.w3.org/1999/xlink" x="0px" y="0px"
	 viewBox="0 0 42.5 42.5" style="enable-background:new 0 0 42.5 42.5;" xml:space="preserve">
<style type="text/css">
	.st0{fill:#FFFFFF;}
</style>
<path d="M37.5,14.7v14.2c0,1.2-0.4,2.3-1.3,3.2c-0.9,0.9-1.9,1.3-3.2,1.3H8.5c-1.2,0-2.3-0.4-3.2-1.3S4,30.1,4,28.8V9.5
	c0-1.2,0.4-2.3,1.3-3.2S7.3,5,8.5,5H15c1.2,0,2.3,0.4,3.2,1.3c0.9,0.9,1.3,1.9,1.3,3.2v0.6H33c1.2,0,2.3,0.4,3.2,1.3
	C37.1,12.4,37.5,13.4,37.5,14.7z"/>
<path class="st0" d="M30.1,18.4c0.2,0.2,0.4,0.5,0.6,0.9c0.2,0.4,0.2,0.8,0.2,1.1v14.2c0,0.3-0.1,0.6-0.3,0.8
	c-0.2,0.2-0.5,0.3-0.8,0.3H13.2c-0.3,0-0.6-0.1-0.8-0.3c-0.2-0.2-0.3-0.5-0.3-0.8V14.8c0-0.3,0.1-0.6,0.3-0.8
	c0.2-0.2,0.5-0.3,0.8-0.3h11.1c0.3,0,0.7,0.1,1.1,0.2c0.4,0.2,0.7,0.4,0.9,0.6L30.1,18.4z M24.6,15.3V20h4.6
	c-0.1-0.2-0.2-0.4-0.3-0.5l-3.9-3.9C25,15.5,24.9,15.4,24.6,15.3z"/>
</svg>
