<?xml version="1.0" encoding="utf-8"?>
<!-- Generator: Adobe Illustrator 21.1.0, SVG Export Plug-In . SVG Version: 6.00 Build 0)  -->
<svg version="1.1" id="Ebene_1" xmlns="http://www.w3.org/2000/svg" xmlns:xlink="http://www.w3.org/1999/xlink" x="0px" y="0px"
	 viewBox="5 5 32.5 32.5" style="enable-background:new 0 0 42.5 42.5;" xml:space="preserve">
<style type="text/css">
	.st0{fill:#000000;}
</style>
<path id="red_x5F_cross_x5F_big_1_" class="st0" d="M28.7,27.5l-1.2,1.2c-0.2,0.2-0.4,0.2-0.6,0.2s-0.4-0.1-0.6-0.2l-5-5l-5,5
	c-0.2,0.2-0.4,0.2-0.6,0.2s-0.4-0.1-0.6-0.2l-1.2-1.2c-0.2-0.2-0.2-0.4-0.2-0.6s0.1-0.4,0.2-0.6l5-5l-5-5c-0.2-0.2-0.2-0.4-0.2-0.6
	s0.1-0.4,0.2-0.6l1.2-1.2c0.2-0.2,0.4-0.2,0.6-0.2s0.4,0.1,0.6,0.2l5,5l5-5c0.2-0.2,0.4-0.2,0.6-0.2s0.4,0.1,0.6,0.2l1.2,1.2
	c0.2,0.2,0.2,0.4,0.2,0.6s-0.1,0.4-0.2,0.6l-5,5l5,5c0.2,0.2,0.2,0.4,0.2,0.6S28.9,27.3,28.7,27.5z"/>
</svg>
