<?xml version="1.0" encoding="utf-8"?>
<!-- Generator: Adobe Illustrator 21.1.0, SVG Export Plug-In . SVG Version: 6.00 Build 0)  -->
<svg version="1.1" id="Ebene_1" xmlns="http://www.w3.org/2000/svg" xmlns:xlink="http://www.w3.org/1999/xlink" x="0px" y="0px"
	 viewBox="0 0 42.5 42.5" style="enable-background:new 0 0 42.5 42.5;" xml:space="preserve">
<path d="M35.5,25h2.4v7.4c0,0.8-0.3,1.5-0.9,2.1s-1.3,0.9-2.1,0.9H3c-0.8,0-1.5-0.3-2.1-0.9S0,33.2,0,32.4V10c0-0.8,0.3-1.5,0.9-2.1
	S2.2,7,3,7h31.9c0.8,0,1.5,0.3,2.1,0.9s0.9,1.3,0.9,2.1v0.7h-2.4V10c0-0.2-0.1-0.3-0.2-0.4S35,9.4,34.9,9.4H3
	c-0.2,0-0.3,0.1-0.4,0.2S2.4,9.8,2.4,10v22.4c0,0.2,0.1,0.3,0.2,0.4S2.8,33,3,33h6.5v-1.8c0-0.2,0.1-0.3,0.2-0.4
	c0.1-0.1,0.3-0.2,0.4-0.2h1.2c0.2,0,0.3,0.1,0.4,0.2c0.1,0.1,0.2,0.3,0.2,0.4V33H26v-1.8c0-0.2,0.1-0.3,0.2-0.4s0.3-0.2,0.4-0.2h1.2
	c0.2,0,0.3,0.1,0.4,0.2s0.2,0.3,0.2,0.4V33h6.5c0.2,0,0.3-0.1,0.4-0.2s0.2-0.3,0.2-0.4C35.5,32.4,35.5,25,35.5,25z M35,14.2l4.1,5.2
	L27,28.9l-4.6-0.6l0.6-4.6L35,14.2z M41.9,17.2l-1.7,1.3l-4.1-5.2l1.7-1.3c0.3-0.3,0.7-0.4,1.1-0.3c0.4,0.1,0.8,0.2,1,0.6L42,15
	c0.3,0.3,0.4,0.7,0.3,1.1C42.2,16.5,42.2,16.9,41.9,17.2z M26.5,27.2l2.1-1.6l-2.1-2.7l-2.1,1.6l-0.1,0.9l1.5,0.2l-0.2,1.5
	L26.5,27.2z M35,16.5c-0.2-0.2-0.3-0.2-0.5,0l-6.3,4.9c-0.2,0.2-0.2,0.3-0.1,0.5c0.2,0.2,0.3,0.2,0.5,0l6.3-4.9
	C35.1,16.9,35.1,16.7,35,16.5z M10,20.3c-1.1,0.1-1.9,0.5-2.6,1.3H6.1c-0.5,0-1-0.2-1.4-0.4C4.3,21,4.1,20.6,4.1,20
	c0-2.3,0.4-3.5,1.2-3.5c0.1,0,0.2,0.1,0.4,0.2C6,16.9,6.3,17,6.7,17.1c0.4,0.2,0.8,0.2,1.2,0.2c0.4,0,0.9-0.1,1.3-0.2
	c-0.1,0.3-0.1,0.5-0.1,0.6C9.2,18.7,9.5,19.6,10,20.3z M20.8,26.8c0,0.8-0.3,1.4-0.7,1.9s-1.1,0.7-1.9,0.7H9.5
	c-0.8,0-1.4-0.2-1.9-0.7c-0.5-0.5-0.7-1.1-0.7-1.9c0-0.4,0-0.7,0.1-1.1C6.9,25.3,6.9,25,7,24.6c0.1-0.4,0.2-0.7,0.3-1.1
	c0.1-0.3,0.3-0.6,0.4-0.9s0.4-0.6,0.6-0.8c0.2-0.2,0.5-0.4,0.8-0.5c0.3-0.1,0.7-0.2,1.1-0.2c0.1,0,0.2,0.1,0.4,0.2
	c0.2,0.2,0.5,0.3,0.7,0.5c0.3,0.2,0.6,0.3,1.1,0.5c0.4,0.2,0.9,0.2,1.3,0.2c0.4,0,0.9-0.1,1.3-0.2c0.4-0.2,0.8-0.3,1.1-0.5
	c0.3-0.2,0.5-0.3,0.7-0.5c0.2-0.2,0.4-0.2,0.4-0.2c0.4,0,0.8,0.1,1.1,0.2s0.6,0.3,0.8,0.5c0.2,0.2,0.4,0.5,0.6,0.8
	c0.2,0.3,0.3,0.6,0.4,0.9c0.1,0.3,0.2,0.7,0.3,1.1c0.1,0.4,0.1,0.7,0.2,1.1C20.8,26.1,20.8,26.4,20.8,26.8z M10.5,14
	c0,0.7-0.3,1.3-0.7,1.8c-0.5,0.5-1.1,0.7-1.8,0.7c-0.7,0-1.3-0.3-1.8-0.7c-0.5-0.5-0.7-1.1-0.7-1.8s0.3-1.3,0.7-1.8s1.1-0.7,1.7-0.7
	s1.3,0.3,1.8,0.7S10.5,13.3,10.5,14z M17.2,17.8c0,0.9-0.3,1.7-1,2.4c-0.7,0.7-1.5,1-2.4,1c-0.9,0-1.7-0.3-2.4-1
	c-0.7-0.7-1-1.5-1-2.4s0.3-1.7,1-2.4s1.5-1,2.4-1c0.9,0,1.7,0.3,2.4,1C16.9,16.1,17.2,16.9,17.2,17.8z M23.5,20
	c0,0.5-0.2,0.9-0.6,1.2s-0.8,0.4-1.4,0.4h-1.3c-0.7-0.8-1.6-1.3-2.6-1.3c0.5-0.8,0.8-1.6,0.8-2.5c0-0.2,0-0.4-0.1-0.6
	c0.4,0.2,0.9,0.2,1.3,0.2c0.4,0,0.8-0.1,1.2-0.2c0.4-0.2,0.7-0.3,0.9-0.4c0.3-0.2,0.4-0.2,0.4-0.2C23.1,16.6,23.5,17.7,23.5,20z
	 M22.2,14c0,0.7-0.3,1.3-0.7,1.8c-0.5,0.5-1.1,0.7-1.8,0.7c-0.7,0-1.3-0.3-1.8-0.7c-0.5-0.5-0.7-1.1-0.7-1.8s0.3-1.3,0.7-1.8
	c0.5-0.5,1.1-0.7,1.8-0.7c0.7,0,1.3,0.3,1.8,0.7C22,12.7,22.2,13.3,22.2,14z"/>
</svg>
