<?xml version="1.0" encoding="utf-8"?>
<!-- Generator: Adobe Illustrator 21.1.0, SVG Export Plug-In . SVG Version: 6.00 Build 0)  -->
<svg version="1.1" id="Ebene_1" xmlns="http://www.w3.org/2000/svg" xmlns:xlink="http://www.w3.org/1999/xlink" x="0px" y="0px"
	 viewBox="0 0 42.5 42.5" style="enable-background:new 0 0 42.5 42.5;" xml:space="preserve">
<path d="M35.4,25h2.4v7.4c0,0.8-0.3,1.5-0.9,2.1s-1.3,0.9-2.1,0.9H3c-0.8,0-1.5-0.3-2.1-0.9S0,33.2,0,32.4V10c0-0.8,0.3-1.5,0.9-2.1
	S2.1,7,3,7h31.9c0.8,0,1.5,0.3,2.1,0.9s0.9,1.3,0.9,2.1v0.7h-2.4V10c0-0.2-0.1-0.3-0.2-0.4S35,9.4,34.8,9.4H3
	c-0.2,0-0.3,0.1-0.4,0.2S2.4,9.8,2.4,10v22.4c0,0.2,0.1,0.3,0.2,0.4S2.8,33,3,33h6.5v-1.8c0-0.2,0.1-0.3,0.2-0.4
	c0.1-0.1,0.3-0.2,0.4-0.2h1.2c0.2,0,0.3,0.1,0.4,0.2c0.1,0.1,0.2,0.3,0.2,0.4V33H26v-1.8c0-0.2,0.1-0.3,0.2-0.4s0.3-0.2,0.4-0.2h1.2
	c0.2,0,0.3,0.1,0.4,0.2s0.2,0.3,0.2,0.4V33h6.5c0.2,0,0.3-0.1,0.4-0.2s0.2-0.3,0.2-0.4V25H35.4z M35,14.2l4.1,5.2L27,28.9l-4.6-0.6
	l0.6-4.6L35,14.2z M41.8,17.2l-1.7,1.3L36,13.3l1.7-1.3c0.3-0.3,0.7-0.4,1.1-0.3s0.8,0.2,1,0.6l2.1,2.7c0.3,0.3,0.4,0.7,0.3,1.1
	C42.4,16.6,42.2,16.9,41.8,17.2z M26.4,27.2l2.1-1.6l-2.1-2.7l-2.1,1.6l-0.1,0.9l1.5,0.2l-0.2,1.5L26.4,27.2z M34.9,16.5
	c-0.2-0.2-0.3-0.2-0.5,0l-6.3,4.9c-0.2,0.2-0.2,0.3-0.1,0.5c0.2,0.2,0.3,0.2,0.5,0l6.3-4.9C35.1,16.9,35.1,16.7,34.9,16.5z
	 M18.9,25.5c0,0.8-0.2,1.4-0.7,2s-1,0.8-1.7,0.8H7.1c-0.7,0-1.2-0.3-1.7-0.8s-0.7-1.2-0.7-2c0-0.8,0.1-1.5,0.2-2.2s0.3-1.3,0.5-1.9
	c0.3-0.6,0.6-1.1,1.1-1.4c0.5-0.4,1.1-0.5,1.8-0.5c0.1,0,0.3,0.2,0.6,0.3s0.5,0.3,0.7,0.4c0.2,0.1,0.4,0.2,0.7,0.3
	c0.3,0.1,0.5,0.2,0.8,0.3c0.3,0.1,0.5,0.1,0.8,0.1c0.3,0,0.5,0,0.8-0.1c0.3-0.1,0.5-0.1,0.8-0.3c0.3-0.1,0.5-0.2,0.7-0.3
	c0.2-0.1,0.4-0.2,0.7-0.4c0.3-0.2,0.5-0.3,0.6-0.3c0.7,0,1.3,0.2,1.8,0.5c0.5,0.4,0.9,0.8,1.1,1.4c0.3,0.6,0.4,1.2,0.5,1.9
	C18.8,24,18.9,24.7,18.9,25.5z M16,15.9c0,1.2-0.4,2.1-1.2,3c-0.8,0.8-1.8,1.2-3,1.2s-2.1-0.4-3-1.2s-1.2-1.8-1.2-3s0.4-2.1,1.2-3
	c0.8-0.8,1.8-1.2,3-1.2s2.1,0.4,3,1.2C15.6,13.8,16,14.8,16,15.9z"/>
</svg>
