<?xml version="1.0" encoding="utf-8"?>
<!-- Generator: Adobe Illustrator 21.1.0, SVG Export Plug-In . SVG Version: 6.00 Build 0)  -->
<svg version="1.1" id="Ebene_1" xmlns="http://www.w3.org/2000/svg" xmlns:xlink="http://www.w3.org/1999/xlink" x="0px" y="0px"
	 viewBox="0 0 42.5 42.5" style="enable-background:new 0 0 42.5 42.5;" xml:space="preserve">
<path d="M10,20.3c-1.1,0.1-1.9,0.5-2.6,1.3H6c-0.5,0-1-0.2-1.4-0.4c-0.4-0.2-0.6-0.6-0.6-1.2c0-2.3,0.4-3.5,1.2-3.5
	c0.1,0,0.2,0.1,0.4,0.2c0.3,0.2,0.6,0.3,0.9,0.4c0.4,0.2,0.8,0.2,1.2,0.2c0.4,0,0.9-0.1,1.3-0.2c-0.1,0.3-0.1,0.5-0.1,0.6
	C9.2,18.7,9.5,19.5,10,20.3z M20.8,26.7c0,0.8-0.3,1.4-0.7,1.9c-0.5,0.5-1.1,0.7-1.9,0.7H9.5c-0.8,0-1.4-0.2-1.9-0.7
	c-0.5-0.5-0.7-1.1-0.7-1.9c0-0.4,0-0.7,0.1-1.1C6.9,25.3,6.9,25,7,24.6c0.1-0.4,0.2-0.7,0.3-1.1c0.1-0.3,0.3-0.6,0.4-0.9
	S8,22,8.3,21.8c0.2-0.2,0.5-0.4,0.8-0.5c0.3-0.1,0.7-0.2,1.1-0.2c0.1,0,0.2,0.1,0.4,0.2c0.2,0.2,0.5,0.3,0.7,0.5
	c0.3,0.2,0.6,0.3,1.1,0.5c0.4,0.2,0.9,0.2,1.3,0.2c0.4,0,0.9-0.1,1.3-0.2c0.4-0.2,0.8-0.3,1.1-0.5c0.3-0.2,0.5-0.3,0.7-0.5
	c0.2-0.2,0.4-0.2,0.4-0.2c0.4,0,0.8,0.1,1.1,0.2s0.6,0.3,0.8,0.5c0.2,0.2,0.4,0.5,0.6,0.8c0.2,0.3,0.3,0.6,0.4,0.9
	c0.1,0.3,0.2,0.7,0.3,1.1c0.1,0.4,0.1,0.7,0.2,1.1C20.8,26,20.8,26.4,20.8,26.7z M10.5,13.9c0,0.7-0.3,1.3-0.7,1.8
	c-0.5,0.5-1.1,0.7-1.8,0.7c-0.7,0-1.3-0.3-1.8-0.7c-0.5-0.5-0.7-1.1-0.7-1.8s0.3-1.3,0.7-1.8s1.1-0.7,1.7-0.7s1.3,0.3,1.8,0.7
	S10.5,13.2,10.5,13.9z M17.1,17.8c0,0.9-0.3,1.7-1,2.4c-0.7,0.7-1.5,1-2.4,1c-0.9,0-1.7-0.3-2.4-1c-0.7-0.7-1-1.5-1-2.4
	s0.3-1.7,1-2.4s1.5-1,2.4-1c0.9,0,1.7,0.3,2.4,1C16.8,16,17.1,16.8,17.1,17.8z M22.2,13.9c0,0.7-0.3,1.3-0.7,1.8
	c-0.5,0.5-1.1,0.7-1.8,0.7c-0.7,0-1.3-0.3-1.8-0.7c-0.5-0.5-0.7-1.1-0.7-1.8s0.3-1.3,0.7-1.8c0.5-0.5,1.1-0.7,1.8-0.7
	c0.7,0,1.3,0.3,1.8,0.7C21.9,12.7,22.2,13.2,22.2,13.9z M35.5,25h2.4v7.4c0,0.8-0.3,1.5-0.9,2.1s-1.3,0.9-2.1,0.9H3
	c-0.8,0-1.5-0.3-2.1-0.9S0,33.2,0,32.4V10c0-0.8,0.3-1.5,0.9-2.1S2.2,7,3,7h31.9c0.8,0,1.5,0.3,2.1,0.9s0.9,1.3,0.9,2.1v0.7h-2.4V10
	c0-0.2-0.1-0.3-0.2-0.4S35,9.4,34.9,9.4H3c-0.2,0-0.3,0.1-0.4,0.2S2.4,9.8,2.4,10v22.4c0,0.2,0.1,0.3,0.2,0.4S2.8,33,3,33h6.5v-1.8
	c0-0.2,0.1-0.3,0.2-0.4c0.1-0.1,0.3-0.2,0.4-0.2h1.2c0.2,0,0.3,0.1,0.4,0.2c0.1,0.1,0.2,0.3,0.2,0.4V33H26v-1.8
	c0-0.2,0.1-0.3,0.2-0.4c0.1-0.1,0.3-0.2,0.4-0.2h1.2c0.2,0,0.3,0.1,0.4,0.2c0.1,0.1,0.2,0.3,0.2,0.4V33h6.5c0.2,0,0.3-0.1,0.4-0.2
	s0.2-0.3,0.2-0.4V25z M35,14.2l4.1,5.2l-12.1,9.5l-4.6-0.6l0.6-4.6L35,14.2z M41.9,17.2l-1.7,1.3l-4.1-5.2l1.7-1.3
	c0.3-0.3,0.7-0.4,1.1-0.3c0.4,0.1,0.8,0.2,1,0.6l2.1,2.7c0.3,0.3,0.4,0.7,0.3,1.1S42.2,16.9,41.9,17.2z M26.5,27.2l2.1-1.6l-2.1-2.7
	l-2.1,1.6l-0.1,0.9l1.5,0.2l-0.2,1.5L26.5,27.2z M35,16.5c-0.2-0.2-0.3-0.2-0.5,0l-6.3,4.9c-0.2,0.2-0.2,0.3-0.1,0.5
	c0.2,0.2,0.3,0.2,0.5,0l6.3-4.9C35.1,16.9,35.1,16.7,35,16.5z"/>
</svg>
