<?xml version="1.0" encoding="utf-8"?>
<!-- Generator: Adobe Illustrator 21.1.0, SVG Export Plug-In . SVG Version: 6.00 Build 0)  -->
<svg version="1.1" id="Ebene_1" xmlns="http://www.w3.org/2000/svg" xmlns:xlink="http://www.w3.org/1999/xlink" x="0px" y="0px"
	 viewBox="0 0 42.5 42.5" style="enable-background:new 0 0 42.5 42.5;" xml:space="preserve">
<path d="M22.6,20.9c0.1,0.1,0.1,0.2,0.1,0.4v1c0,0.2,0,0.3-0.1,0.4c-0.1,0.1-0.2,0.1-0.4,0.1H10.7c-0.2,0-0.3,0-0.4-0.1
	c-0.1-0.1-0.1-0.2-0.1-0.4v-1c0-0.2,0-0.3,0.1-0.4c0.1-0.1,0.2-0.1,0.4-0.1h11.5C22.4,20.7,22.5,20.8,22.6,20.9z M22.6,16.7
	c-0.1-0.1-0.2-0.1-0.4-0.1H10.7c-0.2,0-0.3,0-0.4,0.1c-0.1,0.1-0.1,0.2-0.1,0.4v1c0,0.2,0,0.3,0.1,0.4c0.1,0.1,0.2,0.1,0.4,0.1h11.5
	c0.2,0,0.3,0,0.4-0.1c0.1-0.1,0.1-0.2,0.1-0.4v-1C22.7,16.9,22.7,16.8,22.6,16.7z M6,6.1h12.5v6.8c0,0.4,0.2,0.8,0.5,1.1
	s0.7,0.5,1.1,0.5h6.8v9.2H29V12.9c0-0.4-0.1-0.9-0.3-1.4c-0.2-0.5-0.5-0.9-0.8-1.2l-5.1-5.1c-0.3-0.3-0.7-0.6-1.2-0.8
	C21,4.1,20.5,4,20.1,4H5.5C5,4,4.7,4.2,4.4,4.5C4.1,4.8,3.9,5.1,3.9,5.6v18.1H6V6.1z M20.6,6.2c0.3,0.1,0.5,0.2,0.7,0.4l5.1,5.1
	c0.1,0.1,0.3,0.4,0.4,0.7h-6.1V6.2z M30.4,35.9c-0.1,0.1-0.3,0.2-0.4,0.2H2.4c-0.2,0-0.3-0.1-0.4-0.2c-0.1-0.1-0.2-0.2-0.2-0.4V22.4
	c0.4,0.4,1.3,1,1.7,1.4c3.2,2.3,5.8,4.1,7.7,5.6c0.6,0.5,1.1,0.8,1.5,1.1c0.4,0.3,0.9,0.5,1.6,0.8c0.7,0.3,1.3,0.4,1.9,0.4h0
	c0.6,0,1.2-0.1,1.9-0.4c0.7-0.3,1.2-0.5,1.6-0.8c0.4-0.3,0.9-0.6,1.5-1.1c1.9-1.5,4.5-3.3,7.7-5.6c0.4-0.3,1.3-1,1.7-1.4v2.9h1.9
	v-7.9c0-0.7-0.3-1.3-0.9-1.9c-0.3-0.3-0.7-0.5-1-0.6v2.4l0,0l0,0.1V18c0,0.7-0.2,1.1-0.8,2c-0.6,0.8-1.7,1.7-2.3,2.2
	c-2.3,1.7-4.7,3.5-7.3,5.4c-0.1,0.1-0.3,0.2-0.6,0.5c-0.3,0.3-0.6,0.5-0.8,0.6c-0.2,0.1-0.5,0.3-0.8,0.5c-0.3,0.2-0.6,0.4-0.9,0.5
	c-0.3,0.1-0.5,0.2-0.8,0.2h0c-0.2,0-0.5-0.1-0.8-0.2c-0.3-0.1-0.6-0.3-0.9-0.5c-0.3-0.2-0.6-0.4-0.8-0.5c-0.2-0.1-0.5-0.4-0.8-0.6
	s-0.6-0.4-0.6-0.5c-2.5-1.9-4.9-3.7-7.3-5.4c-1.7-1.3-3.1-3-3.1-4.9h0v-0.1c0,0,0,0,0,0c0,0,0,0,0,0v-2.3c-0.4,0.1-0.7,0.3-1,0.6
	C0.3,16,0,16.6,0,17.4v18c0,0.7,0.3,1.3,0.9,1.9c0.6,0.5,1.2,0.8,2,0.8h26.6c0.8,0,1.5-0.3,2-0.8c0.5-0.5,0.8-1,0.8-1.7h-1.9
	C30.5,35.7,30.5,35.8,30.4,35.9z M42.1,27.4l-3.6-0.5l-1.6-3.3c-0.1-0.2-0.2-0.3-0.4-0.3s-0.3,0.1-0.4,0.3l-1.6,3.3l-3.6,0.5
	c-0.3,0-0.4,0.2-0.4,0.3c0,0.1,0.1,0.2,0.2,0.3l2.6,2.5l-0.6,3.6c0,0.1,0,0.1,0,0.1c0,0.1,0,0.2,0.1,0.3c0.1,0.1,0.1,0.1,0.2,0.1
	c0.1,0,0.2,0,0.3-0.1l3.2-1.7l3.2,1.7c0.1,0.1,0.2,0.1,0.3,0.1c0.1,0,0.2,0,0.2-0.1c0.1-0.1,0.1-0.2,0.1-0.3c0-0.1,0-0.1,0-0.1
	l-0.6-3.6l2.6-2.5c0.1-0.1,0.2-0.2,0.2-0.3C42.5,27.5,42.3,27.4,42.1,27.4z"/>
</svg>
