<?xml version="1.0" encoding="utf-8"?>
<!-- Generator: Adobe Illustrator 21.1.0, SVG Export Plug-In . SVG Version: 6.00 Build 0)  -->
<svg version="1.1" id="Ebene_1" xmlns="http://www.w3.org/2000/svg" xmlns:xlink="http://www.w3.org/1999/xlink" x="0px" y="0px"
	 viewBox="0 0 42.5 42.5" style="enable-background:new 0 0 42.5 42.5;" xml:space="preserve">
<path d="M13.6,32c0.1,0.3,0.5,0.4,0.7,0.6c0.3,0.1,0.6-0.1,0.8-0.2c1.3-0.6,3.1,0.1,4.5,0.1c0.8,0,0.8-1.3,0-1.3
	c-1.6,0-3-0.4-4.6-0.1c0-0.1,0-0.2-0.1-0.4c-0.3-0.5-0.7-0.7-1.1-0.6c0-0.1,0-0.1-0.1-0.2c-0.1-0.2-0.2-0.2-0.4-0.3
	c0.5-0.8,0.7-1.6,0.4-2.3c-0.1-0.2-0.3-0.3-0.6-0.3c-0.9,0-1.6,0.9-2.1,1.4c-1.4,1.3-2.6,2.9-3.8,4.4c-0.5,0.7,0.6,1.3,1.1,0.6
	c1-1.4,2.1-2.7,3.3-3.9c-0.3,0.5-0.6,0.9-0.9,1.4c-0.5,0.7,0.6,1.3,1.1,0.6c0.1-0.2,0.3-0.3,0.4-0.4c0,0.1-0.1,0.2-0.1,0.2
	c0,0,0,0,0,0c0,0.1-0.1,0.1-0.1,0.1c-0.3,0.7,0.8,1,1.2,0.5c0.1-0.1,0.2-0.3,0.3-0.4C13.6,31.7,13.6,31.9,13.6,32L13.6,32z
	 M26.7,35.6H2.4V6.4H17v7.9c0,0.5,0.2,0.9,0.5,1.3c0.4,0.4,0.8,0.5,1.3,0.5h7.9v2h2.4v-3.8c0-0.5-0.1-1.1-0.4-1.7
	c-0.3-0.6-0.6-1.1-0.9-1.4l-5.9-5.9c-0.4-0.4-0.8-0.7-1.4-0.9C19.9,4.1,19.3,4,18.8,4h-17C1.3,4,0.9,4.1,0.5,4.5
	C0.2,4.9,0,5.3,0,5.8v30.4c0,0.5,0.2,0.9,0.5,1.3S1.3,38,1.8,38h25.5c0.5,0,0.9-0.2,1.3-0.5s0.5-0.8,0.5-1.3V33h-2.4V35.6z
	 M19.4,6.5c0.4,0.1,0.6,0.3,0.8,0.4l5.9,5.9c0.2,0.2,0.3,0.4,0.4,0.8h-7.1V6.5z M21.7,17.7c0.1,0.1,0.2,0.3,0.2,0.4v1.2
	c0,0.2-0.1,0.3-0.2,0.4c-0.1,0.1-0.3,0.2-0.4,0.2H7.9c-0.2,0-0.3-0.1-0.4-0.2c-0.1-0.1-0.2-0.3-0.2-0.4v-1.2c0-0.2,0.1-0.3,0.2-0.4
	c0.1-0.1,0.3-0.2,0.4-0.2h13.4C21.4,17.5,21.6,17.6,21.7,17.7z M21.7,22.6c0.1,0.1,0.2,0.3,0.2,0.4v1.2c0,0.2-0.1,0.3-0.2,0.4
	c-0.1,0.1-0.3,0.2-0.4,0.2H7.9c-0.2,0-0.3-0.1-0.4-0.2c-0.1-0.1-0.2-0.3-0.2-0.4V23c0-0.2,0.1-0.3,0.2-0.4c0.1-0.1,0.3-0.2,0.4-0.2
	h13.4C21.4,22.4,21.6,22.5,21.7,22.6z M25.6,29.9l2-1.8l-2.3-2.6l-2,1.8l0,0.9l1.6,0.1l-0.1,1.6L25.6,29.9z M33.3,18.6
	c-0.2-0.2-0.3-0.2-0.5,0l-6,5.4c-0.2,0.2-0.2,0.4,0,0.5c0.2,0.2,0.3,0.2,0.5,0l6-5.4C33.5,19,33.5,18.8,33.3,18.6z M33.2,16.3
	l4.4,4.9L26.2,31.5l-4.7-0.2l0.2-4.7L33.2,16.3z M40.2,18.8l-1.6,1.4l-4.4-4.9l1.6-1.4c0.3-0.3,0.7-0.4,1.1-0.4
	c0.4,0,0.8,0.2,1.1,0.5l2.3,2.6c0.3,0.3,0.4,0.7,0.4,1.1C40.7,18.2,40.6,18.5,40.2,18.8z M42.5,31.8c0,0.3-0.1,0.5-0.3,0.7L37,37.7
	c-0.2,0.2-0.4,0.3-0.7,0.3c-0.3,0-0.5-0.1-0.7-0.3L35,37.1c-0.2-0.2-0.3-0.4-0.3-0.7s0.1-0.5,0.3-0.7l2.3-2.3h-5.5
	c-0.3,0-0.5-0.1-0.7-0.3c-0.2-0.2-0.3-0.4-0.3-0.7v-1c0-0.3,0.1-0.5,0.3-0.7c0.2-0.2,0.4-0.3,0.7-0.3h5.5L35,27.9
	c-0.2-0.2-0.3-0.4-0.3-0.7c0-0.3,0.1-0.5,0.3-0.7l0.6-0.6c0.2-0.2,0.4-0.3,0.7-0.3c0.3,0,0.5,0.1,0.7,0.3l5.2,5.2
	C42.4,31.3,42.5,31.5,42.5,31.8z"/>
</svg>
