<?xml version="1.0" encoding="utf-8"?>
<!-- Generator: Adobe Illustrator 21.1.0, SVG Export Plug-In . SVG Version: 6.00 Build 0)  -->
<svg version="1.1" id="Ebene_1" xmlns="http://www.w3.org/2000/svg" xmlns:xlink="http://www.w3.org/1999/xlink" x="0px" y="0px"
	 viewBox="0 0 42.5 42.5" style="enable-background:new 0 0 42.5 42.5;" xml:space="preserve">
<g>
	<g>
		<path d="M34,13.4c-0.2-1.7-1-3.3-2.4-4.4l-0.8-0.6C29.7,7.5,28.3,7,26.8,7c-2,0-3.8,0.9-5,2.4L9.9,24.1c-1.1,1.3-1.6,3-1.4,4.8
			c0.2,1.7,1,3.3,2.4,4.4l0.8,0.6c1.1,0.9,2.6,1.4,4.1,1.4c0.2,0,0.5,0,0.7,0c1.7-0.2,3.3-1,4.3-2.3c0,0,0,0,8-9.9
			c1.4-1.8,1.2-4.4-0.6-5.8l-0.4-0.3C27,16.3,26.1,16,25.1,16c-1.3,0-2.4,0.6-3.2,1.5l-8,9.9c-0.5,0.6-0.4,1.6,0.2,2.1
			c0.3,0.2,0.6,0.3,0.9,0.3c0.5,0,0.9-0.2,1.2-0.6l8-9.9c0.2-0.3,0.5-0.4,0.9-0.4c0.3,0,0.5,0.1,0.7,0.2l0.4,0.3
			c0.2,0.2,0.4,0.4,0.4,0.7c0,0.3-0.1,0.6-0.2,0.8l-8,9.9c-0.7,0.8-1.6,1.3-2.7,1.3c-0.8,0-1.6-0.3-2.2-0.8l-0.8-0.6
			c-0.7-0.6-1.2-1.4-1.3-2.3c-0.1-0.9,0.2-1.8,0.8-2.5l11.9-14.7c0.7-0.8,1.6-1.3,2.7-1.3c0.8,0,1.6,0.3,2.2,0.8l0.8,0.6
			c1.5,1.2,1.7,3.4,0.5,4.9C30,16.6,29.9,17,30,17.4c0,0.4,0.2,0.8,0.6,1c0.3,0.2,0.6,0.3,0.9,0.3c0.5,0,0.9-0.2,1.2-0.6
			C33.7,16.8,34.2,15.1,34,13.4L34,13.4z M34,13.4"/>
	</g>
</g>
</svg>
