<?xml version="1.0" encoding="utf-8"?>
<!-- Generator: Adobe Illustrator 21.1.0, SVG Export Plug-In . SVG Version: 6.00 Build 0)  -->
<svg version="1.1" id="Ebene_1" xmlns="http://www.w3.org/2000/svg" xmlns:xlink="http://www.w3.org/1999/xlink" x="0px" y="0px"
	 viewBox="0 0 42.5 42.5" style="enable-background:new 0 0 42.5 42.5;" xml:space="preserve">
<path d="M8.1,35.3v-0.6c0.8-0.1,1.4-0.4,1.7-0.9s1.1-1.9,2-4.1l6.3-14.8h0.6L26.2,32c0.5,1.1,0.9,1.8,1.2,2.1
	c0.3,0.3,0.8,0.5,1.5,0.5v0.6h-7.7v-0.6c0.9-0.1,1.5-0.2,1.7-0.3s0.4-0.4,0.4-0.8c0-0.1,0-0.4-0.1-0.8s-0.2-0.8-0.4-1.2l-1.2-2.9h-8
	c-0.8,2-1.3,3.2-1.4,3.6c-0.1,0.4-0.2,0.8-0.2,1c0,0.5,0.2,0.9,0.6,1.1c0.3,0.1,0.7,0.2,1.4,0.3v0.6H8.1V35.3z M21.1,27.5l-3.5-8.3
	l-3.5,8.3H21.1z"/>
<path d="M28.4,11.5L25,8c-0.1-0.1-0.1-0.2-0.1-0.3s0-0.3,0.1-0.3c0.1-0.1,0.2-0.1,0.3-0.1h7c0.1,0,0.3,0,0.3,0.1
	c0.1,0.1,0.1,0.2,0.1,0.3s0,0.3-0.1,0.3l-3.5,3.5c-0.1,0.1-0.2,0.1-0.3,0.1S28.5,11.6,28.4,11.5z"/>
</svg>
