<?xml version="1.0" encoding="utf-8"?>
<!-- Generator: Adobe Illustrator 21.1.0, SVG Export Plug-In . SVG Version: 6.00 Build 0)  -->
<svg version="1.1" id="Ebene_1" xmlns="http://www.w3.org/2000/svg" xmlns:xlink="http://www.w3.org/1999/xlink" x="0px" y="0px"
	 viewBox="0 0 42.5 42.5" style="enable-background:new 0 0 42.5 42.5;" xml:space="preserve">
<path d="M42.5,21c0,3.1-0.8,5.9-2.3,8.5s-3.6,4.7-6.2,6.2c-2.6,1.5-5.5,2.3-8.5,2.3c-3.1,0-5.9-0.8-8.5-2.3
	c-2.6-1.5-4.7-3.6-6.2-6.2c-0.3-0.5-0.5-1-0.8-1.5l1.9-1.9c0.3,0.7,0.6,1.5,1,2.1c1.3,2.2,3.1,4,5.3,5.3c2.2,1.3,4.7,2,7.3,2
	c2.6,0,5.1-0.7,7.3-2c2.2-1.3,4-3.1,5.3-5.3c1.3-2.2,2-4.7,2-7.3s-0.7-5.1-2-7.3c-1.3-2.2-3.1-4-5.3-5.3c-2.2-1.3-4.7-2-7.3-2
	c-2.6,0-5.1,0.7-7.3,2c-2.2,1.3-4,3.1-5.3,5.3c-0.6,1-1,2-1.3,3.1l-1.9-1.9c0.3-0.8,0.7-1.6,1.1-2.4c1.5-2.6,3.6-4.7,6.2-6.2
	C19.6,4.8,22.4,4,25.5,4c3.1,0,5.9,0.8,8.5,2.3c2.6,1.5,4.7,3.6,6.2,6.2C41.8,15.1,42.5,17.9,42.5,21z M15.1,25.6h2.9
	c1.6,3.4,4.7,5.7,8.3,5.7c3.4,0,6.6-2,8.2-5.2c0.5-0.7,0.2-1.4-0.5-1.6c-0.7-0.5-1.4-0.2-1.6,0.5c-1.1,2.7-3.6,4.3-6.1,4.3
	c-2.5,0-4.7-1.4-5.9-3.6h5.3c0.7,0,1.1-0.5,1.1-1.1c0-0.7-0.5-1.1-1.1-1.1h-6.1c-0.1-0.7-0.3-1.3-0.3-2c0-0.6,0.1-1.2,0.2-1.8h6.2
	c0.7,0,1.1-0.5,1.1-1.1c0-0.7-0.5-1.1-1.1-1.1h-5.4c1.2-2.3,3.5-3.9,6.1-3.9c2.5,0,5,1.6,6.1,4.3c0.5,0.5,0.9,0.7,1.6,0.5
	c0.5-0.5,0.7-0.9,0.5-1.6c-1.6-3.6-4.8-5.7-8.2-5.7c-4,0-7.3,2.6-8.7,6.4h-2.5c-0.7,0-1.1,0.5-1.1,1.1c0,0.7,0.5,1.1,1.1,1.1h2
	c-0.1,0.5-0.1,1-0.1,1.6c0,0.8,0.1,1.5,0.3,2.3h-2.1c-0.1,0-0.2,0-0.4,0.1L14,24.1c0,0.1-0.1,0.2-0.1,0.3
	C13.9,25.1,14.4,25.6,15.1,25.6z M12.8,20.9l-5.2-5.2c-0.2-0.2-0.4-0.3-0.7-0.3c-0.3,0-0.5,0.1-0.7,0.3l-0.6,0.6
	c-0.2,0.2-0.3,0.4-0.3,0.7c0,0.3,0.1,0.5,0.3,0.7l2.3,2.3H0.9c-0.3,0-0.5,0.1-0.7,0.3S0,20.9,0,21.1v1c0,0.3,0.1,0.5,0.3,0.7
	s0.4,0.3,0.7,0.3h6.9l-2.3,2.3c-0.2,0.2-0.3,0.4-0.3,0.7s0.1,0.5,0.3,0.7l0.6,0.6c0.2,0.2,0.4,0.3,0.7,0.3c0.3,0,0.5-0.1,0.7-0.3
	l5.2-5.2c0.2-0.2,0.3-0.4,0.3-0.7C13.1,21.4,13,21.1,12.8,20.9z"/>
</svg>
