<?xml version="1.0" encoding="utf-8"?>
<!-- Generator: Adobe Illustrator 21.1.0, SVG Export Plug-In . SVG Version: 6.00 Build 0)  -->
<svg version="1.1" id="Ebene_1" xmlns="http://www.w3.org/2000/svg" xmlns:xlink="http://www.w3.org/1999/xlink" x="0px" y="0px"
	 viewBox="0 0 42.5 42.5" style="enable-background:new 0 0 42.5 42.5;" xml:space="preserve">
<path d="M13.7,33H2.2V6.2h13.4v7.3c0,0.5,0.2,0.9,0.5,1.2s0.7,0.5,1.2,0.5h7.3v1.2c0.8,0,1.5,0.1,2.2,0.3v-3.1c0-0.5-0.1-1-0.3-1.5
	c-0.2-0.6-0.5-1-0.8-1.3l-5.4-5.4C20,5.1,19.5,4.8,19,4.6C18.3,4.1,17.8,4,17.3,4H1.7C1.2,4,0.8,4.2,0.5,4.5S0,5.2,0,5.7v27.9
	c0,0.5,0.2,0.9,0.5,1.2s0.7,0.5,1.2,0.5H15c-0.3-0.4-0.7-0.9-0.9-1.4C13.9,33.6,13.8,33.3,13.7,33z M17.9,6.4
	c0.3,0.1,0.6,0.2,0.7,0.4l5.5,5.5c0.1,0.1,0.3,0.4,0.4,0.7h-6.6V6.4z M26.8,23.6v7.9c0,0.2-0.1,0.3-0.2,0.4s-0.2,0.2-0.4,0.2h-5.7
	c-0.2,0-0.3-0.1-0.4-0.2s-0.2-0.2-0.2-0.4v-1.1c0-0.2,0.1-0.3,0.2-0.4s0.2-0.2,0.4-0.2h4v-6.2c0-0.2,0.1-0.3,0.2-0.4
	s0.2-0.2,0.4-0.2h1.1c0.2,0,0.3,0.1,0.4,0.2C26.8,23.3,26.8,23.4,26.8,23.6z M32.2,27.9c0-1.4-0.4-2.7-1.1-3.9
	c-0.7-1.2-1.7-2.2-2.9-2.9C27,20.4,25.7,20,24.3,20s-2.7,0.4-3.9,1.1c-1.2,0.7-2.2,1.7-2.9,2.9c-0.7,1.2-1.1,2.5-1.1,3.9
	s0.4,2.7,1.1,3.9c0.7,1.2,1.7,2.2,2.9,2.9c1.2,0.7,2.5,1.1,3.9,1.1s2.7-0.4,3.9-1.1c1.2-0.7,2.2-1.7,2.9-2.9
	C31.8,30.7,32.2,29.4,32.2,27.9z M34.2,27.9c0,1.8-0.4,3.4-1.3,5c-0.9,1.5-2.1,2.7-3.6,3.6c-1.5,0.9-3.2,1.3-5,1.3s-3.4-0.4-5-1.3
	c-1.5-0.9-2.7-2.1-3.6-3.6s-1.3-3.2-1.3-5s0.4-3.4,1.3-5c0.9-1.5,2.1-2.7,3.6-3.6s3.2-1.3,5-1.3s3.4,0.4,5,1.3
	c1.5,0.9,2.7,2.1,3.6,3.6C33.8,24.5,34.2,26.2,34.2,27.9z M42.5,15.4c0,0.3-0.1,0.5-0.3,0.7l-4.8,4.8c-0.2,0.2-0.4,0.3-0.7,0.3
	c-0.2,0-0.5-0.1-0.7-0.3l-0.5-0.5c-0.2-0.2-0.3-0.4-0.3-0.7c0-0.3,0.1-0.5,0.3-0.7l2.1-2.1h-8.1c-0.3,0-0.5-0.1-0.6-0.3
	s-0.2-0.4-0.2-0.7V15c0-0.3,0.1-0.5,0.2-0.7s0.4-0.3,0.6-0.3h8.1l-2.1-2.2c-0.2-0.2-0.3-0.4-0.3-0.7s0.1-0.5,0.3-0.7L36,9.9
	c0.2-0.2,0.4-0.3,0.7-0.3s0.5,0.1,0.7,0.3l4.8,4.8C42.4,14.9,42.5,15.1,42.5,15.4z"/>
</svg>
