<?xml version="1.0" encoding="utf-8"?>
<!-- Generator: Adobe Illustrator 21.1.0, SVG Export Plug-In . SVG Version: 6.00 Build 0)  -->
<svg version="1.1" id="Ebene_1" xmlns="http://www.w3.org/2000/svg" xmlns:xlink="http://www.w3.org/1999/xlink" x="0px" y="0px"
	 viewBox="0 0 42.5 42.5" style="enable-background:new 0 0 42.5 42.5;" xml:space="preserve">
<path d="M34.7,24.5c0.8-0.3,1.6-0.6,2.4-1V34c0,0.7-0.5,1.2-1.2,1.2H1.2C0.5,35.3,0,34.7,0,34V8.2C0,7.5,0.5,7,1.2,7h34.7
	c0.7,0,1.2,0.5,1.2,1.2v3.6c-0.8-0.4-1.6-0.8-2.4-1V9.4H2.4v18.2l10.9-8.7l5.6,10.9l7.8-4.9l8.1,5.8V24.5z M40.7,17.3
	c0-0.1-1.1-1.4-3-2.8c-2.5-1.8-5.2-2.8-7.8-2.8c-2.6,0-5.3,1-7.8,2.8c-1.9,1.4-2.9,2.7-3,2.8l-0.4,0.5l0.4,0.5c0,0.1,1.1,1.4,3,2.8
	c2.5,1.8,5.2,2.8,7.8,2.8c2.6,0,5.3-1,7.8-2.8c1.9-1.4,2.9-2.7,3-2.8l0.4-0.5L40.7,17.3z M29.9,21.8c-2.2,0-4-1.8-4-4
	c0-0.3,0-0.7,0.1-1l-0.9-0.2C25.1,17,25,17.4,25,17.8c0,1.4,0.6,2.7,1.6,3.6c-1.2-0.5-2.3-1.1-3.1-1.7c-1-0.7-1.7-1.4-2.1-1.9
	c0.4-0.5,1.2-1.2,2.1-1.9c0.8-0.6,1.9-1.2,3.1-1.7l0.6,0.7c0.7-0.7,1.7-1.1,2.7-1.1c2.2,0,4,1.8,4,4S32.1,21.8,29.9,21.8L29.9,21.8z
	 M36.3,19.7c-0.8,0.6-1.9,1.2-3.1,1.7c1-0.9,1.6-2.2,1.6-3.6c0-1.4-0.6-2.7-1.6-3.6c1.2,0.5,2.3,1.1,3.1,1.7c1,0.7,1.7,1.4,2.1,1.9
	C38,18.3,37.3,19,36.3,19.7L36.3,19.7z M36.3,19.7 M26.7,16.7c-0.1,0.3-0.1,0.6-0.1,0.9c0,1.8,1.4,3.2,3.2,3.2
	c1.8,0,3.2-1.4,3.2-3.2c0-1.8-1.4-3.2-3.2-3.2c-0.9,0-1.6,0.3-2.2,0.9l1.6,1.8L26.7,16.7z M26.7,16.7"/>
</svg>
