<?xml version="1.0" encoding="utf-8"?>
<!-- Generator: Adobe Illustrator 21.1.0, SVG Export Plug-In . SVG Version: 6.00 Build 0)  -->
<svg version="1.1" id="Ebene_1" xmlns="http://www.w3.org/2000/svg" xmlns:xlink="http://www.w3.org/1999/xlink" x="0px" y="0px"
	 viewBox="0 0 42.5 42.5" style="enable-background:new 0 0 42.5 42.5;" xml:space="preserve">
<path d="M16.8,24.5h-4.4v-0.9c0-0.7,0.3-1.3,0.8-1.9c0.2-0.3,0.7-0.7,1.4-1.2c0.5-0.4,0.8-0.7,0.8-1c0-0.2-0.1-0.4-0.3-0.5
	c-0.2-0.1-0.4-0.2-0.6-0.2c-0.4,0-0.7,0.3-1,0.8l-1.2-0.7c0.5-1,1.2-1.5,2.2-1.5c0.7,0,1.2,0.2,1.6,0.5c0.4,0.4,0.7,0.9,0.7,1.5
	c0,0.5-0.2,1-0.6,1.5c0,0-0.4,0.3-1.2,1c-0.5,0.4-0.8,0.8-0.9,1.2h2.8V24.5z M22.3,21c0,1-0.2,1.8-0.6,2.4c-0.5,0.8-1.1,1.2-2,1.2
	c-0.9,0-1.6-0.4-2-1.2c-0.4-0.6-0.6-1.4-0.6-2.4c0-1,0.2-1.8,0.6-2.4c0.5-0.8,1.1-1.2,2-1.2c0.9,0,1.6,0.4,2,1.2
	C22.1,19.3,22.3,20.1,22.3,21z M20.8,21c0-0.5-0.1-1-0.2-1.4c-0.2-0.6-0.5-0.8-0.9-0.8c-0.4,0-0.8,0.3-1,0.8
	c-0.1,0.4-0.2,0.8-0.2,1.4c0,0.5,0.1,1,0.2,1.4c0.2,0.5,0.5,0.8,1,0.8C20.5,23.2,20.8,22.5,20.8,21z M26.5,20.5
	c0,0.4-0.1,0.8-0.3,1.1c-0.2,0.3-0.5,0.5-1,0.5c-0.4,0-0.7-0.2-1-0.5C24.1,21.4,24,21,24,20.5c0-0.4,0.1-0.8,0.3-1.1
	c0.2-0.3,0.5-0.5,1-0.5c0.4,0,0.7,0.2,1,0.5C26.4,19.7,26.5,20.1,26.5,20.5z M25.7,20.5c0-0.5-0.1-0.7-0.4-0.7
	c-0.3,0-0.4,0.2-0.4,0.7c0,0.5,0.1,0.7,0.4,0.7C25.5,21.3,25.7,21,25.7,20.5z M28.7,19l-2.5,5.5h-1l2.5-5.5H28.7z M29.8,23
	c0,0.4-0.1,0.8-0.3,1.1c-0.2,0.3-0.5,0.5-1,0.5c-0.4,0-0.7-0.2-1-0.5c-0.2-0.3-0.3-0.6-0.3-1.1c0-0.4,0.1-0.8,0.3-1.1
	c0.2-0.3,0.5-0.5,1-0.5c0.4,0,0.7,0.2,1,0.5C29.7,22.2,29.8,22.6,29.8,23z M29,23c0-0.5-0.1-0.7-0.4-0.7c-0.3,0-0.4,0.2-0.4,0.7
	c0,0.5,0.1,0.7,0.4,0.7C28.8,23.8,29,23.5,29,23z M37.3,16.1L35,16.9c0.4,1.3,0.6,2.7,0.6,4.1c0,2.6-0.7,5.1-2,7.3
	c-1.3,2.2-3.1,4-5.3,5.3c-2.2,1.3-4.7,2-7.3,2c-2.6,0-5.1-0.7-7.3-2c-2.2-1.3-4-3.1-5.3-5.3c-1.3-2.2-2-4.7-2-7.3s0.7-5.1,2-7.3
	c1.3-2.2,3.1-4,5.3-5.3c2.2-1.3,4.5-1.9,7.1-1.9l0-2.4c-3,0-5.7,0.8-8.3,2.3c-2.6,1.5-4.7,3.6-6.2,6.2C4.8,15.1,4,17.9,4,21
	c0,3.1,0.8,5.9,2.3,8.5s3.6,4.7,6.2,6.2c2.6,1.5,5.5,2.3,8.5,2.3c3.1,0,5.9-0.8,8.5-2.3c2.6-1.5,4.7-3.6,6.2-6.2S38,24.1,38,21
	C38,19.3,37.8,17.7,37.3,16.1z M22.3,4c-0.3,0-0.6,0-1,0v4.5c0.4,0,0.8,0,1.3,0.1c0,0,0,0,0,0c0,0,0.1,0,0.1,0
	c1.1,0.1,2.2,0.4,3.2,0.9c0.5,0.2,1,0.5,1.5,0.7c0,0,0,0,0,0c0.1,0.1,0.2,0.1,0.3,0.2c0,0,0,0,0,0c0,0,0.1,0,0.1,0.1
	c0,0,0.1,0.1,0.1,0.1c0,0,0,0,0.1,0c0,0,0.1,0,0.1,0.1l2.6-3.6c-0.4-0.3-0.8-0.5-1.2-0.8C29,6,28.4,5.7,27.8,5.4c0,0,0,0,0,0
	c-0.1,0-0.1-0.1-0.2-0.1c0,0-0.1,0-0.1,0c0,0-0.1,0-0.1-0.1c-0.1,0-0.1,0-0.2-0.1c0,0,0,0,0,0c-1.5-0.6-3.1-0.9-4.7-1.1
	C22.4,4.1,22.4,4,22.3,4C22.3,4,22.3,4,22.3,4z M31.3,7.4l-2.6,3.6c0.1,0,0.1,0.1,0.2,0.1c0,0,0.1,0,0.1,0.1c0,0,0.1,0,0.1,0.1
	c0.8,0.6,1.4,1.3,2,2.1c0.1,0.2,0.3,0.4,0.4,0.6c0,0,0,0,0,0c0,0.1,0.1,0.1,0.1,0.2c0,0,0,0,0,0.1c0,0.1,0.1,0.1,0.1,0.2
	c0,0,0,0.1,0.1,0.1c0,0,0.1,0.1,0.1,0.1c0,0,0.1,0.1,0.1,0.1c0,0,0,0.1,0.1,0.1c0,0.1,0.1,0.1,0.1,0.2c0,0,0,0,0,0.1
	c0,0.1,0.1,0.2,0.1,0.2c0,0,0,0,0,0c0.1,0.2,0.2,0.4,0.3,0.6c0.1,0.2,0.2,0.5,0.3,0.7l4.3-1.4c-0.1-0.4-0.3-0.8-0.4-1.1
	c-0.3-0.6-0.6-1.2-0.9-1.8c-0.5-0.9-1.1-1.7-1.8-2.5c0,0,0,0-0.1-0.1c0,0,0-0.1-0.1-0.1c-0.3-0.3-0.5-0.6-0.8-0.9
	C32.5,8.4,31.9,7.9,31.3,7.4z"/>
</svg>
