<?xml version="1.0" encoding="utf-8"?>
<svg version="1.1" id="Ebene_1" x="0px" y="0px" viewBox="0 0 42.5 42.5" style="enable-background:new 0 0 42.5 42.5;" xmlns="http://www.w3.org/2000/svg">
  <path d="M 35.6 21 C 35.6 18.4 34.9 15.9 33.6 13.7 C 32.3 11.5 30.5 9.7 28.3 8.4 C 26.1 7.1 23.6 6.4 21 6.4 C 18.4 6.4 15.9 7.1 13.7 8.4 C 11.5 9.7 9.7 11.5 8.4 13.7 C 7.1 15.9 6.4 18.4 6.4 21 C 6.4 23.6 7.1 26.1 8.4 28.3 C 9.7 30.5 11.5 32.3 13.7 33.6 C 15.9 34.9 18.4 35.6 21 35.6 C 23.6 35.6 26.1 34.9 28.3 33.6 C 30.5 32.3 32.3 30.5 33.6 28.3 C 34.9 26.1 35.6 23.6 35.6 21 Z M 38 21 C 38 24.1 37.2 26.9 35.7 29.5 C 34.2 32.1 32.1 34.2 29.5 35.7 C 26.9 37.2 24.1 38 21 38 C 17.9 38 15.1 37.2 12.5 35.7 C 9.9 34.2 7.8 32.1 6.3 29.5 C 4.8 26.9 4 24.1 4 21 C 4 17.9 4.8 15.1 6.3 12.5 C 7.8 9.9 9.9 7.8 12.5 6.3 C 15.1 4.8 17.9 4 21 4 C 24.1 4 26.9 4.8 29.5 6.3 C 32.1 7.8 34.2 9.9 35.7 12.5 C 37.2 15.1 38 17.9 38 21 Z M 21.7 30.8 L 20.3 30.8 C 20.1 30.8 19.9 30.7 19.8 30.6 C 19.7 30.5 19.6 30.3 19.6 30.1 L 19.6 22.4 L 11.9 22.4 C 11.7 22.4 11.5 22.3 11.4 22.2 C 11.3 22.1 11.2 21.9 11.2 21.7 L 11.2 20.3 C 11.2 20.1 11.3 19.9 11.4 19.8 C 11.5 19.7 11.7 19.6 11.9 19.6 L 19.6 19.6 L 19.6 11.9 C 19.6 11.7 19.7 11.5 19.8 11.4 C 19.9 11.3 20.1 11.2 20.3 11.2 L 21.7 11.2 C 21.9 11.2 22.1 11.3 22.2 11.4 C 22.3 11.5 22.4 11.7 22.4 11.9 L 22.4 19.6 L 30.1 19.6 C 30.3 19.6 30.5 19.7 30.6 19.8 C 30.7 19.9 30.8 20.1 30.8 20.3 L 30.8 21.7 C 30.8 21.9 30.7 22.1 30.6 22.2 C 30.5 22.3 30.3 22.4 30.1 22.4 L 22.4 22.4 L 22.4 30.1 C 22.4 30.3 22.3 30.5 22.2 30.6 C 22.1 30.7 21.9 30.8 21.7 30.8 Z" transform="matrix(0.707107, 0.707107, -0.707107, 0.707107, 21, -8.698485)"/>
</svg>