<?xml version="1.0" encoding="utf-8"?>
<!-- Generator: Adobe Illustrator 21.1.0, SVG Export Plug-In . SVG Version: 6.00 Build 0)  -->
<svg version="1.1" id="Ebene_1" xmlns="http://www.w3.org/2000/svg" xmlns:xlink="http://www.w3.org/1999/xlink" x="0px" y="0px"
	 viewBox="0 0 42.5 42.5" style="enable-background:new 0 0 42.5 42.5;" xml:space="preserve">
<path id="rechtachsig" d="M6.2,25.7c0.1-0.1,0.3-0.1,0.5-0.1h28.1c0.2,0,0.3,0,0.5,0.1c0.1,0.1,0.2,0.2,0.2,0.3v2.8
	c0,0.1-0.1,0.2-0.2,0.3s-0.3,0.1-0.5,0.1H6.7c-0.2,0-0.3,0-0.5-0.1C6.1,29,6,28.9,6,28.8V26C6,25.9,6.1,25.8,6.2,25.7z M7.3,31.8
	c0.1-0.1,0.3-0.1,0.5-0.1h27.1c0.2,0,0.3,0,0.5,0.1c0.1,0.1,0.2,0.2,0.2,0.3v2.8c0,0.1-0.1,0.2-0.2,0.3s-0.3,0.1-0.5,0.1H7.7
	c-0.2,0-0.3,0-0.5-0.1c-0.1-0.1-0.2-0.2-0.2-0.3v-2.8C7.1,32,7.1,31.9,7.3,31.8z M9.5,19.4c0.1-0.1,0.3-0.1,0.4-0.1l24.9,0
	c0.2,0,0.3,0,0.4,0.1c0.1,0.1,0.2,0.2,0.2,0.3v2.8c0,0.1-0.1,0.2-0.2,0.3s-0.3,0.1-0.4,0.1H9.9c-0.2,0-0.3,0-0.4-0.1
	c-0.1-0.1-0.2-0.2-0.2-0.3v-2.8C9.3,19.6,9.3,19.5,9.5,19.4z M14.1,13.2c0.1-0.1,0.2-0.1,0.3-0.1h20.5c0.1,0,0.2,0,0.3,0.1
	s0.1,0.2,0.1,0.3v2.8c0,0.1,0,0.2-0.1,0.3c-0.1,0.1-0.2,0.1-0.3,0.1H14.4c-0.1,0-0.2,0-0.3-0.1c-0.1-0.1-0.1-0.2-0.1-0.3v-2.8
	C13.9,13.4,14,13.3,14.1,13.2z M7.3,7.1C7.4,7,7.5,7,7.7,7h27.1c0.2,0,0.3,0,0.5,0.1c0.1,0.1,0.2,0.2,0.2,0.3v2.8
	c0,0.1-0.1,0.2-0.2,0.3s-0.3,0.1-0.5,0.1H7.7c-0.2,0-0.3,0-0.5-0.1c-0.1-0.1-0.2-0.2-0.2-0.3V7.5C7.1,7.3,7.1,7.2,7.3,7.1z"/>
</svg>
