<?xml version="1.0" encoding="utf-8"?>
<!-- Generator: Adobe Illustrator 21.1.0, SVG Export Plug-In . SVG Version: 6.00 Build 0)  -->
<svg version="1.1" id="Ebene_1" xmlns="http://www.w3.org/2000/svg" xmlns:xlink="http://www.w3.org/1999/xlink" x="0px" y="0px"
	 viewBox="0 0 42.5 42.5" style="enable-background:new 0 0 42.5 42.5;" xml:space="preserve">
<path d="M33.5,23.3v10.6c0,0.4-0.1,0.7-0.4,1c-0.3,0.3-0.6,0.4-1,0.4h-8.5v-8.5H18v8.5H9.5c-0.4,0-0.7-0.1-1-0.4
	c-0.3-0.3-0.4-0.6-0.4-1V23.3c0,0,0,0,0-0.1c0,0,0-0.1,0-0.1l12.7-10.5l12.7,10.5C33.5,23.2,33.5,23.3,33.5,23.3z M38.5,21.8
	l-1.4,1.6c-0.1,0.1-0.3,0.2-0.5,0.2h-0.1c-0.2,0-0.3-0.1-0.5-0.2L20.8,10.8L5.5,23.5c-0.2,0.1-0.4,0.2-0.5,0.2
	c-0.2,0-0.3-0.1-0.5-0.2l-1.4-1.6C3,21.7,3,21.5,3,21.3c0-0.2,0.1-0.4,0.2-0.5L19.1,7.6c0.5-0.4,1-0.6,1.7-0.6s1.2,0.2,1.7,0.6
	l5.4,4.5V7.8c0-0.2,0.1-0.4,0.2-0.5c0.1-0.1,0.3-0.2,0.5-0.2h4.2c0.2,0,0.4,0.1,0.5,0.2c0.1,0.1,0.2,0.3,0.2,0.5v9l4.8,4
	c0.1,0.1,0.2,0.3,0.2,0.5S38.6,21.7,38.5,21.8z"/>
</svg>
