<?xml version="1.0" encoding="utf-8"?>
<!-- Generator: Adobe Illustrator 21.1.0, SVG Export Plug-In . SVG Version: 6.00 Build 0)  -->
<svg version="1.1" id="Ebene_1" xmlns="http://www.w3.org/2000/svg" xmlns:xlink="http://www.w3.org/1999/xlink" x="0px" y="0px"
	 viewBox="0 0 42.5 42.5" style="enable-background:new 0 0 42.5 42.5;" xml:space="preserve">
<path id="linksbündig_1_" d="M35.4,26v2.8c0,0.1-0.1,0.2-0.2,0.3s-0.3,0.1-0.5,0.1H6.7c-0.2,0-0.3,0-0.5-0.1S6,28.9,6,28.8V26
	c0-0.1,0.1-0.2,0.2-0.3c0.1-0.1,0.3-0.1,0.5-0.1h28.1c0.2,0,0.3,0,0.5,0.1C35.4,25.8,35.4,25.9,35.4,26z M34.3,32.1v2.8
	c0,0.1-0.1,0.2-0.2,0.3s-0.3,0.1-0.5,0.1H6.6c-0.2,0-0.3,0-0.5-0.1C6.1,35.1,6,35,6,34.9v-2.8c0-0.1,0.1-0.2,0.2-0.3
	c0.1-0.1,0.3-0.1,0.5-0.1h27.1c0.2,0,0.3,0,0.5,0.1C34.3,31.9,34.3,32,34.3,32.1z M32.1,19.7v2.8c0,0.1-0.1,0.2-0.2,0.3
	c-0.1,0.1-0.3,0.1-0.4,0.1H6.6c-0.2,0-0.3,0-0.4-0.1C6.1,22.7,6,22.6,6,22.5v-2.8c0-0.1,0.1-0.2,0.2-0.3c0.1-0.1,0.3-0.1,0.4-0.1
	h24.9c0.2,0,0.3,0,0.4,0.1C32.1,19.5,32.1,19.6,32.1,19.7z M27.5,13.6v2.8c0,0.1,0,0.2-0.1,0.3c-0.1,0.1-0.2,0.1-0.3,0.1H6.5
	c-0.1,0-0.2,0-0.3-0.1C6,16.6,6,16.4,6,16.3v-2.8c0-0.1,0-0.2,0.1-0.3s0.2-0.1,0.3-0.1H27c0.1,0,0.2,0,0.3,0.1S27.5,13.4,27.5,13.6z
	 M34.3,7.5v2.8c0,0.1-0.1,0.2-0.2,0.3s-0.3,0.1-0.5,0.1H6.6c-0.2,0-0.3,0-0.5-0.1C6.1,10.5,6,10.3,6,10.2V7.5c0-0.1,0.1-0.2,0.2-0.3
	C6.3,7,6.5,7,6.6,7h27.1c0.2,0,0.3,0,0.5,0.1C34.3,7.2,34.3,7.3,34.3,7.5z"/>
</svg>
