<?xml version="1.0" encoding="utf-8"?>
<!-- Generator: Adobe Illustrator 21.1.0, SVG Export Plug-In . SVG Version: 6.00 Build 0)  -->
<svg version="1.1" id="Ebene_1" xmlns="http://www.w3.org/2000/svg" xmlns:xlink="http://www.w3.org/1999/xlink" x="0px" y="0px"
	 viewBox="0 0 42.5 42.5" style="enable-background:new 0 0 42.5 42.5;" xml:space="preserve">
<path d="M37.5,27.3l-0.9,0.9c-0.1,0.1-0.3,0.2-0.4,0.2c-0.2,0-0.3-0.1-0.5-0.2l-3.8-3.8L28,28.3c-0.1,0.1-0.3,0.2-0.5,0.2
	s-0.3-0.1-0.4-0.2l-0.9-0.9c-0.1-0.1-0.2-0.3-0.2-0.4c0-0.2,0.1-0.3,0.2-0.5l3.8-3.8l-3.8-3.8c-0.1-0.1-0.2-0.3-0.2-0.5
	s0.1-0.3,0.2-0.4l0.9-0.9c0.1-0.1,0.3-0.2,0.4-0.2s0.3,0.1,0.5,0.2l3.8,3.8l3.8-3.8c0.1-0.1,0.3-0.2,0.5-0.2c0.2,0,0.3,0.1,0.4,0.2
	l0.9,0.9c0.1,0.1,0.2,0.3,0.2,0.4s-0.1,0.3-0.2,0.5l-3.8,3.8l3.8,3.8c0.1,0.1,0.2,0.3,0.2,0.5C37.7,27.1,37.6,27.2,37.5,27.3z
	 M19.9,22.1v-5.7h3.9c1.6,0,2.9-1.3,2.9-2.9V8c0-2.2-1.8-4-4-4h-9c-2.2,0-4,1.8-4,4v5.5c0,1.6,1.3,2.9,2.9,2.9h3.9v5.7H9.7
	c-1,0-1.8,0.8-1.8,1.8v0.5c0,0.2,0,0.4,0.1,0.6c-1.2-0.1-1.2-0.6-1.2-0.8v-3.8H8c0.3,0,0.6-0.3,0.6-0.6v-1.7c0-0.3-0.3-0.6-0.6-0.6
	H4.6c-0.3,0-0.6,0.3-0.6,0.6v1.7c0,0.3,0.3,0.6,0.6,0.6h1.1v3.8c0,0.7,0.4,1.9,2.8,1.9h1.1c0,0,0,0,0,0s0,0,0,0h6.7v7.4H8.5
	C8.2,33.5,8,33.7,8,34c0,0.3,0.3,0.6,0.6,0.6h0.6v0.1c-0.2-0.1-0.4-0.1-0.6-0.1c-0.9,0-1.7,0.8-1.7,1.7S7.6,38,8.5,38
	c0.9,0,1.7-0.8,1.7-1.7c0-0.1,0-0.3,0-0.4c0-0.1,0-0.1,0-0.2v-1.1h6.7c0,0,0.1,0,0.1,0v1.1c0,0.1,0,0.1,0,0.2c0,0.1,0,0.2,0,0.4
	c0,0.9,0.8,1.7,1.7,1.7c0.9,0,1.7-0.8,1.7-1.7c0-0.9-0.6-1.6-1.5-1.7h0.4c0,0,0.1,0,0.1,0h6.1v1.1c0,0.1,0,0.1,0,0.2
	c0,0.1,0,0.2,0,0.4c0,0.9,0.8,1.7,1.7,1.7c0.9,0,1.7-0.8,1.7-1.7c0-0.9-0.8-1.7-1.7-1.7c-0.2,0-0.4,0-0.6,0.1v-0.1h0.6
	c0.3,0,0.6-0.3,0.6-0.6c0-0.3-0.3-0.6-0.6-0.6h-7.3v-7.4h2.7l4.4-4H19.9z M18.2,34.7L18.2,34.7l0.4-0.1
	C18.4,34.6,18.3,34.7,18.2,34.7z"/>
</svg>
