<?xml version="1.0" encoding="utf-8"?>
<svg version="1.1" id="Ebene_1" x="0px" y="0px" viewBox="0 0 42.5 42.5" style="enable-background:new 0 0 42.5 42.5;" xmlns="http://www.w3.org/2000/svg">
  <path id="Pfeil_links_2_" d="M 21.2 7 C 21 7 20.7 7.1 20.5 7.3 L 7.3 20.5 C 7.1 20.7 7 20.9 7 21.2 C 7 21.4 7.1 21.7 7.3 21.9 L 8.7 23.3 C 8.9 23.5 9.1 23.6 9.4 23.6 C 9.6 23.6 9.9 23.5 10.1 23.3 L 21.3 12.1 L 32.5 23.3 C 32.7 23.5 32.9 23.6 33.2 23.6 C 33.5 23.6 33.7 23.5 33.9 23.3 L 35.3 21.9 C 35.5 21.7 35.6 21.5 35.6 21.2 C 35.6 21 35.5 20.7 35.3 20.5 L 21.8 7.3 C 21.6 7.1 21.4 7 21.2 7 Z"/>
  <path id="path-1" d="M 21.386 18.604 C 21.186 18.604 20.886 18.704 20.686 18.904 L 7.486 32.104 C 7.286 32.304 7.186 32.504 7.186 32.804 C 7.186 33.004 7.286 33.304 7.486 33.504 L 8.886 34.904 C 9.086 35.104 9.286 35.204 9.586 35.204 C 9.786 35.204 10.086 35.104 10.286 34.904 L 21.486 23.704 L 32.686 34.904 C 32.886 35.104 33.086 35.204 33.386 35.204 C 33.686 35.204 33.886 35.104 34.086 34.904 L 35.486 33.504 C 35.686 33.304 35.786 33.104 35.786 32.804 C 35.786 32.604 35.686 32.304 35.486 32.104 L 21.986 18.904 C 21.786 18.704 21.586 18.604 21.386 18.604 Z"/>
</svg>