<?xml version="1.0" encoding="utf-8"?>
<!-- Generator: Adobe Illustrator 21.1.0, SVG Export Plug-In . SVG Version: 6.00 Build 0)  -->
<svg version="1.1" id="Ebene_1" xmlns="http://www.w3.org/2000/svg" xmlns:xlink="http://www.w3.org/1999/xlink" x="0px" y="0px"
	 viewBox="0 0 42.5 42.5" style="enable-background:new 0 0 42.5 42.5;" xml:space="preserve">
<g>
	<path d="M35.3,7.5v2.8c0,0.1-0.1,0.2-0.2,0.3s-0.3,0.1-0.5,0.1h-28c-0.2,0-0.3,0-0.5-0.1S6,10.3,6,10.2V7.5c0-0.1,0.1-0.2,0.2-0.3
		C6.3,7,6.5,7,6.7,7h28c0.2,0,0.3,0,0.5,0.1C35.2,7.2,35.3,7.3,35.3,7.5z"/>
	<path d="M24,13.6v2.8c0,0.1,0,0.2-0.1,0.3c-0.1,0.1-0.2,0.1-0.3,0.1H6.5c-0.1,0-0.2,0-0.3-0.1c-0.1-0.1-0.1-0.2-0.1-0.3v-2.8
		c0-0.1,0-0.2,0.1-0.3c0.1-0.1,0.2-0.1,0.3-0.1h17.2c0.1,0,0.2,0,0.3,0.1C24,13.4,24,13.5,24,13.6z"/>
	<path d="M24,19.7v2.8c0,0.1,0,0.2-0.1,0.3c-0.1,0.1-0.2,0.1-0.3,0.1H6.5c-0.1,0-0.2,0-0.3-0.1c-0.1-0.1-0.1-0.2-0.1-0.3v-2.8
		c0-0.1,0-0.2,0.1-0.3c0.1-0.1,0.2-0.1,0.3-0.1h17.2c0.1,0,0.2,0,0.3,0.1C24,19.5,24,19.6,24,19.7z"/>
	<path d="M24,26.1v2.8c0,0.1,0,0.2-0.1,0.3c-0.1,0.1-0.2,0.1-0.3,0.1H6.5c-0.1,0-0.2,0-0.3-0.1c-0.1-0.1-0.1-0.2-0.1-0.3v-2.8
		c0-0.1,0-0.2,0.1-0.3c0.1-0.1,0.2-0.1,0.3-0.1h17.2c0.1,0,0.2,0,0.3,0.1C24,25.8,24,25.9,24,26.1z"/>
	<path d="M35.3,32.1v2.8c0,0.1-0.1,0.2-0.2,0.3s-0.3,0.1-0.5,0.1h-28c-0.2,0-0.3,0-0.5-0.1S6,35,6,34.9v-2.8c0-0.1,0.1-0.2,0.2-0.3
		c0.1-0.1,0.3-0.1,0.5-0.1h28c0.2,0,0.3,0,0.5,0.1C35.2,31.9,35.3,32,35.3,32.1z"/>
	<path d="M31.8,21.7l-3.5,3.5c-0.1,0.1-0.2,0.1-0.3,0.1s-0.3,0-0.3-0.1c-0.1-0.1-0.1-0.2-0.1-0.3v-7c0-0.1,0-0.3,0.1-0.3
		c0.1-0.1,0.2-0.1,0.3-0.1s0.3,0,0.3,0.1l3.5,3.5c0.1,0.1,0.1,0.2,0.1,0.3S31.9,21.6,31.8,21.7z"/>
</g>
</svg>
