<?xml version="1.0" encoding="utf-8"?>
<!-- Generator: Adobe Illustrator 21.1.0, SVG Export Plug-In . SVG Version: 6.00 Build 0)  -->
<svg version="1.1" id="Ebene_1" xmlns="http://www.w3.org/2000/svg" xmlns:xlink="http://www.w3.org/1999/xlink" x="0px" y="0px"
	 viewBox="0 0 42.5 42.5" style="enable-background:new 0 0 42.5 42.5;" xml:space="preserve">
<path d="M14.6,13.9v9.1h2V25h-2v3.4c0,1,1.9,1,2,1v1.9c-1.1,0-2.2-0.3-2.9-0.9c-0.8,0.6-1.9,0.9-2.9,0.9v-1.9c0.1,0,2,0,2-1V25h-2
	v-1.9h2v-9.1c0-1-1.9-1-2-1V11c1.1,0,2.2,0.3,2.9,0.9c0.8-0.6,1.9-0.9,2.9-0.9v1.9C16.5,12.9,14.6,12.9,14.6,13.9L14.6,13.9z
	 M14.6,13.9 M38,7H3.2C2.5,7,2,7.5,2,8.2v25.9c0,0.7,0.5,1.2,1.2,1.2H38c0.7,0,1.2-0.5,1.2-1.2V8.2C39.3,7.5,38.7,7,38,7z M4.4,32.9
	V9.4h32.4v23.5H4.4z"/>
</svg>
