<?xml version="1.0" encoding="utf-8"?>
<!-- Generator: Adobe Illustrator 21.1.0, SVG Export Plug-In . SVG Version: 6.00 Build 0)  -->
<svg version="1.1" id="Ebene_1" xmlns="http://www.w3.org/2000/svg" xmlns:xlink="http://www.w3.org/1999/xlink" x="0px" y="0px"
	 viewBox="0 0 42.5 42.5" style="enable-background:new 0 0 42.5 42.5;" xml:space="preserve">
<path d="M28,21.2c0-0.2,0.1-0.3,0.2-0.4l0.9-0.9c0.1-0.1,0.3-0.2,0.4-0.2c0.2,0,0.3,0.1,0.4,0.2l3,3l3-3c0.1-0.1,0.3-0.2,0.4-0.2
	c0.2,0,0.3,0.1,0.4,0.2l0.9,0.9c0.1,0.1,0.2,0.3,0.2,0.4c0,0.2-0.1,0.3-0.2,0.4l-3,3l3,3c0.1,0.1,0.2,0.3,0.2,0.4
	c0,0.2-0.1,0.3-0.2,0.4l-0.9,0.9c-0.1,0.1-0.3,0.2-0.4,0.2c-0.2,0-0.3-0.1-0.4-0.2l-3-3l-3,3c-0.1,0.1-0.3,0.2-0.4,0.2
	c-0.2,0-0.3-0.1-0.4-0.2l-0.9-0.9c-0.1-0.1-0.2-0.3-0.2-0.4c0-0.2,0.1-0.3,0.2-0.4l3-3l-3-3C28.1,21.5,28,21.4,28,21.2z M26.7,24.9
	c0.1,0.1,0.2,0.3,0.2,0.4v1.2c0,0.2-0.1,0.3-0.2,0.4c-0.1,0.1-0.3,0.2-0.4,0.2H12.9c-0.2,0-0.3-0.1-0.4-0.2
	c-0.1-0.1-0.2-0.3-0.2-0.4v-1.2c0-0.2,0.1-0.3,0.2-0.4c0.1-0.1,0.3-0.2,0.4-0.2h13.4C26.4,24.7,26.6,24.8,26.7,24.9z M26.3,29.6
	H12.9c-0.2,0-0.3,0.1-0.4,0.2c-0.1,0.1-0.2,0.3-0.2,0.4v1.2c0,0.2,0.1,0.3,0.2,0.4c0.1,0.1,0.3,0.2,0.4,0.2h13.4
	c0.2,0,0.3-0.1,0.4-0.2c0.1-0.1,0.2-0.3,0.2-0.4v-1.2c0-0.2-0.1-0.3-0.2-0.4C26.6,29.6,26.4,29.6,26.3,29.6z M31.7,31h2.4v5.2
	c0,0.5-0.2,0.9-0.5,1.3c-0.4,0.4-0.8,0.5-1.3,0.5H6.8c-0.5,0-0.9-0.2-1.3-0.5C5.2,37.1,5,36.7,5,36.2V5.8c0-0.5,0.2-0.9,0.5-1.3
	S6.3,4,6.8,4h17c0.5,0,1.1,0.1,1.7,0.4c0.6,0.3,1.1,0.6,1.4,0.9l5.9,5.9c0.4,0.4,0.7,0.8,0.9,1.4c0.3,0.6,0.4,1.2,0.4,1.7v5.2h-2.4
	v-3.4h-7.9c-0.5,0-0.9-0.2-1.3-0.5S22,14.8,22,14.3V6.4H7.4v29.2h24.3V31z M24.4,13.7h7.1c-0.1-0.4-0.3-0.6-0.4-0.8L25.2,7
	c-0.2-0.2-0.4-0.3-0.8-0.4V13.7z M20.2,18.8c0.1-0.2,0.2-0.3,0.2-0.5c0-0.3-0.2-0.6-0.5-0.7c-0.2-0.1-0.4-0.2-0.5-0.2
	c-0.3,0-0.7,0.2-0.8,0.6l0,0c-0.5,1.2-1.7,2-2.8,2c-0.9,0-1.7-0.4-2.3-1.1h2c0.2,0,0.5-0.1,0.7-0.3c0.2-0.2,0.3-0.4,0.3-0.7
	c0-0.2-0.1-0.5-0.3-0.7c-0.2-0.2-0.4-0.3-0.7-0.3h-2.8c0-0.2-0.1-0.4-0.1-0.7c0-0.2,0-0.4,0.1-0.6h2.8c0.2,0,0.5-0.1,0.7-0.3
	c0.2-0.2,0.3-0.4,0.3-0.7c0-0.2-0.1-0.5-0.3-0.7c-0.2-0.2-0.4-0.3-0.7-0.3h-2c0.6-0.8,1.4-1.2,2.4-1.2c1.1,0,2.2,0.7,2.8,2l0,0.1
	l0,0c0.2,0.2,0.5,0.4,0.8,0.4c0.1,0,0.2,0,0.4-0.1l0.1,0l0.1-0.1c0.2-0.2,0.4-0.5,0.4-0.8c0-0.1,0-0.2-0.1-0.4l0,0l0,0
	c-0.8-1.9-2.6-3.1-4.4-3.1c-2.1,0-3.8,1.3-4.6,3.2h-1c-0.2,0-0.5,0.1-0.7,0.3c-0.2,0.2-0.3,0.4-0.3,0.7c0,0.2,0.1,0.5,0.3,0.7
	c0.2,0.2,0.4,0.3,0.7,0.3h0.6c0,0.1,0,0.3,0,0.4c0,0.3,0,0.5,0.1,0.8h-0.6c-0.2,0-0.5,0.1-0.7,0.3c-0.2,0.2-0.3,0.4-0.3,0.7
	c0,0.2,0.1,0.5,0.3,0.7c0.2,0.2,0.4,0.3,0.7,0.3h1.2c0.9,1.7,2.5,2.9,4.4,2.9C17.6,21.6,19.3,20.5,20.2,18.8L20.2,18.8
	C20.1,18.9,20.1,18.8,20.2,18.8C20.2,18.8,20.2,18.8,20.2,18.8L20.2,18.8z"/>
</svg>
