<?xml version="1.0" encoding="utf-8"?>
<!-- Generator: Adobe Illustrator 23.0.1, SVG Export Plug-In . SVG Version: 6.00 Build 0)  -->
<svg version="1.1" id="Ebene_1" xmlns="http://www.w3.org/2000/svg" xmlns:xlink="http://www.w3.org/1999/xlink" x="0px" y="0px"
	 viewBox="0 0 42.52 42.52" style="enable-background:new 0 0 42.52 42.52;" xml:space="preserve">
<path d="M34.12,35.35H18.03c-0.68,0-1.24-0.55-1.24-1.24c0-0.68,0.55-1.24,1.24-1.24h16.09c0.68,0,1.24,0.55,1.24,1.24
	C35.35,34.79,34.8,35.35,34.12,35.35 M39.21,20.7c0-1.04-0.84-1.89-1.89-1.89s-1.89,0.84-1.89,1.89s0.84,1.89,1.89,1.89
	S39.21,21.74,39.21,20.7 M37.45,19.22L26.09,30.49l0,0c0.17,0.04,0.33,0.1,0.48,0.17c0.01,0.01,0.02,0.01,0.04,0.02
	c0.14,0.07,0.14,0.28,0.27,0.38c0.01,0.01,0.15-0.12,0.16-0.12c0.13,0.1,0.25,0.21,0.36,0.33c0,0-0.13,0.14-0.13,0.14
	c0.11,0.13,0.34,0.13,0.43,0.28c0.11,0.2,0.2,0.42,0.26,0.65l11.24-11.36C38.34,20.75,37.67,20.08,37.45,19.22 M26.47,11.95
	c1.37,0,2.48-1.11,2.48-2.48S27.83,7,26.47,7H12.85c-1.37,0-2.48,1.11-2.48,2.48s1.11,2.48,2.48,2.48H26.47 M27.16,8.64
	c0.09,0.26,0.15,0.54,0.15,0.83c0,0.77-0.36,1.45-0.92,1.91l10.55,10.09c0.23-0.88,0.93-1.56,1.81-1.77L27.16,8.64z M19.32,18.14
	c0.34,0,0.62-0.28,0.62-0.62v-3.09c0-0.34-0.28-0.62-0.62-0.62c-0.34,0-0.62,0.28-0.62,0.62v3.09
	C18.7,17.87,18.98,18.14,19.32,18.14 M12.51,18.14c0.25,0,0.48-0.15,0.57-0.39l1.24-3.09c0.13-0.32-0.03-0.68-0.34-0.8
	c-0.32-0.13-0.68,0.03-0.8,0.34l-1.24,3.09c-0.13,0.32,0.03,0.68,0.34,0.8C12.36,18.13,12.44,18.14,12.51,18.14 M25.51,18.14
	c0.08,0,0.15-0.01,0.23-0.04c0.32-0.13,0.47-0.49,0.34-0.8l-1.24-3.09c-0.13-0.32-0.49-0.47-0.8-0.34c-0.32,0.13-0.47,0.49-0.34,0.8
	l1.24,3.09C25.03,18,25.26,18.14,25.51,18.14"/>
<g>
	<path d="M28.2,32.37c0-1.17-0.95-2.12-2.12-2.12s-2.12,0.95-2.12,2.12s0.95,2.12,2.12,2.12S28.2,33.54,28.2,32.37"/>
</g>
</svg>
