<?xml version="1.0" encoding="utf-8"?>
<!-- Generator: Adobe Illustrator 21.1.0, SVG Export Plug-In . SVG Version: 6.00 Build 0)  -->
<svg version="1.1" id="Ebene_1" xmlns="http://www.w3.org/2000/svg" xmlns:xlink="http://www.w3.org/1999/xlink" x="0px" y="0px"
	 viewBox="0 0 42.5 42.5" style="enable-background:new 0 0 42.5 42.5;" xml:space="preserve">
<path d="M16.8,10h3.3v4.6H7.4V10h3.3v0.4c0,0.5,0.5,1,1.1,1h3.9c0.6,0,1.1-0.4,1.1-1V10z M18.6,25.7h-1.8v0.4c0,0.5-0.5,1-1.1,1
	h-3.9c-0.6,0-1.1-0.4-1.1-1v-0.4H7.4v4.6h12.7v-3.1C19.5,26.6,19,26.1,18.6,25.7z M20.1,18.1h-3.3v0.4c0,0.5-0.5,1-1.1,1h-3.9
	c-0.6,0-1.1-0.4-1.1-1v-0.4H7.4v4.5H19c0.3-0.3,0.7-0.7,1.1-1.1V18.1z M24,33.2c0,0.7-0.6,1.3-1.3,1.3H4.8c-0.7,0-1.3-0.6-1.3-1.3
	V6.7c0-0.7,0.6-1.3,1.3-1.3h17.9C23.4,5.4,24,6,24,6.7v12.2c0.8-0.4,1.7-0.8,2.5-1.1V4.2c0-0.7-0.6-1.2-1.2-1.2h-23
	C1.6,3,1,3.6,1,4.2v31.6c0,0.7,0.6,1.2,1.2,1.2h23c0.7,0,1.2-0.6,1.2-1.2v-4.9c-0.9-0.3-1.7-0.6-2.5-1.1V33.2z M42.1,24.3l-0.4,0.5
	c0,0.1-1.1,1.4-3,2.8c-2.5,1.8-5.2,2.8-7.8,2.8c-2.6,0-5.3-1-7.8-2.8c-1.9-1.4-2.9-2.7-3-2.8l-0.4-0.5l0.4-0.5c0-0.1,1.1-1.4,3-2.8
	c2.5-1.8,5.2-2.8,7.8-2.8c2.6,0,5.3,1,7.8,2.8c1.9,1.4,2.9,2.7,3,2.8L42.1,24.3z M30.9,28.3c2.2,0,4-1.8,4-4s-1.8-4-4-4
	c-1,0-2,0.4-2.7,1.1l-0.6-0.7c-1.2,0.5-2.3,1.1-3.1,1.7c-1,0.7-1.7,1.4-2.1,1.9c0.4,0.5,1.2,1.2,2.1,1.9c0.8,0.6,1.9,1.2,3.1,1.7
	c-1-0.9-1.6-2.2-1.6-3.6c0-0.4,0-0.8,0.1-1.1l0.9,0.2c-0.1,0.3-0.1,0.7-0.1,1C26.9,26.5,28.7,28.3,30.9,28.3L30.9,28.3z M37.3,26.2
	c1-0.7,1.7-1.4,2.1-1.9c-0.4-0.5-1.2-1.2-2.1-1.9c-0.8-0.6-1.9-1.2-3.1-1.7c1,0.9,1.6,2.2,1.6,3.6c0,1.4-0.6,2.7-1.6,3.6
	C35.5,27.4,36.5,26.8,37.3,26.2L37.3,26.2z M37.3,26.2 M30.1,23.6l-1.6-1.8c0.6-0.6,1.4-0.9,2.2-0.9c1.8,0,3.2,1.4,3.2,3.2
	c0,1.8-1.4,3.2-3.2,3.2c-1.8,0-3.2-1.4-3.2-3.2c0-0.3,0-0.6,0.1-0.9L30.1,23.6z M27.7,23.2"/>
</svg>
