<?xml version="1.0" encoding="utf-8"?>
<!-- Generator: Adobe Illustrator 21.1.0, SVG Export Plug-In . SVG Version: 6.00 Build 0)  -->
<svg version="1.1" id="Ebene_1" xmlns="http://www.w3.org/2000/svg" xmlns:xlink="http://www.w3.org/1999/xlink" x="0px" y="0px"
	 viewBox="0 0 42.5 42.5" style="enable-background:new 0 0 42.5 42.5;" xml:space="preserve">
<path id="Ordner_anlegen" d="M34.9,30.1V16.4c0-0.5-0.2-1-0.5-1.3s-0.8-0.5-1.3-0.5H19.3c-0.5,0-1-0.2-1.3-0.5
	c-0.4-0.4-0.5-0.8-0.5-1.3v-1.2c0-0.5-0.2-1-0.5-1.3c-0.4-0.4-0.8-0.5-1.3-0.5H9.4c-0.5,0-1,0.2-1.3,0.5c-0.4,0.4-0.5,0.8-0.5,1.3
	v18.7c0,0.5,0.2,1,0.5,1.3C8.4,31.8,8.8,32,9.4,32H33c0.5,0,1-0.2,1.3-0.5S34.9,30.6,34.9,30.1z M37.4,16.4v13.7
	c0,1.2-0.4,2.2-1.3,3.1c-0.9,0.9-1.9,1.3-3.1,1.3H9.4c-1.2,0-2.2-0.4-3.1-1.3C5.4,32.3,5,31.3,5,30.1V11.4c0-1.2,0.4-2.2,1.3-3.1
	S8.2,7,9.4,7h6.2c1.2,0,2.2,0.4,3.1,1.3c0.9,0.9,1.3,1.9,1.3,3.1V12H33c1.2,0,2.2,0.4,3.1,1.3C37,14.1,37.4,15.2,37.4,16.4z"/>
<path d="M21.7,29.4h-1c-0.1,0-0.3,0-0.3-0.1c-0.1-0.1-0.1-0.2-0.1-0.3v-5.3H15c-0.1,0-0.3,0-0.3-0.1c-0.1-0.1-0.1-0.2-0.1-0.3v-1
	c0-0.1,0-0.3,0.1-0.3c0.1-0.1,0.2-0.1,0.3-0.1h5.3v-5.3c0-0.1,0-0.3,0.1-0.3c0.1-0.1,0.2-0.1,0.3-0.1h1c0.1,0,0.3,0,0.3,0.1
	c0.1,0.1,0.1,0.2,0.1,0.3v5.3h5.3c0.1,0,0.3,0,0.3,0.1c0.1,0.1,0.1,0.2,0.1,0.3v1c0,0.1,0,0.3-0.1,0.3c-0.1,0.1-0.2,0.1-0.3,0.1
	h-5.3V29c0,0.1,0,0.3-0.1,0.3C21.9,29.4,21.8,29.4,21.7,29.4z"/>
</svg>
