<?xml version="1.0" encoding="utf-8"?>
<!-- Generator: Adobe Illustrator 21.1.0, SVG Export Plug-In . SVG Version: 6.00 Build 0)  -->
<svg version="1.1" id="Ebene_1" xmlns="http://www.w3.org/2000/svg" xmlns:xlink="http://www.w3.org/1999/xlink" x="0px" y="0px"
	 viewBox="0 0 42.5 42.5" style="enable-background:new 0 0 42.5 42.5;" xml:space="preserve">
<g>
	<g>
		<path d="M29.1,4H14.2C12.4,4,11,5.4,11,7.2v27.6c0,1.8,1.4,3.2,3.2,3.2h14.9c1.8,0,3.2-1.4,3.2-3.2V7.2C32.3,5.4,30.8,4,29.1,4
			L29.1,4z M17.4,5.6h8.5v1.1h-8.5V5.6z M21.6,35.9c-1.2,0-2.1-1-2.1-2.1c0-1.2,1-2.1,2.1-2.1s2.1,1,2.1,2.1
			C23.8,34.9,22.8,35.9,21.6,35.9L21.6,35.9z M30.1,29.5h-17V8.3h17V29.5z M30.1,29.5"/>
	</g>
</g>
</svg>
