<?xml version="1.0" encoding="utf-8"?>
<!-- Generator: Adobe Illustrator 21.1.0, SVG Export Plug-In . SVG Version: 6.00 Build 0)  -->
<svg version="1.1" id="Ebene_1" xmlns="http://www.w3.org/2000/svg" xmlns:xlink="http://www.w3.org/1999/xlink" x="0px" y="0px"
	 viewBox="0 0 42.5 42.5" style="enable-background:new 0 0 42.5 42.5;" xml:space="preserve">
<path d="M16.2,28.9v1.7h-4.7v-1.7H16.2z M23.3,11.7v18.9h-4.7V11.7H23.3z M42.2,32.9v2.4H4.4V7h2.4v25.9H42.2z M30.4,17.7v12.9h-4.7
	V17.7H30.4z M37.5,9.4v21.2h-4.7V9.4H37.5z M16.5,22.1c0,0.3-0.1,0.5-0.3,0.7L11,28c-0.2,0.2-0.4,0.3-0.7,0.3
	c-0.3,0-0.5-0.1-0.7-0.3L9,27.4c-0.2-0.2-0.3-0.4-0.3-0.7s0.1-0.5,0.3-0.7l2.3-2.3H0.9c-0.3,0-0.5-0.1-0.7-0.3S0,22.8,0,22.6v-1
	c0-0.3,0.1-0.5,0.3-0.7s0.4-0.3,0.7-0.3h10.4L9,18.2c-0.2-0.2-0.3-0.4-0.3-0.7c0-0.3,0.1-0.5,0.3-0.7l0.6-0.6
	c0.2-0.2,0.4-0.3,0.7-0.3c0.3,0,0.5,0.1,0.7,0.3l5.2,5.2C16.4,21.5,16.5,21.8,16.5,22.1z"/>
</svg>
