<?xml version="1.0" encoding="utf-8"?>
<!-- Generator: Adobe Illustrator 21.1.0, SVG Export Plug-In . SVG Version: 6.00 Build 0)  -->
<svg version="1.1" id="Ebene_1" xmlns="http://www.w3.org/2000/svg" xmlns:xlink="http://www.w3.org/1999/xlink" x="0px" y="0px"
	 viewBox="0 0 42.5 42.5" style="enable-background:new 0 0 42.5 42.5;" xml:space="preserve">
<path d="M31.8,30.7V17c-0.4,0.4-1.3,1.1-1.8,1.4c-3.4,2.4-6,4.3-8,5.8c-0.6,0.5-1.2,0.9-1.6,1.2s-0.9,0.6-1.6,0.8
	c-0.7,0.3-1.3,0.4-1.9,0.4h0c-0.6,0-1.2-0.1-1.9-0.4c-0.7-0.3-1.2-0.6-1.6-0.8s-0.9-0.7-1.6-1.2c-2-1.5-4.7-3.5-8-5.8
	c-0.5-0.3-1.4-1-1.8-1.4v13.7c0,0.1,0.1,0.3,0.2,0.4c0.1,0.1,0.3,0.2,0.4,0.2h28.7c0.2,0,0.3-0.1,0.4-0.2S31.8,30.8,31.8,30.7z
	 M31.8,12.4v-0.6l0,0l-0.1-0.4l-0.1-0.2l-0.2-0.1l-0.3,0H2.5c-0.2,0-0.3,0.1-0.4,0.2c-0.1,0.1-0.2,0.2-0.2,0.4c0,2,1.4,3.8,3.2,5.2
	c2.4,1.8,4.9,3.6,7.5,5.6c0.1,0.1,0.3,0.2,0.7,0.5s0.7,0.5,0.9,0.7s0.5,0.3,0.8,0.6c0.3,0.2,0.7,0.4,1,0.5s0.6,0.2,0.8,0.2h0
	c0.3,0,0.5-0.1,0.8-0.2c0.3-0.1,0.6-0.3,1-0.5c0.3-0.2,0.6-0.4,0.8-0.6c0.2-0.2,0.5-0.4,0.9-0.7s0.6-0.5,0.7-0.5
	c2.6-1.9,5.1-3.8,7.5-5.6c0.7-0.5,1.8-1.5,2.4-2.3C31.6,13.6,31.8,13.1,31.8,12.4z M33.7,11.8v18.7c0,0.8-0.3,1.4-0.9,1.9
	c-0.6,0.5-1.3,0.8-2.1,0.8H3c-0.8,0-1.5-0.3-2.1-0.8S0,31.2,0,30.5V11.8c0-0.8,0.3-1.4,0.9-1.9C1.5,9.3,2.2,9,3,9h27.7
	c0.8,0,1.5,0.3,2.1,0.8C33.4,10.3,33.7,11,33.7,11.8z"/>
<path d="M42.5,24.4c0,0.2-0.1,0.3-0.2,0.4l-5.2,5.2c-0.1,0.1-0.3,0.2-0.4,0.2s-0.3-0.1-0.4-0.2c-0.1-0.1-0.2-0.3-0.2-0.4v-2.8h-6.3
	c-0.2,0-0.3-0.1-0.4-0.2s-0.2-0.3-0.2-0.4v-3.7c0-0.2,0.1-0.3,0.2-0.4c0.1-0.1,0.3-0.2,0.4-0.2h6.3v-2.8c0-0.2,0.1-0.3,0.2-0.4
	c0.1-0.1,0.3-0.2,0.4-0.2s0.3,0.1,0.4,0.2l5.2,5.2C42.5,24.1,42.5,24.3,42.5,24.4z"/>
</svg>
