<?xml version="1.0" encoding="utf-8"?>
<!-- Generator: Adobe Illustrator 23.0.1, SVG Export Plug-In . SVG Version: 6.00 Build 0)  -->
<svg version="1.1" id="Ebene_1" xmlns="http://www.w3.org/2000/svg" xmlns:xlink="http://www.w3.org/1999/xlink" x="0px" y="0px"
	 viewBox="0 0 42.52 42.52" style="enable-background:new 0 0 42.52 42.52;" xml:space="preserve">
<path d="M19.17,29.26h3.96v5.15h-3.96V29.26z M14.98,33.08h12.35l0.75,2.22H14.22L14.98,33.08z M14.22,35.3 M16.4,12.55 M36.1,7.97
	v20.7c0,0.54-0.43,0.97-0.97,0.97H7.31c-0.54,0-0.97-0.43-0.97-0.97V7.97C6.34,7.44,6.78,7,7.31,7h27.82
	C35.67,7,36.1,7.44,36.1,7.97z M34.16,27.7V8.9H8.28v18.8H34.16z M28.14,19.28h-1.71v4.27h-4.27v-2.56h-1.71v2.56h-4.27v-4.27h-1.71
	v-0.43l6.83-6.83l2.56,2.56v-2.13h1.71v3.84l2.56,2.56V19.28z M28.14,18.85"/>
</svg>
