<?xml version="1.0" encoding="utf-8"?>
<!-- Generator: Adobe Illustrator 21.1.0, SVG Export Plug-In . SVG Version: 6.00 Build 0)  -->
<svg version="1.1" id="Ebene_1" xmlns="http://www.w3.org/2000/svg" xmlns:xlink="http://www.w3.org/1999/xlink" x="0px" y="0px"
	 viewBox="0 0 42.5 42.5" style="enable-background:new 0 0 42.5 42.5;" xml:space="preserve">
<style type="text/css">
	.st0{clip-path:url(#SVGID_2_);}
</style>
<g>
	<g>
		<defs>
			<rect id="SVGID_1_" y="9" width="42.5" height="23"/>
		</defs>
		<clipPath id="SVGID_2_">
			<use xlink:href="#SVGID_1_"  style="overflow:visible;"/>
		</clipPath>
		<path class="st0" d="M41.7,19.6c-0.1-0.1-2.1-2.7-5.7-5.3C31.3,10.8,26.2,9,21.2,9c-5,0-10.1,1.8-14.8,5.3
			c-3.5,2.6-5.6,5.2-5.7,5.3L0,20.5l0.7,0.9c0.1,0.1,2.1,2.7,5.7,5.3c4.7,3.5,9.8,5.3,14.8,5.3c5,0,10.1-1.8,14.8-5.3
			c3.5-2.6,5.6-5.2,5.7-5.3l0.7-0.9L41.7,19.6z M21.2,28.5c-4.4,0-8.1-3.6-8.1-8.1c0-0.7,0.1-1.4,0.3-2l-1.8-0.3
			c-0.2,0.7-0.3,1.5-0.3,2.3c0,2.9,1.2,5.5,3.2,7.3c-2.5-0.9-4.7-2.2-6.3-3.4c-2-1.5-3.5-2.9-4.4-3.9c0.9-0.9,2.4-2.4,4.4-3.9
			c1.6-1.2,3.8-2.5,6.3-3.4l1.2,1.4c1.4-1.3,3.4-2.2,5.5-2.2c4.4,0,8.1,3.6,8.1,8.1S25.7,28.5,21.2,28.5L21.2,28.5z M34.2,24.3
			c-1.6,1.2-3.8,2.5-6.3,3.4c2-1.8,3.2-4.4,3.2-7.3c0-2.9-1.2-5.5-3.2-7.3c2.5,0.9,4.7,2.2,6.3,3.4c2,1.5,3.5,2.9,4.4,3.9
			C37.7,21.4,36.2,22.9,34.2,24.3L34.2,24.3z M34.2,24.3"/>
	</g>
	<path d="M16.1,18.9c-0.2,0.5-0.2,1-0.2,1.6c0,3,2.4,5.4,5.4,5.4c3,0,5.4-2.4,5.4-5.4s-2.4-5.4-5.4-5.4c-1.4,0-2.7,0.6-3.7,1.5
		l2.6,3L16.1,18.9z M16.1,18.9"/>
</g>
</svg>
