<?xml version="1.0" encoding="utf-8"?>
<!-- Generator: Adobe Illustrator 21.1.0, SVG Export Plug-In . SVG Version: 6.00 Build 0)  -->
<svg version="1.1" id="Ebene_1" xmlns="http://www.w3.org/2000/svg" xmlns:xlink="http://www.w3.org/1999/xlink" x="0px" y="0px"
	 viewBox="0 0 42.5 42.5" style="enable-background:new 0 0 42.5 42.5;" xml:space="preserve">
<style type="text/css">
	.st0{fill:none;}
	.st1{font-family:'RobotoCondensed-Bold';}
	.st2{font-size:10.6404px;}
</style>
<path d="M6.5,29.5c1.5,2.6,3.6,4.7,6.2,6.2c2.6,1.5,5.5,2.3,8.5,2.3c3.1,0,5.9-0.8,8.5-2.3c2.6-1.5,4.7-3.6,6.2-6.2
	c0.2-0.3,0.4-0.6,0.5-1H6C6.2,28.9,6.3,29.2,6.5,29.5z"/>
<path d="M36,12.5c-1.5-2.6-3.6-4.7-6.2-6.2C27.2,4.8,24.3,4,21.3,4c-3.1,0-5.9,0.8-8.5,2.3c-2.6,1.5-4.7,3.6-6.2,6.2
	c-0.2,0.3-0.4,0.6-0.5,1h30.5C36.3,13.1,36.2,12.8,36,12.5z"/>
<rect x="9.3" y="16.4" class="st0" width="25.1" height="9.2"/>
<text transform="matrix(0.8458 0 0 1 11.7744 24.3584)" class="st1 st2">WWW</text>
</svg>
