<?xml version="1.0" encoding="utf-8"?>
<!-- Generator: Adobe Illustrator 21.1.0, SVG Export Plug-In . SVG Version: 6.00 Build 0)  -->
<svg version="1.1" id="Ebene_1" xmlns="http://www.w3.org/2000/svg" xmlns:xlink="http://www.w3.org/1999/xlink" x="0px" y="0px"
	 viewBox="0 0 42.5 42.5" style="enable-background:new 0 0 42.5 42.5;" xml:space="preserve">
<path d="M29.4,28.6c-2.2-0.9-4.7-1.5-7.4-1.6v-8c0.7,0.4,1.5,0.6,2.3,0.6c1.2,0,2.3-0.4,3.2-1.2c0.9,0.8,2,1.2,3.2,1.2
	c1.5,0,2.9-0.7,3.8-1.9c0.1-0.1,0.2-0.3,0.2-0.5c0-2.1-1.5-4.6-3.9-6.6C28,8.3,24.6,7,21.2,7s-6.8,1.3-9.6,3.6
	c-2.4,2-3.9,4.6-3.9,6.6c0,0.2,0.1,0.4,0.2,0.5c0.9,1.2,2.3,1.9,3.8,1.9c1.2,0,2.3-0.4,3.2-1.2c0.9,0.8,2,1.2,3.2,1.2
	c0.8,0,1.6-0.2,2.3-0.6v8c-2.7,0.1-5.2,0.6-7.4,1.6c-2.4,1.1-4.2,2.5-5.2,4.3c-0.1,0.3-0.1,0.6,0,0.8c0.2,0.3,0.4,0.4,0.7,0.4
	c0.8,0,1.2,0.2,1.7,0.5c0.6,0.3,1.3,0.7,2.5,0.7s2-0.4,2.5-0.7c0.5-0.3,0.9-0.5,1.7-0.5c0.8,0,1.2,0.2,1.7,0.5
	c0.6,0.3,1.3,0.7,2.5,0.7c1.3,0,2-0.4,2.5-0.7c0.5-0.3,0.9-0.5,1.7-0.5c0.8,0,1.2,0.2,1.7,0.5c0.6,0.3,1.3,0.7,2.5,0.7
	c1.3,0,2-0.4,2.5-0.7c0.5-0.3,0.9-0.5,1.7-0.5c0.3,0,0.6-0.2,0.7-0.4c0.2-0.3,0.2-0.6,0-0.8C33.6,31.1,31.8,29.6,29.4,28.6z
	 M24.3,17.9c-0.9,0-1.7-0.4-2.3-1V8.8c1,0.4,2.1,1.3,2.9,2.8c1,1.6,1.6,3.7,1.7,5.3C26.1,17.6,25.2,17.9,24.3,17.9z M33,16.9
	c-0.6,0.7-1.4,1-2.3,1c-0.9,0-1.7-0.4-2.3-1.1c-0.1-1.9-0.8-4.2-1.9-6.1c-0.3-0.5-0.6-0.9-0.9-1.3c1.9,0.7,3.3,1.7,4.2,2.4
	C31.5,13.4,32.8,15.4,33,16.9z M11.7,17.9c-0.9,0-1.7-0.4-2.3-1c0.1-1.5,1.4-3.5,3.3-5.1c0.9-0.7,2.3-1.7,4.2-2.4
	c-0.3,0.4-0.6,0.8-0.9,1.3c-1.1,1.9-1.9,4.2-1.9,6.1C13.4,17.6,12.6,17.9,11.7,17.9z M18,17.9c-0.9,0-1.7-0.4-2.3-1
	c0.1-1.6,0.7-3.6,1.7-5.3c0.9-1.5,1.9-2.5,2.9-2.8v8.1C19.7,17.6,18.9,17.9,18,17.9z M31.3,33.2c-0.5,0.3-0.9,0.5-1.7,0.5
	c-0.8,0-1.2-0.2-1.7-0.5c-0.6-0.3-1.3-0.7-2.5-0.7c-1.3,0-2,0.4-2.5,0.7c-0.5,0.3-0.9,0.5-1.7,0.5c-0.8,0-1.2-0.2-1.7-0.5
	c-0.6-0.3-1.3-0.7-2.5-0.7c-1.3,0-2,0.4-2.5,0.7c-0.5,0.3-0.9,0.5-1.7,0.5c-0.8,0-1.2-0.2-1.7-0.5c-0.3-0.2-0.6-0.4-1.1-0.5
	c0.9-1,2.1-1.8,3.6-2.5c2.2-1,4.8-1.5,7.5-1.5s5.4,0.5,7.5,1.5c1.5,0.7,2.8,1.5,3.6,2.5C31.9,32.8,31.6,33,31.3,33.2z"/>
</svg>
