<?xml version="1.0" encoding="utf-8"?>
<!-- Generator: Adobe Illustrator 21.1.0, SVG Export Plug-In . SVG Version: 6.00 Build 0)  -->
<svg version="1.1" id="Ebene_1" xmlns="http://www.w3.org/2000/svg" xmlns:xlink="http://www.w3.org/1999/xlink" x="0px" y="0px"
	 viewBox="0 0 42.5 42.5" style="enable-background:new 0 0 42.5 42.5;" xml:space="preserve">
<path d="M34.7,11.4c0.4,0.4,0.7,0.8,0.9,1.4c0.3,0.6,0.4,1.2,0.4,1.7v21.9c0,0.5-0.2,0.9-0.5,1.3s-0.8,0.5-1.3,0.5H8.7
	c-0.5,0-0.9-0.2-1.3-0.5c-0.4-0.4-0.5-0.8-0.5-1.3V6C6.8,5.5,7,5,7.4,4.7c0.4-0.4,0.8-0.5,1.3-0.5h17c0.5,0,1.1,0.1,1.7,0.4
	c0.6,0.3,1.1,0.6,1.4,0.9L34.7,11.4z M26.3,6.7v7.1h7.1c-0.1-0.4-0.3-0.6-0.4-0.8l-5.9-5.9C26.9,7,26.6,6.9,26.3,6.7z M33.6,35.8
	V16.3h-7.9c-0.5,0-0.9-0.2-1.3-0.5s-0.5-0.8-0.5-1.3V6.6H9.3v29.2H33.6z M13.9,25.4l3.7,1.6v2.3l-5.9-2.9v-1.9l5.9-2.9v2.3
	L13.9,25.4z M20.2,31.3h-1.7l3.5-12.8h1.7L20.2,31.3z M28.8,25.3L25,23.7v-2.3l6,2.9v1.9l-6,2.9V27L28.8,25.3z"/>
</svg>
