<?xml version="1.0" encoding="utf-8"?>
<!-- Generator: Adobe Illustrator 28.2.0, SVG Export Plug-In . SVG Version: 6.00 Build 0)  -->
<svg version="1.1" id="Ebene_1" xmlns="http://www.w3.org/2000/svg" xmlns:xlink="http://www.w3.org/1999/xlink" x="0px" y="0px"
	 viewBox="0 0 42.5 42.5" style="enable-background:new 0 0 42.5 42.5;" xml:space="preserve">
<path id="Backend_Configs" d="M32.8,19.7c0-1.1-0.4-2.1-1.2-2.9c-0.8-0.8-1.8-1.2-2.9-1.2c-1.1,0-2.1,0.4-2.9,1.2
	c-0.8,0.8-1.2,1.8-1.2,2.9c0,1.1,0.4,2.1,1.2,2.9c0.8,0.8,1.8,1.2,2.9,1.2c1.1,0,2.1-0.4,2.9-1.2C32.4,21.7,32.8,20.8,32.8,19.7z
	 M36.2,18.6v2.2c0,0.1,0,0.2-0.1,0.2c-0.1,0.1-0.1,0.1-0.2,0.1l-1.8,0.3c-0.1,0.4-0.2,0.6-0.4,0.9c0.2,0.3,0.6,0.8,1,1.3
	c0.1,0.1,0.1,0.2,0.1,0.2c0,0.1,0,0.2-0.1,0.2c-0.2,0.2-0.5,0.6-1,1.1c-0.5,0.5-0.8,0.7-0.9,0.7c-0.1,0-0.2,0-0.3-0.1l-1.3-1.1
	c-0.3,0.1-0.6,0.3-0.9,0.4c-0.1,0.9-0.2,1.5-0.3,1.8c0,0.2-0.2,0.3-0.4,0.3h-2.2c-0.1,0-0.2,0-0.2-0.1c-0.1-0.1-0.1-0.1-0.1-0.2
	L27,25c-0.3-0.1-0.6-0.2-0.9-0.4l-1.4,1c-0.1,0.1-0.1,0.1-0.2,0.1c-0.1,0-0.2,0-0.2-0.1c-0.8-0.7-1.4-1.3-1.6-1.6
	c0-0.1-0.1-0.1-0.1-0.2c0-0.1,0-0.2,0.1-0.2c0.1-0.1,0.3-0.4,0.5-0.6s0.4-0.5,0.5-0.7c-0.2-0.3-0.3-0.6-0.4-1l-1.8-0.3
	c-0.1,0-0.2-0.1-0.2-0.1c-0.1-0.1-0.1-0.1-0.1-0.2v-2.2c0-0.1,0-0.2,0.1-0.2c0.1-0.1,0.1-0.1,0.2-0.1l1.8-0.3
	c0.1-0.3,0.2-0.6,0.4-0.9c-0.3-0.4-0.6-0.8-1-1.3c-0.1-0.1-0.1-0.2-0.1-0.2c0-0.1,0-0.1,0.1-0.2c0.2-0.2,0.5-0.6,1-1
	c0.5-0.5,0.8-0.7,0.9-0.7c0.1,0,0.2,0,0.3,0.1l1.3,1c0.3-0.1,0.6-0.3,0.9-0.4c0.1-0.9,0.2-1.5,0.3-1.8c0-0.2,0.2-0.3,0.4-0.3h2.2
	c0.1,0,0.2,0,0.2,0.1s0.1,0.1,0.1,0.2l0.3,1.8c0.3,0.1,0.6,0.2,0.9,0.4l1.4-1c0.1-0.1,0.1-0.1,0.2-0.1c0.1,0,0.2,0,0.2,0.1
	c0.8,0.8,1.4,1.3,1.6,1.7c0,0.1,0.1,0.1,0.1,0.2c0,0.1,0,0.2-0.1,0.2c-0.1,0.1-0.3,0.4-0.5,0.6c-0.2,0.3-0.4,0.5-0.5,0.7
	c0.2,0.3,0.3,0.6,0.4,1l1.8,0.3c0.1,0,0.2,0.1,0.2,0.1C36.2,18.4,36.2,18.5,36.2,18.6z M27.2,33.8v1.1c0,0.2-0.1,0.3-0.2,0.4
	c-0.1,0.1-0.3,0.1-0.4,0.1H15.9c-0.2,0-0.3,0-0.4-0.1c-0.1-0.1-0.2-0.2-0.2-0.4v-1.1c0-0.2,0.1-0.3,0.2-0.4c0.1-0.1,0.3-0.1,0.4-0.1
	h10.6c0.2,0,0.3,0,0.4,0.1C27.1,33.6,27.2,33.7,27.2,33.8z M37.8,29.4V9.9c0-0.1-0.1-0.3-0.2-0.4c-0.1-0.1-0.3-0.2-0.4-0.2H5.3
	C5.1,9.4,5,9.4,4.9,9.5S4.7,9.8,4.7,9.9v19.5c0,0.1,0.1,0.3,0.2,0.4s0.3,0.2,0.4,0.2h31.9c0.2,0,0.3-0.1,0.4-0.2
	C37.7,29.7,37.8,29.6,37.8,29.4z M40.1,9.7v20c0,0.7-0.3,1.3-0.9,1.9c-0.6,0.5-1.3,0.8-2.1,0.8H5.3c-0.8,0-1.5-0.3-2.1-0.8
	c-0.6-0.5-0.9-1.1-0.9-1.9v-20c0-0.7,0.3-1.3,0.9-1.9s1.3-0.8,2.1-0.8h31.9c0.8,0,1.5,0.3,2.1,0.8S40.1,9,40.1,9.7z M14.4,24.8
	l-0.7,0.6c-0.1,0.1-0.2,0.1-0.3,0.1c-0.1,0-0.2,0-0.3-0.1l-6.7-6c-0.1-0.1-0.1-0.2-0.1-0.3s0-0.2,0.1-0.3l6.7-6
	c0.1-0.1,0.2-0.1,0.3-0.1c0.1,0,0.2,0,0.3,0.1l0.7,0.6c0.1,0.1,0.1,0.2,0.1,0.3c0,0.1,0,0.2-0.1,0.3l-5.7,5l5.7,5
	c0.1,0.1,0.1,0.2,0.1,0.3S14.5,24.7,14.4,24.8z M22,11.1l-5.4,16.6c0,0.1-0.1,0.2-0.2,0.3c-0.1,0.1-0.2,0.1-0.3,0l-0.9-0.2
	c-0.1,0-0.2-0.1-0.3-0.2c-0.1-0.1-0.1-0.2,0-0.3l5.4-16.6c0-0.1,0.1-0.2,0.2-0.3s0.2-0.1,0.3,0l0.9,0.2c0.1,0,0.2,0.1,0.3,0.2
	C22,10.9,22.1,11,22,11.1z"/>
</svg>
