<?xml version="1.0" encoding="utf-8"?>
<!-- Generator: Adobe Illustrator 21.1.0, SVG Export Plug-In . SVG Version: 6.00 Build 0)  -->
<svg version="1.1" id="Ebene_1" xmlns="http://www.w3.org/2000/svg" xmlns:xlink="http://www.w3.org/1999/xlink" x="0px" y="0px"
	 viewBox="0 0 42.5 42.5" style="enable-background:new 0 0 42.5 42.5;" xml:space="preserve">
<style type="text/css">
	.st0{fill:#FFFFFF;}
</style>
<path d="M33.5,23.3v10.6c0,0.4-0.1,0.7-0.4,1c-0.3,0.3-0.6,0.4-1,0.4h-8.5v-8.5H18v8.5H9.5c-0.4,0-0.7-0.1-1-0.4
	c-0.3-0.3-0.4-0.6-0.4-1V23.3c0,0,0,0,0-0.1c0,0,0-0.1,0-0.1l12.7-10.5l12.7,10.5C33.5,23.2,33.5,23.3,33.5,23.3z M38.5,21.8
	l-1.4,1.6c-0.1,0.1-0.3,0.2-0.5,0.2h-0.1c-0.2,0-0.3-0.1-0.5-0.2L20.8,10.8L5.5,23.5c-0.2,0.1-0.4,0.2-0.5,0.2
	c-0.2,0-0.3-0.1-0.5-0.2l-1.4-1.6C3,21.7,3,21.5,3,21.3c0-0.2,0.1-0.4,0.2-0.5L19.1,7.6c0.5-0.4,1-0.6,1.7-0.6s1.2,0.2,1.7,0.6
	l5.4,4.5l5.7,4.7l4.8,4c0.1,0.1,0.2,0.3,0.2,0.5S38.6,21.7,38.5,21.8z"/>
<path class="st0" d="M29.6,32.1c0,1-0.3,1.8-0.9,2.4c-0.6,0.6-1.4,0.9-2.4,0.9H15.4c-1,0-1.8-0.3-2.4-0.9c-0.6-0.6-0.9-1.4-0.9-2.4
	c0-0.5,0-0.9,0.1-1.3c0.1-0.5,0.1-0.9,0.2-1.4c0.1-0.5,0.2-0.9,0.3-1.3c0.1-0.4,0.3-0.8,0.5-1.2c0.2-0.4,0.5-0.7,0.8-1
	c0.3-0.3,0.7-0.5,1.1-0.7c0.4-0.1,0.9-0.3,1.4-0.3c0.1,0,0.3,0.1,0.5,0.3s0.6,0.4,0.9,0.6c0.3,0.2,0.8,0.4,1.3,0.6s1.1,0.3,1.6,0.3
	c0.5,0,1.1-0.1,1.6-0.3s1-0.4,1.3-0.6c0.3-0.2,0.7-0.4,0.9-0.6c0.3-0.2,0.5-0.3,0.5-0.3c0.5,0,1,0.1,1.4,0.3
	c0.4,0.2,0.8,0.4,1.1,0.7c0.3,0.3,0.5,0.6,0.8,1c0.2,0.4,0.4,0.8,0.5,1.2c0.1,0.4,0.3,0.9,0.3,1.3c0.1,0.5,0.1,0.9,0.2,1.4
	C29.6,31.3,29.6,31.7,29.6,32.1z M25,20.9c0,1.2-0.4,2.2-1.2,3c-0.9,0.9-1.8,1.2-3,1.2c-1.2,0-2.2-0.4-3-1.2c-0.9-0.9-1.2-1.8-1.2-3
	s0.4-2.2,1.2-3c0.9-0.8,1.8-1.2,3-1.2c1.2,0,2.2,0.4,3,1.2C24.6,18.8,25,19.8,25,20.9z"/>
</svg>
