<?xml version="1.0" encoding="utf-8"?>
<!-- Generator: Adobe Illustrator 21.1.0, SVG Export Plug-In . SVG Version: 6.00 Build 0)  -->
<svg version="1.1" id="Ebene_1" xmlns="http://www.w3.org/2000/svg" xmlns:xlink="http://www.w3.org/1999/xlink" x="0px" y="0px"
	 viewBox="0 0 42.5 42.5" style="enable-background:new 0 0 42.5 42.5;" xml:space="preserve">
<path d="M22.2,38h-2.4c-0.4,0-0.6-0.1-0.9-0.3c-0.2-0.2-0.3-0.5-0.3-0.9V23.4H5.2c-0.4,0-0.6-0.1-0.9-0.3C4.1,22.8,4,22.6,4,22.2
	v-2.4c0-0.4,0.1-0.6,0.3-0.9c0.2-0.2,0.5-0.3,0.9-0.3h13.3V5.2c0-0.4,0.1-0.6,0.3-0.9C19.1,4.1,19.4,4,19.8,4h2.4
	c0.4,0,0.6,0.1,0.9,0.3c0.2,0.2,0.3,0.5,0.3,0.9v13.3h13.3c0.4,0,0.6,0.1,0.9,0.3c0.2,0.2,0.3,0.5,0.3,0.9v2.4
	c0,0.4-0.1,0.6-0.3,0.9s-0.5,0.3-0.9,0.3H23.4v13.3c0,0.4-0.1,0.6-0.3,0.9S22.6,38,22.2,38z"/>
</svg>
