<?xml version="1.0" encoding="utf-8"?>
<!-- Generator: Adobe Illustrator 21.1.0, SVG Export Plug-In . SVG Version: 6.00 Build 0)  -->
<svg version="1.1" id="Ebene_1" xmlns="http://www.w3.org/2000/svg" xmlns:xlink="http://www.w3.org/1999/xlink" x="0px" y="0px"
	 viewBox="0 0 42.5 42.5" style="enable-background:new 0 0 42.5 42.5;" xml:space="preserve">
<path d="M32.5,17.2h-0.7v-3.3c0,0,0,0,0-0.1c0-0.1,0-0.3-0.1-0.4l-5.5-6.2c0,0,0,0,0,0c0,0-0.1-0.1-0.1-0.1c0,0,0,0,0,0
	c0,0-0.1,0-0.1,0c0,0,0,0,0,0c0,0-0.1,0-0.1,0H12.4c-0.6,0-1.1,0.5-1.1,1.1v9h-0.7c-0.9,0-1.6,0.7-1.6,1.6v8.3
	c0,0.9,0.7,1.6,1.6,1.6h0.7v5.7c0,0.6,0.5,1.1,1.1,1.1h18.3c0.6,0,1.1-0.5,1.1-1.1v-5.7h0.7c0.9,0,1.6-0.7,1.6-1.6v-8.3
	C34.1,17.9,33.4,17.2,32.5,17.2L32.5,17.2z M12.4,8.2h12.9v5.7c0,0.3,0.2,0.6,0.6,0.6h4.9v2.8H12.4V8.2z M30.7,34H12.4v-5.4h18.3V34
	z M28.8,26.4 M13.7,23h-2v2h2.4v1.3h-3.7v-7.6H14V20h-2.4v1.8h2V23z M16.8,21.4l0.9-2.6h1.5l-1.5,3.8l1.5,3.8h-1.5l-0.9-2.6
	l-0.9,2.6h-1.5l1.5-3.8l-1.5-3.8h1.5L16.8,21.4z M24.1,23.8c0,0.9-0.2,1.5-0.6,2s-0.9,0.7-1.6,0.7c-0.7,0-1.3-0.3-1.7-0.8
	c-0.4-0.6-0.6-1.4-0.6-2.4v-1.3c0-1,0.2-1.8,0.6-2.4s1-0.8,1.7-0.8c0.7,0,1.2,0.2,1.6,0.7c0.4,0.5,0.6,1.1,0.6,2h-1.3
	c0-0.5-0.1-0.9-0.2-1.1c-0.1-0.2-0.4-0.3-0.7-0.3c-0.3,0-0.6,0.1-0.7,0.4s-0.2,0.8-0.2,1.4v1.4c0,0.8,0.1,1.3,0.2,1.5
	c0.1,0.3,0.4,0.4,0.7,0.4c0.3,0,0.6-0.1,0.7-0.3c0.1-0.2,0.2-0.5,0.2-1.1H24.1z M28.2,23h-2v2h2.4v1.3h-3.7v-7.6h3.7V20h-2.4v1.8h2
	V23z M30.6,25h2.3v1.3h-3.6v-7.6h1.3V25z"/>
</svg>
