<?xml version="1.0" encoding="utf-8"?>
<!-- Generator: Adobe Illustrator 27.1.0, SVG Export Plug-In . SVG Version: 6.00 Build 0)  -->
<svg version="1.1" id="Ebene_1" xmlns="http://www.w3.org/2000/svg" xmlns:xlink="http://www.w3.org/1999/xlink" x="0px" y="0px"
	 viewBox="0 0 42.5 42.5" style="enable-background:new 0 0 42.5 42.5;" xml:space="preserve">
<style type="text/css">
	.st0{fill:none;stroke:#000000;stroke-width:2.7;stroke-miterlimit:10;}
</style>
<circle class="st0" cx="20.4" cy="21.2" r="7.3"/>
<path d="M7.9,32.2c0-0.6,0.2-1,0.5-1.3c0.8-0.8,1.6-1.6,2.4-2.4c0.7-0.7,1.8-0.7,2.4,0c0.7,0.7,0.7,1.7,0,2.4
	c-0.8,0.8-1.6,1.6-2.4,2.4c-0.5,0.5-1.2,0.6-1.9,0.3C8.3,33.3,8,32.8,7.9,32.2z M32.5,31c-0.9-0.9-1.7-1.8-2.7-2.7
	c-0.6-0.6-1.6-0.5-2.3,0.1c-0.6,0.6-0.7,1.6-0.1,2.3c0.9,0.9,1.8,1.8,2.7,2.7c0.5,0.5,1.2,0.5,1.8,0.2c0.6-0.3,0.9-0.8,0.9-1.7
	C32.8,31.7,32.8,31.3,32.5,31z M13.4,11.9c-0.9-0.9-1.7-1.8-2.7-2.7c-0.6-0.6-1.6-0.5-2.3,0.1C7.9,10,7.8,11,8.4,11.6
	c0.9,0.9,1.8,1.8,2.7,2.7c0.5,0.5,1.2,0.5,1.8,0.2c0.6-0.3,0.9-0.8,0.9-1.7C13.7,12.6,13.7,12.2,13.4,11.9z M22.1,6
	c0-1-0.7-1.7-1.7-1.7c-0.9,0-1.7,0.7-1.7,1.7c0,1.1,0,2.3,0,3.4c0,1,0.8,1.7,1.7,1.7c0.9,0,1.6-0.7,1.7-1.7c0-0.6,0-1.1,0-1.7
	C22.1,7.1,22.1,6.5,22.1,6z M8.5,22.9c1,0,1.7-0.8,1.7-1.7c0-0.9-0.7-1.7-1.7-1.7c-1.1,0-2.3,0-3.4,0c-1,0-1.7,0.7-1.7,1.7
	c0,0.9,0.7,1.7,1.7,1.7c0.6,0,1.1,0,1.7,0C7.4,22.9,8,22.9,8.5,22.9z M31.6,8.4c-0.7-0.3-1.3-0.2-1.9,0.3c-0.8,0.8-1.6,1.6-2.4,2.4
	c-0.7,0.7-0.7,1.7,0,2.4c0.7,0.7,1.7,0.7,2.4,0c0.8-0.8,1.6-1.6,2.4-2.4c0.3-0.3,0.5-0.7,0.5-1.3C32.5,9.3,32.2,8.7,31.6,8.4z
	 M32,19.1c-1,0-1.7,0.8-1.7,1.7c0,0.9,0.7,1.7,1.7,1.7c1.1,0,2.3,0,3.4,0c1,0,1.7-0.7,1.7-1.7c0-0.9-0.7-1.7-1.7-1.7
	c-0.6,0-1.1,0-1.7,0C33.1,19.1,32.5,19.1,32,19.1z M22.1,33.2c0-1-0.8-1.7-1.7-1.7c-0.9,0-1.7,0.7-1.7,1.7c0,1.1,0,2.3,0,3.4
	c0,1,0.7,1.7,1.7,1.7c0.9,0,1.7-0.7,1.7-1.7c0-0.6,0-1.1,0-1.7C22.1,34.3,22.1,33.7,22.1,33.2z"/>
</svg>
