<?xml version="1.0" encoding="utf-8"?>
<svg version="1.1" id="Ebene_1" x="0px" y="0px" viewBox="0 0 42.52 42.52" style="enable-background:new 0 0 42.52 42.52;" xmlns="http://www.w3.org/2000/svg">
  <g style="" transform="matrix(1.149095, 0, 0, 1.149095, -0.311634, -6.291357)">
    <path d="M 6.949 35.612 L 9.246 35.612 C 9.697 35.612 10.107 35.602 10.466 35.572 C 10.825 35.542 11.184 35.492 11.543 35.422 C 11.902 35.352 12.21 35.252 12.476 35.132 C 12.743 35.013 12.989 34.853 13.215 34.663 C 13.44 34.473 13.625 34.243 13.768 33.973 C 13.912 33.703 14.025 33.393 14.107 33.033 C 14.189 32.673 14.23 32.263 14.23 31.803 C 14.23 31.553 14.219 31.273 14.199 30.963 C 14.199 30.933 14.189 30.883 14.178 30.803 C 14.168 30.723 14.158 30.663 14.158 30.623 C 14.158 30.553 14.178 30.503 14.219 30.453 C 14.26 30.403 14.312 30.383 14.384 30.383 C 14.455 30.383 14.527 30.423 14.578 30.503 C 14.609 30.543 14.64 30.593 14.671 30.653 C 14.701 30.713 14.732 30.783 14.763 30.853 C 14.794 30.933 14.824 30.983 14.835 31.013 C 15.429 32.303 15.717 33.333 15.717 34.083 C 15.717 34.983 15.594 35.742 15.347 36.352 C 14.599 38.182 12.558 39.092 9.246 39.092 L 6.949 39.092 M 3.35 37.662" style="" transform="matrix(-0.702704, 0.711483, -0.711483, -0.702704, 40.947855, 52.364746)"/>
  </g>
  <path d="M 12.199 27.336 L 14.244 25.292 C 14.416 25.119 14.508 24.912 14.508 24.66 C 14.508 24.407 14.416 24.2 14.244 24.028 L 13.727 23.51 C 13.554 23.338 13.336 23.246 13.095 23.246 C 12.854 23.246 12.635 23.338 12.463 23.51 L 7.924 28.048 C 7.752 28.209 7.671 28.416 7.671 28.68 C 7.671 28.933 7.752 29.14 7.924 29.312 L 12.463 33.851 C 12.647 34.023 12.854 34.104 13.095 34.104 C 13.336 34.104 13.543 34.023 13.727 33.851 L 14.244 33.334 C 14.416 33.162 14.508 32.943 14.508 32.702 C 14.508 32.461 14.416 32.242 14.244 32.07 L 12.199 30.025" style="" transform="matrix(-0.702704, 0.711483, -0.711483, -0.702704, 39.283899, 40.935039)"/>
</svg>