<?xml version="1.0" encoding="utf-8"?>
<!-- Generator: Adobe Illustrator 21.1.0, SVG Export Plug-In . SVG Version: 6.00 Build 0)  -->
<svg version="1.1" id="Ebene_1" xmlns="http://www.w3.org/2000/svg" xmlns:xlink="http://www.w3.org/1999/xlink" x="0px" y="0px"
	 viewBox="0 0 42.5 42.5" style="enable-background:new 0 0 42.5 42.5;" xml:space="preserve">
<path d="M20.9,25.5c0,0.8-0.2,1.4-0.7,2s-1,0.8-1.7,0.8H9.1c-0.7,0-1.2-0.3-1.7-0.8s-0.7-1.2-0.7-2c0-0.8,0.1-1.5,0.2-2.2
	s0.3-1.3,0.5-1.9c0.3-0.6,0.6-1.1,1.1-1.4c0.5-0.4,1.1-0.5,1.8-0.5c0.1,0,0.3,0.2,0.6,0.3s0.5,0.3,0.7,0.4c0.2,0.1,0.4,0.2,0.7,0.3
	c0.3,0.1,0.5,0.2,0.8,0.3c0.3,0.1,0.5,0.1,0.8,0.1c0.3,0,0.5,0,0.8-0.1c0.3-0.1,0.5-0.1,0.8-0.3c0.3-0.1,0.5-0.2,0.7-0.3
	c0.2-0.1,0.4-0.2,0.7-0.4c0.3-0.2,0.5-0.3,0.6-0.3c0.7,0,1.3,0.2,1.8,0.5c0.5,0.4,0.9,0.8,1.1,1.4c0.3,0.6,0.4,1.2,0.5,1.9
	C20.8,24,20.9,24.7,20.9,25.5z M18,15.9c0,1.2-0.4,2.1-1.2,3c-0.8,0.8-1.8,1.2-3,1.2s-2.1-0.4-3-1.2s-1.2-1.8-1.2-3s0.4-2.1,1.2-3
	c0.8-0.8,1.8-1.2,3-1.2s2.1,0.4,3,1.2C17.6,13.8,18,14.8,18,15.9z M35.1,24.1v1.2c0,0.2-0.1,0.3-0.2,0.4c-0.1,0.1-0.3,0.2-0.4,0.2
	H23.9c-0.2,0-0.3-0.1-0.4-0.2c-0.1-0.1-0.2-0.3-0.2-0.4v-1.2c0-0.2,0.1-0.3,0.2-0.4c0.1-0.1,0.3-0.2,0.4-0.2h10.6
	c0.2,0,0.3,0.1,0.4,0.2C35,23.8,35.1,24,35.1,24.1z M35.1,19.5v1c0,0.2-0.1,0.3-0.2,0.5c-0.1,0.1-0.3,0.2-0.5,0.2H23.9
	c-0.2,0-0.3-0.1-0.5-0.2s-0.2-0.3-0.2-0.5v-1c0-0.2,0.1-0.3,0.2-0.5s0.3-0.2,0.5-0.2h10.5c0.2,0,0.3,0.1,0.5,0.2
	C35,19.1,35.1,19.3,35.1,19.5z M35.1,14.7v1.2c0,0.2-0.1,0.3-0.2,0.4c-0.1,0.1-0.3,0.2-0.4,0.2H23.9c-0.2,0-0.3-0.1-0.4-0.2
	c-0.1-0.1-0.2-0.3-0.2-0.4v-1.2c0-0.2,0.1-0.3,0.2-0.4c0.1-0.1,0.3-0.2,0.4-0.2h10.6c0.2,0,0.3,0.1,0.4,0.2S35.1,14.5,35.1,14.7z
	 M37.4,32.4V10c0-0.2-0.1-0.3-0.2-0.4c-0.1-0.1-0.3-0.2-0.4-0.2H5c-0.2,0-0.3,0.1-0.4,0.2C4.4,9.7,4.4,9.8,4.4,10v22.4
	c0,0.2,0.1,0.3,0.2,0.4C4.7,32.9,4.8,33,5,33h6.5v-1.8c0-0.2,0.1-0.3,0.2-0.4c0.1-0.1,0.3-0.2,0.4-0.2h1.2c0.2,0,0.3,0.1,0.4,0.2
	c0.1,0.1,0.2,0.3,0.2,0.4V33H28v-1.8c0-0.2,0.1-0.3,0.2-0.4c0.1-0.1,0.3-0.2,0.4-0.2h1.2c0.2,0,0.3,0.1,0.4,0.2
	c0.1,0.1,0.2,0.3,0.2,0.4V33h6.5c0.2,0,0.3-0.1,0.4-0.2C37.4,32.7,37.4,32.6,37.4,32.4z M39.8,10v22.4c0,0.8-0.3,1.5-0.9,2.1
	c-0.6,0.6-1.3,0.9-2.1,0.9H5c-0.8,0-1.5-0.3-2.1-0.9C2.3,33.9,2,33.2,2,32.4V10c0-0.8,0.3-1.5,0.9-2.1S4.1,7,5,7h31.9
	c0.8,0,1.5,0.3,2.1,0.9C39.5,8.4,39.8,9.1,39.8,10z"/>
</svg>
