<?xml version="1.0" encoding="utf-8"?>
<!-- Generator: Adobe Illustrator 23.0.1, SVG Export Plug-In . SVG Version: 6.00 Build 0)  -->
<svg version="1.1" id="Ebene_1" xmlns="http://www.w3.org/2000/svg" xmlns:xlink="http://www.w3.org/1999/xlink" x="0px" y="0px"
	 viewBox="0 0 42.52 42.52" style="enable-background:new 0 0 42.52 42.52;" xml:space="preserve">
<path d="M8.78,11.21c-0.55-1.65,0.36-3.45,2.01-3.99c1.65-0.55,3.45,0.36,3.99,2.01l6.65,20.29c-0.58-0.15-1.19-0.18-1.81-0.07
	L13.17,9.76C12.91,9,12.08,8.58,11.32,8.83c-0.77,0.25-1.18,1.08-0.93,1.85c0.15,0.44-0.09,0.92-0.54,1.07
	C9.4,11.9,8.92,11.66,8.78,11.21L8.78,11.21z M22.73,31.2l11.04-3.62c0.44-0.15,0.69-0.63,0.54-1.07c-0.15-0.44-0.63-0.69-1.07-0.54
	l0,0L21.89,29.7 M29.43,15.52l2.95,8.93c0.06,0.19-0.04,0.39-0.23,0.46l-9.28,3.06c-0.19,0.06-0.39-0.04-0.46-0.23l-2.95-8.93
	c-0.06-0.19,0.04-0.39,0.23-0.46l9.28-3.06C29.17,15.23,29.37,15.33,29.43,15.52L29.43,15.52z M26.28,14.36l-2.21-6.69
	c-0.05-0.14-0.2-0.22-0.34-0.17l-1.89,0.62l-0.01,0.02l-0.02-0.01l-1,0.33l0.82,2.49l-1.13,0.37l-0.82-2.49l-1,0.33l-0.01,0.02
	l-0.02-0.01l-1.88,0.62c-0.14,0.05-0.22,0.2-0.17,0.34l2.21,6.69c0.05,0.14,0.2,0.22,0.34,0.17l6.95-2.29
	C26.25,14.66,26.32,14.5,26.28,14.36L26.28,14.36z M26,13.05"/>
<circle cx="20.95" cy="32.03" r="3.27"/>
</svg>
