<?xml version="1.0" encoding="utf-8"?>
<!-- Generator: Adobe Illustrator 21.1.0, SVG Export Plug-In . SVG Version: 6.00 Build 0)  -->
<svg version="1.1" id="Ebene_1" xmlns="http://www.w3.org/2000/svg" xmlns:xlink="http://www.w3.org/1999/xlink" x="0px" y="0px"
	 viewBox="0 0 42.5 42.5" style="enable-background:new 0 0 42.5 42.5;" xml:space="preserve">
<path d="M35.6,21c0-2.6-0.7-5.1-2-7.3s-3.1-4-5.3-5.3s-4.7-2-7.3-2s-5.1,0.7-7.3,2s-4,3.1-5.3,5.3s-2,4.7-2,7.3s0.7,5.1,2,7.3
	s3.1,4,5.3,5.3s4.7,2,7.3,2s5.1-0.7,7.3-2s4-3.1,5.3-5.3S35.6,23.6,35.6,21z M38,21c0,3.1-0.8,5.9-2.3,8.5s-3.6,4.7-6.2,6.2
	S24.1,38,21,38s-5.9-0.8-8.5-2.3s-4.7-3.6-6.2-6.2S4,24.1,4,21s0.8-5.9,2.3-8.5s3.6-4.7,6.2-6.2S17.9,4,21,4s5.9,0.8,8.5,2.3
	s4.7,3.6,6.2,6.2S38,17.9,38,21z M20.7,21c0,1-0.2,1.8-0.6,2.4c-0.5,0.8-1.1,1.2-2,1.2s-1.6-0.4-2-1.2c-0.4-0.7-0.6-1.5-0.6-2.4
	c0-1,0.2-1.8,0.6-2.4c0.5-0.8,1.1-1.2,2-1.2s1.6,0.4,2,1.2C20.5,19.3,20.7,20.1,20.7,21z M19.2,21.1c0-0.5-0.1-1-0.2-1.4
	c-0.2-0.6-0.5-0.8-0.9-0.8s-0.8,0.3-1,0.8c-0.1,0.4-0.2,0.8-0.2,1.4c0,0.5,0.1,1,0.2,1.4c0.2,0.5,0.5,0.8,1,0.8
	C18.9,23.3,19.2,22.5,19.2,21.1z M24.9,20.6c0,0.4-0.1,0.8-0.3,1.1c-0.2,0.3-0.5,0.5-1,0.5s-0.7-0.2-1-0.5c-0.2-0.3-0.3-0.6-0.3-1.1
	c0-0.4,0.1-0.8,0.3-1.1c0.2-0.3,0.5-0.5,1-0.5s0.7,0.2,1,0.5C24.8,19.8,24.9,20.1,24.9,20.6z M24.1,20.6c0-0.5-0.1-0.7-0.4-0.7
	s-0.4,0.2-0.4,0.7s0.1,0.7,0.4,0.7C23.9,21.3,24.1,21.1,24.1,20.6z M27.1,19.1l-2.5,5.5h-1l2.5-5.5H27.1z M28.2,23.1
	c0,0.4-0.1,0.8-0.3,1.1c-0.2,0.3-0.5,0.5-1,0.5c-0.4,0-0.7-0.2-1-0.5c-0.2-0.3-0.3-0.6-0.3-1.1c0-0.4,0.1-0.8,0.3-1.1
	c0.2-0.3,0.5-0.5,1-0.5c0.4,0,0.7,0.2,1,0.5C28.1,22.3,28.2,22.6,28.2,23.1z M27.4,23.1c0-0.5-0.1-0.7-0.4-0.7s-0.4,0.2-0.4,0.7
	s0.1,0.7,0.4,0.7C27.2,23.8,27.4,23.6,27.4,23.1z"/>
</svg>
