<?xml version="1.0" encoding="utf-8"?>
<!-- Generator: Adobe Illustrator 21.1.0, SVG Export Plug-In . SVG Version: 6.00 Build 0)  -->
<svg version="1.1" id="Ebene_1" xmlns="http://www.w3.org/2000/svg" xmlns:xlink="http://www.w3.org/1999/xlink" x="0px" y="0px"
	 viewBox="0 0 42.5 42.5" style="enable-background:new 0 0 42.5 42.5;" xml:space="preserve">
<path d="M33.6,14.8 M33.6,14.8v-3.5c0-0.7-0.2-1.2-0.7-1.7s-1.1-0.7-1.7-0.7h-2.4V7c0-0.8-0.3-1.6-0.9-2.1C27.2,4.3,26.5,4,25.7,4
	h-1.2c-0.8,0-1.6,0.3-2.1,0.9c-0.6,0.6-0.9,1.3-0.9,2.1v1.8h-7.3V7c0-0.8-0.3-1.6-0.9-2.1C12.7,4.3,11.9,4,11.1,4H9.9
	C9.1,4,8.3,4.3,7.8,4.9C7.2,5.5,6.9,6.2,6.9,7v1.8H4.4c-0.7,0-1.2,0.2-1.7,0.7S2,10.6,2,11.3v24.3c0,0.7,0.2,1.2,0.7,1.7
	C3.2,37.8,3.8,38,4.4,38h26.7c0.7,0,1.2-0.2,1.7-0.7c0.5-0.5,0.7-1.1,0.7-1.7v-1.5 M13,34.1H5.8v-5.2H13V34.1z M13,27.9H5.8v-5.2H13
	V27.9z M13,21.6H5.8v-5.2H13V21.6z M21.3,34.1h-7.2v-5.2h7.2V34.1z M21.3,27.9h-7.2v-5.2h7.2V27.9z M21.3,21.6h-7.2v-5.2h7.2V21.6z
	 M11.4,20.5l-0.3,0.3c0,0-0.1,0.1-0.1,0.1c-0.1,0-0.1,0-0.2-0.1l-1.2-1.2l-1.2,1.2c0,0-0.1,0.1-0.2,0.1c-0.1,0-0.1,0-0.1-0.1
	l-0.3-0.3c0,0-0.1-0.1-0.1-0.1c0-0.1,0-0.1,0.1-0.2L9,18.9l-1.2-1.2c0,0-0.1-0.1-0.1-0.2c0-0.1,0-0.1,0.1-0.1l0.3-0.3
	c0,0,0.1-0.1,0.1-0.1c0.1,0,0.1,0,0.2,0.1l1.2,1.2l1.2-1.2c0,0,0.1-0.1,0.2-0.1c0.1,0,0.1,0,0.1,0.1l0.3,0.3c0,0,0.1,0.1,0.1,0.1
	c0,0.1,0,0.1-0.1,0.2l-1.2,1.2l1.2,1.2c0,0,0.1,0.1,0.1,0.2C11.5,20.4,11.5,20.4,11.4,20.5z M19.6,20.5l-0.3,0.3
	c0,0-0.1,0.1-0.1,0.1c-0.1,0-0.1,0-0.2-0.1l-1.2-1.2l-1.2,1.2c0,0-0.1,0.1-0.2,0.1c-0.1,0-0.1,0-0.1-0.1l-0.3-0.3
	c0,0-0.1-0.1-0.1-0.1c0-0.1,0-0.1,0.1-0.2l1.2-1.2l-1.2-1.2c0,0-0.1-0.1-0.1-0.2c0-0.1,0-0.1,0.1-0.1l0.3-0.3c0,0,0.1-0.1,0.1-0.1
	c0.1,0,0.1,0,0.2,0.1l1.2,1.2l1.2-1.2c0,0,0.1-0.1,0.2-0.1c0.1,0,0.1,0,0.1,0.1l0.3,0.3c0,0,0.1,0.1,0.1,0.1c0,0.1,0,0.1-0.1,0.2
	L18.4,19l1.2,1.2c0,0,0.1,0.1,0.1,0.2C19.6,20.4,19.6,20.5,19.6,20.5z M11.4,26.8l-0.3,0.3c0,0-0.1,0.1-0.1,0.1s-0.1,0-0.2-0.1
	l-1.2-1.2l-1.2,1.2c0,0-0.1,0.1-0.2,0.1s-0.1,0-0.1-0.1l-0.3-0.3c0,0-0.1-0.1-0.1-0.1c0-0.1,0-0.1,0.1-0.2L9,25.3L7.8,24
	c0,0-0.1-0.1-0.1-0.2c0-0.1,0-0.1,0.1-0.1l0.3-0.3c0,0,0.1-0.1,0.1-0.1s0.1,0,0.2,0.1l1.2,1.2l1.2-1.2c0,0,0.1-0.1,0.2-0.1
	s0.1,0,0.1,0.1l0.3,0.3c0,0,0.1,0.1,0.1,0.1c0,0.1,0,0.1-0.1,0.2l-1.2,1.2l1.2,1.2c0,0,0.1,0.1,0.1,0.2
	C11.5,26.7,11.5,26.7,11.4,26.8z M19.6,33.3l-0.3,0.3c0,0-0.1,0.1-0.1,0.1c-0.1,0-0.1,0-0.2-0.1l-1.2-1.2l-1.2,1.2
	c0,0-0.1,0.1-0.2,0.1c-0.1,0-0.1,0-0.1-0.1l-0.3-0.3c0,0-0.1-0.1-0.1-0.1s0-0.1,0.1-0.2l1.2-1.2l-1.2-1.2c0,0-0.1-0.1-0.1-0.2
	c0-0.1,0-0.1,0.1-0.1l0.3-0.3c0,0,0.1-0.1,0.1-0.1c0.1,0,0.1,0,0.2,0.1l1.2,1.2l1.2-1.2c0,0,0.1-0.1,0.2-0.1c0.1,0,0.1,0,0.1,0.1
	l0.3,0.3c0,0,0.1,0.1,0.1,0.1c0,0.1,0,0.1-0.1,0.2l-1.2,1.2l1.2,1.2c0,0,0.1,0.1,0.1,0.2S19.6,33.2,19.6,33.3z M9.3,7
	c0-0.2,0.1-0.3,0.2-0.4c0.1-0.1,0.3-0.2,0.4-0.2h1.2c0.2,0,0.3,0.1,0.4,0.2c0.1,0.1,0.2,0.3,0.2,0.4v5.5c0,0.2-0.1,0.3-0.2,0.4
	c-0.1,0.1-0.3,0.2-0.4,0.2H9.9c-0.2,0-0.3-0.1-0.4-0.2c-0.1-0.1-0.2-0.3-0.2-0.4V7z M23.9,7c0-0.2,0.1-0.3,0.2-0.4
	c0.1-0.1,0.3-0.2,0.4-0.2h1.2c0.2,0,0.3,0.1,0.4,0.2c0.1,0.1,0.2,0.3,0.2,0.4v5.5c0,0.2-0.1,0.3-0.2,0.4c-0.1,0.1-0.3,0.2-0.4,0.2
	h-1.2c-0.2,0-0.3-0.1-0.4-0.2c-0.1-0.1-0.2-0.3-0.2-0.4V7z M33.6,34.1h-7.4c-0.9,0-1.7-0.3-2.2-0.8c-0.3-0.3-0.5-0.6-0.6-0.9l0,0
	c-0.2-0.4-0.8-1.6-0.8-3.3c0-3.5,1.9-6.4,4.5-7.2c-0.2-0.6-0.4-1.2-0.4-1.9c0-3,2.4-5.4,5.4-5.4c0.5,0,1,0.1,1.4,0.2 M36.1,19.7
	c0,1.1-0.4,2-1.1,2.8c-0.8,0.8-1.7,1.1-2.8,1.1c-1.1,0-2-0.4-2.8-1.1c-0.8-0.8-1.1-1.7-1.1-2.8s0.4-2,1.1-2.8
	c0.8-0.8,1.7-1.1,2.8-1.1c1.1,0,2,0.4,2.8,1.1C35.7,17.7,36.1,18.7,36.1,19.7z M40.3,30.2c0,0.9-0.3,1.7-0.8,2.2
	c-0.6,0.5-1.3,0.8-2.2,0.8H27.1c-0.9,0-1.7-0.3-2.2-0.8c-0.6-0.5-0.8-1.3-0.8-2.2c0-0.4,0-0.8,0-1.2c0-0.4,0.1-0.8,0.2-1.3
	c0.1-0.5,0.2-0.9,0.3-1.3c0.1-0.4,0.3-0.8,0.5-1.1c0.2-0.4,0.4-0.7,0.7-0.9c0.3-0.3,0.6-0.5,1-0.6c0.4-0.2,0.8-0.2,1.3-0.2
	c0.1,0,0.2,0.1,0.5,0.2c0.3,0.2,0.5,0.4,0.8,0.6c0.3,0.2,0.7,0.4,1.2,0.6s1,0.2,1.6,0.2c0.5,0,1-0.1,1.6-0.2s0.9-0.4,1.2-0.6
	c0.3-0.2,0.6-0.4,0.8-0.6c0.3-0.2,0.4-0.2,0.5-0.2c0.5,0,0.9,0.1,1.3,0.2c0.4,0.2,0.7,0.4,1,0.6c0.3,0.3,0.5,0.6,0.7,0.9
	c0.2,0.4,0.4,0.7,0.5,1.1c0.1,0.4,0.2,0.8,0.3,1.3c0.1,0.5,0.1,0.9,0.2,1.3C40.3,29.4,40.3,29.8,40.3,30.2z"/>
</svg>
