<?xml version="1.0" encoding="utf-8"?>
<!-- Generator: Adobe Illustrator 21.1.0, SVG Export Plug-In . SVG Version: 6.00 Build 0)  -->
<svg version="1.1" id="Ebene_1" xmlns="http://www.w3.org/2000/svg" xmlns:xlink="http://www.w3.org/1999/xlink" x="0px" y="0px"
	 viewBox="0 0 42.5 42.5" style="enable-background:new 0 0 42.5 42.5;" xml:space="preserve">
<path id="tag_detache" d="M18.3,29.4l-6.1-6.1c-0.4-0.4-0.4-1,0-1.3l10.4-10.4L17.1,6c-0.6-0.6-1.3-1-2.3-1.4C13.9,4.2,13,4,12.2,4
	H2.9c-0.8,0-1.4,0.3-2,0.9S0,6.1,0,6.9v9.3c0,0.8,0.2,1.7,0.6,2.6c0.4,1,0.9,1.7,1.4,2.3l16,16c0.6,0.6,1.2,0.8,2,0.8
	c0.8,0,1.5-0.3,2-0.8l6.9-6.9h-9.6C19.2,30.2,18.5,29.6,18.3,29.4z M9.2,13.2C8.6,13.8,8,14,7.2,14c-0.8,0-1.5-0.3-2-0.8
	c-0.6-0.6-0.8-1.2-0.8-2c0-0.8,0.3-1.5,0.8-2c0.6-0.6,1.2-0.8,2-0.8c0.8,0,1.5,0.3,2,0.8c0.6,0.6,0.8,1.2,0.8,2
	C10,12,9.8,12.6,9.2,13.2z M41.7,27H30.1l12.2-12.2c0.3-0.3,0.3-0.8,0-1.1l-9.2-9.2c-0.2-0.2-0.4-0.2-0.6-0.2
	c-0.2,0-0.4,0.1-0.6,0.2L14.4,21.9c-0.3,0.3-0.3,0.8,0,1.1l5.3,5.3c0.2,0.2,0.4,0.2,0.6,0.2h21.4c0.4,0,0.8-0.4,0.8-0.8
	C42.5,27.3,42.2,27,41.7,27L41.7,27z M32.5,6.2l8.1,8.1l-4.1,4.1L31,23.8l-8.1-8.1L32.5,6.2z M27.8,27"/>
</svg>
