<?xml version="1.0" encoding="utf-8"?>
<!-- Generator: Adobe Illustrator 21.1.0, SVG Export Plug-In . SVG Version: 6.00 Build 0)  -->
<svg version="1.1" id="Ebene_1" xmlns="http://www.w3.org/2000/svg" xmlns:xlink="http://www.w3.org/1999/xlink" x="0px" y="0px"
	 viewBox="0 0 42.5 42.5" style="enable-background:new 0 0 42.5 42.5;" xml:space="preserve">
<path d="M34.1,12.2H13.9c-1.9,0-3.5-1-3.5-2.9c0-1.9,1.6-2.9,3.5-2.9h20.2c0.5,0,0.9-0.7,0.9-1.2C35,4.7,34.6,4,34.1,4H13.4
	C10.4,4,8,6.4,8,9.4v23.3c0,3,2.4,5.4,5.4,5.4h20.7c0.5,0,0.9-0.4,0.9-0.9V13.2C35,12.7,34.6,12.2,34.1,12.2L34.1,12.2z M13.6,8.2
	c-0.5,0-0.9,0.7-0.9,1.2c0,0.5,0.4,1.2,0.9,1.2h17.5c0.5,0,0.9-0.7,0.9-1.2c0-0.5-0.4-1.2-0.9-1.2H13.6z M29,28
	c0.6,0.2,0.7,0.7,0.4,1.3c-1.3,2.6-3.9,4.2-6.6,4.2c-2.9,0-5.5-1.9-6.7-4.6h-2.3c-0.6,0-0.9-0.4-0.9-0.9c0-0.6,0.4-0.9,0.9-0.9h1.7
	c-0.1-0.6-0.2-1.2-0.2-1.8c0-0.4,0.1-0.9,0.1-1.3h-1.6c-0.6,0-0.9-0.4-0.9-0.9c0-0.6,0.4-0.9,0.9-0.9h2c1.1-3,3.8-5.2,7-5.2
	c2.8,0,5.4,1.7,6.6,4.6c0.2,0.6,0,0.9-0.4,1.3c-0.6,0.2-0.9,0-1.3-0.4c-0.9-2.2-3-3.5-5-3.5c-2.1,0-3.9,1.2-4.9,3.1h4.4
	c0.6,0,0.9,0.4,0.9,0.9c0,0.6-0.4,0.9-0.9,0.9h-5c-0.1,0.5-0.2,1-0.2,1.5c0,0.6,0.1,1.1,0.2,1.7h5c0.6,0,0.9,0.4,0.9,0.9
	c0,0.6-0.4,0.9-0.9,0.9h-4.3c1,1.8,2.8,3,4.8,3c2,0,4.1-1.3,5-3.5C27.9,27.8,28.4,27.7,29,28L29,28z"/>
</svg>
