<?xml version="1.0" encoding="utf-8"?>
<!-- Generator: Adobe Illustrator 21.1.0, SVG Export Plug-In . SVG Version: 6.00 Build 0)  -->
<svg version="1.1" id="Ebene_1" xmlns="http://www.w3.org/2000/svg" xmlns:xlink="http://www.w3.org/1999/xlink" x="0px" y="0px"
	 viewBox="0 0 42.5 42.5" style="enable-background:new 0 0 42.5 42.5;" xml:space="preserve">
<path d="M11.7,7h14.2c0.2,0,0.3,0.1,0.5,0.2c0.1,0.1,0.2,0.3,0.2,0.5V25h3.9c0.5,0,0.9,0.2,1.2,0.7s0.2,1-0.2,1.4l-6.4,7.7
	c-0.2,0.3-0.6,0.4-1,0.4c-0.4,0-0.7-0.1-1-0.4l-6.4-7.7c-0.3-0.4-0.4-0.9-0.2-1.4c0.2-0.5,0.6-0.7,1.2-0.7h3.9V12.2h-6.4
	c-0.2,0-0.4-0.1-0.5-0.2l-3.2-3.9C11,7.9,11,7.7,11.1,7.4C11.2,7.1,11.4,7,11.7,7z"/>
</svg>
