<?xml version="1.0" encoding="UTF-8" standalone="no"?>
<!-- Generator: Adobe Illustrator 21.1.0, SVG Export Plug-In . SVG Version: 6.00 Build 0)  -->

<svg
   xmlns:dc="http://purl.org/dc/elements/1.1/"
   xmlns:cc="http://creativecommons.org/ns#"
   xmlns:rdf="http://www.w3.org/1999/02/22-rdf-syntax-ns#"
   xmlns:svg="http://www.w3.org/2000/svg"
   xmlns="http://www.w3.org/2000/svg"
   xmlns:sodipodi="http://sodipodi.sourceforge.net/DTD/sodipodi-0.dtd"
   xmlns:inkscape="http://www.inkscape.org/namespaces/inkscape"
   version="1.1"
   id="Ebene_1"
   x="0px"
   y="0px"
   viewBox="0 0 42.5 42.5"
   style="enable-background:new 0 0 42.5 42.5;"
   xml:space="preserve"
   sodipodi:docname="icon_ok_3.svg"
   inkscape:version="0.92.4 (5da689c313, 2019-01-14)"><metadata
   id="metadata3798"><rdf:RDF><cc:Work
       rdf:about=""><dc:format>image/svg+xml</dc:format><dc:type
         rdf:resource="http://purl.org/dc/dcmitype/StillImage" /><dc:title></dc:title></cc:Work></rdf:RDF></metadata><defs
   id="defs3796" /><sodipodi:namedview
   pagecolor="#ffffff"
   bordercolor="#666666"
   borderopacity="1"
   objecttolerance="10"
   gridtolerance="10"
   guidetolerance="10"
   inkscape:pageopacity="0"
   inkscape:pageshadow="2"
   inkscape:window-width="1680"
   inkscape:window-height="1013"
   id="namedview3794"
   showgrid="false"
   inkscape:zoom="34.872843"
   inkscape:cx="12.965945"
   inkscape:cy="20.160004"
   inkscape:window-x="1366"
   inkscape:window-y="0"
   inkscape:window-maximized="1"
   inkscape:current-layer="Ebene_1"
   inkscape:snap-grids="true"
   inkscape:snap-to-guides="true" />
<path
   stroke="white"
   fill="white"
   id="Icon_Zeiterfassung_7_"
   d="M32.7,21.2c0-2.1-0.5-4-1.6-5.8c-1-1.8-2.4-3.2-4.2-4.2c-1.8-1-3.7-1.6-5.8-1.6s-4,0.5-5.8,1.6  s-3.2,2.4-4.2,4.2s-1.6,3.7-1.6,5.8s0.5,4,1.6,5.8c1,1.8,2.4,3.2,4.2,4.2c1.8,1,3.7,1.6,5.8,1.6s4-0.5,5.8-1.6  c1.8-1,3.2-2.4,4.2-4.2C32.2,25.2,32.7,23.3,32.7,21.2z M35.3,21.2c0,2.6-0.6,4.9-1.9,7.1c-1.3,2.2-3,3.9-5.2,5.2  c-2.2,1.3-4.5,1.9-7.1,1.9s-4.9-0.6-7.1-1.9c-2.2-1.3-3.9-3-5.2-5.2S7,23.7,7,21.2s0.6-4.9,1.9-7.1s3-3.9,5.2-5.2S18.6,7,21.2,7  s4.9,0.6,7.1,1.9s3.9,3,5.2,5.2C34.7,16.2,35.3,18.6,35.3,21.2z"
   style="fill:#000000;stroke-width:0;stroke-miterlimit:4;stroke-dasharray:none" />
<path
   d="M 29.5,17.5 18.6,28.4 c -0.2,0.2 -0.5,0.3 -0.8,0.3 -0.3,0 -0.6,-0.1 -0.8,-0.3 L 11.6,23 c -0.2,-0.2 -0.3,-0.5 -0.3,-0.8 0,-0.3 0.1,-0.6 0.3,-0.8 l 0.8,-0.8 c 0.2,-0.2 0.5,-0.3 0.8,-0.3 0.3,0 0.6,0.1 0.8,0.3 l 3.8,3.8 9.3,-9.3 c 0.2,-0.2 0.5,-0.3 0.8,-0.3 0.3,0 0.6,0.1 0.8,0.3 l 0.8,0.8 c 0.2,0.2 0.3,0.5 0.3,0.8 0,0.3 -0.1,0.6 -0.3,0.8 z"
   id="path3791"
   style="fill:#000000;stroke:#ffffff;opacity:1;stroke-width:0;stroke-miterlimit:4;stroke-dasharray:none"
   inkscape:connector-curvature="0"
   sodipodi:nodetypes="sssssssssscssssss" />
<path
   style="fill:#000000;stroke-width:0.08110687"
   d="M 19.125,34.733024 C 15.316601,34.18476 11.924515,32.011554 9.7059841,28.698547 8.4848936,26.875052 7.8407638,25.030565 7.6098132,22.696094 7.1840093,18.392025 8.6563191,14.342595 11.713612,11.409035 15.007376,8.2485739 19.153341,6.98796 23.707538,7.7621855 c 2.619158,0.4452637 5.027722,1.7358137 7.10399,3.8064395 2.427171,2.420574 3.604583,4.987584 3.90241,8.50808 0.207931,2.457885 -0.258394,4.963279 -1.315663,7.068583 -1.961814,3.906492 -5.488072,6.640368 -9.633298,7.468607 -1.115102,0.222803 -3.495327,0.283914 -4.639977,0.119129 z m 3.924005,-1.552773 c 2.372256,-0.373317 4.848036,-1.656839 6.624563,-3.434379 1.698713,-1.699683 2.902817,-3.972643 3.375602,-6.372053 0.21831,-1.107934 0.19753,-3.450887 -0.04042,-4.557266 -0.653054,-3.036458 -2.549417,-5.925514 -4.92955,-7.510033 -1.457887,-0.970554 -3.022302,-1.6348773 -4.753614,-2.0186043 -1.187564,-0.2632106 -3.367194,-0.2620368 -4.596974,0.00248 -2.06698,0.4445854 -3.84698,1.3396983 -5.600806,2.8164913 -1.914217,1.611848 -3.3462315,4.098369 -3.9516633,6.861586 -0.212173,0.968368 -0.21091,3.63023 0.00218,4.603854 0.3370293,1.539881 0.9835263,3.038215 1.9266063,4.465142 0.630211,0.95354 1.887059,2.260007 2.796514,2.906917 1.165616,0.829122 2.914224,1.651039 4.268902,2.006562 1.417766,0.372079 3.384113,0.464502 4.878657,0.229308 z"
   id="path3804"
   inkscape:connector-curvature="0" /><path
   style="fill:#000000"
   d="M 19.294546,34.75972 C 15.727207,34.34612 12.201281,32.208974 9.9959125,29.123599 8.4181908,26.916321 7.6907838,24.755857 7.5581338,21.883181 7.3818079,18.064656 8.7003397,14.54371 11.33874,11.787624 c 2.155447,-2.2515892 4.781914,-3.6341086 7.826813,-4.1198775 1.031492,-0.1645593 3.384363,-0.1239307 4.501432,0.077729 2.720139,0.4910561 5.06028,1.7431397 7.144543,3.8226615 2.42075,2.415243 3.595862,4.96585 3.900869,8.466925 0.163938,1.881785 -0.106405,4.072335 -0.707332,5.73141 -0.52113,1.438765 -1.604137,3.243159 -2.696997,4.493457 -1.823464,2.08615 -4.653569,3.765023 -7.242317,4.296279 -1.417312,0.290858 -3.318423,0.371948 -4.771205,0.203512 z m 4.210225,-1.653273 c 2.530773,-0.553938 5.12212,-2.069676 6.701727,-3.919994 1.381694,-1.618487 2.362962,-3.591831 2.802138,-5.635139 0.257367,-1.197421 0.254081,-3.534487 -0.0067,-4.76001 -0.60807,-2.857698 -2.44092,-5.715419 -4.702459,-7.331937 C 26.934719,10.483856 24.83187,9.583219 23.13979,9.2495051 22.052157,9.0350009 19.853166,9.0552712 18.744738,9.2900185 c -2.548584,0.5397494 -4.995441,1.9741505 -6.761764,3.9638955 -1.421602,1.601419 -2.5591074,4.07651 -2.8803477,6.267329 -0.1596566,1.088838 -0.1187353,3.047237 0.084696,4.053332 0.4738759,2.343614 1.8531797,4.789198 3.6484027,6.468824 1.775474,1.661148 4.29206,2.834642 6.897577,3.216367 0.562805,0.08246 3.180463,-0.02396 3.771469,-0.153319 z"
   id="path3806"
   inkscape:connector-curvature="0" /></svg>