<?xml version="1.0" encoding="utf-8"?>
<!-- Generator: Adobe Illustrator 21.1.0, SVG Export Plug-In . SVG Version: 6.00 Build 0)  -->
<svg version="1.1" id="Ebene_1" xmlns="http://www.w3.org/2000/svg" xmlns:xlink="http://www.w3.org/1999/xlink" x="0px" y="0px"
	 viewBox="0 0 42.5 42.5" style="enable-background:new 0 0 42.5 42.5;" xml:space="preserve">
<path d="M14.1,33h14.2v-7.1H14.1V33z M30.6,33H33V16.4c0-0.2-0.1-0.4-0.2-0.7c-0.1-0.3-0.2-0.5-0.4-0.6l-5.2-5.2
	c-0.1-0.1-0.3-0.2-0.6-0.4c-0.3-0.1-0.5-0.2-0.7-0.2V17c0,0.5-0.2,0.9-0.5,1.3c-0.3,0.3-0.8,0.5-1.3,0.5H13.5
	c-0.5,0-0.9-0.2-1.3-0.5c-0.3-0.3-0.5-0.8-0.5-1.3V9.4H9.4V33h2.4v-7.7c0-0.5,0.2-0.9,0.5-1.3c0.3-0.3,0.8-0.5,1.3-0.5h15.4
	c0.5,0,0.9,0.2,1.3,0.5c0.3,0.3,0.5,0.8,0.5,1.3V33z M23.5,15.9V10c0-0.2-0.1-0.3-0.2-0.4c-0.1-0.1-0.3-0.2-0.4-0.2h-3.5
	c-0.2,0-0.3,0.1-0.4,0.2c-0.1,0.1-0.2,0.3-0.2,0.4v5.9c0,0.2,0.1,0.3,0.2,0.4c0.1,0.1,0.3,0.2,0.4,0.2h3.5c0.2,0,0.3-0.1,0.4-0.2
	C23.5,16.2,23.5,16,23.5,15.9z M35.3,16.4v17.1c0,0.5-0.2,0.9-0.5,1.3c-0.3,0.3-0.8,0.5-1.3,0.5H8.8c-0.5,0-0.9-0.2-1.3-0.5
	C7.2,34.5,7,34.1,7,33.6V8.8c0-0.5,0.2-0.9,0.5-1.3S8.3,7,8.8,7h17.1c0.5,0,1,0.1,1.6,0.4c0.6,0.2,1.1,0.5,1.4,0.9l5.2,5.2
	c0.3,0.3,0.6,0.8,0.9,1.4S35.3,16,35.3,16.4z"/>
</svg>
