<?xml version="1.0" encoding="utf-8"?>
<!-- Generator: Adobe Illustrator 21.1.0, SVG Export Plug-In . SVG Version: 6.00 Build 0)  -->
<svg version="1.1" id="Ebene_1" xmlns="http://www.w3.org/2000/svg" xmlns:xlink="http://www.w3.org/1999/xlink" x="0px" y="0px"
	 viewBox="0 0 42.5 42.5" style="enable-background:new 0 0 42.5 42.5;" xml:space="preserve">
<path d="M12.8,34.5c1-0.1,1.7-0.3,2.1-0.5c0.6-0.4,1.1-1.3,1.4-2.6l5.3-19c0.2-0.8,0.3-1.3,0.4-1.6c0.1-0.3,0.1-0.6,0.1-0.9
	c0-0.7-0.2-1.2-0.7-1.4c-0.4-0.3-1.2-0.4-2.4-0.5V7.2h10.7v0.7c-1.1,0.2-1.9,0.4-2.3,0.7C27,8.9,26.6,9.7,26.2,11l-5.3,19
	c-0.2,0.7-0.3,1.2-0.4,1.7c-0.1,0.4-0.1,0.8-0.1,1c0,0.7,0.2,1.2,0.7,1.4c0.5,0.2,1.2,0.4,2.2,0.4v0.7H12.8V34.5z"/>
</svg>
