<?xml version="1.0" encoding="utf-8"?>
<!-- Generator: Adobe Illustrator 21.1.0, SVG Export Plug-In . SVG Version: 6.00 Build 0)  -->
<svg version="1.1" id="Ebene_1" xmlns="http://www.w3.org/2000/svg" xmlns:xlink="http://www.w3.org/1999/xlink" x="0px" y="0px"
	 viewBox="0 0 42.5 42.5" style="enable-background:new 0 0 42.5 42.5;" xml:space="preserve">
<g>
	<path d="M30.4,16.4H12.3c-0.9,0-1.5-0.6-1.5-1.3s0.7-1.3,1.5-1.3h18.1c0.9,0,1.5,0.6,1.5,1.3S31.3,16.4,30.4,16.4z M31.9,21.6
		c0-0.7-0.7-1.3-1.5-1.3H12.3c-0.9,0-1.5,0.6-1.5,1.3s0.7,1.3,1.5,1.3h18.1C31.3,22.9,31.9,22.3,31.9,21.6z M35.1,31.7l-6.5-4
		c-0.2-0.1-0.4-0.2-0.7-0.2H12.4l-3.8,2.6h19l8.2,5.1c0.2,0.1,0.5,0.2,0.7,0.2c0.2,0,0.4,0,0.6-0.2c0.4-0.2,0.6-0.6,0.6-1.1V10.4
		l-2.6,1.7V31.7z M7.4,9.6h23.1L34.3,7H6.1C5.4,7,4.9,7.6,4.9,8.3v18.6l2.6-1.7V9.6z"/>
	<path d="M37.3,9.3L6.7,30c-0.6,0.4-1.3,0.2-1.7-0.4s-0.3-1.4,0.3-1.8L35.9,7.2c0.6-0.4,1.3-0.2,1.7,0.4C38,8.1,37.9,8.9,37.3,9.3z"
		/>
</g>
</svg>
