<?xml version="1.0" encoding="utf-8"?>
<!-- Generator: Adobe Illustrator 21.1.0, SVG Export Plug-In . SVG Version: 6.00 Build 0)  -->
<svg version="1.1" id="Ebene_1" xmlns="http://www.w3.org/2000/svg" xmlns:xlink="http://www.w3.org/1999/xlink" x="0px" y="0px"
	 viewBox="0 0 42.5 42.5" style="enable-background:new 0 0 42.5 42.5;" xml:space="preserve">
<path d="M34.6,11.2c0.4,0.4,0.7,0.8,0.9,1.4c0.3,0.6,0.4,1.2,0.4,1.7v21.9c0,0.5-0.2,0.9-0.5,1.3S34.5,38,34,38H8.5
	c-0.5,0-0.9-0.2-1.3-0.5s-0.5-0.8-0.5-1.3V5.8c0-0.5,0.2-0.9,0.5-1.3C7.6,4.2,8,4,8.5,4h17c0.5,0,1.1,0.1,1.7,0.4
	c0.6,0.3,1.1,0.6,1.4,0.9L34.6,11.2z M26.1,6.6v7.1h7.1c-0.1-0.4-0.3-0.6-0.4-0.8L26.9,7C26.8,6.8,26.5,6.7,26.1,6.6z M33.4,35.6
	V16.2h-7.9c-0.5,0-0.9-0.2-1.3-0.5s-0.5-0.8-0.5-1.3V6.4H9.1v29.2H33.4z"/>
<path d="M20,22.8c0-1-0.8-1.7-1.7-1.7c-1,0-1.7,0.8-1.7,1.7c0,1,0.8,1.7,1.7,1.7C19.2,24.5,20,23.8,20,22.8z M18.3,23.6
	c-0.4,0-0.8-0.3-0.8-0.8c0-0.4,0.3-0.8,0.8-0.8c0.4,0,0.8,0.3,0.8,0.8C19.1,23.3,18.7,23.6,18.3,23.6z M31.3,29.4l-1.6-4.8
	c-0.1-0.3-0.3-0.5-0.5-0.7c-0.2-0.2-0.5-0.3-0.8-0.3h-2.6c0-0.3,0-0.5,0-0.8c0-4.2-3.4-7.6-7.6-7.6c-4.2,0-7.6,3.4-7.6,7.6
	c0,4.2,3.4,7.6,7.6,7.6c0.3,0,0.6,0,0.9-0.1v2.2c0,0.3,0.1,0.6,0.4,0.9c0.2,0.2,0.5,0.4,0.9,0.4h9.6c0.3,0,0.6-0.1,0.9-0.4
	c0.2-0.2,0.4-0.5,0.4-0.9V30C31.4,29.8,31.4,29.6,31.3,29.4z M12.5,22.8c0-3.2,2.6-5.8,5.8-5.8c3.2,0,5.8,2.6,5.8,5.8
	c0,0.3,0,0.5-0.1,0.8h-1.8c-0.3,0-0.6,0.1-0.8,0.3c-0.2,0.2-0.4,0.4-0.5,0.7l-1.3,3.9c-0.4,0.1-0.9,0.2-1.4,0.2
	C15.1,28.6,12.5,26,12.5,22.8z M21.4,28.4l1-3.3c0-0.1,0.1-0.1,0.1-0.1c0.1,0,0.1-0.1,0.2-0.1H28c0.1,0,0.1,0,0.2,0.1c0,0,0,0,0,0
	c0,0,0,0,0,0c0.1,0,0.1,0.1,0.1,0.1l1.1,3.3H21.4z M29.7,32.3c0,0.1,0,0.1-0.1,0.2s-0.1,0.1-0.2,0.1h-8.3c-0.1,0-0.1,0-0.2-0.1
	c0,0-0.1-0.1-0.1-0.2v-2.2c0-0.1,0-0.1,0.1-0.2c0,0,0.1-0.1,0.2-0.1h8.3c0.1,0,0.1,0,0.2,0.1s0.1,0.1,0.1,0.2V32.3z"/>
</svg>
