<?xml version="1.0" encoding="utf-8"?>
<!-- Generator: Adobe Illustrator 21.1.0, SVG Export Plug-In . SVG Version: 6.00 Build 0)  -->
<svg version="1.1" id="Ebene_1" xmlns="http://www.w3.org/2000/svg" xmlns:xlink="http://www.w3.org/1999/xlink" x="0px" y="0px"
	 viewBox="0 0 42.5 42.5" style="enable-background:new 0 0 42.5 42.5;" xml:space="preserve">
<path d="M32,24.9c0.1,0.1,0.2,0.3,0.2,0.4v1.2c0,0.2-0.1,0.3-0.2,0.4c-0.1,0.1-0.3,0.2-0.4,0.2H18.2c-0.2,0-0.3-0.1-0.4-0.2
	c-0.1-0.1-0.2-0.3-0.2-0.4v-1.2c0-0.2,0.1-0.3,0.2-0.4c0.1-0.1,0.3-0.2,0.4-0.2h13.4C31.7,24.7,31.9,24.8,32,24.9z M31.6,29.6H18.2
	c-0.2,0-0.3,0.1-0.4,0.2c-0.1,0.1-0.2,0.3-0.2,0.4v1.2c0,0.2,0.1,0.3,0.2,0.4C17.9,32,18,32,18.2,32h13.4c0.2,0,0.3-0.1,0.4-0.2
	c0.1-0.1,0.2-0.3,0.2-0.4v-1.2c0-0.2-0.1-0.3-0.2-0.4C31.9,29.6,31.7,29.6,31.6,29.6z M25.5,18.8c0.1-0.2,0.2-0.3,0.2-0.5
	c0-0.3-0.2-0.6-0.5-0.7c-0.2-0.1-0.4-0.2-0.5-0.2c-0.3,0-0.7,0.2-0.8,0.6l0,0c-0.5,1.2-1.7,2-2.8,2c-0.9,0-1.7-0.4-2.3-1.1h2
	c0.2,0,0.5-0.1,0.7-0.3c0.2-0.2,0.3-0.4,0.3-0.7c0-0.2-0.1-0.5-0.3-0.7c-0.2-0.2-0.4-0.3-0.7-0.3h-2.8c0-0.2-0.1-0.4-0.1-0.7
	c0-0.2,0-0.4,0.1-0.6h2.8c0.2,0,0.5-0.1,0.7-0.3c0.2-0.2,0.3-0.4,0.3-0.7c0-0.2-0.1-0.5-0.3-0.7c-0.2-0.2-0.4-0.3-0.7-0.3h-2
	c0.6-0.8,1.4-1.2,2.4-1.2c1.1,0,2.2,0.7,2.8,2l0,0.1l0,0c0.2,0.2,0.5,0.4,0.8,0.4c0.1,0,0.2,0,0.4-0.1l0.1,0l0.1-0.1
	c0.2-0.2,0.4-0.5,0.4-0.8c0-0.1,0-0.2-0.1-0.4l0,0l0,0c-0.8-1.9-2.6-3.1-4.4-3.1c-2.1,0-3.8,1.3-4.6,3.2h-1c-0.2,0-0.5,0.1-0.7,0.3
	c-0.2,0.2-0.3,0.4-0.3,0.7c0,0.2,0.1,0.5,0.3,0.7c0.2,0.2,0.4,0.3,0.7,0.3H16c0,0.1,0,0.3,0,0.4c0,0.3,0,0.5,0.1,0.8h-0.6
	c-0.2,0-0.5,0.1-0.7,0.3c-0.2,0.2-0.3,0.4-0.3,0.7c0,0.2,0.1,0.5,0.3,0.7c0.2,0.2,0.4,0.3,0.7,0.3h1.2c0.9,1.7,2.5,2.9,4.4,2.9
	C22.9,21.6,24.6,20.5,25.5,18.8L25.5,18.8C25.4,18.9,25.4,18.8,25.5,18.8C25.4,18.8,25.5,18.8,25.5,18.8L25.5,18.8z"/>
<g>
	<path d="M39.1,12.7c-0.3-0.6-0.6-1.1-0.9-1.4l-5.9-5.9c-0.4-0.4-0.8-0.7-1.4-0.9C30.2,4.1,29.6,4,29.1,4h-17
		c-0.5,0-0.9,0.2-1.3,0.5c-0.4,0.4-0.5,0.8-0.5,1.3v9.7l2.4,2.4V6.4h14.6v7.9c0,0.5,0.2,0.9,0.5,1.3c0.4,0.4,0.8,0.5,1.3,0.5H37
		v19.4H12.7v-9.6l-2.4,2.4v7.8c0,0.5,0.2,0.9,0.5,1.3c0.4,0.4,0.8,0.5,1.3,0.5h25.5c0.5,0,0.9-0.2,1.3-0.5c0.4-0.4,0.5-0.8,0.5-1.3
		V14.3C39.5,13.8,39.3,13.3,39.1,12.7z M29.7,13.7V6.6c0.4,0.1,0.6,0.3,0.8,0.4l5.9,5.9c0.2,0.2,0.3,0.4,0.4,0.8H29.7z"/>
</g>
<path d="M13.4,21.2L8.2,16c-0.2-0.2-0.4-0.3-0.7-0.3c-0.3,0-0.5,0.1-0.7,0.3l-0.6,0.6c-0.2,0.2-0.3,0.4-0.3,0.7s0.1,0.5,0.3,0.7
	l2.3,2.3H2.9c-0.3,0-0.5,0.1-0.7,0.3C2.1,20.9,2,21.1,2,21.4v1c0,0.3,0.1,0.5,0.3,0.7c0.2,0.2,0.4,0.3,0.7,0.3h5.6l-2.3,2.3
	C6,26,5.9,26.2,5.9,26.5S6,27,6.2,27.2l0.6,0.6C7,28,7.2,28.1,7.5,28.1c0.3,0,0.5-0.1,0.7-0.3l5.2-5.2c0.2-0.2,0.3-0.4,0.3-0.7
	C13.7,21.6,13.6,21.4,13.4,21.2z"/>
</svg>
