<?xml version="1.0" encoding="utf-8"?>
<!-- Generator: Adobe Illustrator 21.1.0, SVG Export Plug-In . SVG Version: 6.00 Build 0)  -->
<svg version="1.1" id="Ebene_1" xmlns="http://www.w3.org/2000/svg" xmlns:xlink="http://www.w3.org/1999/xlink" x="0px" y="0px"
	 viewBox="0 0 42.5 42.5" style="enable-background:new 0 0 42.5 42.5;" xml:space="preserve">
<path d="M35.7,12.5c-1.5-2.6-3.6-4.7-6.2-6.2C26.9,4.8,24.1,4,21,4c-3.1,0-5.9,0.8-8.5,2.3c-2.6,1.5-4.7,3.6-6.2,6.2
	C4.8,15.1,4,17.9,4,21c0,3.1,0.8,5.9,2.3,8.5s3.6,4.7,6.2,6.2c2.6,1.5,5.5,2.3,8.5,2.3c3.1,0,5.9-0.8,8.5-2.3
	c2.6-1.5,4.7-3.6,6.2-6.2S38,24.1,38,21C38,17.9,37.2,15.1,35.7,12.5z M19.4,12.3c0-0.2,0.1-0.5,0.2-0.6c0.2-0.2,0.4-0.3,0.6-0.3
	h2.2c0.2,0,0.4,0.1,0.6,0.3c0.2,0.2,0.2,0.4,0.2,0.6v1.9c0,0.2-0.1,0.5-0.2,0.6s-0.4,0.3-0.6,0.3h-2.2c-0.2,0-0.4-0.1-0.6-0.3
	s-0.2-0.4-0.2-0.6V12.3z M26.2,29.7c0,0.2-0.1,0.5-0.2,0.6c-0.2,0.2-0.4,0.3-0.6,0.3h-8.7c-0.2,0-0.4-0.1-0.6-0.3
	c-0.2-0.2-0.2-0.4-0.2-0.6v-1.8c0-0.2,0.1-0.5,0.2-0.6c0.2-0.2,0.4-0.3,0.6-0.3h2.7v-5.5h-2.7c-0.2,0-0.4-0.1-0.6-0.3
	c-0.2-0.2-0.2-0.4-0.2-0.6v-1.8c0-0.2,0.1-0.5,0.2-0.6c0.2-0.2,0.4-0.3,0.6-0.3h5.8c0.2,0,0.4,0.1,0.6,0.3s0.2,0.4,0.2,0.6V27h2.1
	c0.2,0,0.4,0.1,0.6,0.3c0.2,0.2,0.2,0.4,0.2,0.6V29.7z"/>
</svg>
