<?xml version="1.0" encoding="utf-8"?>
<!-- Generator: Adobe Illustrator 21.1.0, SVG Export Plug-In . SVG Version: 6.00 Build 0)  -->
<svg version="1.1" id="Ebene_1" xmlns="http://www.w3.org/2000/svg" xmlns:xlink="http://www.w3.org/1999/xlink" x="0px" y="0px"
	 viewBox="0 0 42.5 42.5" style="enable-background:new 0 0 42.5 42.5;" xml:space="preserve">
<path d="M31.5,17.1h-0.7v-3.3c0,0,0,0,0-0.1c0-0.1,0-0.3-0.1-0.4l-5.5-6.2c0,0,0,0,0,0c0,0-0.1-0.1-0.1-0.1c0,0,0,0,0,0
	c0,0-0.1,0-0.1,0c0,0,0,0,0,0c0,0-0.1,0-0.1,0H11.4c-0.6,0-1.1,0.5-1.1,1.1v9H9.6c-0.9,0-1.6,0.7-1.6,1.6V27c0,0.9,0.7,1.6,1.6,1.6
	h0.7v5.7c0,0.6,0.5,1.1,1.1,1.1h18.3c0.6,0,1.1-0.5,1.1-1.1v-5.7h0.7c0.9,0,1.6-0.7,1.6-1.6v-8.3C33.1,17.8,32.4,17.1,31.5,17.1
	L31.5,17.1z M11.4,8.1h12.9v5.7c0,0.3,0.2,0.6,0.6,0.6h4.9v2.8H11.4V8.1z M29.7,33.9H11.4v-5.4h18.3V33.9z M27.8,26.3 M15.5,24.8
	h-1.8l-0.3,1.5H12l2-7.6h1.2l2,7.6h-1.4L15.5,24.8z M14,23.5h1.2l-0.6-2.7L14,23.5z M17.8,26.3v-7.6h2c0.7,0,1.2,0.2,1.5,0.5
	s0.5,0.9,0.5,1.5c0,0.4-0.1,0.7-0.2,1s-0.3,0.5-0.6,0.6c0.3,0.1,0.5,0.3,0.7,0.6c0.2,0.3,0.2,0.7,0.2,1.1c0,0.7-0.2,1.3-0.5,1.7
	c-0.3,0.4-0.8,0.6-1.5,0.6H17.8z M19.1,21.9h0.7c0.5,0,0.8-0.3,0.8-0.9c0-0.3-0.1-0.6-0.2-0.7S20,20,19.8,20h-0.7V21.9z M19.1,23v2
	h0.8c0.2,0,0.4-0.1,0.5-0.3s0.2-0.4,0.2-0.7c0-0.7-0.2-1-0.6-1H19.1z M27,23.5l0.6-4.8h1.3l-1.1,7.6h-1.3l-0.7-4.5L25,26.3h-1.3
	l-1.1-7.6h1.3l0.6,4.7l0.8-4.7h1.1L27,23.5z"/>
</svg>
