<?xml version="1.0" encoding="utf-8"?>
<!-- Generator: Adobe Illustrator 25.0.1, SVG Export Plug-In . SVG Version: 6.00 Build 0)  -->
<svg version="1.1" id="Ebene_1" xmlns="http://www.w3.org/2000/svg" xmlns:xlink="http://www.w3.org/1999/xlink" x="0px" y="0px"
	 viewBox="0 0 42.5 42.5" style="enable-background:new 0 0 42.5 42.5;" xml:space="preserve">
<g>
	<path d="M30.7,7.1c-2.7-1.9-5.9-3-9.4-3.1v9.9c1.3,0.1,2.6,0.5,3.6,1.2L30.7,7.1z"/>
	<path d="M27.7,18.5l9.4-3.1c-1.1-3.2-3.2-6-5.8-8l-5.8,8C26.4,16.2,27.2,17.3,27.7,18.5z"/>
	<path d="M27.8,22.9l9.4,3.1c0.5-1.6,0.7-3.2,0.7-5c0-1.7-0.3-3.4-0.7-5l-9.4,3.1c0.2,0.6,0.3,1.2,0.3,1.9
		C28.1,21.6,28,22.3,27.8,22.9z"/>
	<path d="M21.3,38c3.5-0.1,6.8-1.2,9.4-3.1l-5.8-8c-1,0.7-2.3,1.1-3.6,1.2V38z"/>
	<path d="M11.3,34.9c2.7,1.9,5.9,3,9.4,3.1v-9.9c-1.3-0.1-2.6-0.5-3.6-1.2L11.3,34.9z"/>
	<path d="M25.4,26.5l5.8,8c2.7-2,4.7-4.8,5.8-8l-9.4-3.1C27.2,24.7,26.4,25.8,25.4,26.5z"/>
	<path d="M14.4,23.5l-9.4,3.1c1.1,3.2,3.2,6,5.8,8l5.8-8C15.6,25.8,14.8,24.7,14.4,23.5z"/>
	<path d="M16.6,15.4l-5.8-8c-2.7,2-4.7,4.8-5.8,8l9.4,3.1C14.8,17.3,15.6,16.2,16.6,15.4z"/>
	<path d="M14.2,19.1L4.7,16C4.3,17.6,4,19.3,4,21c0,1.7,0.3,3.4,0.7,5l9.4-3.1c-0.2-0.6-0.3-1.2-0.3-1.9
		C13.9,20.3,14,19.7,14.2,19.1z"/>
	<path d="M13.7,8.4c2.1-1.2,4.3-1.9,6.8-1.9c0.1,0,0.2-0.1,0.2-0.2l0-2.1c0-0.1-0.1-0.2-0.2-0.2c-2.9,0.1-5.5,0.8-7.9,2.3
		c-0.4,0.2-0.8,0.5-1.2,0.8l1.4,2C13,8.8,13.3,8.6,13.7,8.4z"/>
</g>
</svg>
