<?xml version="1.0" encoding="utf-8"?>
<!-- Generator: Adobe Illustrator 21.1.0, SVG Export Plug-In . SVG Version: 6.00 Build 0)  -->
<svg version="1.1" id="Ebene_1" xmlns="http://www.w3.org/2000/svg" xmlns:xlink="http://www.w3.org/1999/xlink" x="0px" y="0px"
	 viewBox="0 0 42.5 42.5" style="enable-background:new 0 0 42.5 42.5;" xml:space="preserve">
<path d="M8.4,35.6h27.2V16.1H8.4V35.6z M15.7,12.5V7c0-0.2-0.1-0.3-0.2-0.4c-0.1-0.1-0.3-0.2-0.4-0.2h-1.2c-0.2,0-0.3,0.1-0.4,0.2
	S13.3,6.9,13.3,7v5.5c0,0.2,0.1,0.3,0.2,0.4s0.3,0.2,0.4,0.2h1.2c0.2,0,0.3-0.1,0.4-0.2C15.7,12.8,15.7,12.7,15.7,12.5z M30.3,12.5
	V7c0-0.2-0.1-0.3-0.2-0.4s-0.3-0.2-0.4-0.2h-1.2c-0.2,0-0.3,0.1-0.4,0.2S27.9,6.9,27.9,7v5.5c0,0.2,0.1,0.3,0.2,0.4s0.3,0.2,0.4,0.2
	h1.2c0.2,0,0.3-0.1,0.4-0.2S30.3,12.7,30.3,12.5z M37.6,11.3v24.3c0,0.7-0.2,1.2-0.7,1.7c-0.5,0.5-1.1,0.7-1.7,0.7H8.4
	c-0.7,0-1.2-0.2-1.7-0.7C6.2,36.8,6,36.2,6,35.6V11.3c0-0.7,0.2-1.2,0.7-1.7s1.1-0.7,1.7-0.7h2.4V7c0-0.8,0.3-1.6,0.9-2.1
	S13.1,4,13.9,4h1.2c0.8,0,1.6,0.3,2.1,0.9c0.6,0.6,0.9,1.3,0.9,2.1v1.8h7.3V7c0-0.8,0.3-1.6,0.9-2.1S27.6,4,28.5,4h1.2
	c0.8,0,1.6,0.3,2.1,0.9s0.9,1.3,0.9,2.1v1.8h2.4c0.7,0,1.2,0.2,1.7,0.7C37.3,10.1,37.6,10.6,37.6,11.3z"/>
<g>
	<path d="M26.8,32.1h-9.2v-2l4.3-4.5c1-1.2,1.6-2.1,1.6-2.8c0-0.6-0.1-1-0.4-1.3c-0.2-0.3-0.6-0.4-1.1-0.4c-0.5,0-0.8,0.2-1.1,0.6
		c-0.3,0.4-0.4,0.9-0.4,1.5h-3.1c0-0.8,0.2-1.6,0.6-2.2c0.4-0.7,1-1.2,1.7-1.6c0.7-0.4,1.5-0.6,2.4-0.6c1.4,0,2.5,0.3,3.3,1
		c0.8,0.7,1.2,1.6,1.2,2.8c0,0.5-0.1,1-0.3,1.5c-0.2,0.5-0.5,1-0.9,1.6c-0.4,0.5-1.1,1.3-2,2.2l-1.7,2h5.2V32.1z"/>
</g>
</svg>
