<?xml version="1.0" encoding="utf-8"?>
<!-- Generator: Adobe Illustrator 21.1.0, SVG Export Plug-In . SVG Version: 6.00 Build 0)  -->
<svg version="1.1" id="Ebene_1" xmlns="http://www.w3.org/2000/svg" xmlns:xlink="http://www.w3.org/1999/xlink" x="0px" y="0px"
	 viewBox="0 0 42.5 42.5" style="enable-background:new 0 0 42.5 42.5;" xml:space="preserve">
<path d="M35.6,21c0-2.6-0.7-5.1-2-7.3s-3.1-4-5.3-5.3s-4.7-2-7.3-2s-5.1,0.7-7.3,2s-4,3.1-5.3,5.3s-2,4.7-2,7.3s0.7,5.1,2,7.3
	s3.1,4,5.3,5.3s4.7,2,7.3,2s5.1-0.7,7.3-2s4-3.1,5.3-5.3S35.6,23.6,35.6,21z M38,21c0,3.1-0.8,5.9-2.3,8.5s-3.6,4.7-6.2,6.2
	S24.1,38,21,38s-5.9-0.8-8.5-2.3s-4.7-3.6-6.2-6.2S4,24.1,4,21s0.8-5.9,2.3-8.5s3.6-4.7,6.2-6.2S17.9,4,21,4s5.9,0.8,8.5,2.3
	s4.7,3.6,6.2,6.2S38,17.9,38,21z M20.8,14.3c-0.2,0-0.3,0.1-0.4,0.2l-8.8,8.8c-0.1,0.1-0.2,0.3-0.2,0.4s0.1,0.3,0.2,0.4l0.9,0.9
	c0.1,0.1,0.3,0.2,0.4,0.2s0.3-0.1,0.4-0.2l7.4-7.4l7.4,7.4c0.1,0.1,0.3,0.2,0.4,0.2c0.2,0,0.3-0.1,0.4-0.2l0.9-0.9
	c0.1-0.1,0.2-0.3,0.2-0.4s-0.1-0.3-0.2-0.4L21,14.5C21.1,14.4,20.9,14.3,20.8,14.3z"/>
</svg>
