<?xml version="1.0" encoding="utf-8"?>
<!-- Generator: Adobe Illustrator 21.1.0, SVG Export Plug-In . SVG Version: 6.00 Build 0)  -->
<svg version="1.1" id="Ebene_1" xmlns="http://www.w3.org/2000/svg" xmlns:xlink="http://www.w3.org/1999/xlink" x="0px" y="0px"
	 viewBox="0 0 42.5 42.5" style="enable-background:new 0 0 42.5 42.5;" xml:space="preserve">
<style type="text/css">
	.st0{fill:#16A086;}
</style>
<path id="hook_x5F_big" class="st0" d="M34.3,14.4L18.6,30c-0.2,0.2-0.5,0.3-0.8,0.3c-0.3,0-0.6-0.1-0.8-0.3l-8.8-8.7
	c-0.2-0.2-0.3-0.5-0.3-0.8c0-0.3,0.1-0.6,0.3-0.8l0.3-0.3c0.2-0.2,0.5-0.3,0.8-0.3s0.6,0.1,0.8,0.3l7.6,7.6l14.6-14.5
	c0.2-0.2,0.5-0.3,0.8-0.3s0.6,0.1,0.8,0.3l0.4,0.4c0.2,0.2,0.3,0.5,0.3,0.8S34.5,14.2,34.3,14.4z"/>
</svg>
