<?xml version="1.0" encoding="utf-8"?>
<!-- Generator: Adobe Illustrator 21.1.0, SVG Export Plug-In . SVG Version: 6.00 Build 0)  -->
<svg version="1.1" id="Ebene_1" xmlns="http://www.w3.org/2000/svg" xmlns:xlink="http://www.w3.org/1999/xlink" x="0px" y="0px"
	 viewBox="0 0 42.5 42.5" style="enable-background:new 0 0 42.5 42.5;" xml:space="preserve">
<path d="M36.5,21.4v8.2c0,0.2-0.1,0.3-0.2,0.5c-0.1,0.1-0.3,0.2-0.5,0.2H16.4v4.7c0,0.5-0.2,0.9-0.7,1.2c-0.5,0.2-1,0.2-1.4-0.2
	l-7.7-6.4c-0.3-0.2-0.4-0.6-0.4-1c0-0.4,0.1-0.7,0.4-1l7.7-6.4c0.4-0.3,0.9-0.4,1.4-0.2c0.5,0.2,0.7,0.6,0.7,1.2v4.5h16v-2.9
	c0-0.2,0.1-0.4,0.2-0.5l2.8-2.3c0.2-0.2,0.4-0.2,0.7-0.1C36.4,20.9,36.5,21.1,36.5,21.4z"/>
<path d="M6.1,20.8v-8.2c0-0.2,0.1-0.3,0.2-0.5C6.5,12,6.6,12,6.8,12h19.4V7.3c0-0.5,0.2-0.9,0.7-1.2c0.5-0.2,1-0.2,1.4,0.2l7.7,6.4
	c0.3,0.2,0.4,0.6,0.4,1c0,0.4-0.1,0.7-0.4,1l-7.7,6.4c-0.4,0.3-0.9,0.4-1.4,0.2c-0.5-0.2-0.7-0.6-0.7-1.2v-4.5h-16v2.9
	c0,0.2-0.1,0.4-0.2,0.5l-2.8,2.3c-0.2,0.2-0.4,0.2-0.7,0.1C6.3,21.3,6.1,21.1,6.1,20.8z"/>
</svg>
