<?xml version="1.0" encoding="utf-8"?>
<!-- Generator: Adobe Illustrator 21.1.0, SVG Export Plug-In . SVG Version: 6.00 Build 0)  -->
<svg version="1.1" id="Ebene_1" xmlns="http://www.w3.org/2000/svg" xmlns:xlink="http://www.w3.org/1999/xlink" x="0px" y="0px"
	 viewBox="0 0 42.5 42.5" style="enable-background:new 0 0 42.5 42.5;" xml:space="preserve">
<path d="M21.3,27.9v2.5c-1.2,0.6-2.5,0.9-3.8,0.9c-3.6,0-6.7-2.3-8.3-5.7H6.3c-0.7,0-1.1-0.5-1.1-1.1c0-0.7,0.5-1.1,1.1-1.1h2.1
	c-0.2-0.7-0.3-1.5-0.3-2.3c0-0.5,0.1-1.1,0.1-1.6h-2c-0.7,0-1.1-0.5-1.1-1.1c0-0.7,0.5-1.1,1.1-1.1h2.5c1.4-3.8,4.7-6.4,8.7-6.4
	c3.4,0,6.6,2,8.2,5.7c0.2,0.7,0,1.1-0.5,1.6c-0.7,0.2-1.1,0-1.6-0.5c-1.1-2.7-3.6-4.3-6.1-4.3c-2.6,0-4.8,1.5-6.1,3.9h5.4
	c0.7,0,1.1,0.5,1.1,1.1c0,0.7-0.5,1.1-1.1,1.1h-6.2c-0.1,0.6-0.2,1.2-0.2,1.8c0,0.7,0.1,1.4,0.3,2h6.1c0.7,0,1.1,0.5,1.1,1.1
	c0,0.7-0.5,1.1-1.1,1.1h-5.3c1.3,2.2,3.5,3.6,5.9,3.6C18.8,29.2,20.1,28.7,21.3,27.9z M24.3,33.6c-2.2,1.3-4.7,2-7.3,2
	c-2.6,0-5.1-0.7-7.3-2c-2.2-1.3-4-3.1-5.3-5.3c-1.3-2.2-2-4.7-2-7.3s0.7-5.1,2-7.3c1.3-2.2,3.1-4,5.3-5.3c2.2-1.3,4.7-2,7.3-2
	c2.6,0,5.1,0.7,7.3,2c2.2,1.3,4,3.1,5.3,5.3c0.1,0.1,0.1,0.3,0.2,0.4l1.8-1.7c-1.5-2.6-3.6-4.6-6.1-6.1C22.9,4.8,20.1,4,17,4
	c-3.1,0-5.9,0.8-8.5,2.3c-2.6,1.5-4.7,3.6-6.2,6.2C0.8,15.1,0,17.9,0,21c0,3.1,0.8,5.9,2.3,8.5s3.6,4.7,6.2,6.2
	c2.6,1.5,5.5,2.3,8.5,2.3c3.1,0,5.9-0.8,8.5-2.3c1.8-1.1,3.4-2.4,4.6-4l-1.7-1.8C27.4,31.4,26,32.6,24.3,33.6z M23.5,23.4L23.3,28
	l4.7,0.2L39.4,18l-4.4-4.9L23.5,23.4z M42.5,14.5c0-0.4-0.1-0.8-0.4-1.1l-2.3-2.6c-0.3-0.3-0.6-0.5-1.1-0.5c-0.4,0-0.8,0.1-1.1,0.4
	L36,12.1l4.4,4.9l1.6-1.4C42.3,15.3,42.5,15,42.5,14.5z M26.5,26.7l0.1-1.6L25,25l0-0.9l2-1.8l2.3,2.6l-2,1.8L26.5,26.7z M35,16
	l-6,5.4c-0.2,0.2-0.4,0.2-0.5,0c-0.2-0.2-0.1-0.4,0-0.5l6-5.4c0.2-0.2,0.4-0.2,0.5,0C35.2,15.6,35.2,15.8,35,16z"/>
</svg>
