<?xml version="1.0" encoding="utf-8"?>
<!-- Generator: Adobe Illustrator 21.1.0, SVG Export Plug-In . SVG Version: 6.00 Build 0)  -->
<svg version="1.1" id="Ebene_1" xmlns="http://www.w3.org/2000/svg" xmlns:xlink="http://www.w3.org/1999/xlink" x="0px" y="0px"
	 viewBox="0 0 42.5 42.5" style="enable-background:new 0 0 42.5 42.5;" xml:space="preserve">
<style type="text/css">
	.st0{fill:#1D1D1B;}
</style>
<path id="circle" d="M32.8,21.3c0-2.1-0.5-4-1.6-5.8c-1-1.8-2.4-3.2-4.2-4.2c-1.8-1-3.7-1.6-5.8-1.6s-4,0.5-5.8,1.6
	s-3.2,2.4-4.2,4.2s-1.6,3.7-1.6,5.8s0.5,4,1.6,5.8c1,1.8,2.4,3.2,4.2,4.2c1.8,1,3.7,1.6,5.8,1.6s4-0.5,5.8-1.6
	c1.8-1,3.2-2.4,4.2-4.2C32.3,25.3,32.8,23.4,32.8,21.3z M35.4,21.3c0,2.6-0.6,4.9-1.9,7.1c-1.3,2.2-3,3.9-5.2,5.2
	c-2.2,1.3-4.5,1.9-7.1,1.9s-4.9-0.6-7.1-1.9c-2.2-1.3-3.9-3-5.2-5.2s-1.9-4.5-1.9-7.1s0.6-4.9,1.9-7.1s3-3.9,5.2-5.2
	s4.5-1.9,7.1-1.9s4.9,0.6,7.1,1.9s3.9,3,5.2,5.2C34.8,16.3,35.4,18.7,35.4,21.3z"/>
<path class="st0" d="M26.8,27.3h-11c-0.3,0-0.6-0.3-0.6-0.6v-11c0-0.3,0.3-0.6,0.6-0.6h11c0.3,0,0.6,0.3,0.6,0.6v11
	C27.3,27.1,27.1,27.3,26.8,27.3z"/>
</svg>
