<?xml version="1.0" encoding="utf-8"?>
<!-- Generator: Adobe Illustrator 21.1.0, SVG Export Plug-In . SVG Version: 6.00 Build 0)  -->
<svg version="1.1" id="Ebene_1" xmlns="http://www.w3.org/2000/svg" xmlns:xlink="http://www.w3.org/1999/xlink" x="0px" y="0px"
	 viewBox="0 0 42.5 42.5" style="enable-background:new 0 0 42.5 42.5;" xml:space="preserve">
<path d="M19,15.5c-0.4-0.3-1-0.3-1.5-0.1c-0.9,0.4-1.8,0.6-2.7,0.7v-1.5c1.9-0.5,3.2-2.2,3.2-4.2c0-0.9-0.5-2.1-1.6-3.7
	c-0.8-1.1-1.6-2-1.9-2.4C14.4,4.1,14.1,4,13.8,4c0,0,0,0,0,0c-0.3,0-0.6,0.1-0.8,0.4c-0.3,0.4-1.1,1.3-1.9,2.4
	C10,8.3,9.5,9.5,9.5,10.4c0,2.1,1.4,3.8,3.4,4.2v1.5c-0.9-0.1-1.8-0.3-2.7-0.7c-0.5-0.2-1-0.2-1.5,0.1C8.3,15.8,8,16.3,8,16.8v18.8
	c0,1.3,1.1,2.4,2.4,2.4h6.9c1.3,0,2.4-1.1,2.4-2.4V16.8C19.7,16.3,19.4,15.8,19,15.5z M11.5,10.4c0-0.7,0.9-2.3,2.3-4
	c1.4,1.7,2.3,3.3,2.3,4c0,0.9-0.5,1.7-1.3,2.1v-1.2c0-0.5-0.4-1-1-1c-0.5,0-1,0.4-1,1v1.3C12,12.2,11.5,11.4,11.5,10.4z M17.7,35.6
	c0,0.2-0.2,0.4-0.4,0.4h-6.9c-0.2,0-0.4-0.2-0.4-0.4V17.5c1.2,0.5,2.5,0.7,3.8,0.7c0,0,0,0,0,0c0,0,0,0,0,0c1.3,0,2.6-0.2,3.8-0.7
	V35.6z M21.9,25.5c-0.1-0.1-0.2-0.3-0.2-0.4v-1.2c0-0.2,0.1-0.3,0.2-0.4s0.3-0.2,0.4-0.2h4.3V19c0-0.2,0.1-0.3,0.2-0.4
	s0.3-0.2,0.4-0.2h1.2c0.2,0,0.3,0.1,0.4,0.2S29,18.8,29,19v4.3h4.3c0.2,0,0.3,0.1,0.4,0.2s0.2,0.3,0.2,0.4v1.2
	c0,0.2-0.1,0.3-0.2,0.4s-0.3,0.2-0.4,0.2H29v4.3c0,0.2-0.1,0.3-0.2,0.4s-0.3,0.2-0.4,0.2h-1.2c-0.2,0-0.3-0.1-0.4-0.2
	s-0.2-0.3-0.2-0.4v-4.3h-4.3C22.1,25.7,22,25.6,21.9,25.5z"/>
</svg>
