<?xml version="1.0" encoding="utf-8"?>
<!-- Generator: Adobe Illustrator 21.1.0, SVG Export Plug-In . SVG Version: 6.00 Build 0)  -->
<svg version="1.1" id="Ebene_1" xmlns="http://www.w3.org/2000/svg" xmlns:xlink="http://www.w3.org/1999/xlink" x="0px" y="0px"
	 viewBox="0 0 42.5 42.5" style="enable-background:new 0 0 42.5 42.5;" xml:space="preserve">
<style type="text/css">
	.st0{clip-path:url(#SVGID_2_);}
</style>
<g>
	<g>
		<defs>
			<rect id="SVGID_1_" y="7" width="42.5" height="28.3"/>
		</defs>
		<clipPath id="SVGID_2_">
			<use xlink:href="#SVGID_1_"  style="overflow:visible;"/>
		</clipPath>
		<path class="st0" d="M42.4,31.3c0,0-0.1-0.1-0.2-0.1h-42c-0.1,0-0.1,0-0.2,0.1c0,0-0.1,0.1-0.1,0.2c0,0,0.6,3.9,5.6,3.9h31.3
			c4.9,0,5.6-3.9,5.6-3.9C42.5,31.4,42.5,31.4,42.4,31.3L42.4,31.3z M24.4,34h-6.3v-1.5h6.3V34z M24.4,33.5"/>
	</g>
	<path d="M4.6,29.2h33.3c0.5,0,0.9-0.4,0.9-0.9V7.9c0-0.5-0.4-0.9-0.9-0.9H4.6C4.1,7,3.7,7.4,3.7,7.9v20.5
		C3.7,28.8,4.1,29.2,4.6,29.2L4.6,29.2z M5.9,9.6h30.7v17H5.9V9.6z M6.8,10.1"/>
</g>
</svg>
