<?xml version="1.0" encoding="utf-8"?>
<!-- Generator: Adobe Illustrator 21.1.0, SVG Export Plug-In . SVG Version: 6.00 Build 0)  -->
<svg version="1.1" id="Ebene_1" xmlns="http://www.w3.org/2000/svg" xmlns:xlink="http://www.w3.org/1999/xlink" x="0px" y="0px"
	 viewBox="0 0 42.5 42.5" style="enable-background:new 0 0 42.5 42.5;" xml:space="preserve">
<g>
	<path d="M1,33.3v-5.1c5.3,0,8-2.6,10.6-5.2c0.6-0.6,1.3-1.3,1.9-1.8c-0.7-0.6-1.3-1.2-1.9-1.8C9,16.7,6.3,14.1,1,14.1V9
		c7.4,0,11.3,3.9,14.2,6.7c1.7,1.7,2.8,2.7,3.9,2.9c0.1,0,0.3,0,0.4,0v0.1h12.2l-2.1-5.3c-0.1-0.2,0-0.4,0.1-0.5
		c0.2-0.1,0.4-0.1,0.5,0l10.4,8c0.1,0.1,0.2,0.2,0.2,0.3c0,0.1-0.1,0.3-0.2,0.3l-10.4,8c-0.1,0.1-0.2,0.1-0.3,0.1
		c-0.1,0-0.2,0-0.3-0.1c-0.2-0.1-0.2-0.3-0.1-0.5l2.1-5.3H19.5c0,0,0,0,0,0c-0.1,0-0.3,0-0.4,0c-1.2,0.2-2.2,1.2-3.9,2.9
		C12.3,29.4,8.4,33.3,1,33.3L1,33.3z M1,33.3"/>
</g>
</svg>
