<?xml version="1.0" encoding="utf-8"?>
<!-- Generator: Adobe Illustrator 21.1.0, SVG Export Plug-In . SVG Version: 6.00 Build 0)  -->
<svg version="1.1" id="Ebene_1" xmlns="http://www.w3.org/2000/svg" xmlns:xlink="http://www.w3.org/1999/xlink" x="0px" y="0px"
	 viewBox="0 0 42.5 42.5" style="enable-background:new 0 0 42.5 42.5;" xml:space="preserve">
<path d="M28.3,9.8C27.8,6.5,24.7,4,21,4c-4.1,0-7.4,3-7.4,6.8c0,1,0.9,1.9,2,1.9c1.1,0,2-0.8,2-1.9c0-1.7,1.5-3.1,3.4-3.1
	c1.9,0,3.4,1.4,3.4,3.1c0,2.6-7,3.6-7,3.6l0,0c-2,0.3-3.5,2-3.5,3.9V34c0,2.2,1.9,4,4.3,4h6c2.2,0,4-1.6,4.2-3.5l0,0v-0.1
	c0-0.1,0-0.2,0-0.4V18.3c0-0.1,0-0.2,0-0.4v-6.8c0-0.1,0-0.2,0-0.4c0-0.2,0-0.5,0-0.7L28.3,9.8C28.4,9.8,28.4,9.8,28.3,9.8L28.3,9.8
	z M27.7,27.5"/>
</svg>
