<?xml version="1.0" encoding="utf-8"?>
<!-- Generator: Adobe Illustrator 21.1.0, SVG Export Plug-In . SVG Version: 6.00 Build 0)  -->
<svg version="1.1" id="Ebene_1" xmlns="http://www.w3.org/2000/svg" xmlns:xlink="http://www.w3.org/1999/xlink" x="0px" y="0px"
	 viewBox="0 0 42.5 42.5" style="enable-background:new 0 0 42.5 42.5;" xml:space="preserve">
<path d="M38,21c0,3.1-0.8,5.9-2.3,8.5c-1.5,2.6-3.6,4.7-6.2,6.2C26.9,37.2,24.1,38,21,38c-3.1,0-5.9-0.8-8.5-2.3
	c-2.6-1.5-4.7-3.6-6.2-6.2S4,24.1,4,21c0-3.1,0.8-5.9,2.3-8.5s3.6-4.7,6.2-6.2S17.9,4,21,4c3.1,0,5.9,0.8,8.5,2.3s4.7,3.6,6.2,6.2
	C37.2,15.1,38,17.9,38,21z M22.6,11.5c-0.2-0.2-0.3-0.2-0.6-0.2h-1.6c-0.2,0-0.4,0.1-0.6,0.2c-0.2,0.2-0.2,0.3-0.2,0.6V21H14
	c-0.2,0-0.4,0.1-0.6,0.2c-0.2,0.2-0.2,0.3-0.2,0.6v1.6c0,0.2,0.1,0.4,0.2,0.6c0.2,0.2,0.3,0.2,0.6,0.2H22c0.2,0,0.4-0.1,0.6-0.2
	s0.2-0.3,0.2-0.6V12.1C22.9,11.9,22.8,11.7,22.6,11.5z"/>
</svg>
