<?xml version="1.0" encoding="utf-8"?>
<!-- Generator: Adobe Illustrator 21.1.0, SVG Export Plug-In . SVG Version: 6.00 Build 0)  -->
<svg version="1.1" id="Ebene_1" xmlns="http://www.w3.org/2000/svg" xmlns:xlink="http://www.w3.org/1999/xlink" x="0px" y="0px"
	 viewBox="0 0 42.5 42.5" style="enable-background:new 0 0 42.5 42.5;" xml:space="preserve">
<path d="M42.5,33V14.3c0-0.5-0.1-1.1-0.4-1.7c-0.3-0.6-0.6-1.1-0.9-1.4l-5.9-5.9c-0.4-0.4-0.8-0.7-1.4-0.9C33.3,4.1,32.7,4,32.2,4
	h-17c-0.5,0-0.9,0.2-1.3,0.5c-0.4,0.4-0.5,0.8-0.5,1.3v11.8h2.4V6.4h14.6v7.9c0,0.5,0.2,0.9,0.5,1.3c0.4,0.4,0.8,0.5,1.3,0.5h7.9V33
	H42.5z M32.8,13.7V6.5c0.4,0.1,0.6,0.3,0.8,0.4l5.9,5.9c0.2,0.2,0.3,0.4,0.4,0.8H32.8z M13.4,33.6h2.4v1.9h24.3V33h2.4v3.1
	c0,0.5-0.2,0.9-0.5,1.3S41.2,38,40.7,38H15.2c-0.5,0-0.9-0.2-1.3-0.5s-0.5-0.8-0.5-1.3V33.6z M11.3,31.1c0.2,0.2,0.3,0.4,0.3,0.7
	c0,0.3-0.1,0.5-0.3,0.7l-5.2,5.2C5.9,37.9,5.7,38,5.4,38c-0.3,0-0.5-0.1-0.7-0.3l-0.6-0.6c-0.2-0.2-0.3-0.4-0.3-0.7
	c0-0.3,0.1-0.5,0.3-0.7l2.3-2.3H0.9c-0.3,0-0.5-0.1-0.7-0.3C0.1,32.8,0,32.6,0,32.3v-1c0-0.3,0.1-0.5,0.3-0.7
	c0.2-0.2,0.4-0.3,0.7-0.3h5.5l-2.3-2.3c-0.2-0.2-0.3-0.4-0.3-0.7c0-0.3,0.1-0.5,0.3-0.7l0.6-0.6c0.2-0.2,0.4-0.3,0.7-0.3
	c0.3,0,0.5,0.1,0.7,0.3L11.3,31.1z M25.5,31.6c0,0,0-0.1,0.1-0.1c0,0,0,0,0,0c0-0.1,0.1-0.2,0.1-0.2c-0.2,0.1-0.3,0.2-0.4,0.4
	c-0.5,0.7-1.6,0.1-1.1-0.6c0.3-0.4,0.6-0.9,0.9-1.4c-1.2,1.2-2.3,2.5-3.3,3.9c-0.5,0.6-1.6,0-1.1-0.6c1.2-1.5,2.4-3.1,3.8-4.4
	c0.6-0.5,1.3-1.4,2.1-1.4c0.2,0,0.5,0.1,0.6,0.3c0.3,0.7,0,1.5-0.4,2.3c0.2,0,0.3,0.1,0.4,0.3c0,0.1,0.1,0.1,0.1,0.2
	c0.4-0.1,0.8,0.1,1.1,0.6c0.1,0.2,0.1,0.3,0.1,0.4c1.6-0.3,3,0.1,4.6,0.1c0.8,0,0.8,1.3,0,1.3c-1.4,0-3.2-0.7-4.5-0.1
	c-0.2,0.1-0.5,0.3-0.8,0.2C27.4,32.5,27,32.3,27,32c0-0.1,0-0.3,0-0.4c-0.1,0.2-0.2,0.3-0.3,0.4C26.3,32.6,25.2,32.3,25.5,31.6z
	 M35.2,19.4c0,0.2-0.1,0.3-0.2,0.4c-0.1,0.1-0.3,0.2-0.4,0.2H21.3c-0.2,0-0.3-0.1-0.4-0.2c-0.1-0.1-0.2-0.3-0.2-0.4v-1.2
	c0-0.2,0.1-0.3,0.2-0.4c0.1-0.1,0.3-0.2,0.4-0.2h13.4c0.2,0,0.3,0.1,0.4,0.2c0.1,0.1,0.2,0.3,0.2,0.4V19.4z M34.6,24.8H21.3
	c-0.2,0-0.3-0.1-0.4-0.2c-0.1-0.1-0.2-0.3-0.2-0.4V23c0-0.2,0.1-0.3,0.2-0.4c0.1-0.1,0.3-0.2,0.4-0.2h13.4c0.2,0,0.3,0.1,0.4,0.2
	c0.1,0.1,0.2,0.3,0.2,0.4v1.2c0,0.2-0.1,0.3-0.2,0.4C34.9,24.8,34.8,24.8,34.6,24.8z M19,25.7l0.2,4.7l-4.7,0.2L3.2,20.4l4.4-4.9
	L19,25.7z M0,16.9c0-0.4,0.1-0.8,0.4-1.1l2.3-2.6c0.3-0.3,0.6-0.5,1.1-0.5c0.4,0,0.8,0.1,1.1,0.4l1.6,1.4l-4.4,4.9L0.5,18
	C0.2,17.7,0,17.3,0,16.9z M16.1,29L16,27.5l1.6-0.1l0-0.9l-2-1.8l-2.3,2.6l2,1.8L16.1,29z M7.5,18.3l6,5.4c0.2,0.2,0.4,0.2,0.5,0
	c0.2-0.2,0.1-0.4,0-0.5l-6-5.4c-0.2-0.2-0.4-0.2-0.5,0S7.3,18.2,7.5,18.3z"/>
</svg>
