<?xml version="1.0" encoding="utf-8"?>
<!-- Generator: Adobe Illustrator 21.1.0, SVG Export Plug-In . SVG Version: 6.00 Build 0)  -->
<svg version="1.1" id="Ebene_1" xmlns="http://www.w3.org/2000/svg" xmlns:xlink="http://www.w3.org/1999/xlink" x="0px" y="0px"
	 viewBox="0 0 42.5 42.5" style="enable-background:new 0 0 42.5 42.5;" xml:space="preserve">
<path d="M38,21c0,3.1-0.8,5.9-2.3,8.5s-3.6,4.7-6.2,6.2C26.9,37.2,24.1,38,21,38c-3.1,0-5.9-0.8-8.5-2.3c-2.6-1.5-4.7-3.6-6.2-6.2
	S4,24.1,4,21c0-3.1,0.8-5.9,2.3-8.5c1.5-2.6,3.6-4.7,6.2-6.2C15,4.8,17.7,4.1,20.6,4v2.4c-2.5,0.1-4.8,0.7-6.9,1.9
	c-2.2,1.3-4,3.1-5.3,5.3c-1.3,2.2-2,4.7-2,7.3s0.7,5.1,2,7.3c1.3,2.2,3.1,4,5.3,5.3c2.2,1.3,4.7,2,7.3,2c2.6,0,5.1-0.7,7.3-2
	c2.2-1.3,4-3.1,5.3-5.3c1.3-2.2,2-4.7,2-7.3s-0.7-5.1-2-7.3c-0.9-1.6-2.1-3-3.6-4.1l1.4-2c1.7,1.3,3.1,2.9,4.2,4.9
	C37.2,15.1,38,17.9,38,21z M22.3,4c-0.3,0-0.6,0-1,0v4.5c0.4,0,0.8,0,1.3,0.1c0,0,0,0,0,0c0,0,0.1,0,0.1,0C23.9,8.7,24.9,9,26,9.5
	c0.5,0.2,1,0.5,1.5,0.7c0,0,0,0,0,0c0.1,0.1,0.2,0.1,0.3,0.2c0,0,0,0,0,0c0,0,0.1,0,0.1,0.1c0,0,0.1,0.1,0.1,0.1c0,0,0,0,0.1,0
	c0,0,0.1,0,0.1,0.1l2.6-3.6c-0.4-0.3-0.8-0.5-1.2-0.8C29,6,28.4,5.7,27.8,5.4c0,0,0,0,0,0c-0.1,0-0.1-0.1-0.2-0.1c0,0-0.1,0-0.1,0
	c0,0-0.1,0-0.1-0.1c-0.1,0-0.1,0-0.2-0.1c0,0,0,0,0,0c-1.5-0.6-3.1-0.9-4.7-1.1C22.4,4.1,22.4,4,22.3,4C22.3,4,22.3,4,22.3,4z
	 M15.6,17.6h-1l-1.9,1.2l0.6,1.1l0.9-0.5v5.2h1.4V17.6z M21.3,18.6c-0.5-0.8-1.1-1.2-2-1.2c-0.9,0-1.6,0.4-2,1.2
	c-0.4,0.7-0.6,1.5-0.6,2.4c0,1,0.2,1.8,0.6,2.4c0.5,0.8,1.1,1.2,2,1.2c0.9,0,1.6-0.4,2-1.2c0.4-0.7,0.6-1.5,0.6-2.4
	C21.8,20.1,21.7,19.3,21.3,18.6z M19.3,23.3c-0.4,0-0.8-0.3-1-0.8c-0.1-0.4-0.2-0.8-0.2-1.4c0-0.6,0.1-1,0.2-1.4
	c0.2-0.5,0.5-0.8,1-0.8c0.4,0,0.8,0.3,0.9,0.8c0.1,0.4,0.2,0.8,0.2,1.4C20.4,22.5,20,23.3,19.3,23.3z M25.8,19.5
	c-0.2-0.3-0.5-0.5-1-0.5s-0.7,0.2-1,0.5c-0.2,0.3-0.3,0.6-0.3,1.1c0,0.4,0.1,0.8,0.3,1.1c0.2,0.3,0.5,0.5,1,0.5s0.7-0.2,1-0.5
	c0.2-0.3,0.3-0.6,0.3-1.1C26.1,20.1,26,19.8,25.8,19.5z M24.8,21.3c-0.3,0-0.4-0.2-0.4-0.7c0-0.5,0.1-0.7,0.4-0.7
	c0.3,0,0.4,0.2,0.4,0.7C25.2,21.1,25.1,21.3,24.8,21.3z M27.2,19.1l-2.5,5.5h1l2.5-5.5H27.2z M29.1,22c-0.2-0.3-0.5-0.5-1-0.5
	c-0.4,0-0.7,0.2-1,0.5c-0.2,0.3-0.3,0.6-0.3,1.1c0,0.4,0.1,0.8,0.3,1.1c0.2,0.3,0.5,0.5,1,0.5c0.4,0,0.7-0.2,1-0.5
	c0.2-0.3,0.3-0.6,0.3-1.1C29.4,22.6,29.3,22.3,29.1,22z M28.1,23.8c-0.3,0-0.4-0.2-0.4-0.7c0-0.5,0.1-0.7,0.4-0.7
	c0.3,0,0.4,0.2,0.4,0.7C28.5,23.6,28.4,23.8,28.1,23.8z"/>
</svg>
