<?xml version="1.0" encoding="utf-8"?>
<!-- Generator: Adobe Illustrator 21.1.0, SVG Export Plug-In . SVG Version: 6.00 Build 0)  -->
<svg version="1.1" id="Ebene_1" xmlns="http://www.w3.org/2000/svg" xmlns:xlink="http://www.w3.org/1999/xlink" x="0px" y="0px"
	 viewBox="0 0 42.5 42.5" style="enable-background:new 0 0 42.5 42.5;" xml:space="preserve">
<path d="M39.8,10v22.4c0,0.8-0.3,1.5-0.9,2.1s-1.3,0.9-2.1,0.9h-6.5v-4.2c0-0.2-0.1-0.3-0.2-0.4s-0.3-0.2-0.4-0.2h-1.2
	c-0.2,0-0.3,0.1-0.4,0.2C28,30.8,28,31,28,31.2v4.2H13.8v-4.2c0-0.2-0.1-0.3-0.2-0.4s-0.3-0.2-0.4-0.2h-1.2c-0.2,0-0.3,0.1-0.4,0.2
	s-0.2,0.3-0.2,0.4v4.2H5c-0.8,0-1.5-0.3-2.1-0.9S2,33.2,2,32.4V10c0-0.8,0.3-1.5,0.9-2.1S4.1,7,5,7h31.9c0.8,0,1.5,0.3,2.1,0.9
	S39.8,9.1,39.8,10z M20.7,23.3c-0.1-0.7-0.3-1.3-0.5-1.9c-0.3-0.6-0.6-1.1-1.1-1.4s-1.1-0.5-1.8-0.5c-0.1,0-0.3,0.2-0.6,0.3
	c-0.3,0.2-0.5,0.3-0.7,0.4c-0.2,0.1-0.4,0.2-0.7,0.3c-0.3,0.1-0.5,0.2-0.8,0.3c-0.3,0.1-0.5,0.1-0.8,0.1c-0.3,0-0.5,0-0.8-0.1
	c-0.3-0.1-0.5-0.1-0.8-0.3c-0.3-0.1-0.5-0.2-0.7-0.3c-0.2-0.1-0.4-0.2-0.7-0.4s-0.5-0.3-0.6-0.3c-0.7,0-1.3,0.2-1.8,0.5
	c-0.5,0.4-0.9,0.8-1.1,1.4C7.2,22,7,22.6,6.9,23.3c-0.1,0.7-0.2,1.4-0.2,2.2c0,0.8,0.2,1.4,0.7,2s1,0.8,1.7,0.8h9.4
	c0.7,0,1.2-0.3,1.7-0.8s0.7-1.2,0.7-2C20.9,24.6,20.8,23.9,20.7,23.3z M16.8,12.9c-0.8-0.8-1.8-1.2-3-1.2s-2.1,0.4-3,1.2
	c-0.8,0.8-1.2,1.8-1.2,3s0.4,2.1,1.2,3s1.8,1.2,3,1.2s2.1-0.4,3-1.2c0.8-0.8,1.2-1.8,1.2-3S17.6,13.7,16.8,12.9z M34.9,23.6
	c-0.1-0.1-0.3-0.2-0.4-0.2H23.9c-0.2,0-0.3,0.1-0.4,0.2c-0.1,0.1-0.2,0.3-0.2,0.4v1.2c0,0.2,0.1,0.3,0.2,0.4
	c0.1,0.1,0.3,0.2,0.4,0.2h10.6c0.2,0,0.3-0.1,0.4-0.2c0.1-0.1,0.2-0.3,0.2-0.4V24C35.1,23.9,35,23.7,34.9,23.6z M34.9,18.9
	c-0.1-0.1-0.3-0.2-0.5-0.2H23.9c-0.2,0-0.3,0.1-0.5,0.2s-0.2,0.3-0.2,0.5v1c0,0.2,0.1,0.3,0.2,0.5s0.3,0.2,0.5,0.2h10.5
	c0.2,0,0.3-0.1,0.5-0.2c0.1-0.1,0.2-0.3,0.2-0.5v-1C35.1,19.2,35,19,34.9,18.9z M34.9,14.2c-0.1-0.1-0.3-0.2-0.4-0.2H23.9
	c-0.2,0-0.3,0.1-0.4,0.2c-0.1,0.1-0.2,0.3-0.2,0.4v1.2c0,0.2,0.1,0.3,0.2,0.4c0.1,0.1,0.3,0.2,0.4,0.2h10.6c0.2,0,0.3-0.1,0.4-0.2
	c0.1-0.1,0.2-0.3,0.2-0.4v-1.2C35.1,14.4,35,14.3,34.9,14.2z"/>
</svg>
