<?xml version="1.0" encoding="utf-8"?>
<!-- Generator: Adobe Illustrator 21.1.0, SVG Export Plug-In . SVG Version: 6.00 Build 0)  -->
<svg version="1.1" id="Ebene_1" xmlns="http://www.w3.org/2000/svg" xmlns:xlink="http://www.w3.org/1999/xlink" x="0px" y="0px"
	 viewBox="0 0 42.5 42.5" style="enable-background:new 0 0 42.5 42.5;" xml:space="preserve">
<path d="M16.4,20.5L29.6,7.3C29.8,7.1,30,7,30.2,7c0.2,0,0.5,0.1,0.7,0.3l1.4,1.4c0.2,0.2,0.3,0.4,0.3,0.7s-0.1,0.5-0.3,0.7
	L21.2,21.2l11.2,11.2c0.2,0.2,0.3,0.4,0.3,0.7s-0.1,0.5-0.3,0.7L30.9,35c-0.2,0.2-0.4,0.3-0.7,0.3c-0.2,0-0.5-0.1-0.7-0.3L16.4,21.8
	c-0.2-0.2-0.3-0.4-0.3-0.7C16.1,20.9,16.2,20.7,16.4,20.5z M10.3,7.3C10.1,7.4,10,7.7,10,7.9V11v23.4c0,0.3,0.1,0.5,0.3,0.7
	c0.2,0.2,0.4,0.3,0.7,0.3h2c0.3,0,0.5-0.1,0.7-0.3c0.2-0.2,0.3-0.4,0.3-0.7V10.9l0-2.9c0-0.3-0.1-0.5-0.3-0.7
	C13.4,7.1,13.2,7,12.9,7h-2C10.7,7,10.4,7.1,10.3,7.3z"/>
</svg>
