<?xml version="1.0" encoding="utf-8"?>
<!-- Generator: Adobe Illustrator 23.0.6, SVG Export Plug-In . SVG Version: 6.00 Build 0)  -->
<svg version="1.1" id="Ebene_1" xmlns="http://www.w3.org/2000/svg" xmlns:xlink="http://www.w3.org/1999/xlink" x="0px" y="0px"
	 viewBox="0 0 42.5 42.5" style="enable-background:new 0 0 42.5 42.5;" xml:space="preserve">
<path d="M16.1,20.1c-0.2,0.5-0.2,1-0.2,1.6c0,3,2.4,5.4,5.4,5.4c3,0,5.4-2.4,5.4-5.4s-2.4-5.4-5.4-5.4c-1.4,0-2.7,0.6-3.7,1.5l2.6,3
	L16.1,20.1z M16.1,20.1"/>
<path d="M41.7,20.8c-0.1-0.1-2.1-2.7-5.7-5.3c-4.7-3.5-9.8-5.3-14.8-5.3c-5,0-10.1,1.8-14.8,5.3c-3.5,2.6-5.6,5.2-5.7,5.3L0,21.7
	l0.7,0.9c0.1,0.1,2.1,2.7,5.7,5.3c4.7,3.5,9.8,5.3,14.8,5.3c5,0,10.1-1.8,14.8-5.3c3.5-2.6,5.6-5.2,5.7-5.3l0.7-0.9L41.7,20.8z
	 M21.2,29.8c-4.4,0-8.1-3.6-8.1-8.1c0-0.7,0.1-1.4,0.3-2l-1.8-0.3c-0.2,0.7-0.3,1.5-0.3,2.3c0,2.9,1.2,5.5,3.2,7.3
	C12,28,9.8,26.7,8.2,25.6c-2-1.5-3.5-2.9-4.4-3.9c0.9-0.9,2.4-2.4,4.4-3.9c1.6-1.2,3.8-2.5,6.3-3.4l1.2,1.4c1.4-1.3,3.4-2.2,5.5-2.2
	c4.4,0,8.1,3.6,8.1,8.1S25.7,29.8,21.2,29.8L21.2,29.8z M34.2,25.6C32.6,26.7,30.5,28,28,29c2-1.8,3.2-4.4,3.2-7.3
	c0-2.9-1.2-5.5-3.2-7.3c2.5,0.9,4.7,2.2,6.3,3.4c2,1.5,3.5,2.9,4.4,3.9C37.7,22.6,36.2,24.1,34.2,25.6L34.2,25.6z M34.2,25.6"/>
<path d="M34.9,11.4c0,0.1-0.1,0.2-0.1,0.2c-2.4,2.4-6.1,6-10.9,10.8S15.4,30.9,13,33.3L11.3,35c-0.2,0.2-0.4,0.3-0.7,0.2
	c-0.2,0-0.8-0.7-2-1.9c-0.2-0.2-0.2-0.4-0.1-0.6C8.6,32.6,32.2,9.2,32.2,9.2c0.2-0.2,0.4-0.3,0.7-0.2c0.1,0,0.2,0.1,0.3,0.2
	c0.1,0.1,0.3,0.3,0.5,0.4c0.2,0.2,0.3,0.3,0.5,0.5s0.3,0.3,0.5,0.5c0.2,0.2,0.3,0.3,0.3,0.3C35,11,35,11.2,34.9,11.4z"/>
</svg>
