<?xml version="1.0" encoding="utf-8"?>
<!-- Generator: Adobe Illustrator 21.1.0, SVG Export Plug-In . SVG Version: 6.00 Build 0)  -->
<svg version="1.1" id="Ebene_1" xmlns="http://www.w3.org/2000/svg" xmlns:xlink="http://www.w3.org/1999/xlink" x="0px" y="0px"
	 viewBox="0 0 42.5 42.5" style="enable-background:new 0 0 42.5 42.5;" xml:space="preserve">
<style type="text/css">
	.st0{fill:#FDD835;}
</style>
<path class="st0" d="M26.3,24.4l5.5-5.3L24.3,18l-3.4-6.8L17.5,18L10,19.1l5.5,5.3l-1.3,7.5l6.8-3.6l6.7,3.6L26.3,24.4z M35.7,18
	c0,0.3-0.2,0.5-0.5,0.9l-6.5,6.3l1.5,8.9c0,0.1,0,0.2,0,0.4c0,0.6-0.2,0.9-0.7,0.9c-0.2,0-0.5-0.1-0.7-0.2l-8-4.2l-8,4.2
	c-0.3,0.1-0.5,0.2-0.7,0.2c-0.3,0-0.4-0.1-0.6-0.3c-0.1-0.2-0.2-0.4-0.2-0.6c0-0.1,0-0.2,0-0.4l1.5-8.9l-6.5-6.3
	C6.1,18.5,6,18.2,6,18c0-0.4,0.3-0.7,1-0.8l9-1.3l4-8.1C20.2,7.2,20.5,7,20.9,7s0.6,0.2,0.9,0.7l4,8.1l9,1.3
	C35.4,17.3,35.7,17.5,35.7,18z"/>
</svg>
