<?xml version="1.0" encoding="utf-8"?>
<!-- Generator: Adobe Illustrator 21.1.0, SVG Export Plug-In . SVG Version: 6.00 Build 0)  -->
<svg version="1.1" id="Ebene_1" xmlns="http://www.w3.org/2000/svg" xmlns:xlink="http://www.w3.org/1999/xlink" x="0px" y="0px"
	 viewBox="0 0 42.5 42.5" style="enable-background:new 0 0 42.5 42.5;" xml:space="preserve">
<path d="M31.8,22h2.7c0.5,0,0.8-0.4,0.8-0.8v-8c0-0.5-0.4-0.8-0.8-0.8h-7.2v-1.8c0-1.9-1.6-3.5-3.5-3.5s-3.5,1.6-3.5,3.5v1.8h-7.2
	c-0.5,0-0.8,0.4-0.8,0.8v7.2h-1.8c-1.9,0-3.5,1.6-3.5,3.5s1.6,3.5,3.5,3.5h1.8v7.2c0,0.5,0.4,0.8,0.8,0.8h8c0.5,0,0.8-0.4,0.8-0.8
	v-2.7c0-1,0.8-1.8,1.8-1.8s1.8,0.8,1.8,1.8v2.7c0,0.5,0.4,0.8,0.8,0.8h8c0.5,0,0.8-0.4,0.8-0.8v-8c0-0.5-0.4-0.8-0.8-0.8h-2.7
	c-1,0-1.8-0.8-1.8-1.8S30.8,22,31.8,22z"/>
</svg>
