<?xml version="1.0" encoding="utf-8"?>
<!-- Generator: Adobe Illustrator 21.1.0, SVG Export Plug-In . SVG Version: 6.00 Build 0)  -->
<svg version="1.1" id="Ebene_1" xmlns="http://www.w3.org/2000/svg" xmlns:xlink="http://www.w3.org/1999/xlink" x="0px" y="0px"
	 viewBox="0 0 42.5 42.5" style="enable-background:new 0 0 42.5 42.5;" xml:space="preserve">
<rect x="6.1" y="34.5" width="30.1" height="1.2"/>
<path d="M17.9,5.1v0.8c-1.6,0.1-2.7,0.4-3.1,0.8c-0.5,0.4-0.7,1.4-0.7,3v13.4c0,2.2,0.3,3.9,0.9,5.1c1.1,2.2,3.2,3.4,6.4,3.4
	c3.4,0,5.7-1.1,6.9-3.4c0.7-1.3,1-3.3,1-5.9V11.3C29.3,9,29,7.6,28.4,7c-0.5-0.6-1.6-0.9-3.1-1.1V5.1H35v0.8
	c-1.6,0.2-2.7,0.6-3.2,1.2c-0.5,0.6-0.7,2-0.7,4.2v10.9c0,2.9-0.4,5.2-1.3,6.8c-1.6,3-4.8,4.5-9.3,4.5c-4.5,0-7.6-1.5-9.3-4.4
	c-0.9-1.6-1.3-3.7-1.3-6.3V9.6c0-1.5-0.2-2.5-0.7-2.9C8.7,6.3,7.6,6,6.1,5.9V5.1H17.9z"/>
</svg>
