<?xml version="1.0" encoding="utf-8"?>
<!-- Generator: Adobe Illustrator 21.1.0, SVG Export Plug-In . SVG Version: 6.00 Build 0)  -->
<svg version="1.1" id="Ebene_1" xmlns="http://www.w3.org/2000/svg" xmlns:xlink="http://www.w3.org/1999/xlink" x="0px" y="0px"
	 viewBox="0 0 42.5 42.5" style="enable-background:new 0 0 42.5 42.5;" xml:space="preserve">
<path d="M7.9,34.2c1.1,0,1.9-0.2,2.4-0.4c0.8-0.4,1.2-1.3,1.2-2.5V11.1c0-1.2-0.4-2-1.2-2.4C9.9,8.4,9.1,8.3,7.9,8.2V7.1h12.8
	c2.5,0,4.5,0.3,6.2,0.9c3.1,1.1,4.6,3,4.6,5.8c0,1.7-0.6,3.1-1.9,4.1c-1.3,1-2.6,1.6-4.1,1.9v0.4c1.5,0.3,2.9,0.8,4,1.5
	c2.2,1.4,3.3,3.3,3.3,5.8c0,2.3-1.1,4.2-3.2,5.6c-2.1,1.4-5,2.1-8.5,2.1H7.9V34.2z M23.4,18.5c0.9-0.8,1.3-2.3,1.3-4.5
	c0-1.6-0.3-2.9-0.9-4c-0.6-1.1-1.7-1.6-3.3-1.6c-0.9,0-1.5,0.1-1.8,0.4c-0.3,0.3-0.5,0.8-0.5,1.6v9.3C20.8,19.7,22.5,19.3,23.4,18.5
	z M18.5,33c0.3,0.6,1,0.9,1.9,0.9c2,0,3.3-0.5,4.1-1.6c0.8-1.1,1.2-2.6,1.2-4.6c0-2.9-0.9-4.9-2.6-5.9c-1.1-0.6-2.7-0.9-5-0.8v10.4
	C18.2,32.1,18.3,32.7,18.5,33z"/>
</svg>
