<?xml version="1.0" encoding="utf-8"?>
<!-- Generator: Adobe Illustrator 21.1.0, SVG Export Plug-In . SVG Version: 6.00 Build 0)  -->
<svg version="1.1" id="Ebene_1" xmlns="http://www.w3.org/2000/svg" xmlns:xlink="http://www.w3.org/1999/xlink" x="0px" y="0px"
	 viewBox="0 0 42.5 42.5" style="enable-background:new 0 0 42.5 42.5;" xml:space="preserve">
<path d="M14.1,17.5c1,3.4,3.7,7,7.3,7s6.3-3.6,7.3-7c0.9-0.3,1.6-1.2,1.9-2.4c0.4-1.6-0.2-3.1-1.3-3.5c0.1-0.4-0.3-2.1-0.5-2.5
	c-1.5-3.5-3-5.2-7.6-5.2c-4.6,0-6.7,3-7.8,5.9c-0.2,0.5-0.6,1.6-0.4,2.1c-0.8,0.6-1.2,1.9-0.9,3.2C12.4,16.3,13.2,17.2,14.1,17.5
	L14.1,17.5z M13.5,13.2c0.1-0.2,0.3-0.3,0.5-0.4c0,0,0.1,0,0.1,0c0,0,0.1,0,0.1,0l0.6,0.1l0.1-0.6c0.2-1.2,0.5-2.3,1.1-3.2
	c1,1.1,2.9,1.8,5.2,1.8c0.5,0,1.6-0.1,2.1-0.2c0.4-0.1-1.2-2.4-2.2-3.6c-0.2-0.3,2.8,0.5,3.6,3c0.2,0.6,1.6-0.9,1.9-1.6
	c0.7,1,1.1,2.2,1.3,3.6l0.1,0.6l0.6-0.1c0.1,0,0.2,0,0.2,0c0,0,0.1,0,0.1,0c0.5,0.2,0.8,1.1,0.6,2.1c-0.2,0.9-0.8,1.5-1.3,1.5
	l-0.4,0.1l-0.1,0.4c-0.9,3.2-3.3,6.4-6.3,6.4S16,20,15.2,16.8L15,16.5l-0.4-0.1c-0.5-0.1-1.1-0.6-1.3-1.5
	C13.2,14.2,13.3,13.6,13.5,13.2L13.5,13.2z M13.5,13.2 M28.5,22.9c-0.8,1.3-1.7,2.4-2.9,3c-2.5,1.3-6.2,1.3-8.6,0
	c-1.2-0.6-2.1-1.7-2.9-3C10.5,24.4,8,27.8,8,30.8V38h26.7v-7.2C34.7,27.8,32.2,24.4,28.5,22.9L28.5,22.9z M28.5,22.9"/>
</svg>
