<?xml version="1.0" encoding="utf-8"?>
<!-- Generator: Adobe Illustrator 21.1.0, SVG Export Plug-In . SVG Version: 6.00 Build 0)  -->
<svg version="1.1" id="Ebene_1" xmlns="http://www.w3.org/2000/svg" xmlns:xlink="http://www.w3.org/1999/xlink" x="0px" y="0px"
	 viewBox="0 0 42.5 42.5" style="enable-background:new 0 0 42.5 42.5;" xml:space="preserve">
<path d="M8.4,19.2l5.5,2.4V25l-8.8-4.4v-2.9l8.8-4.4v3.4L8.4,19.2z M17.9,28.2h-2.5l5.3-19.1h2.5L17.9,28.2z M26.1,31.8l1.4-3
	l-4-1.8l-1.4,3l0.4,1.1l1.8-0.7l0.7,1.8L26.1,31.8z M29.4,15c-0.3-0.1-0.5,0-0.6,0.3l-4.2,9.1c-0.1,0.3-0.1,0.5,0.2,0.6
	c0.3,0.1,0.5,0,0.6-0.3l4.2-9.1C29.7,15.3,29.6,15.1,29.4,15z M28,12.4l7.5,3.4l-8,17.6l-5.5,2.1L20.1,30L28,12.4z M37.4,11.7
	l-1.1,2.4l-7.5-3.4l1.1-2.4c0.2-0.5,0.6-0.8,1.1-1c0.5-0.2,1-0.2,1.5,0l4,1.8c0.5,0.2,0.8,0.6,1,1.1C37.6,10.7,37.6,11.2,37.4,11.7z
	"/>
</svg>
