<?xml version="1.0" encoding="utf-8"?>
<!-- Generator: Adobe Illustrator 21.1.0, SVG Export Plug-In . SVG Version: 6.00 Build 0)  -->
<svg version="1.1" id="Ebene_1" xmlns="http://www.w3.org/2000/svg" xmlns:xlink="http://www.w3.org/1999/xlink" x="0px" y="0px"
	 viewBox="0 0 42.5 42.5" style="enable-background:new 0 0 42.5 42.5;" xml:space="preserve">
<path d="M33.6,17.1h-0.7v-3.3c0,0,0,0,0-0.1c0-0.1,0-0.3-0.1-0.4l-5.5-6.2c0,0,0,0,0,0c0,0-0.1-0.1-0.1-0.1c0,0,0,0,0,0
	c0,0-0.1,0-0.1,0c0,0,0,0,0,0c0,0-0.1,0-0.1,0H13.5c-0.6,0-1.1,0.5-1.1,1.1v9h-0.7c-0.9,0-1.6,0.7-1.6,1.6V27c0,0.9,0.7,1.6,1.6,1.6
	h0.7v5.7c0,0.6,0.5,1.1,1.1,1.1h18.3c0.6,0,1.1-0.5,1.1-1.1v-5.7h0.7c0.9,0,1.6-0.7,1.6-1.6v-8.3C35.2,17.8,34.5,17.1,33.6,17.1
	L33.6,17.1z M13.5,8.1h12.9v5.7c0,0.3,0.2,0.6,0.6,0.6h4.9v2.8H13.5V8.1z M31.8,33.9H13.5v-5.4h18.3V33.9z M29.9,26.3 M17.9,21.7
	l0.9-2.6h1.5l-1.5,3.8l1.5,3.8h-1.5l-0.9-2.6L17,26.7h-1.5l1.5-3.8l-1.5-3.8h1.5L17.9,21.7z M25.1,19.1v5.2c0,0.8-0.2,1.4-0.5,1.8
	c-0.4,0.4-0.9,0.6-1.6,0.6c-0.7,0-1.2-0.2-1.6-0.6c-0.4-0.4-0.5-1-0.5-1.8v-5.2h1.3v5.2c0,0.4,0.1,0.7,0.2,0.9s0.3,0.3,0.6,0.3
	s0.5-0.1,0.6-0.3s0.2-0.5,0.2-0.9v-5.2H25.1z M27.4,25.4h2.3v1.3h-3.6v-7.6h1.3V25.4z"/>
</svg>
