<?xml version="1.0" encoding="utf-8"?>
<!-- Generator: Adobe Illustrator 24.1.0, SVG Export Plug-In . SVG Version: 6.00 Build 0)  -->
<svg version="1.1" id="Ebene_1" xmlns="http://www.w3.org/2000/svg" xmlns:xlink="http://www.w3.org/1999/xlink" x="0px" y="0px"
	 viewBox="0 0 42.5 42.5" style="enable-background:new 0 0 42.5 42.5;" xml:space="preserve">
<style type="text/css">
	.st0{fill:#04BAEE;}
</style>
<path class="st0" d="M10,22.8H7.7v-2.3H10V22.8z M13.5,20.5h-2.3v2.3h2.3V20.5z M16.9,20.5h-2.3v2.3h2.3V20.5z M20.4,20.5H18v2.3
	h2.3V20.5z M23.8,20.5h-2.3v2.3h2.3V20.5z M27.3,20.5h-2.3v2.3h2.3V20.5z M30.7,20.5h-2.3v2.3h2.3V20.5z M34,20.5h-2.3v2.3H34V20.5z
	"/>
<path d="M6.5,35.6h28.7V14.8H6.5V35.6z M14.7,12.5V7c0-0.2-0.1-0.3-0.2-0.4c-0.1-0.1-0.3-0.2-0.4-0.2h-1.2c-0.2,0-0.3,0.1-0.4,0.2
	c-0.1,0.1-0.2,0.3-0.2,0.4v5.5c0,0.2,0.1,0.3,0.2,0.4c0.1,0.1,0.3,0.2,0.4,0.2h1.2c0.2,0,0.3-0.1,0.4-0.2
	C14.7,12.8,14.7,12.7,14.7,12.5z M29.3,12.5V7c0-0.2-0.1-0.3-0.2-0.4s-0.3-0.2-0.4-0.2h-1.2c-0.2,0-0.3,0.1-0.4,0.2
	c-0.1,0.1-0.2,0.3-0.2,0.4v5.5c0,0.2,0.1,0.3,0.2,0.4c0.1,0.1,0.3,0.2,0.4,0.2h1.2c0.2,0,0.3-0.1,0.4-0.2S29.3,12.7,29.3,12.5z
	 M36.6,11.3v24.3c0,0.7-0.2,1.2-0.7,1.7c-0.5,0.5-1.1,0.7-1.7,0.7H7.4c-0.7,0-1.2-0.2-1.7-0.7C5.2,36.8,5,36.2,5,35.6V11.3
	c0-0.7,0.2-1.2,0.7-1.7s1.1-0.7,1.7-0.7h2.4V7c0-0.8,0.3-1.6,0.9-2.1S12.1,4,12.9,4h1.2c0.8,0,1.6,0.3,2.1,0.9
	c0.6,0.6,0.9,1.3,0.9,2.1v1.8h7.3V7c0-0.8,0.3-1.6,0.9-2.1C25.9,4.3,26.6,4,27.5,4h1.2c0.8,0,1.6,0.3,2.1,0.9
	c0.6,0.6,0.9,1.3,0.9,2.1v1.8h2.4c0.7,0,1.2,0.2,1.7,0.7C36.3,10.1,36.6,10.6,36.6,11.3z M20.4,19H18v-2.3h2.3V19z M23.8,19h-2.3
	v-2.3h2.3V19z M27.3,19h-2.3v-2.3h2.3V19z M30.7,19h-2.3v-2.3h2.3V19z M13.5,19h-2.3v-2.3h2.3V19z M16.9,19h-2.3v-2.3h2.3V19z
	 M13.5,26.6h-2.3v-2.3h2.3V26.6z M16.9,26.6h-2.3v-2.3h2.3V26.6z M20.4,26.6H18v-2.3h2.3V26.6z M23.8,26.6h-2.3v-2.3h2.3V26.6z
	 M27.3,26.6h-2.3v-2.3h2.3V26.6z M30.7,26.6h-2.3v-2.3h2.3V26.6z M13.5,30.3h-2.3V28h2.3V30.3z M16.9,30.3h-2.3V28h2.3V30.3z
	 M20.4,30.3H18V28h2.3V30.3z M23.8,30.3h-2.3V28h2.3V30.3z M27.3,30.3h-2.3V28h2.3V30.3z M30.7,30.3h-2.3V28h2.3V30.3z M13.5,34.1
	h-2.3v-2.3h2.3V34.1z M16.9,34.1h-2.3v-2.3h2.3V34.1z M20.3,34.1H18v-2.3h2.3V34.1z M34,19h-2.3v-2.3H34V19z M34,26.6h-2.3v-2.3H34
	V26.6z M34,30.3h-2.3V28H34V30.3z"/>
</svg>
