<?xml version="1.0" encoding="utf-8"?>
<!-- Generator: Adobe Illustrator 25.0.1, SVG Export Plug-In . SVG Version: 6.00 Build 0)  -->
<svg version="1.1" id="Ebene_1" xmlns="http://www.w3.org/2000/svg" xmlns:xlink="http://www.w3.org/1999/xlink" x="0px" y="0px"
	 viewBox="0 0 42.5 42.5" style="enable-background:new 0 0 42.5 42.5;" xml:space="preserve">
<path d="M30.7,7.1c-2.7-1.9-5.9-3-9.4-3.1v9.9c1.3,0.1,2.6,0.5,3.6,1.2L30.7,7.1z"/>
<path d="M35.7,12.5c-1.1-1.9-2.5-3.5-4.2-4.9l-1.4,2c1.4,1.1,2.6,2.5,3.6,4.1c1.3,2.2,2,4.7,2,7.3s-0.7,5.1-2,7.3
	c-1.3,2.2-3.1,4-5.3,5.3c-2.2,1.3-4.7,2-7.3,2c-2.6,0-5.1-0.7-7.3-2c-2.2-1.3-4-3.1-5.3-5.3c-1.3-2.2-2-4.7-2-7.3s0.7-5.1,2-7.3
	c1.3-2.2,3.1-4,5.3-5.3c2.1-1.2,4.4-1.9,6.9-1.9V4c-2.9,0.1-5.6,0.8-8.1,2.3c-2.6,1.5-4.7,3.6-6.2,6.2C4.8,15.1,4,17.9,4,21
	c0,3.1,0.8,5.9,2.3,8.5s3.6,4.7,6.2,6.2c2.6,1.5,5.5,2.3,8.5,2.3c3.1,0,5.9-0.8,8.5-2.3c2.6-1.5,4.7-3.6,6.2-6.2S38,24.1,38,21
	C38,17.9,37.2,15.1,35.7,12.5z"/>
</svg>
