<?xml version="1.0" encoding="utf-8"?>
<!-- Generator: Adobe Illustrator 21.1.0, SVG Export Plug-In . SVG Version: 6.00 Build 0)  -->
<svg version="1.1" id="Ebene_1" xmlns="http://www.w3.org/2000/svg" xmlns:xlink="http://www.w3.org/1999/xlink" x="0px" y="0px"
	 viewBox="0 0 42.5 42.5" style="enable-background:new 0 0 42.5 42.5;" xml:space="preserve">
<style type="text/css">
	.st0{fill-rule:evenodd;clip-rule:evenodd;}
</style>
<path class="st0" d="M21.3,8.1c3.5,0,6.9,0.8,9.9,2.3l-7.2,9.4c-0.9-0.2-1.7-0.3-2.7-0.3c-4.8,0-9,3-10.6,7.3L0,22.7
	C3.3,14.1,11.6,8.1,21.3,8.1L21.3,8.1z M19.8,33.1c-0.5-0.2-0.9-0.5-1.2-0.9c-0.8-0.9-1-2.3-0.4-3.4c0.1-0.2,0.2-0.4,0.4-0.6l9-11.6
	l3.4-4.4l2.1-2.7c0.2-0.3,0.7-0.2,0.9,0c0.1,0.1,0.2,0.3,0.1,0.6l-1.5,3.3l-2.2,4.8l-6.2,13.4C23.4,33.2,21.5,33.9,19.8,33.1
	L19.8,33.1z M22.4,29c-0.6-0.7-1.6-0.8-2.2-0.2c-0.7,0.6-0.8,1.6-0.2,2.2c0.6,0.7,1.6,0.8,2.2,0.2C22.9,30.7,23,29.7,22.4,29
	L22.4,29z M22.4,29 M29.1,22.6c1.2,1.1,2.1,2.6,2.8,4.1l10.6-4.1c-1.6-4.2-4.5-7.8-8.1-10.4L29.1,22.6z"/>
</svg>
