<?xml version="1.0" encoding="utf-8"?>
<!-- Generator: Adobe Illustrator 21.1.0, SVG Export Plug-In . SVG Version: 6.00 Build 0)  -->
<svg version="1.1" id="Ebene_1" xmlns="http://www.w3.org/2000/svg" xmlns:xlink="http://www.w3.org/1999/xlink" x="0px" y="0px"
	 viewBox="0 0 42.5 42.5" style="enable-background:new 0 0 42.5 42.5;" xml:space="preserve">
<path d="M15,15.5c-0.4-0.3-1-0.3-1.5-0.1c-0.9,0.4-1.8,0.6-2.7,0.7v-1.5c1.9-0.5,3.2-2.2,3.2-4.2c0-0.9-0.5-2.1-1.6-3.7
	c-0.8-1.1-1.6-2-1.9-2.4C10.4,4.1,10.1,4,9.8,4c0,0,0,0,0,0C9.4,4,9.1,4.1,8.9,4.4C8.6,4.7,7.8,5.7,7.1,6.8C6,8.3,5.5,9.5,5.5,10.4
	c0,2.1,1.4,3.8,3.4,4.2v1.5C7.9,16,7,15.8,6.2,15.4c-0.5-0.2-1-0.2-1.5,0.1C4.3,15.8,4,16.3,4,16.8v18.8C4,36.9,5.1,38,6.4,38h6.9
	c1.3,0,2.4-1.1,2.4-2.4V16.8C15.7,16.3,15.4,15.8,15,15.5z M7.5,10.4c0-0.7,0.9-2.3,2.3-4c1.4,1.7,2.3,3.3,2.3,4
	c0,0.9-0.5,1.7-1.3,2.1v-1.2c0-0.5-0.4-1-1-1c-0.5,0-1,0.4-1,1v1.3C8,12.2,7.5,11.4,7.5,10.4z M13.7,35.6c0,0.2-0.2,0.4-0.4,0.4H6.4
	C6.2,36,6,35.8,6,35.6V17.5c1.2,0.5,2.5,0.7,3.8,0.7c0,0,0,0,0,0c0,0,0,0,0,0c1.3,0,2.6-0.2,3.8-0.7V35.6z M39.1,24.7
	c0,0.3-0.1,0.5-0.3,0.7l-5.2,5.2c-0.2,0.2-0.4,0.3-0.7,0.3c-0.3,0-0.5-0.1-0.7-0.3L31.6,30c-0.2-0.2-0.3-0.4-0.3-0.7
	s0.1-0.5,0.3-0.7l2.3-2.3H18.8c-0.3,0-0.5-0.1-0.7-0.3s-0.3-0.4-0.3-0.7v-1c0-0.3,0.1-0.5,0.3-0.7s0.4-0.3,0.7-0.3h15.2l-2.3-2.3
	c-0.2-0.2-0.3-0.4-0.3-0.7c0-0.3,0.1-0.5,0.3-0.7l0.6-0.6c0.2-0.2,0.4-0.3,0.7-0.3c0.3,0,0.5,0.1,0.7,0.3l5.2,5.2
	C39,24.1,39.1,24.4,39.1,24.7z"/>
</svg>
