<?xml version="1.0" encoding="utf-8"?>
<!-- Generator: Adobe Illustrator 21.1.0, SVG Export Plug-In . SVG Version: 6.00 Build 0)  -->
<svg version="1.1" id="Ebene_1" xmlns="http://www.w3.org/2000/svg" xmlns:xlink="http://www.w3.org/1999/xlink" x="0px" y="0px"
	 viewBox="0 0 42.5 42.5" style="enable-background:new 0 0 42.5 42.5;" xml:space="preserve">
<path d="M38,14.3v20.6c0,0.6-0.2,1.1-0.6,1.5S36.5,37,35.9,37h-4c0.3-0.4,0.5-0.8,0.5-1.4V24.9c0-1.2-1-2.1-2.1-2.1H11.8
	c-1.2,0-2.1,1-2.1,2.1v10.7c0,0.5,0.2,1,0.5,1.4h-4c-0.6,0-1.1-0.2-1.5-0.6S4,35.5,4,34.9V5.1C4,4.5,4.2,4,4.6,3.6S5.5,3,6.1,3H10
	C9.8,3.3,9.7,3.6,9.7,4v11.3c0,1,0.8,1.9,1.9,1.9h13.4c1,0,1.9-0.8,1.9-1.9V4c0-0.4-0.1-0.7-0.3-1h0.2c0.6,0,1.2,0.1,1.9,0.4
	c0.7,0.3,1.3,0.6,1.7,1.1l6.2,6.2c0.4,0.4,0.8,1,1.1,1.7C37.9,13.1,38,13.7,38,14.3z M12.5,34.2h17v-8.5h-17V34.2z M18.9,14.3h4.3
	c0.2,0,0.4-0.1,0.5-0.2s0.2-0.3,0.2-0.5V6.5c0-0.2-0.1-0.4-0.2-0.5c-0.1-0.1-0.3-0.2-0.5-0.2h-4.3c-0.2,0-0.4,0.1-0.5,0.2
	c-0.1,0.1-0.2,0.3-0.2,0.5v7.1c0,0.2,0.1,0.4,0.2,0.5S18.7,14.3,18.9,14.3z"/>
</svg>
