<?xml version="1.0" encoding="utf-8"?>
<!-- Generator: Adobe Illustrator 21.1.0, SVG Export Plug-In . SVG Version: 6.00 Build 0)  -->
<svg version="1.1" id="Ebene_1" xmlns="http://www.w3.org/2000/svg" xmlns:xlink="http://www.w3.org/1999/xlink" x="0px" y="0px"
	 viewBox="0 0 42.5 42.5" style="enable-background:new 0 0 42.5 42.5;" xml:space="preserve">
<path d="M28,25.7c-0.1-0.1-0.2-0.3-0.2-0.4v-1.2c0-0.2,0.1-0.3,0.2-0.4s0.3-0.2,0.4-0.2h4.3v-4.3c0-0.2,0.1-0.3,0.2-0.4
	s0.3-0.2,0.4-0.2h1.2c0.2,0,0.3,0.1,0.4,0.2s0.2,0.3,0.2,0.4v4.3h4.3c0.2,0,0.3,0.1,0.4,0.2s0.2,0.3,0.2,0.4v1.2
	c0,0.2-0.1,0.3-0.2,0.4s-0.3,0.2-0.4,0.2h-4.3v4.3c0,0.2-0.1,0.3-0.2,0.4s-0.3,0.2-0.4,0.2h-1.2c-0.2,0-0.3-0.1-0.4-0.2
	s-0.2-0.3-0.2-0.4v-4.3h-4.3C28.3,25.9,28.1,25.8,28,25.7z"/>
<path d="M23.7,24.9c0.1,0.1,0.2,0.3,0.2,0.4v1.2c0,0.2-0.1,0.3-0.2,0.4c-0.1,0.1-0.3,0.2-0.4,0.2H9.9c-0.2,0-0.3-0.1-0.4-0.2
	c-0.1-0.1-0.2-0.3-0.2-0.4v-1.2c0-0.2,0.1-0.3,0.2-0.4c0.1-0.1,0.3-0.2,0.4-0.2h13.4C23.4,24.7,23.6,24.8,23.7,24.9z M23.3,29.6H9.9
	c-0.2,0-0.3,0.1-0.4,0.2c-0.1,0.1-0.2,0.3-0.2,0.4v1.2c0,0.2,0.1,0.3,0.2,0.4C9.6,32,9.7,32,9.9,32h13.4c0.2,0,0.3-0.1,0.4-0.2
	c0.1-0.1,0.2-0.3,0.2-0.4v-1.2c0-0.2-0.1-0.3-0.2-0.4C23.6,29.6,23.4,29.6,23.3,29.6z M28.7,28h2.4v8.2c0,0.5-0.2,0.9-0.5,1.3
	c-0.4,0.4-0.8,0.5-1.3,0.5H3.8c-0.5,0-0.9-0.2-1.3-0.5C2.2,37.1,2,36.7,2,36.2V5.8c0-0.5,0.2-0.9,0.5-1.3S3.3,4,3.8,4h17
	c0.5,0,1.1,0.1,1.7,0.4c0.6,0.3,1.1,0.6,1.4,0.9l5.9,5.9c0.4,0.4,0.7,0.8,0.9,1.4c0.3,0.6,0.4,1.2,0.4,1.7v7h-2.4v-5.2h-7.9
	c-0.5,0-0.9-0.2-1.3-0.5S19,14.8,19,14.3V6.4H4.4v29.2h24.3V28z M21.4,13.7h7.1c-0.1-0.4-0.3-0.6-0.4-0.8L22.2,7
	c-0.2-0.2-0.4-0.3-0.8-0.4V13.7z M17.2,18.8c0.1-0.2,0.2-0.3,0.2-0.5c0-0.3-0.2-0.6-0.5-0.7c-0.2-0.1-0.4-0.2-0.5-0.2
	c-0.3,0-0.7,0.2-0.8,0.6l0,0c-0.5,1.2-1.7,2-2.8,2c-0.9,0-1.7-0.4-2.3-1.1h2c0.2,0,0.5-0.1,0.7-0.3c0.2-0.2,0.3-0.4,0.3-0.7
	c0-0.2-0.1-0.5-0.3-0.7c-0.2-0.2-0.4-0.3-0.7-0.3H9.6c0-0.2-0.1-0.4-0.1-0.7c0-0.2,0-0.4,0.1-0.6h2.8c0.2,0,0.5-0.1,0.7-0.3
	c0.2-0.2,0.3-0.4,0.3-0.7c0-0.2-0.1-0.5-0.3-0.7c-0.2-0.2-0.4-0.3-0.7-0.3h-2c0.6-0.8,1.4-1.2,2.4-1.2c1.1,0,2.2,0.7,2.8,2l0,0.1
	l0,0c0.2,0.2,0.5,0.4,0.8,0.4c0.1,0,0.2,0,0.4-0.1l0.1,0l0.1-0.1c0.2-0.2,0.4-0.5,0.4-0.8c0-0.1,0-0.2-0.1-0.4l0,0l0,0
	c-0.8-1.9-2.6-3.1-4.4-3.1c-2.1,0-3.8,1.3-4.6,3.2h-1c-0.2,0-0.5,0.1-0.7,0.3c-0.2,0.2-0.3,0.4-0.3,0.7c0,0.2,0.1,0.5,0.3,0.7
	c0.2,0.2,0.4,0.3,0.7,0.3h0.6c0,0.1,0,0.3,0,0.4c0,0.3,0,0.5,0.1,0.8H7.1c-0.2,0-0.5,0.1-0.7,0.3c-0.2,0.2-0.3,0.4-0.3,0.7
	c0,0.2,0.1,0.5,0.3,0.7c0.2,0.2,0.4,0.3,0.7,0.3h1.2c0.9,1.7,2.5,2.9,4.4,2.9C14.6,21.6,16.3,20.5,17.2,18.8L17.2,18.8
	C17.1,18.9,17.1,18.8,17.2,18.8C17.2,18.8,17.2,18.8,17.2,18.8L17.2,18.8z"/>
</svg>
