<?xml version="1.0" encoding="utf-8"?>
<!-- Generator: Adobe Illustrator 21.1.0, SVG Export Plug-In . SVG Version: 6.00 Build 0)  -->
<svg version="1.1" id="Ebene_1" xmlns="http://www.w3.org/2000/svg" xmlns:xlink="http://www.w3.org/1999/xlink" x="0px" y="0px"
	 viewBox="5 5 32.5 32.5" style="enable-background:new 0 0 42.5 42.5;" xml:space="preserve">
<style type="text/css">
	.st0{fill:#000000;}
</style>
<path id="hook" class="st0" d="M29.5,17.6L18.6,28.5c-0.2,0.2-0.5,0.3-0.8,0.3c-0.3,0-0.6-0.1-0.8-0.3l-5.4-5.4
	c-0.2-0.2-0.3-0.5-0.3-0.8c0-0.3,0.1-0.6,0.3-0.8l0.8-0.8c0.2-0.2,0.5-0.3,0.8-0.3s0.6,0.1,0.8,0.3l3.8,3.8l9.3-9.3
	c0.2-0.2,0.5-0.3,0.8-0.3c0.3,0,0.6,0.1,0.8,0.3l0.8,0.8c0.2,0.2,0.3,0.5,0.3,0.8C29.8,17.1,29.7,17.4,29.5,17.6z"/>
</svg>
