<?xml version="1.0" encoding="utf-8"?>
<!-- Generator: Adobe Illustrator 21.1.0, SVG Export Plug-In . SVG Version: 6.00 Build 0)  -->
<svg version="1.1" id="Ebene_1" xmlns="http://www.w3.org/2000/svg" xmlns:xlink="http://www.w3.org/1999/xlink" x="0px" y="0px"
	 viewBox="0 0 42.5 42.5" style="enable-background:new 0 0 42.5 42.5;" xml:space="preserve">
<path d="M37.6,32.4v-16c-0.4,0.5-1.4,1.2-2,1.6c-3.8,2.8-6.8,5-9,6.8c-0.7,0.6-1.3,1-1.8,1.3s-1.1,0.6-1.8,1
	c-0.8,0.3-1.5,0.5-2.2,0.5h0c-0.7,0-1.4-0.2-2.2-0.5c-0.8-0.3-1.4-0.7-1.8-1s-1-0.8-1.8-1.3c-2.2-1.8-5.2-4-9-6.8
	c-0.5-0.4-1.5-1.2-2-1.6v16c0,0.2,0.1,0.3,0.2,0.5C4.5,32.9,4.7,33,4.8,33h32.1c0.2,0,0.3-0.1,0.5-0.2S37.6,32.5,37.6,32.4z
	 M37.6,11v-0.7l0,0l-0.1-0.5l-0.1-0.2l-0.2-0.2l-0.3-0.1H4.8c-0.2,0-0.3,0.1-0.5,0.2C4.2,9.7,4.2,9.8,4.2,10c0,2.3,1.6,4.5,3.6,6.1
	c2.7,2.1,5.5,4.3,8.5,6.5c0.1,0.1,0.3,0.3,0.7,0.6s0.7,0.6,1,0.8c0.2,0.2,0.6,0.4,0.9,0.6c0.4,0.3,0.7,0.4,1.1,0.6
	c0.3,0.1,0.6,0.2,0.9,0.2h0c0.3,0,0.6-0.1,0.9-0.2c0.3-0.1,0.7-0.3,1.1-0.6c0.4-0.3,0.7-0.5,0.9-0.6c0.2-0.2,0.6-0.4,1-0.8
	s0.7-0.5,0.7-0.6c2.9-2.3,5.7-4.4,8.5-6.5c0.8-0.6,2.1-1.7,2.7-2.7S37.6,11.8,37.6,11z M39.8,10.2v21.9c0,0.9-0.3,1.6-1,2.3
	c-0.7,0.6-1.5,0.9-2.4,0.9h-31c-0.9,0-1.7-0.3-2.4-0.9S2,33,2,32.1V10.2c0-0.9,0.3-1.6,1-2.3S4.4,7,5.4,7h31c0.9,0,1.7,0.3,2.4,0.9
	C39.5,8.6,39.8,9.3,39.8,10.2z"/>
</svg>
