<?xml version="1.0" encoding="utf-8"?>
<!-- Generator: Adobe Illustrator 21.1.0, SVG Export Plug-In . SVG Version: 6.00 Build 0)  -->
<svg version="1.1" id="Ebene_1" xmlns="http://www.w3.org/2000/svg" xmlns:xlink="http://www.w3.org/1999/xlink" x="0px" y="0px"
	 viewBox="0 0 42.5 42.5" style="enable-background:new 0 0 42.5 42.5;" xml:space="preserve">
<path d="M40,28.1V32c0,0.2-0.1,0.3-0.2,0.5s-0.3,0.2-0.5,0.2H12.3c-0.2,0-0.3-0.1-0.5-0.2c-0.1-0.1-0.2-0.3-0.2-0.5v-3.9
	c0-0.2,0.1-0.3,0.2-0.5c0.1-0.1,0.3-0.2,0.5-0.2h27.1c0.2,0,0.3,0.1,0.5,0.2C40,27.8,40,28,40,28.1z M40,19v3.9
	c0,0.2-0.1,0.3-0.2,0.5c-0.1,0.1-0.3,0.2-0.5,0.2H12.3c-0.2,0-0.3-0.1-0.5-0.2c-0.1-0.1-0.2-0.3-0.2-0.5V19c0-0.2,0.1-0.3,0.2-0.5
	c0.1-0.1,0.3-0.2,0.5-0.2h27.1c0.2,0,0.3,0.1,0.5,0.2C40,18.6,40,18.8,40,19z M40,9.1v3.9c0,0.2-0.1,0.3-0.2,0.5
	c-0.1,0.1-0.3,0.2-0.5,0.2H12.3c-0.2,0-0.3-0.1-0.5-0.2c-0.1-0.1-0.2-0.3-0.2-0.5V9.1c0-0.2,0.1-0.3,0.2-0.5
	c0.1-0.1,0.3-0.2,0.5-0.2h27.1c0.2,0,0.3,0.1,0.5,0.2C40,8.7,40,8.9,40,9.1z"/>
<path d="M10.1,9.1L5.3,14c-0.1,0.1-0.2,0.2-0.4,0.2S4.6,14.1,4.5,14l-2.3-2.3C2.1,11.5,2,11.4,2,11.3c0-0.1,0.1-0.3,0.2-0.4l0.1-0.1
	c0.1-0.1,0.2-0.2,0.4-0.2s0.3,0.1,0.4,0.2l1.8,1.8l4.4-4.4C9.3,8.1,9.4,8,9.6,8C9.7,8,9.9,8.1,10,8.2l0.2,0.2
	c0.1,0.1,0.2,0.2,0.2,0.4C10.3,8.9,10.3,9,10.1,9.1z"/>
<path d="M10.1,18.6l-4.9,4.9c-0.1,0.1-0.2,0.2-0.4,0.2s-0.3-0.1-0.4-0.2l-2.3-2.3C2.1,21,2,20.9,2,20.7s0.1-0.3,0.2-0.4l0.1-0.1
	C2.4,20.1,2.5,20,2.7,20s0.3,0.1,0.4,0.2L4.8,22l4.4-4.4c0.1-0.1,0.2-0.2,0.4-0.2c0.1,0,0.3,0.1,0.4,0.2l0.2,0.2
	c0.1,0.1,0.2,0.2,0.2,0.4S10.3,18.5,10.1,18.6z"/>
<path d="M10.1,27.6l-4.9,4.9c-0.1,0.1-0.2,0.2-0.4,0.2s-0.3-0.1-0.4-0.2l-2.3-2.3C2.1,30.1,2,29.9,2,29.8s0.1-0.3,0.2-0.4l0.1-0.1
	c0.1-0.1,0.2-0.2,0.4-0.2s0.3,0.1,0.4,0.2L4.8,31l4.4-4.4c0.1-0.1,0.2-0.2,0.4-0.2c0.1,0,0.3,0.1,0.4,0.2l0.2,0.2
	c0.1,0.1,0.2,0.2,0.2,0.4C10.3,27.4,10.3,27.5,10.1,27.6z"/>
</svg>
