<?xml version="1.0" encoding="utf-8"?>
<!-- Generator: Adobe Illustrator 21.1.0, SVG Export Plug-In . SVG Version: 6.00 Build 0)  -->
<svg version="1.1" id="Ebene_1" xmlns="http://www.w3.org/2000/svg" xmlns:xlink="http://www.w3.org/1999/xlink" x="0px" y="0px"
	 viewBox="0 0 42.5 42.5" style="enable-background:new 0 0 42.5 42.5;" xml:space="preserve">
<path d="M28.1,21c0-2-0.7-3.7-2.1-5.1s-3.1-2.1-5.1-2.1s-3.7,0.7-5.1,2.1S13.8,19,13.8,21s0.7,3.7,2.1,5.1s3.1,2.1,5.1,2.1
	s3.7-0.7,5.1-2.1S28.1,22.9,28.1,21z M37.9,18.5v4.9c0,0.2-0.1,0.3-0.2,0.5c-0.1,0.2-0.3,0.3-0.4,0.3l-4.1,0.6
	c-0.3,0.8-0.6,1.5-0.9,2c0.5,0.7,1.3,1.8,2.4,3c0.1,0.2,0.2,0.4,0.2,0.6s-0.1,0.4-0.2,0.5c-0.4,0.5-1.1,1.3-2.2,2.4
	c-1.1,1-1.8,1.6-2.1,1.6c-0.2,0-0.4-0.1-0.6-0.2l-3-2.4c-0.6,0.3-1.3,0.6-2,0.8c-0.2,2-0.4,3.4-0.6,4.1c-0.1,0.4-0.4,0.6-0.8,0.6
	h-4.9c-0.2,0-0.4-0.1-0.5-0.2c-0.2-0.1-0.2-0.3-0.3-0.5l-0.6-4.1c-0.7-0.2-1.4-0.5-2-0.8L12,34.7c-0.1,0.1-0.3,0.2-0.6,0.2
	c-0.2,0-0.4-0.1-0.6-0.2C9,33,7.8,31.8,7.2,31c-0.1-0.1-0.2-0.3-0.2-0.5c0-0.2,0.1-0.3,0.2-0.5c0.2-0.3,0.6-0.8,1.1-1.5
	s0.9-1.2,1.2-1.6c-0.4-0.7-0.7-1.5-0.9-2.2l-4-0.6c-0.2,0-0.3-0.1-0.5-0.3C4.1,23.7,4,23.5,4,23.4v-4.9c0-0.2,0.1-0.3,0.2-0.5
	s0.3-0.3,0.4-0.3L8.7,17c0.2-0.7,0.5-1.4,0.9-2c-0.6-0.8-1.4-1.9-2.4-3C7.1,11.8,7,11.6,7,11.4c0-0.1,0.1-0.3,0.2-0.5
	c0.4-0.5,1.1-1.3,2.2-2.4S11.1,7,11.4,7c0.2,0,0.4,0.1,0.6,0.2l3,2.4c0.6-0.3,1.3-0.6,2-0.8c0.2-2,0.4-3.4,0.6-4.1
	C17.8,4.2,18.1,4,18.5,4h4.9c0.2,0,0.4,0.1,0.5,0.2c0.2,0.1,0.2,0.3,0.3,0.5l0.6,4.1c0.7,0.2,1.4,0.5,2,0.8l3.1-2.4
	C30.1,7,30.2,7,30.5,7c0.2,0,0.4,0.1,0.6,0.2c1.9,1.8,3.1,3,3.6,3.8c0.1,0.1,0.2,0.3,0.2,0.5c0,0.2-0.1,0.3-0.2,0.5
	c-0.2,0.3-0.6,0.8-1.1,1.5c-0.5,0.7-0.9,1.2-1.2,1.6c0.4,0.7,0.7,1.5,0.9,2.2l4,0.6c0.2,0,0.3,0.1,0.5,0.3
	C37.8,18.2,37.9,18.4,37.9,18.5z"/>
</svg>
