<?xml version="1.0" encoding="utf-8"?>
<!-- Generator: Adobe Illustrator 21.1.0, SVG Export Plug-In . SVG Version: 6.00 Build 0)  -->
<svg version="1.1" id="Ebene_1" xmlns="http://www.w3.org/2000/svg" xmlns:xlink="http://www.w3.org/1999/xlink" x="0px" y="0px"
	 viewBox="0 0 42.5 42.5" style="enable-background:new 0 0 42.5 42.5;" xml:space="preserve">
<path d="M38.4,7H3.7C3,7,2.5,7.5,2.5,8.2V34c0,0.7,0.5,1.2,1.2,1.2h34.7c0.7,0,1.2-0.5,1.2-1.2V8.2C39.6,7.5,39.1,7,38.4,7z
	 M37.2,9.4v21.3L29.1,25l-7.8,4.9L15.7,19L4.9,27.7V9.4H37.2z M22.2,15.7c0-2.2,1.8-4.1,4.1-4.1s4.1,1.8,4.1,4.1s-1.8,4.1-4.1,4.1
	C24,19.8,22.2,18,22.2,15.7z"/>
</svg>
