<?xml version="1.0" encoding="utf-8"?>
<!-- Generator: Adobe Illustrator 21.1.0, SVG Export Plug-In . SVG Version: 6.00 Build 0)  -->
<svg version="1.1" id="Ebene_1" xmlns="http://www.w3.org/2000/svg" xmlns:xlink="http://www.w3.org/1999/xlink" x="0px" y="0px"
	 viewBox="0 0 42.5 42.5" style="enable-background:new 0 0 42.5 42.5;" xml:space="preserve">
<path d="M16.8,22.2c0,0.7-0.2,1.3-0.6,1.7c-0.4,0.4-1,0.7-1.7,0.7c-0.7,0-1.3-0.3-1.7-0.8c-0.4-0.5-0.6-1.1-0.6-1.8
	c0-1.9,0.7-3.3,2.1-4.4H16c-0.6,0.5-1,0.9-1.3,1.2c-0.4,0.5-0.7,0.9-0.9,1.4c0.2-0.2,0.5-0.2,0.8-0.2c0.7,0,1.2,0.2,1.6,0.7
	C16.6,21,16.8,21.5,16.8,22.2z M15.4,22.2c0-0.3-0.1-0.5-0.3-0.7c-0.2-0.2-0.4-0.3-0.7-0.3c-0.3,0-0.5,0.1-0.6,0.3
	c-0.2,0.2-0.2,0.4-0.2,0.7c0,0.3,0.1,0.5,0.3,0.7c0.2,0.2,0.4,0.3,0.6,0.3c0.3,0,0.5-0.1,0.6-0.3C15.3,22.7,15.4,22.4,15.4,22.2z
	 M22.3,21c0,0.9-0.2,1.8-0.6,2.4c-0.5,0.8-1.1,1.2-2,1.2c-0.9,0-1.6-0.4-2-1.2c-0.4-0.6-0.6-1.4-0.6-2.4c0-0.9,0.2-1.8,0.6-2.4
	c0.5-0.8,1.1-1.2,2-1.2c0.9,0,1.6,0.4,2,1.2C22.1,19.2,22.3,20,22.3,21z M20.9,21c0-0.5-0.1-1-0.2-1.4c-0.2-0.6-0.5-0.8-0.9-0.8
	c-0.4,0-0.8,0.3-1,0.8c-0.1,0.4-0.2,0.8-0.2,1.4c0,0.5,0.1,1,0.2,1.4c0.2,0.5,0.5,0.8,1,0.8C20.5,23.2,20.9,22.5,20.9,21z
	 M26.5,20.5c0,0.4-0.1,0.8-0.3,1.1c-0.2,0.3-0.5,0.5-1,0.5c-0.4,0-0.7-0.2-1-0.5C24.1,21.3,24,21,24,20.5c0-0.4,0.1-0.8,0.3-1.1
	c0.2-0.3,0.5-0.5,1-0.5c0.4,0,0.7,0.2,1,0.5C26.4,19.7,26.5,20.1,26.5,20.5z M25.7,20.5c0-0.5-0.1-0.7-0.4-0.7
	c-0.3,0-0.4,0.2-0.4,0.7c0,0.5,0.1,0.7,0.4,0.7C25.5,21.3,25.7,21,25.7,20.5z M28.7,19l-2.5,5.5h-1l2.5-5.5H28.7z M29.8,23
	c0,0.4-0.1,0.8-0.3,1.1c-0.2,0.3-0.5,0.5-1,0.5c-0.4,0-0.7-0.2-1-0.5c-0.2-0.3-0.3-0.6-0.3-1.1c0-0.4,0.1-0.8,0.3-1.1
	c0.2-0.3,0.5-0.5,1-0.5c0.4,0,0.7,0.2,1,0.5C29.7,22.2,29.8,22.6,29.8,23z M29,23c0-0.5-0.1-0.7-0.4-0.7c-0.3,0-0.4,0.2-0.4,0.7
	c0,0.5,0.1,0.7,0.4,0.7C28.8,23.8,29,23.5,29,23z M8.4,28.3c-1.3-2.2-2-4.7-2-7.3s0.7-5.1,2-7.3c1.3-2.2,3.1-4,5.3-5.3
	c2.1-1.2,4.4-1.9,6.9-1.9V4c-2.9,0.1-5.7,0.8-8.2,2.3c-2.6,1.5-4.7,3.6-6.2,6.2C4.8,15.1,4,17.9,4,21c0,3.1,0.8,5.9,2.3,8.5
	c1.2,2,2.7,3.7,4.5,5l1.4-2C10.6,31.4,9.4,30,8.4,28.3z M35.7,29.5c-0.5,0.9-1.1,1.7-1.8,2.5c0,0,0,0.1-0.1,0.1c0,0,0,0,0,0.1
	c-0.3,0.3-0.5,0.6-0.8,0.9c-0.6,0.6-1.2,1.1-1.8,1.6L28.6,31c0.1,0,0.1-0.1,0.2-0.1c0,0,0,0,0.1,0c0,0,0.1-0.1,0.1-0.1
	c0.8-0.6,1.4-1.3,2-2.1c0.1-0.2,0.3-0.4,0.4-0.6c0,0,0,0,0,0c0-0.1,0.1-0.1,0.1-0.2c0,0,0,0,0-0.1c0-0.1,0.1-0.1,0.1-0.2
	c0,0,0-0.1,0.1-0.1c0,0,0.1-0.1,0.1-0.1c0,0,0.1-0.1,0.1-0.1c0,0,0-0.1,0.1-0.1c0-0.1,0.1-0.1,0.1-0.2c0,0,0,0,0-0.1
	c0-0.1,0.1-0.2,0.1-0.2c0,0,0,0,0,0c0.1-0.2,0.2-0.4,0.3-0.6c0.1-0.2,0.2-0.5,0.3-0.7l4.3,1.4c-0.1,0.4-0.3,0.8-0.4,1.1
	C36.4,28.3,36.1,28.9,35.7,29.5z M27.5,36.7c0.7-0.3,1.4-0.6,2-1c0.4-0.2,0.8-0.5,1.2-0.8l-2.6-3.6c0,0-0.1,0-0.1,0.1c0,0,0,0,0,0
	c-0.1,0-0.1,0.1-0.2,0.1c0,0,0,0-0.1,0c-0.1,0-0.1,0.1-0.2,0.1c0,0-0.1,0.1-0.1,0.1c0,0,0,0-0.1,0c-0.5,0.3-1,0.5-1.5,0.7
	c-1,0.4-2.1,0.7-3.2,0.9c-0.5,0.1-0.9,0.1-1.4,0.1V38c0.4,0,0.7,0,1.1-0.1c1.5-0.1,3-0.5,4.4-1c0,0,0,0,0,0c0.1,0,0.1,0,0.2-0.1
	c0,0,0.1,0,0.1,0c0,0,0.1,0,0.1,0C27.4,36.8,27.4,36.8,27.5,36.7C27.5,36.7,27.5,36.7,27.5,36.7z M19.7,38c0.3,0,0.6,0,1,0v-4.5
	c-0.4,0-0.8,0-1.3-0.1c0,0,0,0,0,0c0,0-0.1,0-0.1,0c-1.1-0.1-2.2-0.4-3.2-0.9c-0.5-0.2-1-0.5-1.5-0.7c0,0,0,0,0,0
	c-0.2-0.1-0.3-0.2-0.5-0.3c0,0-0.1-0.1-0.1-0.1c0,0-0.1,0-0.1-0.1c0,0-0.1,0-0.1-0.1l-2.6,3.6c0.4,0.3,0.8,0.5,1.2,0.8
	c0.6,0.3,1.1,0.6,1.7,0.9c0,0,0,0,0,0c0.1,0,0.1,0.1,0.2,0.1c0,0,0.1,0,0.1,0c0,0,0.1,0,0.1,0c0.1,0,0.1,0,0.2,0.1c0,0,0,0,0,0
	c1.5,0.6,3.1,0.9,4.7,1.1C19.6,38,19.7,38,19.7,38C19.7,38,19.7,38,19.7,38z M22.3,4c-0.3,0-0.6,0-1,0v4.5c0.4,0,0.8,0,1.3,0.1
	c0,0,0,0,0,0c0,0,0.1,0,0.1,0c1.1,0.1,2.2,0.4,3.2,0.9c0.5,0.2,1,0.5,1.5,0.7c0,0,0,0,0,0c0.1,0.1,0.2,0.1,0.3,0.2c0,0,0,0,0,0
	c0,0,0.1,0,0.1,0.1c0,0,0.1,0.1,0.1,0.1c0,0,0,0,0.1,0c0,0,0.1,0,0.1,0.1l2.6-3.6c-0.4-0.3-0.8-0.5-1.2-0.8
	c-0.6-0.3-1.1-0.6-1.7-0.9c0,0,0,0,0,0c-0.1,0-0.1-0.1-0.2-0.1c0,0-0.1,0-0.1,0c0,0-0.1,0-0.1-0.1c-0.1,0-0.1,0-0.2-0.1c0,0,0,0,0,0
	c-1.5-0.6-3.1-0.9-4.7-1.1C22.4,4.1,22.3,4,22.3,4C22.3,4,22.3,4,22.3,4z M31.3,7.4L28.6,11c0.1,0,0.1,0.1,0.2,0.1
	c0,0,0.1,0,0.1,0.1c0,0,0.1,0,0.1,0.1c0.8,0.6,1.4,1.3,2,2.1c0.1,0.2,0.3,0.4,0.4,0.6c0,0,0,0,0,0c0,0.1,0.1,0.1,0.1,0.2
	c0,0,0,0,0,0.1c0,0.1,0.1,0.1,0.1,0.2c0,0,0,0.1,0.1,0.1c0,0,0.1,0.1,0.1,0.1c0,0,0.1,0.1,0.1,0.1c0,0,0,0.1,0.1,0.1
	c0,0.1,0.1,0.1,0.1,0.2c0,0,0,0,0,0.1c0,0.1,0.1,0.2,0.1,0.2c0,0,0,0,0,0c0.1,0.2,0.2,0.4,0.3,0.6c0.1,0.2,0.2,0.5,0.3,0.7l4.3-1.4
	c-0.1-0.4-0.3-0.8-0.4-1.1c-0.3-0.6-0.6-1.2-0.9-1.8c-0.5-0.9-1.1-1.7-1.8-2.5c0,0,0,0-0.1-0.1c0,0,0-0.1-0.1-0.1
	C33.6,9.5,33.3,9.3,33,9C32.5,8.4,31.9,7.9,31.3,7.4z M37.9,19c-0.1-0.8-0.2-1.6-0.5-2.4c-0.1-0.2-0.1-0.4-0.2-0.6L33,17.4
	c0,0.1,0,0.1,0.1,0.2c0,0,0,0,0,0c0,0,0,0.1,0,0.1c0,0,0,0.1,0,0.1c0,0,0,0,0,0c0.1,0.5,0.2,1,0.3,1.6c0.1,0.4,0.1,0.9,0.1,1.3
	c0,0,0,0,0,0c0,0,0,0.1,0,0.1c0,0,0,0,0,0.1c0,0,0,0.1,0,0.1c0,0,0,0.1,0,0.1c0,0,0,0,0,0.1c0,0,0,0.1,0,0.1c0,0,0,0,0,0
	c0,0.4,0,0.9-0.1,1.3c-0.1,0.5-0.2,1-0.3,1.6c0,0,0,0,0,0c0,0,0,0.1,0,0.1c0,0,0,0.1,0,0.1c0,0,0,0,0,0c0,0.1,0,0.1-0.1,0.2l4.2,1.4
	c0.1-0.2,0.1-0.4,0.2-0.6c0.2-0.8,0.4-1.6,0.5-2.4c0.1-0.7,0.1-1.4,0.1-2C38,20.3,38,19.6,37.9,19z"/>
</svg>
