<?xml version="1.0" encoding="utf-8"?>
<!-- Generator: Adobe Illustrator 21.1.0, SVG Export Plug-In . SVG Version: 6.00 Build 0)  -->
<svg version="1.1" id="Ebene_1" xmlns="http://www.w3.org/2000/svg" xmlns:xlink="http://www.w3.org/1999/xlink" x="0px" y="0px"
	 viewBox="0 0 42.5 42.5" style="enable-background:new 0 0 42.5 42.5;" xml:space="preserve">
<path d="M32.7,30.4c0-0.2-0.1-0.3-0.2-0.5L21.3,18.8c0.4-1,0.7-2.2,0.7-3.3c0-2.3-0.9-4.4-2.5-6c-1.6-1.6-3.7-2.5-6-2.5
	c-2.3,0-4.4,0.9-6,2.5c-3.3,3.3-3.3,8.7,0,12c1.6,1.6,3.7,2.5,6,2.5c1.2,0,2.3-0.2,3.3-0.7l3.7,3.7c0.2,0.2,0.4,0.2,0.6,0.2l2-0.1
	l-0.1,2c0,0.2,0.1,0.4,0.2,0.6c0.1,0.2,0.4,0.2,0.6,0.2l2-0.1l-0.1,2c0,0.2,0.1,0.4,0.2,0.6c0.2,0.2,0.3,0.2,0.6,0.2l2-0.1l-0.1,2
	c0,0.2,0.1,0.4,0.2,0.6c0.1,0.1,0.3,0.2,0.5,0.2c0,0,0.1,0,0.1,0l3.1-0.3c0.4,0,0.7-0.4,0.7-0.8L32.7,30.4z M12.4,14.5
	c-0.9,0.9-2.5,0.9-3.4,0C8.1,13.5,8.1,12,9,11c0.9-0.9,2.5-0.9,3.4,0C13.4,12,13.4,13.5,12.4,14.5L12.4,14.5z M30,30.7
	c-0.1,0.1-0.3,0.2-0.4,0.2c-0.1,0-0.3-0.1-0.4-0.2l-9.5-9.5c0.3-0.3,0.5-0.6,0.7-0.9l9.6,9.6C30.3,30.1,30.3,30.5,30,30.7L30,30.7z
	 M30,30.7 M25.6,17.1c-0.1-0.1-0.2-0.3-0.2-0.4v-1.2c0-0.2,0.1-0.3,0.2-0.4s0.3-0.2,0.4-0.2h4.3v-4.3c0-0.2,0.1-0.3,0.2-0.4
	s0.3-0.2,0.4-0.2h1.2c0.2,0,0.3,0.1,0.4,0.2s0.2,0.3,0.2,0.4v4.3h4.3c0.2,0,0.3,0.1,0.4,0.2s0.2,0.3,0.2,0.4v1.2
	c0,0.2-0.1,0.3-0.2,0.4s-0.3,0.2-0.4,0.2h-4.3v4.3c0,0.2-0.1,0.3-0.2,0.4s-0.3,0.2-0.4,0.2h-1.2c-0.2,0-0.3-0.1-0.4-0.2
	s-0.2-0.3-0.2-0.4v-4.3H26C25.8,17.2,25.7,17.2,25.6,17.1z"/>
</svg>
