<?xml version="1.0" encoding="utf-8"?>
<!-- Generator: Adobe Illustrator 21.1.0, SVG Export Plug-In . SVG Version: 6.00 Build 0)  -->
<svg version="1.1" id="Ebene_1" xmlns="http://www.w3.org/2000/svg" xmlns:xlink="http://www.w3.org/1999/xlink" x="0px" y="0px"
	 viewBox="0 0 42.5 42.5" style="enable-background:new 0 0 42.5 42.5;" xml:space="preserve">
<style type="text/css">
	.st0{fill:#E4003A;}
</style>
<rect x="7.3" y="34.3" class="st0" width="28.8" height="2.4"/>
<path d="M7.3,32.9v-0.8c1.1-0.1,1.9-0.5,2.4-1.2c0.5-0.7,1.5-2.6,2.7-5.6L21.1,5H22l10.4,23.6c0.7,1.6,1.2,2.5,1.7,2.9
	c0.4,0.4,1.1,0.6,2.1,0.8v0.8H25.5v-0.8c1.2-0.1,2-0.2,2.3-0.4c0.4-0.2,0.5-0.5,0.5-1.1c0-0.2-0.1-0.6-0.2-1.1s-0.3-1.1-0.6-1.6
	l-1.7-4H15c-1.1,2.7-1.7,4.4-1.9,5s-0.3,1.1-0.3,1.4c0,0.7,0.3,1.2,0.9,1.5c0.4,0.2,1,0.3,2,0.4v0.8H7.3V32.9z M25.2,22.3l-4.8-11.4
	l-4.8,11.4H25.2z"/>
</svg>
