<?xml version="1.0" encoding="utf-8"?>
<!-- Generator: Adobe Illustrator 21.1.0, SVG Export Plug-In . SVG Version: 6.00 Build 0)  -->
<svg version="1.1" id="Ebene_1" xmlns="http://www.w3.org/2000/svg" xmlns:xlink="http://www.w3.org/1999/xlink" x="0px" y="0px"
	 viewBox="0 0 42.5 42.5" style="enable-background:new 0 0 42.5 42.5;" xml:space="preserve">
<path d="M12.7,9.1l-1.4-2c0.4-0.3,0.8-0.5,1.2-0.8C15,4.8,17.7,4.1,20.6,4l0.1,2.4c-2.5,0.1-4.8,0.7-7,1.9C13.3,8.6,13,8.8,12.7,9.1
	z M16.3,18.2c-0.4-0.5-1-0.8-1.7-0.8c-0.7,0-1.3,0.2-1.7,0.7c-0.4,0.5-0.6,1-0.6,1.8c0,0.7,0.2,1.2,0.6,1.6c0.4,0.4,0.9,0.6,1.6,0.6
	c0.3,0,0.6-0.1,0.8-0.2c-0.2,0.5-0.5,1-0.9,1.4c-0.3,0.3-0.7,0.7-1.3,1.1h1.8c1.3-1,2-2.5,2-4.4C16.9,19.4,16.7,18.7,16.3,18.2z
	 M15.1,20.5c-0.2,0.2-0.4,0.3-0.7,0.3c-0.3,0-0.5-0.1-0.7-0.3c-0.2-0.2-0.3-0.4-0.3-0.7c0-0.3,0.1-0.5,0.3-0.7
	c0.2-0.2,0.4-0.3,0.6-0.3c0.3,0,0.5,0.1,0.6,0.3c0.2,0.2,0.3,0.4,0.3,0.7C15.4,20,15.3,20.3,15.1,20.5z M21.7,18.6
	c-0.5-0.8-1.1-1.2-2-1.2c-0.9,0-1.6,0.4-2,1.2c-0.4,0.7-0.6,1.5-0.6,2.4c0,0.9,0.2,1.7,0.6,2.4c0.5,0.8,1.1,1.2,2,1.2
	c0.9,0,1.6-0.4,2-1.2c0.4-0.7,0.6-1.5,0.6-2.4C22.3,20,22.1,19.2,21.7,18.6z M19.7,23.2c-0.4,0-0.8-0.3-1-0.8
	c-0.1-0.4-0.2-0.8-0.2-1.4c0-0.6,0.1-1,0.2-1.4c0.2-0.5,0.5-0.8,1-0.8c0.4,0,0.7,0.3,0.9,0.8c0.1,0.4,0.2,0.8,0.2,1.4
	C20.8,22.5,20.5,23.2,19.7,23.2z M26.2,19.4c-0.2-0.3-0.5-0.5-1-0.5c-0.4,0-0.7,0.2-1,0.5c-0.2,0.3-0.3,0.6-0.3,1.1
	c0,0.4,0.1,0.8,0.3,1.1c0.2,0.3,0.5,0.5,1,0.5c0.4,0,0.7-0.2,1-0.5c0.2-0.3,0.3-0.6,0.3-1.1C26.5,20.1,26.4,19.7,26.2,19.4z
	 M25.3,21.3c-0.3,0-0.4-0.2-0.4-0.7c0-0.5,0.1-0.7,0.4-0.7c0.3,0,0.4,0.2,0.4,0.7C25.7,21,25.5,21.3,25.3,21.3z M27.6,19l-2.5,5.5h1
	l2.5-5.5H27.6z M29.5,21.9c-0.2-0.3-0.5-0.5-1-0.5c-0.4,0-0.7,0.2-1,0.5c-0.2,0.3-0.3,0.6-0.3,1.1c0,0.4,0.1,0.8,0.3,1.1
	c0.2,0.3,0.5,0.5,1,0.5c0.4,0,0.7-0.2,1-0.5c0.2-0.3,0.3-0.6,0.3-1.1C29.8,22.6,29.7,22.2,29.5,21.9z M28.6,23.8
	c-0.3,0-0.4-0.2-0.4-0.7c0-0.5,0.1-0.7,0.4-0.7c0.3,0,0.4,0.2,0.4,0.7C29,23.5,28.8,23.8,28.6,23.8z M36.7,27.7
	c0.2-0.4,0.3-0.7,0.4-1.1l-4.3-1.4c-0.1,0.2-0.2,0.5-0.3,0.7c-0.1,0.2-0.2,0.4-0.3,0.6c0,0,0,0,0,0c0,0.1-0.1,0.2-0.1,0.2
	c0,0,0,0,0,0.1c0,0.1-0.1,0.1-0.1,0.2c0,0,0,0.1-0.1,0.1c0,0-0.1,0.1-0.1,0.1c0,0-0.1,0.1-0.1,0.1c0,0,0,0.1-0.1,0.1
	c0,0.1-0.1,0.1-0.1,0.2c0,0,0,0,0,0.1c0,0.1-0.1,0.1-0.1,0.2c0,0,0,0,0,0c-0.1,0.2-0.3,0.4-0.4,0.6c-0.6,0.8-1.3,1.5-2,2.1
	c0,0-0.1,0.1-0.1,0.1c0,0,0,0-0.1,0c-0.1,0-0.1,0.1-0.2,0.1l2.6,3.6c0.6-0.5,1.2-1,1.8-1.6c0.3-0.3,0.6-0.6,0.8-0.9c0,0,0,0,0-0.1
	c0,0,0-0.1,0.1-0.1c0.7-0.8,1.3-1.6,1.8-2.5C36.1,28.9,36.4,28.3,36.7,27.7z M27.5,36.7c-0.1,0-0.1,0.1-0.2,0.1c0,0-0.1,0-0.1,0
	c0,0-0.1,0-0.1,0c-0.1,0-0.1,0-0.2,0.1c0,0,0,0,0,0c-1.4,0.5-2.9,0.9-4.4,1c-0.4,0-0.7,0-1.1,0.1v-4.5c0.5,0,0.9,0,1.4-0.1
	c1.1-0.1,2.2-0.4,3.2-0.9c0.5-0.2,1-0.5,1.5-0.7c0,0,0,0,0.1,0c0,0,0.1-0.1,0.1-0.1c0.1,0,0.1-0.1,0.2-0.1c0,0,0,0,0.1,0
	c0.1,0,0.1-0.1,0.2-0.1c0,0,0,0,0,0c0,0,0.1,0,0.1-0.1l2.6,3.6c-0.4,0.3-0.8,0.5-1.2,0.8C28.9,36.1,28.2,36.4,27.5,36.7
	C27.5,36.7,27.5,36.7,27.5,36.7z M19.7,38c0,0-0.1,0-0.1,0c-1.6-0.1-3.2-0.5-4.7-1.1c0,0,0,0,0,0c-0.1,0-0.1,0-0.2-0.1
	c0,0-0.1,0-0.1,0c0,0-0.1,0-0.1,0c-0.1,0-0.1-0.1-0.2-0.1c0,0,0,0,0,0c-0.6-0.3-1.2-0.5-1.7-0.9c-0.4-0.2-0.8-0.5-1.2-0.8l2.6-3.6
	c0,0,0.1,0,0.1,0.1c0,0,0.1,0,0.1,0.1c0,0,0.1,0.1,0.1,0.1c0.2,0.1,0.3,0.2,0.5,0.3c0,0,0,0,0,0c0.5,0.3,1,0.5,1.5,0.7
	c1,0.4,2.1,0.7,3.2,0.9c0,0,0.1,0,0.1,0c0,0,0,0,0,0c0.4,0.1,0.8,0.1,1.3,0.1V38C20.4,38,20.1,38,19.7,38C19.7,38,19.7,38,19.7,38z
	 M9,33c-0.3-0.3-0.5-0.6-0.8-0.9c0,0,0-0.1-0.1-0.1c0,0,0,0-0.1-0.1c-0.7-0.8-1.3-1.6-1.8-2.5c-0.3-0.6-0.6-1.2-0.9-1.8
	c-0.2-0.4-0.3-0.7-0.4-1.1l4.3-1.4c0.1,0.2,0.2,0.5,0.3,0.7c0.1,0.2,0.2,0.4,0.3,0.6c0,0,0,0,0,0c0,0.1,0.1,0.2,0.1,0.2
	c0,0,0,0,0,0.1C9.9,26.9,10,27,10,27c0,0,0,0.1,0.1,0.1c0,0,0.1,0.1,0.1,0.1c0,0,0.1,0.1,0.1,0.1c0,0,0,0.1,0.1,0.1
	c0,0.1,0.1,0.1,0.1,0.2c0,0,0,0,0,0.1c0,0.1,0.1,0.1,0.1,0.2c0,0,0,0,0,0c0.1,0.2,0.3,0.4,0.4,0.6c0.6,0.8,1.3,1.5,2,2.1
	c0,0,0.1,0,0.1,0.1c0,0,0.1,0,0.1,0.1c0.1,0,0.1,0.1,0.2,0.1l-2.6,3.6C10.1,34.1,9.5,33.6,9,33z M6.3,12.5C6.8,11.6,7.4,10.8,8,10
	c0,0,0-0.1,0.1-0.1c0,0,0,0,0.1-0.1C8.4,9.5,8.7,9.3,9,9c0.6-0.6,1.2-1.1,1.8-1.6l2.6,3.6c-0.1,0-0.1,0.1-0.2,0.1c0,0,0,0-0.1,0.1
	c0,0-0.1,0.1-0.1,0.1c-0.8,0.6-1.4,1.3-2,2.1c-0.1,0.2-0.3,0.4-0.4,0.6c0,0,0,0,0,0c0,0.1-0.1,0.1-0.1,0.2c0,0,0,0,0,0.1
	c0,0.1-0.1,0.1-0.1,0.2c0,0,0,0.1-0.1,0.1c0,0-0.1,0.1-0.1,0.1c0,0-0.1,0.1-0.1,0.1c0,0,0,0.1-0.1,0.1c0,0.1-0.1,0.1-0.1,0.2
	c0,0,0,0,0,0.1c0,0.1-0.1,0.2-0.1,0.2c0,0,0,0,0,0c-0.1,0.2-0.2,0.4-0.3,0.6c-0.1,0.2-0.2,0.5-0.3,0.7l-4.3-1.4
	c0.1-0.4,0.3-0.8,0.4-1.1C5.6,13.7,5.9,13.1,6.3,12.5z M22.3,4c0,0,0.1,0,0.1,0c1.6,0.1,3.2,0.5,4.7,1.1c0,0,0,0,0,0
	c0.1,0,0.1,0,0.2,0.1c0,0,0.1,0,0.1,0.1c0,0,0.1,0,0.1,0c0.1,0,0.1,0.1,0.2,0.1c0,0,0,0,0,0c0.6,0.3,1.2,0.6,1.7,0.9
	c0.4,0.2,0.8,0.5,1.2,0.8l-2.6,3.6c0,0-0.1,0-0.1-0.1c0,0,0,0-0.1,0c0,0-0.1-0.1-0.1-0.1c0,0-0.1,0-0.1-0.1c0,0,0,0,0,0
	c-0.1-0.1-0.2-0.1-0.3-0.2c0,0,0,0,0,0c-0.5-0.3-1-0.5-1.5-0.7c-1-0.4-2.1-0.7-3.2-0.9c0,0-0.1,0-0.1,0c0,0,0,0,0,0
	c-0.4-0.1-0.8-0.1-1.3-0.1V4C21.6,4,22,4,22.3,4C22.3,4,22.3,4,22.3,4z M33,9c0.3,0.3,0.5,0.6,0.8,0.9c0,0,0,0.1,0.1,0.1
	c0,0,0,0,0.1,0.1c0.7,0.8,1.3,1.6,1.8,2.5c0.3,0.6,0.6,1.2,0.9,1.8c0.2,0.4,0.3,0.7,0.4,1.1l-4.3,1.4c-0.1-0.2-0.2-0.5-0.3-0.7
	c-0.1-0.2-0.2-0.4-0.3-0.6c0,0,0,0,0,0c0-0.1-0.1-0.2-0.1-0.2c0,0,0,0,0-0.1c0-0.1-0.1-0.1-0.1-0.2c0,0,0-0.1-0.1-0.1
	c0,0-0.1-0.1-0.1-0.1c0,0-0.1-0.1-0.1-0.1c0,0,0-0.1-0.1-0.1c0-0.1-0.1-0.1-0.1-0.2c0,0,0,0,0-0.1c0-0.1-0.1-0.1-0.1-0.2
	c0,0,0,0,0,0c-0.1-0.2-0.3-0.4-0.4-0.6c-0.6-0.8-1.3-1.5-2-2.1c0,0-0.1,0-0.1-0.1c0,0-0.1,0-0.1-0.1c-0.1,0-0.1-0.1-0.2-0.1l2.6-3.6
	C31.9,7.9,32.5,8.4,33,9z M38,21c0,0.7,0,1.4-0.1,2c-0.1,0.8-0.2,1.6-0.5,2.4c-0.1,0.2-0.1,0.4-0.2,0.6L33,24.6c0-0.1,0-0.1,0.1-0.2
	c0,0,0,0,0,0c0,0,0-0.1,0-0.1c0,0,0-0.1,0-0.1c0,0,0,0,0,0c0.1-0.5,0.2-1,0.3-1.6c0.1-0.4,0.1-0.9,0.1-1.3c0,0,0,0,0,0
	c0,0,0-0.1,0-0.1c0,0,0,0,0-0.1c0,0,0-0.1,0-0.1c0,0,0-0.1,0-0.1c0,0,0,0,0-0.1c0,0,0-0.1,0-0.1c0,0,0,0,0,0c0-0.4,0-0.9-0.1-1.3
	c-0.1-0.5-0.2-1-0.3-1.6c0,0,0,0,0,0c0,0,0-0.1,0-0.1c0,0,0-0.1,0-0.1c0,0,0,0,0,0c0-0.1,0-0.1-0.1-0.2l4.2-1.4
	c0.1,0.2,0.1,0.4,0.2,0.6c0.2,0.8,0.4,1.6,0.5,2.4C38,19.6,38,20.3,38,21z M8.9,17.6C8.9,17.6,8.9,17.6,8.9,17.6c0,0.1,0,0.1,0,0.1
	c0,0,0,0.1,0,0.1c0,0,0,0,0,0c-0.1,0.5-0.2,1-0.3,1.6c-0.1,0.4-0.1,0.9-0.1,1.3c0,0,0,0,0,0c0,0,0,0.1,0,0.1c0,0,0,0,0,0.1
	c0,0,0,0.1,0,0.1c0,0,0,0.1,0,0.1c0,0,0,0,0,0.1c0,0,0,0.1,0,0.1c0,0,0,0,0,0c0,0.4,0,0.9,0.1,1.3c0.1,0.5,0.2,1,0.3,1.6
	c0,0,0,0,0,0c0,0,0,0.1,0,0.1c0,0,0,0.1,0,0.1c0,0,0,0,0,0c0,0.1,0,0.1,0.1,0.2L4.7,26c-0.1-0.2-0.1-0.4-0.2-0.6
	c-0.2-0.8-0.4-1.6-0.5-2.4C4,22.4,4,21.7,4,21c0-0.7,0-1.4,0.1-2c0.1-0.8,0.2-1.6,0.5-2.4c0.1-0.2,0.1-0.4,0.2-0.6L9,17.4
	C9,17.5,9,17.6,8.9,17.6z"/>
</svg>
