<?xml version="1.0" encoding="utf-8"?>
<!-- Generator: Adobe Illustrator 23.0.1, SVG Export Plug-In . SVG Version: 6.00 Build 0)  -->
<svg version="1.1" id="Ebene_1" xmlns="http://www.w3.org/2000/svg" xmlns:xlink="http://www.w3.org/1999/xlink" x="0px" y="0px"
	 viewBox="0 0 42.52 42.52" style="enable-background:new 0 0 42.52 42.52;" xml:space="preserve">
<style type="text/css">
	.st0{fill:#808080;}
	.st1{fill-rule:evenodd;clip-rule:evenodd;}
</style>
<path class="st0" d="M23.86,32c0.31-0.41,0.5-0.87,0.59-1.35c0.22-1.19-0.23-2.45-1.26-3.22c-0.2-0.15-0.43-0.28-0.64-0.37
	L9.07,21.22l-5.13-2.23l-3.18-1.38c-0.37-0.16-0.69,0.1-0.75,0.41c-0.03,0.18,0.02,0.38,0.21,0.52l2.9,2.15l4.27,3.17l11.91,8.83
	C20.75,33.75,22.79,33.44,23.86,32L23.86,32z M19.61,29.63c0.16-0.87,0.99-1.44,1.86-1.28c0.87,0.16,1.44,0.99,1.28,1.86
	c-0.16,0.87-0.99,1.44-1.86,1.28C20.03,31.34,19.45,30.5,19.61,29.63L19.61,29.63z M19.61,29.63"/>
<path class="st1" d="M10.55,26.91c-0.02,0.04,0,0.11-0.03,0.15L0,22.68c0.31-0.8,0.74-1.68,1.13-2.43L10.55,26.91z"/>
<path class="st1" d="M2.72,17.59c4.13-5.8,10.88-9.51,18.54-9.51l0,0c9.69,0,17.97,6.06,21.26,14.6l-10.63,4.09
	c-1.64-4.27-5.78-7.3-10.62-7.3c-2.93,0-5.61,1.11-7.62,2.93"/>
</svg>
