<?xml version="1.0" encoding="utf-8"?>
<!-- Generator: Adobe Illustrator 21.1.0, SVG Export Plug-In . SVG Version: 6.00 Build 0)  -->
<svg version="1.1" id="Ebene_1" xmlns="http://www.w3.org/2000/svg" xmlns:xlink="http://www.w3.org/1999/xlink" x="0px" y="0px"
	 viewBox="0 0 42.5 42.5" style="enable-background:new 0 0 42.5 42.5;" xml:space="preserve">
<path d="M31.2,29.1c4.5-6.1,3.9-14.7-1.7-20C23.4,3.4,13.9,3.7,8.1,9.7c-5.7,6.1-5.5,15.6,0.6,21.4c5.6,5.3,14.3,5.5,20.1,0.7
	 M10.6,29.1c-4.9-4.7-5.2-12.5-0.5-17.5c4.7-4.9,12.5-5.2,17.5-0.5c4.9,4.7,5.2,12.5,0.5,17.5C23.4,33.6,15.6,33.8,10.6,29.1z
	 M31.2,29.1l7.2,6.8c0.4,0.3,0.5,0.8,0.6,1.2c0,0.5-0.2,0.9-0.5,1.3S37.7,39,37.2,39c-0.5,0-0.9-0.2-1.3-0.5l-7.2-6.8"/>
</svg>
