<?xml version="1.0" encoding="utf-8"?>
<!-- Generator: Adobe Illustrator 23.0.1, SVG Export Plug-In . SVG Version: 6.00 Build 0)  -->
<svg version="1.1" id="Ebene_1" xmlns="http://www.w3.org/2000/svg" xmlns:xlink="http://www.w3.org/1999/xlink" x="0px" y="0px"
	 viewBox="0 0 42.52 42.52" style="enable-background:new 0 0 42.52 42.52;" xml:space="preserve">
<style type="text/css">
	.st0{fill:#FFFFFF;}
</style>
<g>
	<g>
		<g>
			<path class="st0" d="M20.36,27.12c-0.53-0.09-0.89-0.55-0.82-1.05l0.49-3.26l-2.45-2.36c-0.38-0.36-0.38-0.93,0-1.3l0.03-0.03
				H9.39v-3.46c0-1.89,0.59-3.46,1.85-4.8c1.26-1.34,2.66-1.97,4.43-1.97c1.77,0,2.96,0.63,4.21,1.97c0.33,0.35,0.61,0.72,0.85,1.1
				l3.08-0.62c-0.44-0.97-1.07-1.87-1.87-2.67C20.19,6.92,18.1,6,15.6,6s-4.59,1-6.34,2.75c-1.75,1.75-2.67,3.84-2.67,6.34v3.84
				H5.92c-0.5,0-0.92,0.17-1.34,0.58C4.17,19.85,4,20.35,4,20.85v11.6c0,0.5,0.17,0.92,0.58,1.34c0.33,0.42,0.83,0.58,1.34,0.58
				h16.76V27.5L20.36,27.12z"/>
		</g>
		<path class="st0" d="M33.78,21.97"/>
		<path class="st0" d="M39.57,19.22l-1.91-1.97l0.38-2.72c0.06-0.42-0.22-0.8-0.64-0.88l-2.7-0.47l-1.29-2.43
			c-0.2-0.37-0.65-0.52-1.03-0.33l-2.47,1.21l-2.47-1.21c-0.38-0.18-0.83-0.04-1.03,0.33l-1.29,2.43l-2.7,0.47
			c-0.41,0.07-0.7,0.46-0.64,0.88l0.38,2.72l-1.91,1.97c-0.29,0.3-0.29,0.78,0,1.08l1.91,1.97L21.8,25
			c-0.06,0.42,0.22,0.8,0.64,0.88l2.16,0.38v8.42c0,0.27,0.14,0.52,0.37,0.66c0.12,0.08,0.27,0.12,0.41,0.12
			c0.12,0,0.24-0.03,0.35-0.08l4.2-2.1l4.2,2.1c0.24,0.12,0.53,0.11,0.76-0.03c0.23-0.14,0.37-0.39,0.37-0.66v-8.42l2.16-0.38
			c0.41-0.07,0.7-0.46,0.64-0.88l-0.38-2.72l1.91-1.97C39.86,20.01,39.86,19.53,39.57,19.22L39.57,19.22z"/>
		<path class="st0" d="M30.23,31.58c-0.19-0.1-0.42-0.1-0.61,0l-3,1.5v-4.52l0.24,0.45c0.17,0.33,0.57,0.46,0.9,0.29l2.17-1.06
			l2.16,1.06c0.1,0.05,0.2,0.07,0.3,0.07c0.24,0,0.48-0.13,0.6-0.36l0.24-0.45v4.52L30.23,31.58z"/>
		<path class="st0" d="M35.57,21.28c-0.15,0.15-0.22,0.37-0.19,0.58l0.3,2.09l-2.08,0.36c-0.21,0.04-0.39,0.17-0.49,0.36l-0.99,1.86
			l-1.89-0.93c-0.1-0.05-0.2-0.07-0.3-0.07c-0.1,0-0.21,0.02-0.3,0.07l-1.89,0.93l-0.99-1.86c-0.1-0.19-0.28-0.32-0.49-0.36
			l-2.08-0.36l0.3-2.09c0.03-0.21-0.04-0.42-0.19-0.58l-1.47-1.51l1.47-1.51c0.15-0.15,0.22-0.37,0.19-0.58l-0.3-2.09l2.08-0.36
			c0.21-0.04,0.39-0.17,0.49-0.36L27.73,13l1.89,0.93c0.19,0.09,0.42,0.09,0.61,0L32.12,13l0.99,1.86c0.1,0.19,0.28,0.32,0.49,0.36
			l2.08,0.36l-0.3,2.09c-0.03,0.21,0.04,0.42,0.19,0.58l1.47,1.51L35.57,21.28z"/>
	</g>
	<g>
		<g>
			<path d="M20.36,27.12c-0.53-0.09-0.89-0.55-0.82-1.05l0.49-3.26l-2.45-2.36c-0.38-0.36-0.38-0.93,0-1.3l0.03-0.03H9.39v-3.46
				c0-1.89,0.59-3.46,1.85-4.8c1.26-1.34,2.66-1.97,4.43-1.97c1.77,0,2.96,0.63,4.21,1.97c0.33,0.35,0.61,0.72,0.85,1.1l3.08-0.62
				c-0.44-0.97-1.07-1.87-1.87-2.67C20.19,6.92,18.1,6,15.6,6s-4.59,1-6.34,2.75c-1.75,1.75-2.67,3.84-2.67,6.34v3.84H5.92
				c-0.5,0-0.92,0.17-1.34,0.58C4.17,19.85,4,20.35,4,20.85v11.6c0,0.5,0.17,0.92,0.58,1.34c0.33,0.42,0.83,0.58,1.34,0.58h16.76
				V27.5L20.36,27.12z"/>
		</g>
		<path d="M33.78,21.97"/>
		<path d="M39.57,19.22l-1.91-1.97l0.38-2.72c0.06-0.42-0.22-0.8-0.64-0.88l-2.7-0.47l-1.29-2.43c-0.2-0.37-0.65-0.52-1.03-0.33
			l-2.47,1.21l-2.47-1.21c-0.38-0.18-0.83-0.04-1.03,0.33l-1.29,2.43l-2.7,0.47c-0.41,0.07-0.7,0.46-0.64,0.88l0.38,2.72l-1.91,1.97
			c-0.29,0.3-0.29,0.78,0,1.08l1.91,1.97L21.8,25c-0.06,0.42,0.22,0.8,0.64,0.88l2.16,0.38v8.42c0,0.27,0.14,0.52,0.37,0.66
			c0.12,0.08,0.27,0.12,0.41,0.12c0.12,0,0.24-0.03,0.35-0.08l4.2-2.1l4.2,2.1c0.24,0.12,0.53,0.11,0.76-0.03
			c0.23-0.14,0.37-0.39,0.37-0.66v-8.42l2.16-0.38c0.41-0.07,0.7-0.46,0.64-0.88l-0.38-2.72l1.91-1.97
			C39.86,20.01,39.86,19.53,39.57,19.22L39.57,19.22z"/>
		<path class="st0" d="M30.23,31.58c-0.19-0.1-0.42-0.1-0.61,0l-3,1.5v-4.52l0.24,0.45c0.17,0.33,0.57,0.46,0.9,0.29l2.17-1.06
			l2.16,1.06c0.1,0.05,0.2,0.07,0.3,0.07c0.24,0,0.48-0.13,0.6-0.36l0.24-0.45v4.52L30.23,31.58z"/>
		<path class="st0" d="M35.57,21.28c-0.15,0.15-0.22,0.37-0.19,0.58l0.3,2.09l-2.08,0.36c-0.21,0.04-0.39,0.17-0.49,0.36l-0.99,1.86
			l-1.89-0.93c-0.1-0.05-0.2-0.07-0.3-0.07c-0.1,0-0.21,0.02-0.3,0.07l-1.89,0.93l-0.99-1.86c-0.1-0.19-0.28-0.32-0.49-0.36
			l-2.08-0.36l0.3-2.09c0.03-0.21-0.04-0.42-0.19-0.58l-1.47-1.51l1.47-1.51c0.15-0.15,0.22-0.37,0.19-0.58l-0.3-2.09l2.08-0.36
			c0.21-0.04,0.39-0.17,0.49-0.36L27.73,13l1.89,0.93c0.19,0.09,0.42,0.09,0.61,0L32.12,13l0.99,1.86c0.1,0.19,0.28,0.32,0.49,0.36
			l2.08,0.36l-0.3,2.09c-0.03,0.21,0.04,0.42,0.19,0.58l1.47,1.51L35.57,21.28z"/>
	</g>
</g>
</svg>
