<?xml version="1.0" encoding="utf-8"?>
<!-- Generator: Adobe Illustrator 21.1.0, SVG Export Plug-In . SVG Version: 6.00 Build 0)  -->
<svg version="1.1" id="Ebene_1" xmlns="http://www.w3.org/2000/svg" xmlns:xlink="http://www.w3.org/1999/xlink" x="0px" y="0px"
	 viewBox="0 0 42.5 42.5" style="enable-background:new 0 0 42.5 42.5;" xml:space="preserve">
<style type="text/css">
	.st0{fill:#FFFFFF;}
</style>
<path d="M7.5,38c-0.7,0-1.2-0.2-1.7-0.7C5.3,36.8,5,36.2,5,35.6V11.3c0-0.7,0.2-1.2,0.7-1.7c0.5-0.5,1.1-0.7,1.7-0.7h2.4V7
	c0-0.8,0.3-1.6,0.9-2.1S12.1,4,12.9,4h1.2c0.8,0,1.6,0.3,2.1,0.9c0.6,0.6,0.9,1.3,0.9,2.1v1.8h7.3V7c0-0.8,0.3-1.6,0.9-2.1
	C26,4.3,26.7,4,27.5,4h1.2c0.8,0,1.6,0.3,2.1,0.9s0.9,1.3,0.9,2.1v1.8h2.4c0.7,0,1.2,0.2,1.7,0.7c0.5,0.5,0.7,1.1,0.7,1.7v24.3
	c0,0.7-0.2,1.2-0.7,1.7c-0.5,0.5-1.1,0.7-1.7,0.7"/>
<rect x="7.4" y="16.1" class="st0" width="26.8" height="19.4"/>
<path d="M28.4,25.9c0-1.3-0.3-2.5-1-3.6s-1.5-2-2.6-2.6c-1.1-0.7-2.3-1-3.6-1s-2.5,0.3-3.6,1s-2,1.5-2.6,2.6c-0.7,1.1-1,2.3-1,3.6
	s0.3,2.5,1,3.6c0.7,1.1,1.5,2,2.6,2.6c1.1,0.7,2.3,1,3.6,1s2.5-0.3,3.6-1c1.1-0.7,2-1.5,2.6-2.6C28.1,28.4,28.4,27.2,28.4,25.9z
	 M29.7,25.9c0,1.5-0.4,3-1.1,4.3s-1.8,2.3-3.1,3.1c-1.3,0.8-2.7,1.1-4.3,1.1c-1.5,0-3-0.4-4.3-1.1c-1.3-0.8-2.3-1.8-3.1-3.1
	c-0.8-1.3-1.1-2.7-1.1-4.3c0-1.5,0.4-3,1.1-4.3c0.8-1.3,1.8-2.3,3.1-3.1c1.3-0.8,2.7-1.1,4.3-1.1c1.5,0,3,0.4,4.3,1.1
	c1.3,0.8,2.3,1.8,3.1,3.1S29.7,24.3,29.7,25.9z M25.3,27.6c-0.3-0.2-0.7-0.1-0.8,0.2c-0.6,1.4-1.8,2.2-3.1,2.2c-1.2,0-2.3-0.7-3-1.8
	h2.6c0.3,0,0.6-0.2,0.6-0.6c0-0.3-0.2-0.6-0.6-0.6H18c-0.1-0.3-0.1-0.7-0.1-1c0-0.3,0-0.6,0.1-0.9h3.1c0.3,0,0.6-0.2,0.6-0.6
	c0-0.3-0.2-0.6-0.6-0.6h-2.7c0.6-1.2,1.7-1.9,3-1.9c1.3,0,2.5,0.8,3.1,2.2c0.2,0.2,0.5,0.3,0.8,0.2c0.2-0.2,0.3-0.5,0.2-0.8
	c-0.8-1.8-2.4-2.8-4.1-2.8c-2,0-3.6,1.3-4.3,3.2h-1.3c-0.3,0-0.6,0.2-0.6,0.6c0,0.3,0.2,0.6,0.6,0.6h1c0,0.3-0.1,0.5-0.1,0.8
	c0,0.4,0,0.8,0.1,1.1h-1c-0.3,0-0.6,0.2-0.6,0.6c0,0.3,0.2,0.6,0.6,0.6h1.4c0.8,1.7,2.4,2.8,4.1,2.8c1.7,0,3.3-1,4.1-2.6
	C25.7,28,25.6,27.7,25.3,27.6L25.3,27.6z"/>
<path class="st0" d="M14.8,12.1V6.7c0-0.2-0.1-0.3-0.2-0.4C14.5,6.1,14.3,6,14.2,6h-1.2c-0.2,0-0.3,0.1-0.4,0.2
	c-0.1,0.1-0.2,0.3-0.2,0.4v5.5c0,0.2,0.1,0.3,0.2,0.4c0.1,0.1,0.3,0.2,0.4,0.2h1.2c0.2,0,0.3-0.1,0.4-0.2
	C14.7,12.4,14.8,12.3,14.8,12.1z"/>
<path class="st0" d="M29.3,12.1V6.7c0-0.2-0.1-0.3-0.2-0.4S28.9,6,28.7,6h-1.2c-0.2,0-0.3,0.1-0.4,0.2s-0.2,0.3-0.2,0.4v5.5
	c0,0.2,0.1,0.3,0.2,0.4c0.1,0.1,0.3,0.2,0.4,0.2h1.2c0.2,0,0.3-0.1,0.4-0.2C29.3,12.4,29.3,12.3,29.3,12.1z"/>
</svg>
