<?xml version="1.0" encoding="utf-8"?>
<!-- Generator: Adobe Illustrator 21.1.0, SVG Export Plug-In . SVG Version: 6.00 Build 0)  -->
<svg version="1.1" id="Ebene_1" xmlns="http://www.w3.org/2000/svg" xmlns:xlink="http://www.w3.org/1999/xlink" x="0px" y="0px"
	 viewBox="0 0 42.5 42.5" style="enable-background:new 0 0 42.5 42.5;" xml:space="preserve">
<path d="M27.4,15.5c-0.1-0.1-0.2-0.3-0.2-0.4v-1.2c0-0.2,0.1-0.3,0.2-0.4s0.3-0.2,0.4-0.2h4.3V9c0-0.2,0.1-0.3,0.2-0.4
	s0.3-0.2,0.4-0.2h1.2c0.2,0,0.3,0.1,0.4,0.2s0.2,0.3,0.2,0.4v4.3h4.3c0.2,0,0.3,0.1,0.4,0.2s0.2,0.3,0.2,0.4v1.2
	c0,0.2-0.1,0.3-0.2,0.4s-0.3,0.2-0.4,0.2h-4.3v4.3c0,0.2-0.1,0.3-0.2,0.4s-0.3,0.2-0.4,0.2h-1.2c-0.2,0-0.3-0.1-0.4-0.2
	s-0.2-0.3-0.2-0.4v-4.3h-4.3C27.7,15.7,27.5,15.6,27.4,15.5z M2,19.9v-1.7c0-0.3,0.3-0.6,0.6-0.6H6c0.3,0,0.6,0.3,0.6,0.6v1.7
	c0,0.3-0.3,0.6-0.6,0.6H4.8v3.8c0,0.2,0,0.7,1.2,0.8C6,24.8,6,24.6,6,24.4v-0.5c0-1,0.8-1.8,1.8-1.8h6.7v-5.7h-3.9
	c-1.6,0-2.9-1.3-2.9-2.9V8c0-2.2,1.8-4,4-4h9c2.2,0,4,1.8,4,4v5.5c0,1.6-1.3,2.9-2.9,2.9h-3.9v5.7h6.7c1,0,1.8,0.8,1.8,1.8v0.5
	c0,0.2,0,0.4-0.1,0.6c1.2-0.1,1.2-0.6,1.2-1.1v-3.4h-1.1c-0.3,0-0.6-0.3-0.6-0.6v-1.7c0-0.3,0.3-0.6,0.6-0.6h3.4
	c0.3,0,0.6,0.3,0.6,0.6v1.7c0,0.3-0.3,0.6-0.6,0.6h-1.1v3.4c0,2.3-2.1,2.3-2.8,2.3h-1.1c0,0,0,0,0,0c0,0,0,0,0,0h-6.7v7.4h7.3
	c0.3,0,0.6,0.3,0.6,0.6c0,0.3-0.3,0.6-0.6,0.6h-0.6v0.1c0.2-0.1,0.4-0.1,0.6-0.1c0.9,0,1.7,0.8,1.7,1.7S26.2,38,25.2,38
	c-0.9,0-1.7-0.8-1.7-1.7c0-0.1,0-0.2,0-0.4c0-0.1,0-0.1,0-0.2v-1.1h-6.1c0,0-0.1,0-0.1,0h-0.4c0.9,0.1,1.5,0.8,1.5,1.7
	c0,0.9-0.8,1.7-1.7,1.7c-0.9,0-1.7-0.8-1.7-1.7c0-0.1,0-0.2,0-0.4c0-0.1,0-0.1,0-0.2v-1.1c0,0-0.1,0-0.1,0H8.2v1.1
	c0,0.1,0,0.1,0,0.2c0,0.1,0,0.3,0,0.4c0,0.9-0.8,1.7-1.7,1.7c-0.9,0-1.7-0.8-1.7-1.7c0-0.9,0.8-1.7,1.7-1.7c0.2,0,0.4,0,0.6,0.1
	v-0.1H6.5C6.2,34.6,6,34.4,6,34c0-0.3,0.3-0.6,0.6-0.6h7.9v-7.4H7.7c0,0,0,0,0,0s0,0,0,0H6.5c-2.5,0-2.8-1.2-2.8-1.9v-3.8H2.6
	C2.3,20.4,2,20.2,2,19.9z M16.5,34.6h-0.4v0.1C16.3,34.7,16.4,34.6,16.5,34.6z"/>
</svg>
