<?xml version="1.0" encoding="utf-8"?>
<!-- Generator: Adobe Illustrator 21.1.0, SVG Export Plug-In . SVG Version: 6.00 Build 0)  -->
<svg version="1.1" id="Ebene_1" xmlns="http://www.w3.org/2000/svg" xmlns:xlink="http://www.w3.org/1999/xlink" x="0px" y="0px"
	 viewBox="0 0 42.5 42.5" style="enable-background:new 0 0 42.5 42.5;" xml:space="preserve">
<style type="text/css">
	.st0{fill:none;}
</style>
<g>
	<polygon class="st0" points="15.4,28.5 28.5,28.5 28.5,15.5 	"/>
	<polygon class="st0" points="26.9,13.9 13.8,13.9 13.8,26.9 	"/>
	<path d="M34.2,28.5h-3.5V13.2l4.1-4.1c0.4-0.4,0.4-1.2,0-1.6c-0.4-0.4-1.2-0.4-1.6,0l-4.1,4.1H13.8V8.1c0-0.6-0.5-1.1-1.1-1.1
		c-0.6,0-1.1,0.5-1.1,1.1v3.5H8.1c-0.6,0-1.1,0.5-1.1,1.1c0,0.6,0.5,1.1,1.1,1.1h3.4v15.8c0,0.1,0,0.3,0.1,0.4
		c0.1,0.3,0.3,0.5,0.6,0.6c0.1,0.1,0.3,0.1,0.4,0.1h15.8v3.4c0,0.6,0.5,1.1,1.1,1.1c0.6,0,1.1-0.5,1.1-1.1v-3.4h3.5
		c0.6,0,1.1-0.5,1.1-1.1C35.3,29,34.8,28.5,34.2,28.5z M26.9,13.9L13.8,26.9V13.9H26.9z M15.4,28.5l13.1-13.1v13.1H15.4z"/>
</g>
</svg>
