<?xml version="1.0" encoding="utf-8"?>
<!-- Generator: Adobe Illustrator 27.1.0, SVG Export Plug-In . SVG Version: 6.00 Build 0)  -->
<svg version="1.1" id="Ebene_1" xmlns="http://www.w3.org/2000/svg" xmlns:xlink="http://www.w3.org/1999/xlink" x="0px" y="0px"
	 viewBox="0 0 42.5 42.5" style="enable-background:new 0 0 42.5 42.5;" xml:space="preserve">
<path id="sun" d="M11.9,21.2c0-4.7,3.8-8.5,8.5-8.5s8.5,3.8,8.5,8.5s-3.8,8.5-8.5,8.5S11.9,25.8,11.9,21.2z M8.9,33.5
	c0.7,0.3,1.3,0.2,1.9-0.3c0.8-0.8,1.6-1.6,2.4-2.4c0.7-0.7,0.7-1.7,0-2.4c-0.7-0.7-1.7-0.7-2.4,0C10,29.2,9.2,30,8.4,30.7
	c-0.3,0.3-0.5,0.7-0.5,1.3C7.9,32.7,8.2,33.2,8.9,33.5z M32.5,30.9c-0.9-0.9-1.7-1.8-2.7-2.7c-0.6-0.6-1.6-0.5-2.3,0.1
	c-0.6,0.6-0.7,1.6-0.1,2.3c0.9,0.9,1.8,1.8,2.7,2.7c0.5,0.5,1.2,0.5,1.8,0.2c0.6-0.3,0.9-0.8,0.9-1.7C32.8,31.6,32.7,31.2,32.5,30.9
	z M13.4,11.8c-0.9-0.9-1.7-1.8-2.7-2.7c-0.6-0.6-1.6-0.5-2.3,0.1c-0.6,0.6-0.7,1.6-0.1,2.3c0.9,0.9,1.8,1.8,2.7,2.7
	c0.5,0.5,1.2,0.5,1.8,0.2c0.6-0.3,0.9-0.8,0.9-1.7C13.7,12.5,13.6,12.1,13.4,11.8z M22.1,5.9c0-1-0.7-1.7-1.7-1.7
	c-0.9,0-1.7,0.7-1.7,1.7c0,1.1,0,2.3,0,3.4c0,1,0.8,1.7,1.7,1.7c0.9,0,1.6-0.7,1.7-1.7c0-0.6,0-1.1,0-1.7C22.1,7,22.1,6.5,22.1,5.9z
	 M8.5,22.8c1,0,1.7-0.8,1.7-1.7c0-0.9-0.7-1.7-1.7-1.7c-1.1,0-2.3,0-3.4,0c-1,0-1.7,0.7-1.7,1.7c0,0.9,0.7,1.7,1.7,1.7
	c0.6,0,1.1,0,1.7,0C7.4,22.8,7.9,22.9,8.5,22.8z M31.5,8.3c-0.7-0.3-1.3-0.2-1.9,0.3c-0.8,0.8-1.6,1.6-2.4,2.4
	c-0.7,0.7-0.7,1.7,0,2.4c0.7,0.7,1.7,0.7,2.4,0c0.8-0.8,1.6-1.6,2.4-2.4c0.3-0.3,0.5-0.7,0.5-1.3C32.5,9.2,32.2,8.6,31.5,8.3z
	 M32,19c-1,0-1.7,0.8-1.7,1.7c0,0.9,0.7,1.7,1.7,1.7c1.1,0,2.3,0,3.4,0c1,0,1.7-0.7,1.7-1.7c0-0.9-0.7-1.7-1.7-1.7
	c-0.6,0-1.1,0-1.7,0C33.1,19,32.5,19,32,19z M22.1,33.1c0-1-0.8-1.7-1.7-1.7c-0.9,0-1.7,0.7-1.7,1.7c0,1.1,0,2.3,0,3.4
	c0,1,0.7,1.7,1.7,1.7c0.9,0,1.7-0.7,1.7-1.7c0-0.6,0-1.1,0-1.7C22.1,34.2,22.1,33.6,22.1,33.1z"/>
</svg>
