<?xml version="1.0" encoding="utf-8"?>
<!-- Generator: Adobe Illustrator 21.1.0, SVG Export Plug-In . SVG Version: 6.00 Build 0)  -->
<svg version="1.1" id="Ebene_1" xmlns="http://www.w3.org/2000/svg" xmlns:xlink="http://www.w3.org/1999/xlink" x="0px" y="0px"
	 viewBox="0 0 42.5 42.5" style="enable-background:new 0 0 42.5 42.5;" xml:space="preserve">
<path d="M37.4,32.4V10c0-0.2-0.1-0.3-0.2-0.4c-0.1-0.1-0.3-0.2-0.4-0.2H5c-0.2,0-0.3,0.1-0.4,0.2C4.4,9.7,4.4,9.8,4.4,10v22.4
	c0,0.2,0.1,0.3,0.2,0.4C4.7,32.9,4.8,33,5,33h6.5v-1.8c0-0.2,0.1-0.3,0.2-0.4c0.1-0.1,0.3-0.2,0.4-0.2h1.2c0.2,0,0.3,0.1,0.4,0.2
	c0.1,0.1,0.2,0.3,0.2,0.4V33H28v-1.8c0-0.2,0.1-0.3,0.2-0.4c0.1-0.1,0.3-0.2,0.4-0.2h1.2c0.2,0,0.3,0.1,0.4,0.2
	c0.1,0.1,0.2,0.3,0.2,0.4V33h6.5c0.2,0,0.3-0.1,0.4-0.2C37.4,32.7,37.4,32.6,37.4,32.4z M39.8,10v22.4c0,0.8-0.3,1.5-0.9,2.1
	c-0.6,0.6-1.3,0.9-2.1,0.9H5c-0.8,0-1.5-0.3-2.1-0.9C2.3,33.9,2,33.2,2,32.4V10c0-0.8,0.3-1.5,0.9-2.1S4.1,7,5,7h31.9
	c0.8,0,1.5,0.3,2.1,0.9C39.5,8.4,39.8,9.1,39.8,10z"/>
<path d="M12,20.3c-1.1,0.1-1.9,0.5-2.6,1.3H8c-0.5,0-1-0.2-1.4-0.4c-0.4-0.2-0.6-0.6-0.6-1.2c0-2.3,0.4-3.5,1.2-3.5
	c0.1,0,0.2,0.1,0.4,0.2c0.3,0.2,0.6,0.3,0.9,0.4c0.4,0.2,0.8,0.2,1.2,0.2c0.4,0,0.9-0.1,1.3-0.2c-0.1,0.3-0.1,0.5-0.1,0.6
	C11.2,18.7,11.5,19.5,12,20.3z M22.8,26.7c0,0.8-0.3,1.4-0.7,1.9c-0.5,0.5-1.1,0.7-1.9,0.7h-8.6c-0.8,0-1.4-0.2-1.9-0.7
	c-0.5-0.5-0.7-1.1-0.7-1.9c0-0.4,0-0.7,0.1-1.1C8.9,25.3,8.9,25,9,24.6c0.1-0.4,0.2-0.7,0.3-1.1c0.1-0.3,0.3-0.6,0.4-0.9
	s0.4-0.6,0.6-0.8c0.2-0.2,0.5-0.4,0.8-0.5c0.3-0.1,0.7-0.2,1.1-0.2c0.1,0,0.2,0.1,0.4,0.2c0.2,0.2,0.5,0.3,0.7,0.5
	c0.3,0.2,0.6,0.3,1.1,0.5c0.4,0.2,0.9,0.2,1.3,0.2c0.4,0,0.9-0.1,1.3-0.2c0.4-0.2,0.8-0.3,1.1-0.5c0.3-0.2,0.5-0.3,0.7-0.5
	c0.2-0.2,0.4-0.2,0.4-0.2c0.4,0,0.8,0.1,1.1,0.2s0.6,0.3,0.8,0.5c0.2,0.2,0.4,0.5,0.6,0.8c0.2,0.3,0.3,0.6,0.4,0.9
	c0.1,0.3,0.2,0.7,0.3,1.1c0.1,0.4,0.1,0.7,0.2,1.1C22.8,26,22.8,26.4,22.8,26.7z M12.5,13.9c0,0.7-0.3,1.3-0.7,1.8
	c-0.5,0.5-1.1,0.7-1.8,0.7s-1.3-0.3-1.8-0.7c-0.5-0.5-0.7-1.1-0.7-1.8s0.3-1.3,0.7-1.8c0.5-0.5,1.1-0.7,1.7-0.7
	c0.7,0,1.3,0.3,1.8,0.7S12.5,13.2,12.5,13.9z M19.1,17.8c0,0.9-0.3,1.7-1,2.4c-0.7,0.7-1.5,1-2.4,1c-0.9,0-1.7-0.3-2.4-1
	c-0.7-0.7-1-1.5-1-2.4s0.3-1.7,1-2.4s1.5-1,2.4-1c0.9,0,1.7,0.3,2.4,1C18.8,16,19.1,16.8,19.1,17.8z M24.2,13.9
	c0,0.7-0.3,1.3-0.7,1.8c-0.5,0.5-1.1,0.7-1.8,0.7c-0.7,0-1.3-0.3-1.8-0.7c-0.5-0.5-0.7-1.1-0.7-1.8s0.3-1.3,0.7-1.8
	c0.5-0.5,1.1-0.7,1.8-0.7c0.7,0,1.3,0.3,1.8,0.7C23.9,12.7,24.2,13.2,24.2,13.9z"/>
<path d="M23.4,21.1c-0.1-0.1-0.2-0.3-0.2-0.4v-1.2c0-0.2,0.1-0.3,0.2-0.4s0.3-0.2,0.4-0.2h4.3v-4.3c0-0.2,0.1-0.3,0.2-0.4
	s0.3-0.2,0.4-0.2h1.2c0.2,0,0.3,0.1,0.4,0.2s0.2,0.3,0.2,0.4v4.3h4.3c0.2,0,0.3,0.1,0.4,0.2s0.2,0.3,0.2,0.4v1.2
	c0,0.2-0.1,0.3-0.2,0.4s-0.3,0.2-0.4,0.2h-4.3v4.3c0,0.2-0.1,0.3-0.2,0.4s-0.3,0.2-0.4,0.2h-1.2c-0.2,0-0.3-0.1-0.4-0.2
	s-0.2-0.3-0.2-0.4v-4.3h-4.3C23.7,21.2,23.5,21.2,23.4,21.1z"/>
</svg>
