<?xml version="1.0" encoding="utf-8"?>
<!-- Generator: Adobe Illustrator 21.1.0, SVG Export Plug-In . SVG Version: 6.00 Build 0)  -->
<svg version="1.1" id="Ebene_1" xmlns="http://www.w3.org/2000/svg" xmlns:xlink="http://www.w3.org/1999/xlink" x="0px" y="0px"
	 viewBox="0 0 42.5 42.5" style="enable-background:new 0 0 42.5 42.5;" xml:space="preserve">
<path d="M34.8,28.5c0.6-0.3,1.1-0.7,1.6-1.2v3.5c0,1.2-0.4,2.3-1.3,3.2c-0.9,0.9-1.9,1.3-3.2,1.3H7.5c-1.2,0-2.3-0.4-3.2-1.3
	C3.4,33.1,3,32,3,30.8V11.5c0-1.2,0.4-2.3,1.3-3.2C5.2,7.4,6.3,7,7.5,7h6.4c1.2,0,2.3,0.4,3.2,1.3s1.3,1.9,1.3,3.2v0.6h5.5
	c-0.9,0.7-1.7,1.6-2.3,2.6h-3.8c-0.5,0-1-0.2-1.4-0.6c-0.4-0.4-0.6-0.8-0.6-1.4v-1.3c0-0.5-0.2-1-0.6-1.4c-0.4-0.4-0.8-0.6-1.4-0.6
	H7.5c-0.5,0-1,0.2-1.4,0.6c-0.4,0.4-0.6,0.8-0.6,1.4v19.3c0,0.5,0.2,1,0.6,1.4c0.4,0.4,0.8,0.6,1.4,0.6h24.4c0.5,0,1-0.2,1.4-0.6
	c0.4-0.4,0.6-0.8,0.6-1.4V29C34.1,28.8,34.5,28.6,34.8,28.5z M38.4,15c-0.9-1.5-2.1-2.7-3.6-3.6c-1.5-0.9-3.1-1.3-4.9-1.3
	s-3.4,0.4-4.9,1.3c-0.4,0.2-0.7,0.5-1,0.7h5.9c0,0,0,0,0.1,0s0,0,0.1,0h2c1.2,0,2.3,0.4,3.2,1.3c0.5,0.5,0.9,1.2,1.1,1.9
	c0.2,0.2,0.3,0.5,0.5,0.7c0.7,1.2,1,2.5,1,3.9c0,1.4-0.3,2.7-1,3.9c-0.1,0.1-0.2,0.3-0.3,0.4v3c0.8-0.7,1.5-1.5,2-2.4
	c0.9-1.5,1.3-3.1,1.3-4.9C39.7,18.2,39.3,16.5,38.4,15z M29.9,27.8c-1.4,0-2.7-0.3-3.9-1c-1.2-0.7-2.1-1.6-2.8-2.8
	c-0.7-1.2-1-2.5-1-3.9c0-1.4,0.3-2.7,1-3.9c0.3-0.5,0.6-0.9,1-1.3h-2.5c-0.1,0.1-0.1,0.2-0.2,0.3c-0.9,1.5-1.3,3.1-1.3,4.9
	c0,1.8,0.4,3.4,1.3,4.9c0.9,1.5,2.1,2.7,3.6,3.6s3.1,1.3,4.9,1.3c1.4,0,2.7-0.3,3.9-0.8v-2.3c0,0,0,0,0,0
	C32.6,27.4,31.3,27.8,29.9,27.8z M36.2,15.3c-0.2-0.7-0.6-1.3-1.1-1.9c-0.9-0.9-1.9-1.3-3.2-1.3h-2c1.4,0,2.7,0.4,3.9,1
	C34.7,13.7,35.5,14.5,36.2,15.3z M33.8,26.7V29c0.3-0.1,0.7-0.3,1-0.5c0.6-0.3,1.1-0.7,1.6-1.2v-3C35.7,25.3,34.9,26.1,33.8,26.7z
	 M21.6,14.7h2.5c0.5-0.6,1.2-1.1,1.9-1.5c1.2-0.7,2.5-1,3.9-1h-5.9C23,12.8,22.2,13.7,21.6,14.7z M31.8,15h-1.1
	c-0.2,0-0.3,0.1-0.4,0.2c-0.1,0.1-0.2,0.2-0.2,0.4v6.2h-3.9c-0.2,0-0.3,0.1-0.4,0.2c-0.1,0.1-0.2,0.2-0.2,0.4v1.1
	c0,0.2,0.1,0.3,0.2,0.4C25.9,24,26,24,26.2,24h5.6c0.2,0,0.3-0.1,0.4-0.2c0.1-0.1,0.2-0.2,0.2-0.4v-7.9c0-0.2-0.1-0.3-0.2-0.4
	C32.1,15.1,32,15,31.8,15z"/>
</svg>
