<?xml version="1.0" encoding="utf-8"?>
<svg version="1.1" id="Ebene_1" x="0px" y="0px" viewBox="0 0 42.5 42.5" style="enable-background:new 0 0 42.5 42.5;" xmlns="http://www.w3.org/2000/svg">
  <g/>
  <path d="M 25.158 12.613 L 30.906 19.9 L 13.948 33.214 L 7.362 32.234 L 8.204 25.786 L 25.158 12.613 Z M 34.828 16.817 L 32.447 18.64 L 26.7 11.352 L 29.084 9.531 C 29.503 9.111 30.063 8.97 30.623 9.111 C 31.186 9.251 31.746 9.391 32.026 9.952 L 34.968 13.734 C 35.388 14.155 35.529 14.717 35.388 15.276 C 35.529 15.976 35.248 16.397 34.828 16.817 Z M 13.248 30.83 L 16.19 28.589 L 13.248 24.805 L 10.306 27.047 L 10.164 28.309 L 12.267 28.589 L 11.987 30.692 L 13.248 30.83 Z M 25.158 15.836 C 24.879 15.556 24.739 15.556 24.459 15.836 L 15.63 22.704 C 15.35 22.984 15.35 23.123 15.49 23.405 C 15.769 23.684 15.91 23.684 16.19 23.405 L 25.019 16.537 C 25.299 16.397 25.299 16.117 25.158 15.836 Z" style="" transform="matrix(0.981478, -0.191577, 0.191577, 0.981478, -3.652771, 4.491517)"/>
</svg>