<?xml version="1.0" encoding="utf-8"?>
<svg version="1.1" id="Ebene_1" x="0px" y="0px" viewBox="0 0 42.52 42.52" style="enable-background:new 0 0 42.52 42.52;" xmlns="http://www.w3.org/2000/svg">
  <style type="text/css">
	.st0{clip-path:url(#SVGID_2_);}
</style>
  <g transform="matrix(1, 0, 0, 1, 19.296564, 1.584912)">
    <path d="M7.94,22.54c-1.76,0-3.18,1.52-3.18,3.4c0,0.14,0.01,0.29,0.03,0.43c0.2,1.67,1.53,2.97,3.15,2.97 c1.66,0,3.03-1.37,3.17-3.11c0.01-0.1,0.01-0.19,0.01-0.29C11.12,24.06,9.7,22.54,7.94,22.54L7.94,22.54z M9,25.65"/>
    <g>
      <defs>
        <rect id="SVGID_1_" x="0.59" y="13.32" width="42.52" height="16.48"/>
      </defs>
      <clipPath id="SVGID_2_">
        <rect x="0.59" y="13.32" width="42.52" height="16.48" style="overflow: visible;"/>
      </clipPath>
      <path class="st0" d="M34.34,22.54c-1.75,0-3.18,1.52-3.18,3.4c0,0.14,0.01,0.29,0.03,0.43c0.2,1.67,1.53,2.97,3.15,2.97 c1.66,0,3.03-1.37,3.17-3.11c0.01-0.1,0.01-0.19,0.01-0.29C37.52,24.06,36.09,22.54,34.34,22.54L34.34,22.54z M35.4,25.65"/>
      <path class="st0" d="M41.97,20.78v-2.51c0-0.4-0.28-0.75-0.65-0.81c-0.9-0.15-2.49-0.43-3.2-0.67c-1.02-0.34-4.98-2.13-6.35-2.46 C30.4,14,24.22,12.2,18.3,14.39c-1,0.37-3.82,2.39-6.47,3.58c-0.78,0.02-10.18,2.02-10.6,3.2c-0.41,1.18-0.54,1.75-0.62,2.05 c-0.08,0.3,0,1.73,0.57,2.73c0.58,0.36,1.71,0.59,3.01,0.75c-0.01-0.08-0.03-0.17-0.04-0.25c-0.02-0.18-0.03-0.35-0.03-0.51 c0-2.25,1.71-4.08,3.82-4.08c2.11,0,3.82,1.83,3.82,4.08c0,0.12-0.01,0.23-0.02,0.34c-0.02,0.25-0.06,0.5-0.12,0.73h0.01 l19.06-0.08c-0.01-0.05-0.13-0.43-0.14-0.48c-0.02-0.18-0.03-0.35-0.03-0.51c0-2.25,1.71-4.08,3.82-4.08 c2.11,0,3.82,1.83,3.82,4.08c0,0.01-0.16,0.85-0.16,0.86l3.47-0.22c0,0,0.57-1.48,0.65-2.62S41.97,20.78,41.97,20.78L41.97,20.78z M23.17,18.4l-7.08,0.23c0.13-1.13-0.5-1.39-0.5-1.39c2.81-2.73,8.48-2.82,8.48-2.82L23.17,18.4z M32.33,18.06l-7.66,0.23 l0.59-3.86c3.33-0.05,5.23,0.74,5.23,0.74L32.33,18.06z M34.75,18.03l-1.48,0l-1.59-2.4c1.35,0.57,1.91,0.9,2.55,1.25 C34.62,17.11,34.83,17.57,34.75,18.03L34.75,18.03z M34.75,18.03"/>
    </g>
  </g>
  <g transform="matrix(-1, 0, 0, 1, 26.601292, -1.80058)" style="">
    <path d="M7.94,22.54c-1.76,0-3.18,1.52-3.18,3.4c0,0.14,0.01,0.29,0.03,0.43c0.2,1.67,1.53,2.97,3.15,2.97 c1.66,0,3.03-1.37,3.17-3.11c0.01-0.1,0.01-0.19,0.01-0.29C11.12,24.06,9.7,22.54,7.94,22.54L7.94,22.54z M9,25.65"/>
    <g>
      <defs>
        <rect id="rect-1" x="0.59" y="13.32" width="42.52" height="16.48"/>
      </defs>
      <path class="st0" d="M34.34,22.54c-1.75,0-3.18,1.52-3.18,3.4c0,0.14,0.01,0.29,0.03,0.43c0.2,1.67,1.53,2.97,3.15,2.97 c1.66,0,3.03-1.37,3.17-3.11c0.01-0.1,0.01-0.19,0.01-0.29C37.52,24.06,36.09,22.54,34.34,22.54L34.34,22.54z M35.4,25.65"/>
      <path class="st0" d="M41.97,20.78v-2.51c0-0.4-0.28-0.75-0.65-0.81c-0.9-0.15-2.49-0.43-3.2-0.67c-1.02-0.34-4.98-2.13-6.35-2.46 C30.4,14,24.22,12.2,18.3,14.39c-1,0.37-3.82,2.39-6.47,3.58c-0.78,0.02-10.18,2.02-10.6,3.2c-0.41,1.18-0.54,1.75-0.62,2.05 c-0.08,0.3,0,1.73,0.57,2.73c0.58,0.36,1.71,0.59,3.01,0.75c-0.01-0.08-0.03-0.17-0.04-0.25c-0.02-0.18-0.03-0.35-0.03-0.51 c0-2.25,1.71-4.08,3.82-4.08c2.11,0,3.82,1.83,3.82,4.08c0,0.12-0.01,0.23-0.02,0.34c-0.02,0.25-0.06,0.5-0.12,0.73h0.01 l19.06-0.08c-0.01-0.05-0.13-0.43-0.14-0.48c-0.02-0.18-0.03-0.35-0.03-0.51c0-2.25,1.71-4.08,3.82-4.08 c2.11,0,3.82,1.83,3.82,4.08c0,0.01-0.16,0.85-0.16,0.86l3.47-0.22c0,0,0.57-1.48,0.65-2.62S41.97,20.78,41.97,20.78L41.97,20.78z M23.17,18.4l-7.08,0.23c0.13-1.13-0.5-1.39-0.5-1.39c2.81-2.73,8.48-2.82,8.48-2.82L23.17,18.4z M32.33,18.06l-7.66,0.23 l0.59-3.86c3.33-0.05,5.23,0.74,5.23,0.74L32.33,18.06z M34.75,18.03l-1.48,0l-1.59-2.4c1.35,0.57,1.91,0.9,2.55,1.25 C34.62,17.11,34.83,17.57,34.75,18.03L34.75,18.03z M34.75,18.03"/>
    </g>
  </g>
</svg>