<?xml version="1.0" encoding="utf-8"?>
<!-- Generator: Adobe Illustrator 21.1.0, SVG Export Plug-In . SVG Version: 6.00 Build 0)  -->
<svg version="1.1" id="Ebene_1" xmlns="http://www.w3.org/2000/svg" xmlns:xlink="http://www.w3.org/1999/xlink" x="0px" y="0px"
	 viewBox="0 0 42.5 42.5" style="enable-background:new 0 0 42.5 42.5;" xml:space="preserve">
<path d="M6.1,35.2v-0.8c1.1-0.1,1.9-0.5,2.4-1.2c0.5-0.7,1.5-2.6,2.7-5.6l8.7-20.4h0.8l10.4,23.6c0.7,1.6,1.2,2.5,1.7,2.9
	c0.4,0.4,1.1,0.6,2.1,0.8v0.8H24.3v-0.8c1.2-0.1,2-0.2,2.3-0.4c0.4-0.2,0.5-0.5,0.5-1.1c0-0.2-0.1-0.6-0.2-1.1
	c-0.1-0.5-0.3-1.1-0.6-1.6l-1.7-4h-11c-1.1,2.7-1.7,4.4-1.9,5c-0.2,0.6-0.3,1.1-0.3,1.4c0,0.7,0.3,1.2,0.9,1.5c0.4,0.2,1,0.3,2,0.4
	v0.8H6.1z M24,24.6l-4.8-11.4l-4.8,11.4H24z M30.8,7.2c-0.1,0-0.3,0-0.3,0.1L27,10.8c-0.1,0.1-0.1,0.2-0.1,0.3s0,0.3,0.1,0.3
	c0.1,0.1,0.2,0.1,0.3,0.1h7c0.1,0,0.3,0,0.3-0.1c0.1-0.1,0.1-0.2,0.1-0.3s0-0.3-0.1-0.3l-3.5-3.5C31,7.2,30.9,7.2,30.8,7.2z"/>
</svg>
