<?xml version="1.0" encoding="utf-8"?>
<!-- Generator: Adobe Illustrator 21.1.0, SVG Export Plug-In . SVG Version: 6.00 Build 0)  -->
<svg version="1.1" id="Ebene_1" xmlns="http://www.w3.org/2000/svg" xmlns:xlink="http://www.w3.org/1999/xlink" x="0px" y="0px"
	 viewBox="0 0 42.5 42.5" style="enable-background:new 0 0 42.5 42.5;" xml:space="preserve">
<g>
	<path d="M12.5,19.5v-4.4c0-2.4,0.8-4.4,2.5-6.1c1.7-1.7,3.5-2.5,5.9-2.5s4,0.8,5.7,2.5c1.4,1.4,2.2,3,2.5,4.9
		c0.1,0.8,2.7,0.4,2.5-0.6c-0.3-2.3-1.3-4.3-3.1-6.1C26.4,5.1,23.9,4,20.9,4s-5.5,1.1-7.6,3.2s-3.2,4.7-3.2,7.6v4.6H9.3
		c-0.6,0-1.2,0.2-1.6,0.7c-0.5,0.5-0.7,1-0.7,1.6v13.9c0,0.6,0.2,1.2,0.7,1.6s1,0.7,1.6,0.7h23.2c0.6,0,1.2-0.2,1.6-0.7
		c0.5-0.5,0.7-1,0.7-1.6V21.8c0-0.6-0.2-1.2-0.7-1.6c-0.5-0.5-1-0.7-1.6-0.7L12.5,19.5z"/>
</g>
</svg>
