<?xml version="1.0" encoding="utf-8"?>
<!-- Generator: Adobe Illustrator 21.1.0, SVG Export Plug-In . SVG Version: 6.00 Build 0)  -->
<svg version="1.1" id="Ebene_1" xmlns="http://www.w3.org/2000/svg" xmlns:xlink="http://www.w3.org/1999/xlink" x="0px" y="0px"
	 viewBox="0 0 42.5 42.5" style="enable-background:new 0 0 42.5 42.5;" xml:space="preserve">
<g>
	<path d="M27.2,4H14.3c-0.6,0-1,0.5-1,1v25.6c0,0.6,0.5,1,1,1H18V38h5.5v-6.3h3.7c0.6,0,1-0.5,1-1V5C28.3,4.5,27.8,4,27.2,4L27.2,4z
		 M16.7,13.3c0-2.2,1.8-4,4-4s4,1.8,4,4c0,2.2-1.8,4-4,4S16.7,15.5,16.7,13.3L16.7,13.3z M26.1,12.1c-0.7-2.5-2.6-4.5-5.3-4.5
		c-2.7,0-4.6,2-5.3,4.5C14.7,9,17.7,6.1,20.7,6c2.5,0,5.2,1.9,5.4,4.5c0-0.1,0,0.3,0,0C26.2,11.1,26.2,11.6,26.1,12.1L26.1,12.1z
		 M16.7,25.8c0-2.2,1.8-4,4-4s4,1.8,4,4c0,2.2-1.8,4-4,4S16.7,28,16.7,25.8L16.7,25.8z M26.1,24.6c-0.7-2.5-2.6-4.5-5.3-4.5
		c-2.7,0-4.6,2-5.3,4.5c-0.8-3.2,2.2-6.1,5.2-6.1c2.5,0,5.2,1.9,5.4,4.5c0-0.1,0,0.3,0,0C26.2,23.5,26.2,24.1,26.1,24.6L26.1,24.6z
		 M25.4,12.1"/>
</g>
</svg>
