<?xml version="1.0" encoding="utf-8"?>
<!-- Generator: Adobe Illustrator 23.0.1, SVG Export Plug-In . SVG Version: 6.00 Build 0)  -->
<svg version="1.1" id="Ebene_1" xmlns="http://www.w3.org/2000/svg" xmlns:xlink="http://www.w3.org/1999/xlink" x="0px" y="0px"
	 viewBox="0 0 42.52 42.52" style="enable-background:new 0 0 42.52 42.52;" xml:space="preserve">
<path d="M21.98,4C12.62,4,5,11.62,5,20.98c0,9.36,7.62,16.98,16.98,16.98c9.36,0,16.98-7.62,16.98-16.98
	C38.96,11.62,31.35,4,21.98,4L21.98,4z M21.98,35.87c-8.21,0-14.89-6.68-14.89-14.89S13.77,6.09,21.98,6.09s14.89,6.68,14.89,14.89
	S30.19,35.87,21.98,35.87L21.98,35.87z M21.98,35.87"/>
<path d="M17.13,27.85c-1.99,0-3.53-0.61-4.62-1.84c-1.09-1.22-1.64-2.96-1.64-5.2c0-2.3,0.55-4.08,1.66-5.33
	c1.11-1.25,2.69-1.88,4.73-1.88c0.66,0,1.32,0.07,1.98,0.21c0.66,0.14,1.18,0.31,1.55,0.5l-0.64,1.77c-0.46-0.18-0.96-0.34-1.5-0.46
	c-0.54-0.12-1.02-0.18-1.44-0.18c-2.79,0-4.19,1.78-4.19,5.34c0,1.69,0.34,2.98,1.02,3.89s1.69,1.35,3.03,1.35
	c1.15,0,2.32-0.25,3.52-0.74v1.84C19.68,27.61,18.52,27.85,17.13,27.85z"/>
<path d="M28.35,27.85c-1.99,0-3.53-0.61-4.62-1.84c-1.09-1.22-1.64-2.96-1.64-5.2c0-2.3,0.55-4.08,1.66-5.33
	c1.11-1.25,2.69-1.88,4.73-1.88c0.66,0,1.32,0.07,1.98,0.21c0.66,0.14,1.18,0.31,1.55,0.5l-0.64,1.77c-0.46-0.18-0.96-0.34-1.5-0.46
	c-0.54-0.12-1.02-0.18-1.44-0.18c-2.79,0-4.19,1.78-4.19,5.34c0,1.69,0.34,2.98,1.02,3.89s1.69,1.35,3.03,1.35
	c1.14,0,2.32-0.25,3.52-0.74v1.84C30.9,27.61,29.75,27.85,28.35,27.85z"/>
</svg>
