<?xml version="1.0" encoding="utf-8"?>
<svg version="1.1" id="Ebene_1" x="0px" y="0px" viewBox="0 0 42.5 42.5" style="enable-background:new 0 0 42.5 42.5;" xmlns="http://www.w3.org/2000/svg">
  <path d="M30.2,21.2c0,0.4-0.1,0.7-0.4,1l-12,12c-0.3,0.3-0.6,0.4-1,0.4s-0.7-0.1-1-0.4c-0.3-0.3-0.4-0.6-0.4-1v-6.4H5.4 c-0.4,0-0.7-0.1-1-0.4c-0.3-0.3-0.4-0.6-0.4-1v-8.5c0-0.4,0.1-0.7,0.4-1c0.3-0.3,0.6-0.4,1-0.4h9.9V9.1c0-0.4,0.1-0.7,0.4-1 c0.3-0.3,0.6-0.4,1-0.4s0.7,0.1,1,0.4l12,12C30.1,20.5,30.2,20.8,30.2,21.2z M38,13.4V29c0,1.8-0.6,3.3-1.9,4.5s-2.7,1.9-4.5,1.9 h-7.1c-0.2,0-0.4-0.1-0.5-0.2c-0.1-0.1-0.2-0.3-0.2-0.5c0-0.1,0-0.2,0-0.4c0-0.2,0-0.4,0-0.6c0-0.2,0-0.3,0.1-0.5 c0-0.2,0.1-0.3,0.2-0.4c0.1-0.1,0.3-0.1,0.5-0.1h7.1c1,0,1.8-0.3,2.5-1c0.7-0.7,1-1.5,1-2.5V13.4c0-1-0.3-1.8-1-2.5 c-0.7-0.7-1.5-1-2.5-1h-6.9l-0.3,0l-0.3-0.1L24,9.6l-0.2-0.2l0-0.3c0-0.1,0-0.2,0-0.4c0-0.2,0-0.4,0-0.6s0-0.3,0.1-0.5 s0.1-0.3,0.2-0.4C24.2,7,24.4,7,24.6,7h7.1c1.8,0,3.3,0.6,4.5,1.9S38,11.6,38,13.4z"/>
</svg>