<?xml version="1.0" encoding="utf-8"?>
<!-- Generator: Adobe Illustrator 21.1.0, SVG Export Plug-In . SVG Version: 6.00 Build 0)  -->
<svg version="1.1" id="Ebene_1" xmlns="http://www.w3.org/2000/svg" xmlns:xlink="http://www.w3.org/1999/xlink" x="0px" y="0px"
	 viewBox="0 0 42.5 42.5" style="enable-background:new 0 0 42.5 42.5;" xml:space="preserve">
<path id="Icon_Zeiterfassung_2_" d="M32.7,21.2c0-2.1-0.5-4-1.6-5.8c-1-1.8-2.4-3.2-4.2-4.2c-1.8-1-3.7-1.6-5.8-1.6s-4,0.5-5.8,1.6
	s-3.2,2.4-4.2,4.2s-1.6,3.7-1.6,5.8s0.5,4,1.6,5.8c1,1.8,2.4,3.2,4.2,4.2c1.8,1,3.7,1.6,5.8,1.6s4-0.5,5.8-1.6
	c1.8-1,3.2-2.4,4.2-4.2C32.2,25.2,32.7,23.3,32.7,21.2z M35.3,21.2c0,2.6-0.6,4.9-1.9,7.1c-1.3,2.2-3,3.9-5.2,5.2
	c-2.2,1.3-4.5,1.9-7.1,1.9s-4.9-0.6-7.1-1.9c-2.2-1.3-3.9-3-5.2-5.2S7,23.7,7,21.2s0.6-4.9,1.9-7.1s3-3.9,5.2-5.2S18.6,7,21.2,7
	s4.9,0.6,7.1,1.9s3.9,3,5.2,5.2C34.7,16.2,35.3,18.6,35.3,21.2z"/>
<rect x="8.3" y="20.1" transform="matrix(0.7071 -0.7071 0.7071 0.7071 -9.0608 21.1878)" width="25.5" height="2.8"/>
</svg>
