<?xml version="1.0" encoding="utf-8"?>
<!-- Generator: Adobe Illustrator 21.1.0, SVG Export Plug-In . SVG Version: 6.00 Build 0)  -->
<svg version="1.1" id="Ebene_1" xmlns="http://www.w3.org/2000/svg" xmlns:xlink="http://www.w3.org/1999/xlink" x="0px" y="0px"
	 viewBox="0 0 42.5 42.5" style="enable-background:new 0 0 42.5 42.5;" xml:space="preserve">
<style type="text/css">
	.st0{fill-rule:evenodd;clip-rule:evenodd;}
</style>
<path class="st0" d="M21.3,8.1c9.7,0,18,6.1,21.3,14.6l-10.6,4.1c-1.6-4.3-5.8-7.3-10.6-7.3c-0.9,0-1.8,0.1-2.7,0.3l-7.2-9.4
	C14.4,8.9,17.7,8.1,21.3,8.1L21.3,8.1z M22.7,33.1c-1.6,0.8-3.6,0.1-4.3-1.6l-6.2-13.4l-2.2-4.8L8.4,10C8.3,9.8,8.3,9.6,8.4,9.4
	c0.2-0.2,0.6-0.3,0.9,0l2.1,2.7l3.4,4.4l9,11.6c0.1,0.2,0.3,0.4,0.4,0.6c0.5,1.2,0.3,2.5-0.4,3.4C23.6,32.6,23.2,32.9,22.7,33.1
	L22.7,33.1z M20.1,29c-0.6,0.7-0.5,1.7,0.2,2.2c0.7,0.6,1.7,0.5,2.2-0.2c0.6-0.7,0.5-1.7-0.2-2.2C21.7,28.2,20.6,28.3,20.1,29
	L20.1,29z M20.1,29 M8.1,12.3C4.5,14.8,1.6,18.5,0,22.7l10.6,4.1c0.6-1.6,1.6-3,2.8-4.1L8.1,12.3z"/>
</svg>
