<?xml version="1.0" encoding="utf-8"?>
<!-- Generator: Adobe Illustrator 21.1.0, SVG Export Plug-In . SVG Version: 6.00 Build 0)  -->
<svg version="1.1" id="Ebene_1" xmlns="http://www.w3.org/2000/svg" xmlns:xlink="http://www.w3.org/1999/xlink" x="0px" y="0px"
	 viewBox="0 0 42.5 42.5" style="enable-background:new 0 0 42.5 42.5;" xml:space="preserve">
<path id="mittelachsig" d="M10.6,31.8c0.1-0.1,0.2-0.1,0.3-0.1h18.9c0.1,0,0.2,0,0.3,0.1c0.1,0.1,0.1,0.2,0.1,0.3v2.8
	c0,0.1,0,0.2-0.1,0.3c-0.1,0.1-0.2,0.1-0.3,0.1H10.9c-0.1,0-0.2,0-0.3-0.1s-0.1-0.2-0.1-0.3v-2.8C10.5,32,10.5,31.9,10.6,31.8z
	 M7.3,7.1C7.4,7,7.5,7,7.7,7h27.1c0.2,0,0.3,0,0.5,0.1c0.1,0.1,0.2,0.2,0.2,0.3v2.8c0,0.1-0.1,0.2-0.2,0.3c-0.1,0.1-0.3,0.1-0.5,0.1
	H7.7c-0.2,0-0.3,0-0.5-0.1c-0.1-0.1-0.2-0.2-0.2-0.3V7.5C7.1,7.3,7.1,7.2,7.3,7.1z M6.2,25.8c0.1-0.1,0.3-0.1,0.5-0.1h28.1
	c0.2,0,0.3,0,0.5,0.1c0.1,0.1,0.2,0.2,0.2,0.3v2.8c0,0.1-0.1,0.2-0.2,0.3s-0.3,0.1-0.5,0.1H6.7c-0.2,0-0.3,0-0.5-0.1
	C6.1,29.1,6,29,6,28.9v-2.8C6,26,6.1,25.9,6.2,25.8z M7.8,19.4c0.1-0.1,0.3-0.1,0.4-0.1h24.9c0.2,0,0.3,0,0.4,0.1s0.2,0.2,0.2,0.3
	v2.8c0,0.1-0.1,0.2-0.2,0.3c-0.1,0.1-0.3,0.1-0.4,0.1H8.3c-0.2,0-0.3,0-0.4-0.1c-0.1-0.1-0.2-0.2-0.2-0.3v-2.8
	C7.7,19.6,7.7,19.5,7.8,19.4z M11.8,13.4c0.1-0.1,0.2-0.1,0.3-0.1h17.5c0.1,0,0.2,0,0.3,0.1s0.1,0.2,0.1,0.3v2.8
	c0,0.1,0,0.2-0.1,0.3s-0.2,0.1-0.3,0.1H12.1c-0.1,0-0.2,0-0.3-0.1c-0.1-0.1-0.1-0.2-0.1-0.3v-2.8C11.7,13.6,11.7,13.4,11.8,13.4z"/>
</svg>
