<?xml version="1.0" encoding="utf-8"?>
<!-- Generator: Adobe Illustrator 21.1.0, SVG Export Plug-In . SVG Version: 6.00 Build 0)  -->
<svg version="1.1" id="Ebene_1" xmlns="http://www.w3.org/2000/svg" xmlns:xlink="http://www.w3.org/1999/xlink" x="0px" y="0px"
	 viewBox="0 0 42.5 42.5" style="enable-background:new 0 0 42.5 42.5;" xml:space="preserve">
<path d="M35.9,9.6c-0.5-0.5-1.1-0.7-1.7-0.7h-2.4V7c0-0.8-0.3-1.6-0.9-2.1C30.2,4.3,29.5,4,28.7,4h-1.2c-0.8,0-1.6,0.3-2.1,0.9
	S24.4,6.2,24.4,7v1.8h-7.3V7c0-0.8-0.3-1.6-0.9-2.1C15.7,4.3,14.9,4,14.1,4h-1.2c-0.8,0-1.6,0.3-2.1,0.9C10.2,5.5,9.9,6.2,9.9,7v1.8
	H7.4c-0.7,0-1.2,0.2-1.7,0.7S5,10.6,5,11.3v24.3c0,0.7,0.2,1.2,0.7,1.7C6.2,37.8,6.8,38,7.4,38h26.7c0.7,0,1.2-0.2,1.7-0.7
	c0.5-0.5,0.7-1.1,0.7-1.7V11.3C36.6,10.6,36.3,10.1,35.9,9.6z M12.5,12.9c-0.1-0.1-0.2-0.3-0.2-0.4V7c0-0.2,0.1-0.3,0.2-0.4
	s0.3-0.2,0.4-0.2h1.2c0.2,0,0.3,0.1,0.4,0.2s0.2,0.3,0.2,0.4v5.5c0,0.2-0.1,0.3-0.2,0.4s-0.3,0.2-0.4,0.2h-1.2
	C12.7,13.1,12.6,13.1,12.5,12.9z M28.2,29.8c0.2,0.2,0.2,0.4,0.2,0.6s-0.1,0.4-0.2,0.6L27,32.3c-0.2,0.2-0.4,0.2-0.6,0.2
	s-0.4-0.1-0.6-0.2l-5-5l-5,5c-0.2,0.2-0.4,0.2-0.6,0.2s-0.4-0.1-0.6-0.2L13.4,31c-0.2-0.2-0.2-0.4-0.2-0.6s0.1-0.4,0.2-0.6l5-5l-5-5
	c-0.2-0.2-0.2-0.4-0.2-0.6s0.1-0.4,0.2-0.6l1.2-1.2c0.2-0.2,0.4-0.2,0.6-0.2s0.4,0.1,0.6,0.2l5,5l5-5c0.2-0.2,0.4-0.2,0.6-0.2
	s0.4,0.1,0.6,0.2l1.2,1.2c0.2,0.2,0.2,0.4,0.2,0.6s-0.1,0.4-0.2,0.6l-5,5L28.2,29.8z M29.3,12.5c0,0.2-0.1,0.3-0.2,0.4
	s-0.3,0.2-0.4,0.2h-1.2c-0.2,0-0.3-0.1-0.4-0.2s-0.2-0.3-0.2-0.4V7c0-0.2,0.1-0.3,0.2-0.4s0.3-0.2,0.4-0.2h1.2
	c0.2,0,0.3,0.1,0.4,0.2s0.2,0.3,0.2,0.4V12.5z"/>
</svg>
