<?xml version="1.0" encoding="utf-8"?>
<svg version="1.1" id="Ebene_1" x="0px" y="0px" viewBox="0 0 42.5 42.5" style="enable-background:new 0 0 42.5 42.5;" xmlns="http://www.w3.org/2000/svg">
  <path id="Pfeil_links" d="M 7 21.2 C 7 21 7.1 20.7 7.3 20.5 L 20.5 7.3 C 20.7 7.1 20.9 7 21.2 7 C 21.4 7 21.7 7.1 21.9 7.3 L 23.3 8.7 C 23.5 8.9 23.6 9.1 23.6 9.4 C 23.6 9.6 23.5 9.9 23.3 10.1 L 12.1 21.2 L 23.3 32.4 C 23.5 32.6 23.6 32.8 23.6 33.1 C 23.6 33.3 23.5 33.6 23.3 33.8 L 21.9 35.2 C 21.7 35.4 21.5 35.5 21.2 35.5 C 21 35.5 20.7 35.4 20.5 35.2 L 7.3 21.8 C 7.1 21.6 7 21.4 7 21.2 Z"/>
  <path id="path-1" d="M 18.901 21.291 C 18.901 21.091 19.001 20.791 19.201 20.591 L 32.401 7.391 C 32.601 7.191 32.801 7.091 33.101 7.091 C 33.301 7.091 33.601 7.191 33.801 7.391 L 35.201 8.791 C 35.401 8.991 35.501 9.191 35.501 9.491 C 35.501 9.691 35.401 9.991 35.201 10.191 L 24.001 21.291 L 35.201 32.491 C 35.401 32.691 35.501 32.891 35.501 33.191 C 35.501 33.391 35.401 33.691 35.201 33.891 L 33.801 35.291 C 33.601 35.491 33.401 35.591 33.101 35.591 C 32.901 35.591 32.601 35.491 32.401 35.291 L 19.201 21.891 C 19.001 21.691 18.901 21.491 18.901 21.291 Z"/>
</svg>