<?xml version="1.0" encoding="utf-8"?>
<svg version="1.1" id="Ebene_1" x="0px" y="0px" viewBox="0 0 42.5 42.5" style="enable-background:new 0 0 42.5 42.5;" xmlns="http://www.w3.org/2000/svg">
  <path d="M16.3,17.4h-3.6l-0.6,2.4H9.3l4-12.9h2.5l4,12.9h-2.8L16.3,17.4z M13.3,15h2.3l-1.2-4.5L13.3,15z"/>
  <path d="M13,32.9h6.7v2.4H9.2v-1.6l6.3-8.8H9.3v-2.4h10.5V24L13,32.9z"/>
  <path d="M 29 7 C 28.7 7 28.5 7.1 28.3 7.3 L 23.1 12.5 C 22.9 12.7 22.8 12.9 22.8 13.2 C 22.8 13.5 22.9 13.7 23.1 13.9 L 23.7 14.5 C 23.9 14.7 24.1 14.8 24.4 14.8 C 24.7 14.8 24.9 14.7 25.1 14.5 L 27.4 12.2 L 27.4 34.2 C 27.4 34.5 27.5 34.7 27.7 34.9 C 27.9 35.1 28.1 35.2 28.4 35.2 L 29.4 35.2 C 29.7 35.2 29.9 35.1 30.1 34.9 C 30.3 34.7 30.4 34.5 30.4 34.2 L 30.4 12.2 L 32.7 14.5 C 32.9 14.7 33.1 14.8 33.4 14.8 C 33.7 14.8 33.9 14.7 34.1 14.5 L 34.7 13.9 C 34.9 13.7 35 13.5 35 13.2 C 35 12.9 34.9 12.7 34.7 12.5 L 29.5 7.3 C 29.6 7.1 29.3 7 29 7 Z"/>
</svg>