<?xml version="1.0" encoding="utf-8"?>
<!-- Generator: Adobe Illustrator 21.1.0, SVG Export Plug-In . SVG Version: 6.00 Build 0)  -->
<svg version="1.1" id="Ebene_1" xmlns="http://www.w3.org/2000/svg" xmlns:xlink="http://www.w3.org/1999/xlink" x="0px" y="0px"
	 viewBox="0 0 42.5 42.5" style="enable-background:new 0 0 42.5 42.5;" xml:space="preserve">
<path d="M34.5,11.2c0.4,0.4,0.7,0.8,0.9,1.4c0.3,0.6,0.4,1.2,0.4,1.7v21.9c0,0.5-0.2,0.9-0.5,1.3C34.9,37.8,34.5,38,34,38H8.5
	c-0.5,0-0.9-0.2-1.3-0.5c-0.4-0.4-0.5-0.8-0.5-1.3V5.8c0-0.5,0.2-0.9,0.5-1.3C7.5,4.2,7.9,4,8.5,4h17c0.5,0,1.1,0.1,1.7,0.4
	c0.6,0.3,1.1,0.6,1.4,0.9L34.5,11.2z M26.1,6.6v7.1h7.1c-0.1-0.4-0.3-0.6-0.4-0.8L26.8,7C26.7,6.8,26.4,6.7,26.1,6.6z M33.4,35.6
	V16.2h-7.9c-0.5,0-0.9-0.2-1.3-0.5c-0.4-0.4-0.5-0.8-0.5-1.3V6.4H9.1v29.2H33.4z M26.6,26h1.5c0.3,0,0.5-0.2,0.5-0.5v-4.6
	c0-0.3-0.2-0.5-0.5-0.5H24v-1.1c0-1.1-0.9-2-2-2s-2,0.9-2,2v1.1h-4.1c-0.3,0-0.5,0.2-0.5,0.5v4.1h-1.1c-1.1,0-2,0.9-2,2s0.9,2,2,2
	h1.1v4.1c0,0.3,0.2,0.5,0.5,0.5h4.6c0.3,0,0.5-0.2,0.5-0.5v-1.5c0-0.6,0.5-1.1,1.1-1.1c0.6,0,1.1,0.5,1.1,1.1v1.5
	c0,0.3,0.2,0.5,0.5,0.5h4.6c0.3,0,0.5-0.2,0.5-0.5v-4.6c0-0.3-0.2-0.5-0.5-0.5h-1.5c-0.6,0-1.1-0.5-1.1-1.1C25.5,26.5,26,26,26.6,26
	z"/>
</svg>
