<?xml version="1.0" encoding="utf-8"?>
<!-- Generator: Adobe Illustrator 21.1.0, SVG Export Plug-In . SVG Version: 6.00 Build 0)  -->
<svg version="1.1" id="Ebene_1" xmlns="http://www.w3.org/2000/svg" xmlns:xlink="http://www.w3.org/1999/xlink" x="0px" y="0px"
	 viewBox="0 0 42.5 42.5" style="enable-background:new 0 0 42.5 42.5;" xml:space="preserve">
<path d="M30.6,38c1.3,0,2.4-0.5,3.3-1.6s1.4-2.3,1.4-3.8c0-3.5-0.6-6.3-1.7-8.3s-2.8-3.1-5-3.2c-2.1,1.9-4.6,2.8-7.4,2.8
	s-5.3-0.9-7.4-2.8c-2.2,0.1-3.8,1.2-5,3.2S7,29,7,32.5c0,1.5,0.5,2.8,1.4,3.8s2,1.6,3.3,1.6H30.6z"/>
<path d="M30.3,10.6c0,0.2-0.1,0.3-0.3,0.5l-3.9,3.8l0.9,5.3c0,0,0,0.1,0,0.2c0,0.1,0,0.3-0.1,0.4s-0.2,0.2-0.3,0.2
	c-0.1,0-0.3,0-0.4-0.1l-4.8-2.5l-4.8,2.5c-0.2,0.1-0.3,0.1-0.4,0.1c-0.1,0-0.3-0.1-0.3-0.2c-0.1-0.1-0.1-0.2-0.1-0.4
	c0,0,0-0.1,0-0.2l0.9-5.3l-3.9-3.8c-0.2-0.2-0.3-0.4-0.3-0.5c0-0.3,0.2-0.4,0.6-0.5l5.3-0.8l2.4-4.8C21,4.1,21.2,4,21.4,4
	c0.2,0,0.4,0.1,0.5,0.4l2.4,4.8l5.3,0.8C30.1,10.1,30.3,10.3,30.3,10.6z"/>
</svg>
