<?xml version="1.0" encoding="utf-8"?>
<!-- Generator: Adobe Illustrator 24.1.0, SVG Export Plug-In . SVG Version: 6.00 Build 0)  -->
<svg version="1.1" id="Ebene_1" xmlns="http://www.w3.org/2000/svg" xmlns:xlink="http://www.w3.org/1999/xlink" x="0px" y="0px"
	 viewBox="0 0 42.5 42.5" style="enable-background:new 0 0 42.5 42.5;" xml:space="preserve">
<style type="text/css">
	.st0{fill:#04BAEE;}
	.st1{fill:#FFFFFF;}
</style>
<path class="st0" d="M18.3,26.6h-2.6v-2.3h2.6V26.6z M22.2,24.3h-2.6v2.3h2.6V24.3z M26,24.3h-2.6v2.3H26V24.3z M29.8,24.3h-2.6v2.3
	h2.6V24.3z M33.7,24.3h-2.6v2.3h2.6V24.3z M18.3,22.7h-2.6v-2.3h2.6V22.7z M22.2,20.4h-2.6v2.3h2.6V20.4z M26,20.4h-2.6v2.3H26V20.4
	z M29.8,20.4h-2.6v2.3h2.6V20.4z M33.7,20.4h-2.6v2.3h2.6V20.4z M18.3,28h-2.6v2.3h2.6V28z M22.2,28h-2.6v2.3h2.6V28z M26,28h-2.6
	v2.3H26V28z M29.8,28h-2.6v2.3h2.6V28z M33.7,28h-2.6v2.3h2.6V28z M22.2,31.8h-2.6v2.3h2.6V31.8z"/>
<path d="M14.5,16.7h-2.6V19h2.6V16.7z M18.3,16.7h-2.6V19h2.6V16.7z M22.2,16.7h-2.6V19h2.6V16.7z M26,16.7h-2.6V19H26V16.7z
	 M29.8,16.7h-2.6V19h2.6V16.7z M33.7,16.7h-2.6V19h2.6V16.7z M10.7,31.8H8v2.3h2.6L10.7,31.8L10.7,31.8z M14.5,31.8h-2.6v2.3h2.6
	V31.8z M6.5,14.8h28.7v20.8H6.5V14.8z M14.5,12.9c-0.1,0.1-0.3,0.2-0.4,0.2h-1.2c-0.2,0-0.3-0.1-0.4-0.2c-0.1-0.1-0.2-0.3-0.2-0.4V7
	c0-0.2,0.1-0.3,0.2-0.4c0.1-0.1,0.3-0.2,0.4-0.2h1.2c0.2,0,0.3,0.1,0.4,0.2s0.2,0.3,0.2,0.4v5.5C14.7,12.7,14.7,12.8,14.5,12.9z
	 M29.1,12.9c-0.1,0.1-0.3,0.2-0.4,0.2h-1.2c-0.2,0-0.3-0.1-0.4-0.2s-0.2-0.3-0.2-0.4V7c0-0.2,0.1-0.3,0.2-0.4s0.3-0.2,0.4-0.2h1.2
	c0.2,0,0.3,0.1,0.4,0.2s0.2,0.3,0.2,0.4v5.5C29.3,12.7,29.2,12.8,29.1,12.9z M35.9,9.6c-0.5-0.5-1.1-0.7-1.7-0.7h-2.4V7
	c0-0.8-0.3-1.6-0.9-2.1S29.5,4,28.7,4h-1.2c-0.8,0-1.6,0.3-2.1,0.9c-0.6,0.6-0.9,1.3-0.9,2.1v1.8h-7.3V7c0-0.8-0.3-1.6-0.9-2.1
	C15.7,4.3,14.9,4,14.1,4h-1.2c-0.8,0-1.6,0.3-2.1,0.9S9.9,6.2,9.9,7v1.8H7.4C6.7,8.8,6.2,9,5.7,9.5S5,10.6,5,11.3v24.3
	c0,0.7,0.2,1.2,0.7,1.7S6.8,38,7.4,38h26.7c0.7,0,1.2-0.2,1.7-0.7s0.7-1.1,0.7-1.7V11.3C36.6,10.6,36.3,10.1,35.9,9.6z M25.9,31.8
	h-2.6v2.3h2.6V31.8z M10.6,16.6H8v2.3h2.6V16.6z"/>
<g>
	<circle class="st1" cx="14.5" cy="17.3" r="2"/>
</g>
<g>
	<path d="M12.4,40.8c-0.9,0-1.7-0.2-2.4-0.7l-5.2-3c-1.6-0.9-2.5-2.7-2.4-4.6L3,20.9l0.7-0.1c0.2,0,0.4-0.1,0.6-0.1
		c0.5,0,1,0.2,1.5,0.5c0.6,0.4,1,1.1,1.1,1.8l0.4,2.3l5.3-9.1l3.1,1.9l-4.4,7.6l1.7-2.9c0.3-0.6,1-0.9,1.6-0.9
		c0.3,0,0.6,0.1,0.9,0.2c0.9,0.5,1.2,1.7,0.6,2.6l-1.5,2.6l1.2-2c0.4-0.6,1-1,1.7-1c0.3,0,0.6,0.1,0.9,0.2c0.9,0.5,1.1,1.7,0.6,2.6
		l-1.1,1.9l0.6-1c0.4-0.6,1-1,1.7-1c0.3,0,0.6,0.1,0.9,0.2c0.9,0.5,1.2,1.7,0.6,2.6c-1.3,2.2-1.7,3-2.9,5l-1.7,3
		C16.1,39.8,14.3,40.8,12.4,40.8L12.4,40.8z"/>
	<path class="st1" d="M12.7,16.9l2.4,1.5L11,25.6c-0.1,0.2-0.1,0.5,0.2,0.6c0.1,0,0.1,0.1,0.2,0.1c0.1,0,0.3-0.1,0.4-0.2l1.7-2.9
		c0.3-0.5,0.8-0.7,1.3-0.7c0.2,0,0.5,0.1,0.7,0.2l0,0c0.7,0.4,0.9,1.3,0.5,2l-1.5,2.6c-0.1,0.2-0.1,0.5,0.2,0.6
		c0.1,0,0.1,0.1,0.2,0.1c0.1,0,0.3-0.1,0.4-0.2l1.2-2c0.3-0.5,0.8-0.8,1.3-0.8c0.2,0,0.5,0.1,0.7,0.2c0.7,0.4,0.9,1.3,0.4,2.1
		L17.6,29c-0.1,0.2-0.1,0.5,0.2,0.6c0.1,0,0.1,0.1,0.2,0.1c0.1,0,0.3-0.1,0.4-0.2l0.6-1c0.3-0.5,0.8-0.8,1.3-0.8
		c0.2,0,0.5,0.1,0.7,0.2l0,0c0.7,0.4,0.9,1.3,0.5,2c-1.3,2.2-1.7,3-2.9,5c-0.4,0.8-1,1.7-1.7,3c-1,1.6-2.7,2.6-4.3,2.6
		c-0.8,0-1.5-0.2-2.2-0.6l-5.2-3c-1.4-0.8-2.3-2.5-2.2-4.3l0.6-11.3l0.4-0.1c0,0,0,0,0,0c0.2,0,0.3-0.1,0.5-0.1
		c0.4,0,0.9,0.1,1.3,0.4c0.5,0.4,0.9,0.9,1,1.6l0.4,2.3c0,0.2,0.2,0.3,0.3,0.4c0,0,0.1,0,0.1,0c0.2,0,0.3-0.1,0.4-0.2L12.7,16.9
		 M12.5,15.7L12,16.4l-4.5,7.8L7.3,23c-0.1-0.8-0.6-1.6-1.3-2.1c-0.5-0.3-1.1-0.5-1.7-0.5c-0.2,0-0.5,0-0.7,0.1l-0.4,0.1l-0.6,0.1
		l0,0.7L2,32.5c-0.1,2.1,0.9,4,2.6,5l5.2,3c0.8,0.5,1.7,0.7,2.6,0.7c2,0,4-1.1,5-3l1.7-3c1.2-2,1.6-2.8,2.9-5
		c0.7-1.1,0.3-2.5-0.7-3.2c-0.4-0.2-0.8-0.3-1.2-0.3c-0.2,0-0.4,0-0.6,0.1c0.3-1-0.1-2-1-2.5C18.4,24.1,18,24,17.6,24
		c-0.2,0-0.5,0-0.7,0.1c0-0.3,0-0.5,0-0.8c-0.1-0.6-0.5-1.1-1-1.4c-0.4-0.2-0.8-0.3-1.1-0.3c-0.2,0-0.3,0-0.5,0.1l1.7-2.9l0.4-0.7
		l-0.7-0.4l-2.4-1.5L12.5,15.7L12.5,15.7z"/>
</g>
<g>
	<circle cx="14" cy="17.5" r="1.4"/>
</g>
</svg>
