<?xml version="1.0" encoding="utf-8"?>
<!-- Generator: Adobe Illustrator 21.1.0, SVG Export Plug-In . SVG Version: 6.00 Build 0)  -->
<svg version="1.1" id="Ebene_1" xmlns="http://www.w3.org/2000/svg" xmlns:xlink="http://www.w3.org/1999/xlink" x="0px" y="0px"
	 viewBox="0 0 43 43" style="enable-background:new 0 0 43 43;" xml:space="preserve">
<path d="M33.6,4.5c-1,0-4.5,0-4.5,0v1.1C29.6,5.9,30,6.4,30,7c0,0.9-0.8,1.7-1.7,1.7c-0.9,0-1.7-0.8-1.7-1.7c0-0.6,0.4-1.2,0.9-1.5
	V4.5h-5.3v1.1C22.6,5.9,23,6.4,23,7c0,0.9-0.6,1.7-1.6,1.7c-0.9,0-1.7-0.8-1.7-1.7c0-0.6,0.4-1.2,0.9-1.5V4.5h-5.1v1.1
	C16,5.9,16.2,6.4,16.2,7c0,0.9-0.6,1.7-1.6,1.7C13.7,8.7,13,8,13,7c0-0.6,0.4-1.2,0.9-1.5V4.5c0,0-3.4,0-4.8,0s-2.1,0.8-2.1,2
	c0,6.8,0,28.2,0,29.5c0,2,0,2.5,2.3,2.5s22.5,0,24.5,0s2.3-0.6,2.3-2.4c0-1.4,0-23.1,0-29.7C36,4.5,34.6,4.5,33.6,4.5z M33.6,36.1
	H9.3V9.9h24.3V36.1z M29.8,19.3c0,0.2-0.1,0.3-0.2,0.4c-0.1,0.1-0.3,0.2-0.5,0.2H14.1c-0.2,0-0.4-0.1-0.5-0.2
	c-0.1-0.1-0.2-0.3-0.2-0.4v-1.2c0-0.2,0.1-0.3,0.2-0.4c0.1-0.1,0.3-0.2,0.5-0.2h15.1c0.2,0,0.4,0.1,0.5,0.2c0.1,0.1,0.2,0.3,0.2,0.4
	V19.3z M29.1,22.4c0.2,0,0.4,0.1,0.5,0.2c0.1,0.1,0.2,0.3,0.2,0.4v1.2c0,0.2-0.1,0.3-0.2,0.4c-0.1,0.1-0.3,0.2-0.5,0.2H14.1
	c-0.2,0-0.4-0.1-0.5-0.2c-0.1-0.1-0.2-0.3-0.2-0.4V23c0-0.2,0.1-0.3,0.2-0.4c0.1-0.1,0.3-0.2,0.5-0.2H29.1z M29.1,27.2
	c0.2,0,0.4,0.1,0.5,0.2c0.1,0.1,0.2,0.3,0.2,0.4v1.2c0,0.2-0.1,0.3-0.2,0.4c-0.1,0.1-0.3,0.2-0.5,0.2H14.1c-0.2,0-0.4-0.1-0.5-0.2
	c-0.1-0.1-0.2-0.3-0.2-0.4v-1.2c0-0.2,0.1-0.3,0.2-0.4c0.1-0.1,0.3-0.2,0.5-0.2H29.1z"/>
</svg>
