<?xml version="1.0" encoding="utf-8"?>
<!-- Generator: Adobe Illustrator 21.1.0, SVG Export Plug-In . SVG Version: 6.00 Build 0)  -->
<svg version="1.1" id="Ebene_1" xmlns="http://www.w3.org/2000/svg" xmlns:xlink="http://www.w3.org/1999/xlink" x="0px" y="0px"
	 viewBox="0 0 42.5 42.5" style="enable-background:new 0 0 42.5 42.5;" xml:space="preserve">
<path d="M13.3,24.5h-1.4v-5.2L11,19.8l-0.6-1.1l1.9-1.2h1V24.5z M19.2,21c0,0.9-0.2,1.8-0.6,2.4c-0.5,0.8-1.1,1.2-2,1.2
	c-0.9,0-1.6-0.4-2-1.2C14.2,22.8,14,22,14,21c0-0.9,0.2-1.8,0.6-2.4c0.5-0.8,1.1-1.2,2-1.2c0.9,0,1.6,0.4,2,1.2
	C19,19.2,19.2,20,19.2,21z M17.8,21c0-0.5-0.1-1-0.2-1.4c-0.2-0.6-0.5-0.8-0.9-0.8c-0.4,0-0.8,0.3-1,0.8c-0.1,0.4-0.2,0.8-0.2,1.4
	c0,0.5,0.1,1,0.2,1.4c0.2,0.5,0.5,0.8,1,0.8C17.4,23.2,17.8,22.5,17.8,21z M24.6,21c0,0.9-0.2,1.8-0.6,2.4c-0.5,0.8-1.1,1.2-2,1.2
	c-0.9,0-1.6-0.4-2-1.2c-0.4-0.6-0.6-1.4-0.6-2.4c0-0.9,0.2-1.8,0.6-2.4c0.5-0.8,1.1-1.2,2-1.2c0.9,0,1.6,0.4,2,1.2
	C24.4,19.2,24.6,20,24.6,21z M23.2,21c0-0.5-0.1-1-0.2-1.4c-0.2-0.6-0.5-0.8-0.9-0.8c-0.4,0-0.8,0.3-1,0.8C21,20,20.9,20.5,20.9,21
	c0,0.5,0.1,1,0.2,1.4c0.2,0.5,0.5,0.8,1,0.8C22.8,23.2,23.2,22.5,23.2,21z M28.3,20.5c0,0.4-0.1,0.8-0.3,1.1c-0.2,0.3-0.5,0.5-1,0.5
	c-0.4,0-0.7-0.2-1-0.5c-0.2-0.3-0.3-0.6-0.3-1.1c0-0.4,0.1-0.8,0.3-1.1c0.2-0.3,0.5-0.5,1-0.5c0.4,0,0.7,0.2,1,0.5
	C28.2,19.7,28.3,20.1,28.3,20.5z M27.5,20.5c0-0.5-0.1-0.7-0.4-0.7c-0.3,0-0.4,0.2-0.4,0.7c0,0.5,0.1,0.7,0.4,0.7
	C27.4,21.3,27.5,21,27.5,20.5z M30.5,19L28,24.5h-1l2.5-5.5H30.5z M31.6,23c0,0.4-0.1,0.8-0.3,1.1c-0.2,0.3-0.5,0.5-1,0.5
	c-0.4,0-0.7-0.2-1-0.5c-0.2-0.3-0.3-0.6-0.3-1.1c0-0.4,0.1-0.8,0.3-1.1c0.2-0.3,0.5-0.5,1-0.5c0.4,0,0.7,0.2,1,0.5
	C31.5,22.2,31.6,22.6,31.6,23z M30.8,23c0-0.5-0.1-0.7-0.4-0.7c-0.3,0-0.4,0.2-0.4,0.7c0,0.5,0.1,0.7,0.4,0.7
	C30.7,23.8,30.8,23.5,30.8,23z M36.7,27.7c0.2-0.4,0.3-0.7,0.4-1.1l-4.3-1.4c-0.1,0.2-0.2,0.5-0.3,0.7c-0.1,0.2-0.2,0.4-0.3,0.6
	c0,0,0,0,0,0c0,0.1-0.1,0.2-0.1,0.2c0,0,0,0,0,0.1c0,0.1-0.1,0.1-0.1,0.2c0,0,0,0.1-0.1,0.1c0,0-0.1,0.1-0.1,0.1
	c0,0-0.1,0.1-0.1,0.1c0,0,0,0.1-0.1,0.1c0,0.1-0.1,0.1-0.1,0.2c0,0,0,0,0,0.1c0,0.1-0.1,0.1-0.1,0.2c0,0,0,0,0,0
	c-0.1,0.2-0.3,0.4-0.4,0.6c-0.6,0.8-1.3,1.5-2,2.1c0,0-0.1,0.1-0.1,0.1c0,0,0,0-0.1,0c-0.1,0-0.1,0.1-0.2,0.1l2.6,3.6
	c0.6-0.5,1.2-1,1.8-1.6c0.3-0.3,0.6-0.6,0.8-0.9c0,0,0,0,0-0.1c0,0,0-0.1,0.1-0.1c0.7-0.8,1.3-1.6,1.8-2.5
	C36.1,28.9,36.4,28.3,36.7,27.7z M27.5,36.7c0.7-0.3,1.4-0.6,2-1c0.4-0.2,0.8-0.5,1.2-0.8l-2.6-3.6c0,0-0.1,0-0.1,0.1c0,0,0,0,0,0
	c-0.1,0-0.1,0.1-0.2,0.1c0,0,0,0-0.1,0c-0.1,0-0.1,0.1-0.2,0.1c0,0-0.1,0.1-0.1,0.1c0,0,0,0-0.1,0c-0.5,0.3-1,0.5-1.5,0.7
	c-1,0.4-2.1,0.7-3.2,0.9c-0.5,0.1-0.9,0.1-1.4,0.1V38c0.4,0,0.7,0,1.1-0.1c1.5-0.1,3-0.5,4.4-1c0,0,0,0,0,0c0.1,0,0.1,0,0.2-0.1
	c0,0,0.1,0,0.1,0c0,0,0.1,0,0.1,0C27.4,36.8,27.4,36.8,27.5,36.7C27.5,36.7,27.5,36.7,27.5,36.7z M19.7,38c0.3,0,0.6,0,1,0v-4.5
	c-0.4,0-0.8,0-1.3-0.1c0,0,0,0,0,0c0,0-0.1,0-0.1,0c-1.1-0.1-2.2-0.4-3.2-0.9c-0.5-0.2-1-0.5-1.5-0.7c0,0,0,0,0,0
	c-0.2-0.1-0.3-0.2-0.5-0.3c0,0-0.1-0.1-0.1-0.1c0,0-0.1,0-0.1-0.1c0,0-0.1,0-0.1-0.1l-2.6,3.6c0.4,0.3,0.8,0.5,1.2,0.8
	c0.6,0.3,1.1,0.6,1.7,0.9c0,0,0,0,0,0c0.1,0,0.1,0.1,0.2,0.1c0,0,0.1,0,0.1,0c0,0,0.1,0,0.1,0c0.1,0,0.1,0,0.2,0.1c0,0,0,0,0,0
	c1.5,0.6,3.1,0.9,4.7,1.1C19.6,38,19.7,38,19.7,38C19.7,38,19.7,38,19.7,38z M10.8,34.6l2.6-3.6c-0.1,0-0.1-0.1-0.2-0.1
	c0,0-0.1,0-0.1-0.1c0,0-0.1,0-0.1-0.1c-0.8-0.6-1.4-1.3-2-2.1c-0.1-0.2-0.3-0.4-0.4-0.6c0,0,0,0,0,0c0-0.1-0.1-0.1-0.1-0.2
	c0,0,0,0,0-0.1c0-0.1-0.1-0.1-0.1-0.2c0,0,0-0.1-0.1-0.1c0,0-0.1-0.1-0.1-0.1c0,0-0.1-0.1-0.1-0.1c0,0,0-0.1-0.1-0.1
	c0-0.1-0.1-0.1-0.1-0.2c0,0,0,0,0-0.1c0-0.1-0.1-0.2-0.1-0.2c0,0,0,0,0,0c-0.1-0.2-0.2-0.4-0.3-0.6c-0.1-0.2-0.2-0.5-0.3-0.7
	l-4.3,1.4c0.1,0.4,0.3,0.8,0.4,1.1c0.3,0.6,0.6,1.2,0.9,1.8c0.5,0.9,1.1,1.7,1.8,2.5c0,0,0,0,0.1,0.1c0,0,0,0.1,0.1,0.1
	C8.4,32.5,8.7,32.8,9,33C9.5,33.6,10.1,34.1,10.8,34.6z M5.4,14.3c-0.2,0.4-0.3,0.7-0.4,1.1l4.3,1.4c0.1-0.2,0.2-0.5,0.3-0.7
	c0.1-0.2,0.2-0.4,0.3-0.6c0,0,0,0,0,0c0-0.1,0.1-0.2,0.1-0.2c0,0,0,0,0-0.1C9.9,15.1,10,15,10,15c0,0,0-0.1,0.1-0.1
	c0,0,0.1-0.1,0.1-0.1c0,0,0.1-0.1,0.1-0.1c0,0,0-0.1,0.1-0.1c0-0.1,0.1-0.1,0.1-0.2c0,0,0,0,0-0.1c0-0.1,0.1-0.1,0.1-0.2
	c0,0,0,0,0,0c0.1-0.2,0.3-0.4,0.4-0.6c0.6-0.8,1.3-1.5,2-2.1c0,0,0.1-0.1,0.1-0.1c0,0,0,0,0.1-0.1c0.1,0,0.1-0.1,0.2-0.1l-2.6-3.6
	C10.1,7.9,9.5,8.4,9,9C8.7,9.3,8.4,9.5,8.2,9.8c0,0,0,0-0.1,0.1c0,0,0,0.1-0.1,0.1c-0.7,0.8-1.3,1.6-1.8,2.5
	C5.9,13.1,5.6,13.7,5.4,14.3z M14.5,5.3c-0.7,0.3-1.3,0.6-2,1c-0.4,0.2-0.8,0.5-1.2,0.8l2.6,3.6c0,0,0.1,0,0.1-0.1c0,0,0,0,0,0
	c0.1,0,0.1-0.1,0.2-0.1c0,0,0.1,0,0.1,0c0.1,0,0.1-0.1,0.2-0.1c0,0,0.1-0.1,0.1-0.1c0,0,0,0,0,0c0.5-0.3,1-0.5,1.5-0.7
	c1-0.4,2.1-0.7,3.2-0.9c0,0,0.1,0,0.1,0c0,0,0,0,0,0c0.4-0.1,0.8-0.1,1.3-0.1V4c-0.3,0-0.6,0-1,0c0,0,0,0,0,0c0,0-0.1,0-0.1,0
	c-1.5,0.1-3,0.5-4.5,1c0,0,0,0,0,0c-0.1,0-0.1,0.1-0.2,0.1c0,0-0.1,0-0.1,0c0,0-0.1,0-0.1,0C14.6,5.2,14.6,5.3,14.5,5.3
	C14.5,5.3,14.5,5.3,14.5,5.3z M22.3,4c-0.3,0-0.6,0-1,0v4.5c0.4,0,0.8,0,1.3,0.1c0,0,0,0,0,0c0,0,0.1,0,0.1,0
	c1.1,0.1,2.2,0.4,3.2,0.9c0.5,0.2,1,0.5,1.5,0.7c0,0,0,0,0,0c0.1,0.1,0.2,0.1,0.3,0.2c0,0,0,0,0,0c0,0,0.1,0,0.1,0.1
	c0,0,0.1,0.1,0.1,0.1c0,0,0,0,0.1,0c0,0,0.1,0,0.1,0.1l2.6-3.6c-0.4-0.3-0.8-0.5-1.2-0.8c-0.6-0.3-1.1-0.6-1.7-0.9c0,0,0,0,0,0
	c-0.1,0-0.1-0.1-0.2-0.1c0,0-0.1,0-0.1,0c0,0-0.1,0-0.1-0.1c-0.1,0-0.1,0-0.2-0.1c0,0,0,0,0,0c-1.5-0.6-3.1-0.9-4.7-1.1
	C22.4,4.1,22.3,4,22.3,4C22.3,4,22.3,4,22.3,4z M31.3,7.4L28.6,11c0.1,0,0.1,0.1,0.2,0.1c0,0,0.1,0,0.1,0.1c0,0,0.1,0,0.1,0.1
	c0.8,0.6,1.4,1.3,2,2.1c0.1,0.2,0.3,0.4,0.4,0.6c0,0,0,0,0,0c0,0.1,0.1,0.1,0.1,0.2c0,0,0,0,0,0.1c0,0.1,0.1,0.1,0.1,0.2
	c0,0,0,0.1,0.1,0.1c0,0,0.1,0.1,0.1,0.1c0,0,0.1,0.1,0.1,0.1c0,0,0,0.1,0.1,0.1c0,0.1,0.1,0.1,0.1,0.2c0,0,0,0,0,0.1
	c0,0.1,0.1,0.2,0.1,0.2c0,0,0,0,0,0c0.1,0.2,0.2,0.4,0.3,0.6c0.1,0.2,0.2,0.5,0.3,0.7l4.3-1.4c-0.1-0.4-0.3-0.8-0.4-1.1
	c-0.3-0.6-0.6-1.2-0.9-1.8c-0.5-0.9-1.1-1.7-1.8-2.5c0,0,0,0-0.1-0.1c0,0,0-0.1-0.1-0.1C33.6,9.5,33.3,9.3,33,9
	C32.5,8.4,31.9,7.9,31.3,7.4z M37.9,19c-0.1-0.8-0.2-1.6-0.5-2.4c-0.1-0.2-0.1-0.4-0.2-0.6L33,17.4c0,0.1,0,0.1,0.1,0.2c0,0,0,0,0,0
	c0,0,0,0.1,0,0.1c0,0,0,0.1,0,0.1c0,0,0,0,0,0c0.1,0.5,0.2,1,0.3,1.6c0.1,0.4,0.1,0.9,0.1,1.3c0,0,0,0,0,0c0,0,0,0.1,0,0.1
	c0,0,0,0,0,0.1c0,0,0,0.1,0,0.1c0,0,0,0.1,0,0.1c0,0,0,0,0,0.1c0,0,0,0.1,0,0.1c0,0,0,0,0,0c0,0.4,0,0.9-0.1,1.3
	c-0.1,0.5-0.2,1-0.3,1.6c0,0,0,0,0,0c0,0,0,0.1,0,0.1c0,0,0,0.1,0,0.1c0,0,0,0,0,0c0,0.1,0,0.1-0.1,0.2l4.2,1.4
	c0.1-0.2,0.1-0.4,0.2-0.6c0.2-0.8,0.4-1.6,0.5-2.4c0.1-0.7,0.1-1.4,0.1-2C38,20.3,38,19.6,37.9,19z M9,17.4L4.7,16
	c-0.1,0.2-0.1,0.4-0.2,0.6c-0.2,0.8-0.4,1.6-0.5,2.4C4,19.6,4,20.3,4,21c0,0.7,0,1.4,0.1,2c0.1,0.8,0.2,1.6,0.5,2.4
	c0.1,0.2,0.1,0.4,0.2,0.6L9,24.6c0-0.1,0-0.1-0.1-0.2c0,0,0,0,0,0c0,0,0-0.1,0-0.1c0,0,0-0.1,0-0.1c0,0,0,0,0,0
	c-0.1-0.5-0.2-1-0.3-1.6c-0.1-0.4-0.1-0.9-0.1-1.3c0,0,0,0,0,0c0,0,0-0.1,0-0.1c0,0,0,0,0-0.1c0,0,0-0.1,0-0.1c0,0,0-0.1,0-0.1
	c0,0,0,0,0-0.1c0,0,0-0.1,0-0.1c0,0,0,0,0,0c0-0.4,0-0.9,0.1-1.3c0.1-0.5,0.2-1,0.3-1.6c0,0,0,0,0,0c0,0,0-0.1,0-0.1
	c0,0,0-0.1,0-0.1c0,0,0,0,0,0C9,17.6,9,17.5,9,17.4z"/>
</svg>
