<?xml version="1.0" encoding="utf-8"?>
<!-- Generator: Adobe Illustrator 21.1.0, SVG Export Plug-In . SVG Version: 6.00 Build 0)  -->
<svg version="1.1" id="Ebene_1" xmlns="http://www.w3.org/2000/svg" xmlns:xlink="http://www.w3.org/1999/xlink" x="0px" y="0px"
	 viewBox="0 0 42.5 42.5" style="enable-background:new 0 0 42.5 42.5;" xml:space="preserve">
<path d="M32.2,17.1h-0.7v-3.3c0,0,0,0,0-0.1c0-0.1,0-0.3-0.1-0.4l-5.5-6.2c0,0,0,0,0,0c0,0-0.1-0.1-0.1-0.1c0,0,0,0,0,0
	c0,0-0.1,0-0.1,0c0,0,0,0,0,0c0,0-0.1,0-0.1,0H12.1C11.5,7,11,7.5,11,8.1v9h-0.7c-0.9,0-1.6,0.7-1.6,1.6V27c0,0.9,0.7,1.6,1.6,1.6
	H11v5.7c0,0.6,0.5,1.1,1.1,1.1h18.3c0.6,0,1.1-0.5,1.1-1.1v-5.7h0.7c0.9,0,1.6-0.7,1.6-1.6v-8.3C33.8,17.8,33.1,17.1,32.2,17.1
	L32.2,17.1z M12.1,8.1H25v5.7c0,0.3,0.2,0.6,0.6,0.6h4.9v2.8H12.1V8.1z M30.4,33.9H12.1v-5.4h18.3V33.9z M28.5,26.3 M15.1,19.1
	l1.2,5.5l1.2-5.5h1.7v7.6h-1.3v-2l0.1-3.2l-1.3,5.2h-0.9l-1.3-5.2l0.1,3.2v2h-1.3v-7.6H15.1z M21.6,26.7h-1.3v-7.6h1.3V26.7z
	 M22.6,26.7v-7.6h1.7c0.7,0,1.3,0.3,1.8,0.8c0.4,0.6,0.7,1.3,0.7,2.3v1.2c0,1-0.2,1.8-0.7,2.3c-0.4,0.6-1.1,0.8-1.8,0.8H22.6z
	 M23.9,20.4v5h0.4c0.4,0,0.7-0.1,0.9-0.4c0.2-0.3,0.3-0.7,0.3-1.4v-1.3c0-0.7-0.1-1.2-0.3-1.5s-0.5-0.4-0.9-0.4H23.9z M29.1,26.7
	h-1.3v-7.6h1.3V26.7z"/>
</svg>
