<?xml version="1.0" encoding="utf-8"?>
<!-- Generator: Adobe Illustrator 27.1.0, SVG Export Plug-In . SVG Version: 6.00 Build 0)  -->
<svg version="1.1" id="Ebene_1" xmlns="http://www.w3.org/2000/svg" xmlns:xlink="http://www.w3.org/1999/xlink" x="0px" y="0px"
	 viewBox="0 0 42.5 42.5" style="enable-background:new 0 0 42.5 42.5;" xml:space="preserve">
<style type="text/css">
	.st0{fill:none;stroke:#000000;stroke-width:2.5;stroke-miterlimit:10;}
</style>
<g id="light">
	<path class="st0" d="M21.1,14.2c-2.2,4.6,0.4,9.8,5,11c-1,1.9-4.2,3.8-7.6,2.9c-3.6-1-5.8-4.6-5.1-8.2
		C14.1,16.4,17.2,13.9,21.1,14.2z"/>
	<path class="st0" d="M34.5,16.6c0.2,1.9-0.9,3.8-2.7,4.7c-1.9,0.9-4.2,0.5-5.5-1c-1.5-1.6-1.8-3.8-0.7-5.7c1-1.8,2.9-2.6,4.5-2.4
		c-0.7,1.4-0.6,2.8,0.6,3.9C31.7,17.2,32.9,17.3,34.5,16.6z"/>
	<path d="M7.9,32.2c0-0.6,0.2-1,0.5-1.3c0.8-0.8,1.6-1.6,2.4-2.4c0.7-0.7,1.8-0.7,2.4,0c0.7,0.7,0.7,1.7,0,2.4
		c-0.8,0.8-1.6,1.6-2.4,2.4c-0.5,0.5-1.2,0.6-1.9,0.3C8.3,33.3,8,32.8,7.9,32.2z M32.5,31c-0.9-0.9-1.7-1.8-2.7-2.7
		c-0.6-0.6-1.6-0.5-2.3,0.1c-0.6,0.6-0.7,1.6-0.1,2.3c0.9,0.9,1.8,1.8,2.7,2.7c0.5,0.5,1.2,0.5,1.8,0.2c0.6-0.3,0.9-0.8,0.9-1.7
		C32.8,31.7,32.8,31.3,32.5,31z M13.4,11.9c-0.9-0.9-1.7-1.8-2.7-2.7c-0.6-0.6-1.6-0.5-2.3,0.1C7.9,10,7.8,11,8.4,11.6
		c0.9,0.9,1.8,1.8,2.7,2.7c0.5,0.5,1.2,0.5,1.8,0.2c0.6-0.3,0.9-0.8,0.9-1.7C13.7,12.6,13.7,12.2,13.4,11.9z M22.1,6
		c0-1-0.7-1.7-1.7-1.7c-0.9,0-1.7,0.7-1.7,1.7c0,1.1,0,2.3,0,3.4c0,1,0.8,1.7,1.7,1.7c0.9,0,1.6-0.7,1.7-1.7c0-0.6,0-1.1,0-1.7
		C22.1,7.1,22.1,6.5,22.1,6z M8.5,22.9c1,0,1.7-0.8,1.7-1.7c0-0.9-0.7-1.7-1.7-1.7c-1.1,0-2.3,0-3.4,0c-1,0-1.7,0.7-1.7,1.7
		c0,0.9,0.7,1.7,1.7,1.7c0.6,0,1.1,0,1.7,0C7.4,22.9,7.9,22.9,8.5,22.9z M22.1,33.2c0-1-0.8-1.7-1.7-1.7c-0.9,0-1.7,0.7-1.7,1.7
		c0,1.1,0,2.3,0,3.4c0,1,0.7,1.7,1.7,1.7c0.9,0,1.7-0.7,1.7-1.7c0-0.6,0-1.1,0-1.7C22.1,34.3,22.1,33.7,22.1,33.2z"/>
</g>
</svg>
