<?xml version="1.0" encoding="utf-8"?>
<!-- Generator: Adobe Illustrator 21.1.0, SVG Export Plug-In . SVG Version: 6.00 Build 0)  -->
<svg version="1.1" id="Ebene_1" xmlns="http://www.w3.org/2000/svg" xmlns:xlink="http://www.w3.org/1999/xlink" x="0px" y="0px"
	 viewBox="0 0 42.5 42.5" style="enable-background:new 0 0 42.5 42.5;" xml:space="preserve">
<style type="text/css">
	.st0{fill:#D4EDFC;}
</style>
<path class="st0" d="M16.3,21.6H8.6v-5.5h7.6V21.6z M32.8,22.3h-7.3V28h7.3V22.3z M24.3,28.7h-7.2v5.4h7.2V28.7z"/>
<path d="M35.9,9.6c-0.5-0.5-1.1-0.7-1.7-0.7h-2.4V7c0-0.8-0.3-1.6-0.9-2.1C30.2,4.3,29.5,4,28.7,4h-1.2c-0.8,0-1.6,0.3-2.1,0.9
	c-0.6,0.6-0.9,1.3-0.9,2.1v1.8h-7.3V7c0-0.8-0.3-1.6-0.9-2.1C15.7,4.3,14.9,4,14.1,4h-1.2c-0.8,0-1.6,0.3-2.1,0.9
	C10.2,5.5,9.9,6.2,9.9,7v1.8H7.4c-0.7,0-1.2,0.2-1.7,0.7S5,10.6,5,11.3v24.3c0,0.7,0.2,1.2,0.7,1.7C6.2,37.8,6.8,38,7.4,38h26.7
	c0.7,0,1.2-0.2,1.7-0.7c0.5-0.5,0.7-1.1,0.7-1.7V11.3C36.6,10.6,36.3,10.1,35.9,9.6z M12.3,7c0-0.2,0.1-0.3,0.2-0.4
	c0.1-0.1,0.3-0.2,0.4-0.2h1.2c0.2,0,0.3,0.1,0.4,0.2c0.1,0.1,0.2,0.3,0.2,0.4v5.5c0,0.2-0.1,0.3-0.2,0.4c-0.1,0.1-0.3,0.2-0.4,0.2
	h-1.2c-0.2,0-0.3-0.1-0.4-0.2c-0.1-0.1-0.2-0.3-0.2-0.4V7z M16,34.1H8.8v-5.2H16V34.1z M16,27.9H8.8v-5.2H16V27.9z M16,21.6H8.8
	v-5.2H16V21.6z M24.3,34.1h-7.2v-5.2h7.2V34.1z M24.3,27.9h-7.2v-5.2h7.2V27.9z M24.3,21.6h-7.2v-5.2h7.2V21.6z M26.9,7
	c0-0.2,0.1-0.3,0.2-0.4c0.1-0.1,0.3-0.2,0.4-0.2h1.2c0.2,0,0.3,0.1,0.4,0.2c0.1,0.1,0.2,0.3,0.2,0.4v5.5c0,0.2-0.1,0.3-0.2,0.4
	c-0.1,0.1-0.3,0.2-0.4,0.2h-1.2c-0.2,0-0.3-0.1-0.4-0.2c-0.1-0.1-0.2-0.3-0.2-0.4V7z M32.8,34.1h-7.2v-5.2h7.2V34.1z M32.8,27.9
	h-7.2v-5.2h7.2V27.9z M32.8,21.6h-7.2v-5.2h7.2V21.6z"/>
</svg>
