<?xml version="1.0" encoding="utf-8"?>
<!-- Generator: Adobe Illustrator 21.1.0, SVG Export Plug-In . SVG Version: 6.00 Build 0)  -->
<svg version="1.1" id="Ebene_1" xmlns="http://www.w3.org/2000/svg" xmlns:xlink="http://www.w3.org/1999/xlink" x="0px" y="0px"
	 viewBox="0 0 43 43" style="enable-background:new 0 0 43 43;" xml:space="preserve">
<path d="M24.3,33.6c0,1.5-1.2,2.7-2.7,2.7c-1.5,0-2.7-1.2-2.7-2.7c0-1.5,1.2-2.7,2.7-2.7C23.1,30.9,24.3,32.1,24.3,33.6L24.3,33.6z
	 M24.3,33.6 M38.4,18.9c-0.5,0-1-0.2-1.4-0.6c-8.4-8.4-22.1-8.4-30.5,0c-0.8,0.8-2,0.8-2.8,0c-0.8-0.8-0.8-2,0-2.8
	C8.4,10.7,14.8,8,21.7,8c6.8,0,13.3,2.7,18.1,7.5c0.8,0.8,0.8,2,0,2.8C39.4,18.7,38.9,18.9,38.4,18.9L38.4,18.9z M38.4,18.9
	 M12.6,18.3c-1.3,0.7-2.5,1.6-3.6,2.7c-0.8,0.8-0.8,2,0,2.8c0.8,0.8,2,0.8,2.8,0c1.2-1.2,2.5-2.1,4-2.8c-1.1-0.9-2.6-2.1-3-2.5
	C12.8,18.4,12.7,18.3,12.6,18.3z M34.3,21c-1.1-1.1-2.3-2-3.5-2.7c0,0.1,0.1,0.3,0.1,0.4c0.3,1.9,0.2,3.3-0.3,4.3
	c0.3,0.3,0.6,0.5,0.9,0.8c0.4,0.4,0.9,0.6,1.4,0.6c0.5,0,1-0.2,1.4-0.6C35.1,23,35.1,21.8,34.3,21z M25.4,28.1
	c0,0.2-0.1,0.3-0.1,0.5c0.3,0.2,0.5,0.4,0.7,0.6c0.4,0.4,0.9,0.6,1.4,0.6c0.5,0,1-0.2,1.4-0.6c0.8-0.8,0.8-2,0-2.8
	c-0.3-0.3-0.6-0.6-1-0.8c-0.2,0.1-0.5,0.3-0.8,0.5C26.1,26.7,25.5,27.5,25.4,28.1z M18.5,23.9c-1.5,0.5-2.9,1.3-4,2.5
	c-0.8,0.8-0.8,2,0,2.8c0.8,0.8,2,0.8,2.8,0c0.3-0.3,0.5-0.5,0.8-0.7C18,28.1,18,27.5,18,26.8C18,26,18.1,24.9,18.5,23.9z M29.9,20.4
	c0,0.7-0.1,1.4-0.3,2s-0.6,1.1-1,1.5s-0.8,0.8-1.2,1c-0.3,0.2-0.8,0.5-1.3,0.8c-0.5,0.3-0.8,0.5-1,0.6s-0.4,0.3-0.6,0.5
	c-0.2,0.2-0.3,0.4-0.3,0.6v0.7c0,0.2-0.1,0.4-0.2,0.5s-0.3,0.2-0.5,0.2h-3.6c-0.2,0-0.4-0.1-0.5-0.2s-0.2-0.3-0.2-0.5v-1.5
	c0-0.5,0.1-1,0.2-1.4c0.2-0.4,0.3-0.8,0.5-1.1s0.5-0.5,0.9-0.8c0.4-0.3,0.7-0.4,0.9-0.6s0.6-0.3,1-0.5c0.8-0.4,1.3-0.7,1.7-1
	c0.3-0.3,0.5-0.6,0.5-1.1c0-0.6-0.3-1.2-1-1.6c-0.6-0.4-1.4-0.7-2.1-0.7c-0.8,0-1.5,0.2-2.1,0.6c-0.4,0.3-1,0.9-1.8,1.8
	c-0.1,0.2-0.3,0.3-0.6,0.3c-0.2,0-0.3,0-0.4-0.1l-2.4-1.8c-0.1-0.1-0.2-0.3-0.3-0.4c0-0.2,0-0.4,0.1-0.5c1.8-2.9,4.4-4.3,7.8-4.3
	c1.9,0,3.7,0.7,5.3,2C29.1,16.9,29.9,18.5,29.9,20.4z"/>
</svg>
