<?xml version="1.0" encoding="utf-8"?>
<!-- Generator: Adobe Illustrator 21.1.0, SVG Export Plug-In . SVG Version: 6.00 Build 0)  -->
<svg version="1.1" id="Ebene_1" xmlns="http://www.w3.org/2000/svg" xmlns:xlink="http://www.w3.org/1999/xlink" x="0px" y="0px"
	 viewBox="0 0 42.5 42.5" style="enable-background:new 0 0 42.5 42.5;" xml:space="preserve">
<path d="M13.6,32c0.1,0.3,0.5,0.4,0.7,0.6c0.3,0.1,0.6-0.1,0.8-0.2c1.3-0.6,3.1,0.1,4.5,0.1c0.8,0,0.8-1.3,0-1.3
	c-1.6,0-3-0.4-4.6-0.1c0-0.1,0-0.2-0.1-0.4c-0.3-0.5-0.7-0.7-1.1-0.6c0-0.1,0-0.1-0.1-0.2c-0.1-0.2-0.2-0.2-0.4-0.3
	c0.5-0.8,0.7-1.6,0.4-2.3c-0.1-0.2-0.3-0.3-0.6-0.3c-0.9,0-1.6,0.9-2.1,1.4c-1.4,1.3-2.6,2.9-3.8,4.4c-0.5,0.7,0.6,1.3,1.1,0.6
	c1-1.4,2.1-2.7,3.3-3.9c-0.3,0.5-0.6,0.9-0.9,1.4c-0.5,0.7,0.6,1.3,1.1,0.6c0.1-0.2,0.3-0.3,0.4-0.4c0,0.1-0.1,0.2-0.1,0.2
	c0,0,0,0,0,0c0,0.1-0.1,0.1-0.1,0.1c-0.3,0.7,0.8,1,1.2,0.5c0.1-0.1,0.2-0.3,0.3-0.4C13.6,31.7,13.6,31.9,13.6,32L13.6,32z
	 M26.7,35.6H2.4V6.4H17v7.9c0,0.5,0.2,0.9,0.5,1.3c0.4,0.4,0.8,0.5,1.3,0.5h7.9v1.6h2.4v-3.4c0-0.5-0.1-1.1-0.4-1.7
	c-0.3-0.6-0.6-1.1-0.9-1.4l-5.9-5.9c-0.4-0.4-0.8-0.7-1.4-0.9C19.9,4.1,19.3,4,18.8,4h-17C1.3,4,0.9,4.1,0.5,4.5
	C0.2,4.9,0,5.3,0,5.8v30.4c0,0.5,0.2,0.9,0.5,1.3S1.3,38,1.8,38h25.5c0.5,0,0.9-0.2,1.3-0.5s0.5-0.8,0.5-1.3V33h-2.4V35.6z
	 M19.4,6.5c0.4,0.1,0.6,0.3,0.8,0.4l5.9,5.9c0.2,0.2,0.3,0.4,0.4,0.8h-7.1V6.5z M21.7,17.7c0.1,0.1,0.2,0.3,0.2,0.4v1.2
	c0,0.2-0.1,0.3-0.2,0.4c-0.1,0.1-0.3,0.2-0.4,0.2H7.9c-0.2,0-0.3-0.1-0.4-0.2c-0.1-0.1-0.2-0.3-0.2-0.4v-1.2c0-0.2,0.1-0.3,0.2-0.4
	c0.1-0.1,0.3-0.2,0.4-0.2h13.4C21.4,17.5,21.6,17.6,21.7,17.7z M21.7,22.6c0.1,0.1,0.2,0.3,0.2,0.4v1.2c0,0.2-0.1,0.3-0.2,0.4
	c-0.1,0.1-0.3,0.2-0.4,0.2H7.9c-0.2,0-0.3-0.1-0.4-0.2c-0.1-0.1-0.2-0.3-0.2-0.4V23c0-0.2,0.1-0.3,0.2-0.4c0.1-0.1,0.3-0.2,0.4-0.2
	h13.4C21.4,22.4,21.6,22.5,21.7,22.6z M26.3,29.1l2-1.8L26,24.7l-2,1.8l0,0.9l1.6,0.1L25.4,29L26.3,29.1z M34,17.8
	c-0.2-0.2-0.3-0.2-0.5,0l-6,5.4c-0.2,0.2-0.2,0.4,0,0.5c0.2,0.2,0.3,0.2,0.5,0l6-5.4C34.2,18.2,34.2,18,34,17.8z M33.9,15.5l4.4,4.9
	L26.9,30.7l-4.7-0.2l0.2-4.7L33.9,15.5z M41,18l-1.6,1.4L35,14.5l1.6-1.4c0.3-0.3,0.7-0.4,1.1-0.4c0.4,0,0.8,0.2,1.1,0.5l2.3,2.6
	c0.3,0.3,0.4,0.7,0.4,1.1C41.5,17.4,41.3,17.7,41,18z M42.4,37l-0.8,0.8c-0.1,0.1-0.2,0.2-0.4,0.2s-0.3-0.1-0.4-0.2l-3.4-3.5
	l-3.4,3.5c-0.1,0.1-0.3,0.2-0.4,0.2s-0.3-0.1-0.4-0.2L32.1,37C32,36.9,32,36.7,32,36.6c0-0.2,0.1-0.3,0.2-0.4l3.5-3.4l-3.5-3.4
	C32,29.2,32,29,32,28.9s0.1-0.3,0.2-0.4l0.8-0.8c0.1-0.1,0.2-0.2,0.4-0.2s0.3,0.1,0.4,0.2l3.4,3.4l3.4-3.4c0.1-0.1,0.3-0.2,0.4-0.2
	s0.3,0.1,0.4,0.2l0.8,0.8c0.1,0.1,0.2,0.2,0.2,0.4s-0.1,0.3-0.2,0.4l-3.4,3.4l3.4,3.4c0.1,0.1,0.2,0.3,0.2,0.4
	C42.5,36.7,42.5,36.9,42.4,37z"/>
</svg>
