<?xml version="1.0" encoding="utf-8"?>
<!-- Generator: Adobe Illustrator 21.1.0, SVG Export Plug-In . SVG Version: 6.00 Build 0)  -->
<svg version="1.1" id="Ebene_1" xmlns="http://www.w3.org/2000/svg" xmlns:xlink="http://www.w3.org/1999/xlink" x="0px" y="0px"
	 viewBox="0 0 42.5 42.5" style="enable-background:new 0 0 42.5 42.5;" xml:space="preserve">
<path d="M32.2,17.1h-0.7v-3.3c0,0,0,0,0-0.1c0-0.1,0-0.3-0.1-0.4l-5.5-6.2c0,0,0,0,0,0c0,0-0.1-0.1-0.1-0.1c0,0,0,0,0,0
	c0,0-0.1,0-0.1,0c0,0,0,0,0,0c0,0-0.1,0-0.1,0H12.1C11.5,7,11,7.5,11,8.1v9h-0.7c-0.9,0-1.6,0.7-1.6,1.6V27c0,0.9,0.7,1.6,1.6,1.6
	H11v5.7c0,0.6,0.5,1.1,1.1,1.1h18.3c0.6,0,1.1-0.5,1.1-1.1v-5.7h0.7c0.9,0,1.6-0.7,1.6-1.6v-8.3C33.8,17.8,33.1,17.1,32.2,17.1
	L32.2,17.1z M12.1,8.1H25v5.7c0,0.3,0.2,0.6,0.6,0.6h4.9v2.8H12.1V8.1z M30.4,33.9H12.1v-5.4h18.3V33.9z M28.5,26.3 M15.1,24v2.7
	h-1.3v-7.6H16c0.6,0,1.1,0.2,1.5,0.7c0.4,0.5,0.6,1.1,0.6,1.8s-0.2,1.3-0.6,1.8C17.2,23.8,16.6,24,16,24H15.1z M15.1,22.8H16
	c0.2,0,0.4-0.1,0.6-0.3s0.2-0.5,0.2-0.8c0-0.4-0.1-0.7-0.2-0.9c-0.1-0.2-0.3-0.3-0.6-0.3h-0.9V22.8z M23.4,26.7h-1.3l-1.9-5v5h-1.3
	v-7.6h1.3l1.9,5v-5h1.3V26.7z M28.8,25.9c-0.2,0.3-0.6,0.6-0.9,0.7c-0.4,0.2-0.8,0.2-1.2,0.2c-0.7,0-1.3-0.3-1.7-0.8
	c-0.4-0.5-0.6-1.3-0.6-2.4v-1.4c0-1,0.2-1.8,0.6-2.4c0.4-0.6,0.9-0.8,1.7-0.8c0.7,0,1.2,0.2,1.6,0.6c0.4,0.4,0.6,1,0.6,1.9h-1.3
	c0-0.5-0.1-0.8-0.3-1c-0.1-0.2-0.3-0.3-0.6-0.3c-0.3,0-0.6,0.2-0.8,0.5s-0.2,0.8-0.2,1.4v1.4c0,0.7,0.1,1.2,0.3,1.5
	c0.2,0.3,0.5,0.5,0.9,0.5c0.3,0,0.5-0.1,0.6-0.2l0.1-0.1v-1.4h-0.9v-1.2h2.2V25.9z"/>
</svg>
