<?xml version="1.0" encoding="utf-8"?>
<svg version="1.1" id="Ebene_1" x="0px" y="0px" viewBox="0 0 42.5 42.5" style="enable-background:new 0 0 42.5 42.5;" xmlns="http://www.w3.org/2000/svg">
  <path d="M34.9,30.8V16.7c0-0.5-0.2-1-0.6-1.4s-0.8-0.6-1.4-0.6H18.8c-0.5,0-1-0.2-1.4-0.6c-0.4-0.4-0.6-0.8-0.6-1.4v-1.3 c0-0.5-0.2-1-0.6-1.4c-0.4-0.4-0.8-0.6-1.4-0.6H8.5c-0.5,0-1,0.2-1.4,0.6S6.6,11,6.6,11.5v19.3c0,0.5,0.2,1,0.6,1.4s0.8,0.6,1.4,0.6 H33c0.5,0,1-0.2,1.4-0.6S34.9,31.4,34.9,30.8z M37.5,16.7v14.2c0,1.2-0.4,2.3-1.3,3.2c-0.9,0.9-1.9,1.3-3.2,1.3H8.5 c-1.2,0-2.3-0.4-3.2-1.3S4,32.1,4,30.8V11.5c0-1.2,0.4-2.3,1.3-3.2S7.3,7,8.5,7H15c1.2,0,2.3,0.4,3.2,1.3c0.9,0.9,1.3,1.9,1.3,3.2 v0.6H33c1.2,0,2.3,0.4,3.2,1.3C37.1,14.4,37.5,15.4,37.5,16.7z M16.6,24.9H9.3v-7.3h7.3V24.9z M32.2,29.9h-5.1V17.6h5.1V29.9z M16.6,29.9H9.3v-3.3h7.3V29.9z M25.5,22.3h-7.3v-4.7h7.3V22.3z M25.5,30h-7.3v-6.1h7.3V30z"/>
</svg>