<?xml version="1.0" encoding="utf-8"?>
<!-- Generator: Adobe Illustrator 21.1.0, SVG Export Plug-In . SVG Version: 6.00 Build 0)  -->
<svg version="1.1" id="Ebene_1" xmlns="http://www.w3.org/2000/svg" xmlns:xlink="http://www.w3.org/1999/xlink" x="0px" y="0px"
	 viewBox="0 0 42.5 42.5" style="enable-background:new 0 0 42.5 42.5;" xml:space="preserve">
<path stroke="white" fill="white" id="Icon_Zeiterfassung_7_" d="M32.7,21.2c0-2.1-0.5-4-1.6-5.8c-1-1.8-2.4-3.2-4.2-4.2c-1.8-1-3.7-1.6-5.8-1.6s-4,0.5-5.8,1.6
	s-3.2,2.4-4.2,4.2s-1.6,3.7-1.6,5.8s0.5,4,1.6,5.8c1,1.8,2.4,3.2,4.2,4.2c1.8,1,3.7,1.6,5.8,1.6s4-0.5,5.8-1.6
	c1.8-1,3.2-2.4,4.2-4.2C32.2,25.2,32.7,23.3,32.7,21.2z M35.3,21.2c0,2.6-0.6,4.9-1.9,7.1c-1.3,2.2-3,3.9-5.2,5.2
	c-2.2,1.3-4.5,1.9-7.1,1.9s-4.9-0.6-7.1-1.9c-2.2-1.3-3.9-3-5.2-5.2S7,23.7,7,21.2s0.6-4.9,1.9-7.1s3-3.9,5.2-5.2S18.6,7,21.2,7
	s4.9,0.6,7.1,1.9s3.9,3,5.2,5.2C34.7,16.2,35.3,18.6,35.3,21.2z"/>
<path stroke="white" fill="white" d="M29.5,17.5L18.6,28.4c-0.2,0.2-0.5,0.3-0.8,0.3c-0.3,0-0.6-0.1-0.8-0.3l-5.4-5.4c-0.2-0.2-0.3-0.5-0.3-0.8
	c0-0.3,0.1-0.6,0.3-0.8l0.8-0.8c0.2-0.2,0.5-0.3,0.8-0.3s0.6,0.1,0.8,0.3l3.8,3.8l9.3-9.3c0.2-0.2,0.5-0.3,0.8-0.3
	c0.3,0,0.6,0.1,0.8,0.3l0.8,0.8c0.2,0.2,0.3,0.5,0.3,0.8C29.8,17,29.7,17.3,29.5,17.5z"/>
</svg>
