<?xml version="1.0" encoding="utf-8"?>
<!-- Generator: Adobe Illustrator 21.1.0, SVG Export Plug-In . SVG Version: 6.00 Build 0)  -->
<svg version="1.1" id="Ebene_1" xmlns="http://www.w3.org/2000/svg" xmlns:xlink="http://www.w3.org/1999/xlink" x="0px" y="0px"
	 viewBox="0 0 42.5 42.5" style="enable-background:new 0 0 42.5 42.5;" xml:space="preserve">
<path d="M36.3,7.5v2.8c0,0.1-0.1,0.2-0.2,0.3s-0.3,0.1-0.5,0.1h-28c-0.2,0-0.3,0-0.5-0.1S7,10.3,7,10.2V7.5c0-0.1,0.1-0.2,0.2-0.3
	C7.3,7,7.5,7,7.7,7h28c0.2,0,0.3,0,0.5,0.1C36.2,7.2,36.3,7.3,36.3,7.5z M36.3,13.6v2.8c0,0.1,0,0.2-0.1,0.3s-0.2,0.1-0.3,0.1H18.7
	c-0.1,0-0.2,0-0.3-0.1c-0.1-0.1-0.1-0.2-0.1-0.3v-2.8c0-0.1,0-0.2,0.1-0.3c0.1-0.1,0.2-0.1,0.3-0.1h17.2c0.1,0,0.2,0,0.3,0.1
	C36.3,13.4,36.3,13.5,36.3,13.6z M36.3,19.7v2.8c0,0.1,0,0.2-0.1,0.3S36,23,35.9,23H18.7c-0.1,0-0.2,0-0.3-0.1
	c-0.1-0.1-0.1-0.2-0.1-0.3v-2.8c0-0.1,0-0.2,0.1-0.3c0.1-0.1,0.2-0.1,0.3-0.1h17.2c0.1,0,0.2,0,0.3,0.1S36.3,19.6,36.3,19.7z
	 M36.3,26.1v2.8c0,0.1,0,0.2-0.1,0.3s-0.2,0.1-0.3,0.1H18.7c-0.1,0-0.2,0-0.3-0.1c-0.1-0.1-0.1-0.2-0.1-0.3v-2.8
	c0-0.1,0-0.2,0.1-0.3c0.1-0.1,0.2-0.1,0.3-0.1h17.2c0.1,0,0.2,0,0.3,0.1C36.3,25.8,36.3,25.9,36.3,26.1z M36.3,32.1v2.8
	c0,0.1-0.1,0.2-0.2,0.3s-0.3,0.1-0.5,0.1h-28c-0.2,0-0.3,0-0.5-0.1S7,35,7,34.9v-2.8c0-0.1,0.1-0.2,0.2-0.3c0.1-0.1,0.3-0.1,0.5-0.1
	h28c0.2,0,0.3,0,0.5,0.1C36.2,31.9,36.3,32,36.3,32.1z M10.2,21.3c0,0.1,0,0.3,0.1,0.3l3.5,3.5c0.1,0.1,0.2,0.1,0.3,0.1
	s0.3,0,0.3-0.1c0.1-0.1,0.1-0.2,0.1-0.3v-7c0-0.1,0-0.3-0.1-0.3s-0.2-0.1-0.3-0.1s-0.3,0-0.3,0.1L10.4,21
	C10.3,21.1,10.2,21.2,10.2,21.3z"/>
</svg>
