<?xml version="1.0" encoding="utf-8"?>
<!-- Generator: Adobe Illustrator 21.1.0, SVG Export Plug-In . SVG Version: 6.00 Build 0)  -->
<svg version="1.1" id="Ebene_1" xmlns="http://www.w3.org/2000/svg" xmlns:xlink="http://www.w3.org/1999/xlink" x="0px" y="0px"
	 viewBox="0 0 42.5 42.5" style="enable-background:new 0 0 42.5 42.5;" xml:space="preserve">
<path d="M34.1,11.2l2.4,22c-1.3,0-2.7-0.3-3.9-1c-2-1.1-4.1-1.6-6-1.6c-2.3,0-4.2,0.9-5.7,2.6c-1.5-1.7-3.4-2.6-5.7-2.6
	c-2,0-4,0.5-6,1.6c-1.3,0.7-2.6,1-3.9,1H5l2.4-22C9.7,9.7,12.1,9,14.8,9c2.4,0,4.4,0.6,5.9,1.8C22.3,9.6,24.3,9,26.7,9
	C29.3,9,31.8,9.7,34.1,11.2z M26.5,28.3c1.3,0,2.5,0.2,3.6,0.5s2.4,0.9,4,1.6l-1.9-17.7c-1.8-0.9-3.6-1.4-5.7-1.4
	c-2.3,0-4.2,0.8-5.7,2.4c-1.5-1.6-3.5-2.4-5.7-2.4c-2,0-3.9,0.5-5.7,1.4L7.4,30.4c1.1-0.5,1.9-0.9,2.5-1.1c0.6-0.3,1.4-0.5,2.3-0.7
	c0.9-0.2,1.8-0.3,2.7-0.3c2.1,0,4,0.6,5.7,1.9C22.5,28.9,24.4,28.3,26.5,28.3z M27.1,26.5L26.2,13c-2.2,0-4,0.9-5.5,2.7
	C19.2,13.9,17.3,13,15,13c-1.8,0-2.6,0.4-4.2,1.1L9.2,28.2c1.3-0.6,1.4-1,2.4-1.3s2.2-0.4,3.4-0.4c2.1,0,4.1,0.6,5.7,1.8
	c1.8-1.2,3.7-1.8,5.7-1.8L27.1,26.5z"/>
</svg>
