<?xml version="1.0" encoding="utf-8"?>
<!-- Generator: Adobe Illustrator 21.1.0, SVG Export Plug-In . SVG Version: 6.00 Build 0)  -->
<svg version="1.1" id="Ebene_1" xmlns="http://www.w3.org/2000/svg" xmlns:xlink="http://www.w3.org/1999/xlink" x="0px" y="0px"
	 viewBox="0 0 42.5 42.5" style="enable-background:new 0 0 42.5 42.5;" xml:space="preserve">
<path d="M37.5,16.7v14.2c0,1.2-0.4,2.3-1.3,3.2c-0.9,0.9-1.9,1.3-3.2,1.3H8.5c-1.2,0-2.3-0.4-3.2-1.3S4,32.1,4,30.8V11.5
	c0-1.2,0.4-2.3,1.3-3.2S7.3,7,8.5,7H15c1.2,0,2.3,0.4,3.2,1.3c0.9,0.9,1.3,1.9,1.3,3.2v0.6H33c1.2,0,2.3,0.4,3.2,1.3
	C37.1,14.4,37.5,15.4,37.5,16.7z"/>
</svg>
