<?xml version="1.0" encoding="utf-8"?>
<!-- Generator: Adobe Illustrator 21.1.0, SVG Export Plug-In . SVG Version: 6.00 Build 0)  -->
<svg version="1.1" id="Ebene_1" xmlns="http://www.w3.org/2000/svg" xmlns:xlink="http://www.w3.org/1999/xlink" x="0px" y="0px"
	 viewBox="0 0 42.5 42.5" style="enable-background:new 0 0 42.5 42.5;" xml:space="preserve">
<path d="M14,11.2c0-0.8-0.3-1.5-0.8-2c-0.6-0.6-1.2-0.8-2-0.8s-1.5,0.3-2,0.8c-0.6,0.6-0.8,1.2-0.8,2s0.3,1.5,0.8,2
	c0.6,0.6,1.2,0.8,2,0.8s1.5-0.3,2-0.8C13.8,12.6,14,12,14,11.2z M38,24.1c0,0.8-0.3,1.5-0.8,2l-11,11c-0.6,0.6-1.3,0.8-2,0.8
	c-0.8,0-1.5-0.3-2-0.8l-16-16c-0.6-0.6-1-1.3-1.4-2.3S4,17,4,16.2V6.9c0-0.8,0.3-1.4,0.9-2S6.1,4,6.9,4h9.3c0.8,0,1.7,0.2,2.6,0.6
	s1.7,0.9,2.3,1.4l16,16C37.7,22.6,38,23.3,38,24.1z"/>
</svg>
