<?xml version="1.0" encoding="utf-8"?>
<!-- Generator: Adobe Illustrator 23.0.1, SVG Export Plug-In . SVG Version: 6.00 Build 0)  -->
<svg version="1.1" id="Ebene_1" xmlns="http://www.w3.org/2000/svg" xmlns:xlink="http://www.w3.org/1999/xlink" x="0px" y="0px"
	 viewBox="0 0 42.52 42.52" style="enable-background:new 0 0 42.52 42.52;" xml:space="preserve">
<path d="M38.81,33.41l-2.07-8.27c-0.03-0.13-0.08-0.25-0.15-0.36c0.12-0.33,0.18-0.68,0.18-1.05V10.1c0-1.71-1.39-3.1-3.1-3.1h-22.9
	c-1.71,0-3.1,1.39-3.1,3.1v13.63c0,0.37,0.06,0.72,0.18,1.05c-0.06,0.11-0.11,0.23-0.15,0.36l-2.08,8.34
	c-0.1,0.42-0.01,0.86,0.25,1.19C6.15,35,6.55,35.2,6.98,35.2h30.51c0.77,0,1.39-0.62,1.39-1.39C38.87,33.67,38.85,33.54,38.81,33.41
	L38.81,33.41z M25.5,32.9C25.5,32.9,25.5,32.9,25.5,32.9h-6.53c-0.08,0-0.15-0.03-0.2-0.09c-0.05-0.06-0.07-0.13-0.06-0.21
	l0.51-2.82c0.02-0.12,0.13-0.21,0.25-0.21h5.51c0.12,0,0.23,0.09,0.25,0.21l0.5,2.8c0.01,0.02,0.01,0.04,0.01,0.07
	C25.75,32.79,25.64,32.9,25.5,32.9L25.5,32.9z M34.63,22.48c0,0.17-0.1,0.31-0.24,0.37H10.07c-0.14-0.06-0.24-0.21-0.24-0.37V9.78
	c0-0.23,0.18-0.41,0.41-0.41h23.97c0.23,0,0.41,0.18,0.41,0.41V22.48z M34.08,23.73"/>
</svg>
