<?xml version="1.0" encoding="utf-8"?>
<!-- Generator: Adobe Illustrator 21.1.0, SVG Export Plug-In . SVG Version: 6.00 Build 0)  -->
<svg version="1.1" id="Ebene_1" xmlns="http://www.w3.org/2000/svg" xmlns:xlink="http://www.w3.org/1999/xlink" x="0px" y="0px"
	 viewBox="0 0 42.5 42.5" style="enable-background:new 0 0 42.5 42.5;" xml:space="preserve">
<path d="M35.4,16.2c0-0.4-0.1-0.8-0.3-1.1l-5.3-9.4C29.2,4.6,28,4,26.7,4H14.7c-1.3,0-2.5,0.6-3.1,1.7l-5.3,9.4
	C6.1,15.4,6,15.8,6,16.2l0,19.9c0,1,1,1.8,2.1,1.8h25.2c1.2,0,2.1-0.8,2.1-1.8L35.4,16.2z M27.4,6.7l4.6,8.1h-9.9V6.3h4.6
	C27,6.3,27.2,6.4,27.4,6.7L27.4,6.7z M14.1,6.7c0.1-0.2,0.4-0.4,0.7-0.4h4.6v8.5H9.5L14.1,6.7z M32.7,35.6H8.7V17.1h24.1V35.6z
	 M32.7,35.6 M12.8,21.7c0,1,0.9,1.7,2,1.7h11.9c1.1,0,2-0.8,2-1.7c0-1-0.9-1.7-2-1.7H14.8C13.7,19.9,12.8,20.7,12.8,21.7L12.8,21.7z
	 M12.8,21.7"/>
</svg>
