<?xml version="1.0" encoding="utf-8"?>
<!-- Generator: Adobe Illustrator 21.1.0, SVG Export Plug-In . SVG Version: 6.00 Build 0)  -->
<svg version="1.1" id="Ebene_1" xmlns="http://www.w3.org/2000/svg" xmlns:xlink="http://www.w3.org/1999/xlink" x="0px" y="0px"
	 viewBox="0 0 42.5 42.5" style="enable-background:new 0 0 42.5 42.5;" xml:space="preserve">
<g id="Kontingents-Nutzung">
	<path d="M37.7,23.1L33.3,9.6c-0.3-0.8-0.7-1.4-1.4-1.9C31.2,7.2,30.5,7,29.7,7H12.3c-0.8,0-1.6,0.2-2.2,0.7C9.4,8.2,9,8.9,8.7,9.6
		L4.4,23.1C4.1,23.8,4,24.3,4,24.7v7.1c0,1,0.3,1.8,1,2.5c0.7,0.7,1.5,1,2.5,1h26.9c1,0,1.8-0.3,2.5-1c0.7-0.7,1-1.5,1-2.5v-7.1
		C38,24.3,37.9,23.8,37.7,23.1L37.7,23.1z M11.4,10.5c0.1-0.2,0.2-0.4,0.4-0.5c0.2-0.1,0.4-0.2,0.6-0.2h17.3c0.2,0,0.4,0.1,0.6,0.2
		c0.2,0.1,0.3,0.3,0.4,0.5l3.5,10.7H7.9L11.4,10.5z M35.2,31.8c0,0.2-0.1,0.4-0.2,0.5c-0.1,0.1-0.3,0.2-0.5,0.2H7.5
		c-0.2,0-0.4-0.1-0.5-0.2c-0.1-0.1-0.2-0.3-0.2-0.5v-7.1c0-0.2,0.1-0.4,0.2-0.5C7.2,24.1,7.4,24,7.5,24h26.9c0.2,0,0.4,0.1,0.5,0.2
		c0.1,0.1,0.2,0.3,0.2,0.5V31.8z M35.2,31.8"/>
	<path d="M25.3,26.5c-0.5,0-0.9,0.2-1.3,0.5c-0.3,0.3-0.5,0.8-0.5,1.3c0,0.5,0.2,0.9,0.5,1.3c0.3,0.3,0.8,0.5,1.3,0.5
		c0.5,0,0.9-0.2,1.3-0.5c0.3-0.3,0.5-0.8,0.5-1.3c0-0.5-0.2-0.9-0.5-1.3C26.2,26.7,25.7,26.5,25.3,26.5L25.3,26.5z M25.3,26.5"/>
	<path d="M30.9,26.5c-0.5,0-0.9,0.2-1.3,0.5c-0.3,0.3-0.5,0.8-0.5,1.3c0,0.5,0.2,0.9,0.5,1.3c0.3,0.3,0.8,0.5,1.3,0.5
		c0.5,0,0.9-0.2,1.3-0.5c0.3-0.3,0.5-0.8,0.5-1.3c0-0.5-0.2-0.9-0.5-1.3C31.8,26.7,31.4,26.5,30.9,26.5L30.9,26.5z M30.9,26.5"/>
</g>
<g id="Backup_1_">
	<path d="M37.7,23.1L33.3,9.6c-0.3-0.8-0.7-1.4-1.4-1.9C31.2,7.2,30.5,7,29.7,7H12.3c-0.8,0-1.6,0.2-2.2,0.7C9.4,8.2,9,8.9,8.7,9.6
		L4.4,23.1C4.1,23.8,4,24.3,4,24.7v7.1c0,1,0.3,1.8,1,2.5c0.7,0.7,1.5,1,2.5,1h26.9c1,0,1.8-0.3,2.5-1c0.7-0.7,1-1.5,1-2.5v-7.1
		C38,24.3,37.9,23.8,37.7,23.1L37.7,23.1z M11.4,10.5c0.1-0.2,0.2-0.4,0.4-0.5c0.2-0.1,0.4-0.2,0.6-0.2h17.3c0.2,0,0.4,0.1,0.6,0.2
		c0.2,0.1,0.3,0.3,0.4,0.5l3.5,10.7H7.9L11.4,10.5z M35.2,31.8c0,0.2-0.1,0.4-0.2,0.5c-0.1,0.1-0.3,0.2-0.5,0.2H7.5
		c-0.2,0-0.4-0.1-0.5-0.2c-0.1-0.1-0.2-0.3-0.2-0.5v-7.1c0-0.2,0.1-0.4,0.2-0.5C7.2,24.1,7.4,24,7.5,24h26.9c0.2,0,0.4,0.1,0.5,0.2
		c0.1,0.1,0.2,0.3,0.2,0.5V31.8z M35.2,31.8"/>
	<path d="M25.3,26.5c-0.5,0-0.9,0.2-1.3,0.5c-0.3,0.3-0.5,0.8-0.5,1.3c0,0.5,0.2,0.9,0.5,1.3c0.3,0.3,0.8,0.5,1.3,0.5
		c0.5,0,0.9-0.2,1.3-0.5c0.3-0.3,0.5-0.8,0.5-1.3c0-0.5-0.2-0.9-0.5-1.3C26.2,26.7,25.7,26.5,25.3,26.5L25.3,26.5z M25.3,26.5"/>
	<path d="M30.9,26.5c-0.5,0-0.9,0.2-1.3,0.5c-0.3,0.3-0.5,0.8-0.5,1.3c0,0.5,0.2,0.9,0.5,1.3c0.3,0.3,0.8,0.5,1.3,0.5
		c0.5,0,0.9-0.2,1.3-0.5c0.3-0.3,0.5-0.8,0.5-1.3c0-0.5-0.2-0.9-0.5-1.3C31.8,26.7,31.4,26.5,30.9,26.5L30.9,26.5z M30.9,26.5"/>
</g>
<path d="M18.2,17.4h2.2c0.4,0,0.8,0,1.2,0c0.4,0,0.7,0.1,1,0.1c0.3,0.1,0.6,0.2,0.9,0.3c0.3,0.1,0.5,0.3,0.7,0.5
	c0.2,0.2,0.4,0.4,0.5,0.7c0.1,0.3,0.3,0.6,0.3,0.9c0.1,0.4,0.1,0.8,0.1,1.2c0,0.2,0,0.5,0,0.8c0,0,0,0.1,0,0.2c0,0.1,0,0.1,0,0.2
	c0,0.1,0,0.1,0.1,0.2c0,0,0.1,0.1,0.2,0.1c0.1,0,0.1,0,0.2-0.1c0,0,0.1-0.1,0.1-0.1c0-0.1,0.1-0.1,0.1-0.2c0-0.1,0.1-0.1,0.1-0.2
	c0.6-1.3,0.9-2.3,0.9-3.1c0-0.9-0.1-1.7-0.4-2.3c-0.7-1.8-2.7-2.7-6-2.7h-2.2 M14.7,15.4"/>
<path d="M18.5,16.7l1.8,1.8c0.2,0.1,0.2,0.3,0.2,0.5s-0.1,0.4-0.2,0.5L19.8,20c-0.2,0.2-0.3,0.2-0.5,0.2c-0.2,0-0.4-0.1-0.6-0.2
	l-3.9-3.9c-0.1-0.1-0.2-0.3-0.2-0.5c0-0.2,0.1-0.4,0.2-0.6l3.9-3.9c0.2-0.1,0.3-0.2,0.6-0.2c0.2,0,0.4,0.1,0.5,0.2l0.5,0.5
	c0.2,0.2,0.2,0.3,0.2,0.6s-0.1,0.4-0.2,0.6l-1.8,1.8"/>
</svg>
