<?xml version="1.0" encoding="utf-8"?>
<svg version="1.1" id="Ebene_1" x="0px" y="0px" viewBox="0 0 42.5 42.5" style="enable-background:new 0 0 42.5 42.5;" xmlns="http://www.w3.org/2000/svg">
  <path style="opacity: 1;" fill="#020202" d="M 18.826 3.054 C 20.457 3.054 22.087 3.054 23.718 3.054 C 24.623 2.939 25.26 3.297 25.63 4.124 C 25.659 4.327 25.673 4.531 25.669 4.737 C 25.539 5.446 25.118 5.872 24.406 6.017 C 24.024 6.036 23.642 6.042 23.26 6.036 C 23.253 6.278 23.26 6.52 23.279 6.762 C 23.383 6.798 23.492 6.81 23.604 6.8 C 23.968 6.868 24.337 6.931 24.713 6.991 C 24.79 7.046 24.878 7.071 24.98 7.068 C 26.745 7.5 28.4 8.183 29.949 9.112 C 30.302 9.358 30.658 9.594 31.02 9.82 C 31.363 10.099 31.707 10.379 32.051 10.66 C 32.144 10.765 32.245 10.86 32.358 10.947 C 32.383 10.973 32.409 10.973 32.434 10.947 C 32.836 10.532 33.245 10.117 33.657 9.706 C 33.568 9.59 33.465 9.488 33.351 9.399 C 33.275 9.297 33.185 9.208 33.083 9.132 C 33.009 9.043 32.932 8.954 32.854 8.864 C 33.01 8.721 33.151 8.569 33.275 8.405 C 33.3 8.392 33.326 8.38 33.351 8.368 C 33.609 8.148 33.838 7.907 34.039 7.641 C 34.064 7.628 34.09 7.616 34.117 7.603 C 34.37 7.373 34.613 7.131 34.842 6.876 C 34.867 6.851 34.893 6.825 34.918 6.8 C 35.02 6.718 35.11 6.622 35.186 6.513 C 35.256 6.468 35.326 6.424 35.397 6.38 C 35.486 6.476 35.582 6.565 35.682 6.647 C 36.415 7.398 37.153 8.143 37.901 8.883 C 37.096 9.7 36.281 10.503 35.453 11.292 C 35.402 11.317 35.351 11.317 35.3 11.292 C 35.039 11.055 34.777 10.819 34.517 10.584 C 34.099 10.965 33.69 11.36 33.294 11.769 C 33.268 11.808 33.268 11.845 33.294 11.884 C 33.616 12.249 33.928 12.619 34.231 12.993 C 34.776 13.739 35.273 14.516 35.721 15.324 C 35.961 15.817 36.19 16.313 36.409 16.815 C 36.778 17.816 37.084 18.835 37.327 19.872 C 37.327 19.923 37.371 20.546 37.441 20.791 C 37.449 21.02 37.462 21.249 37.48 21.478 C 37.529 22.473 37.529 23.466 37.48 24.459 C 37.48 24.614 37.467 24.767 37.441 24.919 C 37.378 25.033 37.351 25.161 37.365 25.301 C 37.194 26.413 36.914 27.495 36.524 28.549 C 36.464 28.627 36.426 28.716 36.409 28.817 C 36.049 29.692 35.628 30.532 35.148 31.34 C 34.875 31.733 34.601 32.128 34.326 32.525 C 34.016 32.867 33.729 33.224 33.465 33.596 C 32.904 34.157 32.332 34.705 31.745 35.24 C 31.049 35.822 30.309 36.345 29.528 36.807 C 28.279 37.495 26.965 38.043 25.591 38.45 C 25.493 38.458 25.404 38.484 25.324 38.526 C 25.212 38.529 25.11 38.555 25.019 38.603 C 24.904 38.595 24.802 38.621 24.713 38.679 C 24.674 38.679 24.635 38.679 24.598 38.679 C 24.311 38.723 24.031 38.774 23.757 38.832 C 22.768 38.962 21.774 39.013 20.776 38.985 C 19.868 38.953 18.963 38.851 18.062 38.679 C 17.985 38.625 17.895 38.6 17.793 38.603 C 17.417 38.447 17.283 38.167 17.393 37.762 C 17.47 37.64 17.566 37.538 17.679 37.457 C 17.717 37.457 17.756 37.457 17.793 37.457 C 17.96 37.459 18.126 37.472 18.291 37.494 C 18.502 37.553 18.719 37.592 18.941 37.608 C 19.301 37.695 19.669 37.746 20.049 37.762 C 20.291 37.768 20.534 37.781 20.776 37.8 C 20.816 37.836 20.867 37.848 20.929 37.839 C 20.929 37.379 20.929 36.921 20.929 36.462 C 21.018 36.283 21.159 36.156 21.348 36.08 C 21.516 36.076 21.682 36.088 21.846 36.119 C 21.954 36.175 22.017 36.265 22.036 36.386 C 22.039 36.498 22.064 36.6 22.114 36.692 C 22.114 36.717 22.114 36.742 22.114 36.768 C 22.114 37.126 22.114 37.482 22.114 37.839 C 22.174 37.848 22.225 37.836 22.267 37.8 C 22.398 37.763 22.539 37.751 22.686 37.762 C 22.939 37.775 23.18 37.749 23.413 37.686 C 23.551 37.693 23.678 37.666 23.795 37.608 C 24.79 37.45 25.758 37.195 26.7 36.844 C 26.809 36.843 26.898 36.804 26.968 36.73 C 27.451 36.559 27.909 36.335 28.343 36.061 C 28.109 35.661 27.899 35.247 27.713 34.819 C 27.698 34.572 27.793 34.382 28 34.245 C 28.025 34.245 28.051 34.245 28.076 34.245 C 28.19 34.227 28.305 34.215 28.421 34.207 C 28.508 34.226 28.583 34.263 28.65 34.321 C 28.913 34.658 29.149 35.015 29.357 35.392 C 29.385 35.414 29.417 35.426 29.453 35.43 C 31.318 34.247 32.846 32.724 34.039 30.863 C 34.034 30.832 34.021 30.808 34.001 30.786 C 33.628 30.609 33.278 30.399 32.95 30.155 C 32.715 29.847 32.721 29.55 32.969 29.257 C 33.165 29.144 33.369 29.13 33.58 29.218 C 33.773 29.315 33.965 29.412 34.154 29.505 C 34.172 29.559 34.21 29.584 34.268 29.583 C 34.413 29.712 34.566 29.725 34.728 29.62 C 34.95 29.216 35.14 28.795 35.3 28.359 C 35.437 28.078 35.551 27.785 35.645 27.479 C 35.659 27.329 35.697 27.189 35.76 27.06 C 35.813 26.982 35.84 26.893 35.835 26.792 C 35.881 26.548 35.932 26.305 35.989 26.065 C 36.184 25.396 36.299 24.709 36.333 24.001 C 36.371 23.804 36.383 23.601 36.371 23.39 C 35.874 23.396 35.376 23.383 34.881 23.351 C 34.599 23.109 34.541 22.816 34.708 22.473 C 34.761 22.413 34.819 22.362 34.881 22.32 C 35.376 22.288 35.874 22.275 36.371 22.281 C 36.383 22.045 36.371 21.815 36.333 21.593 C 36.245 20.533 36.042 19.501 35.721 18.497 C 35.688 18.28 35.623 18.076 35.531 17.886 C 35.319 17.242 35.052 16.624 34.728 16.032 C 34.631 15.977 34.529 15.964 34.421 15.993 C 34.111 16.199 33.78 16.364 33.428 16.49 C 33.002 16.53 32.785 16.333 32.777 15.898 C 32.767 15.781 32.799 15.679 32.874 15.592 C 33.246 15.306 33.635 15.046 34.039 14.808 C 33.832 14.443 33.591 14.105 33.314 13.796 C 33.314 13.77 33.3 13.757 33.275 13.757 C 32.434 12.622 31.439 11.641 30.294 10.813 C 30.258 10.758 30.207 10.72 30.141 10.699 C 29.997 10.569 29.844 10.449 29.682 10.336 C 29.589 10.264 29.487 10.238 29.375 10.26 C 29.174 10.568 28.977 10.881 28.783 11.195 C 28.513 11.507 28.207 11.544 27.866 11.31 C 27.688 11.125 27.656 10.921 27.771 10.699 C 27.837 10.528 27.913 10.362 28 10.202 C 28.117 10.033 28.225 9.855 28.324 9.667 C 28.353 9.624 28.348 9.586 28.306 9.552 C 27.71 9.239 27.098 8.972 26.471 8.75 C 26.234 8.659 25.991 8.581 25.744 8.521 C 25.213 8.328 24.666 8.187 24.102 8.1 C 23.806 8.012 23.5 7.961 23.184 7.947 C 22.888 7.944 22.595 7.918 22.304 7.871 C 22.25 7.834 22.187 7.821 22.114 7.832 C 22.114 8.139 22.114 8.443 22.114 8.75 C 22.114 8.825 22.114 8.903 22.114 8.979 C 22.064 9.071 22.039 9.173 22.036 9.285 C 21.959 9.521 21.794 9.635 21.54 9.628 C 21.267 9.623 21.076 9.496 20.967 9.246 C 20.931 8.776 20.919 8.305 20.929 7.832 C 20.843 7.821 20.766 7.834 20.698 7.871 C 20.48 7.861 20.264 7.874 20.049 7.908 C 19.824 7.901 19.607 7.927 19.399 7.985 C 19.251 7.991 19.111 8.016 18.979 8.061 C 18.684 8.09 18.39 8.136 18.099 8.195 C 17.745 8.288 17.503 8.167 17.374 7.832 C 17.367 7.689 17.379 7.549 17.411 7.412 C 17.501 7.214 17.654 7.094 17.87 7.049 C 18.473 6.9 19.086 6.803 19.705 6.762 C 19.705 6.52 19.705 6.278 19.705 6.036 C 19.257 6.051 18.811 6.032 18.367 5.978 C 17.472 5.54 17.185 4.846 17.508 3.895 C 17.792 3.367 18.232 3.087 18.826 3.054 Z"/>
  <path style="opacity: 1;" fill="#010101" d="M 12.94 10.891 C 14.099 10.88 15.259 10.892 16.418 10.928 C 17.043 11.133 17.335 11.567 17.297 12.227 C 17.128 12.855 16.721 13.186 16.074 13.222 C 15.016 13.232 13.958 13.219 12.901 13.183 C 12.832 13.189 12.769 13.176 12.71 13.146 C 12.599 13.112 12.497 13.061 12.403 12.993 C 12.192 12.771 12.039 12.517 11.945 12.227 C 11.929 11.518 12.26 11.073 12.94 10.891 Z"/>
  <path style="opacity: 1;" fill="#010101" d="M 10.722 15.057 C 10.875 15.057 11.028 15.057 11.181 15.057 C 12.736 15.05 14.291 15.057 15.844 15.076 C 16.073 15.102 16.303 15.121 16.532 15.133 C 16.941 15.312 17.196 15.618 17.297 16.05 C 17.325 16.971 16.88 17.411 15.96 17.369 C 13.958 17.395 11.958 17.395 9.958 17.369 C 9.461 17.327 9.149 17.067 9.021 16.585 C 8.927 16.282 8.952 15.988 9.098 15.706 C 9.188 15.552 9.297 15.411 9.422 15.286 C 9.511 15.248 9.587 15.197 9.651 15.133 C 9.678 15.133 9.702 15.133 9.729 15.133 C 10.067 15.119 10.398 15.094 10.722 15.057 Z"/>
  <path style="opacity: 1;" fill="#010101" d="M 28.879 17.58 C 28.357 18.318 27.834 19.057 27.312 19.797 C 26.534 20.83 25.769 21.874 25.019 22.931 C 24.984 22.961 24.958 23 24.942 23.045 C 24.761 23.242 24.608 23.458 24.484 23.695 C 24.077 24.176 23.688 24.673 23.317 25.186 C 23.122 25.394 22.9 25.56 22.649 25.683 C 21.791 25.967 21.027 25.814 20.355 25.225 C 19.635 24.367 19.552 23.449 20.107 22.473 C 20.198 22.339 20.307 22.224 20.431 22.128 C 21.17 21.58 21.91 21.033 22.649 20.485 C 23.689 19.741 24.721 18.99 25.744 18.229 C 26.498 17.693 27.249 17.158 28 16.624 C 28.197 16.511 28.401 16.402 28.611 16.3 C 28.662 16.293 28.713 16.286 28.764 16.28 C 28.966 16.309 29.126 16.411 29.241 16.585 C 29.268 16.687 29.268 16.789 29.241 16.891 C 29.11 17.116 28.99 17.345 28.879 17.58 Z"/>
  <path style="opacity: 1;" fill="#010101" d="M 16.074 19.3 C 16.233 19.336 16.398 19.362 16.571 19.376 C 16.721 19.403 16.855 19.467 16.972 19.568 C 17.132 19.773 17.24 20.002 17.297 20.255 C 17.269 21.238 16.76 21.684 15.768 21.593 C 12.735 21.608 9.702 21.583 6.67 21.517 C 6.646 21.517 6.619 21.517 6.594 21.517 C 6.429 21.384 6.283 21.231 6.154 21.057 C 5.808 20.375 5.954 19.827 6.594 19.414 C 6.652 19.363 6.716 19.318 6.785 19.281 C 9.882 19.252 12.977 19.257 16.074 19.3 Z"/>
  <path style="opacity: 1;" fill="#020202" d="M 5.065 23.427 C 5.205 23.427 5.346 23.427 5.485 23.427 C 8.097 23.427 10.709 23.427 13.322 23.427 C 13.373 23.427 13.423 23.427 13.474 23.427 C 13.729 23.427 13.984 23.427 14.24 23.427 C 14.793 23.466 15.353 23.478 15.921 23.466 C 16.023 23.466 16.124 23.466 16.226 23.466 C 16.746 23.52 17.096 23.8 17.277 24.307 C 17.297 24.447 17.303 24.587 17.297 24.728 C 17.297 24.765 17.297 24.804 17.297 24.843 C 17.205 25.182 17.015 25.457 16.724 25.663 C 16.625 25.699 16.523 25.724 16.418 25.741 C 16.018 25.775 15.622 25.807 15.233 25.836 C 14.736 25.836 14.24 25.836 13.742 25.836 C 10.646 25.843 7.549 25.836 4.454 25.817 C 3.645 25.429 3.409 24.823 3.746 24.001 C 3.834 23.888 3.929 23.786 4.033 23.695 C 4.116 23.634 4.205 23.583 4.3 23.542 C 4.545 23.449 4.8 23.411 5.065 23.427 Z"/>
  <path style="opacity: 1;" fill="#010101" d="M 17.297 29.047 C 17.205 29.409 17.001 29.689 16.685 29.887 C 16.583 29.915 16.481 29.947 16.379 29.983 C 15.965 29.99 15.557 30.009 15.157 30.041 C 15.106 30.041 15.055 30.041 15.004 30.041 C 12.684 30.053 10.366 30.034 8.047 29.983 C 7.644 29.83 7.364 29.555 7.206 29.162 C 7.137 28.858 7.161 28.566 7.281 28.282 C 7.317 28.253 7.342 28.214 7.359 28.167 C 7.417 28.097 7.48 28.027 7.549 27.958 C 7.824 27.73 8.142 27.629 8.505 27.651 C 11.13 27.615 13.755 27.628 16.379 27.69 C 17.039 27.898 17.345 28.349 17.297 29.047 Z"/>
  <path style="opacity: 1;" fill="#010101" d="M 12.71 31.838 C 13.793 31.831 14.876 31.838 15.96 31.856 C 16.189 31.89 16.418 31.922 16.647 31.953 C 16.978 32.143 17.194 32.423 17.297 32.793 C 17.303 32.972 17.297 33.15 17.277 33.328 C 17.199 33.5 17.109 33.666 17.01 33.825 C 16.936 33.924 16.84 33.994 16.724 34.036 C 16.527 34.078 16.335 34.122 16.15 34.169 C 14.724 34.169 13.296 34.169 11.87 34.169 C 11.736 34.129 11.596 34.105 11.449 34.092 C 11.053 33.902 10.836 33.583 10.799 33.138 C 10.754 32.737 10.868 32.393 11.143 32.104 C 11.167 32.104 11.181 32.092 11.181 32.067 C 11.293 32.011 11.409 31.953 11.525 31.895 C 11.926 31.888 12.322 31.868 12.71 31.838 Z"/>
</svg>