<?xml version="1.0" encoding="utf-8"?>
<svg version="1.1" id="Ebene_1" x="0px" y="0px" viewBox="0 0 42.5 42.5" style="enable-background:new 0 0 42.5 42.5;" xmlns="http://www.w3.org/2000/svg">
  <path class="st0" d="M 27.948 28.443 L 15.079 28.443 C 14.728 28.443 14.377 28.092 14.377 27.741 L 14.377 14.872 C 14.377 14.521 14.728 14.17 15.079 14.17 L 27.948 14.17 C 28.299 14.17 28.65 14.521 28.65 14.872 L 28.65 27.741 C 28.533 28.209 28.299 28.443 27.948 28.443 Z" style=""/>
  <path d="M 35.904 20.982 C 35.904 18.382 35.204 15.882 33.904 13.682 C 32.604 11.482 30.804 9.682 28.604 8.382 C 26.404 7.082 23.904 6.382 21.304 6.382 C 18.704 6.382 16.204 7.082 14.004 8.382 C 11.804 9.682 10.004 11.482 8.704 13.682 C 7.404 15.882 6.704 18.382 6.704 20.982 C 6.704 23.582 7.404 26.082 8.704 28.282 C 10.004 30.482 11.804 32.282 14.004 33.582 C 16.204 34.882 18.704 35.582 21.304 35.582 C 23.904 35.582 26.404 34.882 28.604 33.582 C 30.804 32.282 32.604 30.482 33.904 28.282 C 35.204 26.082 35.904 23.582 35.904 20.982 Z M 38.304 20.982 C 38.304 24.082 37.504 26.882 36.004 29.482 C 34.504 32.082 32.404 34.182 29.804 35.682 C 27.204 37.182 24.404 37.982 21.304 37.982 C 18.204 37.982 15.404 37.182 12.804 35.682 C 10.204 34.182 8.104 32.082 6.604 29.482 C 5.104 26.882 4.304 24.082 4.304 20.982 C 4.304 17.882 5.104 15.082 6.604 12.482 C 8.104 9.882 10.204 7.782 12.804 6.282 C 15.404 4.782 18.204 3.982 21.304 3.982 C 24.404 3.982 27.204 4.782 29.804 6.282 C 32.404 7.782 34.504 9.882 36.004 12.482 C 37.504 15.082 38.304 17.882 38.304 20.982 Z"/>
</svg>