<?xml version="1.0" encoding="utf-8"?>
<!-- Generator: Adobe Illustrator 21.1.0, SVG Export Plug-In . SVG Version: 6.00 Build 0)  -->
<svg version="1.1" id="Ebene_1" xmlns="http://www.w3.org/2000/svg" xmlns:xlink="http://www.w3.org/1999/xlink" x="0px" y="0px"
	 viewBox="0 0 42.5 42.5" style="enable-background:new 0 0 42.5 42.5;" xml:space="preserve">
<path d="M20.4,15.8h1v8.2h-1V15.8z M32.2,19.6H9.5v4.5h1v-3.8h20.7v3.8h1V19.6z M32.2,24.1 M6.6,28.9h6.9v-4.8H6.6V28.9z M28.2,28.9
	h6.9v-4.8h-6.9V28.9z M17.4,28.9h6.9v-4.8h-6.9V28.9z M17.4,15.8h6.9V11h-6.9V15.8z M37.4,32.4V10c0-0.2-0.1-0.3-0.2-0.4
	c-0.1-0.1-0.3-0.2-0.4-0.2H5c-0.2,0-0.3,0.1-0.4,0.2C4.4,9.7,4.4,9.8,4.4,10v22.4c0,0.2,0.1,0.3,0.2,0.4C4.7,32.9,4.8,33,5,33h6.5
	v-1.8c0-0.2,0.1-0.3,0.2-0.4c0.1-0.1,0.3-0.2,0.4-0.2h1.2c0.2,0,0.3,0.1,0.4,0.2c0.1,0.1,0.2,0.3,0.2,0.4V33H28v-1.8
	c0-0.2,0.1-0.3,0.2-0.4c0.1-0.1,0.3-0.2,0.4-0.2h1.2c0.2,0,0.3,0.1,0.4,0.2c0.1,0.1,0.2,0.3,0.2,0.4V33h6.5c0.2,0,0.3-0.1,0.4-0.2
	C37.4,32.7,37.4,32.6,37.4,32.4z M39.8,10v22.4c0,0.8-0.3,1.5-0.9,2.1c-0.6,0.6-1.3,0.9-2.1,0.9H5c-0.8,0-1.5-0.3-2.1-0.9
	C2.3,33.9,2,33.2,2,32.4V10c0-0.8,0.3-1.5,0.9-2.1S4.1,7,5,7h31.9c0.8,0,1.5,0.3,2.1,0.9C39.5,8.4,39.8,9.1,39.8,10z M21.3,19.6h-1
	v0.7h1V19.6z"/>
</svg>
