<?xml version="1.0" encoding="utf-8"?>
<!-- Generator: Adobe Illustrator 21.1.0, SVG Export Plug-In . SVG Version: 6.00 Build 0)  -->
<svg version="1.1" id="Ebene_1" xmlns="http://www.w3.org/2000/svg" xmlns:xlink="http://www.w3.org/1999/xlink" x="0px" y="0px"
	 viewBox="0 0 42.5 42.5" style="enable-background:new 0 0 42.5 42.5;" xml:space="preserve">
<path d="M34.4,11.2c0.4,0.4,0.7,0.8,0.9,1.4c0.3,0.6,0.4,1.2,0.4,1.7v21.9c0,0.5-0.2,0.9-0.5,1.3S34.4,38,33.9,38H8.4
	c-0.5,0-0.9-0.2-1.3-0.5c-0.4-0.4-0.5-0.8-0.5-1.3V5.8c0-0.5,0.2-0.9,0.5-1.3C7.5,4.2,7.9,4,8.4,4h17c0.5,0,1.1,0.1,1.7,0.4
	c0.6,0.3,1.1,0.6,1.4,0.9L34.4,11.2z M26,6.6v7.1h7.1c-0.1-0.4-0.3-0.6-0.4-0.8L26.8,7C26.6,6.8,26.4,6.7,26,6.6z M33.3,35.6V16.2
	h-7.9c-0.5,0-0.9-0.2-1.3-0.5s-0.5-0.8-0.5-1.3V6.4H9v29.2H33.3z"/>
<path d="M14.3,25.1h-1.4v-5.6L11.5,20v-1.2l2.7-1.1h0.2V25.1z M20.6,22.1c0,1-0.2,1.8-0.6,2.3c-0.4,0.5-0.9,0.8-1.6,0.8
	c-0.7,0-1.2-0.3-1.6-0.8c-0.4-0.5-0.6-1.3-0.6-2.2v-1.4c0-1,0.2-1.8,0.5-2.3c0.4-0.5,0.9-0.8,1.6-0.8s1.2,0.3,1.6,0.8
	c0.4,0.5,0.6,1.3,0.6,2.3V22.1z M19.2,20.6c0-0.6-0.1-1-0.2-1.3c-0.1-0.3-0.3-0.4-0.5-0.4c-0.5,0-0.7,0.5-0.7,1.6v1.8
	c0,0.6,0.1,1,0.2,1.3c0.1,0.3,0.3,0.4,0.5,0.4c0.2,0,0.4-0.1,0.5-0.4c0.1-0.3,0.2-0.7,0.2-1.2V20.6z M24.7,25.1h-1.4v-5.6L21.9,20
	v-1.2l2.7-1.1h0.2V25.1z M31.1,22.1c0,1-0.2,1.8-0.6,2.3c-0.4,0.5-0.9,0.8-1.6,0.8c-0.7,0-1.2-0.3-1.6-0.8c-0.4-0.5-0.6-1.3-0.6-2.2
	v-1.4c0-1,0.2-1.8,0.5-2.3c0.4-0.5,0.9-0.8,1.6-0.8s1.2,0.3,1.6,0.8c0.4,0.5,0.6,1.3,0.6,2.3V22.1z M29.6,20.6c0-0.6-0.1-1-0.2-1.3
	c-0.1-0.3-0.3-0.4-0.5-0.4c-0.5,0-0.7,0.5-0.7,1.6v1.8c0,0.6,0.1,1,0.2,1.3c0.1,0.3,0.3,0.4,0.5,0.4c0.2,0,0.4-0.1,0.5-0.4
	c0.1-0.3,0.2-0.7,0.2-1.2V20.6z M15.4,30.1c0,1-0.2,1.8-0.6,2.3c-0.4,0.5-0.9,0.8-1.6,0.8c-0.7,0-1.2-0.3-1.6-0.8
	c-0.4-0.5-0.6-1.3-0.6-2.2v-1.4c0-1,0.2-1.8,0.5-2.3c0.4-0.5,0.9-0.8,1.6-0.8s1.2,0.3,1.6,0.8c0.4,0.5,0.6,1.3,0.6,2.3V30.1z
	 M14,28.6c0-0.6-0.1-1-0.2-1.3s-0.3-0.4-0.5-0.4c-0.5,0-0.7,0.5-0.7,1.6v1.8c0,0.6,0.1,1,0.2,1.3c0.1,0.3,0.3,0.4,0.5,0.4
	c0.2,0,0.4-0.1,0.5-0.4c0.1-0.3,0.2-0.7,0.2-1.2V28.6z M20.6,30.1c0,1-0.2,1.8-0.6,2.3c-0.4,0.5-0.9,0.8-1.6,0.8
	c-0.7,0-1.2-0.3-1.6-0.8c-0.4-0.5-0.6-1.3-0.6-2.2v-1.4c0-1,0.2-1.8,0.5-2.3c0.4-0.5,0.9-0.8,1.6-0.8s1.2,0.3,1.6,0.8
	c0.4,0.5,0.6,1.3,0.6,2.3V30.1z M19.2,28.6c0-0.6-0.1-1-0.2-1.3s-0.3-0.4-0.5-0.4c-0.5,0-0.7,0.5-0.7,1.6v1.8c0,0.6,0.1,1,0.2,1.3
	c0.1,0.3,0.3,0.4,0.5,0.4c0.2,0,0.4-0.1,0.5-0.4c0.1-0.3,0.2-0.7,0.2-1.2V28.6z M24.7,33.1h-1.4v-5.6l-1.4,0.5v-1.2l2.7-1.1h0.2
	V33.1z M31.1,30.1c0,1-0.2,1.8-0.6,2.3c-0.4,0.5-0.9,0.8-1.6,0.8c-0.7,0-1.2-0.3-1.6-0.8c-0.4-0.5-0.6-1.3-0.6-2.2v-1.4
	c0-1,0.2-1.8,0.5-2.3c0.4-0.5,0.9-0.8,1.6-0.8s1.2,0.3,1.6,0.8c0.4,0.5,0.6,1.3,0.6,2.3V30.1z M29.6,28.6c0-0.6-0.1-1-0.2-1.3
	c-0.1-0.3-0.3-0.4-0.5-0.4c-0.5,0-0.7,0.5-0.7,1.6v1.8c0,0.6,0.1,1,0.2,1.3c0.1,0.3,0.3,0.4,0.5,0.4c0.2,0,0.4-0.1,0.5-0.4
	c0.1-0.3,0.2-0.7,0.2-1.2V28.6z"/>
</svg>
