<?xml version="1.0" encoding="utf-8"?>
<!-- Generator: Adobe Illustrator 21.1.0, SVG Export Plug-In . SVG Version: 6.00 Build 0)  -->
<svg version="1.1" id="Ebene_1" xmlns="http://www.w3.org/2000/svg" xmlns:xlink="http://www.w3.org/1999/xlink" x="0px" y="0px"
	 viewBox="0 0 42.5 42.5" style="enable-background:new 0 0 42.5 42.5;" xml:space="preserve">
<g>
	<path d="M4,21.6h7.6c0.1,2.7,0.6,5.3,1.5,7.7C11.3,30,9.6,30.9,8,32C5.6,29.1,4.1,25.5,4,21.6L4,21.6z M8.3,9.6
		c1.6,1,3.3,1.8,5,2.5c-1.1,2.6-1.7,5.4-1.7,8.3H4C4.2,16.2,5.8,12.5,8.3,9.6L8.3,9.6z M38.2,20.3h-7.6c-0.1-2.9-0.7-5.7-1.7-8.3
		c1.8-0.6,3.4-1.4,5-2.5C36.4,12.5,38.1,16.2,38.2,20.3L38.2,20.3z M20.5,12.1c-1.8,0-3.6-0.3-5.4-0.8c1.3-2.6,3.1-5,5.4-7V12.1z
		 M20.5,13.3v7h-7.6c0.1-2.8,0.7-5.4,1.7-7.9C16.5,13,18.5,13.3,20.5,13.3L20.5,13.3z M21.7,13.3c2-0.1,4-0.4,5.9-0.9
		c1,2.5,1.6,5.2,1.7,7.9h-7.6V13.3z M21.7,12.1V4.3c2.3,2,4.1,4.4,5.4,7C25.4,11.7,23.6,12,21.7,12.1L21.7,12.1z M28.3,10.9
		c-1.2-2.6-2.9-4.9-5-6.9C27,4.5,30.4,6.2,33,8.6C31.5,9.6,30,10.3,28.3,10.9L28.3,10.9z M13.9,10.9c-1.6-0.6-3.2-1.3-4.6-2.2
		c2.6-2.5,5.9-4.2,9.6-4.6C16.8,6,15.1,8.3,13.9,10.9L13.9,10.9z M12.9,21.6h7.6V28c-2.1,0.1-4.1,0.4-6.1,1
		C13.5,26.6,13,24.2,12.9,21.6L12.9,21.6z M20.5,29.2v8.4c-2.4-2.1-4.3-4.7-5.6-7.6C16.7,29.6,18.5,29.3,20.5,29.2L20.5,29.2z
		 M21.7,37.7v-8.4c1.9,0.1,3.8,0.4,5.6,0.9C26.1,33,24.2,35.6,21.7,37.7L21.7,37.7z M21.7,28v-6.4h7.6c-0.1,2.5-0.6,5-1.5,7.3
		C25.9,28.3,23.8,28,21.7,28L21.7,28z M30.6,21.6h7.6c-0.1,3.9-1.6,7.5-4,10.4c-1.6-1.1-3.3-2-5.1-2.6C30,26.9,30.5,24.3,30.6,21.6
		L30.6,21.6z M8.9,32.9c1.5-1,3.1-1.8,4.8-2.4c1.2,2.8,3,5.3,5.2,7.4C15,37.4,11.5,35.6,8.9,32.9L8.9,32.9z M23.3,37.9
		c2.2-2.1,4-4.6,5.2-7.4c1.7,0.6,3.3,1.4,4.8,2.4C30.7,35.6,27.2,37.4,23.3,37.9L23.3,37.9z M23.3,37.9"/>
</g>
</svg>
