<?xml version="1.0" encoding="utf-8"?>
<!-- Generator: Adobe Illustrator 21.1.0, SVG Export Plug-In . SVG Version: 6.00 Build 0)  -->
<svg version="1.1" id="Ebene_1" xmlns="http://www.w3.org/2000/svg" xmlns:xlink="http://www.w3.org/1999/xlink" x="0px" y="0px"
	 viewBox="0 0 42.5 42.5" style="enable-background:new 0 0 42.5 42.5;" xml:space="preserve">
<path d="M37.1,22l-16-16c-0.6-0.6-1.3-1-2.3-1.4C17.9,4.2,17,4,16.2,4H6.9c-0.8,0-1.4,0.3-2,0.9S4,6.1,4,6.9v9.3
	c0,0.8,0.2,1.7,0.6,2.6c0.4,1,0.9,1.7,1.4,2.3l16,16c0.6,0.6,1.2,0.8,2,0.8c0.8,0,1.5-0.3,2-0.8l11-11c0.6-0.6,0.8-1.2,0.8-2
	C38,23.3,37.7,22.6,37.1,22z M13.2,13.2c-0.6,0.6-1.2,0.8-2,0.8s-1.5-0.3-2-0.8c-0.6-0.6-0.8-1.2-0.8-2s0.3-1.5,0.8-2
	c0.6-0.6,1.2-0.8,2-0.8s1.5,0.3,2,0.8c0.6,0.6,0.8,1.2,0.8,2S13.8,12.6,13.2,13.2z M31.6,23.7c0,0.2-0.1,0.4-0.2,0.5
	c-0.1,0.1-0.3,0.2-0.5,0.2h-6.3v6.3c0,0.2-0.1,0.4-0.2,0.5c-0.1,0.1-0.3,0.2-0.5,0.2h-1.5c-0.2,0-0.4-0.1-0.5-0.2
	c-0.1-0.1-0.2-0.3-0.2-0.5l0-6.3l-6.3,0c-0.2,0-0.4-0.1-0.5-0.2c-0.1-0.1-0.2-0.3-0.2-0.5v-1.5c0-0.2,0.1-0.4,0.2-0.5
	c0.1-0.1,0.3-0.2,0.5-0.2l6.3,0l0-6.3c0-0.2,0.1-0.4,0.2-0.5c0.1-0.1,0.3-0.2,0.5-0.2h1.5c0.2,0,0.4,0.1,0.5,0.2
	c0.1,0.1,0.2,0.3,0.2,0.5v6.3h6.3c0.2,0,0.4,0.1,0.5,0.2c0.1,0.1,0.2,0.3,0.2,0.5V23.7z"/>
</svg>
