<?xml version="1.0" encoding="utf-8"?>
<!-- Generator: Adobe Illustrator 21.1.0, SVG Export Plug-In . SVG Version: 6.00 Build 0)  -->
<svg version="1.1" id="Ebene_1" xmlns="http://www.w3.org/2000/svg" xmlns:xlink="http://www.w3.org/1999/xlink" x="0px" y="0px"
	 viewBox="0 0 42.5 42.5" style="enable-background:new 0 0 42.5 42.5;" xml:space="preserve">
<path d="M9.8,18.1H7.2V8.1c0-0.5,0.4-0.8,1-0.8h7.6c0.3,0,0.7,0.2,0.8,0.4l1.4,2h17c0.5,0,1,0.4,1,0.8v7.7h-2.8v-5.8H9.8V18.1z
	 M38,19.3c-0.1-0.1-0.3-0.2-0.5-0.2h-9.1l3,2.8h2.9c0.2,0,0.4,0.1,0.5,0.2c0.1,0.1,0.2,0.3,0.2,0.5L33,31.8
	c-0.1,0.3-0.3,0.5-0.7,0.5l-21.5,0c-0.3,0-0.6-0.2-0.7-0.5l-1.8-9.2c0-0.2,0-0.3,0.2-0.5C8.6,22,8.8,21.9,9,21.9h3.8l2.9-2.8h-10
	c-0.2,0-0.4,0.1-0.5,0.2C5,19.4,5,19.6,5,19.8l2.7,14.4c0.1,0.3,0.3,0.5,0.7,0.5h26.3c0.4,0,0.6-0.2,0.7-0.5l2.7-14.4
	C38.2,19.6,38.1,19.4,38,19.3z M29.1,22.1l-6.2-6.2c-0.2-0.2-0.4-0.3-0.6-0.3s-0.5,0.1-0.6,0.3l-6.2,6.2c-0.3,0.3-0.4,0.6-0.2,1
	c0.2,0.4,0.4,0.6,0.8,0.6h3.6v6.2c0,0.2,0.1,0.4,0.3,0.6c0.2,0.2,0.4,0.3,0.6,0.3H24c0.2,0,0.4-0.1,0.6-0.3c0.2-0.2,0.3-0.4,0.3-0.6
	v-6.2h3.6c0.4,0,0.7-0.2,0.8-0.6C29.4,22.7,29.3,22.4,29.1,22.1z"/>
</svg>
