<?xml version="1.0" encoding="utf-8"?>
<!-- Generator: Adobe Illustrator 23.0.6, SVG Export Plug-In . SVG Version: 6.00 Build 0)  -->
<svg version="1.1" id="Ebene_1" xmlns="http://www.w3.org/2000/svg" xmlns:xlink="http://www.w3.org/1999/xlink" x="0px" y="0px"
	 viewBox="0 0 42.5 42.5" style="enable-background:new 0 0 42.5 42.5;" xml:space="preserve">
<style type="text/css">
	.st0{fill:#020203;}
</style>
<path class="st0" d="M36.7,35.9c-0.2,0-0.5-0.1-0.7-0.2l-8.2-5.1H6.4c-0.7,0-1.3-0.6-1.3-1.3V8.9c0-0.7,0.6-1.3,1.3-1.3h30.3
	c0.7,0,1.3,0.6,1.3,1.3v25.7c0,0.5-0.3,0.9-0.6,1.1C37.1,35.9,36.9,35.9,36.7,35.9z M7.7,28.1h20.6c0.3,0,0.5,0.1,0.7,0.2l6.5,4
	V10.2H7.7V28.1z"/>
<path class="st0" d="M23,23.4v2.3c0,0.1,0,0.2-0.1,0.3c-0.1,0.1-0.2,0.1-0.3,0.1h-2.3c-0.1,0-0.2,0-0.3-0.1
	c-0.1-0.1-0.1-0.2-0.1-0.3v-2.3c0-0.1,0-0.2,0.1-0.3c0.1-0.1,0.2-0.1,0.3-0.1h2.3c0.1,0,0.2,0,0.3,0.1C23,23.1,23,23.3,23,23.4z
	 M26.6,16.4c0,0.5-0.1,0.9-0.2,1.3c-0.1,0.4-0.4,0.7-0.6,1c-0.3,0.3-0.5,0.5-0.7,0.6s-0.5,0.3-0.8,0.5c-0.3,0.2-0.5,0.3-0.7,0.4
	c-0.1,0.1-0.3,0.2-0.4,0.3c-0.1,0.1-0.2,0.3-0.2,0.4v0.5c0,0.1,0,0.2-0.1,0.3c-0.1,0.1-0.2,0.1-0.3,0.1h-2.3c-0.1,0-0.2,0-0.3-0.1
	c-0.1-0.1-0.1-0.2-0.1-0.3v-1c0-0.3,0-0.6,0.1-0.9s0.2-0.5,0.3-0.7c0.1-0.2,0.3-0.3,0.6-0.5c0.2-0.2,0.4-0.3,0.6-0.4
	c0.1-0.1,0.4-0.2,0.6-0.3c0.5-0.2,0.9-0.4,1.1-0.6c0.2-0.2,0.3-0.4,0.3-0.7c0-0.4-0.2-0.7-0.6-1c-0.4-0.3-0.9-0.4-1.4-0.4
	c-0.5,0-1,0.1-1.3,0.4c-0.3,0.2-0.7,0.6-1.1,1.2c-0.1,0.1-0.2,0.2-0.4,0.2c-0.1,0-0.2,0-0.3-0.1l-1.5-1.2c-0.1-0.1-0.2-0.2-0.2-0.3
	s0-0.2,0.1-0.3c1.2-1.8,2.8-2.7,4.9-2.7c1.2,0,2.3,0.4,3.4,1.3C26.1,14.2,26.6,15.2,26.6,16.4z"/>
</svg>
