<?xml version="1.0" encoding="utf-8"?>
<!-- Generator: Adobe Illustrator 23.0.1, SVG Export Plug-In . SVG Version: 6.00 Build 0)  -->
<svg version="1.1" id="Ebene_1" xmlns="http://www.w3.org/2000/svg" xmlns:xlink="http://www.w3.org/1999/xlink" x="0px" y="0px"
	 viewBox="0 0 42.52 42.52" style="enable-background:new 0 0 42.52 42.52;" xml:space="preserve">
<style type="text/css">
	.st0{fill-rule:evenodd;clip-rule:evenodd;}
	.st1{fill:#E4003A;}
</style>
<path class="st0" d="M21.26,8.08c-9.69,0-17.97,6.06-21.26,14.6l10.63,4.09c1.64-4.27,5.78-7.3,10.62-7.3c0.91,0,1.8,0.11,2.65,0.31
	l7.23-9.44C28.15,8.89,24.8,8.08,21.26,8.08L21.26,8.08z"/>
<path class="st1" d="M19.82,33.11c1.63,0.76,3.57,0.05,4.33-1.58l6.25-13.44l2.24-4.82l1.52-3.27c0.1-0.21,0.06-0.41-0.06-0.56
	c-0.2-0.24-0.6-0.32-0.85,0l-2.13,2.73l-3.44,4.41l-9.05,11.57c-0.15,0.19-0.28,0.41-0.39,0.63c-0.54,1.17-0.34,2.49,0.42,3.43
	C18.97,32.58,19.36,32.89,19.82,33.11L19.82,33.11z M22.43,29c0.56,0.69,0.45,1.69-0.24,2.25c-0.69,0.56-1.69,0.45-2.25-0.24
	c-0.56-0.69-0.45-1.69,0.24-2.25C20.87,28.21,21.87,28.32,22.43,29L22.43,29z M22.43,29"/>
<path class="st0" d="M29.14,22.64c1.2,1.15,2.15,2.55,2.75,4.13l10.63-4.09c-1.63-4.22-4.48-7.85-8.11-10.42L29.14,22.64z"/>
</svg>
