<?xml version="1.0" encoding="utf-8"?>
<!-- Generator: Adobe Illustrator 21.1.0, SVG Export Plug-In . SVG Version: 6.00 Build 0)  -->
<svg version="1.1" id="Ebene_1" xmlns="http://www.w3.org/2000/svg" xmlns:xlink="http://www.w3.org/1999/xlink" x="0px" y="0px"
	 viewBox="0 0 42.5 42.5" style="enable-background:new 0 0 42.5 42.5;" xml:space="preserve">
<path d="M20.8,35c0.5,0.1,1,0,1.5-0.1c1.1-0.4,2-1.4,2.2-2.7c0-0.2,0-0.5,0-0.7l-1.4-14.6l-0.5-5.6l-0.3-3.4c0-0.4-0.4-0.6-0.7-0.5
	c-0.2,0.1-0.3,0.2-0.4,0.4l-0.5,3.6L20,16.6l-2,14.7C17.8,33.1,19,34.7,20.8,35L20.8,35z M20.8,30.1c0.8-0.3,1.7,0.2,2,1
	s-0.2,1.7-1,2s-1.7-0.2-2-1S20,30.4,20.8,30.1L20.8,30.1z M23.1,9.8c8.9,0.7,16.4,6.5,19.5,14.5L32,28.4c-1.3-3.3-4.1-5.9-7.5-6.9
	 M18.6,21.4c-3.7,0.9-6.6,3.5-8,7L0,24.3c3.2-8.2,10.9-14.1,20.1-14.6"/>
</svg>
