<?xml version="1.0" encoding="utf-8"?>
<!-- Generator: Adobe Illustrator 21.1.0, SVG Export Plug-In . SVG Version: 6.00 Build 0)  -->
<svg version="1.1" id="Ebene_1" xmlns="http://www.w3.org/2000/svg" xmlns:xlink="http://www.w3.org/1999/xlink" x="0px" y="0px"
	 viewBox="0 0 42.5 42.5" style="enable-background:new 0 0 42.5 42.5;" xml:space="preserve">
<path d="M34.7,38h-3.2l-0.2-13.4c2.1,1.7,3.4,4.1,3.4,6.2V38z M8,30.8V38h3.5l0.2-13.5C9.5,26.3,8,28.8,8,30.8z M28,22.8L27.1,38
	H15.9L15,22.5c0.2-0.1,0.4-0.1,0.5-0.2c0.8,2.3,3.1,4.3,5.8,4.3c2.6,0,5.1-1.7,5.8-4.1L28,22.8z M23.4,28.8h-1.2v-1.2h-2.2v1.2h-1.2
	V31h1.2v2.4h2.2V31h1.2V28.8z M14.1,17.5c1,3.4,3.7,7,7.3,7s6.3-3.6,7.3-7c0.9-0.3,1.6-1.2,1.9-2.4c0.4-1.6-0.2-3.1-1.3-3.5
	c0.1-0.4-0.3-2.1-0.5-2.5c-1.5-3.5-3-5.2-7.6-5.2c-4.6,0-6.7,3-7.8,5.9c-0.2,0.5-0.6,1.6-0.4,2.1c-0.8,0.6-1.2,1.9-0.9,3.2
	C12.4,16.3,13.2,17.2,14.1,17.5z"/>
</svg>
