<?xml version="1.0" encoding="utf-8"?>
<!-- Generator: Adobe Illustrator 21.1.0, SVG Export Plug-In . SVG Version: 6.00 Build 0)  -->
<svg version="1.1" id="Ebene_1" xmlns="http://www.w3.org/2000/svg" xmlns:xlink="http://www.w3.org/1999/xlink" x="0px" y="0px"
	 viewBox="0 0 42.5 42.5" style="enable-background:new 0 0 42.5 42.5;" xml:space="preserve">
<path d="M20.7,35.6l0,2.4c-2.9-0.1-5.7-0.8-8.2-2.3c-2.6-1.5-4.7-3.6-6.2-6.2S4,24.1,4,21c0-3.1,0.8-5.9,2.3-8.5
	c1.5-2.6,3.6-4.7,6.2-6.2C15,4.8,17.8,4,20.8,4l-0.1,2.4c-2.5,0-4.9,0.7-7,1.9c-2.2,1.3-4,3.1-5.3,5.3c-1.3,2.2-2,4.7-2,7.3
	s0.7,5.1,2,7.3c1.3,2.2,3.1,4,5.3,5.3C15.8,34.9,18.2,35.5,20.7,35.6z M16.2,20.3c-0.4-0.4-1-0.7-1.7-0.7c-0.3,0-0.6,0.1-0.9,0.2v-1
	h2.7v-1.4h-4v3.9h1.2c0.3-0.3,0.6-0.4,0.9-0.4c0.3,0,0.6,0.1,0.7,0.3c0.2,0.2,0.3,0.4,0.3,0.8c0,0.3-0.1,0.6-0.2,0.8
	c-0.2,0.2-0.4,0.4-0.8,0.4c-0.5,0-0.8-0.3-1-0.9l-1.3,0.4c0.4,1.2,1.1,1.8,2.3,1.8c0.8,0,1.4-0.2,1.8-0.7c0.4-0.4,0.6-1.1,0.6-1.8
	C16.8,21.3,16.6,20.8,16.2,20.3z M21.8,18.6c-0.5-0.8-1.1-1.2-2-1.2c-0.9,0-1.6,0.4-2,1.2c-0.4,0.7-0.6,1.5-0.6,2.4
	c0,0.9,0.2,1.7,0.6,2.4c0.5,0.8,1.1,1.2,2,1.2c0.9,0,1.6-0.4,2-1.2c0.4-0.7,0.6-1.5,0.6-2.4C22.4,20,22.2,19.2,21.8,18.6z
	 M19.8,23.2c-0.4,0-0.8-0.3-1-0.8c-0.1-0.4-0.2-0.8-0.2-1.4c0-0.6,0.1-1,0.2-1.4c0.2-0.5,0.5-0.8,1-0.8c0.4,0,0.7,0.3,0.9,0.8
	c0.1,0.4,0.2,0.8,0.2,1.4C20.9,22.5,20.5,23.2,19.8,23.2z M26.3,19.4c-0.2-0.3-0.5-0.5-1-0.5s-0.7,0.2-1,0.5
	c-0.2,0.3-0.3,0.6-0.3,1.1c0,0.4,0.1,0.8,0.3,1.1c0.2,0.3,0.5,0.5,1,0.5s0.7-0.2,1-0.5c0.2-0.3,0.3-0.6,0.3-1.1
	C26.6,20.1,26.5,19.7,26.3,19.4z M25.3,21.3c-0.3,0-0.4-0.2-0.4-0.7c0-0.5,0.1-0.7,0.4-0.7c0.3,0,0.4,0.2,0.4,0.7
	C25.7,21,25.6,21.3,25.3,21.3z M27.7,19l-2.5,5.5h1l2.5-5.5H27.7z M29.6,21.9c-0.2-0.3-0.5-0.5-1-0.5c-0.4,0-0.7,0.2-1,0.5
	c-0.2,0.3-0.3,0.6-0.3,1.1c0,0.4,0.1,0.8,0.3,1.1c0.2,0.3,0.5,0.5,1,0.5c0.4,0,0.7-0.2,1-0.5c0.2-0.3,0.3-0.6,0.3-1.1
	C29.9,22.6,29.8,22.2,29.6,21.9z M28.6,23.8c-0.3,0-0.4-0.2-0.4-0.7c0-0.5,0.1-0.7,0.4-0.7c0.3,0,0.4,0.2,0.4,0.7
	C29,23.5,28.9,23.8,28.6,23.8z M36.7,27.7c0.2-0.4,0.3-0.7,0.4-1.1l-4.3-1.4c-0.1,0.2-0.2,0.5-0.3,0.7c-0.1,0.2-0.2,0.4-0.3,0.6
	c0,0,0,0,0,0c0,0.1-0.1,0.2-0.1,0.2c0,0,0,0,0,0.1c0,0.1-0.1,0.1-0.1,0.2c0,0,0,0.1-0.1,0.1c0,0-0.1,0.1-0.1,0.1
	c0,0-0.1,0.1-0.1,0.1c0,0,0,0.1-0.1,0.1c0,0.1-0.1,0.1-0.1,0.2c0,0,0,0,0,0.1c0,0.1-0.1,0.1-0.1,0.2c0,0,0,0,0,0
	c-0.1,0.2-0.3,0.4-0.4,0.6c-0.6,0.8-1.3,1.5-2,2.1c0,0-0.1,0.1-0.1,0.1c0,0,0,0-0.1,0c-0.1,0-0.1,0.1-0.2,0.1l2.6,3.6
	c0.6-0.5,1.2-1,1.8-1.6c0.3-0.3,0.6-0.6,0.8-0.9c0,0,0,0,0-0.1c0,0,0-0.1,0.1-0.1c0.7-0.8,1.3-1.6,1.8-2.5
	C36.1,28.9,36.4,28.3,36.7,27.7z M27.5,36.7c-0.1,0-0.1,0.1-0.2,0.1c0,0-0.1,0-0.1,0c0,0-0.1,0-0.1,0c-0.1,0-0.1,0-0.2,0.1
	c0,0,0,0,0,0c-1.4,0.5-2.9,0.9-4.4,1c-0.4,0-0.7,0-1.1,0.1v-4.5c0.5,0,0.9,0,1.4-0.1c1.1-0.1,2.2-0.4,3.2-0.9c0.5-0.2,1-0.5,1.5-0.7
	c0,0,0,0,0.1,0c0,0,0.1-0.1,0.1-0.1c0.1,0,0.1-0.1,0.2-0.1c0,0,0,0,0.1,0c0.1,0,0.1-0.1,0.2-0.1c0,0,0,0,0,0c0,0,0.1,0,0.1-0.1
	l2.6,3.6c-0.4,0.3-0.8,0.5-1.2,0.8C28.9,36.1,28.2,36.4,27.5,36.7C27.5,36.7,27.5,36.7,27.5,36.7z M22.3,4c0,0,0.1,0,0.1,0
	c1.6,0.1,3.2,0.5,4.7,1.1c0,0,0,0,0,0c0.1,0,0.1,0,0.2,0.1c0,0,0.1,0,0.1,0.1c0,0,0.1,0,0.1,0c0.1,0,0.1,0.1,0.2,0.1c0,0,0,0,0,0
	c0.6,0.3,1.2,0.6,1.7,0.9c0.4,0.2,0.8,0.5,1.2,0.8l-2.6,3.6c0,0-0.1,0-0.1-0.1c0,0,0,0-0.1,0c0,0-0.1-0.1-0.1-0.1c0,0-0.1,0-0.1-0.1
	c0,0,0,0,0,0c-0.1-0.1-0.2-0.1-0.3-0.2c0,0,0,0,0,0c-0.5-0.3-1-0.5-1.5-0.7c-1-0.4-2.1-0.7-3.2-0.9c0,0-0.1,0-0.1,0c0,0,0,0,0,0
	c-0.4-0.1-0.8-0.1-1.3-0.1V4C21.6,4,22,4,22.3,4C22.3,4,22.3,4,22.3,4z M33,9c0.3,0.3,0.5,0.6,0.8,0.9c0,0,0,0.1,0.1,0.1
	c0,0,0,0,0.1,0.1c0.7,0.8,1.3,1.6,1.8,2.5c0.3,0.6,0.6,1.2,0.9,1.8c0.2,0.4,0.3,0.7,0.4,1.1l-4.3,1.4c-0.1-0.2-0.2-0.5-0.3-0.7
	c-0.1-0.2-0.2-0.4-0.3-0.6c0,0,0,0,0,0c0-0.1-0.1-0.2-0.1-0.2c0,0,0,0,0-0.1c0-0.1-0.1-0.1-0.1-0.2c0,0,0-0.1-0.1-0.1
	c0,0-0.1-0.1-0.1-0.1c0,0-0.1-0.1-0.1-0.1c0,0,0-0.1-0.1-0.1c0-0.1-0.1-0.1-0.1-0.2c0,0,0,0,0-0.1c0-0.1-0.1-0.1-0.1-0.2
	c0,0,0,0,0,0c-0.1-0.2-0.3-0.4-0.4-0.6c-0.6-0.8-1.3-1.5-2-2.1c0,0-0.1,0-0.1-0.1c0,0-0.1,0-0.1-0.1c-0.1,0-0.1-0.1-0.2-0.1l2.6-3.6
	C31.9,7.9,32.5,8.4,33,9z M38,21c0,0.7,0,1.4-0.1,2c-0.1,0.8-0.2,1.6-0.5,2.4c-0.1,0.2-0.1,0.4-0.2,0.6L33,24.6c0-0.1,0-0.1,0.1-0.2
	c0,0,0,0,0,0c0,0,0-0.1,0-0.1c0,0,0-0.1,0-0.1c0,0,0,0,0,0c0.1-0.5,0.2-1,0.3-1.6c0.1-0.4,0.1-0.9,0.1-1.3c0,0,0,0,0,0
	c0,0,0-0.1,0-0.1c0,0,0,0,0-0.1c0,0,0-0.1,0-0.1c0,0,0-0.1,0-0.1c0,0,0,0,0-0.1c0,0,0-0.1,0-0.1c0,0,0,0,0,0c0-0.4,0-0.9-0.1-1.3
	c-0.1-0.5-0.2-1-0.3-1.6c0,0,0,0,0,0c0,0,0-0.1,0-0.1c0,0,0-0.1,0-0.1c0,0,0,0,0,0c0-0.1,0-0.1-0.1-0.2l4.2-1.4
	c0.1,0.2,0.1,0.4,0.2,0.6c0.2,0.8,0.4,1.6,0.5,2.4C38,19.6,38,20.3,38,21z"/>
</svg>
