<?xml version="1.0" encoding="utf-8"?>
<!-- Generator: Adobe Illustrator 21.1.0, SVG Export Plug-In . SVG Version: 6.00 Build 0)  -->
<svg version="1.1" id="Ebene_1" xmlns="http://www.w3.org/2000/svg" xmlns:xlink="http://www.w3.org/1999/xlink" x="0px" y="0px"
	 viewBox="0 0 42.5 42.5" style="enable-background:new 0 0 42.5 42.5;" xml:space="preserve">
<path stroke="white" fill="white" d="M30.4,8l-7.7,7.7H10.3v2.9c0,0.2-0.1,0.4-0.2,0.5l-2.8,2.3c-0.2,0.2-0.4,0.2-0.7,0.1c-0.3-0.1-0.4-0.3-0.4-0.6v-8.2
	c0-0.2,0.1-0.3,0.2-0.5C6.5,12,6.6,12,6.8,12h19.4V7.3c0-0.5,0.2-0.9,0.7-1.2s1-0.2,1.4,0.2L30.4,8z M26.2,20.2
	c0,0.5,0.2,0.9,0.7,1.2c0.5,0.2,1,0.2,1.4-0.2l7.7-6.4c0.3-0.2,0.4-0.6,0.4-1s-0.1-0.7-0.4-1l-1.5-1.2l-8.4,8.4V20.2z M36.2,20.8
	c-0.3-0.1-0.5-0.1-0.7,0.1l-2.8,2.3c-0.1,0.1-0.2,0.3-0.2,0.5v2.9H19.6L12.1,34l2.2,1.8c0.4,0.4,0.9,0.4,1.4,0.2
	c0.5-0.2,0.7-0.6,0.7-1.2v-4.7h19.4c0.2,0,0.3-0.1,0.5-0.2s0.2-0.3,0.2-0.5v-8.2C36.5,21.1,36.4,20.9,36.2,20.8z M15.7,20.8
	c-0.5-0.2-1-0.2-1.4,0.2l-7.7,6.4c-0.3,0.2-0.4,0.6-0.4,1s0.1,0.7,0.4,1l1.3,1.1l8.6-8.6C16.4,21.4,16.2,21.1,15.7,20.8z M31.1,9.4
	L9.4,31.1l1.8,1.8l21.7-21.7L31.1,9.4z"/>
</svg>
