<?xml version="1.0" encoding="utf-8"?>
<!-- Generator: Adobe Illustrator 21.1.0, SVG Export Plug-In . SVG Version: 6.00 Build 0)  -->
<svg version="1.1" id="Ebene_1" xmlns="http://www.w3.org/2000/svg" xmlns:xlink="http://www.w3.org/1999/xlink" x="0px" y="0px"
	 viewBox="0 0 42.5 42.5" style="enable-background:new 0 0 42.5 42.5;" xml:space="preserve">
<path d="M28.2,20.2c0.9,0.9,1.4,2.1,1.4,3.4s-0.5,2.5-1.4,3.4c-0.9,0.9-2.1,1.4-3.4,1.4s-2.5-0.5-3.4-1.4c-0.9-0.9-1.4-2.1-1.4-3.4
	s0.5-2.5,1.4-3.4c0.9-0.9,2.1-1.4,3.4-1.4S27.2,19.3,28.2,20.2z M14.8,15c0.4-0.7,0.9-1.3,1.4-1.9c-0.4-0.2-0.8-0.3-1.3-0.3
	c-1.1,1.1-2.4,1.6-3.9,1.6c-1.5,0-2.8-0.5-3.9-1.6c-0.6,0-1.2,0.1-1.7,0.4c-0.5,0.3-0.9,0.7-1.2,1.1c-0.3,0.5-0.5,1-0.7,1.6
	c-0.2,0.6-0.3,1.3-0.4,1.9C3,18.5,3,19.2,3,19.9c0,0.9,0.3,1.7,0.8,2.3c0.5,0.7,1.1,1,1.9,1h7.7c-0.1-0.6-0.2-1.3-0.2-2
	C13.2,19,13.7,16.9,14.8,15z M11,13.6c1.3,0,2.5-0.5,3.4-1.4c0.9-0.9,1.4-2.1,1.4-3.4s-0.5-2.5-1.4-3.4C13.5,4.5,12.3,4,11,4
	S8.6,4.5,7.6,5.4C6.7,6.3,6.2,7.5,6.2,8.8s0.5,2.5,1.4,3.4C8.6,13.1,9.7,13.6,11,13.6z M18.2,22.3c0.5-0.7,0.8-1.4,0.8-2.3
	c0-0.7,0-1.4-0.1-2c-0.1-0.6-0.2-1.3-0.4-1.9c-0.2-0.6-0.4-1.1-0.7-1.6c-0.7,0.8-1.3,1.8-1.8,2.8c-0.5,1.3-0.8,2.6-0.8,4
	c0,0.7,0.1,1.3,0.2,2h0.9C17.1,23.2,17.7,22.9,18.2,22.3z M30.4,28c-0.5-0.3-1-0.4-1.7-0.4c-1.1,1.1-2.4,1.6-3.9,1.6
	s-2.8-0.5-3.9-1.6c-0.6,0-1.2,0.1-1.7,0.4c-0.3,0.2-0.6,0.4-0.8,0.6c0.9,0.8,1.9,1.5,3.1,2c1.3,0.5,2.6,0.8,4,0.8
	c1.4,0,2.7-0.3,4-0.8c0.8-0.3,1.5-0.8,2.2-1.3c-0.1-0.1-0.1-0.2-0.2-0.3C31.3,28.7,30.9,28.3,30.4,28z M31.7,29.5
	c-0.7,0.5-1.4,0.9-2.2,1.3c-1.3,0.5-2.6,0.8-4,0.8c-1.4,0-2.7-0.3-4-0.8c-1.2-0.5-2.2-1.2-3.1-2c-0.1,0.1-0.3,0.3-0.4,0.5
	c-0.3,0.4-0.5,0.9-0.6,1.4c0.6,0.5,1.2,1,1.9,1.4c1.9,1.1,4,1.7,6.2,1.7c2.2,0,4.3-0.6,6.2-1.7c0.3-0.2,0.5-0.3,0.7-0.5
	c-0.1-0.2-0.1-0.4-0.2-0.7C32.1,30.3,31.9,29.8,31.7,29.5z M15.2,21.2c0-1.4,0.3-2.7,0.8-4c0.5-1.1,1.1-2,1.8-2.8c0,0,0,0,0-0.1
	c-0.3-0.5-0.7-0.8-1.2-1.1c-0.1-0.1-0.2-0.1-0.4-0.2c-0.5,0.6-1,1.2-1.4,1.9c-1.1,1.9-1.7,4-1.7,6.2c0,0.7,0.1,1.3,0.2,2h2.1
	C15.3,22.6,15.2,21.9,15.2,21.2z M18.4,28.7c-0.1-0.1-0.1-0.1-0.2-0.1c-0.9-0.9-1.7-2-2.2-3.3c-0.3-0.7-0.5-1.3-0.6-2h-2.1
	c0.2,1.5,0.7,2.9,1.5,4.2c0.7,1.2,1.6,2.2,2.6,3.1c0.2-0.5,0.4-1,0.6-1.4C18.1,29,18.3,28.8,18.4,28.7z M25.5,33.6
	c-2.2,0-4.3-0.6-6.2-1.7c-0.7-0.4-1.3-0.9-1.9-1.4c0,0.1-0.1,0.2-0.1,0.3c-0.2,0.6-0.3,1.3-0.4,1.9s-0.1,1.3-0.1,2
	c0,0.9,0.3,1.7,0.8,2.3s1.1,1,1.9,1h10.7c0.7,0,1.4-0.3,1.9-1s0.8-1.4,0.8-2.3c0-0.7,0-1.4-0.1-2c0-0.4-0.1-0.8-0.2-1.2
	c-0.2,0.2-0.5,0.3-0.7,0.5C29.8,33.1,27.8,33.6,25.5,33.6z M35.8,21.2c0,1.4-0.3,2.7-0.8,4s-1.3,2.4-2.2,3.3
	c-0.3,0.3-0.7,0.6-1.1,0.9c0.2,0.4,0.4,0.8,0.6,1.3c0.1,0.2,0.1,0.4,0.2,0.7c1.5-1,2.8-2.4,3.8-4c1.1-1.9,1.7-4,1.7-6.2
	c0-0.3,0-0.7,0-1h-2.1C35.8,20.6,35.8,20.9,35.8,21.2z M25.5,8.9c-2.2,0-4.3,0.6-6.2,1.7c-1.2,0.7-2.2,1.6-3.1,2.6
	c0.1,0.1,0.3,0.1,0.4,0.2c0.5,0.3,0.9,0.7,1.2,1.1c0,0,0,0,0,0.1c0.1-0.2,0.3-0.3,0.4-0.5c0.9-0.9,2-1.7,3.3-2.2
	c1.3-0.5,2.6-0.8,4-0.8c0.4,0,0.8,0,1.2,0.1V9C26.3,8.9,25.9,8.9,25.5,8.9z"/>
<path d="M28.3,13.8c-0.1-0.1-0.2-0.3-0.2-0.4v-1.2c0-0.2,0.1-0.3,0.2-0.4s0.3-0.2,0.4-0.2H33V7.3C33,7.1,33,7,33.2,6.9
	s0.3-0.2,0.4-0.2h1.2c0.2,0,0.3,0.1,0.4,0.2s0.2,0.3,0.2,0.4v4.3h4.3c0.2,0,0.3,0.1,0.4,0.2s0.2,0.3,0.2,0.4v1.2
	c0,0.2-0.1,0.3-0.2,0.4S39.8,14,39.7,14h-4.3v4.3c0,0.2-0.1,0.3-0.2,0.4s-0.3,0.2-0.4,0.2h-1.2c-0.2,0-0.3-0.1-0.4-0.2
	S33,18.4,33,18.2V14h-4.3C28.6,14,28.4,13.9,28.3,13.8z"/>
</svg>
