<?xml version="1.0" encoding="utf-8"?>
<!-- Generator: Adobe Illustrator 27.1.0, SVG Export Plug-In . SVG Version: 6.00 Build 0)  -->
<svg version="1.1" id="Ebene_1" xmlns="http://www.w3.org/2000/svg" xmlns:xlink="http://www.w3.org/1999/xlink" x="0px" y="0px"
	 viewBox="0 0 42.5 42.5" style="enable-background:new 0 0 42.5 42.5;" xml:space="preserve">
<path id="Moon_00000148653916767090882780000000593619100848424881_" d="M37.3,27.3c-1.4,3-3.5,5.4-6.3,7.2
	c-2.8,1.8-5.9,2.7-9.2,2.7c-2.3,0-4.5-0.5-6.6-1.4c-2.1-0.9-3.9-2.1-5.4-3.6S7,28.9,6.1,26.8s-1.4-4.3-1.4-6.6
	c0-2.3,0.4-4.4,1.3-6.5s2-3.9,3.5-5.4s3.2-2.7,5.2-3.7s4.2-1.4,6.4-1.5c0.7,0,1.1,0.3,1.4,0.9c0.3,0.6,0.2,1.1-0.3,1.6
	c-1.3,1.2-2.2,2.5-2.9,4s-1,3.1-1,4.9c0,2.2,0.5,4.2,1.6,6.1s2.5,3.3,4.4,4.4c1.9,1.1,3.9,1.6,6.1,1.6c1.7,0,3.4-0.4,5.1-1.1
	c0.6-0.3,1.1-0.2,1.6,0.3c0.2,0.2,0.3,0.5,0.4,0.8C37.4,26.8,37.4,27.1,37.3,27.3z"/>
</svg>
