<?xml version="1.0" encoding="utf-8"?>
<!-- Generator: Adobe Illustrator 21.1.0, SVG Export Plug-In . SVG Version: 6.00 Build 0)  -->
<svg version="1.1" id="Ebene_1" xmlns="http://www.w3.org/2000/svg" xmlns:xlink="http://www.w3.org/1999/xlink" x="0px" y="0px"
	 viewBox="0 0 42.5 42.5" style="enable-background:new 0 0 42.5 42.5;" xml:space="preserve">
<path d="M34.6,11.2c0.4,0.4,0.7,0.8,0.9,1.4c0.3,0.6,0.4,1.2,0.4,1.7v21.9c0,0.5-0.2,0.9-0.5,1.3S34.6,38,34.1,38H8.6
	c-0.5,0-0.9-0.2-1.3-0.5c-0.4-0.4-0.5-0.8-0.5-1.3V5.8c0-0.5,0.2-0.9,0.5-1.3C7.6,4.2,8.1,4,8.6,4h17c0.5,0,1.1,0.1,1.7,0.4
	s1.1,0.6,1.4,0.9L34.6,11.2z M26.2,6.6v7.1h7.1c-0.1-0.4-0.3-0.6-0.4-0.8L27,7C26.8,6.8,26.5,6.7,26.2,6.6z M33.5,35.6V16.2h-7.9
	c-0.5,0-0.9-0.2-1.3-0.5s-0.5-0.8-0.5-1.3v-8H9.2v29.2C9.2,35.6,33.5,35.6,33.5,35.6z M14.2,23.3l0.9-2.2h2l-1.7,3.6l1.7,3.8h-2
	l-0.9-2.3l-0.9,2.3h-2.1l1.7-3.8l-1.7-3.6h2L14.2,23.3z M19.9,21.2l0.1,0.7c0.4-0.5,1-0.8,1.7-0.8s1.3,0.3,1.6,1c0.4-0.7,1-1,1.8-1
	c1.3,0,1.9,0.9,2,2.7v4.8h-1.9v-4.7c0-0.4-0.1-0.7-0.2-0.9s-0.3-0.3-0.6-0.3c-0.4,0-0.6,0.2-0.8,0.7v0.2v5h-1.9v-4.7
	c0-0.4-0.1-0.7-0.2-0.9c-0.1-0.2-0.3-0.3-0.6-0.3c-0.3,0-0.6,0.2-0.8,0.5v5.3h-1.9v-7.4L19.9,21.2L19.9,21.2z M30.4,28.5h-1.9V18.1
	h1.9V28.5z"/>
</svg>
