<?xml version="1.0" encoding="utf-8"?>
<!-- Generator: Adobe Illustrator 21.1.0, SVG Export Plug-In . SVG Version: 6.00 Build 0)  -->
<svg version="1.1" id="Ebene_1" xmlns="http://www.w3.org/2000/svg" xmlns:xlink="http://www.w3.org/1999/xlink" x="0px" y="0px"
	 viewBox="0 0 42.5 42.5" style="enable-background:new 0 0 42.5 42.5;" xml:space="preserve">
<path d="M33.8,35.6H9.5V6.4h14.6v7.9c0,0.5,0.2,0.9,0.5,1.3c0.4,0.4,0.8,0.5,1.3,0.5h7.9v16.9h2.4V14.3c0-0.5-0.1-1.1-0.4-1.7
	c-0.3-0.6-0.6-1.1-0.9-1.4L29,5.3c-0.4-0.4-0.8-0.7-1.4-0.9C27,4.1,26.4,4,25.9,4h-17C8.4,4,7.9,4.2,7.6,4.5
	C7.2,4.9,7.1,5.3,7.1,5.8v30.4c0,0.5,0.2,0.9,0.5,1.3S8.4,38,8.9,38h25.5c0.5,0,0.9-0.2,1.3-0.5s0.5-0.8,0.5-1.3v-3.1h-2.4V35.6z
	 M26.5,6.6c0.4,0.1,0.6,0.3,0.8,0.4l5.9,5.9c0.2,0.2,0.3,0.4,0.4,0.8h-7.1V6.6z"/>
<path d="M29.4,25.5c0-1.3-0.3-2.5-1-3.6s-1.5-2-2.6-2.6c-1.1-0.7-2.3-1-3.6-1s-2.5,0.3-3.6,1s-2,1.5-2.6,2.6c-0.7,1.1-1,2.3-1,3.6
	s0.3,2.5,1,3.6c0.7,1.1,1.5,2,2.6,2.6s2.3,1,3.6,1s2.5-0.3,3.6-1c1.1-0.7,2-1.5,2.6-2.6C29.1,28.1,29.4,26.8,29.4,25.5z M30.7,25.5
	c0,1.5-0.4,3-1.1,4.3s-1.8,2.3-3.1,3.1c-1.3,0.8-2.7,1.1-4.3,1.1c-1.5,0-3-0.4-4.3-1.1c-1.3-0.8-2.3-1.8-3.1-3.1
	c-0.8-1.3-1.1-2.7-1.1-4.3s0.4-3,1.1-4.3c0.8-1.3,1.8-2.3,3.1-3.1c1.3-0.8,2.7-1.1,4.3-1.1c1.5,0,3,0.4,4.3,1.1
	c1.3,0.8,2.3,1.8,3.1,3.1S30.7,24,30.7,25.5z M26.3,27.2c-0.3-0.2-0.7-0.1-0.8,0.2c-0.6,1.4-1.8,2.2-3.1,2.2c-1.2,0-2.3-0.7-3-1.8
	h2.6c0.3,0,0.6-0.2,0.6-0.6c0-0.3-0.2-0.6-0.6-0.6H19c-0.1-0.3-0.1-0.7-0.1-1c0-0.3,0-0.6,0.1-0.9h3.1c0.3,0,0.6-0.2,0.6-0.6
	c0-0.3-0.2-0.6-0.6-0.6h-2.7c0.6-1.2,1.7-1.9,3-1.9c1.3,0,2.5,0.8,3.1,2.2c0.2,0.2,0.5,0.3,0.8,0.2c0.2-0.2,0.3-0.5,0.2-0.8
	c-0.8-1.8-2.4-2.8-4.1-2.8c-2,0-3.6,1.3-4.3,3.2h-1.3c-0.3,0-0.6,0.2-0.6,0.6c0,0.3,0.2,0.6,0.6,0.6h1c0,0.3-0.1,0.5-0.1,0.8
	c0,0.4,0,0.8,0.1,1.1h-1c-0.3,0-0.6,0.2-0.6,0.6c0,0.3,0.2,0.6,0.6,0.6h1.4c0.8,1.7,2.4,2.8,4.1,2.8c1.7,0,3.3-1,4.1-2.6
	C26.7,27.7,26.6,27.4,26.3,27.2L26.3,27.2z"/>
</svg>
