<?xml version="1.0" encoding="utf-8"?>
<!-- Generator: Adobe Illustrator 21.1.0, SVG Export Plug-In . SVG Version: 6.00 Build 0)  -->
<svg version="1.1" id="Ebene_1" xmlns="http://www.w3.org/2000/svg" xmlns:xlink="http://www.w3.org/1999/xlink" x="0px" y="0px"
	 viewBox="0 0 42.5 42.5" style="enable-background:new 0 0 42.5 42.5;" xml:space="preserve">
<path d="M28.8,35.6H4.5V6.4h14.6v7.9c0,0.5,0.2,0.9,0.5,1.3c0.4,0.4,0.8,0.5,1.3,0.5h7.9v2h2.4v-3.8c0-0.5-0.1-1.1-0.4-1.7
	c-0.3-0.6-0.6-1.1-0.9-1.4L24,5.3c-0.4-0.4-0.8-0.7-1.4-0.9C22,4.1,21.4,4,20.9,4h-17C3.4,4,2.9,4.2,2.6,4.5
	C2.2,4.9,2.1,5.3,2.1,5.8v30.4c0,0.5,0.2,0.9,0.5,1.3S3.4,38,3.9,38h25.5c0.5,0,0.9-0.2,1.3-0.5s0.5-0.8,0.5-1.3v-3.1h-2.4V35.6z
	 M21.5,6.6c0.4,0.1,0.6,0.3,0.8,0.4l5.9,5.9c0.2,0.2,0.3,0.4,0.4,0.8h-7.1V6.6z M40.9,25.3c0,0.3-0.1,0.5-0.3,0.7l-5.2,5.2
	c-0.2,0.2-0.4,0.3-0.7,0.3c-0.3,0-0.5-0.1-0.7-0.3l-0.6-0.6c-0.2-0.2-0.3-0.4-0.3-0.7s0.1-0.5,0.3-0.7l2.3-2.3H20.6
	c-0.3,0-0.5-0.1-0.7-0.3s-0.3-0.4-0.3-0.7v-1c0-0.3,0.1-0.5,0.3-0.7s0.4-0.3,0.7-0.3h15.2l-2.3-2.3c-0.2-0.2-0.3-0.4-0.3-0.7
	s0.1-0.5,0.3-0.7l0.6-0.6c0.2-0.2,0.4-0.3,0.7-0.3c0.3,0,0.5,0.1,0.7,0.3l5.2,5.2C40.8,24.7,40.9,25,40.9,25.3z"/>
</svg>
