<?xml version="1.0" encoding="utf-8"?>
<!-- Generator: Adobe Illustrator 23.1.1, SVG Export Plug-In . SVG Version: 6.00 Build 0)  -->
<svg version="1.1" id="Ebene_1" xmlns="http://www.w3.org/2000/svg" xmlns:xlink="http://www.w3.org/1999/xlink" x="0px" y="0px"
	 viewBox="0 0 42.5 42.5" style="enable-background:new 0 0 42.5 42.5;" xml:space="preserve">
<path d="M21.7,30.8h-1.4c-0.2,0-0.4-0.1-0.5-0.2s-0.2-0.3-0.2-0.5v-7.7h-7.7c-0.2,0-0.4-0.1-0.5-0.2s-0.2-0.3-0.2-0.5v-1.4
	c0-0.2,0.1-0.4,0.2-0.5c0.1-0.1,0.3-0.2,0.5-0.2h7.7v-7.7c0-0.2,0.1-0.4,0.2-0.5s0.3-0.2,0.5-0.2h1.4c0.2,0,0.4,0.1,0.5,0.2
	c0.1,0.1,0.2,0.3,0.2,0.5v7.7h7.7c0.2,0,0.4,0.1,0.5,0.2s0.2,0.3,0.2,0.5v1.4c0,0.2-0.1,0.4-0.2,0.5s-0.3,0.2-0.5,0.2h-7.7v7.7
	c0,0.2-0.1,0.4-0.2,0.5S21.9,30.8,21.7,30.8z"/>
</svg>
