<?xml version="1.0" encoding="utf-8"?>
<!-- Generator: Adobe Illustrator 21.1.0, SVG Export Plug-In . SVG Version: 6.00 Build 0)  -->
<svg version="1.1" id="Ebene_1" xmlns="http://www.w3.org/2000/svg" xmlns:xlink="http://www.w3.org/1999/xlink" x="0px" y="0px"
	 viewBox="0 0 42.5 42.5" style="enable-background:new 0 0 42.5 42.5;" xml:space="preserve">
<path d="M34.5,11.2c0.4,0.4,0.7,0.8,0.9,1.4c0.3,0.6,0.4,1.2,0.4,1.7v21.9c0,0.5-0.2,0.9-0.5,1.3S34.4,38,33.9,38H8.4
	c-0.5,0-0.9-0.2-1.3-0.5c-0.3-0.4-0.5-0.8-0.5-1.3V5.8c0-0.5,0.2-0.9,0.5-1.3C7.5,4.2,7.9,4,8.4,4h17c0.5,0,1.1,0.1,1.7,0.4
	s1.1,0.6,1.4,0.9L34.5,11.2z M26,6.6v7.1h7.1c-0.1-0.4-0.3-0.6-0.4-0.8L26.8,7C26.7,6.8,26.4,6.7,26,6.6z M33.3,35.6V16.2h-7.9
	c-0.5,0-0.9-0.2-1.3-0.5c-0.4-0.4-0.5-0.8-0.5-1.3v-8H9v29.2C9,35.6,33.3,35.6,33.3,35.6z"/>
<path id="Text" d="M18.3,26h-3.2l-0.6,2.4H12l3.6-11.8h2.2l3.7,11.8H19L18.3,26z M15.6,24h2.2l-1.1-4.2L15.6,24z M26.6,28.4
	c-0.1-0.1-0.1-0.4-0.2-0.7c-0.4,0.6-1,0.8-1.7,0.8s-1.3-0.2-1.8-0.7s-0.7-1.1-0.7-1.9c0-0.9,0.3-1.6,0.9-2.1s1.4-0.8,2.5-0.8h0.7
	v-0.7c0-0.4-0.1-0.7-0.2-0.8c-0.1-0.2-0.3-0.2-0.6-0.2c-0.6,0-0.9,0.3-0.9,1h-2.3c0-0.8,0.3-1.5,0.9-2s1.4-0.8,2.3-0.8
	c1,0,1.7,0.2,2.2,0.7s0.8,1.2,0.8,2.1v4.1c0,0.8,0.1,1.3,0.3,1.8v0.1h-2.2V28.4z M25.2,26.8c0.3,0,0.5-0.1,0.6-0.2s0.3-0.2,0.4-0.4
	v-1.8h-0.5c-0.4,0-0.7,0.1-0.9,0.4c-0.2,0.2-0.3,0.6-0.3,1C24.5,26.4,24.7,26.8,25.2,26.8z"/>
</svg>
