<?xml version="1.0" encoding="utf-8"?>
<!-- Generator: Adobe Illustrator 23.0.1, SVG Export Plug-In . SVG Version: 6.00 Build 0)  -->
<svg version="1.1" id="Ebene_1" xmlns="http://www.w3.org/2000/svg" xmlns:xlink="http://www.w3.org/1999/xlink" x="0px" y="0px"
	 viewBox="0 0 42.52 42.52" style="enable-background:new 0 0 42.52 42.52;" xml:space="preserve">
<path d="M29.78,21.58v-6.1l-7.09-3.91V8.04h2.63V6h-2.63V4h-2.82v2h-2.63v2.04h2.63v3.54l-7.09,3.91v6.1L2.13,24.61v12.64h38.31
	V24.61L29.78,21.58z M23.53,35.21h-4.5V29.4c0-0.73,0.67-1.35,1.6-1.56c0.14-0.03,0.28-0.05,0.43-0.06
	c0.07-0.01,0.15-0.01,0.23-0.01c0.31,0,0.61,0.05,0.88,0.13c0.81,0.25,1.38,0.83,1.38,1.5V35.21z M37.32,35.21h-3.76v-5.38h-3.31
	v5.38h-3.9v-6.38c0-2.02-2.27-3.66-5.07-3.66s-5.07,1.64-5.07,3.66v6.38h-3.99v-5.38H8.92v5.38H5.15v-8.15l10.44-2.69v-7.04
	l5.69-2.97l5.69,2.97v6.49l10.35,2.79V35.21z M37.62,35.21 M23.53,22.39h-4.5v-2.7c0-0.73,0.67-1.35,1.6-1.56
	c0.14-0.03,0.28-0.05,0.43-0.06c0.07-0.01,0.15-0.01,0.23-0.01c0.31,0,0.61,0.05,0.88,0.13c0.81,0.25,1.38,0.83,1.38,1.5V22.39z"/>
</svg>
