<?xml version="1.0" encoding="utf-8"?>
<!-- Generator: Adobe Illustrator 21.1.0, SVG Export Plug-In . SVG Version: 6.00 Build 0)  -->
<svg version="1.1" id="Ebene_1" xmlns="http://www.w3.org/2000/svg" xmlns:xlink="http://www.w3.org/1999/xlink" x="0px" y="0px"
	 viewBox="0 0 42.5 42.5" style="enable-background:new 0 0 42.5 42.5;" xml:space="preserve">
<path d="M26.6,33.4c0.1,0.1,0.2,0.2,0.2,0.4v1.1c0,0.2-0.1,0.3-0.2,0.4c-0.1,0.1-0.3,0.1-0.4,0.1H15.6c-0.2,0-0.3,0-0.4-0.1
	S15,35,15,34.8v-1.1c0-0.2,0.1-0.3,0.2-0.4s0.3-0.1,0.4-0.1h10.6C26.4,33.2,26.5,33.3,26.6,33.4z M39.8,9.6v20
	c0,0.7-0.3,1.3-0.9,1.9c-0.6,0.5-1.3,0.8-2.1,0.8H5c-0.8,0-1.5-0.3-2.1-0.8C2.3,30.9,2,30.3,2,29.6v-20c0-0.7,0.3-1.3,0.9-1.9
	C3.4,7.3,4.1,7,5,7h31.9c0.8,0,1.5,0.3,2.1,0.8C39.5,8.3,39.8,8.9,39.8,9.6z M15.6,14.3C15.6,14.2,15.6,14.2,15.6,14.3
	c0-0.1,0-0.2-0.1-0.3l-0.7-0.6c-0.1-0.1-0.2-0.1-0.3-0.1s-0.2,0-0.3,0.1l-6.7,6c-0.1,0.1-0.1,0.2-0.1,0.3c0,0,0,0,0,0c0,0,0,0,0,0
	c0,0.1,0,0.2,0.1,0.3l6.7,6c0.1,0.1,0.2,0.1,0.3,0.1s0.2,0,0.3-0.1l0.7-0.6c0.1-0.1,0.1-0.2,0.1-0.3c0,0,0,0,0,0c0,0,0,0,0,0
	c0-0.1,0-0.2-0.1-0.3l-5.7-5l5.7-5C15.5,14.5,15.6,14.4,15.6,14.3C15.6,14.3,15.6,14.3,15.6,14.3z M24,11.4c0-0.1,0-0.1-0.1-0.2
	c-0.1-0.1-0.2-0.2-0.3-0.2l-0.9-0.2c-0.1,0-0.2,0-0.3,0c-0.1,0.1-0.2,0.1-0.2,0.3l-5.4,16.6c0,0.1,0,0.1,0,0.2c0,0.1,0,0.1,0.1,0.2
	c0.1,0.1,0.2,0.2,0.3,0.2l0.9,0.2c0.1,0,0.2,0,0.3,0c0.1-0.1,0.2-0.1,0.2-0.3l5.4-16.6C24,11.5,24,11.4,24,11.4z M33.6,19.6
	C33.6,19.6,33.6,19.6,33.6,19.6c0-0.1,0-0.2-0.1-0.3l-6.7-6c-0.1-0.1-0.2-0.1-0.3-0.1c-0.1,0-0.2,0-0.3,0.1l-0.7,0.6
	c-0.1,0.1-0.1,0.2-0.1,0.3c0,0,0,0,0,0c0,0,0,0,0,0c0,0.1,0,0.2,0.1,0.3l5.7,5l-5.7,5c-0.1,0.1-0.1,0.2-0.1,0.3c0,0,0,0,0,0
	c0,0,0,0,0,0c0,0.1,0,0.2,0.1,0.3l0.7,0.6c0.1,0.1,0.2,0.1,0.3,0.1c0.1,0,0.2,0,0.3-0.1l6.7-6C33.5,19.8,33.6,19.7,33.6,19.6
	C33.6,19.6,33.6,19.6,33.6,19.6z"/>
</svg>
