<?xml version="1.0" encoding="utf-8"?>
<!-- Generator: Adobe Illustrator 21.1.0, SVG Export Plug-In . SVG Version: 6.00 Build 0)  -->
<svg version="1.1" id="Ebene_1" xmlns="http://www.w3.org/2000/svg" xmlns:xlink="http://www.w3.org/1999/xlink" x="0px" y="0px"
	 viewBox="0 0 42.5 42.5" style="enable-background:new 0 0 42.5 42.5;" xml:space="preserve">
<path d="M31.9,9.6c-0.5-0.5-1.1-0.7-1.7-0.7h-2.4V7c0-0.8-0.3-1.6-0.9-2.1C26.2,4.3,25.5,4,24.7,4h-1.2c-0.8,0-1.6,0.3-2.1,0.9
	S20.4,6.2,20.4,7v1.8h-7.3V7c0-0.8-0.3-1.6-0.9-2.1C11.7,4.3,10.9,4,10.1,4H8.9C8.1,4,7.3,4.3,6.8,4.9C6.2,5.5,5.9,6.2,5.9,7v1.8
	H3.4c-0.7,0-1.2,0.2-1.7,0.7S1,10.6,1,11.3v24.3c0,0.7,0.2,1.2,0.7,1.7C2.2,37.8,2.8,38,3.4,38h26.7c0.7,0,1.2-0.2,1.7-0.7
	c0.5-0.5,0.7-1.1,0.7-1.7l0-5.9c-11.7,0.1-10.9,0.1-12.1,0.1c-0.6,0-1.6,0.2-1.6-1.6s0-3.4,0-4.3c0-0.9,0.5-1.3,1.4-1.3
	s12.4,0,12.4,0V11.3C32.6,10.6,32.3,10.1,31.9,9.6z M10.7,12.5c0,0.2-0.1,0.3-0.2,0.4s-0.3,0.2-0.4,0.2H8.9c-0.2,0-0.3-0.1-0.4-0.2
	s-0.2-0.3-0.2-0.4V7c0-0.2,0.1-0.3,0.2-0.4s0.3-0.2,0.4-0.2h1.2c0.2,0,0.3,0.1,0.4,0.2s0.2,0.3,0.2,0.4V12.5z M25.3,12.5
	c0,0.2-0.1,0.3-0.2,0.4s-0.3,0.2-0.4,0.2h-1.2c-0.2,0-0.3-0.1-0.4-0.2s-0.2-0.3-0.2-0.4V7c0-0.2,0.1-0.3,0.2-0.4s0.3-0.2,0.4-0.2
	h1.2c0.2,0,0.3,0.1,0.4,0.2s0.2,0.3,0.2,0.4V12.5z M41.6,26.1c0,0.3-0.1,0.5-0.3,0.7L36.1,32c-0.2,0.2-0.4,0.3-0.7,0.3
	c-0.3,0-0.5-0.1-0.7-0.3l-0.6-0.6c-0.2-0.2-0.3-0.4-0.3-0.7s0.1-0.5,0.3-0.7l2.3-2.3H21.3c-0.3,0-0.5-0.1-0.7-0.3s-0.3-0.4-0.3-0.7
	v-1c0-0.3,0.1-0.5,0.3-0.7s0.4-0.3,0.7-0.3h15.2l-2.3-2.3c-0.2-0.2-0.3-0.4-0.3-0.7s0.1-0.5,0.3-0.7l0.6-0.6
	c0.2-0.2,0.4-0.3,0.7-0.3c0.3,0,0.5,0.1,0.7,0.3l5.2,5.2C41.5,25.6,41.6,25.8,41.6,26.1z M12,34.1H4.8v-5.2H12V34.1z M12,27.8H4.8
	v-5.2H12V27.8z M12,21.6H4.8v-5.2H12V21.6z M20.4,21.6h-7.2v-5.2h7.2V21.6z"/>
</svg>
