<?xml version="1.0" encoding="utf-8"?>
<!-- Generator: Adobe Illustrator 21.1.0, SVG Export Plug-In . SVG Version: 6.00 Build 0)  -->
<svg version="1.1" id="Ebene_1" xmlns="http://www.w3.org/2000/svg" xmlns:xlink="http://www.w3.org/1999/xlink" x="0px" y="0px"
	 viewBox="0 0 42.5 42.5" style="enable-background:new 0 0 42.5 42.5;" xml:space="preserve">
<path d="M9.4,15.1c-0.2-0.2-0.4-0.5-0.7-0.9c-0.2-0.4-0.4-0.7-0.5-1C8,12.8,8,12,8.3,10.9c0.3-1,0.8-1.9,1.4-2.5
	c0.2-0.2,0.4-0.4,0.6-0.5s0.5-0.3,0.7-0.5s0.5-0.3,0.6-0.3c0.1-0.1,0.4-0.2,0.8-0.4c0.4-0.2,0.6-0.3,0.7-0.3C14.2,6,15.1,5.6,16,5.4
	C17.4,5.1,19.1,5,21.1,5s3.6,0.2,5.1,0.6c0.9,0.2,1.8,0.6,2.8,1c0.1,0,0.3,0.2,0.7,0.3c0.4,0.2,0.7,0.3,0.8,0.4
	c0.1,0.1,0.4,0.2,0.7,0.4s0.5,0.3,0.8,0.5c0.2,0.2,0.4,0.3,0.6,0.5c0.7,0.7,1.1,1.5,1.5,2.5c0.3,1.1,0.4,1.9,0.2,2.4
	c-0.1,0.3-0.3,0.6-0.5,0.9c-0.2,0.4-0.4,0.7-0.6,0.8c-0.1,0.1-0.2,0.2-0.3,0.2c-0.2,0.1-0.6,0-1.4-0.3c-0.2-0.1-0.5-0.1-0.9-0.3
	c-0.4-0.1-0.7-0.2-1.1-0.3c-0.3-0.1-0.6-0.2-0.9-0.3c0,0-0.2,0-0.5-0.1s-0.5-0.1-0.6-0.2c-0.2-0.1-0.3-0.1-0.4-0.2
	c-0.1-0.1-0.2-0.4-0.2-0.8c0-0.4,0-0.8,0.1-1.2c0.1-0.4,0.1-0.8,0.1-1.2c0-0.4-0.1-0.7-0.2-0.8c-0.1-0.1-0.2-0.1-0.3-0.2
	c-0.1-0.1-0.2-0.1-0.3-0.1c-0.1,0-0.2-0.1-0.4-0.1c-0.2,0-0.3-0.1-0.3-0.1c-1.5-0.5-3-0.7-4.4-0.7c-1.4,0-2.8,0.2-4.3,0.6
	c0,0-0.1,0-0.3,0.1s-0.3,0.1-0.4,0.1c-0.1,0-0.2,0.1-0.3,0.1c-0.1,0.1-0.2,0.1-0.3,0.2c-0.1,0.1-0.2,0.4-0.2,0.8
	c0,0.4,0,0.8,0.1,1.2s0.1,0.8,0.1,1.2c0,0.4-0.1,0.7-0.2,0.8c-0.1,0.1-0.2,0.2-0.4,0.2s-0.4,0.1-0.6,0.1c-0.3,0-0.4,0.1-0.5,0.1
	c-0.3,0.1-0.6,0.1-0.9,0.2s-0.7,0.2-1,0.3s-0.7,0.2-0.9,0.2c-0.7,0.2-1.2,0.3-1.4,0.2C9.6,15.3,9.5,15.2,9.4,15.1z M13.6,16.3
	c-1.7,0-3,1.4-3,3s1.4,3,3,3s3-1.4,3-3S15.3,16.3,13.6,16.3z M28.7,16.3c-1.7,0-3,1.4-3,3s1.4,3,3,3c1.7,0,3-1.4,3-3
	S30.4,16.3,28.7,16.3z M21.2,16.3c-1.7,0-3,1.4-3,3s1.4,3,3,3c1.7,0,3-1.4,3-3S22.8,16.3,21.2,16.3z M13.6,23.8c-1.7,0-3,1.4-3,3
	c0,1.7,1.4,3,3,3s3-1.4,3-3C16.6,25.1,15.3,23.8,13.6,23.8z M28.7,23.8c-1.7,0-3,1.4-3,3c0,1.7,1.4,3,3,3c1.7,0,3-1.4,3-3
	C31.7,25.1,30.4,23.8,28.7,23.8z M21.2,23.8c-1.7,0-3,1.4-3,3c0,1.7,1.4,3,3,3c1.7,0,3-1.4,3-3C24.2,25.1,22.8,23.8,21.2,23.8z
	 M13.6,31c-1.7,0-3,1.4-3,3c0,1.7,1.4,3,3,3s3-1.4,3-3C16.6,32.4,15.3,31,13.6,31z M28.7,31c-1.7,0-3,1.4-3,3c0,1.7,1.4,3,3,3
	c1.7,0,3-1.4,3-3C31.7,32.4,30.4,31,28.7,31z M21.2,31c-1.7,0-3,1.4-3,3c0,1.7,1.4,3,3,3c1.7,0,3-1.4,3-3C24.2,32.4,22.8,31,21.2,31
	z"/>
</svg>
