<?xml version="1.0" encoding="utf-8"?>
<!-- Generator: Adobe Illustrator 27.1.0, SVG Export Plug-In . SVG Version: 6.00 Build 0)  -->
<svg version="1.1" id="Ebene_1" xmlns="http://www.w3.org/2000/svg" xmlns:xlink="http://www.w3.org/1999/xlink" x="0px" y="0px"
	 viewBox="0 0 42.5 42.5" style="enable-background:new 0 0 42.5 42.5;" xml:space="preserve">
<style type="text/css">
	.scarf{fill:#39792c;}
	.st1{fill:#FFFFFF;}
</style>
<path d="M31.3,24.6c2.1,1.7,3.4,4.1,3.4,6.2V38h-3.2h-4.4H15.9h-4.4H8v-7.2c0-2,1.5-4.5,3.7-6.3c0,0,1.9-1.6,3.3-2
	c0.2-0.1,0.4-0.1,0.5-0.2c0.8,2.3,3.1,4.3,5.8,4.3c2.6,0,5.1-1.7,5.8-4.1l0.9,0.3C29.5,23.5,31.3,24.6,31.3,24.6z M14.1,17.5
	c1,3.4,3.7,7,7.3,7s6.3-3.6,7.3-7c0.9-0.3,1.6-1.2,1.9-2.4c0.4-1.6-0.2-3.1-1.3-3.5c0.1-0.4-0.3-2.1-0.5-2.5c-1.5-3.5-3-5.2-7.6-5.2
	s-6.7,3-7.8,5.9c-0.2,0.5-0.6,1.6-0.4,2.1c-0.8,0.6-1.2,1.9-0.9,3.2C12.4,16.3,13.2,17.2,14.1,17.5z"/>
<path class="scarf" d="M28,22.8L12.8,38h8.1l10.4-13.4C31.3,24.6,29.1,23.2,28,22.8z"/>
<polygon id="cross" class="st1" points="23.3,31.6 22.4,31.6 22.4,30.6 20.6,30.6 20.6,31.6 19.6,31.6 19.6,33.4 20.6,33.4 
	20.6,35.3 22.4,35.3 22.4,33.4 23.3,33.4 "/>
</svg>
