<?xml version="1.0" encoding="utf-8"?>
<!-- Generator: Adobe Illustrator 23.0.3, SVG Export Plug-In . SVG Version: 6.00 Build 0)  -->
<svg version="1.1" id="Ebene_1" xmlns="http://www.w3.org/2000/svg" xmlns:xlink="http://www.w3.org/1999/xlink" x="0px" y="0px"
	 viewBox="0 0 42.52 42.52" style="enable-background:new 0 0 42.52 42.52;" xml:space="preserve">
<style type="text/css">
	.st0{fill:#020203;}
</style>
<g id="gender">
	<path id="Icon_Zeiterfassung_15_" class="st0" d="M30.5,15.63c0-1.6-0.39-3.07-1.18-4.42S27.45,8.79,26.1,8
		c-1.35-0.79-2.83-1.18-4.42-1.18c-1.6,0-3.07,0.39-4.42,1.18c-1.35,0.79-2.42,1.86-3.21,3.21s-1.18,2.83-1.18,4.42
		s0.39,3.07,1.18,4.42c0.79,1.35,1.86,2.42,3.21,3.21c1.35,0.79,2.83,1.18,4.42,1.18c1.6,0,3.07-0.39,4.42-1.18
		c1.35-0.79,2.42-1.86,3.21-3.21C30.1,18.71,30.5,17.23,30.5,15.63z M32.95,15.63c0,2.04-0.5,3.93-1.51,5.66
		c-1.01,1.73-2.37,3.09-4.1,4.1c-1.73,1.01-3.61,1.51-5.66,1.51s-3.93-0.5-5.66-1.51s-3.09-2.37-4.1-4.1
		c-1.01-1.73-1.51-3.61-1.51-5.66s0.5-3.93,1.51-5.66s2.37-3.09,4.1-4.1s3.61-1.51,5.66-1.51s3.93,0.5,5.66,1.51
		c1.73,1.01,3.09,2.37,4.1,4.1C32.44,11.71,32.95,13.59,32.95,15.63z"/>
	<path class="st0" d="M22.54,38.32h-1.4c-0.2,0-0.37-0.07-0.5-0.2c-0.13-0.13-0.2-0.3-0.2-0.5v-3.51h-4.41c-0.2,0-0.37-0.07-0.5-0.2
		c-0.13-0.13-0.2-0.3-0.2-0.5v-1.4c0-0.2,0.07-0.37,0.2-0.5c0.13-0.13,0.3-0.2,0.5-0.2h4.41v-5.94c0-0.2,0.07-0.37,0.2-0.5
		c0.13-0.13,0.3-0.2,0.5-0.2h1.4c0.2,0,0.37,0.07,0.5,0.2c0.13,0.13,0.2,0.3,0.2,0.5v5.94h4.11c0.2,0,0.37,0.07,0.5,0.2
		s0.2,0.3,0.2,0.5v1.4c0,0.2-0.07,0.37-0.2,0.5c-0.13,0.13-0.3,0.2-0.5,0.2h-4.11v3.51c0,0.2-0.07,0.37-0.2,0.5
		C22.91,38.26,22.74,38.32,22.54,38.32z"/>
</g>
</svg>
