<?xml version="1.0" encoding="utf-8"?>
<!-- Generator: Adobe Illustrator 21.1.0, SVG Export Plug-In . SVG Version: 6.00 Build 0)  -->
<svg version="1.1" id="Ebene_1" xmlns="http://www.w3.org/2000/svg" xmlns:xlink="http://www.w3.org/1999/xlink" x="0px" y="0px"
	 viewBox="0 0 42.5 42.5" style="enable-background:new 0 0 42.5 42.5;" xml:space="preserve">
<path d="M29.3,32.9l1.4,2c-0.4,0.3-0.8,0.6-1.2,0.8C26.9,37.2,24.1,38,21,38c-3.1,0-5.9-0.8-8.5-2.3c-2.6-1.5-4.7-3.6-6.2-6.2
	S4,24.1,4,21c0-3.1,0.8-5.9,2.3-8.5c1.5-2.6,3.6-4.7,6.2-6.2C15,4.8,17.8,4.1,20.7,4v2.4c-2.5,0-4.9,0.7-7,1.9
	c-2.2,1.3-4,3.1-5.3,5.3c-1.3,2.2-2,4.7-2,7.3s0.7,5.1,2,7.3c1.3,2.2,3.1,4,5.3,5.3c2.2,1.3,4.7,2,7.3,2c2.6,0,5.1-0.7,7.3-2
	C28.7,33.4,29,33.2,29.3,32.9z M16.9,21.7h-0.5v-1.6l-1.3-0.2v1.8h-1.4l2.5-4.2h-1.5L12,21.9V23h3.1v1.5h1.3V23h0.5V21.7z
	 M21.9,18.6c-0.5-0.8-1.1-1.2-2-1.2c-0.9,0-1.6,0.4-2,1.2c-0.4,0.7-0.6,1.5-0.6,2.4c0,0.9,0.2,1.7,0.6,2.4c0.5,0.8,1.1,1.2,2,1.2
	c0.9,0,1.6-0.4,2-1.2c0.4-0.7,0.6-1.5,0.6-2.4C22.5,20,22.3,19.2,21.9,18.6z M19.9,23.2c-0.4,0-0.8-0.3-1-0.8
	c-0.1-0.4-0.2-0.8-0.2-1.4c0-0.6,0.1-1,0.2-1.4c0.2-0.5,0.5-0.8,1-0.8c0.4,0,0.7,0.3,0.9,0.8C21,20,21,20.5,21,21
	C21,22.5,20.7,23.2,19.9,23.2z M26.4,19.4c-0.2-0.3-0.5-0.5-1-0.5c-0.4,0-0.7,0.2-1,0.5c-0.2,0.3-0.3,0.6-0.3,1.1
	c0,0.4,0.1,0.8,0.3,1.1c0.2,0.3,0.5,0.5,1,0.5c0.4,0,0.7-0.2,1-0.5c0.2-0.3,0.3-0.6,0.3-1.1C26.7,20.1,26.6,19.7,26.4,19.4z
	 M25.5,21.3c-0.3,0-0.4-0.2-0.4-0.7c0-0.5,0.1-0.7,0.4-0.7c0.3,0,0.4,0.2,0.4,0.7C25.8,21,25.7,21.3,25.5,21.3z M27.8,19l-2.5,5.5h1
	l2.5-5.5H27.8z M29.7,21.9c-0.2-0.3-0.5-0.5-1-0.5c-0.4,0-0.7,0.2-1,0.5c-0.2,0.3-0.3,0.6-0.3,1.1c0,0.4,0.1,0.8,0.3,1.1
	c0.2,0.3,0.5,0.5,1,0.5c0.4,0,0.7-0.2,1-0.5c0.2-0.3,0.3-0.6,0.3-1.1C30,22.6,29.9,22.2,29.7,21.9z M28.7,23.8
	c-0.3,0-0.4-0.2-0.4-0.7c0-0.5,0.1-0.7,0.4-0.7c0.3,0,0.4,0.2,0.4,0.7C29.1,23.5,29,23.8,28.7,23.8z M36.7,27.7
	c0.2-0.4,0.3-0.7,0.4-1.1l-4.3-1.4c-0.1,0.2-0.2,0.5-0.3,0.7c-0.1,0.2-0.2,0.4-0.3,0.6c0,0,0,0,0,0c0,0.1-0.1,0.2-0.1,0.2
	c0,0,0,0,0,0.1c0,0.1-0.1,0.1-0.1,0.2c0,0,0,0.1-0.1,0.1c0,0-0.1,0.1-0.1,0.1c0,0-0.1,0.1-0.1,0.1c0,0,0,0.1-0.1,0.1
	c0,0.1-0.1,0.1-0.1,0.2c0,0,0,0,0,0.1c0,0.1-0.1,0.1-0.1,0.2c0,0,0,0,0,0c-0.1,0.2-0.3,0.4-0.4,0.6c-0.6,0.8-1.3,1.5-2,2.1
	c0,0-0.1,0.1-0.1,0.1c0,0,0,0-0.1,0c-0.1,0-0.1,0.1-0.2,0.1l2.6,3.6c0.6-0.5,1.2-1,1.8-1.6c0.3-0.3,0.6-0.6,0.8-0.9c0,0,0,0,0-0.1
	c0,0,0-0.1,0.1-0.1c0.7-0.8,1.3-1.6,1.8-2.5C36.1,28.9,36.4,28.3,36.7,27.7z M22.3,4c0,0,0.1,0,0.1,0c1.6,0.1,3.2,0.5,4.7,1.1
	c0,0,0,0,0,0c0.1,0,0.1,0,0.2,0.1c0,0,0.1,0,0.1,0.1c0,0,0.1,0,0.1,0c0.1,0,0.1,0.1,0.2,0.1c0,0,0,0,0,0c0.6,0.3,1.2,0.6,1.7,0.9
	c0.4,0.2,0.8,0.5,1.2,0.8l-2.6,3.6c0,0-0.1,0-0.1-0.1c0,0,0,0-0.1,0c0,0-0.1-0.1-0.1-0.1c0,0-0.1,0-0.1-0.1c0,0,0,0,0,0
	c-0.1-0.1-0.2-0.1-0.3-0.2c0,0,0,0,0,0c-0.5-0.3-1-0.5-1.5-0.7c-1-0.4-2.1-0.7-3.2-0.9c0,0-0.1,0-0.1,0c0,0,0,0,0,0
	c-0.4-0.1-0.8-0.1-1.3-0.1V4C21.6,4,22,4,22.3,4C22.3,4,22.3,4,22.3,4z M33,9c0.3,0.3,0.5,0.6,0.8,0.9c0,0,0,0.1,0.1,0.1
	c0,0,0,0,0.1,0.1c0.7,0.8,1.3,1.6,1.8,2.5c0.3,0.6,0.6,1.2,0.9,1.8c0.2,0.4,0.3,0.7,0.4,1.1l-4.3,1.4c-0.1-0.2-0.2-0.5-0.3-0.7
	c-0.1-0.2-0.2-0.4-0.3-0.6c0,0,0,0,0,0c0-0.1-0.1-0.2-0.1-0.2c0,0,0,0,0-0.1c0-0.1-0.1-0.1-0.1-0.2c0,0,0-0.1-0.1-0.1
	c0,0-0.1-0.1-0.1-0.1c0,0-0.1-0.1-0.1-0.1c0,0,0-0.1-0.1-0.1c0-0.1-0.1-0.1-0.1-0.2c0,0,0,0,0-0.1c0-0.1-0.1-0.1-0.1-0.2
	c0,0,0,0,0,0c-0.1-0.2-0.3-0.4-0.4-0.6c-0.6-0.8-1.3-1.5-2-2.1c0,0-0.1,0-0.1-0.1c0,0-0.1,0-0.1-0.1c-0.1,0-0.1-0.1-0.2-0.1l2.6-3.6
	C31.9,7.9,32.5,8.4,33,9z M38,21c0,0.7,0,1.4-0.1,2c-0.1,0.8-0.2,1.6-0.5,2.4c-0.1,0.2-0.1,0.4-0.2,0.6L33,24.6c0-0.1,0-0.1,0.1-0.2
	c0,0,0,0,0,0c0,0,0-0.1,0-0.1c0,0,0-0.1,0-0.1c0,0,0,0,0,0c0.1-0.5,0.2-1,0.3-1.6c0.1-0.4,0.1-0.9,0.1-1.3c0,0,0,0,0,0
	c0,0,0-0.1,0-0.1c0,0,0,0,0-0.1c0,0,0-0.1,0-0.1c0,0,0-0.1,0-0.1c0,0,0,0,0-0.1c0,0,0-0.1,0-0.1c0,0,0,0,0,0c0-0.4,0-0.9-0.1-1.3
	c-0.1-0.5-0.2-1-0.3-1.6c0,0,0,0,0,0c0,0,0-0.1,0-0.1c0,0,0-0.1,0-0.1c0,0,0,0,0,0c0-0.1,0-0.1-0.1-0.2l4.2-1.4
	c0.1,0.2,0.1,0.4,0.2,0.6c0.2,0.8,0.4,1.6,0.5,2.4C38,19.6,38,20.3,38,21z"/>
</svg>
