<?xml version="1.0" encoding="utf-8"?>
<svg version="1.1" id="Ebene_1" x="0px" y="0px" viewBox="0 0 42.5 42.5" style="enable-background:new 0 0 42.5 42.5;" xmlns="http://www.w3.org/2000/svg">
  <g>
    <path d="M 34.861 23.355 L 7.069 23.355 C 6.764 23.355 6.459 23.202 6.305 23.05 C 6.153 22.897 6 22.591 6 22.286 L 6 20.148 C 6 19.843 6.153 19.538 6.305 19.384 C 6.459 19.232 6.764 19.079 7.069 19.079 L 34.861 19.079 C 35.167 19.079 35.472 19.232 35.625 19.384 C 35.777 19.538 35.931 19.843 35.931 20.148 L 35.931 22.286 C 35.931 22.591 35.777 22.897 35.625 23.05 C 35.472 23.202 35.167 23.355 34.861 23.355 Z" style=""/>
    <path d="M 34.872 14.102 L 7.08 14.102 C 6.775 14.102 6.47 13.949 6.316 13.797 C 6.164 13.644 6.011 13.338 6.011 13.033 L 6.011 10.895 C 6.011 10.59 6.164 10.285 6.316 10.131 C 6.47 9.979 6.775 9.826 7.08 9.826 L 34.872 9.826 C 35.178 9.826 35.483 9.979 35.636 10.131 C 35.788 10.285 35.942 10.59 35.942 10.895 L 35.942 13.033 C 35.942 13.338 35.788 13.644 35.636 13.797 C 35.483 13.949 35.178 14.102 34.872 14.102 Z" style=""/>
    <path d="M 34.861 32.895 L 7.069 32.895 C 6.764 32.895 6.459 32.742 6.305 32.59 C 6.153 32.437 6 32.131 6 31.826 L 6 29.688 C 6 29.383 6.153 29.078 6.305 28.924 C 6.459 28.772 6.764 28.619 7.069 28.619 L 34.861 28.619 C 35.167 28.619 35.472 28.772 35.625 28.924 C 35.777 29.078 35.931 29.383 35.931 29.688 L 35.931 31.826 C 35.931 32.131 35.777 32.437 35.625 32.59 C 35.472 32.742 35.167 32.895 34.861 32.895 Z" style=""/>
  </g>
</svg>