<?xml version="1.0" encoding="utf-8"?>
<!-- Generator: Adobe Illustrator 21.1.0, SVG Export Plug-In . SVG Version: 6.00 Build 0)  -->
<svg version="1.1" id="Ebene_1" xmlns="http://www.w3.org/2000/svg" xmlns:xlink="http://www.w3.org/1999/xlink" x="0px" y="0px"
	 viewBox="0 0 42.5 42.5" style="enable-background:new 0 0 42.5 42.5;" xml:space="preserve">
<path d="M39.5,7.9c-0.3-0.3-0.7-0.5-1.2-0.5h-9.9V5.6c0-0.5-0.2-0.8-0.5-1.2S27.3,4,26.9,4H11.5c-0.5,0-1,0.1-1.5,0.3
	C9.5,4.6,9,4.8,8.7,5.2l-5.3,5.3c-0.3,0.3-0.6,0.8-0.8,1.3c-0.2,0.5-0.3,1-0.3,1.5V33c0,0.5,0.2,0.8,0.5,1.2s0.7,0.5,1.2,0.5h9.9
	v1.7c0,0.5,0.2,0.8,0.5,1.2s0.7,0.5,1.2,0.5h23c0.5,0,0.8-0.2,1.2-0.5s0.5-0.7,0.5-1.2V9C40,8.6,39.8,8.2,39.5,7.9z M4.9,12.1
	l5.4-5.4c0.1-0.1,0.4-0.3,0.7-0.4v6.4H4.5C4.7,12.4,4.8,12.2,4.9,12.1z M14.9,13.9c-0.3,0.3-0.6,0.8-0.8,1.3c-0.2,0.5-0.3,1-0.3,1.5
	v15.8H4.4V15h7.1c0.5,0,0.8-0.2,1.2-0.5s0.5-0.7,0.5-1.2V6.2h13.1v1.2H23c-0.5,0-1,0.1-1.5,0.3c-0.5,0.2-1,0.5-1.3,0.8L14.9,13.9z
	 M22.5,9.7v6.4h-6.4c0.1-0.3,0.2-0.6,0.4-0.7l5.4-5.4C22,9.9,22.2,9.8,22.5,9.7z M37.9,35.8H15.9V18.3h7.1c0.5,0,0.8-0.2,1.2-0.5
	s0.5-0.7,0.5-1.2V9.5h13.1V35.8z"/>
<path d="M22.4,23.1c0-0.2,0.1-0.3,0.2-0.4l0.9-0.9c0.1-0.1,0.3-0.2,0.4-0.2c0.2,0,0.3,0.1,0.4,0.2l3,3l3-3c0.1-0.1,0.3-0.2,0.4-0.2
	c0.2,0,0.3,0.1,0.4,0.2l0.9,0.9c0.1,0.1,0.2,0.3,0.2,0.4c0,0.2-0.1,0.3-0.2,0.4l-3,3l3,3c0.1,0.1,0.2,0.3,0.2,0.4
	c0,0.2-0.1,0.3-0.2,0.4l-0.9,0.9c-0.1,0.1-0.3,0.2-0.4,0.2c-0.2,0-0.3-0.1-0.4-0.2l-3-3l-3,3c-0.1,0.1-0.3,0.2-0.4,0.2
	c-0.2,0-0.3-0.1-0.4-0.2l-0.9-0.9c-0.1-0.1-0.2-0.3-0.2-0.4c0-0.2,0.1-0.3,0.2-0.4l3-3l-3-3C22.5,23.4,22.4,23.3,22.4,23.1z"/>
</svg>
