<?xml version="1.0" encoding="utf-8"?>
<!-- Generator: Adobe Illustrator 23.0.1, SVG Export Plug-In . SVG Version: 6.00 Build 0)  -->
<svg version="1.1" id="Ebene_1" xmlns="http://www.w3.org/2000/svg" xmlns:xlink="http://www.w3.org/1999/xlink" x="0px" y="0px"
	 viewBox="0 0 42.52 42.52" style="enable-background:new 0 0 42.52 42.52;" xml:space="preserve">
<path id="path3098-5" d="M21.34,19.26L10.52,7.36c0.42-0.42,0.91-0.75,1.47-0.99C12.54,6.13,13.14,6,13.78,6
	c0.68,0.01,1.31,0.14,1.87,0.4c0.57,0.26,1.06,0.63,1.48,1.09l4.21,4.6l4.18-4.6c0.43-0.46,0.94-0.83,1.51-1.09
	c0.58-0.26,1.2-0.4,1.87-0.4c0.64,0,1.24,0.13,1.8,0.37c0.56,0.24,1.05,0.57,1.47,0.99L21.34,19.26"/>
<path id="path3198-1" d="M21.34,21.08l10.83,11.91c-0.42,0.42-0.91,0.75-1.47,0.99c-0.56,0.24-1.16,0.36-1.8,0.37
	c-0.68-0.01-1.31-0.14-1.87-0.4c-0.57-0.26-1.06-0.63-1.48-1.09l-4.21-4.6l-4.18,4.6c-0.43,0.46-0.94,0.83-1.51,1.09
	c-0.58,0.26-1.2,0.4-1.87,0.4c-0.64,0-1.24-0.13-1.8-0.37c-0.56-0.24-1.05-0.57-1.47-0.99L21.34,21.08"/>
<path id="path3278-4" d="M20.43,20.17L20.43,20.17l-8.15-8.94c-0.47-0.51-1.03-0.9-1.66-1.19C9.99,9.75,9.31,9.6,8.58,9.59
	C7.87,9.6,7.22,9.73,6.61,10C6,10.26,5.46,10.62,5,11.08l8.28,9.09L5,29.27c0.46,0.47,1,0.84,1.61,1.11
	c0.61,0.27,1.27,0.4,1.97,0.41c0.73-0.01,1.42-0.15,2.05-0.44c0.64-0.29,1.18-0.69,1.64-1.19L20.43,20.17"/>
<path id="path3280-5" d="M22.25,20.17L22.25,20.17l8.15-8.94c0.47-0.51,1.03-0.9,1.66-1.19c0.63-0.29,1.31-0.44,2.04-0.44
	c0.7,0.01,1.36,0.14,1.97,0.4c0.61,0.26,1.15,0.62,1.61,1.08l-8.28,9.09l8.28,9.09c-0.46,0.47-1,0.84-1.61,1.11
	c-0.61,0.27-1.27,0.4-1.97,0.41c-0.73-0.01-1.42-0.15-2.05-0.44c-0.64-0.29-1.18-0.69-1.64-1.19L22.25,20.17"/>
</svg>
