<?xml version="1.0" encoding="utf-8"?>
<!-- Generator: Adobe Illustrator 21.1.0, SVG Export Plug-In . SVG Version: 6.00 Build 0)  -->
<svg version="1.1" id="Ebene_1" xmlns="http://www.w3.org/2000/svg" xmlns:xlink="http://www.w3.org/1999/xlink" x="0px" y="0px"
	 viewBox="0 0 42.5 42.5" style="enable-background:new 0 0 42.5 42.5;" xml:space="preserve">
<path d="M38,21c0,3.1-0.8,5.9-2.3,8.5c-1.5,2.6-3.6,4.7-6.2,6.2C26.9,37.2,24.1,38,21,38c-3.1,0-5.9-0.8-8.5-2.3
	c-2.6-1.5-4.7-3.6-6.2-6.2S4,24.1,4,21c0-3.1,0.8-5.9,2.3-8.5s3.6-4.7,6.2-6.2S17.9,4,21,4c3.1,0,5.9,0.8,8.5,2.3s4.7,3.6,6.2,6.2
	C37.2,15.1,38,17.9,38,21z M29.2,24.4c-0.7-0.5-1.4-0.2-1.6,0.5c-1.1,2.7-3.6,4.3-6.1,4.3c-2.5,0-4.7-1.4-5.9-3.6h5.3
	c0.7,0,1.1-0.5,1.1-1.1c0-0.7-0.5-1.1-1.1-1.1h-6.1c-0.1-0.7-0.3-1.3-0.3-2c0-0.6,0.1-1.2,0.2-1.8h6.2c0.7,0,1.1-0.5,1.1-1.1
	c0-0.7-0.5-1.1-1.1-1.1h-5.4c1.2-2.3,3.5-3.9,6.1-3.9c2.5,0,5,1.6,6.1,4.3c0.5,0.5,0.9,0.7,1.6,0.5c0.5-0.5,0.7-0.9,0.5-1.6
	c-1.6-3.6-4.8-5.7-8.2-5.7c-4,0-7.3,2.6-8.7,6.4h-2.5c-0.7,0-1.1,0.5-1.1,1.1c0,0.7,0.5,1.1,1.1,1.1h2c-0.1,0.5-0.1,1-0.1,1.6
	c0,0.8,0.1,1.5,0.3,2.3h-2.1c-0.7,0-1.1,0.5-1.1,1.1c0,0.7,0.5,1.1,1.1,1.1h2.9c1.6,3.4,4.7,5.7,8.3,5.7c3.4,0,6.6-2,8.2-5.2
	C30.1,25.3,29.9,24.6,29.2,24.4L29.2,24.4z"/>
</svg>
