<?xml version="1.0" encoding="utf-8"?>
<svg version="1.1" id="Ebene_1" x="0px" y="0px" viewBox="0 0 42.5 42.5" style="enable-background:new 0 0 42.5 42.5;" xmlns="http://www.w3.org/2000/svg">
  <path d="M 28 7 C 27.7 7 27.5 7.1 27.3 7.3 L 22.1 12.5 C 21.9 12.7 21.8 12.9 21.8 13.2 C 21.8 13.5 21.9 13.7 22.1 13.9 L 22.7 14.5 C 22.9 14.7 23.1 14.8 23.4 14.8 C 23.7 14.8 23.9 14.7 24.1 14.5 L 26.4 12.2 L 26.4 34.2 C 26.4 34.5 26.5 34.7 26.7 34.9 C 26.9 35.1 27.1 35.2 27.4 35.2 L 28.4 35.2 C 28.7 35.2 28.9 35.1 29.1 34.9 C 29.3 34.7 29.4 34.5 29.4 34.2 L 29.4 12.2 L 31.7 14.5 C 31.9 14.7 32.1 14.8 32.4 14.8 C 32.7 14.8 32.9 14.7 33.1 14.5 L 33.7 13.9 C 33.9 13.7 34 13.5 34 13.2 C 34 12.9 33.9 12.7 33.7 12.5 L 28.5 7.3 C 28.6 7.1 28.3 7 28 7 Z"/>
</svg>