<?xml version="1.0" encoding="utf-8"?>
<!-- Generator: Adobe Illustrator 23.0.6, SVG Export Plug-In . SVG Version: 6.00 Build 0)  -->
<svg version="1.1" id="Ebene_1" xmlns="http://www.w3.org/2000/svg" xmlns:xlink="http://www.w3.org/1999/xlink" x="0px" y="0px"
	 viewBox="0 0 42.5 42.5" style="enable-background:new 0 0 42.5 42.5;" xml:space="preserve">
<style type="text/css">
	.st0{fill:#FFFFFF;}
	.st1{fill:#020203;}
</style>
<path class="st0" d="M21,27.9c-1,0-1.9,0.9-1.9,1.9c0,1,0.9,1.9,1.9,1.9s1.9-0.9,1.9-1.9C23,28.7,22.1,27.9,21,27.9L21,27.9z
	 M36.1,33.2c-0.7,1.1-1.8,1.8-3.2,1.8H9c-1.3,0-2.5-0.7-3.1-1.8c-0.7-1.1-0.7-2.5,0-3.6L17.8,8.8C18.6,7.7,19.7,7,21.1,7
	c1.3,0,2.5,0.7,3.1,1.8l12,20.8C36.8,30.8,36.8,32.1,36.1,33.2L36.1,33.2z"/>
<path class="st1" d="M21,27.9c-1,0-1.9,0.9-1.9,1.9c0,1,0.9,1.9,1.9,1.9s1.9-0.9,1.9-1.9C23,28.7,22.1,27.9,21,27.9L21,27.9z
	 M38.7,34.7c1.2-2.1,1.2-4.5,0-6.6l-12-20.8c-1.1-2-3.2-3.3-5.6-3.3s-4.5,1.2-5.7,3.3L3.3,28c-1.2,2.1-1.2,4.6,0,6.6
	C4.5,36.7,6.6,38,9,38h24C35.4,38.1,37.5,36.8,38.7,34.7L38.7,34.7z M36.1,33.2c-0.7,1.1-1.8,1.8-3.2,1.8H9c-1.3,0-2.5-0.7-3.1-1.8
	c-0.7-1.1-0.7-2.5,0-3.6L17.8,8.8C18.6,7.7,19.7,7,21.1,7c1.3,0,2.5,0.7,3.1,1.8l12,20.8C36.8,30.8,36.8,32.1,36.1,33.2L36.1,33.2z
	 M20.6,14.5c-0.9,0.3-1.5,1.1-1.5,2.1c0,0.6,0.1,1.2,0.1,1.8c0.1,2.3,0.3,4.6,0.4,6.8c0,0.8,0.6,1.3,1.4,1.3s1.4-0.6,1.4-1.4
	c0-0.5,0-0.9,0-1.4c0.1-1.5,0.2-2.9,0.3-4.4c0-1,0.1-1.9,0.2-2.9c0-0.3,0-0.6-0.2-1C22.4,14.7,21.5,14.3,20.6,14.5L20.6,14.5z"/>
</svg>
