<?xml version="1.0" encoding="utf-8"?>
<!-- Generator: Adobe Illustrator 27.1.0, SVG Export Plug-In . SVG Version: 6.00 Build 0)  -->
<svg version="1.1" id="Ebene_1" xmlns="http://www.w3.org/2000/svg" xmlns:xlink="http://www.w3.org/1999/xlink" x="0px" y="0px"
	 viewBox="0 0 42.5 42.5" style="enable-background:new 0 0 42.5 42.5;" xml:space="preserve">
<path id="dark_00000072251897695411845140000005545800671878851976_" d="M21.3,12.8c-2.6,5.5,0.5,11.7,6,13.2
	c-1.3,2.3-5,4.6-9.2,3.5c-4.3-1.2-7-5.5-6.1-9.8C12.9,15.4,16.7,12.4,21.3,12.8z M31.2,15.7c-1.8-1.8-2-4-0.9-6.2
	c-2.5-0.3-5.6,1-7.2,3.8c-1.7,3-1.3,6.6,1.1,9.1c2.2,2.4,5.8,3,8.8,1.6c2.9-1.4,4.6-4.5,4.3-7.5C34.7,17.4,32.8,17.2,31.2,15.7z
	 M8.9,33.6c0.7,0.3,1.3,0.2,1.9-0.3c0.8-0.8,1.6-1.6,2.4-2.4c0.7-0.7,0.7-1.7,0-2.4c-0.7-0.7-1.7-0.7-2.4,0C10,29.2,9.2,30,8.4,30.8
	c-0.3,0.3-0.5,0.7-0.5,1.3C8,32.8,8.3,33.3,8.9,33.6z M32.5,31c-0.9-0.9-1.7-1.8-2.7-2.7c-0.6-0.6-1.6-0.5-2.3,0.1
	c-0.6,0.6-0.7,1.6-0.1,2.3c0.9,0.9,1.8,1.8,2.7,2.7c0.5,0.5,1.2,0.5,1.8,0.2c0.6-0.3,0.9-0.8,0.9-1.7C32.8,31.7,32.8,31.3,32.5,31z
	 M13.4,11.9c-0.9-0.9-1.7-1.8-2.7-2.7c-0.6-0.6-1.6-0.5-2.3,0.1C7.9,10,7.8,11,8.4,11.6c0.9,0.9,1.8,1.8,2.7,2.7
	c0.5,0.5,1.2,0.5,1.8,0.2c0.6-0.3,0.9-0.8,0.9-1.7C13.7,12.6,13.7,12.2,13.4,11.9z M22.1,6c0-1-0.7-1.7-1.7-1.7
	c-0.9,0-1.7,0.7-1.7,1.7c0,1.1,0,2.3,0,3.4c0,1,0.8,1.7,1.7,1.7c0.9,0,1.6-0.7,1.7-1.7c0-0.6,0-1.1,0-1.7C22.1,7.1,22.1,6.5,22.1,6z
	 M8.5,22.9c1,0,1.7-0.8,1.7-1.7c0-0.9-0.7-1.7-1.7-1.7c-1.1,0-2.3,0-3.4,0c-1,0-1.7,0.7-1.7,1.7c0,0.9,0.7,1.7,1.7,1.7
	c0.6,0,1.1,0,1.7,0C7.4,22.9,7.9,22.9,8.5,22.9z M22.1,33.2c0-1-0.8-1.7-1.7-1.7c-0.9,0-1.7,0.7-1.7,1.7c0,1.1,0,2.3,0,3.4
	c0,1,0.7,1.7,1.7,1.7c0.9,0,1.7-0.7,1.7-1.7c0-0.6,0-1.1,0-1.7C22.1,34.3,22.1,33.7,22.1,33.2z"/>
</svg>
