<?xml version="1.0" encoding="utf-8"?>
<!-- Generator: Adobe Illustrator 21.1.0, SVG Export Plug-In . SVG Version: 6.00 Build 0)  -->
<svg version="1.1" id="Ebene_1" xmlns="http://www.w3.org/2000/svg" xmlns:xlink="http://www.w3.org/1999/xlink" x="0px" y="0px"
	 viewBox="0 0 42.5 42.5" style="enable-background:new 0 0 42.5 42.5;" xml:space="preserve">
<path d="M35,6.9H9.2C7.4,6.9,6,8.3,6,10.1V14c0,1.8,1.4,3.2,3.2,3.2H35c1.8,0,3.2-1.4,3.2-3.2v-3.8C38.2,8.3,36.7,6.9,35,6.9z
	 M35.4,13.4c0,0.6-0.5,1-1,1H9.8c-0.6,0-1-0.5-1-1v-2.7c0-0.6,0.5-1,1-1h24.5c0.6,0,1,0.5,1,1V13.4z M35,18.8H9.2
	C7.4,18.8,6,20.2,6,22v3.8c0,1.8,1.4,3.2,3.2,3.2H35c1.8,0,3.2-1.4,3.2-3.2V22C38.2,20.2,36.7,18.8,35,18.8z M35.4,25.3
	c0,0.6-0.5,1-1,1H9.8c-0.6,0-1-0.5-1-1v-2.7c0-0.6,0.5-1,1-1h24.5c0.6,0,1,0.5,1,1V25.3z M12,12.1c0,0.5-0.4,1-1,1s-1-0.4-1-1
	s0.4-1,1-1S12,11.5,12,12.1z M12,24c0,0.5-0.4,1-1,1s-1-0.4-1-1c0-0.5,0.4-1,1-1S12,23.4,12,24z M38.2,32.9c0,0.6-0.5,1.1-1.1,1.1
	H25.8c-0.4,0.8-1.2,1.4-2.2,1.4h-1.7c-1,0-1.8-0.6-2.2-1.4H7.1C6.5,34,6,33.5,6,32.9s0.5-1.1,1.1-1.1h12.6c0.4-0.8,1.2-1.4,2.2-1.4
	h1.7c1,0,1.8,0.6,2.2,1.4h11.3C37.7,31.8,38.2,32.3,38.2,32.9z"/>
</svg>
