<?xml version="1.0" encoding="utf-8"?>
<!-- Generator: Adobe Illustrator 23.0.1, SVG Export Plug-In . SVG Version: 6.00 Build 0)  -->
<svg version="1.1" id="Ebene_1" xmlns="http://www.w3.org/2000/svg" xmlns:xlink="http://www.w3.org/1999/xlink" x="0px" y="0px"
	 viewBox="0 0 42.52 42.52" style="enable-background:new 0 0 42.52 42.52;" xml:space="preserve">
<path d="M11.23,4C9.19,4,7.54,5.65,7.54,7.69v26.51c0,2.04,1.65,3.69,3.69,3.69h7.49c2.04,0,3.69-1.65,3.69-3.69V19.44h-7.44
	c-2.49,0-4.52-2.02-4.52-4.52c0-2.5,2.02-4.52,4.52-4.52h7.44V7.69c0-2.04-1.65-3.69-3.69-3.69H11.23L11.23,4z M13.37,28.01
	 M12.15,14.92c0,1.56,1.26,2.82,2.82,2.82h19.95c1.56,0,2.82-1.26,2.82-2.82c0-1.56-1.26-2.82-2.82-2.82H14.98
	C13.42,12.09,12.15,13.36,12.15,14.92L12.15,14.92z M12.15,14.92 M18.23,32.37h-6.22v-1.52l2.09-2.12c0.6-0.62,0.99-1.05,1.17-1.28
	s0.31-0.42,0.38-0.59s0.11-0.34,0.11-0.52c0-0.22-0.07-0.4-0.22-0.53s-0.35-0.19-0.61-0.19c-0.27,0-0.54,0.08-0.82,0.23
	s-0.59,0.38-0.93,0.68l-1.27-1.49c0.44-0.39,0.81-0.68,1.11-0.85s0.63-0.3,0.98-0.39s0.75-0.13,1.19-0.13c0.55,0,1.05,0.1,1.49,0.29
	s0.77,0.47,1.01,0.83s0.36,0.77,0.36,1.22c0,0.34-0.04,0.65-0.13,0.93s-0.21,0.57-0.39,0.84s-0.41,0.57-0.7,0.87
	s-0.91,0.88-1.86,1.73v0.06h3.24V32.37z"/>
</svg>
