<?xml version="1.0" encoding="utf-8"?>
<!-- Generator: Adobe Illustrator 21.1.0, SVG Export Plug-In . SVG Version: 6.00 Build 0)  -->
<svg version="1.1" id="Ebene_1" xmlns="http://www.w3.org/2000/svg" xmlns:xlink="http://www.w3.org/1999/xlink" x="0px" y="0px"
	 viewBox="0 0 42.5 42.5" style="enable-background:new 0 0 42.5 42.5;" xml:space="preserve">
<path d="M21.8,24.4l-5.6-5.6c0.4-1,0.7-2.2,0.7-3.3c0-2.3-0.9-4.4-2.5-6C12.9,7.9,10.7,7,8.5,7c-2.3,0-4.4,0.9-6,2.5
	c-3.3,3.3-3.3,8.7,0,12c1.6,1.6,3.7,2.5,6,2.5c1.2,0,2.3-0.2,3.3-0.7l3.7,3.7c0.2,0.2,0.4,0.2,0.6,0.2l2-0.1l-0.1,2
	c0,0.2,0.1,0.4,0.2,0.6c0.1,0.2,0.4,0.2,0.6,0.2l2-0.1l-0.1,2c0,0.2,0.1,0.4,0.2,0.6c0.2,0.2,0.3,0.2,0.6,0.2l2-0.1l-0.1,2
	c0,0.2,0.1,0.4,0.2,0.6c0.1,0.1,0.3,0.2,0.5,0.2c0,0,0.1,0,0.1,0l3.1-0.3c0.4,0,0.7-0.4,0.7-0.8l-0.3-3.5h-5.8V24.4z M7.4,14.5
	c-0.9,0.9-2.5,0.9-3.4,0C3.1,13.5,3.1,12,4,11c0.9-0.9,2.5-0.9,3.4,0C8.4,12,8.4,13.5,7.4,14.5z M34.9,13.8l4.4,4.9L27.9,29
	l-4.7-0.2l0.2-4.7L34.9,13.8z M42,16.3l-1.6,1.4L36,12.8l1.6-1.4c0.3-0.3,0.7-0.4,1.1-0.4c0.4,0,0.8,0.2,1.1,0.5l2.3,2.6
	c0.3,0.3,0.4,0.7,0.4,1.1S42.3,16,42,16.3z M27.4,27.4l2-1.8L27,23l-2,1.8l0,0.9l1.6,0.1l-0.1,1.6L27.4,27.4z M35.1,16.1
	c-0.2-0.2-0.3-0.2-0.5,0l-6,5.4c-0.2,0.2-0.2,0.4,0,0.5c0.2,0.2,0.3,0.2,0.5,0l6-5.4C35.2,16.5,35.2,16.3,35.1,16.1z"/>
</svg>
