<?xml version="1.0" encoding="utf-8"?>
<!-- Generator: Adobe Illustrator 21.1.0, SVG Export Plug-In . SVG Version: 6.00 Build 0)  -->
<svg version="1.1" id="Ebene_1" xmlns="http://www.w3.org/2000/svg" xmlns:xlink="http://www.w3.org/1999/xlink" x="0px" y="0px"
	 viewBox="0 0 42.5 42.5" style="enable-background:new 0 0 42.5 42.5;" xml:space="preserve">
<path d="M11.7,12C6.9,12,3,15.9,3,20.7c0,4.8,3.9,8.7,8.7,8.7s8.7-3.9,8.7-8.7C20.3,15.9,16.4,12,11.7,12z M11.6,25.2
	c-2.5,0-4.6-2.1-4.6-4.6s2.1-4.6,4.6-4.6s4.6,2.1,4.6,4.6S14.1,25.2,11.6,25.2z M31.1,12c-4.8,0-8.7,3.9-8.7,8.7
	c0,4.8,3.9,8.7,8.7,8.7s8.7-3.9,8.7-8.7C39.8,15.9,35.9,12,31.1,12z M31.1,25.2c-2.5,0-4.6-2.1-4.6-4.6s2.1-4.6,4.6-4.6
	s4.6,2.1,4.6,4.6S33.7,25.2,31.1,25.2z"/>
<rect x="11.6" y="26.8" width="19.5" height="2.5"/>
</svg>
