<?xml version="1.0" encoding="utf-8"?>
<!-- Generator: Adobe Illustrator 21.1.0, SVG Export Plug-In . SVG Version: 6.00 Build 0)  -->
<svg version="1.1" id="Ebene_1" xmlns="http://www.w3.org/2000/svg" xmlns:xlink="http://www.w3.org/1999/xlink" x="0px" y="0px"
	 viewBox="0 0 42.5 42.5" style="enable-background:new 0 0 42.5 42.5;" xml:space="preserve">
<path d="M33.9,11.2c0.4,0.4,0.7,0.8,0.9,1.4c0.3,0.6,0.4,1.2,0.4,1.7v21.9c0,0.5-0.2,0.9-0.5,1.3S33.8,38,33.3,38H7.8
	c-0.5,0-0.9-0.2-1.3-0.5C6.2,37.1,6,36.7,6,36.2V5.8c0-0.5,0.2-0.9,0.5-1.3C6.9,4.2,7.3,4,7.8,4h17c0.5,0,1.1,0.1,1.7,0.4
	c0.6,0.3,1.1,0.6,1.4,0.9L33.9,11.2z M25.4,6.6v7.1h7.1c-0.1-0.4-0.3-0.6-0.4-0.8L26.2,7C26.1,6.8,25.8,6.7,25.4,6.6z M32.7,35.6
	V16.2h-7.9c-0.5,0-0.9-0.2-1.3-0.5c-0.4-0.4-0.5-0.8-0.5-1.3V6.4H8.4v29.2H32.7z M28.3,18.6H12.8c-1.1,0-2,1-2,1.8v11.3
	c0,0.8,0.9,1.8,2,1.8h15.4c1.1,0,2-1,2-1.8V20.6C30.2,19.8,29.3,18.6,28.3,18.6L28.3,18.6z M22.8,20.1h1.7v1.3h-1.7V20.1z
	 M19.7,20.1h1.7v1.3h-1.7V20.1z M16.6,20.1h1.7v1.3h-1.7V20.1z M15.3,32.1h-1.7v-1.3h1.7V32.1z M15.3,21.4h-1.7v-1.3h1.7V21.4z
	 M18.3,32.1h-1.7v-1.3h1.7V32.1z M21.4,32.1h-1.7v-1.3h1.7V32.1z M24.4,32.1h-1.7v-1.3h1.7V32.1z M23.6,26.4L19,29.3
	c-0.3,0.2-0.6,0-0.6-0.4v-5.7c0-0.3,0.3-0.5,0.6-0.4l4.6,2.9C23.9,25.9,23.9,26.3,23.6,26.4L23.6,26.4z M27.5,32.1h-1.7v-1.3h1.7
	V32.1z M27.5,21.4h-1.7v-1.3h1.7V21.4z M27.5,21.4"/>
</svg>
