<?xml version="1.0" encoding="utf-8"?>
<!-- Generator: Adobe Illustrator 21.1.0, SVG Export Plug-In . SVG Version: 6.00 Build 0)  -->
<svg version="1.1" id="Ebene_1" xmlns="http://www.w3.org/2000/svg" xmlns:xlink="http://www.w3.org/1999/xlink" x="0px" y="0px"
	 viewBox="0 0 42.5 42.5" style="enable-background:new 0 0 42.5 42.5;" xml:space="preserve">
<style type="text/css">
	.st0{fill:#16A086;}
</style>
<path id="hook_x5F_big_1_" class="st0" d="M31.5,16.3L19,28.8c-0.3,0.3-0.6,0.4-1,0.4s-0.7-0.1-1-0.4l-6-6c-0.3-0.3-0.4-0.6-0.4-1
	s0.1-0.7,0.4-1l0.4-0.4c0.3-0.3,0.6-0.4,1-0.4c0.4,0,0.7,0.1,1,0.4l4.6,4.6l11.2-11.2c0.3-0.3,0.6-0.4,1-0.4s0.7,0.1,1,0.4l0.5,0.5
	c0.3,0.3,0.4,0.6,0.4,1C32,15.7,31.8,16,31.5,16.3z"/>
</svg>
