<?xml version="1.0" encoding="utf-8"?>
<!-- Generator: Adobe Illustrator 21.1.0, SVG Export Plug-In . SVG Version: 6.00 Build 0)  -->
<svg version="1.1" id="Ebene_1" xmlns="http://www.w3.org/2000/svg" xmlns:xlink="http://www.w3.org/1999/xlink" x="0px" y="0px"
	 viewBox="0 0 42.5 42.5" style="enable-background:new 0 0 42.5 42.5;" xml:space="preserve">
<path d="M38.2,29.9v3.9c0,0.2-0.1,0.3-0.2,0.5s-0.3,0.2-0.5,0.2H10.5c-0.2,0-0.3-0.1-0.5-0.2c-0.1-0.1-0.2-0.3-0.2-0.5v-3.9
	c0-0.2,0.1-0.3,0.2-0.5c0.1-0.1,0.3-0.2,0.5-0.2h27.1c0.2,0,0.3,0.1,0.5,0.2C38.1,29.5,38.2,29.7,38.2,29.9z M38.2,18.7v3.9
	c0,0.2-0.1,0.3-0.2,0.5c-0.1,0.1-0.3,0.2-0.5,0.2H10.5c-0.2,0-0.3-0.1-0.5-0.2c-0.1-0.1-0.2-0.3-0.2-0.5v-3.9c0-0.2,0.1-0.3,0.2-0.5
	c0.1-0.1,0.3-0.2,0.5-0.2h27.1c0.2,0,0.3,0.1,0.5,0.2S38.2,18.5,38.2,18.7z M38.2,7.7v3.9c0,0.2-0.1,0.3-0.2,0.5s-0.3,0.2-0.5,0.2
	H10.5c-0.2,0-0.3-0.1-0.5-0.2c-0.1-0.1-0.2-0.3-0.2-0.5V7.7c0-0.2,0.1-0.3,0.2-0.5C10.1,7.1,10.3,7,10.5,7h27.1
	c0.2,0,0.3,0.1,0.5,0.2S38.2,7.5,38.2,7.7z M4,10.6c-0.3-0.3-0.5-0.7-0.5-1.2c0-0.5,0.2-0.9,0.5-1.2s0.7-0.5,1.2-0.5
	s0.9,0.2,1.2,0.5s0.5,0.7,0.5,1.2c0,0.5-0.2,0.9-0.5,1.2s-0.7,0.5-1.2,0.5C4.8,11.1,4.4,10.9,4,10.6z M4,21.6
	c-0.3-0.3-0.5-0.7-0.5-1.2c0-0.5,0.2-0.9,0.5-1.2s0.7-0.5,1.2-0.5s0.9,0.2,1.2,0.5s0.5,0.7,0.5,1.2c0,0.5-0.2,0.9-0.5,1.2
	s-0.7,0.5-1.2,0.5C4.8,22.1,4.4,21.9,4,21.6z M4,32.6c-0.3-0.3-0.5-0.7-0.5-1.2c0-0.5,0.2-0.9,0.5-1.2s0.7-0.5,1.2-0.5
	s0.9,0.2,1.2,0.5s0.5,0.7,0.5,1.2c0,0.5-0.2,0.9-0.5,1.2s-0.7,0.5-1.2,0.5C4.8,33.1,4.4,32.9,4,32.6z"/>
</svg>
