<?xml version="1.0" encoding="utf-8"?>
<!-- Generator: Adobe Illustrator 24.3.0, SVG Export Plug-In . SVG Version: 6.00 Build 0)  -->
<svg version="1.1" id="Ebene_1" xmlns="http://www.w3.org/2000/svg" xmlns:xlink="http://www.w3.org/1999/xlink" x="0px" y="0px"
	 viewBox="0 0 42.5 42.5" style="enable-background:new 0 0 42.5 42.5;" xml:space="preserve">
<style type="text/css">
	.st0{fill:#FFFFFF;}
</style>
<g id="Spam">
	<path d="M36.6,15.8c-0.3-0.3-0.7-0.5-1-0.6v2.4l0,0l0,0.1v0.6c0,0.7-0.2,1.1-0.8,2c-0.2,0.3-0.5,0.6-0.7,0.8V5.8
		c0-0.4-0.2-0.8-0.5-1.1c-0.3-0.3-0.7-0.5-1.1-0.5h-11h-0.7H10.5c-0.4,0-0.8,0.2-1.1,0.5C9.1,5,8.9,5.4,8.9,5.8v15.7
		c-1.2-1.2-2-2.5-2-4h0v-0.1c0,0,0,0,0,0c0,0,0,0,0,0v-2.3c-0.4,0.1-0.7,0.3-1,0.6C5.3,16.3,5,16.9,5,17.6v18c0,0.7,0.3,1.3,0.9,1.9
		c0.6,0.5,1.2,0.8,2,0.8h26.6c0.8,0,1.5-0.3,2-0.8c0.6-0.5,0.9-1.1,0.9-1.9v-18C37.5,16.9,37.2,16.3,36.6,15.8z M20.8,6.3h0.7H32
		v16.5c-2.2,1.6-4.4,3.3-6.8,5c-0.1,0.1-0.3,0.2-0.6,0.5c-0.3,0.3-0.6,0.5-0.8,0.6s-0.5,0.3-0.8,0.5c-0.3,0.2-0.6,0.4-0.9,0.5
		c-0.3,0.1-0.5,0.2-0.8,0.2h0c-0.2,0-0.5-0.1-0.8-0.2c-0.3-0.1-0.6-0.3-0.9-0.5c-0.3-0.2-0.6-0.4-0.8-0.5s-0.5-0.4-0.8-0.6
		c-0.3-0.3-0.6-0.4-0.6-0.5c-2.2-1.6-4.2-3.1-6.2-4.6V6.3H20.8z M35.6,35.8c0,0.1-0.1,0.3-0.2,0.4c-0.1,0.1-0.3,0.2-0.4,0.2H7.5
		c-0.2,0-0.3-0.1-0.4-0.2c-0.1-0.1-0.2-0.2-0.2-0.4V22.6c0.4,0.4,1.3,1,1.7,1.4c3.2,2.3,5.8,4.1,7.7,5.6c0.6,0.5,1.1,0.8,1.5,1.1
		c0.4,0.3,0.9,0.5,1.6,0.8c0.7,0.3,1.3,0.4,1.9,0.4h0c0.6,0,1.2-0.1,1.9-0.4c0.7-0.3,1.2-0.5,1.6-0.8s0.9-0.6,1.5-1.1
		c1.9-1.5,4.5-3.3,7.7-5.6c0.4-0.3,1.3-1,1.7-1.4V35.8z"/>
	<g>
		<path class="st0" d="M18.6,24.7h5.6v-2.1c0-0.4,0.3-0.6,0.6-0.6h1.3c0.3,0,0.6-0.3,0.6-0.6v0c0-0.2-0.1-0.4-0.3-0.5
			c-0.2-0.1-0.3-0.3-0.3-0.5c0-0.2,0-0.4,0.1-0.5c1-1.1,1.5-2.6,1.5-4.1v-0.1c0-1.7-0.7-3.3-1.8-4.4c-1.2-1.2-2.8-1.8-4.4-1.8h-0.1
			c-1.7,0-3.3,0.7-4.4,1.8C15.7,12.4,15,14,15,15.7v0.1c0,1.5,0.5,3,1.5,4.1c0.1,0.1,0.2,0.4,0.1,0.5c0,0.2-0.2,0.4-0.3,0.5
			c-0.2,0.1-0.3,0.3-0.3,0.5v0c0,0.3,0.3,0.6,0.6,0.6h1.3c0.4,0,0.6,0.3,0.6,0.6V24.7z"/>
		<g>
			<path d="M22.4,22.2c-0.4,0-0.7-0.3-0.7-0.7c0-0.1-0.1-0.3-0.3-0.3c-0.1,0-0.3,0.1-0.3,0.3c0,0.4-0.3,0.7-0.7,0.7
				c-0.4,0-0.7-0.3-0.7-0.7c0-0.9,0.7-1.6,1.6-1.6c0.9,0,1.6,0.7,1.6,1.6C23.1,21.9,22.7,22.2,22.4,22.2z"/>
		</g>
		<path d="M29.6,15.6c0-1.1-0.2-2.2-0.6-3.2c-0.4-1-1-1.8-1.7-2.6c-0.7-0.7-1.6-1.3-2.6-1.7c-1-0.4-2.1-0.6-3.2-0.6h-0.2
			c-1.1,0-2.2,0.2-3.2,0.6c-1,0.4-1.8,1-2.6,1.7s-1.3,1.6-1.7,2.6c-0.4,1-0.6,2.1-0.6,3.2v0.2c0,1.7,0.5,3.4,1.6,4.8
			c-0.3,0.3-0.4,0.8-0.4,1.3v0c0,1.1,0.9,2,2,2H17V26c0,0.4,0.3,0.7,0.7,0.7h7.4c0.4,0,0.7-0.3,0.7-0.7v-2.2h0.7c1.1,0,2-0.9,2-2v0
			c0-0.5-0.2-0.9-0.4-1.3c1-1.4,1.6-3.1,1.6-4.8V15.6z M27.8,15.9c0,1.5-0.5,3-1.5,4.1c-0.1,0.1-0.2,0.4-0.1,0.5
			c0,0.2,0.2,0.4,0.3,0.5c0.2,0.1,0.3,0.3,0.3,0.5v0c0,0.3-0.3,0.6-0.6,0.6h-1.3c-0.4,0-0.6,0.3-0.6,0.6v2.1h-1.1v-0.3
			c0-0.3-0.3-0.6-0.6-0.6c-0.3,0-0.6,0.3-0.6,0.6v0.3h-1.2v-0.3c0-0.3-0.3-0.6-0.6-0.6s-0.6,0.3-0.6,0.6v0.3h-1.1v-2.1
			c0-0.4-0.3-0.6-0.6-0.6h-1.3c-0.3,0-0.6-0.3-0.6-0.6v0c0-0.2,0.1-0.4,0.3-0.5c0.2-0.1,0.3-0.3,0.3-0.5c0-0.2,0-0.4-0.1-0.5
			c-1-1.1-1.5-2.6-1.5-4.1v-0.1c0-1.7,0.7-3.3,1.8-4.4c1.2-1.2,2.8-1.8,4.4-1.8h0.1c1.7,0,3.3,0.7,4.4,1.8c1.2,1.2,1.8,2.8,1.8,4.4
			V15.9z"/>
	</g>
	<path d="M16.6,15.6c-0.2,0.3-0.3,0.7-0.3,1.1c0,1.2,0.9,2.1,2.1,2.1c1.2,0,2.1-0.9,2.1-2.1c0-0.2,0-0.3-0.1-0.5
		C19.1,16.1,17.8,15.9,16.6,15.6z"/>
	<path d="M22.3,16.1c0,0.2-0.1,0.3-0.1,0.5c0,1.2,0.9,2.1,2.1,2.1c1.2,0,2.1-0.9,2.1-2.1c0-0.4-0.1-0.8-0.3-1.1
		C24.9,15.9,23.6,16.1,22.3,16.1z"/>
</g>
</svg>
