<?xml version="1.0" encoding="utf-8"?>
<!-- Generator: Adobe Illustrator 21.1.0, SVG Export Plug-In . SVG Version: 6.00 Build 0)  -->
<svg version="1.1" id="Ebene_1" xmlns="http://www.w3.org/2000/svg" xmlns:xlink="http://www.w3.org/1999/xlink" x="0px" y="0px"
	 viewBox="0 0 42.5 42.5" style="enable-background:new 0 0 42.5 42.5;" xml:space="preserve">
<path d="M30.5,13.8c-0.1-0.1-0.2-0.3-0.2-0.4v-1.2c0-0.2,0.1-0.3,0.2-0.4s0.3-0.2,0.4-0.2h4.3V7.3c0-0.2,0.1-0.3,0.2-0.4
	s0.3-0.2,0.4-0.2h1.2c0.2,0,0.3,0.1,0.4,0.2s0.2,0.3,0.2,0.4v4.3h4.3c0.2,0,0.3,0.1,0.4,0.2s0.2,0.3,0.2,0.4v1.2
	c0,0.2-0.1,0.3-0.2,0.4s-0.3,0.2-0.4,0.2h-4.3v4.3c0,0.2-0.1,0.3-0.2,0.4s-0.3,0.2-0.4,0.2h-1.2c-0.2,0-0.3-0.1-0.4-0.2
	s-0.2-0.3-0.2-0.4v-4.3H31C30.8,13.9,30.7,13.9,30.5,13.8z M31.6,21c0,2.6-0.7,5.1-2,7.3c-1.3,2.2-3.1,4-5.3,5.3
	c-2.2,1.3-4.7,2-7.3,2c-2.6,0-5.1-0.7-7.3-2c-2.2-1.3-4-3.1-5.3-5.3c-1.3-2.2-2-4.7-2-7.3s0.7-5.1,2-7.3c1.3-2.2,3.1-4,5.3-5.3
	c2.2-1.3,4.7-2,7.3-2c2.6,0,5.1,0.7,7.3,2c1,0.6,1.9,1.3,2.7,2v-0.1h3.3c-1.3-1.6-2.9-3-4.7-4.1C22.9,4.8,20.1,4,17,4
	c-3.1,0-5.9,0.8-8.5,2.3c-2.6,1.5-4.7,3.6-6.2,6.2C0.8,15.1,0,17.9,0,21c0,3.1,0.8,5.9,2.3,8.5s3.6,4.7,6.2,6.2
	c2.6,1.5,5.5,2.3,8.5,2.3c3.1,0,5.9-0.8,8.5-2.3c2.6-1.5,4.7-3.6,6.2-6.2S34,24.1,34,21c0-1.9-0.3-3.6-0.8-5.3h-2.6
	C31.2,17.4,31.6,19.1,31.6,21z M17.5,10.8c-4,0-7.3,2.6-8.7,6.4H6.3c-0.7,0-1.1,0.5-1.1,1.1c0,0.7,0.5,1.1,1.1,1.1h2
	c-0.1,0.5-0.1,1-0.1,1.6c0,0.8,0.1,1.5,0.3,2.3H6.3c-0.7,0-1.1,0.5-1.1,1.1c0,0.7,0.5,1.1,1.1,1.1h2.9c1.6,3.4,4.7,5.7,8.3,5.7
	c3.4,0,6.6-2,8.2-5.2c0.5-0.7,0.2-1.4-0.5-1.6c-0.7-0.5-1.4-0.2-1.6,0.5c-1.1,2.7-3.6,4.3-6.1,4.3c-2.5,0-4.7-1.4-5.9-3.6h5.3
	c0.7,0,1.1-0.5,1.1-1.1c0-0.7-0.5-1.1-1.1-1.1h-6.1c-0.1-0.7-0.3-1.3-0.3-2c0-0.6,0.1-1.2,0.2-1.8h6.2c0.7,0,1.1-0.5,1.1-1.1
	c0-0.7-0.5-1.1-1.1-1.1h-5.4c1.2-2.3,3.5-3.9,6.1-3.9c2.5,0,5,1.6,6.1,4.3c0.5,0.5,0.9,0.7,1.6,0.5c0.5-0.5,0.7-0.9,0.5-1.6
	C24.1,12.8,20.9,10.8,17.5,10.8z"/>
</svg>
