<?xml version="1.0" encoding="utf-8"?>
<!-- Generator: Adobe Illustrator 21.1.0, SVG Export Plug-In . SVG Version: 6.00 Build 0)  -->
<svg version="1.1" id="Ebene_1" xmlns="http://www.w3.org/2000/svg" xmlns:xlink="http://www.w3.org/1999/xlink" x="0px" y="0px"
	 viewBox="0 0 42.5 42.5" style="enable-background:new 0 0 42.5 42.5;" xml:space="preserve">
<path d="M32.5,17.1h-0.7v-3.3c0,0,0,0,0-0.1c0-0.1,0-0.3-0.1-0.4l-5.5-6.2c0,0,0,0,0,0c0,0-0.1-0.1-0.1-0.1c0,0,0,0,0,0
	c0,0-0.1,0-0.1,0c0,0,0,0,0,0c0,0-0.1,0-0.1,0H12.4c-0.6,0-1.1,0.5-1.1,1.1v9h-0.7c-0.9,0-1.6,0.7-1.6,1.6V27c0,0.9,0.7,1.6,1.6,1.6
	h0.7v5.7c0,0.6,0.5,1.1,1.1,1.1h18.3c0.6,0,1.1-0.5,1.1-1.1v-5.7h0.7c0.9,0,1.6-0.7,1.6-1.6v-8.3C34.1,17.8,33.4,17.1,32.5,17.1
	L32.5,17.1z M12.4,8.1h12.9v5.7c0,0.3,0.2,0.6,0.6,0.6h4.9v2.8H12.4V8.1z M30.7,33.9H12.4v-5.4h18.3V33.9z M28.8,26.3 M16.9,26.7
	h-1.3v-7.6h1.3V26.7z M22.3,24.2c0,0.9-0.2,1.5-0.6,2s-0.9,0.7-1.6,0.7c-0.7,0-1.3-0.3-1.7-0.8c-0.4-0.6-0.6-1.4-0.6-2.4v-1.3
	c0-1,0.2-1.8,0.6-2.4s1-0.8,1.7-0.8c0.7,0,1.2,0.2,1.6,0.7c0.4,0.5,0.6,1.1,0.6,2H21c0-0.5-0.1-0.9-0.2-1.1s-0.4-0.3-0.7-0.3
	c-0.3,0-0.6,0.1-0.7,0.4s-0.2,0.8-0.2,1.4v1.4c0,0.8,0.1,1.3,0.2,1.5c0.1,0.3,0.4,0.4,0.7,0.4c0.3,0,0.6-0.1,0.7-0.3
	c0.1-0.2,0.2-0.5,0.2-1.1H22.3z M27.6,23.6c0,1-0.2,1.8-0.6,2.4c-0.4,0.6-1,0.8-1.7,0.8c-0.7,0-1.3-0.3-1.7-0.8
	c-0.4-0.6-0.6-1.3-0.6-2.3v-1.3c0-1,0.2-1.9,0.6-2.4c0.4-0.6,1-0.9,1.7-0.9c0.7,0,1.3,0.3,1.7,0.9s0.6,1.4,0.6,2.4V23.6z M26.3,22.3
	c0-0.7-0.1-1.2-0.2-1.5c-0.2-0.3-0.4-0.5-0.8-0.5c-0.3,0-0.6,0.2-0.8,0.5s-0.2,0.8-0.3,1.5v1.3c0,0.7,0.1,1.1,0.3,1.5
	c0.2,0.3,0.4,0.5,0.8,0.5c0.3,0,0.6-0.2,0.8-0.5s0.2-0.8,0.3-1.4V22.3z"/>
</svg>
