<?xml version="1.0" encoding="utf-8"?>
<!-- Generator: Adobe Illustrator 21.1.0, SVG Export Plug-In . SVG Version: 6.00 Build 0)  -->
<svg version="1.1" id="Ebene_1" xmlns="http://www.w3.org/2000/svg" xmlns:xlink="http://www.w3.org/1999/xlink" x="0px" y="0px"
	 viewBox="0 0 42.5 42.5" style="enable-background:new 0 0 42.5 42.5;" xml:space="preserve">
<path d="M31.2,17.1h-0.7v-3.3c0,0,0,0,0-0.1c0-0.1,0-0.3-0.1-0.4l-5.5-6.2c0,0,0,0,0,0c0,0-0.1-0.1-0.1-0.1c0,0,0,0,0,0
	c0,0-0.1,0-0.1,0c0,0,0,0,0,0c0,0-0.1,0-0.1,0H11.1C10.5,7,10,7.5,10,8.1v9H9.3c-0.9,0-1.6,0.7-1.6,1.6V27c0,0.9,0.7,1.6,1.6,1.6H10
	v5.7c0,0.6,0.5,1.1,1.1,1.1h18.3c0.6,0,1.1-0.5,1.1-1.1v-5.7h0.7c0.9,0,1.6-0.7,1.6-1.6v-8.3C32.8,17.8,32.1,17.1,31.2,17.1
	L31.2,17.1z M11.1,8.1H24v5.7c0,0.3,0.2,0.6,0.6,0.6h4.9v2.8H11.1V8.1z M29.4,33.9H11.1v-5.4h18.3V33.9z M27.5,26.3 M15.5,19.1h1.3
	v5.2c0,0.7-0.2,1.3-0.5,1.8s-0.8,0.7-1.3,0.7c-0.6,0-1-0.2-1.4-0.6s-0.5-1-0.5-1.7h1.3c0,0.7,0.2,1.1,0.6,1.1c0.4,0,0.6-0.4,0.6-1.2
	V19.1z M19.1,24v2.7h-1.3v-7.6H20c0.6,0,1.1,0.2,1.5,0.7c0.4,0.5,0.6,1.1,0.6,1.8s-0.2,1.3-0.6,1.8c-0.4,0.4-0.9,0.6-1.5,0.6H19.1z
	 M19.1,22.8H20c0.2,0,0.4-0.1,0.6-0.3s0.2-0.5,0.2-0.8c0-0.4-0.1-0.7-0.2-0.9c-0.1-0.2-0.3-0.3-0.6-0.3h-0.9V22.8z M27.3,25.9
	c-0.2,0.3-0.6,0.6-0.9,0.7c-0.4,0.2-0.8,0.2-1.2,0.2c-0.7,0-1.3-0.3-1.7-0.8c-0.4-0.5-0.6-1.3-0.6-2.4v-1.4c0-1,0.2-1.8,0.6-2.4
	c0.4-0.6,0.9-0.8,1.7-0.8c0.7,0,1.2,0.2,1.6,0.6c0.4,0.4,0.6,1,0.6,1.9H26c0-0.5-0.1-0.8-0.3-1c-0.1-0.2-0.3-0.3-0.6-0.3
	c-0.3,0-0.6,0.2-0.8,0.5s-0.2,0.8-0.2,1.4v1.4c0,0.7,0.1,1.2,0.3,1.5c0.2,0.3,0.5,0.5,0.9,0.5c0.3,0,0.5-0.1,0.6-0.2l0.1-0.1v-1.4
	h-0.9v-1.2h2.2V25.9z"/>
</svg>
