<?xml version="1.0" encoding="utf-8"?>
<!-- Generator: Adobe Illustrator 21.1.0, SVG Export Plug-In . SVG Version: 6.00 Build 0)  -->
<svg version="1.1" id="Ebene_1" xmlns="http://www.w3.org/2000/svg" xmlns:xlink="http://www.w3.org/1999/xlink" x="0px" y="0px"
	 viewBox="0 0 42.5 42.5" style="enable-background:new 0 0 42.5 42.5;" xml:space="preserve">
<style type="text/css">
	.st0{fill:#FDD835;}
</style>
<path id="Icon_FileManager_2_" class="st0" d="M37.9,23.3c0-0.5-0.4-0.7-1.1-0.7H14.9c-0.5,0-1.1,0.1-1.7,0.4
	c-0.6,0.3-1.1,0.6-1.4,1.1l-5.9,7.3c-0.2,0.3-0.4,0.6-0.4,0.8c0,0.5,0.4,0.7,1.1,0.7h21.9c0.5,0,1.1-0.1,1.7-0.4
	c0.6-0.3,1.1-0.7,1.4-1.1l5.9-7.3C37.8,23.7,37.9,23.5,37.9,23.3z M14.9,20h15.5v-3.2c0-0.5-0.2-1-0.6-1.4s-0.8-0.6-1.4-0.6H16.9
	c-0.5,0-1-0.2-1.4-0.6s-0.6-0.8-0.6-1.4v-1.3c0-0.5-0.2-1-0.6-1.4S13.5,9.7,13,9.7H6.6c-0.5,0-1,0.2-1.4,0.6s-0.6,0.8-0.6,1.4v17.2
	l5.2-6.3c0.6-0.7,1.4-1.3,2.3-1.8C13.1,20.2,14,20,14.9,20z"/>
<path id="Icon_FileManager_1_" d="M37.9,23.3c0-0.5-0.4-0.7-1.1-0.7H14.9c-0.5,0-1.1,0.1-1.7,0.4c-0.6,0.3-1.1,0.6-1.4,1.1l-5.9,7.3
	c-0.2,0.3-0.4,0.6-0.4,0.8c0,0.5,0.4,0.7,1.1,0.7h21.9c0.5,0,1.1-0.1,1.7-0.4c0.6-0.3,1.1-0.7,1.4-1.1l5.9-7.3
	C37.8,23.7,37.9,23.5,37.9,23.3z M14.9,20h15.5v-3.2c0-0.5-0.2-1-0.6-1.4s-0.8-0.6-1.4-0.6H16.9c-0.5,0-1-0.2-1.4-0.6
	s-0.6-0.8-0.6-1.4v-1.3c0-0.5-0.2-1-0.6-1.4S13.5,9.7,13,9.7H6.6c-0.5,0-1,0.2-1.4,0.6s-0.6,0.8-0.6,1.4v17.2l5.2-6.3
	c0.6-0.7,1.4-1.3,2.3-1.8C13.1,20.2,14,20,14.9,20z M40.5,23.3c0,0.8-0.3,1.6-0.9,2.4L33.6,33c-0.6,0.7-1.4,1.3-2.3,1.8
	c-1,0.5-1.9,0.7-2.8,0.7H6.6c-1.2,0-2.3-0.4-3.2-1.3S2,32.2,2,30.9V11.6c0-1.2,0.4-2.3,1.3-3.2c0.9-0.9,1.9-1.3,3.2-1.3H13
	c1.2,0,2.3,0.4,3.2,1.3c0.9,0.9,1.3,1.9,1.3,3.2v0.6h11c1.2,0,2.3,0.4,3.2,1.3c0.9,0.9,1.3,1.9,1.3,3.2V20h3.9c0.7,0,1.4,0.2,2,0.5
	s1.1,0.8,1.3,1.4C40.4,22.3,40.5,22.8,40.5,23.3z"/>
</svg>
