<?xml version="1.0" encoding="utf-8"?>
<svg version="1.1" id="Ebene_1" x="0px" y="0px" viewBox="0 0 42.5 42.5" style="enable-background:new 0 0 42.5 42.5;" xmlns="http://www.w3.org/2000/svg">
  <style type="text/css">
    .st0{fill:#FFFFFF;}
  </style>
  <path class="st0" d="M 9.762 15.885 C 10.101 16.169 11.252 17.126 13.079 18.747 C 14.905 20.272 16.327 21.514 17.273 22.371 C 17.408 22.468 17.611 22.658 17.95 22.945 C 18.289 23.231 18.557 23.515 18.828 23.708 C 19.033 23.898 19.369 24.089 19.642 24.376 C 19.981 24.567 20.25 24.758 20.59 24.948 C 20.86 25.043 21.131 25.139 21.402 25.139 L 21.402 25.139 C 21.671 25.139 21.941 25.043 22.213 24.948 C 22.482 24.851 22.821 24.661 23.16 24.376 C 23.498 24.089 23.768 23.898 23.972 23.708 C 24.174 23.515 24.513 23.231 24.852 22.945 C 25.19 22.658 25.461 22.468 25.528 22.371 C 26.543 21.514 29.047 19.414 33.038 15.885 C 33.85 15.217 34.46 14.358 35.001 13.403 C 35.541 12.449 35.812 11.496 35.812 10.448 C 35.812 9.586 35.541 8.825 35.067 8.157 C 34.526 7.49 33.985 7.203 33.241 7.203 L 9.561 7.203 C 8.746 7.3 8.071 7.679 7.666 8.346 C 7.192 9.015 6.988 9.876 6.988 10.921 C 6.988 11.783 7.26 12.641 7.87 13.594 C 8.477 14.548 9.086 15.312 9.762 15.885 L 9.762 15.885 Z M 9.762 15.885 M 34.121 18.079 C 30.601 21.036 27.962 23.327 26.137 24.948 C 25.528 25.521 25.055 25.899 24.649 26.282 C 24.243 26.569 23.768 26.95 23.16 27.234 C 22.551 27.524 21.941 27.714 21.402 27.714 L 21.402 27.714 C 20.86 27.714 20.25 27.524 19.642 27.234 C 19.033 26.95 18.491 26.569 18.153 26.282 C 17.747 25.996 17.273 25.521 16.664 24.948 C 15.244 23.612 12.535 21.321 8.681 18.079 C 8.071 17.601 7.53 17.028 7.057 16.362 L 7.057 32.102 C 7.057 32.96 7.327 33.727 7.799 34.393 C 8.275 35.06 8.884 35.347 9.628 35.347 L 33.241 35.347 C 33.917 35.347 34.526 35.06 35.067 34.393 C 35.541 33.727 35.812 33.058 35.812 32.102 L 35.812 16.265 C 35.272 16.935 34.73 17.506 34.121 18.079 L 34.121 18.079 Z M 34.121 18.079" style=""/>
</svg>