<?xml version="1.0" encoding="utf-8"?>
<!-- Generator: Adobe Illustrator 21.1.0, SVG Export Plug-In . SVG Version: 6.00 Build 0)  -->
<svg version="1.1" id="Ebene_1" xmlns="http://www.w3.org/2000/svg" xmlns:xlink="http://www.w3.org/1999/xlink" x="0px" y="0px"
	 viewBox="0 0 42.5 42.5" style="enable-background:new 0 0 42.5 42.5;" xml:space="preserve">
<path stroke="white" fill="white" d="M34.1,20.1c-0.4-0.5-1-0.7-1.6-0.7h-0.8v-4.6c0-2.9-1.1-5.5-3.2-7.6C26.4,5.1,23.9,4,20.9,4s-5.5,1.2-7.6,3.3
	c-2.1,2.1-3.2,4.6-3.2,7.6v4.6H9.3c-0.6,0-1.1,0.2-1.6,0.7c-0.5,0.4-0.7,1-0.7,1.6v13.9c0,0.6,0.2,1.1,0.7,1.6
	c0.4,0.5,1,0.7,1.6,0.7h23.2c0.6,0,1.1-0.2,1.6-0.7c0.5-0.4,0.7-1,0.7-1.6V21.8C34.8,21.1,34.6,20.6,34.1,20.1z M12.5,15.1
	c0-2.4,0.8-4.4,2.5-6.1s3.6-2.5,6-2.5s4,0.8,5.7,2.5s2.5,3.7,2.5,6.1v4.4H12.5V15.1z M31.8,33.5c0,0.4-0.2,0.8-0.5,1.1
	c-0.4,0.3-0.8,0.5-1.2,0.5H12c-0.5,0-0.9-0.1-1.2-0.5c-0.4-0.3-0.5-0.7-0.5-1.1V24c0-0.4,0.2-0.8,0.5-1.1c0.4-0.3,0.8-0.5,1.2-0.5
	h0.6l16.8-0.1H30c0.5,0,0.9,0.1,1.2,0.5c0.4,0.3,0.5,0.7,0.5,1.2V33.5z M27.6,28.2H14.2c-0.2,0-0.3,0.1-0.4,0.2
	c-0.1,0.1-0.2,0.3-0.2,0.4V30c0,0.2,0.1,0.3,0.2,0.4c0.1,0.1,0.3,0.2,0.4,0.2h13.4c0.2,0,0.3-0.1,0.4-0.2c0.1-0.1,0.2-0.3,0.2-0.4
	v-1.2c0-0.2-0.1-0.3-0.2-0.4C27.9,28.2,27.8,28.2,27.6,28.2z"/>
</svg>
