<?xml version="1.0" encoding="utf-8"?>
<!-- Generator: Adobe Illustrator 21.1.0, SVG Export Plug-In . SVG Version: 6.00 Build 0)  -->
<svg version="1.1" id="Ebene_1" xmlns="http://www.w3.org/2000/svg" xmlns:xlink="http://www.w3.org/1999/xlink" x="0px" y="0px"
	 viewBox="0 0 42.5 42.5" style="enable-background:new 0 0 42.5 42.5;" xml:space="preserve">
<g>
	<g>
		<path d="M29.9,11.8c0.7,0,1.3-0.2,1.9-0.5l5.7-3.2V6.6l-6.4,3.5c-0.5,0.3-1,0.4-1.5,0.4l-7.9-0.1c-0.4-0.1-0.7-0.2-0.8-0.3
			c-2.4-0.5-4.4-0.3-5.7,0c-1,0.3-2.1,0.2-3.1-0.2L4,6.6v13.2l1.6,0.4c1.1,0.6,2,1.5,2.5,2.7l-0.4,0.3c-1.1,0.8-1.4,2.4-0.6,3.6
			c0.4,0.5,1,0.9,1.7,1c0.1,0,0.2,0,0.3,0c0.2,0,0.5,0,0.7,0c0,0.6,0.1,1.1,0.5,1.5c0.4,0.6,1.2,0.9,1.9,1c0.2,0,0.4,0,0.6,0
			c-0.1,0.6,0.1,1.2,0.5,1.7c0.4,0.5,1,0.9,1.7,1c0.1,0,0.2,0,0.3,0c0.6,0,1.2-0.1,1.6-0.5l0.3-0.2c0.1,0.4,0.2,0.7,0.4,1
			c0.3,0.5,0.8,0.8,1.4,0.9c0.1,0,0.2,0,0.2,0c0.5,0,1-0.1,1.4-0.4h0l0.3,0.4c0.5,0.8,1.6,0.9,2.4,0.4c0.6-0.4,0.9-1.3,0.6-2l0,0
			c0.4,0.7,1.2,1,2,0.8c1.1-0.3,1.6-1.4,1.3-2.3c0.6,0.7,1.7,0.8,2.4,0.3l0,0c0.8-0.5,1-1.5,0.6-2.3c0.7,0.6,1.7,0.7,2.5,0.2
			c0.9-0.6,1.1-1.9,0.5-2.8l-0.9-1.3l2-2.4c0.5-0.6,1.2-1.2,1.9-1.6l1.4-0.6v-1.6l-1.8,0.8c-0.8,0.5-1.5,1-2.1,1.7l-2.2,2.5
			c-0.7-0.6-1.7-0.7-2.5-0.2c-0.9,0.6-1.1,1.9-0.5,2.8l0,0.1h0c-0.6-0.4-1.5-0.5-2.1,0l0,0c-0.6,0.4-0.9,1.1-0.7,1.8l-0.2,0.2
			c-0.6-0.3-1.3-0.3-1.9,0.1c-0.5,0.4-0.8,1-0.8,1.7L22.1,31c-0.4-0.1-0.9,0-1.3,0.3c-0.5,0.3-0.7,0.9-0.7,1.4l-0.3,0.2
			c-0.2,0.2-0.5,0.2-0.7,0.2c-0.2-0.1-0.5-0.2-0.6-0.4c-0.2-0.2-0.2-0.5-0.2-0.7c0.1-0.2,0.2-0.5,0.4-0.6l3.2-2.4
			c0.2-0.1,0.3-0.3,0.3-0.5c0-0.4-0.3-0.7-0.6-0.7c-0.1,0-0.3,0-0.4,0.1l-5,3.6c-0.3,0.2-0.6,0.3-1,0.2c-0.4-0.1-0.7-0.2-0.9-0.5
			c-0.4-0.5-0.3-1.4,0.3-1.8l6-4.3c0.1-0.1,0.2-0.3,0.2-0.5c0-0.3-0.3-0.6-0.6-0.6c-0.2,0-0.4,0.1-0.5,0.2l-5.9,4.2
			c-0.2,0.1-0.3,0.2-0.4,0.3c-0.7,0.4-1.8,0.4-2.1-0.2c-0.4-0.5-0.3-1.3,0.2-1.7l0.6-0.4l6.5-4.5c0.2-0.1,0.3-0.3,0.3-0.5
			c0-0.2-0.1-0.4-0.3-0.5c-0.2-0.2-0.5-0.2-0.7,0l-7,4.8c0,0.1-0.1,0.1-0.2,0.2L10,26.4c-0.5,0.4-1.4,0.3-1.8-0.3
			c-0.4-0.5-0.3-1.4,0.3-1.8l12.8-9.5c1.1-0.1,2.2,1.3,2.2,1.7c1.2,3.8,2.3,3.9,3.3,3.6c0.5-0.2,1.2-0.7,1.1-1.2
			c-0.3-2.2-2.3-6.3-3.6-7l4.2,0.1L29.9,11.8z M29.9,11.8"/>
	</g>
</g>
</svg>
