<?xml version="1.0" encoding="utf-8"?>
<!-- Generator: Adobe Illustrator 21.1.0, SVG Export Plug-In . SVG Version: 6.00 Build 0)  -->
<svg version="1.1" id="Ebene_1" xmlns="http://www.w3.org/2000/svg" xmlns:xlink="http://www.w3.org/1999/xlink" x="0px" y="0px"
	 viewBox="0 0 42.5 42.5" style="enable-background:new 0 0 42.5 42.5;" xml:space="preserve">
<path d="M29.4,26.2c0.1-0.2,1.1-6.4,1.1-10.5C30.5,9.2,26.3,4,21.1,4c-1.9,0-3.6,0.7-5.1,1.9c-0.3,0.2-0.5,0.4-0.7,0.6
	c-2.2,2.1-3.6,5.5-3.6,9.2c0,4.4,0.9,10.1,0.8,10.1c-3,1.1-4.3,4.1-4.3,6.3V38H34v-5.9c0-2.4-1.3-5.4-3.4-5.8
	C29.5,26.1,29.4,26.2,29.4,26.2z M14.8,14.1c0-0.7-0.1-1.4-0.1-2.1c0-0.6,0.2-1.4,0.4-1.9c0.7,2.2,2.3,2.1,5,2.4
	c0.8,0.1,2.7,0.1,3.3,0.1c0.1-1.7-2.7-3.7-2.7-3.7s0.7-0.1,1.1,0c0.3,0,1,0.3,1.1,0.4c2.2,1.2,2,3,2.1,3c1.1-0.3,2-0.9,2.3-1.9
	c0.1,0.3,0.2,0.5,0.2,1c0.2,1.8-0.2,4-0.2,4l-0.2,1c-0.6,2.1-1.7,3.8-3.3,5.1c-0.8,0.7-1.7,1.1-2.6,1.1c-0.9,0-1.8-0.4-2.6-1.1
	c-1.6-1.3-2.8-3.5-3.4-5.7C15.1,15.9,14.9,14.9,14.8,14.1z M21.3,30.7c-0.7-0.1-4-2.6-4-2.6c-1-0.7-1.6-1.2-2.4-2c0,0,0.6-0.8,0.7-1
	c0.1-0.2,0.2-0.3,0.4-0.5c0.6-0.7,1.1-1.5,1.8-2.2c1,0.9,2.2,1.4,3.4,1.4c1.2,0,2.4-0.5,3.4-1.4c0.8,0.9,2.8,3.6,3,3.7
	c-0.5,0.7-2.4,1.8-2.4,1.8 M25.2,27.6"/>
</svg>
