<?xml version="1.0" encoding="utf-8"?>
<!-- Generator: Adobe Illustrator 21.1.0, SVG Export Plug-In . SVG Version: 6.00 Build 0)  -->
<svg version="1.1" id="Ebene_1" xmlns="http://www.w3.org/2000/svg" xmlns:xlink="http://www.w3.org/1999/xlink" x="0px" y="0px"
	 viewBox="0 0 42.5 42.5" style="enable-background:new 0 0 42.5 42.5;" xml:space="preserve">
<path d="M6.5,17.1H1.2c-0.6,0-1.2-0.5-1.2-1.2v0c0-0.6,0.5-1.2,1.2-1.2h5.3c0.6,0,1.2,0.5,1.2,1.2v0C7.7,16.6,7.1,17.1,6.5,17.1z"/>
<path d="M6.5,21.8h-3c-0.7,0-1.2-0.5-1.2-1.2v0c0-0.7,0.5-1.2,1.2-1.2h3c0.7,0,1.2,0.5,1.2,1.2v0C7.6,21.3,7.1,21.8,6.5,21.8z"/>
<path d="M6.5,26.5H5.2C4.5,26.5,4,26,4,25.3v0c0-0.6,0.5-1.2,1.2-1.2h1.4c0.6,0,1.2,0.5,1.2,1.2v0C7.7,26,7.2,26.5,6.5,26.5z"/>
<g>
	<path d="M12,16.5c0.4,0.3,1.7,1.1,3.9,2.5c2.1,1.4,3.8,2.4,4.9,3.1c0.1,0.1,0.4,0.3,0.8,0.5c0.4,0.3,0.7,0.5,1,0.7
		c0.3,0.2,0.6,0.4,1,0.6c0.4,0.2,0.7,0.4,1.1,0.5c0.3,0.1,0.7,0.2,0.9,0.2h0c0.3,0,0.6-0.1,0.9-0.2c0.3-0.1,0.7-0.3,1.1-0.5
		c0.4-0.2,0.7-0.4,1-0.6c0.3-0.2,0.6-0.4,1-0.7c0.4-0.3,0.7-0.4,0.8-0.5c1.2-0.7,4.1-2.6,8.8-5.6c0.9-0.6,1.7-1.3,2.3-2.1
		c0.6-0.8,0.9-1.7,0.9-2.6c0-0.8-0.3-1.4-0.9-1.9C41,9.3,40.3,9,39.5,9H11.8c-1,0-1.7,0.3-2.2,0.9c-0.5,0.6-0.8,1.3-0.8,2.2
		c0,0.7,0.3,1.5,1,2.3C10.5,15.3,11.2,16,12,16.5L12,16.5z M12,16.5"/>
	<path d="M40.6,18.3c-4.1,2.5-7.2,4.5-9.4,5.9c-0.7,0.5-1.3,0.9-1.7,1.1c-0.4,0.3-1,0.5-1.8,0.8c-0.7,0.3-1.4,0.4-2.1,0.4h0
		c-0.6,0-1.3-0.1-2.1-0.4c-0.7-0.3-1.3-0.6-1.8-0.8c-0.4-0.3-1-0.6-1.7-1.1c-1.7-1.1-4.8-3.1-9.4-5.9c-0.7-0.4-1.3-0.9-1.9-1.5v13.7
		c0,0.8,0.3,1.4,0.9,1.9c0.6,0.5,1.3,0.8,2.1,0.8h27.7c0.8,0,1.5-0.3,2.1-0.8c0.6-0.5,0.9-1.2,0.9-1.9V16.8
		C41.9,17.4,41.3,17.9,40.6,18.3L40.6,18.3z M40.6,18.3"/>
</g>
</svg>
