<?xml version="1.0" encoding="utf-8"?>
<!-- Generator: Adobe Illustrator 21.1.0, SVG Export Plug-In . SVG Version: 6.00 Build 0)  -->
<svg version="1.1" id="Ebene_1" xmlns="http://www.w3.org/2000/svg" xmlns:xlink="http://www.w3.org/1999/xlink" x="0px" y="0px"
	 viewBox="0 0 42.5 42.5" style="enable-background:new 0 0 42.5 42.5;" xml:space="preserve">
<g>
	<path d="M35.8,7.9C35.2,7.3,34.5,7,33.7,7H9C8.1,7,7.4,7.3,6.9,7.9C6.3,8.4,6,9.1,6,10v22.4c0,0.8,0.3,1.5,0.9,2.1
		C7.4,35,8.1,35.3,9,35.3h24.8c0.8,0,1.5-0.3,2.1-0.9c0.6-0.6,0.9-1.3,0.9-2.1V10C36.7,9.1,36.4,8.4,35.8,7.9L35.8,7.9z M20.2,33H9
		c-0.2,0-0.3-0.1-0.4-0.2c-0.1-0.1-0.2-0.3-0.2-0.4V11.7h11.8V33z M34.3,32.4c0,0.2-0.1,0.3-0.2,0.4C34,32.9,33.9,33,33.7,33H22.5
		V11.7h11.8V32.4z M34.3,32.4"/>
</g>
</svg>
