<?xml version="1.0" encoding="utf-8"?>
<!-- Generator: Adobe Illustrator 21.1.0, SVG Export Plug-In . SVG Version: 6.00 Build 0)  -->
<svg version="1.1" id="Ebene_1" xmlns="http://www.w3.org/2000/svg" xmlns:xlink="http://www.w3.org/1999/xlink" x="0px" y="0px"
	 viewBox="0 0 42.5 42.5" style="enable-background:new 0 0 42.5 42.5;" xml:space="preserve">
<path d="M32.1,7H10.2C8.5,7,7,8.5,7,10.2v21.9c0,1.8,1.5,3.2,3.2,3.2h21.9c1.8,0,3.2-1.5,3.2-3.2V10.2C35.4,8.5,33.9,7,32.1,7z
	 M32.5,31.1c0,0.8-0.6,1.4-1.4,1.4H11.3c-0.8,0-1.4-0.6-1.4-1.4V11.3c0-0.8,0.6-1.4,1.4-1.4h19.8c0.8,0,1.4,0.6,1.4,1.4V31.1z
	 M30.3,15.3c0.2,0.2,0.4,0.5,0.4,0.9s-0.1,0.6-0.4,0.9L19.2,28.2c-0.2,0.2-0.5,0.4-0.9,0.4s-0.6-0.1-0.9-0.4l-5.3-5.3
	c-0.2-0.2-0.4-0.5-0.4-0.9c0-0.3,0.1-0.6,0.4-0.9l0.3-0.3c0.2-0.2,0.5-0.4,0.9-0.4c0.3,0,0.6,0.1,0.9,0.4l4,4l9.9-9.9
	c0.2-0.2,0.5-0.4,0.9-0.4c0.3,0,0.6,0.1,0.9,0.4L30.3,15.3z"/>
</svg>
