<?xml version="1.0" encoding="utf-8"?>
<!-- Generator: Adobe Illustrator 23.0.1, SVG Export Plug-In . SVG Version: 6.00 Build 0)  -->
<svg version="1.1" id="Ebene_1" xmlns="http://www.w3.org/2000/svg" xmlns:xlink="http://www.w3.org/1999/xlink" x="0px" y="0px"
	 viewBox="0 0 42.52 42.52" style="enable-background:new 0 0 42.52 42.52;" xml:space="preserve">
<style type="text/css">
	.st0{fill-rule:evenodd;clip-rule:evenodd;}
	.st1{fill:#16A086;}
</style>
<path class="st0" d="M21.26,8.08c9.69,0,17.97,6.06,21.26,14.6l-10.63,4.09c-1.64-4.27-5.78-7.3-10.62-7.3
	c-0.91,0-1.8,0.11-2.65,0.31l-7.23-9.44C14.37,8.89,17.72,8.08,21.26,8.08L21.26,8.08z"/>
<path class="st1" d="M22.7,33.11c0.47-0.22,0.86-0.53,1.16-0.9c0.76-0.94,0.97-2.26,0.42-3.43c-0.1-0.22-0.24-0.45-0.39-0.63
	l-9.05-11.57l-3.44-4.41L9.27,9.43c-0.25-0.32-0.65-0.24-0.85,0C8.3,9.57,8.26,9.78,8.36,9.99l1.52,3.27l2.24,4.82l6.25,13.44
	C19.13,33.16,21.06,33.87,22.7,33.11L22.7,33.11z M20.09,29c0.56-0.69,1.56-0.79,2.25-0.24c0.69,0.56,0.79,1.56,0.24,2.25
	c-0.56,0.69-1.56,0.79-2.25,0.24C19.64,30.69,19.54,29.69,20.09,29L20.09,29z M20.09,29"/>
<path class="st0" d="M13.38,22.64c-1.2,1.15-2.15,2.55-2.75,4.13L0,22.68c1.63-4.22,4.48-7.85,8.11-10.42L13.38,22.64z"/>
</svg>
