<?xml version="1.0" encoding="utf-8"?>
<!-- Generator: Adobe Illustrator 21.1.0, SVG Export Plug-In . SVG Version: 6.00 Build 0)  -->
<svg version="1.1" id="Ebene_1" xmlns="http://www.w3.org/2000/svg" xmlns:xlink="http://www.w3.org/1999/xlink" x="0px" y="0px"
	 viewBox="0 0 42.5 42.5" style="enable-background:new 0 0 42.5 42.5;" xml:space="preserve">
<path d="M31.5,17.1h-0.7v-3.3c0,0,0,0,0-0.1c0-0.1,0-0.3-0.1-0.4l-5.5-6.2c0,0,0,0,0,0c0,0-0.1-0.1-0.1-0.1c0,0,0,0,0,0
	c0,0-0.1,0-0.1,0c0,0,0,0,0,0c0,0-0.1,0-0.1,0H11.4c-0.6,0-1.1,0.5-1.1,1.1v9H9.6c-0.9,0-1.6,0.7-1.6,1.6V27c0,0.9,0.7,1.6,1.6,1.6
	h0.7v5.7c0,0.6,0.5,1.1,1.1,1.1h18.3c0.6,0,1.1-0.5,1.1-1.1v-5.7h0.7c0.9,0,1.6-0.7,1.6-1.6v-8.3C33.1,17.8,32.4,17.1,31.5,17.1
	L31.5,17.1z M11.4,8.1h12.9v5.7c0,0.3,0.2,0.6,0.6,0.6h4.9v2.8H11.4V8.1z M29.7,33.9H11.4v-5.4h18.3V33.9z M27.8,26.3 M16.5,24.8
	h-1.8l-0.3,1.5H13l2-7.6h1.2l2,7.6h-1.4L16.5,24.8z M15,23.5h1.2l-0.6-2.7L15,23.5z M21.8,24.8h-1.8l-0.3,1.5h-1.4l2-7.6h1.2l2,7.6
	h-1.4L21.8,24.8z M20.4,23.5h1.2L21,20.8L20.4,23.5z M28.4,23.8c0,0.9-0.2,1.5-0.6,2s-0.9,0.7-1.6,0.7c-0.7,0-1.3-0.3-1.7-0.8
	C24.1,25,24,24.2,24,23.2v-1.3c0-1,0.2-1.8,0.6-2.4s1-0.8,1.7-0.8c0.7,0,1.2,0.2,1.6,0.7c0.4,0.5,0.6,1.1,0.6,2h-1.3
	c0-0.5-0.1-0.9-0.2-1.1c-0.1-0.2-0.4-0.3-0.7-0.3c-0.3,0-0.6,0.1-0.7,0.4s-0.2,0.8-0.2,1.4v1.4c0,0.8,0.1,1.3,0.2,1.5
	c0.1,0.3,0.4,0.4,0.7,0.4c0.3,0,0.6-0.1,0.7-0.3c0.1-0.2,0.2-0.5,0.2-1.1H28.4z"/>
</svg>
