<?xml version="1.0" encoding="utf-8"?>
<!-- Generator: Adobe Illustrator 21.1.0, SVG Export Plug-In . SVG Version: 6.00 Build 0)  -->
<svg version="1.1" id="Ebene_1" xmlns="http://www.w3.org/2000/svg" xmlns:xlink="http://www.w3.org/1999/xlink" x="0px" y="0px"
	 viewBox="0 0 42.5 42.5" style="enable-background:new 0 0 42.5 42.5;" xml:space="preserve">
<path d="M38.2,29.9v3.9c0,0.2-0.1,0.3-0.2,0.5s-0.3,0.2-0.5,0.2H10.5c-0.2,0-0.3-0.1-0.5-0.2c-0.1-0.1-0.2-0.3-0.2-0.5v-3.9
	c0-0.2,0.1-0.3,0.2-0.5c0.1-0.1,0.3-0.2,0.5-0.2h27.1c0.2,0,0.3,0.1,0.5,0.2C38.1,29.5,38.2,29.7,38.2,29.9z M38.2,18.7v3.9
	c0,0.2-0.1,0.3-0.2,0.5c-0.1,0.1-0.3,0.2-0.5,0.2H10.5c-0.2,0-0.3-0.1-0.5-0.2c-0.1-0.1-0.2-0.3-0.2-0.5v-3.9c0-0.2,0.1-0.3,0.2-0.5
	c0.1-0.1,0.3-0.2,0.5-0.2h27.1c0.2,0,0.3,0.1,0.5,0.2S38.2,18.5,38.2,18.7z M38.2,7.7v3.9c0,0.2-0.1,0.3-0.2,0.5s-0.3,0.2-0.5,0.2
	H10.5c-0.2,0-0.3-0.1-0.5-0.2c-0.1-0.1-0.2-0.3-0.2-0.5V7.7c0-0.2,0.1-0.3,0.2-0.5C10.1,7.1,10.3,7,10.5,7h27.1
	c0.2,0,0.3,0.1,0.5,0.2S38.2,7.5,38.2,7.7z M5.7,6.2C5.7,6.2,5.7,6.2,5.7,6.2l0,5.3c0,0.2,0.1,0.4,0.2,0.4s0.3,0.1,0.7,0.1v0.1H4.1
	v-0.1c0.4,0,0.6-0.1,0.7-0.1S5,11.7,5,11.4V7.4c0-0.1,0-0.2-0.1-0.3S4.8,6.9,4.7,6.9C4.6,6.9,4.5,7,4.4,7C4.3,7,4.2,7.1,4,7.1V7
	L5.7,6.2L5.7,6.2C5.7,6.2,5.7,6.2,5.7,6.2z M3.3,23.1c1.1-1.1,1.8-1.9,2.2-2.5s0.6-1,0.6-1.5c0-0.4-0.1-0.8-0.4-1s-0.5-0.3-0.8-0.3
	c-0.4,0-0.7,0.1-1,0.4c-0.1,0.2-0.3,0.4-0.4,0.7l-0.2,0c0.1-0.7,0.4-1.1,0.7-1.4s0.7-0.4,1.1-0.4c0.5,0,0.9,0.2,1.2,0.5
	c0.3,0.3,0.5,0.7,0.5,1.1c0,0.5-0.2,0.9-0.5,1.4c-0.3,0.4-1.1,1.2-2.2,2.4h2c0.3,0,0.5,0,0.6-0.1s0.2-0.2,0.4-0.5L7.3,22l-0.5,1.2
	H3.3V23.1z M4.4,33.7C4.7,33.9,4.9,34,5.1,34c0.4,0,0.7-0.1,0.9-0.4s0.3-0.6,0.3-0.9c0-0.3-0.1-0.6-0.2-0.8
	c-0.3-0.4-0.7-0.6-1.4-0.6c0,0-0.1,0-0.1,0c0,0-0.1,0-0.1,0l0-0.1c0.5-0.2,0.8-0.4,1.1-0.6s0.4-0.5,0.4-0.9c0-0.3-0.1-0.6-0.3-0.7
	c-0.2-0.2-0.5-0.3-0.7-0.3c-0.3,0-0.6,0.1-0.9,0.4c-0.1,0.1-0.3,0.3-0.4,0.6l-0.1,0c0.1-0.4,0.3-0.8,0.7-1.1s0.7-0.4,1.1-0.4
	c0.4,0,0.8,0.1,1,0.4c0.2,0.2,0.4,0.5,0.4,0.9c0,0.3-0.1,0.5-0.3,0.8c-0.1,0.1-0.3,0.3-0.5,0.5c0.3,0.1,0.5,0.3,0.7,0.4
	c0.3,0.3,0.5,0.7,0.5,1.2c0,0.6-0.2,1-0.7,1.5s-1.1,0.6-1.9,0.6c-0.4,0-0.6-0.1-0.8-0.2c-0.1-0.1-0.2-0.2-0.2-0.3
	c0-0.1,0-0.1,0.1-0.2c0-0.1,0.1-0.1,0.2-0.1C3.9,33.5,4.1,33.5,4.4,33.7z"/>
</svg>
