<?xml version="1.0" encoding="utf-8"?>
<!-- Generator: Adobe Illustrator 21.1.0, SVG Export Plug-In . SVG Version: 6.00 Build 0)  -->
<svg version="1.1" id="Ebene_1" xmlns="http://www.w3.org/2000/svg" xmlns:xlink="http://www.w3.org/1999/xlink" x="0px" y="0px"
	 viewBox="0 0 42.5 42.5" style="enable-background:new 0 0 42.5 42.5;" xml:space="preserve">
<path d="M14.2,20.9c-2,0.1-3.7,0.9-5,2.4H6.7c-1,0-1.9-0.3-2.6-0.8C3.4,22.1,3,21.3,3,20.3c0-4.4,0.8-6.7,2.3-6.7
	c0.1,0,0.3,0.1,0.8,0.4c0.5,0.3,1.1,0.5,1.8,0.8c0.8,0.3,1.5,0.4,2.2,0.4c0.8,0,1.7-0.1,2.5-0.4c-0.1,0.5-0.1,0.9-0.1,1.2
	C12.7,17.8,13.2,19.4,14.2,20.9z M34.7,33.1c0,1.5-0.5,2.7-1.4,3.6c-0.9,0.9-2.1,1.3-3.7,1.3H13.2c-1.5,0-2.7-0.4-3.7-1.3
	c-0.9-0.9-1.4-2.1-1.4-3.6c0-0.7,0-1.3,0.1-2s0.1-1.3,0.3-2.1c0.1-0.7,0.3-1.4,0.5-2s0.5-1.2,0.8-1.8c0.3-0.6,0.7-1.1,1.2-1.5
	c0.4-0.4,1-0.8,1.6-1s1.3-0.4,2.1-0.4c0.1,0,0.4,0.1,0.8,0.4c0.4,0.3,0.9,0.6,1.4,0.9s1.2,0.6,2,0.9c0.8,0.3,1.7,0.4,2.5,0.4
	s1.7-0.1,2.5-0.4c0.8-0.3,1.5-0.6,2-0.9c0.5-0.3,1-0.6,1.4-0.9s0.7-0.4,0.8-0.4c0.8,0,1.5,0.1,2.1,0.4s1.2,0.6,1.6,1
	c0.4,0.4,0.8,0.9,1.2,1.5c0.3,0.6,0.6,1.2,0.8,1.8c0.2,0.6,0.4,1.3,0.5,2c0.1,0.7,0.2,1.4,0.3,2.1S34.7,32.5,34.7,33.1z M15.1,8.8
	c0,1.3-0.5,2.5-1.4,3.4s-2.1,1.4-3.4,1.4s-2.5-0.5-3.4-1.4s-1.4-2.1-1.4-3.4s0.5-2.5,1.4-3.4S8.9,4,10.2,4s2.5,0.5,3.4,1.4
	S15.1,7.5,15.1,8.8z M27.8,16.1c0,1.8-0.6,3.3-1.9,4.5c-1.3,1.3-2.8,1.9-4.5,1.9c-1.8,0-3.3-0.6-4.5-1.9c-1.3-1.3-1.9-2.8-1.9-4.5
	s0.6-3.3,1.9-4.5s2.8-1.9,4.5-1.9c1.8,0,3.3,0.6,4.5,1.9C27.2,12.8,27.8,14.3,27.8,16.1z M39.8,20.3c0,1-0.4,1.7-1.1,2.2
	c-0.7,0.5-1.6,0.8-2.6,0.8h-2.5c-1.3-1.5-3-2.4-5-2.4c1-1.5,1.5-3.1,1.5-4.8c0-0.4,0-0.8-0.1-1.2c0.8,0.3,1.7,0.4,2.5,0.4
	c0.7,0,1.5-0.1,2.2-0.4c0.8-0.3,1.4-0.5,1.8-0.8c0.5-0.3,0.7-0.4,0.8-0.4C39,13.7,39.8,15.9,39.8,20.3z M37.4,8.8
	c0,1.3-0.5,2.5-1.4,3.4c-0.9,0.9-2.1,1.4-3.4,1.4c-1.3,0-2.5-0.5-3.4-1.4c-0.9-0.9-1.4-2.1-1.4-3.4s0.5-2.5,1.4-3.4
	C30.1,4.5,31.2,4,32.6,4C33.9,4,35,4.5,36,5.4C36.9,6.4,37.4,7.5,37.4,8.8z"/>
</svg>
