<?xml version="1.0" encoding="utf-8"?>
<!-- Generator: Adobe Illustrator 21.1.0, SVG Export Plug-In . SVG Version: 6.00 Build 0)  -->
<svg version="1.1" id="Ebene_1" xmlns="http://www.w3.org/2000/svg" xmlns:xlink="http://www.w3.org/1999/xlink" x="0px" y="0px"
	 viewBox="0 0 42.5 42.5" style="enable-background:new 0 0 42.5 42.5;" xml:space="preserve">
<path d="M32.5,17.1h-0.7v-3.3c0,0,0,0,0-0.1c0-0.1,0-0.3-0.1-0.4l-5.5-6.2c0,0,0,0,0,0c0,0-0.1-0.1-0.1-0.1c0,0,0,0,0,0
	c0,0-0.1,0-0.1,0c0,0,0,0,0,0c0,0-0.1,0-0.1,0H12.4c-0.6,0-1.1,0.5-1.1,1.1v9h-0.7c-0.9,0-1.6,0.7-1.6,1.6V27c0,0.9,0.7,1.6,1.6,1.6
	h0.7v5.7c0,0.6,0.5,1.1,1.1,1.1h18.3c0.6,0,1.1-0.5,1.1-1.1v-5.7h0.7c0.9,0,1.6-0.7,1.6-1.6v-8.3C34.1,17.8,33.4,17.1,32.5,17.1
	L32.5,17.1z M25.7,22.4c0,2.5-1.5,4.1-3.8,4.1c-2.3,0-3.6-1.7-3.6-3.9c0-2.3,1.5-4,3.8-4C24.4,18.5,25.7,20.3,25.7,22.4L25.7,22.4z
	 M10.7,26.3v-7.6c0.6-0.1,1.5-0.2,2.4-0.2c1.5,0,2.4,0.3,3.2,0.8c0.8,0.6,1.3,1.5,1.3,2.9c0,1.5-0.5,2.5-1.3,3.1c-0.8,0.7-2,1-3.6,1
	C11.8,26.4,11.1,26.4,10.7,26.3L10.7,26.3z M30.8,25c0.5,0,1.1-0.1,1.5-0.3l0.3,1.4c-0.3,0.2-1,0.3-2,0.3c-2.7,0-4-1.7-4-3.9
	c0-2.6,1.9-4.1,4.2-4.1c0.9,0,1.6,0.2,1.9,0.3l-0.4,1.4c-0.4-0.1-0.8-0.3-1.5-0.3c-1.4,0-2.5,0.8-2.5,2.5C28.3,24,29.3,25,30.8,25
	L30.8,25z M30.8,25 M15.7,22.4c0-1.6-0.9-2.4-2.4-2.4c-0.4,0-0.6,0-0.8,0.1v5c0.1,0,0.4,0,0.6,0C14.6,25.1,15.7,24.2,15.7,22.4
	L15.7,22.4z M15.7,22.4 M20.2,22.5c0,1.5,0.7,2.6,1.9,2.6c1.2,0,1.9-1.1,1.9-2.6c0-1.4-0.7-2.6-1.9-2.6C20.8,19.9,20.2,21,20.2,22.5
	L20.2,22.5z M20.2,22.5 M23.4,8.4c0.4,0.1,0.6,0.3,0.8,0.4l5.3,5.9c0.2,0.2,0.3,0.4,0.4,0.8h-6.5V8.4z"/>
</svg>
