<?xml version="1.0" encoding="utf-8"?>
<!-- Generator: Adobe Illustrator 21.1.0, SVG Export Plug-In . SVG Version: 6.00 Build 0)  -->
<svg version="1.1" id="Ebene_1" xmlns="http://www.w3.org/2000/svg" xmlns:xlink="http://www.w3.org/1999/xlink" x="0px" y="0px"
	 viewBox="0 0 42.5 42.5" style="enable-background:new 0 0 42.5 42.5;" xml:space="preserve">
<path d="M16,15.5c-0.4-0.3-1-0.3-1.5-0.1c-0.9,0.4-1.8,0.6-2.7,0.7v-1.5c1.9-0.5,3.2-2.2,3.2-4.2c0-0.9-0.5-2.1-1.6-3.7
	c-0.8-1.1-1.6-2-1.9-2.4C11.4,4.1,11.1,4,10.8,4c0,0,0,0,0,0c-0.3,0-0.6,0.1-0.8,0.4C9.6,4.7,8.8,5.7,8.1,6.8
	C7,8.3,6.5,9.5,6.5,10.4c0,2.1,1.4,3.8,3.4,4.2v1.5C8.9,16,8,15.8,7.2,15.4c-0.5-0.2-1-0.2-1.5,0.1C5.3,15.8,5,16.3,5,16.8v18.8
	C5,36.9,6.1,38,7.4,38h6.9c1.3,0,2.4-1.1,2.4-2.4V16.8C16.7,16.3,16.4,15.8,16,15.5z M8.5,10.4c0-0.7,0.9-2.3,2.3-4
	c1.4,1.7,2.3,3.3,2.3,4c0,0.9-0.5,1.7-1.3,2.1v-1.2c0-0.5-0.4-1-1-1c-0.5,0-1,0.4-1,1v1.3C9,12.2,8.5,11.4,8.5,10.4z M14.7,35.6
	c0,0.2-0.2,0.4-0.4,0.4H7.4C7.2,36,7,35.8,7,35.6V17.5c1.2,0.5,2.5,0.7,3.8,0.7c0,0,0,0,0,0c0,0,0,0,0,0c1.3,0,2.6-0.2,3.8-0.7V35.6
	z M30.4,17.7l4.4,4.9L23.4,32.9l-4.7-0.2L19,28L30.4,17.7z M37.4,20.2l-1.6,1.4l-4.4-4.9l1.6-1.4c0.3-0.3,0.7-0.4,1.1-0.4
	c0.4,0,0.8,0.2,1.1,0.5l2.3,2.6c0.3,0.3,0.4,0.7,0.4,1.1C37.9,19.6,37.8,19.9,37.4,20.2z M22.8,31.3l2-1.8l-2.3-2.6l-2,1.8l0,0.9
	l1.6,0.1l-0.1,1.6L22.8,31.3z M30.5,20c-0.2-0.2-0.3-0.2-0.5,0l-6,5.4c-0.2,0.2-0.2,0.4,0,0.5s0.3,0.2,0.5,0l6-5.4
	C30.7,20.4,30.7,20.2,30.5,20z"/>
</svg>
