<?xml version="1.0" encoding="utf-8"?>
<!-- Generator: Adobe Illustrator 21.1.0, SVG Export Plug-In . SVG Version: 6.00 Build 0)  -->
<svg version="1.1" id="Ebene_1" xmlns="http://www.w3.org/2000/svg" xmlns:xlink="http://www.w3.org/1999/xlink" x="0px" y="0px"
	 viewBox="0 0 42.5 42.5" style="enable-background:new 0 0 42.5 42.5;" xml:space="preserve">
<path d="M34.5,11.2c0.4,0.4,0.7,0.8,0.9,1.4c0.3,0.6,0.4,1.2,0.4,1.7v21.9c0,0.5-0.2,0.9-0.5,1.3S34.4,38,33.9,38H8.4
	c-0.5,0-0.9-0.2-1.3-0.5c-0.3-0.4-0.5-0.8-0.5-1.3V5.8c0-0.5,0.2-0.9,0.5-1.3C7.5,4.2,7.9,4,8.4,4h17c0.5,0,1.1,0.1,1.7,0.4
	s1.1,0.6,1.4,0.9L34.5,11.2z M26,6.6v7.1h7.1c-0.1-0.4-0.3-0.6-0.4-0.8L26.8,7C26.7,6.8,26.4,6.7,26,6.6z M33.3,35.6V16.2h-7.9
	c-0.5,0-0.9-0.2-1.3-0.5c-0.4-0.4-0.5-0.8-0.5-1.3v-8H9v29.2C9,35.6,33.3,35.6,33.3,35.6z M21.2,32.3c0,0.4-0.2,0.7-0.5,0.8
	c-0.1,0.1-0.3,0.1-0.4,0.1c-0.2,0-0.4-0.1-0.6-0.2l-5-4.1h-2.6c-0.5,0-0.9-0.4-0.9-0.9v-3.6c0-0.5,0.4-0.9,0.9-0.9h2.6l5-4.1
	c0.3-0.2,0.6-0.3,1-0.1c0.3,0.1,0.5,0.5,0.5,0.8V32.3z M24.7,30.9L24.7,30.9c-0.3,0-0.5-0.1-0.7-0.3l-0.1-0.1
	c-0.3-0.3-0.4-0.8-0.1-1.2c0.7-0.9,1-2,1-3.1c0-1.2-0.4-2.4-1.2-3.3c-0.3-0.4-0.3-0.9,0.1-1.2l0.1-0.1c0.2-0.2,0.4-0.3,0.7-0.3
	c0.3,0,0.5,0.1,0.7,0.3c1.1,1.3,1.6,2.9,1.6,4.6c0,1.6-0.5,3.1-1.4,4.4C25.2,30.7,25,30.9,24.7,30.9L24.7,30.9z M28.5,33.7
	c-0.2,0.2-0.4,0.3-0.7,0.3l0,0c-0.2,0-0.5-0.1-0.6-0.3l-0.1-0.1c-0.3-0.3-0.4-0.9-0.1-1.2c1.5-1.7,2.3-4,2.3-6.2
	c0-2.4-0.9-4.6-2.4-6.4c-0.3-0.4-0.3-0.9,0-1.2l0.1-0.1c0.2-0.2,0.4-0.3,0.7-0.3c0.3,0,0.5,0.1,0.7,0.3c1.9,2.1,2.9,4.9,2.9,7.7
	C31.2,28.9,30.2,31.6,28.5,33.7L28.5,33.7z"/>
</svg>
