<?xml version="1.0" encoding="utf-8"?>
<!-- Generator: Adobe Illustrator 21.1.0, SVG Export Plug-In . SVG Version: 6.00 Build 0)  -->
<svg version="1.1" id="Ebene_1" xmlns="http://www.w3.org/2000/svg" xmlns:xlink="http://www.w3.org/1999/xlink" x="0px" y="0px"
	 viewBox="0 0 42.5 42.5" style="enable-background:new 0 0 42.5 42.5;" xml:space="preserve">
<path d="M22.2,38c-1,0-1.9-0.2-2.8-0.6c-0.9-0.4-1.6-0.9-2.3-1.6c-0.7-0.7-1.2-1.4-1.6-2.3c-0.4-0.9-0.6-1.9-0.6-2.8
	c0-1.2,0.3-2.3,0.8-3.3c0.5-0.9,1.1-1.7,1.9-2.3V7.5c0-1.9,1.6-3.5,3.5-3.5h2.2c1.9,0,3.5,1.6,3.5,3.5v17.6c0.8,0.6,1.4,1.4,1.9,2.3
	c0.5,1,0.8,2.2,0.8,3.3c0,1-0.2,1.9-0.6,2.8c-0.4,0.9-0.9,1.6-1.6,2.3c-0.7,0.7-1.4,1.2-2.3,1.6C24.2,37.8,23.2,38,22.2,38L22.2,38z
	 M21.1,5.4c-1.1,0-2,0.9-2,2v18c0,0.2-0.1,0.4-0.3,0.6c-1.5,1.1-2.4,2.9-2.4,4.7c0,3.2,2.6,5.8,5.8,5.8s5.8-2.6,5.8-5.8
	c0-1.9-0.9-3.6-2.4-4.7c-0.2-0.1-0.3-0.3-0.3-0.6v-18c0-1.1-0.9-2-2-2H21.1z M21.1,5.4 M23.7,26.6V11c0-0.6-0.5-1.1-1.1-1.1h-0.8
	c-0.6,0-1.1,0.5-1.1,1.1v15.6c-1.7,0.6-2.9,2.3-2.9,4.2c0,2.5,2,4.4,4.4,4.4s4.4-2,4.4-4.4C26.7,28.8,25.4,27.2,23.7,26.6L23.7,26.6
	z M21.2,29.3c-0.3,0.3-0.5,0.7-0.6,1.1c0,0.2,0,0.5,0,0.7c0.1,0.3-0.1,0.6-0.4,0.6c0,0-0.1,0-0.1,0c-0.3,0-0.5-0.2-0.5-0.4
	c-0.1-0.4-0.1-0.7,0-1.1c0.1-0.7,0.5-1.3,1-1.7c0.2-0.2,0.6-0.2,0.8,0C21.5,28.8,21.5,29.1,21.2,29.3L21.2,29.3z M21.2,29.3 M15,9.2
	c0,0.3-0.3,0.6-0.6,0.6h-1.2c-0.3,0-0.6-0.3-0.6-0.6V8.6c0-0.3,0.3-0.6,0.6-0.6h1.2C14.7,8,15,8.3,15,8.6V9.2z M15,9.2 M15,13
	c0,0.3-0.3,0.6-0.6,0.6h-1.2c-0.3,0-0.6-0.3-0.6-0.6v-0.6c0-0.3,0.3-0.6,0.6-0.6h1.2c0.3,0,0.6,0.3,0.6,0.6V13z M15,13 M15,16.9
	c0,0.3-0.3,0.6-0.6,0.6h-1.2c-0.3,0-0.6-0.3-0.6-0.6v-0.6c0-0.3,0.3-0.6,0.6-0.6h1.2c0.3,0,0.6,0.3,0.6,0.6V16.9z M15,16.9 M15,20.7
	c0,0.3-0.3,0.6-0.6,0.6h-1.2c-0.3,0-0.6-0.3-0.6-0.6V20c0-0.3,0.3-0.6,0.6-0.6h1.2c0.3,0,0.6,0.3,0.6,0.6V20.7z M15,20.7 M15,24.5
	c0,0.3-0.3,0.6-0.6,0.6h-1.2c-0.3,0-0.6-0.3-0.6-0.6v-0.6c0-0.3,0.3-0.6,0.6-0.6h1.2c0.3,0,0.6,0.3,0.6,0.6V24.5z M15,24.5"/>
</svg>
