<?xml version="1.0" encoding="utf-8"?>
<!-- Generator: Adobe Illustrator 21.1.0, SVG Export Plug-In . SVG Version: 6.00 Build 0)  -->
<svg version="1.1" id="Ebene_1" xmlns="http://www.w3.org/2000/svg" xmlns:xlink="http://www.w3.org/1999/xlink" x="0px" y="0px"
	 viewBox="0 0 42.5 42.5" style="enable-background:new 0 0 42.5 42.5;" xml:space="preserve">
<style type="text/css">
	.st0{fill:#FFFFFF;}
</style>
<path d="M7.2,28.7v3.9c0,0.2-0.1,0.3-0.2,0.5s-0.3,0.2-0.5,0.2H2.6c-0.2,0-0.3-0.1-0.5-0.2C2.1,32.9,2,32.8,2,32.6v-3.9
	c0-0.2,0.1-0.3,0.2-0.5c0.1-0.1,0.3-0.2,0.5-0.2h3.9c0.2,0,0.3,0.1,0.5,0.2S7.2,28.5,7.2,28.7z M7.2,19.2v3.9c0,0.2-0.1,0.3-0.2,0.5
	c-0.1,0.1-0.3,0.2-0.5,0.2H2.6c-0.2,0-0.3-0.1-0.5-0.2C2.1,23.4,2,23.3,2,23.1v-3.9c0-0.2,0.1-0.3,0.2-0.5c0.1-0.1,0.3-0.2,0.5-0.2
	h3.9c0.2,0,0.3,0.1,0.5,0.2C7.1,18.9,7.2,19,7.2,19.2z M7.2,9.6v3.9c0,0.2-0.1,0.3-0.2,0.5c-0.1,0.1-0.3,0.2-0.5,0.2H2.6
	c-0.2,0-0.3-0.1-0.5-0.2C2.1,13.8,2,13.7,2,13.5V9.6c0-0.2,0.1-0.3,0.2-0.5C2.3,9.1,2.5,9,2.6,9h3.9C6.7,9,6.8,9.1,7,9.2
	S7.2,9.5,7.2,9.6z M40,28.7v3.9c0,0.2-0.1,0.3-0.2,0.5s-0.3,0.2-0.5,0.2H12.3c-0.2,0-0.3-0.1-0.5-0.2c-0.1-0.1-0.2-0.3-0.2-0.5v-3.9
	c0-0.2,0.1-0.3,0.2-0.5c0.1-0.1,0.3-0.2,0.5-0.2h27.1c0.2,0,0.3,0.1,0.5,0.2S40,28.5,40,28.7z M40,19.2v3.9c0,0.2-0.1,0.3-0.2,0.5
	c-0.1,0.1-0.3,0.2-0.5,0.2H12.3c-0.2,0-0.3-0.1-0.5-0.2c-0.1-0.1-0.2-0.3-0.2-0.5v-3.9c0-0.2,0.1-0.3,0.2-0.5
	c0.1-0.1,0.3-0.2,0.5-0.2h27.1c0.2,0,0.3,0.1,0.5,0.2C40,18.9,40,19,40,19.2z M40,9.6v3.9c0,0.2-0.1,0.3-0.2,0.5
	c-0.1,0.1-0.3,0.2-0.5,0.2H12.3c-0.2,0-0.3-0.1-0.5-0.2c-0.1-0.1-0.2-0.3-0.2-0.5V9.6c0-0.2,0.1-0.3,0.2-0.5C12,9.1,12.1,9,12.3,9
	h27.1c0.2,0,0.3,0.1,0.5,0.2S40,9.5,40,9.6z"/>
<path class="st0" d="M6.2,10.3v2.5c0,0.1,0,0.2-0.1,0.3c-0.1,0.1-0.2,0.1-0.3,0.1H3.3c-0.1,0-0.2,0-0.3-0.1C3,13,2.9,12.9,2.9,12.8
	v-2.5c0-0.1,0-0.2,0.1-0.3C3.1,10,3.2,9.9,3.3,9.9h2.5c0.1,0,0.2,0,0.3,0.1C6.2,10.1,6.2,10.2,6.2,10.3z"/>
<path class="st0" d="M6.2,20v2.5c0,0.1,0,0.2-0.1,0.3c-0.1,0.1-0.2,0.1-0.3,0.1H3.3c-0.1,0-0.2,0-0.3-0.1c-0.1-0.1-0.1-0.2-0.1-0.3
	V20c0-0.1,0-0.2,0.1-0.3c0.1-0.1,0.2-0.1,0.3-0.1h2.5c0.1,0,0.2,0,0.3,0.1C6.2,19.8,6.2,19.9,6.2,20z"/>
<path class="st0" d="M6.2,29.5V32c0,0.1,0,0.2-0.1,0.3c-0.1,0.1-0.2,0.1-0.3,0.1H3.3c-0.1,0-0.2,0-0.3-0.1C3,32.2,2.9,32.1,2.9,32
	v-2.5c0-0.1,0-0.2,0.1-0.3s0.2-0.1,0.3-0.1h2.5c0.1,0,0.2,0,0.3,0.1C6.2,29.3,6.2,29.4,6.2,29.5z"/>
</svg>
