<?xml version="1.0" encoding="utf-8"?>
<!-- Generator: Adobe Illustrator 21.1.0, SVG Export Plug-In . SVG Version: 6.00 Build 0)  -->
<svg version="1.1" id="Ebene_1" xmlns="http://www.w3.org/2000/svg" xmlns:xlink="http://www.w3.org/1999/xlink" x="0px" y="0px"
	 viewBox="0 0 42.5 42.5" style="enable-background:new 0 0 42.5 42.5;" xml:space="preserve">
<path d="M11.8,21.2v9.4H7.1v-9.4H11.8z M18.9,11.7v18.9h-4.7V11.7H18.9z M37.8,32.9v2.4H0V7h2.4v25.9H37.8z M26,25.4v5.2h-4.7v-5.2
	H26z M33.1,9.4v9.2h-4.7V9.4H33.1z M26.1,15.9v2.7h-4.7v-2.7H26.1z M33.1,25.5v5.1h-4.7v-5.1H33.1z M42.5,22.1
	c0,0.3-0.1,0.5-0.3,0.7L37,28c-0.2,0.2-0.4,0.3-0.7,0.3c-0.3,0-0.5-0.1-0.7-0.3L35,27.4c-0.2-0.2-0.3-0.4-0.3-0.7s0.1-0.5,0.3-0.7
	l2.3-2.3H22.2c-0.3,0-0.5-0.1-0.7-0.3c-0.2-0.2-0.3-0.4-0.3-0.7v-1c0-0.3,0.1-0.5,0.3-0.7c0.2-0.2,0.4-0.3,0.7-0.3h15.2L35,18.2
	c-0.2-0.2-0.3-0.4-0.3-0.7c0-0.3,0.1-0.5,0.3-0.7l0.6-0.6c0.2-0.2,0.4-0.3,0.7-0.3c0.3,0,0.5,0.1,0.7,0.3l5.2,5.2
	C42.4,21.5,42.5,21.8,42.5,22.1z"/>
</svg>
