<?xml version="1.0" encoding="utf-8"?>
<!-- Generator: Adobe Illustrator 21.1.0, SVG Export Plug-In . SVG Version: 6.00 Build 0)  -->
<svg version="1.1" id="Ebene_1" xmlns="http://www.w3.org/2000/svg" xmlns:xlink="http://www.w3.org/1999/xlink" x="0px" y="0px"
	 viewBox="0 0 42.5 42.5" style="enable-background:new 0 0 42.5 42.5;" xml:space="preserve">
<path d="M22.9,26.2H2.5c-0.2,0-0.3-0.1-0.4-0.2c-0.1-0.1-0.2-0.2-0.2-0.4V12c0.4,0.4,1.3,1.1,1.8,1.4c3.4,2.4,6,4.3,8,5.8
	c0.6,0.5,1.2,0.9,1.6,1.2c0.4,0.3,0.9,0.6,1.6,0.8s1.3,0.4,1.9,0.4h0c0.6,0,1.2-0.1,1.9-0.4s1.2-0.6,1.6-0.8
	c0.4-0.3,0.9-0.7,1.6-1.2c2-1.5,4.7-3.5,8-5.8c0.5-0.3,1.4-1,1.8-1.4v6.3c0.3,0,0.5,0,0.8,0c0.4,0,0.8,0,1.2,0.1V6.8
	c0-0.8-0.3-1.4-0.9-1.9C32.3,4.3,31.6,4,30.7,4H3C2.2,4,1.5,4.3,0.9,4.8C0.3,5.3,0,6,0,6.8v18.7c0,0.8,0.3,1.4,0.9,1.9
	c0.6,0.5,1.3,0.8,2.1,0.8h19.7c0,0,0-0.1,0-0.1C22.7,27.4,22.8,26.8,22.9,26.2z M2.1,6.2C2.2,6.1,2.4,6,2.5,6h28.6l0.3,0l0.2,0.1
	l0.1,0.2l0.1,0.4l0,0v0.6c0,0.7-0.2,1.2-0.8,2c-0.6,0.9-1.8,1.8-2.4,2.3c-2.4,1.8-4.9,3.6-7.5,5.6c-0.1,0.1-0.3,0.2-0.7,0.5
	c-0.4,0.3-0.7,0.5-0.9,0.7c-0.2,0.2-0.5,0.3-0.8,0.6c-0.3,0.2-0.7,0.4-1,0.5c-0.3,0.1-0.6,0.2-0.8,0.2h0c-0.3,0-0.5-0.1-0.8-0.2
	c-0.3-0.1-0.6-0.3-1-0.5c-0.3-0.2-0.6-0.4-0.8-0.6c-0.2-0.2-0.5-0.4-0.9-0.7c-0.4-0.3-0.6-0.5-0.7-0.5c-2.6-1.9-5.1-3.8-7.5-5.6
	c-1.8-1.4-3.2-3.2-3.2-5.2C1.9,6.4,2,6.3,2.1,6.2z"/>
<path id="Icon_Zeiterfassung_9_" d="M40.4,28.1c0-1.4-0.4-2.7-1.1-3.9c-0.7-1.2-1.7-2.2-2.9-2.9s-2.5-1.1-3.9-1.1
	c-1.4,0-2.7,0.4-3.9,1.1c-1.2,0.7-2.2,1.7-2.9,2.9c-0.7,1.2-1.1,2.5-1.1,3.9c0,1.4,0.4,2.7,1.1,3.9s1.7,2.2,2.9,2.9
	c1.2,0.7,2.5,1.1,3.9,1.1c1.4,0,2.7-0.4,3.9-1.1s2.2-1.7,2.9-2.9C40.1,30.8,40.4,29.5,40.4,28.1z M42.4,28.1c0,1.8-0.4,3.4-1.3,5
	c-0.9,1.5-2.1,2.7-3.6,3.6c-1.5,0.9-3.2,1.3-5,1.3c-1.8,0-3.4-0.4-5-1.3c-1.5-0.9-2.7-2.1-3.6-3.6c-0.9-1.5-1.3-3.2-1.3-5
	c0-1.8,0.4-3.4,1.3-5c0.9-1.5,2.1-2.7,3.6-3.6c1.5-0.9,3.2-1.3,5-1.3c1.8,0,3.4,0.4,5,1.3s2.7,2.1,3.6,3.6
	C42,24.6,42.4,26.3,42.4,28.1z"/>
<path d="M38.2,25.4l-7.4,7.4c-0.2,0.2-0.4,0.2-0.6,0.2s-0.4-0.1-0.6-0.2l-3.6-3.6c-0.2-0.2-0.2-0.4-0.2-0.6s0.1-0.4,0.2-0.6l0.2-0.2
	c0.2-0.2,0.4-0.2,0.6-0.2s0.4,0.1,0.6,0.2l2.7,2.7l6.7-6.7c0.2-0.2,0.4-0.2,0.6-0.2s0.4,0.1,0.6,0.2l0.3,0.3
	c0.2,0.2,0.2,0.4,0.2,0.6S38.4,25.3,38.2,25.4z"/>
</svg>
