<?xml version="1.0" encoding="utf-8"?>
<svg version="1.1" id="Ebene_1" x="0px" y="0px" viewBox="0 0 42.5 42.5" style="enable-background:new 0 0 42.5 42.5;" xmlns="http://www.w3.org/2000/svg">
  <path d="M 34.5 11.2 C 34.9 11.6 35.2 12 35.4 12.6 C 35.7 13.2 35.8 13.8 35.8 14.3 L 35.8 36.2 C 35.8 36.7 35.6 37.1 35.3 37.5 C 34.9 37.8 34.5 38 34 38 L 8.5 38 C 8 38 7.6 37.8 7.2 37.5 C 6.8 37.1 6.7 36.7 6.7 36.2 L 6.7 5.8 C 6.7 5.3 6.9 4.9 7.2 4.5 C 7.5 4.2 7.9 4 8.5 4 L 25.5 4 C 26 4 26.6 4.1 27.2 4.4 C 27.8 4.7 28.3 5 28.6 5.3 L 34.5 11.2 Z M 26.1 6.6 L 26.1 13.7 L 33.2 13.7 C 33.1 13.3 32.9 13.1 32.8 12.9 L 26.8 7 C 26.7 6.8 26.4 6.7 26.1 6.6 Z M 33.4 35.6 L 33.4 16.2 L 25.5 16.2 C 25 16.2 24.6 16 24.2 15.7 C 23.8 15.3 23.7 14.9 23.7 14.4 L 23.7 6.4 L 9.1 6.4 L 9.1 35.6 L 33.4 35.6 Z"/>
</svg>