<?xml version="1.0" encoding="utf-8"?>
<!-- Generator: Adobe Illustrator 21.1.0, SVG Export Plug-In . SVG Version: 6.00 Build 0)  -->
<svg version="1.1" id="Ebene_1" xmlns="http://www.w3.org/2000/svg" xmlns:xlink="http://www.w3.org/1999/xlink" x="0px" y="0px"
	 viewBox="0 0 42.5 42.5" style="enable-background:new 0 0 42.5 42.5;" xml:space="preserve">
<path id="Pfeil_links_2_" d="M21.2,13c-0.2,0-0.5,0.1-0.7,0.3L7.3,26.5C7.1,26.7,7,26.9,7,27.2c0,0.2,0.1,0.5,0.3,0.7l1.4,1.4
	c0.2,0.2,0.4,0.3,0.7,0.3c0.2,0,0.5-0.1,0.7-0.3l11.2-11.2l11.2,11.2c0.2,0.2,0.4,0.3,0.7,0.3s0.5-0.1,0.7-0.3l1.4-1.4
	c0.2-0.2,0.3-0.4,0.3-0.7c0-0.2-0.1-0.5-0.3-0.7L21.8,13.3C21.6,13.1,21.4,13,21.2,13z"/>
</svg>
