<?xml version="1.0" encoding="utf-8"?>
<!-- Generator: Adobe Illustrator 23.0.1, SVG Export Plug-In . SVG Version: 6.00 Build 0)  -->
<svg version="1.1" id="Ebene_1" xmlns="http://www.w3.org/2000/svg" xmlns:xlink="http://www.w3.org/1999/xlink" x="0px" y="0px"
	 viewBox="0 0 42.52 42.52" style="enable-background:new 0 0 42.52 42.52;" xml:space="preserve">
<path d="M36.26,13.35H21.65c0.05,0.05,0.11,0.1,0.16,0.16c1.52,1.52,2.35,3.54,2.35,5.68s-0.84,4.17-2.35,5.68
	c-0.05,0.05-0.11,0.1-0.16,0.16h11.86v2.28c0,0.57,0.46,1.03,1.03,1.03s1.03-0.46,1.03-1.03v-2.28h0.69c1.52,0,2.75-1.23,2.75-2.75
	V16.1C39.01,14.58,37.77,13.35,36.26,13.35L36.26,13.35z M33.96,19.19c0,0.27-0.11,0.54-0.3,0.73c-0.19,0.19-0.46,0.3-0.73,0.3
	s-0.54-0.11-0.73-0.3c-0.19-0.19-0.3-0.46-0.3-0.73c0-0.27,0.11-0.54,0.3-0.73c0.19-0.19,0.46-0.3,0.73-0.3s0.54,0.11,0.73,0.3
	C33.85,18.65,33.96,18.92,33.96,19.19L33.96,19.19z M30.73,19.19c0,0.27-0.11,0.54-0.3,0.73c-0.19,0.19-0.46,0.3-0.73,0.3
	c-0.27,0-0.54-0.11-0.73-0.3c-0.19-0.19-0.3-0.46-0.3-0.73c0-0.27,0.11-0.54,0.3-0.73c0.19-0.19,0.46-0.3,0.73-0.3
	c0.27,0,0.54,0.11,0.73,0.3C30.62,18.65,30.73,18.92,30.73,19.19L30.73,19.19z M29.46,19.19 M8.09,19.19c0-2.15,0.84-4.17,2.35-5.68
	c0.05-0.05,0.11-0.1,0.16-0.16H6.58c-1.52,0-2.75,1.23-2.75,2.75v6.18c0,1.52,1.23,2.75,2.75,2.75h0.96v2.28
	c0,0.57,0.46,1.03,1.03,1.03c0.57,0,1.03-0.46,1.03-1.03v-2.28h1c-0.05-0.05-0.11-0.1-0.16-0.16C8.93,23.35,8.09,21.33,8.09,19.19
	L8.09,19.19z M8.09,19.19 M22.4,19.19c0-3.46-2.81-6.27-6.27-6.27s-6.27,2.81-6.27,6.27c0,3.46,2.81,6.27,6.27,6.27
	S22.4,22.65,22.4,19.19L22.4,19.19z M14.11,19.19"/>
</svg>
