<?xml version="1.0" encoding="utf-8"?>
<!-- Generator: Adobe Illustrator 21.1.0, SVG Export Plug-In . SVG Version: 6.00 Build 0)  -->
<svg version="1.1" id="Ebene_1" xmlns="http://www.w3.org/2000/svg" xmlns:xlink="http://www.w3.org/1999/xlink" x="0px" y="0px"
	 viewBox="0 0 42.5 42.5" style="enable-background:new 0 0 42.5 42.5;" xml:space="preserve">
<path id="bearbeiten" d="M9.8,18.1H7.2V8.1c0-0.5,0.4-0.8,1-0.8h7.6c0.3,0,0.7,0.2,0.8,0.4l1.4,2h17c0.5,0,1,0.4,1,0.8v7.7h-2.8
	v-5.8H9.8V18.1z M38,19.3c-0.1-0.1-0.3-0.2-0.5-0.2h-6.2l0,2.8h2.9c0.2,0,0.4,0.1,0.5,0.2c0.1,0.1,0.2,0.3,0.2,0.5L33,31.8
	c-0.1,0.3-0.3,0.5-0.7,0.5l-21.5,0c-0.3,0-0.6-0.2-0.7-0.5l-1.8-9.2c0-0.2,0-0.3,0.2-0.5C8.6,22,8.8,21.9,9,21.9h3.8l0-2.8H5.7
	c-0.2,0-0.4,0.1-0.5,0.2C5,19.4,5,19.6,5,19.8l2.7,14.4c0.1,0.3,0.3,0.5,0.7,0.5h26.3c0.4,0,0.6-0.2,0.7-0.5l2.7-14.4
	C38.2,19.6,38.1,19.4,38,19.3z M24.3,24.9c-0.7,0.7-1.5,1-2.4,1s-1.8-0.3-2.4-1c-0.7-0.7-1-1.5-1-2.4s0.3-1.8,1-2.4
	c0.7-0.7,1.5-1,2.4-1s1.8,0.3,2.4,1c0.7,0.7,1,1.5,1,2.4S25,24.2,24.3,24.9z M29.9,21.1c-0.1-0.1-0.1-0.1-0.2-0.1l-1.9-0.3
	c-0.1-0.3-0.2-0.7-0.4-1c0.1-0.2,0.3-0.4,0.6-0.7s0.4-0.6,0.5-0.7c0.1-0.1,0.1-0.2,0.1-0.2c0-0.1,0-0.2-0.1-0.2
	c-0.3-0.4-0.8-1-1.7-1.8c-0.1-0.1-0.2-0.1-0.3-0.1c-0.1,0-0.2,0-0.3,0.1L24.7,17c-0.3-0.1-0.6-0.3-0.9-0.4l-0.3-1.9
	c0-0.1,0-0.2-0.1-0.2c-0.1-0.1-0.2-0.1-0.3-0.1h-2.3c-0.2,0-0.3,0.1-0.4,0.3c-0.1,0.4-0.2,1-0.3,2c-0.3,0.1-0.7,0.2-1,0.4l-1.5-1.1
	c-0.1-0.1-0.2-0.1-0.3-0.1c-0.2,0-0.5,0.3-1,0.8s-0.9,0.9-1,1.1c-0.1,0.1-0.1,0.2-0.1,0.2c0,0.1,0,0.2,0.1,0.3
	c0.5,0.6,0.8,1.1,1.1,1.5c-0.2,0.3-0.3,0.6-0.4,1l-2,0.3C14,20.9,14,21,13.9,21c-0.1,0.1-0.1,0.2-0.1,0.2v2.3c0,0.1,0,0.2,0.1,0.2
	C14,23.9,14,24,14.1,24l1.9,0.3c0.1,0.3,0.2,0.7,0.4,1c-0.1,0.2-0.3,0.4-0.6,0.7c-0.3,0.3-0.4,0.6-0.5,0.7c-0.1,0.1-0.1,0.2-0.1,0.2
	c0,0.1,0,0.2,0.1,0.2c0.3,0.4,0.9,1,1.7,1.8c0.1,0.1,0.2,0.1,0.3,0.1c0.1,0,0.2,0,0.3-0.1l1.5-1.1c0.3,0.1,0.6,0.3,0.9,0.4l0.3,1.9
	c0,0.1,0,0.2,0.1,0.2s0.2,0.1,0.3,0.1h2.3c0.2,0,0.3-0.1,0.4-0.3c0.1-0.4,0.2-1,0.3-2c0.3-0.1,0.7-0.2,1-0.4l1.5,1.1
	c0.1,0.1,0.2,0.1,0.3,0.1c0.2,0,0.5-0.2,1-0.7c0.5-0.5,0.9-0.9,1-1.1c0.1-0.1,0.1-0.2,0.1-0.2s0-0.2-0.1-0.3
	c-0.5-0.6-0.9-1.1-1.1-1.5c0.1-0.3,0.3-0.6,0.4-1l2-0.3c0.1,0,0.2-0.1,0.2-0.1c0.1-0.1,0.1-0.2,0.1-0.2v-2.3
	C30,21.2,30,21.2,29.9,21.1z"/>
</svg>
