<?xml version="1.0" encoding="utf-8"?>
<!-- Generator: Adobe Illustrator 21.1.0, SVG Export Plug-In . SVG Version: 6.00 Build 0)  -->
<svg version="1.1" id="Ebene_1" xmlns="http://www.w3.org/2000/svg" xmlns:xlink="http://www.w3.org/1999/xlink" x="0px" y="0px"
	 viewBox="0 0 42.5 42.5" style="enable-background:new 0 0 42.5 42.5;" xml:space="preserve">
<path d="M35.9,9.6c-0.5-0.5-1.1-0.7-1.7-0.7h-2.4V7c0-0.8-0.3-1.6-0.9-2.1C30.2,4.3,29.5,4,28.7,4h-1.2c-0.8,0-1.6,0.3-2.1,0.9
	c-0.6,0.6-0.9,1.3-0.9,2.1v1.8h-7.3V7c0-0.8-0.3-1.6-0.9-2.1C15.7,4.3,14.9,4,14.1,4h-1.2c-0.8,0-1.6,0.3-2.1,0.9
	C10.2,5.5,9.9,6.2,9.9,7v1.8H7.4c-0.7,0-1.2,0.2-1.7,0.7S5,10.6,5,11.3v24.3c0,0.7,0.2,1.2,0.7,1.7C6.2,37.8,6.8,38,7.4,38h26.7
	c0.7,0,1.2-0.2,1.7-0.7c0.5-0.5,0.7-1.1,0.7-1.7V11.3C36.6,10.6,36.3,10.1,35.9,9.6z M12.3,12.5V7c0-0.2,0.1-0.3,0.2-0.4
	c0.1-0.1,0.3-0.2,0.4-0.2h1.2c0.2,0,0.3,0.1,0.4,0.2c0.1,0.1,0.2,0.3,0.2,0.4v5.5c0,0.2-0.1,0.3-0.2,0.4c-0.1,0.1-0.3,0.2-0.4,0.2
	h-1.2c-0.2,0-0.3-0.1-0.4-0.2C12.3,12.8,12.3,12.7,12.3,12.5z M28.6,24.2l-3.5,3.4l0.8,4.8c0,0,0,0.1,0,0.2c0,0.1,0,0.2-0.1,0.3
	c-0.1,0.1-0.2,0.1-0.3,0.1c-0.1,0-0.3,0-0.4-0.1l-4.3-2.3L16.5,33c-0.1,0.1-0.3,0.1-0.4,0.1c-0.1,0-0.2,0-0.3-0.1
	c-0.1-0.1-0.1-0.2-0.1-0.3c0,0,0-0.1,0-0.2l0.8-4.8L13,24.2c-0.2-0.2-0.2-0.3-0.2-0.5c0-0.2,0.2-0.4,0.5-0.4l4.9-0.7l2.2-4.4
	c0.1-0.3,0.3-0.4,0.5-0.4s0.4,0.1,0.5,0.4l2.2,4.4l4.9,0.7c0.4,0.1,0.5,0.2,0.5,0.4C28.8,23.9,28.7,24,28.6,24.2z M29.3,12.5
	c0,0.2-0.1,0.3-0.2,0.4c-0.1,0.1-0.3,0.2-0.4,0.2h-1.2c-0.2,0-0.3-0.1-0.4-0.2c-0.1-0.1-0.2-0.3-0.2-0.4V7c0-0.2,0.1-0.3,0.2-0.4
	c0.1-0.1,0.3-0.2,0.4-0.2h1.2c0.2,0,0.3,0.1,0.4,0.2c0.1,0.1,0.2,0.3,0.2,0.4V12.5z"/>
</svg>
