<?xml version="1.0" encoding="utf-8"?>
<!-- Generator: Adobe Illustrator 21.1.0, SVG Export Plug-In . SVG Version: 6.00 Build 0)  -->
<svg version="1.1" id="Ebene_1" xmlns="http://www.w3.org/2000/svg" xmlns:xlink="http://www.w3.org/1999/xlink" x="0px" y="0px"
	 viewBox="0 0 42.5 42.5" style="enable-background:new 0 0 42.5 42.5;" xml:space="preserve">
<path d="M19.7,2C12.2,2,6,8.2,6,15.7c0,2,0.4,3.9,1.2,5.6c3.4,7.5,10,15.4,11.9,17.7c0.1,0.2,0.4,0.3,0.6,0.3c0.2,0,0.4-0.1,0.6-0.3
	c1.9-2.2,8.5-10.2,11.9-17.7c0.8-1.7,1.2-3.6,1.2-5.6C33.4,8.2,27.3,2,19.7,2L19.7,2z M19.7,26.2c-5.8,0-10.5-4.7-10.5-10.5
	c0-5.8,4.7-10.5,10.5-10.5c5.8,0,10.5,4.7,10.5,10.5C30.2,21.5,25.5,26.2,19.7,26.2L19.7,26.2z M19.7,22.8 M17.6,21.1h-2.2V10.5h2.2
	V21.1z M21.6,17.4v3.8h-2.2V10.5H23c1.1,0,1.9,0.3,2.5,1c0.6,0.7,0.9,1.5,0.9,2.5s-0.3,1.9-0.9,2.5s-1.5,0.9-2.6,0.9H21.6z
	 M21.6,15.6H23c0.4,0,0.7-0.1,1-0.4s0.3-0.7,0.3-1.2c0-0.5-0.1-1-0.3-1.3c-0.2-0.3-0.5-0.5-0.9-0.5h-1.5V15.6z"/>
</svg>
