<?xml version="1.0" encoding="utf-8"?>
<!-- Generator: Adobe Illustrator 21.1.0, SVG Export Plug-In . SVG Version: 6.00 Build 0)  -->
<svg version="1.1" id="Ebene_1" xmlns="http://www.w3.org/2000/svg" xmlns:xlink="http://www.w3.org/1999/xlink" x="0px" y="0px"
	 viewBox="0 0 42.5 42.5" style="enable-background:new 0 0 42.5 42.5;" xml:space="preserve">
<path d="M34.6,11.2c0.4,0.4,0.7,0.8,0.9,1.4c0.3,0.6,0.4,1.2,0.4,1.7v21.9c0,0.5-0.2,0.9-0.5,1.3S34.5,38,34,38H8.5
	c-0.5,0-0.9-0.2-1.3-0.5s-0.5-0.8-0.5-1.3V5.8c0-0.5,0.2-0.9,0.5-1.3C7.6,4.2,8,4,8.5,4h17c0.5,0,1.1,0.1,1.7,0.4
	c0.6,0.3,1.1,0.6,1.4,0.9L34.6,11.2z M26.1,6.6v7.1h7.1c-0.1-0.4-0.3-0.6-0.4-0.8L26.9,7C26.8,6.8,26.5,6.7,26.1,6.6z M33.4,35.6
	V16.2h-7.9c-0.5,0-0.9-0.2-1.3-0.5s-0.5-0.8-0.5-1.3V6.4H9.1v29.2H33.4z M17,27.1c-0.1,0.9,0.1,1.9,0.8,2.9c1.4,2.3,3.5,3.2,5,3
	c0,0,0.1,0,0.1,0c0,0,0.1-0.1,0.1-0.1c0-0.1,0-0.2,0-0.2c-0.6-0.7-0.4-1.4-0.2-2.2c0.2-0.9,0.4-1.9-0.2-3.1c-0.8-1.5-1.7-2-2.4-2.2
	C20,25,19.8,25,19.7,25l-2.5,1.5C17.1,26.7,17,26.9,17,27.1z M19.7,26.3c0.1-0.2,0.3-0.3,0.6-0.3c0,0,0.1,0,0.1,0
	c1.3,0.6,1.5,1.7,1.6,1.8c0,0.3-0.1,0.5-0.4,0.6c-0.1,0-0.1,0-0.2,0c0,0,0,0,0,0c-0.2,0-0.3-0.2-0.3-0.4c0,0-0.2-0.7-1-1.1
	c-0.1-0.1-0.2-0.1-0.3-0.3C19.6,26.5,19.6,26.4,19.7,26.3z M11.3,13.4c0.5-0.3,1.1-0.1,1.5,0.3c0.2,0.3,5,7.5,5.7,8.5
	c0.3,0.5,0.7,1.4,1,2.2l-2.5,1.5c-0.5-0.7-1.1-1.4-1.5-1.9c-0.6-1.1-4.4-8.8-4.6-9.2C10.6,14.3,10.8,13.7,11.3,13.4z M23.4,29.2
	c0.2-0.1,0.4-0.1,0.6-0.1c0,0,0.1,0,0.1,0c0.3,0,0.7,0.1,1.1,0.1c0.3,0.1,0.7,0.1,0.9,0.1c0.2,0,0.2,0,0.2,0
	c0.2-0.2-0.1-0.9-0.2-1.2c0-0.1-0.1-0.1-0.1-0.2c-0.2-0.6-0.3-1.2-0.1-1.8c0.2-0.5,0.7-0.9,1.3-1c0.2,0,0.4-0.1,0.6-0.1
	c0.2,0,0.4,0,0.6,0c0.2,0,0.4,0,0.7,0c0.7,0,1.2-0.2,1.4-0.6c0.5-0.8-0.1-2.1-0.7-2.7c0,0,0-0.1,0-0.1c0,0,0.1,0,0.1,0
	c0.8,0.5,1.3,1.5,1.2,2.4c0,0.5-0.2,1.1-0.9,1.6c-0.4,0.2-1,0.3-1.7,0.3c-0.6,0-1.2,0.1-1.4,0.3c-0.1,0.1-0.1,0.1-0.1,0.2
	c0,0.4,0.3,0.9,0.5,1.3c0.4,0.8,0.8,1.6,0.1,2.5c-0.6,0.8-1.4,0.8-2.2,0.8c-0.1,0-0.1,0-0.2,0c-0.4,0-0.8,0-1.2,0.1
	c-0.3,0.1-0.4,0.3-0.5,0.7c0,0.3-0.2,0.5-0.3,0.6c0-0.1-0.1-0.2-0.2-0.3c-0.4-0.5-0.3-0.9-0.1-1.8C23.2,30.1,23.3,29.7,23.4,29.2z"
	/>
</svg>
