<?xml version="1.0" encoding="utf-8"?>
<!-- Generator: Adobe Illustrator 28.2.0, SVG Export Plug-In . SVG Version: 6.00 Build 0)  -->
<svg version="1.1" id="Ebene_1" xmlns="http://www.w3.org/2000/svg" xmlns:xlink="http://www.w3.org/1999/xlink" x="0px" y="0px"
	 viewBox="0 0 42.5 42.5" style="enable-background:new 0 0 42.5 42.5;" xml:space="preserve">
<path id="Security_Advisory_00000054967682583628379450000015981960981484068781_" d="M12.9,19.8h16.7v-4.4c0-2.4-0.8-4.4-2.5-6.1
	s-3.3-2.5-5.7-2.5s-4.3,0.8-6,2.5s-2.5,3.7-2.5,6.1V19.8z M35.1,22.1v13.9c0,0.6-0.2,1.2-0.7,1.6c-0.5,0.5-1,0.7-1.6,0.7H9.7
	c-0.6,0-1.2-0.2-1.6-0.7c-0.5-0.5-0.7-1-0.7-1.6V22.1c0-0.6,0.2-1.2,0.7-1.6c0.5-0.5,1-0.7,1.6-0.7h0.8v-4.6c0-3,1.1-5.5,3.2-7.6
	s4.6-3.3,7.6-3.3s5.5,1.1,7.6,3.2s3.2,4.7,3.2,7.6v4.6h0.8c0.6,0,1.2,0.2,1.6,0.7C34.9,20.9,35.1,21.4,35.1,22.1z M21.3,33.1
	c-0.9,0-1.6,0.8-1.6,1.6c0,0.9,0.8,1.6,1.6,1.6c0.9,0,1.6-0.8,1.6-1.6C23,33.9,22.2,33.1,21.3,33.1L21.3,33.1z M21.3,33.1
	 M20.9,21.6c-0.8,0.2-1.3,0.9-1.3,1.8c0,0.5,0.1,1,0.1,1.6c0.1,2,0.2,3.9,0.3,5.9c0,0.7,0.6,1.2,1.2,1.2s1.2-0.5,1.2-1.2
	c0-0.4,0-0.8,0-1.2c0.1-1.3,0.2-2.5,0.2-3.8c0-0.8,0.1-1.6,0.2-2.5c0-0.3,0-0.6-0.2-0.8C22.5,21.8,21.7,21.4,20.9,21.6L20.9,21.6z
	 M20.9,21.6"/>
</svg>
