<?xml version="1.0" encoding="utf-8"?>
<!-- Generator: Adobe Illustrator 23.0.1, SVG Export Plug-In . SVG Version: 6.00 Build 0)  -->
<svg version="1.1" id="Ebene_1" xmlns="http://www.w3.org/2000/svg" xmlns:xlink="http://www.w3.org/1999/xlink" x="0px" y="0px"
	 viewBox="0 0 42.52 42.52" style="enable-background:new 0 0 42.52 42.52;" xml:space="preserve">
<g>
	<g>
		<path d="M7.82,19.81c-0.28,0-0.5,0.22-0.5,0.5v7.04c0,0.28,0.22,0.5,0.5,0.5h0.47v2.63c0,0.28,0.22,0.5,0.5,0.5h3.2
			c0.28,0,0.5-0.22,0.5-0.5v-2.63h0.47c0.28,0,0.5-0.22,0.5-0.5v-7.04c0-0.28-0.22-0.5-0.5-0.5h-1.42v-5.85
			c0-2.53,2.06-4.59,4.59-4.59c2.53,0,4.59,2.06,4.59,4.59v14.52c0,3.8,3.09,6.89,6.89,6.89c3.8,0,6.89-3.09,6.89-6.89v-6.01h1.42
			c0.28,0,0.5-0.22,0.5-0.5v-7.04c0-0.28-0.22-0.5-0.5-0.5h-0.47v-2.63c0-0.28-0.22-0.5-0.5-0.5h-3.2c-0.28,0-0.5,0.22-0.5,0.5v2.63
			H30.8c-0.28,0-0.5,0.22-0.5,0.5v7.04c0,0.28,0.22,0.5,0.5,0.5h1.42v6.01c0,2.53-2.06,4.59-4.59,4.59c-2.53,0-4.59-2.06-4.59-4.59
			V13.96c0-3.8-3.09-6.89-6.89-6.89c-3.8,0-6.89,3.09-6.89,6.89v5.85H7.82L7.82,19.81z M34.06,14.03h-1.39v-1.35h1.39V14.03z
			 M9.7,28.25h1.37v1.33H9.7V28.25z"/>
	</g>
</g>
</svg>
