<?xml version="1.0" encoding="utf-8"?>
<!-- Generator: Adobe Illustrator 21.1.0, SVG Export Plug-In . SVG Version: 6.00 Build 0)  -->
<svg version="1.1" id="Ebene_1" xmlns="http://www.w3.org/2000/svg" xmlns:xlink="http://www.w3.org/1999/xlink" x="0px" y="0px"
	 viewBox="0 0 42.5 42.5" style="enable-background:new 0 0 42.5 42.5;" xml:space="preserve">
<path id="plus" d="M12.8,21.2v9.4H8.1v-9.4H12.8z M19.9,11.7v18.9h-4.7V11.7H19.9z M38.8,32.9v2.4H1V7h2.4v25.9H38.8z M27,16.4v14.2
	h-4.7V16.4H27z"/>
<path d="M28.7,14.1c-0.1-0.1-0.2-0.3-0.2-0.4v-1.2c0-0.2,0.1-0.3,0.2-0.4s0.3-0.2,0.4-0.2h4.3V7.6c0-0.2,0.1-0.3,0.2-0.4
	S33.8,7,34,7h1.2c0.2,0,0.3,0.1,0.4,0.2s0.2,0.3,0.2,0.4v4.3h4.3c0.2,0,0.3,0.1,0.4,0.2s0.2,0.3,0.2,0.4v1.2c0,0.2-0.1,0.3-0.2,0.4
	s-0.3,0.2-0.4,0.2h-4.3v4.3c0,0.2-0.1,0.3-0.2,0.4s-0.3,0.2-0.4,0.2H34c-0.2,0-0.3-0.1-0.4-0.2s-0.2-0.3-0.2-0.4v-4.3h-4.3
	C29,14.3,28.8,14.2,28.7,14.1z"/>
</svg>
