<?xml version="1.0" encoding="utf-8"?>
<!-- Generator: Adobe Illustrator 21.1.0, SVG Export Plug-In . SVG Version: 6.00 Build 0)  -->
<svg version="1.1" id="Ebene_1" xmlns="http://www.w3.org/2000/svg" xmlns:xlink="http://www.w3.org/1999/xlink" x="0px" y="0px"
	 viewBox="0 0 42.5 42.5" style="enable-background:new 0 0 42.5 42.5;" xml:space="preserve">
<path d="M34.5,23.9V12.5c-2.1,1.1-4,1.7-5.6,1.7c-1,0-1.9-0.2-2.7-0.6c-1.2-0.6-2.4-1.1-3.4-1.4c-1-0.3-2.1-0.5-3.3-0.5
	c-2.1,0-4.6,0.8-7.4,2.3v11c3-1.4,5.7-2.1,8-2.1c0.7,0,1.3,0,1.9,0.1s1.2,0.3,1.8,0.5c0.6,0.2,1.1,0.4,1.4,0.6s0.8,0.4,1.5,0.7
	l0.5,0.3c0.5,0.3,1.2,0.4,1.9,0.4C30.6,25.6,32.4,25,34.5,23.9z M9.7,9.4c0,0.4-0.1,0.8-0.3,1.2c-0.2,0.4-0.5,0.6-0.9,0.8v23.3
	c0,0.2-0.1,0.3-0.2,0.4s-0.3,0.2-0.4,0.2H6.8c-0.2,0-0.3-0.1-0.4-0.2s-0.2-0.3-0.2-0.4V11.4c-0.4-0.2-0.6-0.5-0.9-0.8
	C5.1,10.2,5,9.8,5,9.4c0-0.7,0.2-1.2,0.7-1.7C6.2,7.2,6.7,7,7.4,7S8.6,7.2,9,7.7C9.5,8.2,9.7,8.7,9.7,9.4z M36.9,10.5v14.1
	c0,0.5-0.2,0.8-0.6,1.1c-0.1,0.1-0.2,0.1-0.3,0.2c-2.7,1.4-4.9,2.1-6.8,2.1c-1.1,0-2.1-0.2-2.9-0.6l-0.5-0.3
	c-0.8-0.4-1.4-0.7-1.8-0.9s-1-0.4-1.7-0.5c-0.7-0.2-1.4-0.3-2.1-0.3c-1.3,0-2.7,0.3-4.3,0.8s-3,1.2-4.2,1.9
	c-0.2,0.1-0.4,0.2-0.6,0.2c-0.2,0-0.4,0-0.6-0.1c-0.4-0.2-0.6-0.6-0.6-1V13.4c0-0.4,0.2-0.8,0.6-1c0.4-0.3,0.9-0.5,1.4-0.8
	c0.5-0.3,1.2-0.6,2.1-1c0.9-0.4,1.8-0.7,2.8-0.9c1-0.2,2-0.4,2.9-0.4c1.4,0,2.7,0.2,3.9,0.6s2.5,0.9,3.9,1.6c0.5,0.2,1,0.4,1.6,0.4
	c1.5,0,3.4-0.7,5.7-2.1c0.3-0.1,0.5-0.3,0.6-0.3c0.4-0.2,0.8-0.2,1.1,0C36.7,9.8,36.9,10.1,36.9,10.5z"/>
</svg>
