<?xml version="1.0" encoding="utf-8"?>
<!-- Generator: Adobe Illustrator 21.1.0, SVG Export Plug-In . SVG Version: 6.00 Build 0)  -->
<svg version="1.1" id="Ebene_1" xmlns="http://www.w3.org/2000/svg" xmlns:xlink="http://www.w3.org/1999/xlink" x="0px" y="0px"
	 viewBox="0 0 42.5 42.5" style="enable-background:new 0 0 42.5 42.5;" xml:space="preserve">
<path d="M8.3,23h2.2V33H22c0.1,0.3,0.3,0.6,0.4,0.9c0.3,0.5,0.6,0.9,0.9,1.4H10c-0.5,0-0.9-0.2-1.2-0.5s-0.5-0.7-0.5-1.2V23z
	 M35.1,13.5v3.1c-0.7-0.2-1.5-0.3-2.2-0.3v-1.2h-7.3c-0.5,0-0.9-0.2-1.2-0.5S24,14,24,13.5V6.2H10.6v2.1H8.3V5.7
	c0-0.5,0.2-0.9,0.5-1.2S9.5,4,10,4h15.6c0.5,0,1,0.1,1.5,0.3c0.6,0.2,1,0.5,1.3,0.8l5.4,5.4c0.3,0.3,0.6,0.8,0.8,1.3
	C35,12.5,35.1,13,35.1,13.5z M32.8,12.9c-0.1-0.3-0.2-0.6-0.4-0.7l-5.5-5.5c-0.1-0.1-0.4-0.3-0.7-0.4v6.6H32.8z M35.1,23.6v7.9
	c0,0.2-0.1,0.3-0.2,0.4c-0.1,0.1-0.2,0.2-0.4,0.2h-5.7c-0.2,0-0.3-0.1-0.4-0.2c-0.1-0.1-0.2-0.2-0.2-0.4v-1.1c0-0.2,0.1-0.3,0.2-0.4
	s0.2-0.2,0.4-0.2h4v-6.2c0-0.2,0.1-0.3,0.2-0.4c0.1-0.1,0.2-0.2,0.4-0.2h1.1c0.2,0,0.3,0.1,0.4,0.2C35.1,23.3,35.1,23.4,35.1,23.6z
	 M40.5,27.9c0-1.4-0.4-2.7-1.1-3.9c-0.7-1.2-1.7-2.2-2.9-2.9s-2.5-1.1-3.9-1.1s-2.7,0.4-3.9,1.1c-1.2,0.7-2.2,1.7-2.9,2.9
	c-0.7,1.2-1.1,2.5-1.1,3.9c0,1.4,0.4,2.7,1.1,3.9s1.7,2.2,2.9,2.9c1.2,0.7,2.5,1.1,3.9,1.1s2.7-0.4,3.9-1.1s2.2-1.7,2.9-2.9
	C40.1,30.7,40.5,29.4,40.5,27.9z M42.5,27.9c0,1.8-0.4,3.4-1.3,5c-0.9,1.5-2.1,2.7-3.6,3.6c-1.5,0.9-3.2,1.3-5,1.3
	c-1.8,0-3.4-0.4-5-1.3c-1.5-0.9-2.7-2.1-3.6-3.6c-0.9-1.5-1.3-3.2-1.3-5c0-1.8,0.4-3.4,1.3-5c0.9-1.5,2.1-2.7,3.6-3.6s3.2-1.3,5-1.3
	c1.8,0,3.4,0.4,5,1.3c1.5,0.9,2.7,2.1,3.6,3.6C42.1,24.5,42.5,26.2,42.5,27.9z M13.7,15.4c0,0.3-0.1,0.5-0.3,0.7l-4.8,4.8
	C8.5,21,8.3,21.1,8,21.1c-0.2,0-0.5-0.1-0.7-0.3l-0.5-0.5c-0.2-0.2-0.3-0.4-0.3-0.7c0-0.3,0.1-0.5,0.3-0.7l2.1-2.1H0.9
	c-0.3,0-0.5-0.1-0.6-0.3S0,16.1,0,15.8v-0.9c0-0.3,0.1-0.5,0.2-0.7S0.6,14,0.9,14h8.1l-2.1-2.2c-0.2-0.2-0.3-0.4-0.3-0.7
	c0-0.3,0.1-0.5,0.3-0.7l0.5-0.5C7.5,9.7,7.7,9.7,8,9.7c0.3,0,0.5,0.1,0.7,0.3l4.8,4.8C13.6,14.9,13.7,15.1,13.7,15.4z"/>
</svg>
