<?xml version="1.0" encoding="utf-8"?>
<!-- Generator: Adobe Illustrator 21.1.0, SVG Export Plug-In . SVG Version: 6.00 Build 0)  -->
<svg version="1.1" id="Ebene_1" xmlns="http://www.w3.org/2000/svg" xmlns:xlink="http://www.w3.org/1999/xlink" x="0px" y="0px"
	 viewBox="0 0 42.5 42.5" style="enable-background:new 0 0 42.5 42.5;" xml:space="preserve">
<path d="M34.9,33.1l-1.8,1.8c-0.3,0.3-0.6,0.4-0.9,0.4c-0.3,0-0.6-0.1-0.9-0.4L21.2,24.8L11.1,34.9c-0.3,0.3-0.6,0.4-0.9,0.4
	c-0.3,0-0.6-0.1-0.9-0.4l-1.8-1.8C7.1,32.8,7,32.5,7,32.2c0-0.3,0.1-0.6,0.4-0.9l10.1-10.1L7.4,11.1C7.1,10.8,7,10.5,7,10.2
	c0-0.3,0.1-0.6,0.4-0.9l1.8-1.8C9.5,7.1,9.8,7,10.2,7c0.3,0,0.6,0.1,0.9,0.4l10.1,10.1L31.2,7.4C31.5,7.1,31.8,7,32.2,7
	c0.3,0,0.6,0.1,0.9,0.4l1.8,1.8c0.3,0.3,0.4,0.6,0.4,0.9c0,0.3-0.1,0.6-0.4,0.9L24.8,21.2l10.1,10.1c0.3,0.3,0.4,0.6,0.4,0.9
	C35.3,32.5,35.2,32.8,34.9,33.1z"/>
</svg>
