<?xml version="1.0" encoding="utf-8"?>
<!-- Generator: Adobe Illustrator 21.1.0, SVG Export Plug-In . SVG Version: 6.00 Build 0)  -->
<svg version="1.1" id="Ebene_1" xmlns="http://www.w3.org/2000/svg" xmlns:xlink="http://www.w3.org/1999/xlink" x="0px" y="0px"
	 viewBox="0 0 42.5 42.5" style="enable-background:new 0 0 42.5 42.5;" xml:space="preserve">
<path id="plus_1_" d="M12.8,21.2v9.4H8.1v-9.4H12.8z M19.9,11.7v18.9h-4.7V11.7H19.9z M38.8,32.9v2.4H1V7h2.4v25.9H38.8z M27,16.4
	v14.2h-4.7V16.4H27z M28.7,10.7c0-0.2,0.1-0.4,0.2-0.5l1-1c0.1-0.1,0.3-0.2,0.5-0.2S30.9,9,31,9.1l3.6,3.6l3.6-3.6
	c0.1-0.1,0.3-0.2,0.5-0.2c0.2,0,0.4,0.1,0.5,0.2l1,1c0.1,0.1,0.2,0.3,0.2,0.5c0,0.2-0.1,0.4-0.2,0.5l-3.6,3.6l3.6,3.6
	c0.1,0.1,0.2,0.3,0.2,0.5s-0.1,0.4-0.2,0.5l-1,1c-0.1,0.1-0.3,0.2-0.5,0.2c-0.2,0-0.4-0.1-0.5-0.2l-3.6-3.6L31,20.4
	c-0.1,0.1-0.3,0.2-0.5,0.2s-0.4-0.1-0.5-0.2l-1-1c-0.1-0.1-0.2-0.3-0.2-0.5s0.1-0.4,0.2-0.5l3.6-3.6L29,11.2
	C28.8,11,28.7,10.8,28.7,10.7z"/>
</svg>
