<?xml version="1.0" encoding="utf-8"?>
<!-- Generator: Adobe Illustrator 23.0.1, SVG Export Plug-In . SVG Version: 6.00 Build 0)  -->
<svg version="1.1" id="Ebene_1" xmlns="http://www.w3.org/2000/svg" xmlns:xlink="http://www.w3.org/1999/xlink" x="0px" y="0px"
	 viewBox="0 0 42.52 42.52" style="enable-background:new 0 0 42.52 42.52;" xml:space="preserve">
<style type="text/css">
	.st0{fill:none;stroke:#000000;stroke-width:2;stroke-miterlimit:10;}
</style>
<path class="st0" d="M22.93,37.06c0.14,1.54-0.99,2.9-2.53,3.05c-1.42,0.13-2.68-0.82-2.99-2.17c-0.03-0.12-0.05-0.24-0.06-0.36
	l-0.35-3.74c-1.41-0.44-2.75-1.1-3.95-1.94l-2.35,3.16c-0.92,1.24-2.67,1.5-3.92,0.58c-0.56-0.42-0.92-1-1.06-1.63
	c-0.17-0.77-0.02-1.6,0.48-2.29l2.94-3.96c-0.8-1.3-1.42-2.74-1.77-4.31c-0.07-0.3-0.11-0.6-0.15-0.9l-2.38,0.3
	c-1.44,0.18-2.77-0.77-3.08-2.16c-0.02-0.09-0.04-0.18-0.05-0.27c-0.19-1.53,0.9-2.93,2.43-3.13l3.32-0.41
	c0.04-0.16,0.07-0.32,0.12-0.47l-3.83-2.08c-0.74-0.4-1.22-1.09-1.39-1.85c-0.14-0.64-0.07-1.33,0.27-1.95
	c0.74-1.36,2.44-1.86,3.8-1.12l3.76,2.04c1.19-1.47,2.68-2.72,4.41-3.62l-0.28-3.06c-0.14-1.54,0.99-2.9,2.53-3.05
	c1.54-0.14,2.9,1.01,3.05,2.53l0.18,2c1.61-0.12,3.2,0.04,4.7,0.44l2.38-3.21c0.92-1.24,2.68-1.5,3.92-0.58
	c1.24,0.92,1.5,2.68,0.57,3.92l-1.79,2.41c1.51,1.18,2.77,2.68,3.71,4.41l2.87-0.35c1.53-0.19,2.94,0.91,3.12,2.43
	c0.19,1.54-0.9,2.93-2.43,3.12l-1.92,0.24c0.17,1.94-0.06,3.85-0.64,5.63l4.73,2.57c1.36,0.74,1.86,2.44,1.12,3.8
	c-0.74,1.36-2.44,1.86-3.8,1.12l-4.81-2.62c-1.91,2.21-4.5,3.86-7.56,4.55c-0.53,0.12-1.06,0.2-1.59,0.26L22.93,37.06L22.93,37.06z
	 M17.41,16.57c-2.21,0-4.01,1.79-4.01,4.01s1.79,4.01,4.01,4.01s4.01-1.79,4.01-4.01S19.63,16.57,17.41,16.57z M25.83,22.55
	c-1.64,0-2.97,1.33-2.97,2.97s1.33,2.97,2.97,2.97s2.97-1.33,2.97-2.97S27.47,22.55,25.83,22.55z M24.54,13.01
	c-1.14,0-2.07,0.93-2.07,2.07s0.93,2.07,2.07,2.07s2.07-0.93,2.07-2.07S25.69,13.01,24.54,13.01z"/>
</svg>
