<?xml version="1.0" encoding="utf-8"?>
<svg version="1.1" id="Ebene_1" x="0px" y="0px" viewBox="0 0 42.52 42.52" style="enable-background:new 0 0 42.52 42.52;" xmlns="http://www.w3.org/2000/svg">
  <style type="text/css">
	.st0{clip-path:url(#SVGID_2_);}
</style>
  <title id="title16468">iOS 7 Icon Template</title>
  <title id="bx-title-1">iOS 7 Icon Template</title>
  <rect x="2.144" y="1.704" width="38.32" height="39.254" style="stroke: rgb(0, 0, 0); fill: none; stroke-linejoin: round; fill-rule: nonzero;" rx="7.609" ry="7.609"/>
  <ellipse style="stroke: rgb(0, 0, 0); fill: none;" cx="21.286" cy="21.328" rx="7.135" ry="7.202"/>
  <ellipse style="stroke: rgb(0, 0, 0); fill: none;" cx="21.215" cy="21.444" rx="10.239" ry="10.239"/>
  <ellipse style="stroke: rgb(0, 0, 0); fill: none;" cx="21.371" cy="21.302" rx="17.115" ry="17.115"/>
  <path style="fill: rgb(216, 216, 216); stroke: rgb(0, 0, 0);" d="M 2.14 1.906 L 40.546 40.676"/>
  <path style="fill: rgb(216, 216, 216); stroke: rgb(0, 0, 0);" d="M 2.162 40.714 L 40.491 1.867"/>
  <path style="fill: rgb(216, 216, 216); stroke: rgb(0, 0, 0);" d="M 2.085 4.087 L 40.553 4.109"/>
  <path style="fill: rgb(216, 216, 216); stroke: rgb(0, 0, 0);" d="M 2.054 38.542 L 40.522 38.564"/>
  <path style="fill: rgb(216, 216, 216); stroke: rgb(0, 0, 0);" d="M 2.125 28.625 L 40.593 28.647"/>
  <path style="fill: rgb(216, 216, 216); stroke: rgb(0, 0, 0);" d="M 2.114 21.395 L 40.582 21.417"/>
  <path style="fill: rgb(216, 216, 216); stroke: rgb(0, 0, 0);" d="M 2.097 14.07 L 40.565 14.092"/>
  <path style="fill: rgb(216, 216, 216); stroke: rgb(0, 0, 0);" d="M 4.296 1.802 L 4.293 40.901"/>
  <path style="fill: rgb(216, 216, 216); stroke: rgb(0, 0, 0);" d="M 14.278 1.605 L 14.275 40.704"/>
  <path style="fill: rgb(216, 216, 216); stroke: rgb(0, 0, 0);" d="M 21.513 1.712 L 21.51 40.811"/>
  <path style="fill: rgb(216, 216, 216); stroke: rgb(0, 0, 0);" d="M 28.406 1.658 L 28.403 40.757"/>
  <path style="fill: rgb(216, 216, 216); stroke: rgb(0, 0, 0);" d="M 38.412 1.768 L 38.409 40.867"/>
</svg>