<?xml version="1.0" encoding="utf-8"?>
<!-- Generator: Adobe Illustrator 21.1.0, SVG Export Plug-In . SVG Version: 6.00 Build 0)  -->
<svg version="1.1" id="Ebene_1" xmlns="http://www.w3.org/2000/svg" xmlns:xlink="http://www.w3.org/1999/xlink" x="0px" y="0px"
	 viewBox="0 0 42.5 42.5" style="enable-background:new 0 0 42.5 42.5;" xml:space="preserve">
<path d="M26.2,21.8L13,35.1c-0.2,0.2-0.4,0.3-0.7,0.3s-0.5-0.1-0.7-0.3l-1.4-1.4C10.1,33.4,10,33.2,10,33c0-0.2,0.1-0.5,0.3-0.7
	l11.2-11.2L10.3,10C10.1,9.8,10,9.6,10,9.4c0-0.2,0.1-0.5,0.3-0.7l1.4-1.4C11.9,7.1,12.1,7,12.4,7s0.5,0.1,0.7,0.3l13.2,13.2
	c0.2,0.2,0.3,0.4,0.3,0.7C26.5,21.4,26.4,21.6,26.2,21.8z M32.3,35.1c0.2-0.2,0.3-0.4,0.3-0.7v-3.1V7.9c0-0.3-0.1-0.5-0.3-0.7
	C32.2,7.1,31.9,7,31.7,7h-2c-0.3,0-0.5,0.1-0.7,0.3c-0.2,0.2-0.3,0.4-0.3,0.7v23.6l0,2.9c0,0.3,0.1,0.5,0.3,0.7
	c0.2,0.2,0.4,0.3,0.7,0.3h2C31.9,35.3,32.2,35.2,32.3,35.1z"/>
</svg>
