<?xml version="1.0" encoding="utf-8"?>
<!-- Generator: Adobe Illustrator 21.1.0, SVG Export Plug-In . SVG Version: 6.00 Build 0)  -->
<svg version="1.1" id="Ebene_1" xmlns="http://www.w3.org/2000/svg" xmlns:xlink="http://www.w3.org/1999/xlink" x="0px" y="0px"
	 viewBox="0 0 42.5 42.5" style="enable-background:new 0 0 42.5 42.5;" xml:space="preserve">
<path d="M31.8,17.1h-0.7v-3.3c0,0,0,0,0-0.1c0-0.1,0-0.3-0.1-0.4l-5.5-6.2c0,0,0,0,0,0c0,0-0.1-0.1-0.1-0.1c0,0,0,0,0,0
	c0,0-0.1,0-0.1,0c0,0,0,0,0,0c0,0-0.1,0-0.1,0H11.6c-0.6,0-1.1,0.5-1.1,1.1v9H9.8c-0.9,0-1.6,0.7-1.6,1.6V27c0,0.9,0.7,1.6,1.6,1.6
	h0.7v5.7c0,0.6,0.5,1.1,1.1,1.1H30c0.6,0,1.1-0.5,1.1-1.1v-5.7h0.7c0.9,0,1.6-0.7,1.6-1.6v-8.3C33.4,17.8,32.6,17.1,31.8,17.1
	L31.8,17.1z M11.6,8.1h12.9v5.7c0,0.3,0.2,0.6,0.6,0.6H30v2.8H11.6V8.1z M30,33.9H11.6v-5.4H30V33.9z M28,26.3 M18.1,20.4h-1.6v6.3
	h-1.3v-6.3h-1.6v-1.3h4.4V20.4z M21.4,25.2h-1.8l-0.3,1.5h-1.4l2-7.6h1.2l2,7.6h-1.4L21.4,25.2z M19.9,23.9h1.2l-0.6-2.7L19.9,23.9z
	 M25.6,23.9H25v2.8h-1.3v-7.6h2.1c0.6,0,1.1,0.2,1.5,0.6c0.4,0.4,0.5,1,0.5,1.7c0,1-0.3,1.7-0.9,2.1l1.1,3.1v0.1h-1.4L25.6,23.9z
	 M25,22.7h0.7c0.3,0,0.5-0.1,0.6-0.3c0.1-0.2,0.2-0.5,0.2-0.8c0-0.8-0.3-1.1-0.8-1.1H25V22.7z"/>
</svg>
