<?xml version="1.0" encoding="utf-8"?>
<!-- Generator: Adobe Illustrator 21.1.0, SVG Export Plug-In . SVG Version: 6.00 Build 0)  -->
<svg version="1.1" id="Ebene_1" xmlns="http://www.w3.org/2000/svg" xmlns:xlink="http://www.w3.org/1999/xlink" x="0px" y="0px"
	 viewBox="0 0 42.5 42.5" style="enable-background:new 0 0 42.5 42.5;" xml:space="preserve">
<path id="paste-from-clipboard" d="M28,8.5c-0.7-0.4-1.4-0.8-2.1-1c-0.3-0.8-0.8-1.6-1.5-2.1C23.5,4.5,22.3,4,21,4
	c-1.2,0-2.5,0.5-3.4,1.3c-0.6,0.6-1.1,1.3-1.5,2.1c-0.7,0.2-1.4,0.5-2.1,1h-2.8C9.5,8.5,8,9.9,8,11.7v23c0,1.8,1.5,3.3,3.3,3.3h19.5
	c1.8,0,3.3-1.5,3.3-3.3v-23c0-1.8-1.5-3.3-3.3-3.3H28z M18.3,8.9c0-0.1,0.1-0.3,0.1-0.4c0.4-1.2,1.4-2,2.7-2c1.2,0,2.3,0.9,2.7,2
	c0,0.1,0.1,0.3,0.1,0.4c0.1,0.3,0.3,0.6,0.6,0.7c1.2,0.3,2.1,0.8,2.7,1.3c0.1,0.1,0.2,0.2,0.3,0.3c0.4,0.5,0.1,1.1-0.5,1.1H15.2
	c-0.6,0-0.9-0.7-0.5-1.1c0.1-0.1,0.2-0.2,0.3-0.3c0.6-0.6,1.6-1,2.7-1.3C18,9.5,18.2,9.2,18.3,8.9L18.3,8.9z M31.7,11.7v23
	c0,0.5-0.4,0.9-0.9,0.9H11.3c-0.5,0-0.9-0.4-0.9-0.9v-23c0-0.5,0.4-0.9,0.9-0.9h0.9c0,0.1-0.1,0.2-0.1,0.4c-0.1,0.6,0,1.1,0.3,1.7
	c0.2,0.5,0.6,1,1.1,1.3c0.5,0.3,1.1,0.5,1.7,0.5h11.7c0.6,0,1.2-0.2,1.7-0.5c0.5-0.3,0.8-0.8,1.1-1.3c0.2-0.5,0.3-1.1,0.3-1.7
	c0-0.1,0-0.2-0.1-0.4h0.9C31.3,10.9,31.7,11.2,31.7,11.7L31.7,11.7z M31.7,11.7 M21,10.1c0.7,0,1.2-0.5,1.2-1.2c0-0.2,0-0.3-0.1-0.4
	C22,8,21.6,7.7,21,7.7c-0.5,0-1,0.3-1.1,0.8c-0.1,0.1-0.1,0.3-0.1,0.4C19.8,9.6,20.4,10.1,21,10.1L21,10.1z M21,10.1 M15.4,26.4
	c-0.1-0.1-0.2-0.3-0.2-0.4v-1.2c0-0.2,0.1-0.3,0.2-0.4s0.3-0.2,0.4-0.2h4.3v-4.3c0-0.2,0.1-0.3,0.2-0.4s0.3-0.2,0.4-0.2h1.2
	c0.2,0,0.3,0.1,0.4,0.2s0.2,0.3,0.2,0.4v4.3h4.3c0.2,0,0.3,0.1,0.4,0.2s0.2,0.3,0.2,0.4V26c0,0.2-0.1,0.3-0.2,0.4s-0.3,0.2-0.4,0.2
	h-4.3v4.3c0,0.2-0.1,0.3-0.2,0.4s-0.3,0.2-0.4,0.2h-1.2c-0.2,0-0.3-0.1-0.4-0.2s-0.2-0.3-0.2-0.4v-4.3h-4.3
	C15.6,26.6,15.5,26.5,15.4,26.4z"/>
</svg>
