<?xml version="1.0" encoding="utf-8"?>
<!-- Generator: Adobe Illustrator 23.0.1, SVG Export Plug-In . SVG Version: 6.00 Build 0)  -->
<svg version="1.1" id="Ebene_1" xmlns="http://www.w3.org/2000/svg" xmlns:xlink="http://www.w3.org/1999/xlink" x="0px" y="0px"
	 viewBox="0 0 42.52 42.52" style="enable-background:new 0 0 42.52 42.52;" xml:space="preserve">
<style type="text/css">
	.st0{fill:#FFA000;}
	.st1{fill-rule:evenodd;clip-rule:evenodd;}
</style>
<path class="st0" d="M20.82,34.96c0.51,0.07,1.01,0.02,1.46-0.14c1.14-0.38,2.03-1.39,2.2-2.66c0.03-0.25,0.04-0.51,0.01-0.74
	L23.1,16.8l-0.53-5.57l-0.33-3.45c-0.04-0.4-0.42-0.56-0.72-0.46c-0.17,0.06-0.32,0.2-0.35,0.44l-0.48,3.57l-0.71,5.27L18.02,31.3
	C17.78,33.08,19.04,34.72,20.82,34.96L20.82,34.96z M20.83,30.1c0.84-0.28,1.74,0.17,2.02,1.01c0.28,0.84-0.17,1.74-1.01,2.02
	c-0.84,0.28-1.74-0.17-2.02-1.01C19.54,31.28,20,30.38,20.83,30.1L20.83,30.1z M20.83,30.1"/>
<path class="st1" d="M23.06,9.82c8.91,0.7,16.38,6.52,19.46,14.53l-10.63,4.09c-1.28-3.33-4.07-5.9-7.54-6.88"/>
<path class="st1" d="M18.59,21.45c-3.66,0.88-6.63,3.53-7.96,6.99L0,24.35c3.16-8.19,10.9-14.1,20.09-14.57"/>
</svg>
