<?xml version="1.0" encoding="utf-8"?>
<!-- Generator: Adobe Illustrator 21.1.0, SVG Export Plug-In . SVG Version: 6.00 Build 0)  -->
<svg version="1.1" id="Ebene_1" xmlns="http://www.w3.org/2000/svg" xmlns:xlink="http://www.w3.org/1999/xlink" x="0px" y="0px"
	 viewBox="0 0 42.5 42.5" style="enable-background:new 0 0 42.5 42.5;" xml:space="preserve">
<path d="M25,23.7l4.1-4l-5.7-0.8l-2.6-5.2l-2.6,5.2l-5.7,0.8l4.1,4l-1,5.7l5.1-2.7l5.1,2.7L25,23.7z M35.7,18c0,0.3-0.2,0.5-0.5,0.9
	l-6.5,6.3l1.5,8.9c0,0.1,0,0.2,0,0.4c0,0.6-0.2,0.9-0.7,0.9c-0.2,0-0.5-0.1-0.7-0.2l-8-4.2l-8,4.2c-0.3,0.1-0.5,0.2-0.7,0.2
	c-0.3,0-0.4-0.1-0.6-0.3c-0.1-0.2-0.2-0.4-0.2-0.6c0-0.1,0-0.2,0-0.4l1.5-8.9l-6.5-6.3C6.1,18.5,6,18.2,6,18c0-0.4,0.3-0.7,1-0.8
	l9-1.3l4-8.1C20.2,7.2,20.5,7,20.9,7s0.6,0.2,0.9,0.7l4,8.1l9,1.3C35.4,17.3,35.7,17.5,35.7,18z"/>
</svg>
