<?xml version="1.0" encoding="utf-8"?>
<!-- Generator: Adobe Illustrator 21.1.0, SVG Export Plug-In . SVG Version: 6.00 Build 0)  -->
<svg version="1.1" id="Ebene_1" xmlns="http://www.w3.org/2000/svg" xmlns:xlink="http://www.w3.org/1999/xlink" x="0px" y="0px"
	 viewBox="0 0 42.5 42.5" style="enable-background:new 0 0 42.5 42.5;" xml:space="preserve">
<path id="item_x5F_move" d="M14,5.3c0.4-0.4,0.8-0.7,1.4-0.9C16,4.1,16.6,4,17.1,4h17c0.5,0,0.9,0.2,1.3,0.5
	c0.4,0.4,0.5,0.8,0.5,1.3v30.3c0,0.5-0.2,0.9-0.5,1.3C35,37.8,34.6,38,34.1,38H8.6c-0.5,0-0.9-0.2-1.3-0.5c-0.4-0.4-0.5-0.8-0.5-1.3
	V14.3c0-0.5,0.1-1.1,0.4-1.7C7.4,12,7.7,11.6,8,11.2L14,5.3z M15.7,7l-5.9,5.9c-0.2,0.2-0.3,0.4-0.4,0.8h7.1V6.6
	C16.1,6.7,15.8,6.8,15.7,7z M33.5,35.6V6.4H18.9v7.9c0,0.5-0.2,0.9-0.5,1.3c-0.4,0.4-0.8,0.5-1.3,0.5H9.2v19.4H33.5z M16.7,20.5
	c0.2-0.2,0.4-0.3,0.6-0.3h6.3c0.2,0,0.5,0.1,0.6,0.3c0.2,0.2,0.2,0.4,0.3,0.6v0.7c0,0.2-0.1,0.5-0.3,0.6c-0.2,0.2-0.4,0.3-0.6,0.3
	h-2.8l6.3,6.3c0.2,0.2,0.2,0.4,0.2,0.6c0,0.2-0.1,0.4-0.3,0.6l-0.6,0.6c-0.2,0.2-0.4,0.3-0.6,0.3c-0.2,0-0.4-0.1-0.6-0.2l-6.3-6.3
	l0,2.8c0,0.2-0.1,0.4-0.3,0.6c-0.2,0.2-0.4,0.3-0.6,0.3h-0.7c-0.2,0-0.5-0.1-0.6-0.3c-0.2-0.2-0.3-0.4-0.3-0.6v-6.3
	C16.4,20.9,16.5,20.7,16.7,20.5z"/>
</svg>
