<?xml version="1.0" encoding="UTF-8" standalone="no"?>
<!-- Generator: Adobe Illustrator 21.1.0, SVG Export Plug-In . SVG Version: 6.00 Build 0)  -->

<svg
   xmlns:dc="http://purl.org/dc/elements/1.1/"
   xmlns:cc="http://creativecommons.org/ns#"
   xmlns:rdf="http://www.w3.org/1999/02/22-rdf-syntax-ns#"
   xmlns:svg="http://www.w3.org/2000/svg"
   xmlns="http://www.w3.org/2000/svg"
   xmlns:sodipodi="http://sodipodi.sourceforge.net/DTD/sodipodi-0.dtd"
   xmlns:inkscape="http://www.inkscape.org/namespaces/inkscape"
   version="1.1"
   id="Ebene_1"
   x="0px"
   y="0px"
   viewBox="0 0 42.5 42.5"
   style="enable-background:new 0 0 42.5 42.5;"
   xml:space="preserve"
   sodipodi:docname="icon_stop_white.svg"
   inkscape:version="0.92.4 (5da689c313, 2019-01-14)"><metadata
   id="metadata9"><rdf:RDF><cc:Work
       rdf:about=""><dc:format>image/svg+xml</dc:format><dc:type
         rdf:resource="http://purl.org/dc/dcmitype/StillImage" /><dc:title></dc:title></cc:Work></rdf:RDF></metadata><defs
   id="defs7" /><sodipodi:namedview
   pagecolor="#ffffff"
   bordercolor="#666666"
   borderopacity="1"
   objecttolerance="10"
   gridtolerance="10"
   guidetolerance="10"
   inkscape:pageopacity="0"
   inkscape:pageshadow="2"
   inkscape:window-width="1680"
   inkscape:window-height="1013"
   id="namedview5"
   showgrid="false"
   inkscape:zoom="11.105882"
   inkscape:cx="25.387333"
   inkscape:cy="21.628503"
   inkscape:window-x="1366"
   inkscape:window-y="0"
   inkscape:window-maximized="1"
   inkscape:current-layer="Ebene_1" />
<path
   d="M32.8,21.3c0-2.1-0.5-4-1.6-5.8c-1-1.8-2.4-3.2-4.2-4.2c-1.8-1-3.7-1.6-5.8-1.6s-4,0.5-5.8,1.6s-3.2,2.4-4.2,4.2  s-1.6,3.7-1.6,5.8s0.5,4,1.6,5.8c1,1.8,2.4,3.2,4.2,4.2c1.8,1,3.7,1.6,5.8,1.6s4-0.5,5.8-1.6c1.8-1,3.2-2.4,4.2-4.2  C32.3,25.3,32.8,23.4,32.8,21.3z M35.4,21.3c0,2.6-0.6,4.9-1.9,7.1c-1.3,2.2-3,3.9-5.2,5.2c-2.2,1.3-4.5,1.9-7.1,1.9  s-4.9-0.6-7.1-1.9c-2.2-1.3-3.9-3-5.2-5.2s-1.9-4.5-1.9-7.1s0.6-4.9,1.9-7.1s3-3.9,5.2-5.2s4.5-1.9,7.1-1.9s4.9,0.6,7.1,1.9  s3.9,3,5.2,5.2C34.8,16.3,35.4,18.7,35.4,21.3z M30.4,29.1l-1.2,1.2c-0.2,0.2-0.4,0.2-0.6,0.2c-0.2,0-0.4-0.1-0.6-0.2l-6.7-6.7l-7,7  c-0.2,0.2-0.4,0.2-0.6,0.2c-0.2,0-0.4-0.1-0.6-0.2l-1.2-1.2c-0.2-0.2-0.2-0.4-0.2-0.6c0-0.2,0.1-0.4,0.2-0.6l7-7l-7.1-7  c-0.2-0.2-0.2-0.4-0.2-0.6s0.1-0.4,0.2-0.6l1.2-1.2c0.2-0.2,0.4-0.2,0.6-0.2s0.4,0.1,0.6,0.2l7,7l8.2-8.2c0.2-0.2,0.4-0.2,0.6-0.2  s0.4,0.1,0.6,0.2l1.2,1.2c0.2,0.2,0.2,0.4,0.2,0.6s-0.1,0.4-0.2,0.6l-8.2,8.2l6.7,6.7c0.2,0.2,0.2,0.4,0.2,0.6  C30.6,28.8,30.5,29,30.4,29.1z"
   id="path2"
   style="fill:#ffffff" />
</svg>