<?xml version="1.0" encoding="utf-8"?>
<!-- Generator: Adobe Illustrator 21.1.0, SVG Export Plug-In . SVG Version: 6.00 Build 0)  -->
<svg version="1.1" id="Ebene_1" xmlns="http://www.w3.org/2000/svg" xmlns:xlink="http://www.w3.org/1999/xlink" x="0px" y="0px"
	 viewBox="0 0 42.5 42.5" style="enable-background:new 0 0 42.5 42.5;" xml:space="preserve">
<path stroke="white" fill="white" d="M35.7,12.5c-1.5-2.6-3.6-4.7-6.2-6.2C26.9,4.8,24.1,4,21,4c-3.1,0-5.9,0.8-8.5,2.3c-2.6,1.5-4.7,3.6-6.2,6.2
	C4.8,15.1,4,17.9,4,21c0,3.1,0.8,5.9,2.3,8.5s3.6,4.7,6.2,6.2c2.6,1.5,5.5,2.3,8.5,2.3c3.1,0,5.9-0.8,8.5-2.3
	c2.6-1.5,4.7-3.6,6.2-6.2S38,24.1,38,21C38,17.9,37.2,15.1,35.7,12.5z M22.7,29c0,0.2-0.1,0.3-0.2,0.4s-0.2,0.2-0.4,0.2h-2.9
	c-0.2,0-0.3-0.1-0.4-0.2s-0.2-0.2-0.2-0.4v-2.9c0-0.2,0.1-0.3,0.2-0.4s0.2-0.2,0.4-0.2h2.9c0.2,0,0.3,0.1,0.4,0.2s0.2,0.2,0.2,0.4
	V29z M27,18.9c-0.2,0.5-0.5,0.9-0.8,1.2c-0.4,0.3-0.7,0.6-0.9,0.8s-0.6,0.4-1.1,0.6c-0.4,0.2-0.7,0.4-0.8,0.5s-0.3,0.3-0.5,0.4
	c-0.1,0.2-0.2,0.3-0.2,0.5v0.6c0,0.2-0.1,0.3-0.2,0.4s-0.2,0.2-0.4,0.2h-2.9c-0.2,0-0.3-0.1-0.4-0.2s-0.2-0.2-0.2-0.4v-1.2
	c0-0.4,0.1-0.8,0.2-1.2s0.3-0.6,0.4-0.9s0.4-0.4,0.7-0.6s0.6-0.4,0.7-0.5s0.5-0.2,0.8-0.4c0.6-0.3,1.1-0.6,1.3-0.8s0.4-0.5,0.4-0.9
	c0-0.5-0.3-0.9-0.8-1.3c-0.5-0.4-1.1-0.5-1.7-0.5c-0.7,0-1.2,0.2-1.7,0.5c-0.3,0.2-0.8,0.7-1.4,1.5c-0.1,0.1-0.3,0.2-0.4,0.2
	c-0.1,0-0.2,0-0.3-0.1L14.9,16c-0.1-0.1-0.2-0.2-0.2-0.4s0-0.3,0.1-0.4c1.5-2.3,3.5-3.4,6.3-3.4c1.5,0,3,0.5,4.3,1.6
	c1.3,1.1,2,2.4,2,3.8C27.3,17.8,27.2,18.4,27,18.9z"/>
</svg>
