<?xml version="1.0" encoding="utf-8"?>
<!-- Generator: Adobe Illustrator 21.1.0, SVG Export Plug-In . SVG Version: 6.00 Build 0)  -->
<svg version="1.1" id="Ebene_1" xmlns="http://www.w3.org/2000/svg" xmlns:xlink="http://www.w3.org/1999/xlink" x="0px" y="0px"
	 viewBox="0 0 42.5 42.5" style="enable-background:new 0 0 42.5 42.5;" xml:space="preserve">
<path d="M23.9,32c0.3-0.4,0.5-0.9,0.6-1.3c0.2-1.2-0.2-2.4-1.3-3.2c-0.2-0.1-0.4-0.3-0.6-0.4L9.1,21.2L3.9,19l-3.2-1.4
	C0.4,17.4,0.1,17.7,0,18c0,0.2,0,0.4,0.2,0.5l2.9,2.1l4.3,3.2l11.9,8.8C20.7,33.7,22.8,33.4,23.9,32L23.9,32z M19.6,29.6
	c0.2-0.9,1-1.4,1.9-1.3c0.9,0.2,1.4,1,1.3,1.9c-0.2,0.9-1,1.4-1.9,1.3C20,31.3,19.5,30.5,19.6,29.6L19.6,29.6z M19.6,29.6
	 M10.5,26.9c0,0,0,0.1,0,0.2L0,22.7c0.3-0.8,0.7-1.7,1.1-2.4L10.5,26.9z M2.7,17.6c4.1-5.8,10.9-9.5,18.5-9.5l0,0
	c9.7,0,18,6.1,21.3,14.6l-10.6,4.1c-1.6-4.3-5.8-7.3-10.6-7.3c-2.9,0-5.6,1.1-7.6,2.9"/>
</svg>
