<?xml version="1.0" encoding="utf-8"?>
<!-- Generator: Adobe Illustrator 21.1.0, SVG Export Plug-In . SVG Version: 6.00 Build 0)  -->
<svg version="1.1" id="Ebene_1" xmlns="http://www.w3.org/2000/svg" xmlns:xlink="http://www.w3.org/1999/xlink" x="0px" y="0px"
	 viewBox="0 0 42.5 42.5" style="enable-background:new 0 0 42.5 42.5;" xml:space="preserve">
<path d="M32.2,24.1 M37.4,32.4V10c0-0.2-0.1-0.3-0.2-0.4c-0.1-0.1-0.3-0.2-0.4-0.2H5c-0.2,0-0.3,0.1-0.4,0.2C4.4,9.7,4.4,9.8,4.4,10
	v22.4c0,0.2,0.1,0.3,0.2,0.4C4.7,32.9,4.8,33,5,33h6.5v-1.8c0-0.2,0.1-0.3,0.2-0.4c0.1-0.1,0.3-0.2,0.4-0.2h1.2
	c0.2,0,0.3,0.1,0.4,0.2c0.1,0.1,0.2,0.3,0.2,0.4V33H28v-1.8c0-0.2,0.1-0.3,0.2-0.4c0.1-0.1,0.3-0.2,0.4-0.2h1.2
	c0.2,0,0.3,0.1,0.4,0.2c0.1,0.1,0.2,0.3,0.2,0.4V33h6.5c0.2,0,0.3-0.1,0.4-0.2C37.4,32.7,37.4,32.6,37.4,32.4z M39.8,10v22.4
	c0,0.8-0.3,1.5-0.9,2.1c-0.6,0.6-1.3,0.9-2.1,0.9H5c-0.8,0-1.5-0.3-2.1-0.9C2.3,33.9,2,33.2,2,32.4V10c0-0.8,0.3-1.5,0.9-2.1
	S4.1,7,5,7h31.9c0.8,0,1.5,0.3,2.1,0.9C39.5,8.4,39.8,9.1,39.8,10z M28.3,26.8L27.1,28c-0.2,0.2-0.4,0.2-0.6,0.2s-0.4-0.1-0.6-0.2
	l-5-5l-5,5c-0.2,0.2-0.4,0.2-0.6,0.2s-0.4-0.1-0.6-0.2l-1.2-1.2c-0.2-0.2-0.2-0.4-0.2-0.6c0-0.2,0.1-0.4,0.2-0.6l5-5l-5-5
	c-0.2-0.2-0.2-0.4-0.2-0.6s0.1-0.4,0.2-0.6l1.2-1.2c0.2-0.2,0.4-0.2,0.6-0.2s0.4,0.1,0.6,0.2l5,5l5-5c0.2-0.2,0.4-0.2,0.6-0.2
	s0.4,0.1,0.6,0.2l1.2,1.2c0.2,0.2,0.2,0.4,0.2,0.6s-0.1,0.4-0.2,0.6l-5,5l5,5c0.2,0.2,0.2,0.4,0.2,0.6
	C28.6,26.4,28.5,26.6,28.3,26.8z"/>
</svg>
