<?xml version="1.0" encoding="utf-8"?>
<!-- Generator: Adobe Illustrator 21.1.0, SVG Export Plug-In . SVG Version: 6.00 Build 0)  -->
<svg version="1.1" id="Ebene_1" xmlns="http://www.w3.org/2000/svg" xmlns:xlink="http://www.w3.org/1999/xlink" x="0px" y="0px"
	 viewBox="0 0 42.5 42.5" style="enable-background:new 0 0 42.5 42.5;" xml:space="preserve">
<path d="M27.8,35.6H3.5V6.4h14.6v7.9c0,0.5,0.2,0.9,0.5,1.3c0.4,0.4,0.8,0.5,1.3,0.5h7.9v2h2.4v-3.8c0-0.5-0.1-1.1-0.4-1.7
	c-0.3-0.6-0.6-1.1-0.9-1.4L23,5.3c-0.4-0.4-0.8-0.7-1.4-0.9C21,4.1,20.4,4,19.9,4h-17C2.4,4,1.9,4.2,1.6,4.5
	C1.2,4.9,1.1,5.3,1.1,5.8v30.4c0,0.5,0.2,0.9,0.5,1.3S2.4,38,2.9,38h25.5c0.5,0,0.9-0.2,1.3-0.5s0.5-0.8,0.5-1.3v-3.1h-2.4V35.6z
	 M20.5,6.6c0.4,0.1,0.6,0.3,0.8,0.4l5.9,5.9c0.2,0.2,0.3,0.4,0.4,0.8h-7.1V6.6z M26.7,29.9l2-1.8l-2.3-2.6l-2,1.8l0,0.9l1.6,0.1
	l-0.1,1.6L26.7,29.9z M34.4,18.7c-0.2-0.2-0.3-0.2-0.5,0l-6,5.4c-0.2,0.2-0.2,0.4,0,0.5c0.2,0.2,0.3,0.2,0.5,0l6-5.4
	C34.5,19,34.5,18.9,34.4,18.7z M34.2,16.3l4.4,4.9L27.2,31.5l-4.7-0.2l0.2-4.7L34.2,16.3z M41.3,18.8l-1.6,1.4l-4.4-4.9l1.6-1.4
	c0.3-0.3,0.7-0.4,1.1-0.4c0.4,0,0.8,0.2,1.1,0.5l2.3,2.6c0.3,0.3,0.4,0.7,0.4,1.1C41.8,18.2,41.6,18.6,41.3,18.8z"/>
</svg>
