<?xml version="1.0" encoding="utf-8"?>
<!-- Generator: Adobe Illustrator 21.1.0, SVG Export Plug-In . SVG Version: 6.00 Build 0)  -->
<svg version="1.1" id="Ebene_1" xmlns="http://www.w3.org/2000/svg" xmlns:xlink="http://www.w3.org/1999/xlink" x="0px" y="0px"
	 viewBox="0 0 42.5 42.5" style="enable-background:new 0 0 42.5 42.5;" xml:space="preserve">
<path d="M39,24.7h-1.2v-2.7c0-1.6-1.1-2.7-2.7-3.1V9.8c0-0.8-0.3-1.4-0.9-1.9C33.6,7.3,32.9,7,32.1,7H4.4C3.6,7,2.8,7.3,2.3,7.8
	C1.7,8.3,1.4,9,1.4,9.8v18.7c0,0.8,0.3,1.4,0.9,1.9c0.6,0.5,1.3,0.8,2.1,0.8h23v2.2c0,1.1,0.9,2,2,2H39c1.1,0,2-0.9,2-2v-6.8
	C40.9,25.5,40.1,24.7,39,24.7z M3.5,9.2C3.6,9.1,3.7,9,3.9,9h28.6l0.3,0L33,9.2l0.1,0.2l0.1,0.4l0,0v0.6c0,0.7-0.2,1.2-0.8,2
	c-0.6,0.9-1.8,1.8-2.4,2.3c-2.4,1.8-4.9,3.6-7.5,5.6c-0.1,0.1-0.3,0.2-0.7,0.5c-0.4,0.3-0.7,0.5-0.9,0.7c-0.2,0.2-0.5,0.3-0.8,0.6
	c-0.3,0.2-0.7,0.4-1,0.5c-0.3,0.1-0.6,0.2-0.8,0.2h0c-0.3,0-0.5-0.1-0.8-0.2c-0.3-0.1-0.6-0.3-1-0.5c-0.3-0.2-0.6-0.4-0.8-0.6
	c-0.2-0.2-0.5-0.4-0.9-0.7c-0.4-0.3-0.6-0.5-0.7-0.5c-2.6-1.9-5.1-3.8-7.5-5.6c-1.8-1.4-3.2-3.2-3.2-5.2C3.3,9.4,3.4,9.3,3.5,9.2z
	 M3.9,29.2c-0.2,0-0.3-0.1-0.4-0.2c-0.1-0.1-0.2-0.2-0.2-0.4V15c0.4,0.4,1.3,1.1,1.8,1.4c3.4,2.4,6,4.3,8,5.8
	c0.6,0.5,1.2,0.9,1.6,1.2c0.4,0.3,0.9,0.6,1.6,0.8s1.3,0.4,1.9,0.4h0c0.6,0,1.2-0.1,1.9-0.4s1.2-0.6,1.6-0.8
	c0.4-0.3,0.9-0.7,1.6-1.2c2-1.5,4.7-3.5,8-5.8c0.5-0.3,1.4-1,1.8-1.4v3.9c-1.5,0.4-2.6,1.5-2.6,3v2.7h-1.2c-1.1,0-2,0.9-2,2v2.6H3.9
	z M32.2,22.3c0-1,0.9-1.7,1.9-1.7c1.1,0,1.9,0.7,1.9,1.7v2.4h-3.9L32.2,22.3L32.2,22.3z M39,33c0,0.3-0.3,0.6-0.6,0.6H30
	c-0.3,0-0.6-0.3-0.6-0.6v-5.9c0-0.3,0.3-0.6,0.6-0.6h8.4c0.3,0,0.6,0.3,0.6,0.6V33z M35.4,29.1L35.4,29.1c0,0.4-0.2,0.8-0.6,1v1.5
	c0,0.4-0.3,0.7-0.7,0.7c-0.4,0-0.7-0.3-0.7-0.7v-1.5c-0.3-0.2-0.6-0.6-0.6-1l0,0c0-0.7,0.5-1.2,1.2-1.2l0,0
	C34.9,27.9,35.4,28.5,35.4,29.1z"/>
</svg>
