<?xml version="1.0" encoding="utf-8"?>
<!-- Generator: Adobe Illustrator 21.1.0, SVG Export Plug-In . SVG Version: 6.00 Build 0)  -->
<svg version="1.1" id="Ebene_1" xmlns="http://www.w3.org/2000/svg" xmlns:xlink="http://www.w3.org/1999/xlink" x="0px" y="0px"
	 viewBox="0 0 42.5 42.5" style="enable-background:new 0 0 42.5 42.5;" xml:space="preserve">
<path d="M28.7,31.9c0-0.3-0.1-0.6-0.3-0.8s-0.5-0.3-0.8-0.3c-0.3,0-0.6,0.1-0.8,0.3s-0.3,0.5-0.3,0.8s0.1,0.6,0.3,0.8
	c0.2,0.2,0.5,0.3,0.8,0.3c0.3,0,0.6-0.1,0.8-0.3C28.6,32.5,28.7,32.3,28.7,31.9z M33.2,31.9c0-0.3-0.1-0.6-0.3-0.8s-0.5-0.3-0.8-0.3
	s-0.6,0.1-0.8,0.3s-0.3,0.5-0.3,0.8s0.1,0.6,0.3,0.8c0.2,0.2,0.5,0.3,0.8,0.3s0.6-0.1,0.8-0.3C33.1,32.5,33.2,32.3,33.2,31.9z
	 M35.5,28v5.7c0,0.5-0.2,0.9-0.5,1.2s-0.7,0.5-1.2,0.5H7.7c-0.5,0-0.9-0.2-1.2-0.5C6.2,34.5,6,34.1,6,33.6V28c0-0.5,0.2-0.9,0.5-1.2
	c0.3-0.3,0.7-0.5,1.2-0.5h7.6c0.2,0.7,0.7,1.2,1.2,1.6c0.6,0.4,1.2,0.6,2,0.6H23c0.7,0,1.4-0.2,2-0.6s1-1,1.2-1.6h7.6
	c0.5,0,0.9,0.2,1.2,0.5C35.3,27.1,35.5,27.5,35.5,28z M29.7,16.5c-0.2,0.5-0.5,0.7-1,0.7h-4.5v7.9c0,0.3-0.1,0.6-0.3,0.8
	s-0.5,0.3-0.8,0.3h-4.5c-0.3,0-0.6-0.1-0.8-0.3c-0.2-0.2-0.3-0.5-0.3-0.8v-7.9h-4.5c-0.5,0-0.8-0.2-1-0.7c-0.2-0.5-0.1-0.9,0.2-1.2
	l7.9-7.9C20.2,7.1,20.4,7,20.7,7c0.3,0,0.6,0.1,0.8,0.3l7.9,7.9C29.8,15.6,29.9,16,29.7,16.5z"/>
</svg>
