<?xml version="1.0" encoding="utf-8"?>
<!-- Generator: Adobe Illustrator 21.1.0, SVG Export Plug-In . SVG Version: 6.00 Build 0)  -->
<svg version="1.1" id="Ebene_1" xmlns="http://www.w3.org/2000/svg" xmlns:xlink="http://www.w3.org/1999/xlink" x="0px" y="0px"
	 viewBox="0 0 42.5 42.5" style="enable-background:new 0 0 42.5 42.5;" xml:space="preserve">
<path d="M10,11.3v4.9h29.2v19.4H10c0,0.7,0.2,1.2,0.7,1.7c0.5,0.5,1.1,0.7,1.7,0.7h26.7c0.7,0,1.2-0.2,1.7-0.7
	c0.5-0.5,0.7-1.1,0.7-1.7V11.3c0-0.7-0.2-1.2-0.7-1.7s-1.1-0.7-1.7-0.7h-2.4V7c0-0.8-0.3-1.6-0.9-2.1C35.3,4.3,34.6,4,33.7,4h-1.2
	c-0.8,0-1.6,0.3-2.1,0.9c-0.6,0.6-0.9,1.3-0.9,2.1v1.8h-7.3V7c0-0.8-0.3-1.6-0.9-2.1S20,4,19.1,4h-1.2c-0.8,0-1.6,0.3-2.1,0.9
	c-0.6,0.6-0.9,1.3-0.9,2.1v1.8h-2.4c-0.7,0-1.2,0.2-1.7,0.7S10,10.6,10,11.3z M31.9,7c0-0.2,0.1-0.3,0.2-0.4s0.3-0.2,0.4-0.2h1.2
	c0.2,0,0.3,0.1,0.4,0.2s0.2,0.3,0.2,0.4v5.5c0,0.2-0.1,0.3-0.2,0.4s-0.3,0.2-0.4,0.2h-1.2c-0.2,0-0.3-0.1-0.4-0.2s-0.2-0.3-0.2-0.4
	V7z M17.3,7c0-0.2,0.1-0.3,0.2-0.4s0.3-0.2,0.4-0.2h1.2c0.2,0,0.3,0.1,0.4,0.2s0.2,0.3,0.2,0.4v5.5c0,0.2-0.1,0.3-0.2,0.4
	s-0.3,0.2-0.4,0.2h-1.2c-0.2,0-0.3-0.1-0.4-0.2s-0.2-0.3-0.2-0.4V7z M22.3,25.7c0,0.3-0.1,0.5-0.3,0.7l-5.2,5.2
	c-0.2,0.2-0.4,0.3-0.7,0.3c-0.3,0-0.5-0.1-0.7-0.3L14.8,31c-0.2-0.2-0.3-0.4-0.3-0.7s0.1-0.5,0.3-0.7l2.3-2.3H1.9
	c-0.3,0-0.5-0.1-0.7-0.3S1,26.4,1,26.2v-1c0-0.3,0.1-0.5,0.3-0.7s0.4-0.3,0.7-0.3h15.2l-2.3-2.3c-0.2-0.2-0.3-0.4-0.3-0.7
	c0-0.3,0.1-0.5,0.3-0.7l0.6-0.6c0.2-0.2,0.4-0.3,0.7-0.3c0.3,0,0.5,0.1,0.7,0.3l5.2,5.2C22.2,25.1,22.3,25.4,22.3,25.7z"/>
</svg>
