<?xml version="1.0" encoding="utf-8"?>
<!-- Generator: Adobe Illustrator 23.0.1, SVG Export Plug-In . SVG Version: 6.00 Build 0)  -->
<svg version="1.1" id="Ebene_1" xmlns="http://www.w3.org/2000/svg" xmlns:xlink="http://www.w3.org/1999/xlink" x="0px" y="0px"
	 viewBox="0 0 42.52 42.52" style="enable-background:new 0 0 42.52 42.52;" xml:space="preserve">
<style type="text/css">
	.st0{fill-rule:evenodd;clip-rule:evenodd;}
</style>
<path class="st0" d="M36.97,7.06c-0.95,0-1.9,0-2.85,0c-8.5,0-17,0-25.5,0c-0.95,0-1.9,0-2.85,0c-0.54,0-0.97,0.4-0.97,0.9
	c0,0.5,0.43,0.9,0.97,0.9h1.88v18.73c0,0.5,0.43,0.9,0.97,0.9h25.5c0.54,0,0.97-0.4,0.97-0.9V8.86h1.88c0.54,0,0.97-0.4,0.97-0.9
	C37.94,7.46,37.51,7.06,36.97,7.06L36.97,7.06z M31.12,13.8l-9.06,8.38c-0.38,0.35-0.99,0.35-1.37,0l-3.65-3.37l-4.56,4.21
	c-0.19,0.18-0.44,0.26-0.69,0.26c-0.25,0-0.5-0.09-0.69-0.26c-0.38-0.35-0.38-0.92,0-1.27l5.24-4.85c0.38-0.35,0.99-0.35,1.37,0
	l3.65,3.37l8.37-7.74c0.38-0.35,0.99-0.35,1.37,0C31.5,12.88,31.5,13.45,31.12,13.8L31.12,13.8z M31.12,13.8 M20.55,34.47
	c0,0.46,0.37,0.83,0.83,0.83c0.46,0,0.83-0.37,0.83-0.83v-6.03h-1.66V34.47z M20.55,34.47 M25.33,28.44h-2.34l6.61,6.61
	c0.32,0.32,0.85,0.32,1.17,0c0.32-0.32,0.32-0.85,0-1.17L25.33,28.44z M25.33,28.44 M11.97,33.89c-0.32,0.32-0.32,0.85,0,1.17
	c0.32,0.32,0.85,0.32,1.17,0l6.62-6.62h-2.35L11.97,33.89z M11.97,33.89"/>
</svg>
