<?xml version="1.0" encoding="utf-8"?>
<!-- Generator: Adobe Illustrator 21.1.0, SVG Export Plug-In . SVG Version: 6.00 Build 0)  -->
<svg version="1.1" id="Ebene_1" xmlns="http://www.w3.org/2000/svg" xmlns:xlink="http://www.w3.org/1999/xlink" x="0px" y="0px"
	 viewBox="0 0 42.5 42.5" style="enable-background:new 0 0 42.5 42.5;" xml:space="preserve">
<path d="M28.7,16.4h-15c-0.7,0-1.3-0.6-1.3-1.3s0.6-1.3,1.3-1.3h15c0.7,0,1.3,0.6,1.3,1.3S29.5,16.4,28.7,16.4z M30,21.6
	c0-0.7-0.6-1.3-1.3-1.3h-15c-0.7,0-1.3,0.6-1.3,1.3s0.6,1.3,1.3,1.3h15C29.5,22.9,30,22.3,30,21.6z M37.2,35.1
	c0.4-0.2,0.6-0.6,0.6-1.1V8.3c0-0.7-0.6-1.3-1.3-1.3H6.3C5.6,7,5,7.6,5,8.3v20.5c0,0.7,0.6,1.3,1.3,1.3h21.5l8.2,5.1
	c0.2,0.1,0.5,0.2,0.7,0.2C36.8,35.3,37,35.3,37.2,35.1z M7.6,9.6h27.7v22.1l-6.5-4c-0.2-0.1-0.4-0.2-0.7-0.2H7.6V9.6z"/>
</svg>
