<?xml version="1.0" encoding="utf-8"?>
<svg version="1.1" id="Ebene_1" x="0px" y="0px" viewBox="0 0 42.5 42.5" style="enable-background:new 0 0 42.5 42.5;" xmlns="http://www.w3.org/2000/svg">
  <path d="M 35.6 21 C 35.6 18.4 34.9 15.9 33.6 13.7 C 32.3 11.5 30.5 9.7 28.3 8.4 C 26.1 7.1 23.6 6.4 21 6.4 C 18.4 6.4 15.9 7.1 13.7 8.4 C 11.5 9.7 9.7 11.5 8.4 13.7 C 7.1 15.9 6.4 18.4 6.4 21 C 6.4 23.6 7.1 26.1 8.4 28.3 C 9.7 30.5 11.5 32.3 13.7 33.6 C 15.9 34.9 18.4 35.6 21 35.6 C 23.6 35.6 26.1 34.9 28.3 33.6 C 30.5 32.3 32.3 30.5 33.6 28.3 C 34.9 26.1 35.6 23.6 35.6 21 Z M 38 21 C 38 24.1 37.2 26.9 35.7 29.5 C 34.2 32.1 32.1 34.2 29.5 35.7 C 26.9 37.2 24.1 38 21 38 C 17.9 38 15.1 37.2 12.5 35.7 C 9.9 34.2 7.8 32.1 6.3 29.5 C 4.8 26.9 4 24.1 4 21 C 4 17.9 4.8 15.1 6.3 12.5 C 7.8 9.9 9.9 7.8 12.5 6.3 C 15.1 4.8 17.9 4 21 4 C 24.1 4 26.9 4.8 29.5 6.3 C 32.1 7.8 34.2 9.9 35.7 12.5 C 37.2 15.1 38 17.9 38 21 Z"/>
</svg>