<?xml version="1.0" encoding="utf-8"?>
<!-- Generator: Adobe Illustrator 21.1.0, SVG Export Plug-In . SVG Version: 6.00 Build 0)  -->
<svg version="1.1" id="Ebene_1" xmlns="http://www.w3.org/2000/svg" xmlns:xlink="http://www.w3.org/1999/xlink" x="0px" y="0px"
	 viewBox="0 0 42.5 42.5" style="enable-background:new 0 0 42.5 42.5;" xml:space="preserve">
<path d="M26,15.5c-0.4-0.3-1-0.3-1.5-0.1c-0.9,0.4-1.8,0.6-2.7,0.7v-1.5c1.9-0.5,3.2-2.2,3.2-4.2c0-0.9-0.5-2.1-1.6-3.7
	c-0.8-1.1-1.6-2-1.9-2.4C21.4,4.1,21.1,4,20.8,4c0,0,0,0,0,0c-0.3,0-0.6,0.1-0.8,0.4c-0.3,0.4-1.1,1.3-1.9,2.4
	c-1.1,1.5-1.6,2.7-1.6,3.7c0,2.1,1.4,3.8,3.4,4.2v1.5c-0.9-0.1-1.8-0.3-2.7-0.7c-0.5-0.2-1-0.2-1.5,0.1c-0.4,0.3-0.7,0.8-0.7,1.3
	v18.8c0,1.3,1.1,2.4,2.4,2.4h6.9c1.3,0,2.4-1.1,2.4-2.4V16.8C26.7,16.3,26.4,15.8,26,15.5z M18.5,10.4c0-0.7,0.9-2.3,2.3-4
	c1.4,1.7,2.3,3.3,2.3,4c0,0.9-0.5,1.7-1.3,2.1v-1.2c0-0.5-0.4-1-1-1c-0.5,0-1,0.4-1,1v1.3C19,12.2,18.5,11.4,18.5,10.4z"/>
</svg>
