<?xml version="1.0" encoding="utf-8"?>
<!-- Generator: Adobe Illustrator 23.0.1, SVG Export Plug-In . SVG Version: 6.00 Build 0)  -->
<svg version="1.1" id="Ebene_1" xmlns="http://www.w3.org/2000/svg" xmlns:xlink="http://www.w3.org/1999/xlink" x="0px" y="0px"
	 viewBox="0 0 42.52 42.52" style="enable-background:new 0 0 42.52 42.52;" xml:space="preserve">
<path d="M29.76,35.33H17.81v-1.09h11.95V35.33z M29.6,20.12h-2.51L32.35,11L33,11.37l1.23,0.71L29.6,20.12z M29.6,20.12
	 M34.57,11.02l-1.47-0.85l1.86-1.53L34.57,11.02z M34.57,11.02 M16.77,21.2H30.8l-1,11.95H17.77L16.77,21.2z M16.77,21.2
	 M11.17,9.41l2.82-1.63l1.63,2.82l0,0l-2.82,1.63L11.17,9.41z M11.17,9.41 M24.87,10.34H22.7v9.78h2.17V10.34z M13.81,12.9
	l1.88-1.08l4.8,8.31h-2.51L13.81,12.9z M13.81,12.9 M24.63,9.26h-1.69L23.79,7l0.51,1.36L24.63,9.26z M24.63,9.26 M14.36,18.55
	L15.3,18l-1.06-1.84l-0.84-1.46l0.47-0.27l-0.54-0.94l-0.94,0.54c-0.26,0.15-0.35,0.48-0.2,0.74L14.36,18.55z M13.36,17.55"/>
</svg>
