<?xml version="1.0" encoding="utf-8"?>
<!-- Generator: Adobe Illustrator 21.1.0, SVG Export Plug-In . SVG Version: 6.00 Build 0)  -->
<svg version="1.1" id="Ebene_1" xmlns="http://www.w3.org/2000/svg" xmlns:xlink="http://www.w3.org/1999/xlink" x="0px" y="0px"
	 viewBox="0 0 42.5 42.5" style="enable-background:new 0 0 42.5 42.5;" xml:space="preserve">
<path d="M32.2,17.1h-0.7v-3.3c0,0,0,0,0-0.1c0-0.1,0-0.3-0.1-0.4l-5.5-6.2c0,0,0,0,0,0c0,0-0.1-0.1-0.1-0.1c0,0,0,0,0,0
	c0,0-0.1,0-0.1,0c0,0,0,0,0,0c0,0-0.1,0-0.1,0H12.1C11.5,7,11,7.5,11,8.1v9h-0.7c-0.9,0-1.6,0.7-1.6,1.6V27c0,0.9,0.7,1.6,1.6,1.6
	H11v5.7c0,0.6,0.5,1.1,1.1,1.1h18.3c0.6,0,1.1-0.5,1.1-1.1v-5.7h0.7c0.9,0,1.6-0.7,1.6-1.6v-8.3C33.8,17.8,33.1,17.1,32.2,17.1
	L32.2,17.1z M12.1,8.1H25v5.7c0,0.3,0.2,0.6,0.6,0.6h4.9v2.8H12.1V8.1z M30.4,33.9H12.1v-5.4h18.3V33.9z M28.5,26.3 M15.3,23.9
	l0.6-4.8h1.3L16,26.7h-1.3L14,22.2l-0.7,4.5h-1.3l-1.1-7.6h1.3l0.6,4.7l0.8-4.7h1.1L15.3,23.9z M21.2,23.4h-2v2h2.4v1.3h-3.7v-7.6
	h3.7v1.3h-2.4v1.8h2V23.4z M22.3,26.7v-7.6h2c0.7,0,1.2,0.2,1.5,0.5c0.3,0.4,0.5,0.9,0.5,1.5c0,0.4-0.1,0.7-0.2,1
	c-0.1,0.3-0.3,0.5-0.6,0.6c0.3,0.1,0.5,0.3,0.7,0.6c0.2,0.3,0.2,0.7,0.2,1.1c0,0.7-0.2,1.3-0.5,1.7c-0.3,0.4-0.8,0.6-1.5,0.6H22.3z
	 M23.6,22.3h0.7c0.5,0,0.8-0.3,0.8-0.9c0-0.3-0.1-0.6-0.2-0.7c-0.1-0.1-0.3-0.2-0.6-0.2h-0.7V22.3z M23.6,23.4v2h0.8
	c0.2,0,0.4-0.1,0.5-0.3c0.1-0.2,0.2-0.4,0.2-0.7c0-0.7-0.2-1-0.6-1H23.6z M28.6,24v2.7h-1.3v-7.6h2.2c0.6,0,1.1,0.2,1.5,0.7
	c0.4,0.5,0.6,1.1,0.6,1.8S31.4,23,31,23.4c-0.4,0.4-0.9,0.6-1.5,0.6H28.6z M28.6,22.8h0.9c0.2,0,0.4-0.1,0.6-0.3
	c0.1-0.2,0.2-0.5,0.2-0.8c0-0.4-0.1-0.7-0.2-0.9c-0.1-0.2-0.3-0.3-0.6-0.3h-0.9V22.8z"/>
</svg>
