<?xml version="1.0" encoding="utf-8"?>
<!-- Generator: Adobe Illustrator 21.1.0, SVG Export Plug-In . SVG Version: 6.00 Build 0)  -->
<svg version="1.1" id="Ebene_1" xmlns="http://www.w3.org/2000/svg" xmlns:xlink="http://www.w3.org/1999/xlink" x="0px" y="0px"
	 viewBox="0 0 42.5 42.5" style="enable-background:new 0 0 42.5 42.5;" xml:space="preserve">
<path d="M19.5,20.5L32.7,7.3C32.9,7.1,33.1,7,33.4,7s0.5,0.1,0.7,0.3l1.4,1.4c0.2,0.2,0.3,0.4,0.3,0.7s-0.1,0.5-0.3,0.7L24.3,21.2
	l11.2,11.2c0.2,0.2,0.3,0.4,0.3,0.7s-0.1,0.5-0.3,0.7L34,35c-0.2,0.2-0.4,0.3-0.7,0.3s-0.5-0.1-0.7-0.3L19.5,21.8
	c-0.2-0.2-0.3-0.4-0.3-0.7C19.2,20.9,19.3,20.7,19.5,20.5z M13.4,7.3c-0.2,0.2-0.3,0.4-0.3,0.7V11v23.4c0,0.3,0.1,0.5,0.3,0.7
	c0.2,0.2,0.4,0.3,0.7,0.3h2c0.3,0,0.5-0.1,0.7-0.3s0.3-0.4,0.3-0.7V10.9l0-2.9c0-0.3-0.1-0.5-0.3-0.7C16.6,7.1,16.3,7,16.1,7h-2
	C13.8,7,13.6,7.1,13.4,7.3z M7.3,7.3C7.1,7.4,7,7.7,7,7.9V11v23.4c0,0.3,0.1,0.5,0.3,0.7c0.2,0.2,0.4,0.3,0.7,0.3h2
	c0.3,0,0.5-0.1,0.7-0.3c0.2-0.2,0.3-0.4,0.3-0.7V10.9l0-2.9c0-0.3-0.1-0.5-0.3-0.7C10.4,7.1,10.2,7,9.9,7h-2C7.7,7,7.4,7.1,7.3,7.3z
	"/>
</svg>
