<?xml version="1.0" encoding="utf-8"?>
<!-- Generator: Adobe Illustrator 21.1.0, SVG Export Plug-In . SVG Version: 6.00 Build 0)  -->
<svg version="1.1" id="Ebene_1" xmlns="http://www.w3.org/2000/svg" xmlns:xlink="http://www.w3.org/1999/xlink" x="0px" y="0px"
	 viewBox="0 0 42.5 42.5" style="enable-background:new 0 0 42.5 42.5;" xml:space="preserve">
<path id="Pfeil_links_3_" d="M21.2,29.5c-0.2,0-0.5-0.1-0.7-0.3L7.3,16C7.1,15.8,7,15.6,7,15.4s0.1-0.5,0.3-0.7l1.4-1.4
	C8.9,13.1,9.1,13,9.4,13c0.2,0,0.5,0.1,0.7,0.3l11.2,11.2l11.2-11.2c0.2-0.2,0.4-0.3,0.7-0.3s0.5,0.1,0.7,0.3l1.4,1.4
	c0.2,0.2,0.3,0.4,0.3,0.7S35.2,15.8,35,16L21.8,29.2C21.6,29.4,21.4,29.5,21.2,29.5z"/>
</svg>
