<?xml version="1.0" encoding="utf-8"?>
<!-- Generator: Adobe Illustrator 21.1.0, SVG Export Plug-In . SVG Version: 6.00 Build 0)  -->
<svg version="1.1" id="Ebene_1" xmlns="http://www.w3.org/2000/svg" xmlns:xlink="http://www.w3.org/1999/xlink" x="0px" y="0px"
	 viewBox="0 0 42.5 42.5" style="enable-background:new 0 0 42.5 42.5;" xml:space="preserve">
<path d="M7.9,35.6h27.2V16.1H7.9V35.6z M15.2,12.5V7c0-0.2-0.1-0.3-0.2-0.4s-0.3-0.2-0.4-0.2h-1.2c-0.2,0-0.3,0.1-0.4,0.2
	c-0.1,0.1-0.2,0.3-0.2,0.4v5.5c0,0.2,0.1,0.3,0.2,0.4c0.1,0.1,0.3,0.2,0.4,0.2h1.2c0.2,0,0.3-0.1,0.4-0.2S15.2,12.7,15.2,12.5z
	 M29.8,12.5V7c0-0.2-0.1-0.3-0.2-0.4s-0.3-0.2-0.4-0.2h-1.2c-0.2,0-0.3,0.1-0.4,0.2S27.3,6.9,27.3,7v5.5c0,0.2,0.1,0.3,0.2,0.4
	s0.3,0.2,0.4,0.2h1.2c0.2,0,0.3-0.1,0.4-0.2S29.8,12.7,29.8,12.5z M37.1,11.3v24.3c0,0.7-0.2,1.2-0.7,1.7c-0.5,0.5-1.1,0.7-1.7,0.7
	H7.9c-0.7,0-1.2-0.2-1.7-0.7c-0.5-0.5-0.7-1.1-0.7-1.7V11.3c0-0.7,0.2-1.2,0.7-1.7s1.1-0.7,1.7-0.7h2.4V7c0-0.8,0.3-1.6,0.9-2.1
	S12.5,4,13.4,4h1.2c0.8,0,1.6,0.3,2.1,0.9c0.6,0.6,0.9,1.3,0.9,2.1v1.8h7.3V7c0-0.8,0.3-1.6,0.9-2.1C26.4,4.3,27.1,4,27.9,4h1.2
	c0.8,0,1.6,0.3,2.1,0.9s0.9,1.3,0.9,2.1v1.8h2.4c0.7,0,1.2,0.2,1.7,0.7C36.8,10.1,37.1,10.6,37.1,11.3z M20.7,32.1h-9.2v-2l4.3-4.5
	c1-1.2,1.6-2.1,1.6-2.8c0-0.6-0.1-1-0.4-1.3c-0.2-0.3-0.6-0.4-1.1-0.4c-0.5,0-0.8,0.2-1.1,0.6c-0.3,0.4-0.4,0.9-0.4,1.5h-3.1
	c0-0.8,0.2-1.6,0.6-2.2c0.4-0.7,1-1.2,1.7-1.6c0.7-0.4,1.5-0.6,2.4-0.6c1.4,0,2.5,0.3,3.3,1c0.8,0.7,1.2,1.6,1.2,2.8
	c0,0.5-0.1,1-0.3,1.5c-0.2,0.5-0.5,1-0.9,1.6c-0.4,0.5-1.1,1.3-2,2.2l-1.7,2h5.2V32.1z M28.3,27c-0.7,0.6-1.4,0.9-2.2,0.9
	c-1.2,0-2.2-0.4-2.9-1.2c-0.7-0.8-1.1-1.9-1.1-3.3c0-0.8,0.2-1.6,0.6-2.4s0.9-1.3,1.7-1.7c0.7-0.4,1.5-0.6,2.4-0.6
	c0.9,0,1.7,0.2,2.4,0.7c0.7,0.4,1.3,1.1,1.6,1.9s0.6,1.7,0.6,2.8v1.2c0,1.5-0.3,2.7-0.9,3.8s-1.4,1.9-2.4,2.5
	c-1.1,0.6-2.3,0.9-3.7,0.9h-0.2v-2.5l0.6,0C26.9,29.7,28.1,28.7,28.3,27z M26.9,25.6c0.7,0,1.1-0.3,1.4-0.9v-1.3
	c0-0.8-0.1-1.5-0.4-1.9c-0.3-0.4-0.7-0.6-1.2-0.6c-0.4,0-0.8,0.2-1.1,0.7c-0.3,0.5-0.4,1-0.4,1.7c0,0.7,0.1,1.2,0.4,1.7
	C26,25.4,26.4,25.6,26.9,25.6z"/>
</svg>
