<?xml version="1.0" encoding="utf-8"?>
<!-- Generator: Adobe Illustrator 21.1.0, SVG Export Plug-In . SVG Version: 6.00 Build 0)  -->
<svg version="1.1" id="Ebene_1" xmlns="http://www.w3.org/2000/svg" xmlns:xlink="http://www.w3.org/1999/xlink" x="0px" y="0px"
	 viewBox="0 0 42.5 42.5" style="enable-background:new 0 0 42.5 42.5;" xml:space="preserve">
<path d="M38.5,33.1H41v3.1c0,0.5-0.2,0.9-0.5,1.3S39.6,38,39.1,38H13.6c-0.5,0-0.9-0.2-1.3-0.5s-0.5-0.8-0.5-1.3v-3.1h2.4v2.5h24.3
	V33.1z M41,14.3v18.8h-2.4v-17h-7.9c-0.5,0-0.9-0.2-1.3-0.5c-0.4-0.4-0.5-0.8-0.5-1.3V6.4H14.2v11.7h-2.4V5.8c0-0.5,0.2-0.9,0.5-1.3
	C12.7,4.2,13.1,4,13.6,4h17c0.5,0,1.1,0.1,1.7,0.4c0.6,0.3,1.1,0.6,1.4,0.9l5.9,5.9c0.4,0.4,0.7,0.8,0.9,1.4
	C40.8,13.3,41,13.8,41,14.3z M38.4,13.7c-0.1-0.4-0.3-0.6-0.4-0.8L32,7c-0.2-0.2-0.4-0.3-0.8-0.4v7.1H38.4z M23.3,25.3
	c0,0.3-0.1,0.5-0.3,0.7l-5.2,5.2c-0.2,0.2-0.4,0.3-0.7,0.3c-0.3,0-0.5-0.1-0.7-0.3l-0.6-0.6c-0.2-0.2-0.3-0.4-0.3-0.7
	s0.1-0.5,0.3-0.7l2.3-2.3H2.9c-0.3,0-0.5-0.1-0.7-0.3C2.1,26.3,2,26.1,2,25.8v-1c0-0.3,0.1-0.5,0.3-0.7c0.2-0.2,0.4-0.3,0.7-0.3
	h15.2l-2.3-2.3c-0.2-0.2-0.3-0.4-0.3-0.7s0.1-0.5,0.3-0.7l0.6-0.6c0.2-0.2,0.4-0.3,0.7-0.3c0.3,0,0.5,0.1,0.7,0.3l5.2,5.2
	C23.2,24.7,23.3,25,23.3,25.3z"/>
</svg>
