<?xml version="1.0" encoding="utf-8"?>
<!-- Generator: Adobe Illustrator 21.1.0, SVG Export Plug-In . SVG Version: 6.00 Build 0)  -->
<svg version="1.1" id="Ebene_1" xmlns="http://www.w3.org/2000/svg" xmlns:xlink="http://www.w3.org/1999/xlink" x="0px" y="0px"
	 viewBox="0 0 42.5 42.5" style="enable-background:new 0 0 42.5 42.5;" xml:space="preserve">
<style type="text/css">
	.st0{fill:#1D1D1B;}
	.st1{fill:#D4EDFC;}
	.st2{display:none;}
</style>
<g>
	<path class="st0" d="M8.7,34.1h24.1V16.4H8.7V34.1z M14.7,12.5V7c0-0.2-0.1-0.3-0.2-0.4s-0.3-0.2-0.4-0.2h-1.2
		c-0.2,0-0.3,0.1-0.4,0.2c-0.1,0.1-0.2,0.3-0.2,0.4v5.5c0,0.2,0.1,0.3,0.2,0.4c0.1,0.1,0.3,0.2,0.4,0.2h1.2c0.2,0,0.3-0.1,0.4-0.2
		S14.7,12.7,14.7,12.5z M29.3,12.5V7c0-0.2-0.1-0.3-0.2-0.4s-0.3-0.2-0.4-0.2h-1.2c-0.2,0-0.3,0.1-0.4,0.2S26.9,6.9,26.9,7v5.5
		c0,0.2,0.1,0.3,0.2,0.4s0.3,0.2,0.4,0.2h1.2c0.2,0,0.3-0.1,0.4-0.2S29.3,12.7,29.3,12.5z M36.6,11.3v24.3c0,0.7-0.2,1.2-0.7,1.7
		c-0.5,0.5-1.1,0.7-1.7,0.7H7.4c-0.7,0-1.2-0.2-1.7-0.7C5.2,36.8,5,36.2,5,35.6V11.3c0-0.7,0.2-1.2,0.7-1.7s1.1-0.7,1.7-0.7h2.4V7
		c0-0.8,0.3-1.6,0.9-2.1S12.1,4,12.9,4h1.2c0.8,0,1.6,0.3,2.1,0.9c0.6,0.6,0.9,1.3,0.9,2.1v1.8h7.3V7c0-0.8,0.3-1.6,0.9-2.1
		C25.9,4.3,26.6,4,27.5,4h1.2c0.8,0,1.6,0.3,2.1,0.9s0.9,1.3,0.9,2.1v1.8h2.4c0.7,0,1.2,0.2,1.7,0.7C36.3,10.1,36.6,10.6,36.6,11.3z
		"/>
	<path class="st1" d="M14.4,22.3h-3.6v-3.6h3.6V22.3z M30.8,18.8H15.8v3.6h14.9V18.8z M14.4,23.4h-3.6V27h3.6V23.4z M30.8,23.4H15.8
		V27h14.9V23.4z M14.4,28.2h-3.6v3.6h3.6V28.2z M30.8,28.2H15.8v3.6h14.9V28.2z"/>
</g>
<path class="st2" d="M35.9,9.6c-0.5-0.5-1.1-0.7-1.7-0.7h-2.4V7c0-0.8-0.3-1.6-0.9-2.1C30.2,4.3,29.5,4,28.7,4h-1.2
	c-0.8,0-1.6,0.3-2.1,0.9c-0.6,0.6-0.9,1.3-0.9,2.1v1.8h-7.3V7c0-0.8-0.3-1.6-0.9-2.1C15.7,4.3,14.9,4,14.1,4h-1.2
	c-0.8,0-1.6,0.3-2.1,0.9C10.2,5.5,9.9,6.2,9.9,7v1.8H7.4c-0.7,0-1.2,0.2-1.7,0.7S5,10.6,5,11.3v24.3c0,0.7,0.2,1.2,0.7,1.7
	C6.2,37.8,6.8,38,7.4,38h26.7c0.7,0,1.2-0.2,1.7-0.7c0.5-0.5,0.7-1.1,0.7-1.7V11.3C36.6,10.6,36.3,10.1,35.9,9.6z M12.3,7
	c0-0.2,0.1-0.3,0.2-0.4c0.1-0.1,0.3-0.2,0.4-0.2h1.2c0.2,0,0.3,0.1,0.4,0.2c0.1,0.1,0.2,0.3,0.2,0.4v5.5c0,0.2-0.1,0.3-0.2,0.4
	c-0.1,0.1-0.3,0.2-0.4,0.2h-1.2c-0.2,0-0.3-0.1-0.4-0.2c-0.1-0.1-0.2-0.3-0.2-0.4V7z M16,34.1H8.8v-5.2H16V34.1z M16,27.9H8.8v-5.2
	H16V27.9z M16,21.6H8.8v-5.2H16V21.6z M24.3,34.1h-7.2v-5.2h7.2V34.1z M24.3,27.9h-7.2v-5.2h7.2V27.9z M24.3,21.6h-7.2v-5.2h7.2
	V21.6z M26.9,7c0-0.2,0.1-0.3,0.2-0.4c0.1-0.1,0.3-0.2,0.4-0.2h1.2c0.2,0,0.3,0.1,0.4,0.2c0.1,0.1,0.2,0.3,0.2,0.4v5.5
	c0,0.2-0.1,0.3-0.2,0.4c-0.1,0.1-0.3,0.2-0.4,0.2h-1.2c-0.2,0-0.3-0.1-0.4-0.2c-0.1-0.1-0.2-0.3-0.2-0.4V7z M32.8,34.1h-7.2v-5.2
	h7.2V34.1z M32.8,27.9h-7.2v-5.2h7.2V27.9z M32.8,21.6h-7.2v-5.2h7.2V21.6z"/>
</svg>
