<?xml version="1.0" encoding="utf-8"?>
<svg version="1.1" id="Ebene_1" x="0px" y="0px" viewBox="0 0 42.5 42.5" style="enable-background:new 0 0 42.5 42.5;" xmlns="http://www.w3.org/2000/svg">
  <path d="M 13.003 29.2 L 7.569 29.2 C 7.48 29.2 7.435 29.3 7.39 29.4 C 7.345 29.5 7.3 29.7 7.3 29.8 L 7.3 31 C 7.3 31.2 7.345 31.3 7.39 31.4 C 7.435 31.5 7.48 31.6 7.569 31.6 L 13.003 31.6 C 13.093 31.6 13.138 31.5 13.182 31.4 C 13.228 31.3 13.272 31.1 13.272 31 L 13.272 29.8 C 13.272 29.6 13.228 29.5 13.182 29.4 C 13.138 29.2 13.048 29.2 13.003 29.2 Z" style=""/>
  <path d="M 13.003 19.5 L 7.569 19.5 C 7.48 19.5 7.435 19.6 7.39 19.7 C 7.345 19.8 7.3 20 7.3 20.1 L 7.3 21.3 C 7.3 21.5 7.345 21.6 7.39 21.7 C 7.435 21.8 7.48 21.9 7.569 21.9 L 13.003 21.9 C 13.093 21.9 13.138 21.8 13.182 21.7 C 13.228 21.6 13.272 21.4 13.272 21.3 L 13.272 20.1 C 13.272 19.9 13.228 19.8 13.182 19.7 C 13.138 19.5 13.048 19.5 13.003 19.5 Z" style=""/>
  <path d="M 13.003 24.3 L 7.569 24.3 C 7.48 24.3 7.435 24.4 7.39 24.5 C 7.345 24.6 7.3 24.8 7.3 24.9 L 7.3 26.1 C 7.3 26.3 7.345 26.4 7.39 26.5 C 7.435 26.6 7.48 26.7 7.569 26.7 L 13.003 26.7 C 13.093 26.7 13.138 26.6 13.182 26.5 C 13.228 26.4 13.272 26.2 13.272 26.1 L 13.272 24.9 C 13.272 24.7 13.228 24.6 13.182 24.5 C 13.138 24.4 13.048 24.3 13.003 24.3 Z" style=""/>
  <path d="M 27.736 33.744 L 27.7 35.6 L 3.4 35.6 L 3.4 16.2 L 11.3 16.2 C 11.8 16.2 12.2 16 12.6 15.7 C 13 15.4 13.1 14.9 13.1 14.4 L 13.1 6.4 L 27.7 6.4 L 27.736 6.435 L 28.978 6.649 L 30.093 6.428 L 30.2 5.8 C 30.2 5.3 30 4.9 29.7 4.5 C 29.4 4.1 28.8 4 28.3 4 L 11.3 4 C 10.8 4 10.2 4.1 9.6 4.4 C 9.1 4.6 8.6 4.9 8.2 5.3 L 2.3 11.2 C 1.9 11.6 1.6 12 1.4 12.6 C 1.1 13.3 1 13.8 1 14.3 L 1 36.2 C 1 36.7 1.2 37.1 1.5 37.5 C 1.9 37.8 2.3 38 2.8 38 L 28.3 38 C 28.8 38 29.2 37.8 29.6 37.5 C 30 37.1 30.1 36.7 30.1 36.2 L 30.136 33.844 C 29.736 34.044 29.436 34.144 28.936 34.144 C 28.536 34.144 28.136 34.044 27.736 33.744 Z M 4 12.9 L 9.9 7 C 10.1 6.8 10.3 6.7 10.7 6.6 L 10.7 13.7 L 3.6 13.7 C 3.7 13.4 3.8 13.1 4 12.9 Z"/>
  <path d="M 35.219 17.899 C 35.219 17.632 35.153 17.363 35.023 17.161 L 31.566 10.885 C 31.175 10.15 30.392 9.75 29.543 9.75 L 21.716 9.75 C 20.868 9.75 20.087 10.15 19.696 10.885 L 16.237 17.161 C 16.108 17.363 16.042 17.632 16.042 17.899 L 16.042 31.19 C 16.042 31.855 16.695 32.389 17.411 32.389 L 33.849 32.389 C 34.633 32.389 35.219 31.855 35.219 31.19 L 35.219 17.899 Z M 30.001 11.552 L 33.001 16.964 L 26.543 16.964 L 26.543 11.285 L 29.543 11.285 C 29.738 11.285 29.87 11.354 30.001 11.552 L 30.001 11.552 Z M 21.325 11.552 C 21.391 11.419 21.587 11.285 21.783 11.285 L 24.783 11.285 L 24.783 16.964 L 18.324 16.964 L 21.325 11.552 Z M 33.458 30.854 L 17.804 30.854 L 17.804 18.499 L 33.523 18.499 L 33.523 30.854 Z M 33.458 30.854 M 20.478 21.572 C 20.478 22.239 21.064 22.705 21.783 22.705 L 29.543 22.705 C 30.263 22.705 30.847 22.17 30.847 21.572 C 30.847 20.902 30.263 20.437 29.543 20.437 L 21.783 20.437 C 21.064 20.369 20.478 20.902 20.478 21.572 L 20.478 21.572 Z M 20.478 21.572" style=""/>
</svg>