<?xml version="1.0" encoding="utf-8"?>
<!-- Generator: Adobe Illustrator 21.1.0, SVG Export Plug-In . SVG Version: 6.00 Build 0)  -->
<svg version="1.1" id="Ebene_1" xmlns="http://www.w3.org/2000/svg" xmlns:xlink="http://www.w3.org/1999/xlink" x="0px" y="0px"
	 viewBox="0 0 42.5 42.5" style="enable-background:new 0 0 42.5 42.5;" xml:space="preserve">
<path d="M12.2,17.2l3,3c-1.4,0.7-2.7,1.5-3.8,2.7c-0.8,0.8-2,0.8-2.8,0c-0.8-0.8-0.8-2,0-2.8C9.6,18.9,10.9,17.9,12.2,17.2z M3,14.5
	c-0.8,0.8-0.8,2,0,2.8c0.8,0.8,2,0.8,2.8,0c1.1-1.1,2.3-2.1,3.6-2.9l-2.9-2.9C5.3,12.4,4.1,13.4,3,14.5z M13.9,25.4
	c-0.8,0.8-0.8,2,0,2.8c0.8,0.8,2,0.8,2.8,0c1.2-1.2,2.7-1.8,4.4-1.8c0.1,0,0.2,0,0.4,0L18,22.9C16.4,23.4,15.1,24.3,13.9,25.4z
	 M21.1,29.9c-1.5,0-2.7,1.2-2.7,2.7c0,1.5,1.2,2.7,2.7,2.7c1.5,0,2.7-1.2,2.7-2.7C23.8,31.1,22.6,29.9,21.1,29.9z M36.4,17.3
	c0.4,0.4,0.9,0.6,1.4,0.6c0.5,0,1-0.2,1.4-0.6c0.8-0.8,0.8-2,0-2.8C34.4,9.7,28,7,21.1,7c-2.9,0-5.8,0.5-8.4,1.4l3.2,3.2
	C23,9.9,30.8,11.8,36.4,17.3z M30.9,22.8c0.4,0.4,0.9,0.6,1.4,0.6c0.5,0,1-0.2,1.4-0.6c0.8-0.8,0.8-2,0-2.8c-4-4-9.4-5.7-14.6-5.1
	l4.1,4.1C26,19.4,28.7,20.7,30.9,22.8z M30.3,28.3c0.3,0.3,0.4,0.6,0.5,0.8s0,0.5-0.2,0.7L29.5,31c-0.2,0.2-0.4,0.2-0.7,0.2
	s-0.6-0.2-0.8-0.5L7.2,10C7,9.7,6.8,9.5,6.7,9.2c-0.1-0.3,0-0.5,0.2-0.7l1.2-1.2C8.3,7.1,8.5,7,8.8,7.1c0.3,0.1,0.6,0.2,0.8,0.5
	L30.3,28.3z"/>
</svg>
