<?xml version="1.0" encoding="utf-8"?>
<!-- Generator: Adobe Illustrator 21.1.0, SVG Export Plug-In . SVG Version: 6.00 Build 0)  -->
<svg version="1.1" id="Ebene_1" xmlns="http://www.w3.org/2000/svg" xmlns:xlink="http://www.w3.org/1999/xlink" x="0px" y="0px"
	 viewBox="0 0 42.5 42.5" style="enable-background:new 0 0 42.5 42.5;" xml:space="preserve">
<path d="M37.6,15.5c-0.4-0.3-1-0.3-1.5-0.1c-0.9,0.4-1.8,0.6-2.7,0.7v-1.5c1.9-0.5,3.2-2.2,3.2-4.2c0-0.9-0.5-2.1-1.6-3.7
	c-0.8-1.1-1.6-2-1.9-2.4C33.1,4.1,32.7,4,32.4,4c0,0,0,0,0,0c-0.3,0-0.6,0.1-0.8,0.4c-0.3,0.4-1.1,1.3-1.9,2.4
	c-1.1,1.5-1.6,2.7-1.6,3.7c0,2.1,1.4,3.8,3.4,4.2v1.5c-0.9-0.1-1.8-0.3-2.7-0.7c-0.5-0.2-1-0.2-1.5,0.1c-0.4,0.3-0.7,0.8-0.7,1.3
	v18.8c0,1.3,1.1,2.4,2.4,2.4H36c1.3,0,2.4-1.1,2.4-2.4V16.8C38.3,16.3,38.1,15.8,37.6,15.5z M30.1,10.4c0-0.7,0.9-2.3,2.3-4
	c1.4,1.7,2.3,3.3,2.3,4c0,0.9-0.5,1.7-1.3,2.1v-1.2c0-0.5-0.4-1-1-1c-0.5,0-1,0.4-1,1v1.3C30.7,12.2,30.1,11.4,30.1,10.4z
	 M36.3,35.6c0,0.2-0.2,0.4-0.4,0.4H29c-0.2,0-0.4-0.2-0.4-0.4V17.5c1.2,0.5,2.5,0.7,3.8,0.7c0,0,0,0,0,0s0,0,0,0
	c1.3,0,2.6-0.2,3.8-0.7V35.6z M24.3,24.7c0,0.3-0.1,0.5-0.3,0.7l-5.2,5.2c-0.2,0.2-0.4,0.3-0.7,0.3c-0.3,0-0.5-0.1-0.7-0.3L16.8,30
	c-0.2-0.2-0.3-0.4-0.3-0.7s0.1-0.5,0.3-0.7l2.3-2.3H3.9c-0.3,0-0.5-0.1-0.7-0.3C3.1,25.7,3,25.4,3,25.2v-1c0-0.3,0.1-0.5,0.3-0.7
	c0.2-0.2,0.4-0.3,0.7-0.3h15.2l-2.3-2.3c-0.2-0.2-0.3-0.4-0.3-0.7c0-0.3,0.1-0.5,0.3-0.7l0.6-0.6c0.2-0.2,0.4-0.3,0.7-0.3
	c0.3,0,0.5,0.1,0.7,0.3l5.2,5.2C24.2,24.1,24.3,24.4,24.3,24.7z"/>
</svg>
