<?xml version="1.0" encoding="utf-8"?>
<!-- Generator: Adobe Illustrator 21.1.0, SVG Export Plug-In . SVG Version: 6.00 Build 0)  -->
<svg version="1.1" id="Ebene_1" xmlns="http://www.w3.org/2000/svg" xmlns:xlink="http://www.w3.org/1999/xlink" x="0px" y="0px"
	 viewBox="0 0 42.5 42.5" style="enable-background:new 0 0 42.5 42.5;" xml:space="preserve">
<path d="M38.7,7H3.8C3.2,7,2.6,7.5,2.6,8.2v25.9c0,0.7,0.5,1.2,1.2,1.2h34.8c0.7,0,1.2-0.5,1.2-1.2V8.2C39.9,7.5,39.3,7,38.7,7z
	 M37.5,9.4v4.8H5.1V9.4H37.5z M5.1,32.9V16.7h32.4v16.2H5.1z M33.3,11.7c0-0.9,0.7-1.6,1.6-1.6s1.6,0.7,1.6,1.6
	c0,0.9-0.7,1.6-1.6,1.6C34,13.3,33.3,12.6,33.3,11.7z M28.9,11.7c0-0.9,0.7-1.6,1.6-1.6c0.9,0,1.6,0.7,1.6,1.6
	c0,0.9-0.7,1.6-1.6,1.6C29.6,13.3,28.9,12.6,28.9,11.7z M24.5,11.7c0-0.9,0.7-1.6,1.6-1.6c0.9,0,1.6,0.7,1.6,1.6
	c0,0.9-0.7,1.6-1.6,1.6C25.2,13.3,24.5,12.6,24.5,11.7z M19.8,25.7l-4,3.4c-0.5,0.4-1.3,0.4-1.7-0.1c-0.4-0.5-0.4-1.3,0.1-1.7
	l2.9-2.5l-2.9-2.5c-0.5-0.4-0.6-1.2-0.1-1.7c0.4-0.5,1.2-0.6,1.7-0.1l4,3.4C20.3,24.4,20.3,25.2,19.8,25.7z M28.7,28.2
	c0,0.7-0.5,1.2-1.2,1.2h-4.8c-0.7,0-1.2-0.5-1.2-1.2c0-0.7,0.5-1.2,1.2-1.2h4.8C28.2,27,28.7,27.5,28.7,28.2z"/>
</svg>
