<?xml version="1.0" encoding="utf-8"?>
<!-- Generator: Adobe Illustrator 21.1.0, SVG Export Plug-In . SVG Version: 6.00 Build 0)  -->
<svg version="1.1" id="Ebene_1" xmlns="http://www.w3.org/2000/svg" xmlns:xlink="http://www.w3.org/1999/xlink" x="0px" y="0px"
	 viewBox="0 0 42.5 42.5" style="enable-background:new 0 0 42.5 42.5;" xml:space="preserve">
<path d="M32.5,17.1h-0.7v-3.3c0,0,0,0,0-0.1c0-0.1,0-0.3-0.1-0.4l-5.5-6.2c0,0,0,0,0,0c0,0-0.1-0.1-0.1-0.1c0,0,0,0,0,0
	c0,0-0.1,0-0.1,0c0,0,0,0,0,0c0,0-0.1,0-0.1,0H12.4c-0.6,0-1.1,0.5-1.1,1.1v9h-0.7c-0.9,0-1.6,0.7-1.6,1.6V27c0,0.9,0.7,1.6,1.6,1.6
	h0.7v5.7c0,0.6,0.5,1.1,1.1,1.1h18.3c0.6,0,1.1-0.5,1.1-1.1v-5.7h0.7c0.9,0,1.6-0.7,1.6-1.6v-8.3C34.1,17.8,33.4,17.1,32.5,17.1
	L32.5,17.1z M28.8,26.3 M15.4,18.7c0.5,0,0.9,0.1,1.2,0.2c0.3,0.1,0.6,0.3,0.8,0.6s0.4,0.5,0.5,0.8c0.1,0.3,0.1,0.6,0.1,0.9
	c0,0.3,0,0.6-0.1,0.9c-0.1,0.3-0.3,0.6-0.5,0.8s-0.5,0.4-0.8,0.6c-0.3,0.1-0.7,0.2-1.2,0.2h-1.8v2.7h-1.7v-7.7H15.4z M14.9,22.3
	c0.2,0,0.4,0,0.6,0c0.2,0,0.3-0.1,0.5-0.2c0.1-0.1,0.2-0.2,0.3-0.3c0.1-0.2,0.1-0.3,0.1-0.6s0-0.4-0.1-0.6c-0.1-0.2-0.2-0.3-0.3-0.3
	c-0.1-0.1-0.3-0.1-0.5-0.2s-0.4,0-0.6,0h-1.3v2.3H14.9z M22.4,18.7c0.5,0,1,0.1,1.4,0.2c0.4,0.2,0.8,0.4,1.1,0.7
	c0.3,0.3,0.6,0.7,0.7,1.2s0.3,1,0.3,1.7c0,0.6-0.1,1.1-0.2,1.5s-0.4,0.9-0.6,1.2c-0.3,0.3-0.7,0.6-1.1,0.8c-0.4,0.2-0.9,0.3-1.5,0.3
	h-3.3v-7.7H22.4z M22.3,24.9c0.2,0,0.5,0,0.7-0.1s0.4-0.2,0.6-0.4c0.2-0.2,0.3-0.4,0.4-0.7c0.1-0.3,0.2-0.7,0.2-1.1
	c0-0.4,0-0.7-0.1-1c-0.1-0.3-0.2-0.6-0.4-0.8c-0.2-0.2-0.4-0.4-0.7-0.5c-0.3-0.1-0.6-0.2-1-0.2h-1.2v4.8H22.3z M32.4,18.7v1.4h-3.7
	v1.8h3.2v1.3h-3.2v3.2H27v-7.7H32.4z M23.2,9.1c0.4,0.1,0.6,0.3,0.8,0.4l5.3,5.9c0.2,0.2,0.3,0.4,0.4,0.8h-6.5V9.1z"/>
</svg>
