<?xml version="1.0" encoding="utf-8"?>
<!-- Generator: Adobe Illustrator 23.1.1, SVG Export Plug-In . SVG Version: 6.00 Build 0)  -->
<svg version="1.1" id="Ebene_1" xmlns="http://www.w3.org/2000/svg" xmlns:xlink="http://www.w3.org/1999/xlink" x="0px" y="0px"
	 viewBox="0 0 42.5 42.5" style="enable-background:new 0 0 42.5 42.5;" xml:space="preserve">
<style type="text/css">
	.st0{fill:#FFFFFF;}
	.st1{fill:#020203;}
</style>
<path class="st0" d="M38.3,21.3c0,3.1-0.8,5.9-2.3,8.5c-1.5,2.6-3.6,4.7-6.2,6.2c-2.6,1.5-5.5,2.3-8.5,2.3c-3.1,0-5.9-0.8-8.5-2.3
	c-2.6-1.5-4.7-3.6-6.2-6.2s-2.3-5.5-2.3-8.5c0-3.1,0.8-5.9,2.3-8.5s3.6-4.7,6.2-6.2s5.5-2.3,8.5-2.3c3.1,0,5.9,0.8,8.5,2.3
	s4.7,3.6,6.2,6.2C37.5,15.3,38.3,18.2,38.3,21.3z"/>
<path class="st1" d="M35.8,21.3c0-2.6-0.7-5.1-2-7.3c-1.3-2.2-3.1-4-5.3-5.3s-4.7-2-7.3-2s-5.1,0.7-7.3,2s-4,3.1-5.3,5.3
	s-2,4.7-2,7.3s0.7,5.1,2,7.3s3.1,4,5.3,5.3c2.2,1.3,4.7,2,7.3,2s5.1-0.7,7.3-2c2.2-1.3,4-3.1,5.3-5.3C35.2,26.3,35.8,23.9,35.8,21.3
	z M38.3,21.3c0,3.1-0.8,5.9-2.3,8.5c-1.5,2.6-3.6,4.7-6.2,6.2c-2.6,1.5-5.5,2.3-8.5,2.3c-3.1,0-5.9-0.8-8.5-2.3
	c-2.6-1.5-4.7-3.6-6.2-6.2s-2.3-5.5-2.3-8.5c0-3.1,0.8-5.9,2.3-8.5s3.6-4.7,6.2-6.2s5.5-2.3,8.5-2.3c3.1,0,5.9,0.8,8.5,2.3
	s4.7,3.6,6.2,6.2C37.5,15.3,38.3,18.2,38.3,21.3z M23,26.4v2.9c0,0.2-0.1,0.3-0.2,0.4c-0.1,0.1-0.2,0.2-0.4,0.2h-2.9
	c-0.2,0-0.3-0.1-0.4-0.2c-0.1-0.1-0.2-0.2-0.2-0.4v-2.9c0-0.2,0.1-0.3,0.2-0.4c0.1-0.1,0.2-0.2,0.4-0.2h2.9c0.2,0,0.3,0.1,0.4,0.2
	C22.9,26.1,23,26.3,23,26.4z M27.6,17.5c0,0.6-0.1,1.1-0.3,1.6s-0.5,0.9-0.8,1.2c-0.4,0.3-0.7,0.6-0.9,0.8c-0.3,0.2-0.6,0.4-1.1,0.6
	c-0.4,0.2-0.7,0.4-0.8,0.5c-0.2,0.1-0.3,0.3-0.5,0.4C23,22.9,23,23.1,23,23.3v0.6c0,0.2-0.1,0.3-0.2,0.4c-0.1,0.1-0.2,0.2-0.4,0.2
	h-2.9c-0.2,0-0.3-0.1-0.4-0.2c-0.1-0.1-0.2-0.2-0.2-0.4v-1.2c0-0.4,0.1-0.8,0.2-1.2s0.3-0.6,0.4-0.9c0.2-0.2,0.4-0.4,0.7-0.6
	c0.3-0.2,0.6-0.4,0.7-0.5s0.5-0.2,0.8-0.4c0.6-0.3,1.1-0.6,1.3-0.8c0.3-0.2,0.4-0.5,0.4-0.9c0-0.5-0.3-0.9-0.8-1.3
	c-0.5-0.4-1.1-0.5-1.7-0.5c-0.7,0-1.2,0.2-1.7,0.5c-0.3,0.2-0.8,0.7-1.4,1.5c-0.1,0.1-0.3,0.2-0.4,0.2c-0.1,0-0.2,0-0.3-0.1
	l-1.9-1.5c-0.1-0.1-0.2-0.2-0.2-0.4c0-0.2,0-0.3,0.1-0.4c1.5-2.3,3.5-3.4,6.3-3.4c1.5,0,3,0.5,4.3,1.6S27.6,16,27.6,17.5z"/>
</svg>
