<?xml version="1.0" encoding="utf-8"?>
<!-- Generator: Adobe Illustrator 21.1.0, SVG Export Plug-In . SVG Version: 6.00 Build 0)  -->
<svg version="1.1" id="Ebene_1" xmlns="http://www.w3.org/2000/svg" xmlns:xlink="http://www.w3.org/1999/xlink" x="0px" y="0px"
	 viewBox="0 0 42.5 42.5" style="enable-background:new 0 0 42.5 42.5;" xml:space="preserve">
<g>
	<path d="M35.4,32.4c0,0.2-0.1,0.3-0.2,0.4S35,33,34.8,33h-6.5v-1.8c0-0.2-0.1-0.3-0.2-0.4c-0.1-0.1-0.3-0.2-0.4-0.2h-1.2
		c-0.2,0-0.3,0.1-0.4,0.2C26,30.9,26,31,26,31.2V33H11.8v-1.8c0-0.2-0.1-0.3-0.2-0.4c-0.1-0.1-0.3-0.2-0.4-0.2H10
		c-0.2,0-0.3,0.1-0.4,0.2c-0.1,0.1-0.2,0.3-0.2,0.4V33H3c-0.2,0-0.3-0.1-0.4-0.2s-0.2-0.3-0.2-0.4V10c0-0.2,0.1-0.3,0.2-0.4
		S2.8,9.4,3,9.4h31.9c0.2,0,0.3,0.1,0.4,0.2s0.2,0.3,0.2,0.4v3.1h2.4V10c0-0.8-0.3-1.5-0.9-2.1S35.7,7,34.8,7H3
		C2.1,7,1.4,7.3,0.9,7.9S0,9.1,0,10v22.4c0,0.8,0.3,1.5,0.9,2.1s1.3,0.9,2.1,0.9h31.9c0.8,0,1.5-0.3,2.1-0.9s0.9-1.3,0.9-2.1v-3.1
		h-2.4V32.4z"/>
</g>
<path d="M42.5,21.2c0,0.3-0.1,0.5-0.3,0.7L37,27.1c-0.2,0.2-0.4,0.3-0.7,0.3c-0.3,0-0.5-0.1-0.7-0.3L35,26.5
	c-0.2-0.2-0.3-0.4-0.3-0.7s0.1-0.5,0.3-0.7l2.3-2.3H22.2c-0.3,0-0.5-0.1-0.7-0.3c-0.2-0.2-0.3-0.4-0.3-0.7v-1c0-0.3,0.1-0.5,0.3-0.7
	c0.2-0.2,0.4-0.3,0.7-0.3h15.2L35,17.3c-0.2-0.2-0.3-0.4-0.3-0.7s0.1-0.5,0.3-0.7l0.6-0.6c0.2-0.2,0.4-0.3,0.7-0.3
	c0.3,0,0.5,0.1,0.7,0.3l5.2,5.2C42.4,20.6,42.5,20.9,42.5,21.2z"/>
</svg>
