<?xml version="1.0" encoding="utf-8"?>
<!-- Generator: Adobe Illustrator 21.1.0, SVG Export Plug-In . SVG Version: 6.00 Build 0)  -->
<svg version="1.1" id="Ebene_1" xmlns="http://www.w3.org/2000/svg" xmlns:xlink="http://www.w3.org/1999/xlink" x="0px" y="0px"
	 viewBox="0 0 42.5 42.5" style="enable-background:new 0 0 42.5 42.5;" xml:space="preserve">
<path d="M16.8,22.3c0,0.7-0.2,1.2-0.7,1.7c-0.5,0.4-1,0.6-1.7,0.6c-0.7,0-1.3-0.2-1.7-0.6c-0.4-0.4-0.7-1-0.7-1.7
	c0-0.7,0.3-1.2,1-1.7c-0.2-0.1-0.4-0.3-0.5-0.6c-0.1-0.3-0.2-0.5-0.2-0.7c0-0.6,0.2-1,0.6-1.4c0.4-0.4,0.9-0.6,1.5-0.6
	c0.6,0,1.1,0.2,1.5,0.6c0.4,0.4,0.6,0.8,0.6,1.4c0,0.2-0.1,0.5-0.2,0.7c-0.1,0.2-0.3,0.4-0.5,0.6C16.5,21.1,16.8,21.6,16.8,22.3z
	 M15.4,22.3c0-0.3-0.1-0.5-0.3-0.7c-0.2-0.2-0.4-0.3-0.7-0.3c-0.3,0-0.5,0.1-0.7,0.3c-0.2,0.2-0.3,0.4-0.3,0.7
	c0,0.3,0.1,0.5,0.3,0.7c0.2,0.2,0.4,0.3,0.7,0.3c0.3,0,0.5-0.1,0.7-0.3C15.3,22.7,15.4,22.5,15.4,22.3z M15.2,19.4
	c0-0.2-0.1-0.4-0.2-0.5c-0.1-0.1-0.3-0.2-0.5-0.2c-0.2,0-0.4,0.1-0.5,0.2c-0.1,0.1-0.2,0.3-0.2,0.5c0,0.2,0.1,0.4,0.2,0.5
	c0.1,0.1,0.3,0.2,0.5,0.2c0.2,0,0.4-0.1,0.5-0.2C15.1,19.8,15.2,19.6,15.2,19.4z M22.4,21c0,0.9-0.2,1.8-0.6,2.4
	c-0.5,0.8-1.1,1.2-2,1.2c-0.9,0-1.6-0.4-2-1.2c-0.4-0.6-0.6-1.4-0.6-2.4c0-0.9,0.2-1.8,0.6-2.4c0.5-0.8,1.1-1.2,2-1.2
	c0.9,0,1.6,0.4,2,1.2C22.2,19.2,22.4,20,22.4,21z M21,21c0-0.5-0.1-1-0.2-1.4c-0.2-0.6-0.5-0.8-0.9-0.8c-0.4,0-0.8,0.3-1,0.8
	c-0.1,0.4-0.2,0.8-0.2,1.4c0,0.5,0.1,1,0.2,1.4c0.2,0.5,0.5,0.8,1,0.8C20.6,23.2,21,22.5,21,21z M26.6,20.5c0,0.4-0.1,0.8-0.3,1.1
	c-0.2,0.3-0.5,0.5-1,0.5s-0.7-0.2-1-0.5c-0.2-0.3-0.3-0.6-0.3-1.1c0-0.4,0.1-0.8,0.3-1.1c0.2-0.3,0.5-0.5,1-0.5s0.7,0.2,1,0.5
	C26.5,19.7,26.6,20.1,26.6,20.5z M25.8,20.5c0-0.5-0.1-0.7-0.4-0.7c-0.3,0-0.4,0.2-0.4,0.7c0,0.5,0.1,0.7,0.4,0.7
	C25.7,21.3,25.8,21,25.8,20.5z M28.8,19l-2.5,5.5h-1l2.5-5.5H28.8z M29.9,23c0,0.4-0.1,0.8-0.3,1.1c-0.2,0.3-0.5,0.5-1,0.5
	c-0.4,0-0.7-0.2-1-0.5c-0.2-0.3-0.3-0.6-0.3-1.1c0-0.4,0.1-0.8,0.3-1.1c0.2-0.3,0.5-0.5,1-0.5c0.4,0,0.7,0.2,1,0.5
	C29.8,22.2,29.9,22.6,29.9,23z M29.1,23c0-0.5-0.1-0.7-0.4-0.7c-0.3,0-0.4,0.2-0.4,0.7c0,0.5,0.1,0.7,0.4,0.7
	C29,23.7,29.1,23.5,29.1,23z M35.7,29.5c-0.5,0.9-1.1,1.7-1.8,2.5c0,0,0,0.1-0.1,0.1c0,0,0,0,0,0.1c-0.3,0.3-0.5,0.6-0.8,0.9
	c-0.6,0.6-1.2,1.1-1.8,1.6L28.6,31c0.1,0,0.1-0.1,0.2-0.1c0,0,0,0,0.1,0c0,0,0.1-0.1,0.1-0.1c0.8-0.6,1.4-1.3,2-2.1
	c0.1-0.2,0.3-0.4,0.4-0.6c0,0,0,0,0,0c0-0.1,0.1-0.1,0.1-0.2c0,0,0,0,0-0.1c0-0.1,0.1-0.1,0.1-0.2c0,0,0-0.1,0.1-0.1
	c0,0,0.1-0.1,0.1-0.1c0,0,0.1-0.1,0.1-0.1c0,0,0-0.1,0.1-0.1c0-0.1,0.1-0.1,0.1-0.2c0,0,0,0,0-0.1c0-0.1,0.1-0.2,0.1-0.2
	c0,0,0,0,0,0c0.1-0.2,0.2-0.4,0.3-0.6c0.1-0.2,0.2-0.5,0.3-0.7l4.3,1.4c-0.1,0.4-0.3,0.8-0.4,1.1C36.4,28.3,36.1,28.9,35.7,29.5z
	 M27.5,36.7c0.7-0.3,1.4-0.6,2-1c0.4-0.2,0.8-0.5,1.2-0.8l-2.6-3.6c0,0-0.1,0-0.1,0.1c0,0,0,0,0,0c-0.1,0-0.1,0.1-0.2,0.1
	c0,0,0,0-0.1,0c-0.1,0-0.1,0.1-0.2,0.1c0,0-0.1,0.1-0.1,0.1c0,0,0,0-0.1,0c-0.5,0.3-1,0.5-1.5,0.7c-1,0.4-2.1,0.7-3.2,0.9
	c-0.5,0.1-0.9,0.1-1.4,0.1V38c0.4,0,0.7,0,1.1-0.1c1.5-0.1,3-0.5,4.4-1c0,0,0,0,0,0c0.1,0,0.1,0,0.2-0.1c0,0,0.1,0,0.1,0
	c0,0,0.1,0,0.1,0C27.4,36.8,27.4,36.8,27.5,36.7C27.5,36.7,27.5,36.7,27.5,36.7z M19.7,38c0.3,0,0.6,0,1,0v-4.5
	c-0.4,0-0.8,0-1.3-0.1c0,0,0,0,0,0c0,0-0.1,0-0.1,0c-1.1-0.1-2.2-0.4-3.2-0.9c-0.5-0.2-1-0.5-1.5-0.7c0,0,0,0,0,0
	c-0.2-0.1-0.3-0.2-0.5-0.3c0,0-0.1-0.1-0.1-0.1c0,0-0.1,0-0.1-0.1c0,0-0.1,0-0.1-0.1l-2.6,3.6c0.4,0.3,0.8,0.5,1.2,0.8
	c0.6,0.3,1.1,0.6,1.7,0.9c0,0,0,0,0,0c0.1,0,0.1,0.1,0.2,0.1c0,0,0.1,0,0.1,0c0,0,0.1,0,0.1,0c0.1,0,0.1,0,0.2,0.1c0,0,0,0,0,0
	c1.5,0.6,3.1,0.9,4.7,1.1C19.6,38,19.7,38,19.7,38C19.7,38,19.7,38,19.7,38z M10.8,34.6l2.6-3.6c-0.1,0-0.1-0.1-0.2-0.1
	c0,0-0.1,0-0.1-0.1c0,0-0.1,0-0.1-0.1c-0.8-0.6-1.4-1.3-2-2.1c-0.1-0.2-0.3-0.4-0.4-0.6c0,0,0,0,0,0c0-0.1-0.1-0.1-0.1-0.2
	c0,0,0,0,0-0.1c0-0.1-0.1-0.1-0.1-0.2c0,0,0-0.1-0.1-0.1c0,0-0.1-0.1-0.1-0.1c0,0-0.1-0.1-0.1-0.1c0,0,0-0.1-0.1-0.1
	c0-0.1-0.1-0.1-0.1-0.2c0,0,0,0,0-0.1c0-0.1-0.1-0.2-0.1-0.2c0,0,0,0,0,0c-0.1-0.2-0.2-0.4-0.3-0.6c-0.1-0.2-0.2-0.5-0.3-0.7
	l-4.3,1.4c0.1,0.4,0.3,0.8,0.4,1.1c0.3,0.6,0.6,1.2,0.9,1.8c0.5,0.9,1.1,1.7,1.8,2.5c0,0,0,0,0.1,0.1c0,0,0,0.1,0.1,0.1
	C8.4,32.5,8.7,32.8,9,33C9.5,33.6,10.1,34.1,10.8,34.6z M22.3,4c-0.3,0-0.6,0-1,0v4.5c0.4,0,0.8,0,1.3,0.1c0,0,0,0,0,0
	c0,0,0.1,0,0.1,0c1.1,0.1,2.2,0.4,3.2,0.9c0.5,0.2,1,0.5,1.5,0.7c0,0,0,0,0,0c0.1,0.1,0.2,0.1,0.3,0.2c0,0,0,0,0,0
	c0,0,0.1,0,0.1,0.1c0,0,0.1,0.1,0.1,0.1c0,0,0,0,0.1,0c0,0,0.1,0,0.1,0.1l2.6-3.6c-0.4-0.3-0.8-0.5-1.2-0.8
	c-0.6-0.3-1.1-0.6-1.7-0.9c0,0,0,0,0,0c-0.1,0-0.1-0.1-0.2-0.1c0,0-0.1,0-0.1,0c0,0-0.1,0-0.1-0.1c-0.1,0-0.1,0-0.2-0.1c0,0,0,0,0,0
	c-1.5-0.6-3.1-0.9-4.7-1.1C22.4,4.1,22.3,4,22.3,4C22.3,4,22.3,4,22.3,4z M31.3,7.4L28.6,11c0.1,0,0.1,0.1,0.2,0.1
	c0,0,0.1,0,0.1,0.1c0,0,0.1,0,0.1,0.1c0.8,0.6,1.4,1.3,2,2.1c0.1,0.2,0.3,0.4,0.4,0.6c0,0,0,0,0,0c0,0.1,0.1,0.1,0.1,0.2
	c0,0,0,0,0,0.1c0,0.1,0.1,0.1,0.1,0.2c0,0,0,0.1,0.1,0.1c0,0,0.1,0.1,0.1,0.1c0,0,0.1,0.1,0.1,0.1c0,0,0,0.1,0.1,0.1
	c0,0.1,0.1,0.1,0.1,0.2c0,0,0,0,0,0.1c0,0.1,0.1,0.2,0.1,0.2c0,0,0,0,0,0c0.1,0.2,0.2,0.4,0.3,0.6c0.1,0.2,0.2,0.5,0.3,0.7l4.3-1.4
	c-0.1-0.4-0.3-0.8-0.4-1.1c-0.3-0.6-0.6-1.2-0.9-1.8c-0.5-0.9-1.1-1.7-1.8-2.5c0,0,0,0-0.1-0.1c0,0,0-0.1-0.1-0.1
	C33.6,9.5,33.3,9.3,33,9C32.5,8.4,31.9,7.9,31.3,7.4z M37.9,19c-0.1-0.8-0.2-1.6-0.5-2.4c-0.1-0.2-0.1-0.4-0.2-0.6L33,17.4
	c0,0.1,0,0.1,0.1,0.2c0,0,0,0,0,0c0,0,0,0.1,0,0.1c0,0,0,0.1,0,0.1c0,0,0,0,0,0c0.1,0.5,0.2,1,0.3,1.6c0.1,0.4,0.1,0.9,0.1,1.3
	c0,0,0,0,0,0c0,0,0,0.1,0,0.1c0,0,0,0,0,0.1c0,0,0,0.1,0,0.1c0,0,0,0.1,0,0.1c0,0,0,0,0,0.1c0,0,0,0.1,0,0.1c0,0,0,0,0,0
	c0,0.4,0,0.9-0.1,1.3c-0.1,0.5-0.2,1-0.3,1.6c0,0,0,0,0,0c0,0,0,0.1,0,0.1c0,0,0,0.1,0,0.1c0,0,0,0,0,0c0,0.1,0,0.1-0.1,0.2l4.2,1.4
	c0.1-0.2,0.1-0.4,0.2-0.6c0.2-0.8,0.4-1.6,0.5-2.4c0.1-0.7,0.1-1.4,0.1-2C38,20.3,38,19.6,37.9,19z M9,17.4L4.7,16
	c-0.1,0.2-0.1,0.4-0.2,0.6c-0.2,0.8-0.4,1.6-0.5,2.4C4,19.6,4,20.3,4,21c0,0.7,0,1.4,0.1,2c0.1,0.8,0.2,1.6,0.5,2.4
	c0.1,0.2,0.1,0.4,0.2,0.6L9,24.6c0-0.1,0-0.1-0.1-0.2c0,0,0,0,0,0c0,0,0-0.1,0-0.1c0,0,0-0.1,0-0.1c0,0,0,0,0,0
	c-0.1-0.5-0.2-1-0.3-1.6c-0.1-0.4-0.1-0.9-0.1-1.3c0,0,0,0,0,0c0,0,0-0.1,0-0.1c0,0,0,0,0-0.1c0,0,0-0.1,0-0.1c0,0,0-0.1,0-0.1
	c0,0,0,0,0-0.1c0,0,0-0.1,0-0.1c0,0,0,0,0,0c0-0.4,0-0.9,0.1-1.3c0.1-0.5,0.2-1,0.3-1.6c0,0,0,0,0,0c0,0,0-0.1,0-0.1
	c0,0,0-0.1,0-0.1c0,0,0,0,0,0C9,17.6,9,17.5,9,17.4z M8.4,13.7c1.3-2.2,3.1-4,5.3-5.3c2.1-1.2,4.5-1.9,7-1.9l0-2.4
	c-2.9,0.1-5.7,0.8-8.2,2.3c-2.6,1.5-4.7,3.6-6.2,6.2c-0.5,0.9-1,1.8-1.3,2.8l2.3,0.9C7.6,15.3,7.9,14.5,8.4,13.7z"/>
</svg>
