<?xml version="1.0" encoding="utf-8"?>
<!-- Generator: Adobe Illustrator 28.2.0, SVG Export Plug-In . SVG Version: 6.00 Build 0)  -->
<svg version="1.1" id="Ebene_1" xmlns="http://www.w3.org/2000/svg" xmlns:xlink="http://www.w3.org/1999/xlink" x="0px" y="0px"
	 viewBox="0 0 42.5 42.5" style="enable-background:new 0 0 42.5 42.5;" xml:space="preserve">
<path d="M19.8,29.7v2.5h-12c-1.2,0-2.2-0.4-3.1-1.3c-0.9-0.9-1.3-1.9-1.3-3.1V9.1c0-1.2,0.4-2.2,1.3-3.1c0.9-0.9,1.9-1.3,3.1-1.3H14
	c1.2,0,2.2,0.4,3.1,1.3c0.9,0.9,1.3,1.9,1.3,3.1v0.6h13.1c1.2,0,2.2,0.4,3.1,1.3c0.9,0.9,1.3,1.9,1.3,3.1v2.7
	c-0.5-0.8-1-1.2-2.5-1.8v-0.8c0-0.5-0.2-1-0.5-1.3c-0.4-0.4-0.8-0.5-1.3-0.5H17.7c-0.5,0-1-0.2-1.3-0.5c-0.4-0.4-0.5-0.8-0.5-1.3
	V9.1c0-0.5-0.2-1-0.5-1.3c-0.4-0.4-0.8-0.5-1.3-0.5H7.8c-0.5,0-1,0.2-1.3,0.5C6.1,8.2,5.9,8.6,5.9,9.1v18.7c0,0.5,0.2,1,0.5,1.3
	c0.4,0.4,0.8,0.5,1.3,0.5H19.8z M24.7,22.9c0-1.6,0.5-2.8,1.6-4c1.1-1.1,2.3-1.6,3.9-1.6c1.6,0,2.6,0.5,3.7,1.6
	c1.1,1.1,1.6,2.4,1.6,4v2.8H24.7V22.9z M38.6,26.1c-0.3-0.3-0.6-0.5-1-0.5h-0.5v-3c0-1.9-0.7-3.6-2.1-4.9c-1.4-1.4-3-2.1-4.9-2.1
	s-3.6,0.8-4.9,2.1s-2.1,3-2.1,4.9v3h-0.5c-0.4,0-0.7,0.1-1,0.5c-0.3,0.3-0.5,0.6-0.5,1v9c0,0.4,0.1,0.7,0.5,1c0.3,0.3,0.6,0.5,1,0.5
	h15c0.4,0,0.7-0.1,1-0.5c0.3-0.3,0.5-0.6,0.5-1v-9C39.1,26.8,39,26.5,38.6,26.1z M30.2,34.4c0.6,0,1.1,0.5,1,1.1c0,0.6-0.5,1-1,1
	c-0.6,0-1.1-0.5-1.1-1.1C29.1,34.9,29.6,34.4,30.2,34.4L30.2,34.4z M30.2,34.4 M29.9,26.9c0.5-0.1,1,0.1,1.2,0.6
	c0.1,0.2,0.1,0.3,0.1,0.5c0,0.5-0.1,1.1-0.1,1.6c0,0.8-0.1,1.6-0.1,2.5c0,0.3,0,0.5,0,0.8c0,0.4-0.4,0.8-0.8,0.8s-0.8-0.3-0.8-0.8
	c-0.1-1.3-0.1-2.5-0.2-3.8c0-0.3,0-0.7-0.1-1C29.1,27.5,29.4,27.1,29.9,26.9L29.9,26.9z M29.9,26.9"/>
</svg>
