<?xml version="1.0" encoding="utf-8"?>
<svg version="1.1" id="Ebene_1" x="0px" y="0px" viewBox="0 0 42.5 42.5" style="enable-background:new 0 0 42.5 42.5;" xmlns="http://www.w3.org/2000/svg">
  <path id="copy-to-clipboard" d="M 29.225 6.31 C 28.405 5.842 27.585 5.374 26.763 5.14 C 26.414 4.202 25.826 3.266 25.006 2.678 C 23.951 1.625 22.545 1.038 21.021 1.038 C 19.616 1.038 18.092 1.625 17.037 2.561 C 16.334 3.266 15.747 4.085 15.279 5.024 C 14.46 5.257 13.639 5.608 12.817 6.195 L 9.537 6.195 C 7.544 6.31 5.787 7.953 5.787 10.061 L 5.787 37.015 C 5.787 39.126 7.544 40.883 9.654 40.883 L 32.507 40.883 C 34.616 40.883 36.373 39.126 36.373 37.015 L 36.373 10.061 C 36.373 7.953 34.616 6.195 32.507 6.195 L 29.225 6.195 Z M 17.859 6.781 C 17.859 6.663 17.974 6.429 17.974 6.31 C 18.443 4.906 19.616 3.968 21.138 3.968 C 22.545 3.968 23.834 5.024 24.302 6.31 C 24.302 6.429 24.42 6.663 24.42 6.781 C 24.537 7.132 24.77 7.484 25.123 7.601 C 26.53 7.953 27.585 8.538 28.288 9.125 C 28.405 9.243 28.522 9.358 28.64 9.476 C 29.109 10.061 28.757 10.766 28.053 10.766 L 14.225 10.766 C 13.52 10.766 13.17 9.945 13.639 9.476 C 13.756 9.358 13.873 9.243 13.989 9.125 C 14.694 8.421 15.865 7.953 17.155 7.601 C 17.507 7.484 17.74 7.132 17.859 6.781 L 17.859 6.781 Z M 33.562 10.061 L 33.562 37.015 C 33.562 37.602 33.092 38.072 32.507 38.072 L 9.654 38.072 C 9.069 38.072 8.599 37.602 8.599 37.015 L 8.599 10.061 C 8.599 9.476 9.069 9.006 9.654 9.006 L 10.709 9.006 C 10.709 9.125 10.591 9.243 10.591 9.476 C 10.474 10.18 10.591 10.766 10.943 11.468 C 11.178 12.054 11.646 12.641 12.232 12.992 C 12.817 13.345 13.52 13.578 14.225 13.578 L 27.935 13.578 C 28.64 13.578 29.342 13.345 29.927 12.992 C 30.514 12.641 30.866 12.054 31.218 11.468 C 31.451 10.883 31.569 10.18 31.569 9.476 C 31.569 9.358 31.569 9.243 31.451 9.006 L 32.507 9.006 C 33.092 9.125 33.562 9.476 33.562 10.061 L 33.562 10.061 Z M 33.562 10.061 M 21.021 8.186 C 21.841 8.186 22.428 7.601 22.428 6.781 C 22.428 6.547 22.428 6.429 22.312 6.31 C 22.194 5.725 21.725 5.374 21.021 5.374 C 20.436 5.374 19.85 5.725 19.733 6.31 C 19.616 6.429 19.616 6.663 19.616 6.781 C 19.616 7.601 20.319 8.186 21.021 8.186 L 21.021 8.186 Z M 21.021 8.186 M 15.279 19.906 C 15.513 19.671 15.747 19.553 15.982 19.553 L 23.366 19.553 C 23.598 19.553 23.951 19.671 24.068 19.906 C 24.302 20.139 24.302 20.375 24.42 20.609 L 24.42 21.43 C 24.42 21.664 24.302 22.015 24.068 22.133 C 23.834 22.368 23.598 22.484 23.366 22.484 L 20.085 22.484 L 27.467 29.866 C 27.701 30.102 27.701 30.336 27.701 30.571 C 27.701 30.805 27.585 31.038 27.349 31.273 L 26.646 31.977 C 26.414 32.211 26.178 32.328 25.945 32.328 C 25.71 32.328 25.475 32.211 25.241 32.095 L 17.859 24.711 L 17.859 27.992 C 17.859 28.226 17.74 28.461 17.507 28.695 C 17.271 28.93 17.037 29.048 16.804 29.048 L 15.982 29.048 C 15.747 29.048 15.396 28.93 15.279 28.695 C 15.045 28.461 14.929 28.226 14.929 27.992 L 14.929 20.609 C 14.929 20.375 15.045 20.139 15.279 19.906 Z" style=""/>
</svg>