<?xml version="1.0" encoding="utf-8"?>
<!-- Generator: Adobe Illustrator 21.1.0, SVG Export Plug-In . SVG Version: 6.00 Build 0)  -->
<svg version="1.1" id="Ebene_1" xmlns="http://www.w3.org/2000/svg" xmlns:xlink="http://www.w3.org/1999/xlink" x="0px" y="0px"
	 viewBox="0 0 43 43" style="enable-background:new 0 0 43 43;" xml:space="preserve">
<path d="M24.3,33.6c0,1.5-1.2,2.7-2.7,2.7c-1.5,0-2.7-1.2-2.7-2.7c0-1.5,1.2-2.7,2.7-2.7C23.1,30.9,24.3,32.1,24.3,33.6L24.3,33.6z
	 M24.3,33.6 M24.7,28.2c0.1-0.9,0.3-2.4,0.4-4.2c1.4,0.5,2.7,1.3,3.7,2.4c0.8,0.8,0.8,2,0,2.8c-0.4,0.4-0.9,0.6-1.4,0.6
	c-0.5,0-1-0.2-1.4-0.6C25.7,28.8,25.2,28.5,24.7,28.2z M14.5,26.4c-0.8,0.8-0.8,2,0,2.8c0.8,0.8,2,0.8,2.8,0c0.4-0.4,0.8-0.7,1.3-1
	c-0.1-1.2-0.3-2.7-0.4-4.2C16.8,24.5,15.5,25.3,14.5,26.4z M9.1,21c-0.8,0.8-0.8,2,0,2.8c0.8,0.8,2,0.8,2.8,0c1.7-1.7,3.8-2.9,6-3.5
	c-0.1-1.7-0.2-3.2-0.3-4C14.5,17,11.5,18.6,9.1,21z M34.3,21c-2.4-2.4-5.4-4-8.6-4.7c-0.1,0.9-0.2,2.4-0.3,4c2.2,0.6,4.3,1.8,6,3.5
	c0.4,0.4,0.9,0.6,1.4,0.6c0.5,0,1-0.2,1.4-0.6C35.1,23,35.1,21.8,34.3,21z M38.4,18.9c0.5,0,1-0.2,1.4-0.6c0.8-0.8,0.8-2,0-2.8
	C34.9,10.7,28.5,8,21.7,8c-6.8,0-13.3,2.7-18.1,7.5c-0.8,0.8-0.8,2,0,2.8c0.8,0.8,2,0.8,2.8,0c8.4-8.4,22.1-8.4,30.5,0
	C37.3,18.7,37.8,18.9,38.4,18.9L38.4,18.9z M38.4,18.9 M21.7,24.2 M21.1,14c1.1-0.3,2.2,0.3,2.7,1.3c0.2,0.4,0.2,0.7,0.2,1.2
	c-0.1,1.2-0.6,9.9-0.6,10.5c0,1-0.8,1.7-1.7,1.7C20.8,28.6,20,28,20,27c-0.2-2.8-0.3-5.5-0.5-8.3c-0.1-0.7-0.1-1.5-0.2-2.2
	C19.3,15.3,20,14.3,21.1,14L21.1,14z M21.2,9.7"/>
</svg>
