<?xml version="1.0" encoding="utf-8"?>
<!-- Generator: Adobe Illustrator 21.1.0, SVG Export Plug-In . SVG Version: 6.00 Build 0)  -->
<svg version="1.1" id="Ebene_1" xmlns="http://www.w3.org/2000/svg" xmlns:xlink="http://www.w3.org/1999/xlink" x="0px" y="0px"
	 viewBox="0 0 42.5 42.5" style="enable-background:new 0 0 42.5 42.5;" xml:space="preserve">
<path d="M9.8,17.9H7.2V7.8c0-0.5,0.4-0.8,1-0.8h7.6c0.3,0,0.7,0.2,0.8,0.4l1.4,2h17c0.5,0,1,0.4,1,0.8v7.7h-2.8v-5.8H9.8V17.9z
	 M38,19.1c-0.1-0.1-0.3-0.2-0.5-0.2h-6.2l0,2.8h2.9c0.2,0,0.4,0.1,0.5,0.2c0.1,0.1,0.2,0.3,0.2,0.5L33,31.6
	c-0.1,0.3-0.3,0.5-0.7,0.5l-21.5,0c-0.3,0-0.6-0.2-0.7-0.5l-1.8-9.2c0-0.2,0-0.3,0.2-0.5c0.1-0.1,0.3-0.2,0.5-0.2h3.8l0-2.8H5.7
	c-0.2,0-0.4,0.1-0.5,0.2C5,19.2,5,19.4,5,19.5L7.7,34c0.1,0.3,0.3,0.5,0.7,0.5h26.3c0.4,0,0.6-0.2,0.7-0.5l2.7-14.4
	C38.2,19.4,38.1,19.2,38,19.1z M29,28.3l-1.2,1.2c-0.2,0.2-0.4,0.2-0.6,0.2s-0.4-0.1-0.6-0.2l-5-5l-5,5c-0.2,0.2-0.4,0.2-0.6,0.2
	c-0.2,0-0.4-0.1-0.6-0.2l-1.2-1.2c-0.2-0.2-0.2-0.4-0.2-0.6s0.1-0.4,0.2-0.6l5-5l-5-5c-0.2-0.2-0.2-0.4-0.2-0.6
	c0-0.2,0.1-0.4,0.2-0.6l1.2-1.2c0.2-0.2,0.4-0.2,0.6-0.2c0.2,0,0.4,0.1,0.6,0.2l5,5l5-5c0.2-0.2,0.4-0.2,0.6-0.2s0.4,0.1,0.6,0.2
	l1.2,1.2c0.2,0.2,0.2,0.4,0.2,0.6c0,0.2-0.1,0.4-0.2,0.6l-5,5l5,5c0.2,0.2,0.2,0.4,0.2,0.6S29.2,28.1,29,28.3z"/>
</svg>
