<?xml version="1.0" encoding="utf-8"?>
<svg version="1.1" id="Ebene_1" x="0px" y="0px" viewBox="0 0 42.5 42.5" style="enable-background:new 0 0 42.5 42.5;" xmlns="http://www.w3.org/2000/svg">
  <path id="Pfeil_links_2_" d="M 21.2 1 C 21 1 20.7 1.1 20.5 1.3 L 7.3 14.5 C 7.1 14.7 7 14.9 7 15.2 C 7 15.4 7.1 15.7 7.3 15.9 L 8.7 17.3 C 8.9 17.5 9.1 17.6 9.4 17.6 C 9.6 17.6 9.9 17.5 10.1 17.3 L 21.3 6.1 L 32.5 17.3 C 32.7 17.5 32.9 17.6 33.2 17.6 C 33.5 17.6 33.7 17.5 33.9 17.3 L 35.3 15.9 C 35.5 15.7 35.6 15.5 35.6 15.2 C 35.6 15 35.5 14.7 35.3 14.5 L 21.8 1.3 C 21.6 1.1 21.4 1 21.2 1 Z"/>
  <path id="Pfeil_links_3_" d="M 21.2 41.5 C 21 41.5 20.7 41.4 20.5 41.2 L 7.3 28 C 7.1 27.8 7 27.6 7 27.4 C 7 27.2 7.1 26.9 7.3 26.7 L 8.7 25.3 C 8.9 25.1 9.1 25 9.4 25 C 9.6 25 9.9 25.1 10.1 25.3 L 21.3 36.5 L 32.5 25.3 C 32.7 25.1 32.9 25 33.2 25 C 33.5 25 33.7 25.1 33.9 25.3 L 35.3 26.7 C 35.5 26.9 35.6 27.1 35.6 27.4 C 35.6 27.7 35.2 27.8 35 28 L 21.8 41.2 C 21.6 41.4 21.4 41.5 21.2 41.5 Z"/>
</svg>