<?xml version="1.0" encoding="utf-8"?>
<svg version="1.1" id="Ebene_1" x="0px" y="0px" viewBox="0 0 42.5 42.5" style="enable-background:new 0 0 42.5 42.5;" xmlns="http://www.w3.org/2000/svg">
  <path d="M 4.173 20.957 C 4.173 20.48 4.332 20.163 4.65 19.845 L 12.908 11.589 C 13.225 11.27 13.543 11.112 14.02 11.112 C 14.495 11.112 14.813 11.27 15.13 11.589 L 16.084 12.541 C 16.402 12.859 16.56 13.176 16.56 13.652 C 16.56 14.129 16.402 14.446 16.084 14.764 L 12.431 18.416 L 36.567 18.416 C 37.043 18.416 37.361 18.575 37.678 18.893 C 37.997 19.21 38.155 19.528 38.155 20.005 L 38.155 21.592 C 38.155 22.068 37.997 22.385 37.678 22.704 C 37.361 23.022 37.043 23.18 36.567 23.18 L 12.431 23.18 L 16.084 26.832 C 16.402 27.149 16.56 27.467 16.56 27.944 C 16.56 28.42 16.402 28.738 16.084 29.055 L 15.13 30.008 C 14.813 30.325 14.495 30.484 14.02 30.484 C 13.543 30.484 13.225 30.325 12.908 30.008 L 4.65 21.75 C 4.332 21.75 4.173 21.433 4.173 20.957 Z" style="" transform="matrix(-0.707107, 0.707107, -0.707107, -0.707107, 50.835613, 20.539199)"/>
</svg>