<?xml version="1.0" encoding="utf-8"?>
<!-- Generator: Adobe Illustrator 21.1.0, SVG Export Plug-In . SVG Version: 6.00 Build 0)  -->
<svg version="1.1" id="Ebene_1" xmlns="http://www.w3.org/2000/svg" xmlns:xlink="http://www.w3.org/1999/xlink" x="0px" y="0px"
	 viewBox="0 0 42.5 42.5" style="enable-background:new 0 0 42.5 42.5;" xml:space="preserve">
<path d="M33.3,15.8L20.6,28.5c-0.2,0.2-0.5,0.3-0.8,0.3c-0.3,0-0.6-0.1-0.8-0.3l-5.4-5.4c-0.2-0.2-0.3-0.5-0.3-0.8
	c0-0.3,0.1-0.6,0.3-0.8l0.8-0.8c0.2-0.2,0.5-0.3,0.8-0.3s0.6,0.1,0.8,0.3l3.8,3.8l11-11c0.2-0.2,0.5-0.3,0.8-0.3
	c0.3,0,0.6,0.1,0.8,0.3l0.8,0.8c0.2,0.2,0.3,0.5,0.3,0.8S33.5,15.6,33.3,15.8z"/>
<path d="M8.3,18.3c-0.3,0-0.6,0.1-0.8,0.2c0.3-1.2,0.8-2.3,1.4-3.4c1.3-2.2,3-3.9,5.2-5.2S18.6,8,21.2,8c2.6,0,4.9,0.6,7.1,1.9
	c0.8,0.5,1.6,1.1,2.3,1.7l-1.8,1.8c-0.5-0.5-1.1-0.9-1.8-1.3c-1.8-1-3.7-1.6-5.8-1.6c-2.1,0-4,0.5-5.8,1.6c-1.8,1-3.2,2.4-4.2,4.2
	c-0.5,0.9-0.9,1.8-1.2,2.8l-0.2-0.2C9.3,18.5,8.9,18.3,8.3,18.3z M32.7,22.2c0,2.1-0.5,4-1.6,5.8c-1,1.8-2.4,3.2-4.2,4.2
	c-1.8,1-3.7,1.6-5.8,1.6c-1.2,0-2.4-0.2-3.5-0.6c-0.4,0.3-0.8,0.4-1.2,0.4c-0.6,0-1.1-0.2-1.5-0.6l-7.6-7.6c0.3,1.4,0.8,2.7,1.5,3.9
	c1.3,2.2,3,3.9,5.2,5.2s4.5,1.9,7.1,1.9c2.6,0,4.9-0.6,7.1-1.9c2.2-1.3,3.9-3,5.2-5.2c1.3-2.2,1.9-4.5,1.9-7.1c0-2-0.4-3.8-1.1-5.5
	l-2,2C32.5,19.8,32.7,20.9,32.7,22.2z M16.4,33.6c0.5,0,0.9-0.1,1.2-0.4c-0.8-0.3-1.6-0.6-2.3-1c-1.8-1-3.2-2.4-4.2-4.2
	c-1-1.8-1.6-3.7-1.6-5.8c0-1.1,0.1-2.1,0.4-3l-0.2-0.2c-0.4-0.4-0.9-0.6-1.5-0.6c-0.3,0-0.6,0.1-0.8,0.2C7.2,19.6,7,20.9,7,22.2
	c0,1.1,0.1,2.2,0.4,3.2L15,33C15.4,33.4,15.9,33.6,16.4,33.6z"/>
</svg>
