<?xml version="1.0" encoding="utf-8"?>
<!-- Generator: Adobe Illustrator 21.1.0, SVG Export Plug-In . SVG Version: 6.00 Build 0)  -->
<svg version="1.1" id="Ebene_1" xmlns="http://www.w3.org/2000/svg" xmlns:xlink="http://www.w3.org/1999/xlink" x="0px" y="0px"
	 viewBox="0 0 42.5 42.5" style="enable-background:new 0 0 42.5 42.5;" xml:space="preserve">
<path d="M20.4,21.1c0,0.3-0.1,0.5-0.3,0.7L14.9,27c-0.2,0.2-0.4,0.3-0.7,0.3c-0.3,0-0.5-0.1-0.7-0.3l-0.6-0.6
	c-0.2-0.2-0.3-0.4-0.3-0.7s0.1-0.5,0.3-0.7l2.3-2.3H3.1c-0.3,0-0.5-0.1-0.7-0.3c-0.2-0.2-0.3-0.4-0.3-0.7v-1c0-0.3,0.1-0.5,0.3-0.7
	c0.2-0.2,0.4-0.3,0.7-0.3h12.2l-2.3-2.3c-0.2-0.2-0.3-0.4-0.3-0.7s0.1-0.5,0.3-0.7l0.6-0.6c0.2-0.2,0.4-0.3,0.7-0.3
	c0.3,0,0.5,0.1,0.7,0.3l5.2,5.2C20.3,20.6,20.4,20.8,20.4,21.1z M21.2,21.1c0,0.3,0.1,0.5,0.3,0.7l5.2,5.2c0.2,0.2,0.4,0.3,0.7,0.3
	c0.3,0,0.5-0.1,0.7-0.3l0.6-0.6c0.2-0.2,0.3-0.4,0.3-0.7S29,25.2,28.8,25l-2.3-2.3h12.2c0.3,0,0.5-0.1,0.7-0.3s0.3-0.4,0.3-0.7v-1
	c0-0.3-0.1-0.5-0.3-0.7s-0.4-0.3-0.7-0.3H26.4l2.3-2.3c0.2-0.2,0.3-0.4,0.3-0.7S29,16,28.8,15.8l-0.6-0.6c-0.2-0.2-0.4-0.3-0.7-0.3
	c-0.3,0-0.5,0.1-0.7,0.3l-5.2,5.2C21.3,20.6,21.2,20.8,21.2,21.1z M21.8,28h-1.6v3.5h1.6V28z M24.2,26.6l-1.1,1.1l2.4,2.4l1.1-1.1
	L24.2,26.6z M19,27.5l-1.1-1.1l-2.4,2.4l1.1,1.1L19,27.5z M21.8,10.8h-1.6v3.5h1.6V10.8z M26.7,13.3l-1.1-1.1l-2.4,2.4l1.1,1.1
	L26.7,13.3z M16.6,12.3l-1.1,1.1l2.4,2.4l1.1-1.1L16.6,12.3z"/>
</svg>
