<?xml version="1.0" encoding="utf-8"?>
<!-- Generator: Adobe Illustrator 21.1.0, SVG Export Plug-In . SVG Version: 6.00 Build 0)  -->
<svg version="1.1" id="Ebene_1" xmlns="http://www.w3.org/2000/svg" xmlns:xlink="http://www.w3.org/1999/xlink" x="0px" y="0px"
	 viewBox="0 0 42.5 42.5" style="enable-background:new 0 0 42.5 42.5;" xml:space="preserve">
<path d="M34.9,30.8V16.7c0-0.5-0.2-1-0.6-1.4s-0.8-0.6-1.4-0.6H18.8c-0.5,0-1-0.2-1.4-0.6c-0.4-0.4-0.6-0.8-0.6-1.4v-1.3
	c0-0.5-0.2-1-0.6-1.4c-0.4-0.4-0.8-0.6-1.4-0.6H8.5c-0.5,0-1,0.2-1.4,0.6S6.6,11,6.6,11.5v19.3c0,0.5,0.2,1,0.6,1.4s0.8,0.6,1.4,0.6
	H33c0.5,0,1-0.2,1.4-0.6S34.9,31.4,34.9,30.8z M37.5,16.7v14.2c0,1.2-0.4,2.3-1.3,3.2c-0.9,0.9-1.9,1.3-3.2,1.3H8.5
	c-1.2,0-2.3-0.4-3.2-1.3S4,32.1,4,30.8V11.5c0-1.2,0.4-2.3,1.3-3.2S7.3,7,8.5,7H15c1.2,0,2.3,0.4,3.2,1.3c0.9,0.9,1.3,1.9,1.3,3.2
	v0.6H33c1.2,0,2.3,0.4,3.2,1.3C37.1,14.4,37.5,15.4,37.5,16.7z"/>
<path d="M16.2,30.1l1.7-1.6l-2.1-2.3l-1.7,1.6l0,0.8l1.4,0.1l-0.1,1.4L16.2,30.1z M23,20.2c-0.1-0.2-0.3-0.2-0.5,0l-5.2,4.7
	c-0.2,0.2-0.2,0.3,0,0.5c0.1,0.2,0.3,0.2,0.5,0l5.2-4.7C23.1,20.5,23.2,20.3,23,20.2z M22.9,18.1l3.9,4.3l-10.1,9.1l-4.1-0.2
	l0.2-4.1L22.9,18.1z M29.1,20.3l-1.4,1.2l-3.9-4.3l1.4-1.2c0.3-0.3,0.6-0.4,1-0.3s0.7,0.2,0.9,0.4l2.1,2.3c0.3,0.3,0.4,0.6,0.3,1
	C29.5,19.8,29.4,20.1,29.1,20.3z"/>
</svg>
