<?xml version="1.0" encoding="utf-8"?>
<!-- Generator: Adobe Illustrator 21.1.0, SVG Export Plug-In . SVG Version: 6.00 Build 0)  -->
<svg version="1.1" id="Ebene_1" xmlns="http://www.w3.org/2000/svg" xmlns:xlink="http://www.w3.org/1999/xlink" x="0px" y="0px"
	 viewBox="0 0 42.5 42.5" style="enable-background:new 0 0 42.5 42.5;" xml:space="preserve">
<path d="M28.4,24.9c0.1,0.1,0.2,0.3,0.2,0.4v1.2c0,0.2-0.1,0.3-0.2,0.4c-0.1,0.1-0.3,0.2-0.4,0.2H14.6c-0.2,0-0.3-0.1-0.4-0.2
	C14,26.9,14,26.7,14,26.5v-1.2c0-0.2,0.1-0.3,0.2-0.4c0.1-0.1,0.3-0.2,0.4-0.2h13.4C28.1,24.7,28.3,24.8,28.4,24.9z M27.9,29.6H14.6
	c-0.2,0-0.3,0.1-0.4,0.2C14,29.9,14,30,14,30.2v1.2c0,0.2,0.1,0.3,0.2,0.4c0.1,0.1,0.3,0.2,0.4,0.2h13.4c0.2,0,0.3-0.1,0.4-0.2
	c0.1-0.1,0.2-0.3,0.2-0.4v-1.2c0-0.2-0.1-0.3-0.2-0.4C28.3,29.6,28.1,29.6,27.9,29.6z M21.8,18.8c0.1-0.2,0.2-0.3,0.2-0.5
	c0-0.3-0.2-0.6-0.5-0.7c-0.2-0.1-0.4-0.2-0.5-0.2c-0.3,0-0.7,0.2-0.8,0.6l0,0c-0.5,1.2-1.7,2-2.8,2c-0.9,0-1.7-0.4-2.3-1.1h2
	c0.2,0,0.5-0.1,0.7-0.3c0.2-0.2,0.3-0.4,0.3-0.7c0-0.2-0.1-0.5-0.3-0.7c-0.2-0.2-0.4-0.3-0.7-0.3h-2.8c0-0.2-0.1-0.4-0.1-0.7
	c0-0.2,0-0.4,0.1-0.6h2.8c0.2,0,0.5-0.1,0.7-0.3c0.2-0.2,0.3-0.4,0.3-0.7c0-0.2-0.1-0.5-0.3-0.7c-0.2-0.2-0.4-0.3-0.7-0.3h-2
	c0.6-0.8,1.4-1.2,2.4-1.2c1.1,0,2.2,0.7,2.8,2l0,0.1l0,0c0.2,0.2,0.5,0.4,0.8,0.4c0.1,0,0.2,0,0.4-0.1l0.1,0l0.1-0.1
	c0.2-0.2,0.4-0.5,0.4-0.8c0-0.1,0-0.2-0.1-0.4l0,0l0,0c-0.8-1.9-2.6-3.1-4.4-3.1c-2.1,0-3.8,1.3-4.6,3.2h-1c-0.2,0-0.5,0.1-0.7,0.3
	c-0.2,0.2-0.3,0.4-0.3,0.7c0,0.2,0.1,0.5,0.3,0.7c0.2,0.2,0.4,0.3,0.7,0.3h0.6c0,0.1,0,0.3,0,0.4c0,0.3,0,0.5,0.1,0.8h-0.6
	c-0.2,0-0.5,0.1-0.7,0.3c-0.2,0.2-0.3,0.4-0.3,0.7c0,0.2,0.1,0.5,0.3,0.7c0.2,0.2,0.4,0.3,0.7,0.3H13c0.9,1.7,2.5,2.9,4.4,2.9
	C19.3,21.6,21,20.5,21.8,18.8L21.8,18.8C21.8,18.9,21.8,18.8,21.8,18.8C21.8,18.8,21.8,18.8,21.8,18.8L21.8,18.8z M34.6,11.2
	c0.4,0.4,0.7,0.8,0.9,1.4c0.3,0.6,0.4,1.2,0.4,1.7v21.9c0,0.5-0.2,0.9-0.5,1.3S34.5,38,34,38H8.5c-0.5,0-0.9-0.2-1.3-0.5
	c-0.4-0.4-0.5-0.8-0.5-1.3V5.8c0-0.5,0.2-0.9,0.5-1.3C7.6,4.2,8,4,8.5,4h17c0.5,0,1.1,0.1,1.7,0.4c0.6,0.3,1.1,0.6,1.4,0.9
	L34.6,11.2z M26.1,6.6v7.1h7.1c-0.1-0.4-0.3-0.6-0.4-0.8L26.9,7C26.7,6.8,26.5,6.7,26.1,6.6z M33.4,35.6V16.2h-7.9
	c-0.5,0-0.9-0.2-1.3-0.5c-0.4-0.4-0.5-0.8-0.5-1.3V6.4H9.1v29.2H33.4z"/>
</svg>
