<?xml version="1.0" encoding="utf-8"?>
<!-- Generator: Adobe Illustrator 21.1.0, SVG Export Plug-In . SVG Version: 6.00 Build 0)  -->
<svg version="1.1" id="Ebene_1" xmlns="http://www.w3.org/2000/svg" xmlns:xlink="http://www.w3.org/1999/xlink" x="0px" y="0px"
	 viewBox="0 0 42.5 42.5" style="enable-background:new 0 0 42.5 42.5;" xml:space="preserve">
<style type="text/css">
	.st0{fill:#FFFFFF;}
	.st1{font-family:'RobotoCondensed-Bold';}
	.st2{font-size:10.6404px;}
	.st3{fill:none;}
</style>
<path d="M32.2,16.1h-0.7v-3.3c0,0,0,0,0-0.1c0-0.1,0-0.3-0.1-0.4l-5.5-6.2c0,0,0,0,0,0c0,0-0.1-0.1-0.1-0.1c0,0,0,0,0,0
	c0,0-0.1,0-0.1,0c0,0,0,0,0,0c0,0-0.1,0-0.1,0H12.1C11.5,6,11,6.5,11,7.1v9h-0.7c-0.9,0-1.6,0.7-1.6,1.6V26c0,0.9,0.7,1.6,1.6,1.6
	H11v5.7c0,0.6,0.5,1.1,1.1,1.1h18.3c0.6,0,1.1-0.5,1.1-1.1v-5.7h0.7c0.9,0,1.6-0.7,1.6-1.6v-8.3C33.8,16.8,33.1,16.1,32.2,16.1
	L32.2,16.1z M12.1,7.1H25v5.7c0,0.3,0.2,0.6,0.6,0.6h4.9v2.8H12.1V7.1z M30.4,32.9H12.1v-5.4h18.3V32.9z M28.5,25.3"/>
<text transform="matrix(0.8458 0 0 1 9.5805 25.2407)" class="st0 st1 st2">EXCEL</text>
<path d="M32.2,16.1h-0.7v-3.3c0,0,0,0,0-0.1c0-0.1,0-0.3-0.1-0.4l-5.5-6.2c0,0,0,0,0,0c0,0-0.1-0.1-0.1-0.1c0,0,0,0,0,0
	c0,0-0.1,0-0.1,0c0,0,0,0,0,0c0,0-0.1,0-0.1,0H12.1C11.5,6,11,6.5,11,7.1v9h-0.7c-0.9,0-1.6,0.7-1.6,1.6V26c0,0.9,0.7,1.6,1.6,1.6
	H11v5.7c0,0.6,0.5,1.1,1.1,1.1h18.3c0.6,0,1.1-0.5,1.1-1.1v-5.7h0.7c0.9,0,1.6-0.7,1.6-1.6v-8.3C33.8,16.8,33.1,16.1,32.2,16.1
	L32.2,16.1z M12.1,7.1H25v5.7c0,0.3,0.2,0.6,0.6,0.6h4.9v2.8H12.1V7.1z M30.4,32.9H12.1v-5.4h18.3V32.9z M28.5,25.3"/>
<rect x="8.7" y="17.7" class="st3" width="25.1" height="9.2"/>
<text transform="matrix(0.8458 0 0 1 13.7582 25.708)" class="st0 st1 st2">LOG</text>
</svg>
