<?xml version="1.0" encoding="utf-8"?>
<!-- Generator: Adobe Illustrator 21.1.0, SVG Export Plug-In . SVG Version: 6.00 Build 0)  -->
<svg version="1.1" id="Ebene_1" xmlns="http://www.w3.org/2000/svg" xmlns:xlink="http://www.w3.org/1999/xlink" x="0px" y="0px"
	 viewBox="0 0 42.5 42.5" style="enable-background:new 0 0 42.5 42.5;" xml:space="preserve">
<path d="M25.5,22.2v1.7c0,0.5,0,1-1.2,1.1c0.1-0.2,0.1-0.4,0.1-0.6v-0.5c0-1-0.8-1.8-1.8-1.8h-6.7v-5.7h3.9c1.6,0,2.9-1.3,2.9-2.9V8
	c0-2.2-1.8-4-4-4h-9c-2.2,0-4,1.8-4,4v5.5c0,1.6,1.3,2.9,2.9,2.9h3.9v5.7H5.7c-1,0-1.8,0.8-1.8,1.8v0.5c0,0.2,0,0.4,0.1,0.6
	c-1.2-0.1-1.2-0.6-1.2-0.8v-3.8H4c0.3,0,0.6-0.3,0.6-0.6v-1.7c0-0.3-0.3-0.6-0.6-0.6H0.6c-0.3,0-0.6,0.3-0.6,0.6v1.7
	c0,0.3,0.3,0.6,0.6,0.6h1.1v3.8c0,0.7,0.4,1.9,2.8,1.9h1.1c0,0,0,0,0,0s0,0,0,0h6.7v7.4H4.5C4.2,33.5,4,33.7,4,34
	c0,0.3,0.3,0.6,0.6,0.6h0.6v0.1c-0.2-0.1-0.4-0.1-0.6-0.1c-0.9,0-1.7,0.8-1.7,1.7c0,0.9,0.8,1.7,1.7,1.7c0.9,0,1.7-0.8,1.7-1.7
	c0-0.1,0-0.3,0-0.4c0-0.1,0-0.1,0-0.2v-1.1h6.7c0,0,0.1,0,0.1,0v1.1c0,0.1,0,0.1,0,0.2c0,0.1,0,0.2,0,0.4c0,0.9,0.8,1.7,1.7,1.7
	c0.9,0,1.7-0.8,1.7-1.7c0-0.9-0.6-1.6-1.5-1.7h0.4c0,0,0.1,0,0.1,0h6.1v1.1c0,0.1,0,0.1,0,0.2c0,0.1,0,0.2,0,0.4
	c0,0.9,0.8,1.7,1.7,1.7c0.9,0,1.7-0.8,1.7-1.7s-0.8-1.7-1.7-1.7c-0.2,0-0.4,0-0.6,0.1v-0.1h0.6c0.3,0,0.6-0.3,0.6-0.6
	c0-0.3-0.3-0.6-0.6-0.6h-7.3v-7.4h6.7c0,0,0,0,0,0c0,0,0,0,0,0h1.1c0.7,0,2.8,0,2.8-2.3v-1.7 M14.2,34.7L14.2,34.7l0.4-0.1
	C14.4,34.6,14.3,34.7,14.2,34.7z M42.5,19.1c0,0.3-0.1,0.5-0.3,0.7L37,25c-0.2,0.2-0.4,0.3-0.7,0.3c-0.3,0-0.5-0.1-0.7-0.3L35,24.4
	c-0.2-0.2-0.3-0.4-0.3-0.7s0.1-0.5,0.3-0.7l2.3-2.3H22.2c-0.3,0-0.5-0.1-0.7-0.3s-0.3-0.4-0.3-0.7v-1c0-0.3,0.1-0.5,0.3-0.7
	s0.4-0.3,0.7-0.3h15.2L35,15.2c-0.2-0.2-0.3-0.4-0.3-0.7s0.1-0.5,0.3-0.7l0.6-0.6c0.2-0.2,0.4-0.3,0.7-0.3c0.3,0,0.5,0.1,0.7,0.3
	l5.2,5.2C42.4,18.5,42.5,18.8,42.5,19.1z"/>
</svg>
