<?xml version="1.0" encoding="utf-8"?>
<!-- Generator: Adobe Illustrator 21.1.0, SVG Export Plug-In . SVG Version: 6.00 Build 0)  -->
<svg version="1.1" id="Ebene_1" xmlns="http://www.w3.org/2000/svg" xmlns:xlink="http://www.w3.org/1999/xlink" x="0px" y="0px"
	 viewBox="0 0 42.5 42.5" style="enable-background:new 0 0 42.5 42.5;" xml:space="preserve">
<path d="M25.7,30.3l2-1.8l-2.3-2.6l-2,1.8l0,0.9l1.6,0.1l-0.1,1.6L25.7,30.3z M33.4,19c-0.2-0.2-0.3-0.2-0.5,0l-6,5.4
	c-0.2,0.2-0.2,0.4,0,0.5c0.2,0.2,0.3,0.2,0.5,0l6-5.4C33.5,19.4,33.5,19.2,33.4,19z M33.2,16.7l4.4,4.9L26.2,31.9l-4.7-0.2l0.2-4.7
	L33.2,16.7z M40.3,19.2l-1.6,1.4l-4.4-4.9l1.6-1.4c0.3-0.3,0.7-0.4,1.1-0.4c0.4,0,0.8,0.2,1.1,0.5l2.3,2.6c0.3,0.3,0.4,0.7,0.4,1.1
	C40.8,18.6,40.6,18.9,40.3,19.2z M17.9,22.1v-5.7h3.9c1.6,0,2.9-1.3,2.9-2.9V8c0-2.2-1.8-4-4-4h-9c-2.2,0-4,1.8-4,4v5.5
	c0,1.6,1.3,2.9,2.9,2.9h3.9v5.7H7.7c-1,0-1.8,0.8-1.8,1.8v0.5c0,0.2,0,0.4,0.1,0.6c-1.2-0.1-1.2-0.6-1.2-0.8v-3.8H6
	c0.3,0,0.6-0.3,0.6-0.6v-1.7c0-0.3-0.3-0.6-0.6-0.6H2.6c-0.3,0-0.6,0.3-0.6,0.6v1.7c0,0.3,0.3,0.6,0.6,0.6h1.1v3.8
	c0,0.7,0.4,1.9,2.8,1.9h1.1c0,0,0,0,0,0s0,0,0,0h6.7v7.4H6.5C6.2,33.5,6,33.7,6,34c0,0.3,0.3,0.6,0.6,0.6h0.6v0.1
	c-0.2-0.1-0.4-0.1-0.6-0.1c-0.9,0-1.7,0.8-1.7,1.7S5.6,38,6.5,38c0.9,0,1.7-0.8,1.7-1.7c0-0.1,0-0.3,0-0.4c0-0.1,0-0.1,0-0.2v-1.1
	h6.7c0,0,0.1,0,0.1,0v1.1c0,0.1,0,0.1,0,0.2c0,0.1,0,0.2,0,0.4c0,0.9,0.8,1.7,1.7,1.7c0.9,0,1.7-0.8,1.7-1.7c0-0.9-0.6-1.6-1.5-1.7
	h0.4c0,0,0.1,0,0.1,0h6.1v1.1c0,0.1,0,0.1,0,0.2c0,0.1,0,0.2,0,0.4c0,0.9,0.8,1.7,1.7,1.7c0.9,0,1.7-0.8,1.7-1.7
	c0-0.9-0.8-1.7-1.7-1.7c-0.2,0-0.4,0-0.6,0.1v-0.1h0.6c0.3,0,0.6-0.3,0.6-0.6c0-0.3-0.3-0.6-0.6-0.6h-7.3v-7.4h2.7l4.4-4H17.9z
	 M16.2,34.7L16.2,34.7l0.4-0.1C16.4,34.6,16.3,34.7,16.2,34.7z"/>
</svg>
