<?xml version="1.0" encoding="utf-8"?>
<!-- Generator: Adobe Illustrator 21.1.0, SVG Export Plug-In . SVG Version: 6.00 Build 0)  -->
<svg version="1.1" id="Ebene_1" xmlns="http://www.w3.org/2000/svg" xmlns:xlink="http://www.w3.org/1999/xlink" x="0px" y="0px"
	 viewBox="0 0 42.5 42.5" style="enable-background:new 0 0 42.5 42.5;" xml:space="preserve">
<g>
	<path d="M38.8,7.9C38.1,7.3,37.3,7,36.4,7h-31C4.4,7,3.7,7.3,3,7.9c-0.7,0.6-1,1.4-1,2.3v21.9c0,0.9,0.3,1.6,1,2.3
		c0.7,0.6,1.5,0.9,2.4,0.9h31c0.9,0,1.7-0.3,2.4-0.9c0.7-0.6,1-1.4,1-2.3V10.2C39.8,9.3,39.5,8.6,38.8,7.9z M37.6,32.4
		c0,0.2-0.1,0.3-0.2,0.5c-0.1,0.1-0.3,0.2-0.5,0.2H4.8c-0.2,0-0.3-0.1-0.5-0.2c-0.1-0.1-0.2-0.3-0.2-0.5v-16c0.4,0.5,1.5,1.2,2,1.6
		c1.3,1,2.6,1.9,3.7,2.7l2-1.5c-1.3-1-2.7-2.1-4-3.1c-2.1-1.6-3.6-3.8-3.6-6.1c0-0.2,0.1-0.3,0.2-0.5c0.1-0.1,0.3-0.2,0.5-0.2h32.1
		l0.3,0.1l0.2,0.2l0.1,0.2l0.1,0.5l0,0V11c0,0.8-0.2,1.4-0.9,2.4c-0.7,1-2,2.1-2.7,2.7c-2.7,2.1-5.5,4.3-8.5,6.5
		c-0.1,0.1-0.3,0.3-0.7,0.6s-0.7,0.6-1,0.8c-0.2,0.2-0.6,0.4-0.9,0.6s-0.7,0.4-1.1,0.6c-0.3,0.1-0.6,0.2-0.9,0.2h0
		c-0.3,0-0.6-0.1-0.9-0.2c0,0,0,0,0,0L18,26.8c0.2,0.1,0.4,0.2,0.7,0.3c0.8,0.3,1.5,0.5,2.2,0.5h0c0.7,0,1.4-0.2,2.2-0.5
		c0.8-0.3,1.4-0.7,1.8-1c0.4-0.3,1-0.8,1.8-1.3c2.2-1.8,5.2-4,9-6.8c0.5-0.4,1.5-1.2,2-1.6V32.4z"/>
</g>
<path d="M21.3,14l4.1,5.2l-12.1,9.5L8.6,28l0.6-4.6L21.3,14z M28.2,17l-1.7,1.3l-4.1-5.2l1.7-1.3c0.3-0.3,0.7-0.4,1.1-0.3
	c0.4,0.1,0.8,0.2,1,0.6l2.1,2.7c0.3,0.3,0.4,0.7,0.3,1.1C28.7,16.4,28.5,16.7,28.2,17z M12.8,27l2.1-1.6l-2.1-2.7l-2.1,1.6l-0.1,0.9
	l1.5,0.2l-0.2,1.5L12.8,27z M21.3,16.3c-0.2-0.2-0.3-0.2-0.5,0l-6.3,4.9c-0.2,0.2-0.2,0.3-0.1,0.5c0.2,0.2,0.3,0.2,0.5,0l6.3-4.9
	C21.4,16.7,21.4,16.5,21.3,16.3z"/>
</svg>
