<?xml version="1.0" encoding="utf-8"?>
<!-- Generator: Adobe Illustrator 21.1.0, SVG Export Plug-In . SVG Version: 6.00 Build 0)  -->
<svg version="1.1" id="Ebene_1" xmlns="http://www.w3.org/2000/svg" xmlns:xlink="http://www.w3.org/1999/xlink" x="0px" y="0px"
	 viewBox="0 0 42.5 42.5" style="enable-background:new 0 0 42.5 42.5;" xml:space="preserve">
<path d="M16.8,10.3L14.1,8l-1.3,1.6l2.7,2.2L16.8,10.3z M29.6,9.6L28.3,8l-2.7,2.2l1.3,1.6L29.6,9.6z M25.1,8.4l-1.3-1.5l-1.5,1.4V4
	h-2v4.2l-1.5-1.4l-1.3,1.5l3.9,3.4L25.1,8.4z"/>
<path d="M15.6,24.7c-1.5,0.1-2.9,0.7-3.9,1.9H9.8c-0.8,0-1.5-0.2-2-0.6C7.3,25.7,7,25.1,7,24.3c0-3.4,0.6-5.2,1.8-5.2
	c0.1,0,0.2,0.1,0.6,0.3s0.9,0.4,1.4,0.6c0.6,0.2,1.2,0.3,1.7,0.3c0.6,0,1.3-0.1,1.9-0.3c-0.1,0.4-0.1,0.7-0.1,0.9
	C14.5,22.3,14.9,23.6,15.6,24.7z M31.5,34.2c0,1.2-0.4,2.1-1.1,2.8c-0.7,0.7-1.6,1-2.9,1H14.9c-1.2,0-2.1-0.3-2.9-1
	c-0.7-0.7-1.1-1.6-1.1-2.8c0-0.5,0-1,0.1-1.5s0.1-1,0.2-1.6c0.1-0.5,0.2-1.1,0.4-1.5c0.2-0.5,0.4-0.9,0.6-1.4
	c0.2-0.5,0.5-0.9,0.9-1.2c0.3-0.3,0.8-0.6,1.2-0.8c0.5-0.2,1-0.3,1.6-0.3c0.1,0,0.3,0.1,0.6,0.3c0.3,0.2,0.7,0.5,1.1,0.7
	c0.4,0.2,0.9,0.5,1.5,0.7s1.3,0.3,1.9,0.3s1.3-0.1,1.9-0.3s1.2-0.5,1.5-0.7c0.4-0.2,0.8-0.5,1.1-0.7c0.3-0.2,0.5-0.3,0.6-0.3
	c0.6,0,1.2,0.1,1.6,0.3c0.5,0.2,0.9,0.5,1.2,0.8c0.3,0.3,0.6,0.7,0.9,1.2c0.2,0.5,0.5,0.9,0.6,1.4c0.2,0.5,0.3,1,0.4,1.5
	s0.2,1.1,0.2,1.6S31.5,33.7,31.5,34.2z M16.3,15.4c0,1-0.4,1.9-1.1,2.6s-1.6,1.1-2.6,1.1S10.7,18.7,10,18c-0.7-0.7-1.1-1.6-1.1-2.6
	s0.4-1.9,1.1-2.6c0.7-0.7,1.5-1.1,2.6-1.1s1.9,0.4,2.6,1.1C15.9,13.5,16.3,14.4,16.3,15.4z M26.1,21c0,1.4-0.5,2.6-1.5,3.5
	c-1,1-2.2,1.5-3.5,1.5c-1.4,0-2.6-0.5-3.5-1.5c-1-1-1.5-2.2-1.5-3.5s0.5-2.6,1.5-3.5c1-0.9,2.2-1.5,3.5-1.5c1.4,0,2.6,0.5,3.5,1.5
	C25.7,18.5,26.1,19.6,26.1,21z M35.4,24.3c0,0.8-0.3,1.3-0.9,1.7c-0.5,0.4-1.2,0.6-2,0.6h-1.9c-1-1.2-2.3-1.9-3.9-1.9
	c0.8-1.2,1.2-2.4,1.2-3.7c0-0.3,0-0.6-0.1-0.9c0.6,0.2,1.3,0.3,1.9,0.3c0.5,0,1.2-0.1,1.7-0.3c0.6-0.2,1.1-0.4,1.4-0.6
	c0.4-0.2,0.5-0.3,0.6-0.3C34.8,19.2,35.4,20.9,35.4,24.3z M33.6,15.4c0,1-0.4,1.9-1.1,2.6s-1.6,1.1-2.6,1.1c-1,0-1.9-0.4-2.6-1.1
	c-0.7-0.7-1.1-1.6-1.1-2.6s0.4-1.9,1.1-2.6c0.7-0.7,1.5-1.1,2.6-1.1c1,0,1.9,0.4,2.6,1.1C33.2,13.5,33.6,14.4,33.6,15.4z"/>
</svg>
