<?xml version="1.0" encoding="utf-8"?>
<!-- Generator: Adobe Illustrator 21.1.0, SVG Export Plug-In . SVG Version: 6.00 Build 0)  -->
<svg version="1.1" id="Ebene_1" xmlns="http://www.w3.org/2000/svg" xmlns:xlink="http://www.w3.org/1999/xlink" x="0px" y="0px"
	 viewBox="0 0 42.5 42.5" style="enable-background:new 0 0 42.5 42.5;" xml:space="preserve">
<path d="M34.3,24.1v1.2c0,0.2-0.1,0.3-0.2,0.4c-0.1,0.1-0.3,0.2-0.4,0.2h-5.8c-0.2,0-0.3-0.1-0.4-0.2s-0.2-0.3-0.2-0.4v-1.2
	c0-0.2,0.1-0.3,0.2-0.4s0.3-0.2,0.4-0.2h5.8c0.2,0,0.3,0.1,0.4,0.2C34.2,23.8,34.3,24,34.3,24.1z M34.3,19.5v1
	c0,0.2-0.1,0.3-0.2,0.5s-0.3,0.2-0.5,0.2H28c-0.2,0-0.3-0.1-0.5-0.2s-0.2-0.3-0.2-0.5v-1c0-0.2,0.1-0.3,0.2-0.5s0.3-0.2,0.5-0.2h5.6
	c0.2,0,0.3,0.1,0.5,0.2S34.3,19.3,34.3,19.5z M34.3,14.7v1.2c0,0.2-0.1,0.3-0.2,0.4c-0.1,0.1-0.3,0.2-0.4,0.2h-5.8
	c-0.2,0-0.3-0.1-0.4-0.2s-0.2-0.3-0.2-0.4v-1.2c0-0.2,0.1-0.3,0.2-0.4c0.1-0.1,0.3-0.2,0.4-0.2h5.8c0.2,0,0.3,0.1,0.4,0.2
	S34.3,14.5,34.3,14.7z M37.4,32.4V10c0-0.2-0.1-0.3-0.2-0.4c-0.1-0.1-0.3-0.2-0.4-0.2H5c-0.2,0-0.3,0.1-0.4,0.2
	C4.4,9.7,4.4,9.8,4.4,10v22.4c0,0.2,0.1,0.3,0.2,0.4C4.7,32.9,4.8,33,5,33h6.5v-1.8c0-0.2,0.1-0.3,0.2-0.4c0.1-0.1,0.3-0.2,0.4-0.2
	h1.2c0.2,0,0.3,0.1,0.4,0.2c0.1,0.1,0.2,0.3,0.2,0.4V33H28v-1.8c0-0.2,0.1-0.3,0.2-0.4s0.3-0.2,0.4-0.2h1.2c0.2,0,0.3,0.1,0.4,0.2
	s0.2,0.3,0.2,0.4V33h6.5c0.2,0,0.3-0.1,0.4-0.2C37.4,32.7,37.4,32.6,37.4,32.4z M39.8,10v22.4c0,0.8-0.3,1.5-0.9,2.1
	c-0.6,0.6-1.3,0.9-2.1,0.9H5c-0.8,0-1.5-0.3-2.1-0.9C2.3,33.9,2,33.2,2,32.4V10c0-0.8,0.3-1.5,0.9-2.1S4.1,7,5,7h31.9
	c0.8,0,1.5,0.3,2.1,0.9C39.5,8.4,39.8,9.1,39.8,10z M12,20.3c-1.1,0.1-1.9,0.5-2.6,1.3H8c-0.5,0-1-0.2-1.4-0.4
	C6.3,21,6.1,20.6,6.1,20c0-2.3,0.4-3.5,1.2-3.5c0.1,0,0.2,0.1,0.4,0.2C8,16.9,8.3,17,8.6,17.1c0.4,0.2,0.8,0.2,1.2,0.2
	c0.4,0,0.9-0.1,1.3-0.2c-0.1,0.3-0.1,0.5-0.1,0.6C11.2,18.7,11.4,19.6,12,20.3z M22.7,26.8c0,0.8-0.3,1.4-0.7,1.9
	c-0.5,0.5-1.1,0.7-1.9,0.7h-8.6c-0.8,0-1.4-0.2-1.9-0.7c-0.5-0.5-0.7-1.1-0.7-1.9c0-0.4,0-0.7,0.1-1.1C8.9,25.3,8.9,25,9,24.6
	c0.1-0.4,0.2-0.7,0.3-1.1c0.1-0.3,0.3-0.6,0.4-0.9c0.2-0.3,0.4-0.6,0.6-0.8c0.2-0.2,0.5-0.4,0.8-0.5c0.3-0.1,0.7-0.2,1.1-0.2
	c0.1,0,0.2,0.1,0.4,0.2c0.2,0.2,0.5,0.3,0.7,0.5c0.3,0.2,0.6,0.3,1.1,0.5s0.9,0.2,1.3,0.2c0.4,0,0.9-0.1,1.3-0.2s0.8-0.3,1.1-0.5
	c0.3-0.2,0.5-0.3,0.7-0.5c0.2-0.2,0.4-0.2,0.4-0.2c0.4,0,0.8,0.1,1.1,0.2c0.3,0.2,0.6,0.3,0.8,0.5c0.2,0.2,0.4,0.5,0.6,0.8
	c0.2,0.3,0.3,0.6,0.4,0.9c0.1,0.3,0.2,0.7,0.3,1.1c0.1,0.4,0.1,0.7,0.2,1.1C22.7,26.1,22.7,26.4,22.7,26.8z M12.4,14
	c0,0.7-0.3,1.3-0.7,1.8s-1.1,0.7-1.8,0.7s-1.3-0.3-1.8-0.7S7.4,14.7,7.4,14s0.3-1.3,0.7-1.8c0.5-0.5,1.1-0.7,1.7-0.7
	s1.3,0.3,1.8,0.7C12.1,12.7,12.4,13.3,12.4,14z M19.1,17.8c0,0.9-0.3,1.7-1,2.4c-0.7,0.7-1.5,1-2.4,1c-0.9,0-1.7-0.3-2.4-1
	c-0.7-0.7-1-1.5-1-2.4s0.3-1.7,1-2.4c0.7-0.6,1.5-1,2.4-1c0.9,0,1.7,0.3,2.4,1C18.8,16.1,19.1,16.9,19.1,17.8z M25.4,20
	c0,0.5-0.2,0.9-0.6,1.2c-0.4,0.3-0.8,0.4-1.4,0.4h-1.3c-0.7-0.8-1.6-1.3-2.6-1.3c0.5-0.8,0.8-1.6,0.8-2.5c0-0.2,0-0.4-0.1-0.6
	c0.4,0.2,0.9,0.2,1.3,0.2c0.4,0,0.8-0.1,1.2-0.2c0.4-0.2,0.7-0.3,0.9-0.4c0.3-0.2,0.4-0.2,0.4-0.2C25,16.6,25.4,17.7,25.4,20z
	 M24.2,14c0,0.7-0.3,1.3-0.7,1.8s-1.1,0.7-1.8,0.7c-0.7,0-1.3-0.3-1.8-0.7c-0.5-0.5-0.7-1.1-0.7-1.8s0.3-1.3,0.7-1.8
	c0.5-0.5,1.1-0.7,1.8-0.7c0.7,0,1.3,0.3,1.8,0.7C23.9,12.7,24.2,13.3,24.2,14z"/>
</svg>
