<?xml version="1.0" encoding="utf-8"?>
<!-- Generator: Adobe Illustrator 21.1.0, SVG Export Plug-In . SVG Version: 6.00 Build 0)  -->
<svg version="1.1" id="Ebene_1" xmlns="http://www.w3.org/2000/svg" xmlns:xlink="http://www.w3.org/1999/xlink" x="0px" y="0px"
	 viewBox="0 0 42.5 42.5" style="enable-background:new 0 0 42.5 42.5;" xml:space="preserve">
<path id="edit" d="M11.8,21.2v9.4H7.1v-9.4H11.8z M18.9,11.7v18.9h-4.7V11.7H18.9z M37.8,32.9v2.4H0V7h2.4v25.9H37.8z M26,26.6v4
	h-4.7v-4H26z M27.3,23.4l2-1.8L27,19l-2,1.8l0,0.9l1.6,0.1l-0.1,1.6L27.3,23.4z M35,12.1c-0.2-0.2-0.3-0.2-0.5,0l-6,5.4
	c-0.2,0.2-0.2,0.4,0,0.5c0.2,0.2,0.3,0.2,0.5,0l6-5.4C35.2,12.5,35.2,12.3,35,12.1z M34.9,9.8l4.4,4.9L27.9,25l-4.7-0.2l0.2-4.7
	L34.9,9.8z M42,12.3l-1.6,1.4L36,8.8l1.6-1.4C37.9,7.1,38.2,7,38.7,7c0.4,0,0.8,0.2,1.1,0.5l2.3,2.6c0.3,0.3,0.4,0.7,0.4,1.1
	S42.3,12,42,12.3z"/>
</svg>
