<?xml version="1.0" encoding="utf-8"?>
<!-- Generator: Adobe Illustrator 21.1.0, SVG Export Plug-In . SVG Version: 6.00 Build 0)  -->
<svg version="1.1" id="Ebene_1" xmlns="http://www.w3.org/2000/svg" xmlns:xlink="http://www.w3.org/1999/xlink" x="0px" y="0px"
	 viewBox="0 0 42.5 42.5" style="enable-background:new 0 0 42.5 42.5;" xml:space="preserve">
<path d="M5.2,21.9h6c0.1,2.2,0.4,4.3,0.8,6.2c-1.4,0.5-2.7,1.1-3.8,1.8C6.4,27.7,5.4,24.9,5.2,21.9z M8.1,11.5
	c1.1,0.7,2.4,1.3,3.8,1.8c-0.5,2-0.7,4.1-0.8,6.2h-6C5.4,16.5,6.4,13.8,8.1,11.5z M36.9,19.5h-6c-0.1-2.2-0.4-4.3-0.8-6.2
	c1.4-0.5,2.7-1.1,3.8-1.8C35.7,13.8,36.7,16.5,36.9,19.5z M34,30c-1.1-0.7-2.4-1.3-3.8-1.8c0.5-2,0.7-4.1,0.8-6.3h6
	C36.7,24.9,35.7,27.7,34,30z M19.9,26.7c-2,0.1-3.9,0.3-5.6,0.8c-0.4-1.7-0.6-3.6-0.7-5.6h6.4V26.7z M19.9,29.1v7.3
	c-2.5-0.9-4.1-4.2-5-6.7C16.4,29.4,18.1,29.2,19.9,29.1z M22.2,36.4v-7.3c1.7,0.1,3.4,0.3,5,0.7C26.4,32.3,24.7,35.5,22.2,36.4z
	 M22.2,26.7v-4.8h6.4c-0.1,2-0.3,3.8-0.7,5.6C26.1,27.1,24.2,26.8,22.2,26.7z M28.6,19.5h-6.4v-4.8c2-0.1,3.9-0.3,5.6-0.8
	C28.3,15.7,28.5,17.6,28.6,19.5z M22.2,12.3V5c2.5,0.9,4.1,4.2,5,6.7C25.7,12,24,12.3,22.2,12.3z M19.9,5v7.3
	c-1.7-0.1-3.4-0.3-5-0.7C15.7,9.2,17.4,5.9,19.9,5z M19.9,14.7v4.8h-6.4c0.1-2,0.3-3.8,0.7-5.6C16,14.4,17.9,14.6,19.9,14.7z
	 M9.6,31.8c0.9-0.5,1.9-1,2.9-1.4c0.6,1.7,1.4,3.5,2.5,5C13,34.7,11.2,33.4,9.6,31.8z M27,35.5c1.1-1.5,1.9-3.3,2.5-5
	c1.1,0.4,2.1,0.8,2.9,1.4C30.9,33.4,29.1,34.7,27,35.5z M32.5,9.6c-0.9,0.5-1.9,1-2.9,1.4c-0.6-1.7-1.4-3.5-2.5-5
	C29.1,6.8,30.9,8,32.5,9.6z M15.1,5.9c-1.1,1.5-1.9,3.3-2.5,5c-1.1-0.4-2.1-0.8-2.9-1.4C11.2,8,13,6.8,15.1,5.9z"/>
</svg>
