<?xml version="1.0" encoding="utf-8"?>
<!-- Generator: Adobe Illustrator 21.1.0, SVG Export Plug-In . SVG Version: 6.00 Build 0)  -->
<svg version="1.1" id="Ebene_1" xmlns="http://www.w3.org/2000/svg" xmlns:xlink="http://www.w3.org/1999/xlink" x="0px" y="0px"
	 viewBox="0 0 42.5 42.5" style="enable-background:new 0 0 42.5 42.5;" xml:space="preserve">
<path d="M27.6,25.5c0-0.1,0.9-5.3,0.9-8.8c0-5.4-3.5-9.8-7.8-9.8c-1.6,0-3,0.6-4.3,1.6c-0.2,0.2-0.4,0.3-0.6,0.5
	c-1.8,1.8-3,4.6-3,7.7c0,3.7,0.8,8.4,0.6,8.5c-2.5,1-3.6,3.4-3.6,5.2v4.9h21.5v-4.9c0-2-1.1-4.5-2.9-4.9
	C27.8,25.4,27.6,25.5,27.6,25.5z M15.5,15.4c0-0.6-0.1-1.2-0.1-1.7c0-0.5,0.2-1.2,0.3-1.5c0.6,1.8,1.9,1.7,4.2,2
	c0.7,0.1,2.3,0.1,2.8,0.1c0.1-1.4-2.2-3-2.2-3s0.6-0.1,0.9,0c0.2,0,0.8,0.2,0.9,0.3c1.8,1,1.7,2.5,1.7,2.5c0.9-0.3,1.6-0.7,1.9-1.6
	c0.1,0.3,0.1,0.5,0.2,0.8c0.2,1.5-0.1,3.4-0.1,3.4l-0.2,0.8c-0.5,1.8-1.4,3.2-2.7,4.2c-0.7,0.5-1.4,0.9-2.2,0.9
	c-0.8,0-1.5-0.3-2.2-0.9c-1.3-1.1-2.4-2.9-2.9-4.7C15.7,16.9,15.5,16.1,15.5,15.4z M20.9,29.3c-0.6-0.1-3.4-2.2-3.4-2.2
	c-0.8-0.6-1.3-1-2-1.7c0,0,0.5-0.7,0.6-0.8c0.1-0.1,0.2-0.3,0.3-0.4c0.5-0.6,1-1.3,1.5-1.9c0.9,0.7,1.8,1.2,2.9,1.2
	c1,0,2-0.4,2.9-1.2c0.7,0.7,2.4,3,2.5,3.1c-0.4,0.5-2,1.5-2,1.5 M24.1,26.7"/>
</svg>
