<?xml version="1.0" encoding="utf-8"?>
<!-- Generator: Adobe Illustrator 24.3.0, SVG Export Plug-In . SVG Version: 6.00 Build 0)  -->
<svg version="1.1" id="Ebene_1" xmlns="http://www.w3.org/2000/svg" xmlns:xlink="http://www.w3.org/1999/xlink" x="0px" y="0px"
	 viewBox="0 0 42.5 42.5" style="enable-background:new 0 0 42.5 42.5;" xml:space="preserve">
<style type="text/css">
	.st0{fill:#FFFFFF;}
</style>
<g>
	<path d="M27.2,20H15.8c-0.2,0-0.3,0-0.4,0.1c-0.1,0.1-0.1,0.2-0.1,0.4v1c0,0.2,0,0.3,0.1,0.4c0.1,0.1,0.2,0.1,0.4,0.1h11.5
		c0.2,0,0.3,0,0.4-0.1c0.1-0.1,0.1-0.2,0.1-0.4v-1c0-0.2,0-0.3-0.1-0.4C27.5,20,27.4,20,27.2,20z"/>
	<path d="M27.6,15.9c-0.1-0.1-0.2-0.1-0.4-0.1H15.8c-0.2,0-0.3,0-0.4,0.1c-0.1,0.1-0.1,0.2-0.1,0.4v1c0,0.2,0,0.3,0.1,0.4
		c0.1,0.1,0.2,0.1,0.4,0.1h11.5c0.2,0,0.3,0,0.4-0.1c0.1-0.1,0.1-0.2,0.1-0.4v-1C27.8,16.2,27.7,16,27.6,15.9z"/>
	<path d="M36.6,14.8c-0.3-0.3-0.7-0.5-1-0.6v2.4l0,0l0,0.1v0.6c0,0.7-0.2,1.1-0.8,2c-0.2,0.3-0.5,0.6-0.8,0.9v-8
		c0-0.4-0.1-0.9-0.3-1.4c-0.2-0.5-0.5-0.9-0.8-1.2l-5.1-5.1c-0.3-0.3-0.7-0.6-1.2-0.8c-0.5-0.2-1-0.3-1.4-0.3H10.5
		c-0.4,0-0.8,0.2-1.1,0.5C9.1,4,9,4.4,9,4.8v15.7c-1.2-1.2-2-2.5-2.1-4h0v-0.1c0,0,0,0,0,0c0,0,0,0,0,0v-2.3c-0.4,0.1-0.7,0.3-1,0.6
		C5.3,15.3,5,15.9,5,16.6v18c0,0.7,0.3,1.3,0.9,1.9c0.6,0.5,1.2,0.8,2,0.8h26.6c0.8,0,1.5-0.3,2-0.8c0.6-0.5,0.9-1.1,0.9-1.9v-18
		C37.5,15.9,37.2,15.3,36.6,14.8z M25.7,5.5c0.3,0.1,0.5,0.2,0.7,0.4l5.1,5.1c0.1,0.1,0.3,0.4,0.4,0.7h-6.1V5.5z M24.6,27.3
		c-0.3,0.3-0.6,0.5-0.8,0.6c-0.2,0.1-0.5,0.3-0.8,0.5S22.3,28.9,22,29c-0.3,0.1-0.5,0.2-0.8,0.2h0c-0.2,0-0.5-0.1-0.8-0.2
		c-0.3-0.1-0.6-0.3-0.9-0.5s-0.6-0.4-0.8-0.5c-0.2-0.1-0.5-0.4-0.8-0.6c-0.3-0.3-0.6-0.4-0.6-0.5c-2.1-1.6-4.2-3.1-6.2-4.6V5.4h12.5
		v6.8c0,0.4,0.2,0.8,0.5,1.1c0.3,0.3,0.7,0.5,1.1,0.5h6.8v8.1c-2.2,1.6-4.4,3.2-6.7,5C25.2,26.9,24.9,27,24.6,27.3z"/>
</g>
<g>
	<path class="st0" d="M15.3,31.9c0-0.2,0-0.3-0.1-0.4s-0.2-0.2-0.3-0.2c-0.2,0-0.3,0-0.3,0.1c-0.1,0.1-0.1,0.2-0.1,0.3
		c0,0.2,0.1,0.3,0.2,0.4c0.1,0.1,0.3,0.2,0.4,0.3c0.2,0.1,0.4,0.1,0.6,0.2c0.2,0.1,0.4,0.2,0.6,0.3s0.3,0.3,0.4,0.5
		c0.1,0.2,0.2,0.4,0.2,0.8c0,0.5-0.2,0.9-0.5,1.2c-0.3,0.2-0.8,0.4-1.5,0.4c-0.3,0-0.6,0-0.8-0.1c-0.2,0-0.4-0.1-0.6-0.2
		c-0.2-0.1-0.3-0.3-0.4-0.4C13,34.8,13,34.6,13,34.3v-0.2h1.4v0.1c0,0.2,0,0.4,0.1,0.5c0.1,0.1,0.2,0.1,0.3,0.1c0.1,0,0.3,0,0.3-0.1
		c0.1-0.1,0.1-0.2,0.1-0.4c0-0.2-0.1-0.3-0.2-0.4c-0.1-0.1-0.2-0.2-0.4-0.3s-0.3-0.1-0.5-0.2c-0.2-0.1-0.4-0.2-0.5-0.3
		c-0.2-0.1-0.3-0.3-0.4-0.5C13.1,32.6,13,32.3,13,32c0-0.5,0.1-0.9,0.4-1.2c0.3-0.3,0.8-0.4,1.4-0.4c0.6,0,1.1,0.1,1.4,0.4
		c0.3,0.3,0.4,0.7,0.4,1.2h-1.3V31.9z"/>
	<path class="st0" d="M19.4,30.5c0.3,0,0.5,0,0.7,0.1c0.2,0.1,0.4,0.2,0.5,0.3c0.1,0.1,0.2,0.3,0.3,0.5c0.1,0.2,0.1,0.4,0.1,0.6
		c0,0.5-0.2,0.9-0.5,1.2c-0.3,0.3-0.8,0.4-1.3,0.4h-0.5v2h-1.4v-5.1H19.4z M18.9,32.8c0.2,0,0.3-0.1,0.4-0.2
		c0.1-0.1,0.1-0.3,0.1-0.5c0-0.4-0.2-0.6-0.6-0.6h-0.3v1.3H18.9z"/>
	<path class="st0" d="M23.9,30.5l1.3,5.1h-1.5l-0.1-0.9h-1.1l-0.1,0.9h-1.5l1.3-5.1H23.9z M22.9,31.6l-0.4,2.2h0.8L22.9,31.6
		L22.9,31.6z"/>
	<path class="st0" d="M27.4,30.5l0.6,3h0l0.6-3h2.1v5.1h-1.3v-3.8h0l-0.8,3.8h-1l-0.8-3.8h0v3.8h-1.3v-5.1H27.4z"/>
</g>
</svg>
