<?xml version="1.0" encoding="utf-8"?>
<!-- Generator: Adobe Illustrator 21.1.0, SVG Export Plug-In . SVG Version: 6.00 Build 0)  -->
<svg version="1.1" id="Ebene_1" xmlns="http://www.w3.org/2000/svg" xmlns:xlink="http://www.w3.org/1999/xlink" x="0px" y="0px"
	 viewBox="0 0 42.5 42.5" style="enable-background:new 0 0 42.5 42.5;" xml:space="preserve">
<style type="text/css">
	.st0{fill:#FFFFFF;}
</style>
<path d="M40.5,30.7V17c-0.4,0.4-1.3,1.1-1.8,1.4c-3.4,2.4-6,4.3-8,5.8c-0.6,0.5-1.2,0.9-1.6,1.2s-0.9,0.6-1.6,0.8
	c-0.7,0.3-1.3,0.4-1.9,0.4h0c-0.6,0-1.2-0.1-1.9-0.4c-0.7-0.3-1.2-0.6-1.6-0.8c-0.4-0.3-0.9-0.7-1.6-1.2c-2-1.5-4.7-3.5-8-5.8
	c-0.5-0.3-1.4-1-1.8-1.4v13.7c0,0.1,0.1,0.3,0.2,0.4s0.3,0.2,0.4,0.2h28.7c0.2,0,0.3-0.1,0.4-0.2S40.5,30.8,40.5,30.7z M40.5,12.4
	v-0.6l0,0l-0.1-0.4l-0.1-0.2l-0.2-0.1l-0.3,0H11.3c-0.2,0-0.3,0.1-0.4,0.2s-0.2,0.2-0.2,0.4c0,2,1.4,3.8,3.2,5.2
	c2.4,1.8,4.9,3.6,7.5,5.6c0.1,0.1,0.3,0.2,0.7,0.5c0.4,0.3,0.7,0.5,0.9,0.7c0.2,0.2,0.5,0.3,0.8,0.6c0.3,0.2,0.7,0.4,1,0.5
	c0.3,0.1,0.6,0.2,0.8,0.2h0c0.3,0,0.5-0.1,0.8-0.2c0.3-0.1,0.6-0.3,1-0.5c0.3-0.2,0.6-0.4,0.8-0.6s0.5-0.4,0.9-0.7
	c0.4-0.3,0.6-0.5,0.7-0.5c2.6-1.9,5.1-3.8,7.5-5.6c0.7-0.5,1.8-1.5,2.4-2.3S40.5,13.1,40.5,12.4z M42.5,11.8v18.7
	c0,0.8-0.3,1.4-0.9,1.9c-0.6,0.5-1.3,0.8-2.1,0.8H11.8c-0.8,0-1.5-0.3-2.1-0.8c-0.6-0.5-0.9-1.2-0.9-1.9V11.8c0-0.8,0.3-1.4,0.9-1.9
	C10.2,9.3,10.9,9,11.8,9h27.7c0.8,0,1.5,0.3,2.1,0.8C42.2,10.3,42.5,11,42.5,11.8z"/>
<path d="M3.9,23.2L5.7,25C5.9,25.1,6,25.3,6,25.5s-0.1,0.4-0.2,0.5l-0.5,0.5c-0.2,0.2-0.3,0.2-0.5,0.2c-0.2,0-0.4-0.1-0.6-0.2
	l-3.9-3.9C0.1,22.4,0,22.2,0,22c0-0.2,0.1-0.4,0.2-0.6l3.9-3.9c0.2-0.1,0.3-0.2,0.6-0.2c0.2,0,0.4,0.1,0.5,0.2L5.7,18
	C5.9,18.1,6,18.3,6,18.5c0,0.2-0.1,0.4-0.2,0.6l-1.8,1.8"/>
<path class="st0" d="M5.8,23.2L7.6,25c0.2,0.1,0.2,0.3,0.2,0.5s-0.1,0.4-0.2,0.5l-0.5,0.5c-0.2,0.2-0.3,0.2-0.5,0.2
	c-0.2,0-0.4-0.1-0.6-0.2l-3.9-3.9C2,22.4,1.9,22.2,1.9,22c0-0.2,0.1-0.4,0.2-0.6l3.9-3.9c0.2-0.1,0.3-0.2,0.6-0.2
	c0.2,0,0.4,0.1,0.5,0.2L7.6,18c0.2,0.2,0.2,0.3,0.2,0.6c0,0.2-0.1,0.4-0.2,0.6l-1.8,1.8"/>
<path d="M6.2,23.9h2.2c0.4,0,0.8,0,1.2,0c0.4,0,0.7,0.1,1,0.1c0.3,0.1,0.6,0.2,0.9,0.3c0.3,0.1,0.5,0.3,0.7,0.5
	c0.2,0.2,0.4,0.4,0.5,0.7c0.1,0.3,0.3,0.6,0.3,0.9c0.1,0.4,0.1,0.8,0.1,1.2c0,0.2,0,0.5,0,0.8c0,0,0,0.1,0,0.2c0,0.1,0,0.1,0,0.2
	c0,0.1,0,0.1,0.1,0.2c0,0,0.1,0.1,0.2,0.1c0.1,0,0.1,0,0.2-0.1c0,0,0.1-0.1,0.1-0.1c0-0.1,0.1-0.1,0.1-0.2c0-0.1,0.1-0.1,0.1-0.2
	c0.6-1.3,0.9-2.3,0.9-3.1c0-0.9-0.1-1.7-0.4-2.3c-0.7-1.8-2.7-2.7-6-2.7H6.2 M2.7,21.8"/>
<path d="M6.5,23.2L8.3,25c0.2,0.1,0.2,0.3,0.2,0.5s-0.1,0.4-0.2,0.5l-0.5,0.5c-0.2,0.2-0.3,0.2-0.5,0.2c-0.2,0-0.4-0.1-0.6-0.2
	l-3.9-3.9c-0.1-0.1-0.2-0.3-0.2-0.5c0-0.2,0.1-0.4,0.2-0.6l3.9-3.9c0.2-0.1,0.3-0.2,0.6-0.2c0.2,0,0.4,0.1,0.5,0.2L8.3,18
	c0.2,0.2,0.2,0.3,0.2,0.6c0,0.2-0.1,0.4-0.2,0.6l-1.8,1.8"/>
</svg>
