<?xml version="1.0" encoding="utf-8"?>
<!-- Generator: Adobe Illustrator 21.1.0, SVG Export Plug-In . SVG Version: 6.00 Build 0)  -->
<svg version="1.1" id="Ebene_1" xmlns="http://www.w3.org/2000/svg" xmlns:xlink="http://www.w3.org/1999/xlink" x="0px" y="0px"
	 viewBox="0 0 42.5 42.5" style="enable-background:new 0 0 42.5 42.5;" xml:space="preserve">
<path d="M34.4,11.2c0.4,0.4,0.7,0.8,0.9,1.4c0.3,0.6,0.4,1.2,0.4,1.7v21.9c0,0.5-0.2,0.9-0.5,1.3S34.3,38,33.8,38H8.3
	c-0.5,0-0.9-0.2-1.3-0.5c-0.3-0.4-0.5-0.8-0.5-1.3V5.8c0-0.5,0.2-0.9,0.5-1.3C7.4,4.2,7.8,4,8.3,4h17c0.5,0,1.1,0.1,1.7,0.4
	s1.1,0.6,1.4,0.9L34.4,11.2z M25.9,6.6v7.1H33c-0.1-0.4-0.3-0.6-0.4-0.8L26.7,7C26.6,6.8,26.3,6.7,25.9,6.6z M33.2,35.6V16.2h-7.9
	c-0.5,0-0.9-0.2-1.3-0.5c-0.4-0.4-0.5-0.8-0.5-1.3v-8H8.9v29.2C8.9,35.6,33.2,35.6,33.2,35.6z M29.4,30.8c-0.1-0.1-0.1-0.3-0.2-0.6
	c-0.4,0.5-0.9,0.8-1.5,0.8c-0.7,0-1.2-0.2-1.7-0.7c-0.4-0.4-0.7-1-0.7-1.7c0-0.8,0.3-1.5,0.8-2s1.3-0.7,2.3-0.7H29v-0.6
	c0-0.4-0.1-0.6-0.2-0.8c-0.1-0.1-0.3-0.2-0.5-0.2c-0.5,0-0.8,0.3-0.8,0.9h-2c0-0.7,0.3-1.4,0.8-1.8c0.6-0.5,1.3-0.7,2.1-0.7
	c0.9,0,1.6,0.2,2.1,0.7s0.7,1.1,0.7,2V29c0,0.7,0.1,1.2,0.3,1.6v0.1L29.4,30.8L29.4,30.8z M27.3,29.3c0.2,0,0.4,0,0.6-0.1
	s0.3-0.2,0.4-0.3v-1.7h-0.5c-0.4,0-0.6,0.1-0.8,0.3c-0.2,0.2-0.3,0.5-0.3,0.9C26.6,29,26.8,29.3,27.3,29.3z M21,33.2H11V17.6h10
	V33.2z M18.1,30.6h2.3L17,19.8h-2l-3.4,10.8h2.3l0.6-2.2h3L18.1,30.6z M16,22.7l1,3.9h-2L16,22.7z M25.2,18.4v-0.8h-3.5v0.8H23v14.1
	h-1.3v0.8h3.5v-0.8h-1.3V18.4H25.2z"/>
</svg>
