<?xml version="1.0" encoding="utf-8"?>
<!-- Generator: Adobe Illustrator 21.1.0, SVG Export Plug-In . SVG Version: 6.00 Build 0)  -->
<svg version="1.1" id="Ebene_1" xmlns="http://www.w3.org/2000/svg" xmlns:xlink="http://www.w3.org/1999/xlink" x="0px" y="0px"
	 viewBox="0 0 42.5 42.5" style="enable-background:new 0 0 42.5 42.5;" xml:space="preserve">
<g>
	<path d="M20,29.2H7.9c-0.2,0-0.3,0.1-0.4,0.2c-0.1,0.1-0.2,0.3-0.2,0.4V31c0,0.2,0.1,0.3,0.2,0.4c0.1,0.1,0.2,0.2,0.4,0.2H20
		c0.2,0,0.3-0.1,0.4-0.2c0.1-0.1,0.2-0.3,0.2-0.4v-1.2c0-0.2-0.1-0.3-0.2-0.4C20.3,29.2,20.1,29.2,20,29.2z"/>
	<path d="M20,19.5H7.9c-0.2,0-0.3,0.1-0.4,0.2c-0.1,0.1-0.2,0.3-0.2,0.4v1.2c0,0.2,0.1,0.3,0.2,0.4c0.1,0.1,0.2,0.2,0.4,0.2H20
		c0.2,0,0.3-0.1,0.4-0.2c0.1-0.1,0.2-0.3,0.2-0.4v-1.2c0-0.2-0.1-0.3-0.2-0.4C20.3,19.5,20.1,19.5,20,19.5z"/>
	<path d="M20,24.3H7.9c-0.2,0-0.3,0.1-0.4,0.2c-0.1,0.1-0.2,0.3-0.2,0.4v1.2c0,0.2,0.1,0.3,0.2,0.4c0.1,0.1,0.2,0.2,0.4,0.2H20
		c0.2,0,0.3-0.1,0.4-0.2c0.1-0.1,0.2-0.3,0.2-0.4v-1.2c0-0.2-0.1-0.3-0.2-0.4C20.3,24.4,20.1,24.3,20,24.3z"/>
	<path d="M27.7,32.1v3.5H3.4V16.2h7.9c0.5,0,0.9-0.2,1.3-0.5s0.5-0.8,0.5-1.3V6.4h14.6v17.8l1.1,1l1.4-1.4V5.8
		c0-0.5-0.2-0.9-0.5-1.3S28.8,4,28.3,4h-17c-0.5,0-1.1,0.1-1.7,0.4C9.1,4.6,8.6,4.9,8.2,5.3l-5.9,5.9c-0.4,0.4-0.7,0.8-0.9,1.4
		C1.1,13.3,1,13.8,1,14.3v21.9c0,0.5,0.2,0.9,0.5,1.3C1.9,37.8,2.3,38,2.8,38h25.5c0.5,0,0.9-0.2,1.3-0.5c0.4-0.4,0.5-0.8,0.5-1.3
		v-4c-0.4,0.2-0.7,0.3-1.2,0.3C28.5,32.5,28.1,32.4,27.7,32.1z M4,12.9L9.9,7c0.2-0.2,0.4-0.3,0.8-0.4v7.1H3.6
		C3.7,13.4,3.8,13.1,4,12.9z"/>
	<path d="M39.7,20.6l-9.9,9.9c-0.2,0.2-0.5,0.3-0.8,0.3c-0.3,0-0.6-0.1-0.8-0.3l-4.7-4.7c-0.2-0.2-0.3-0.5-0.3-0.8
		c0-0.3,0.1-0.6,0.3-0.8l0.3-0.3c0.2-0.2,0.5-0.3,0.8-0.3c0.3,0,0.6,0.1,0.8,0.3l3.6,3.6l8.8-8.8c0.2-0.2,0.5-0.3,0.8-0.3
		c0.3,0,0.6,0.1,0.8,0.3l0.4,0.4c0.2,0.2,0.3,0.5,0.3,0.8C40,20.1,39.9,20.3,39.7,20.6z"/>
</g>
</svg>
