<?xml version="1.0" encoding="utf-8"?>
<!-- Generator: Adobe Illustrator 21.1.0, SVG Export Plug-In . SVG Version: 6.00 Build 0)  -->
<svg version="1.1" id="Ebene_1" xmlns="http://www.w3.org/2000/svg" xmlns:xlink="http://www.w3.org/1999/xlink" x="0px" y="0px"
	 viewBox="0 0 42.5 42.5" style="enable-background:new 0 0 42.5 42.5;" xml:space="preserve">
<path d="M17.5,10.8c-4,0-7.3,2.6-8.7,6.4H6.3c-0.7,0-1.1,0.5-1.1,1.1c0,0.7,0.5,1.1,1.1,1.1h2c-0.1,0.5-0.1,1-0.1,1.6
	c0,0.8,0.1,1.5,0.3,2.3H6.3c-0.7,0-1.1,0.5-1.1,1.1c0,0.7,0.5,1.1,1.1,1.1h2.9c1.6,3.4,4.7,5.7,8.3,5.7c3.4,0,6.6-2,8.2-5.2
	c0.5-0.7,0.2-1.4-0.5-1.6c-0.7-0.5-1.4-0.2-1.6,0.5c-1.1,2.7-3.6,4.3-6.1,4.3c-2.5,0-4.7-1.4-5.9-3.6h5.3c0.7,0,1.1-0.5,1.1-1.1
	c0-0.7-0.5-1.1-1.1-1.1h-6.1c-0.1-0.7-0.3-1.3-0.3-2c0-0.6,0.1-1.2,0.2-1.8h6.2c0.7,0,1.1-0.5,1.1-1.1c0-0.7-0.5-1.1-1.1-1.1h-5.4
	c1.2-2.3,3.5-3.9,6.1-3.9c2.5,0,5,1.6,6.1,4.3c0.5,0.5,0.9,0.7,1.6,0.5c0.5-0.5,0.7-0.9,0.5-1.6C24.1,12.8,20.9,10.8,17.5,10.8z
	 M42.3,17.1L41.4,18c-0.1,0.1-0.3,0.2-0.4,0.2c-0.2,0-0.3-0.1-0.5-0.2l-3.8-3.8L32.9,18c-0.1,0.1-0.3,0.2-0.5,0.2
	c-0.2,0-0.3-0.1-0.4-0.2L31,17.1c-0.1-0.1-0.2-0.3-0.2-0.4c0-0.2,0.1-0.3,0.2-0.5l3.8-3.8L31,8.5c-0.1-0.1-0.2-0.3-0.2-0.5
	s0.1-0.3,0.2-0.4L32,6.7c0.1-0.1,0.3-0.2,0.4-0.2c0.2,0,0.3,0.1,0.5,0.2l3.8,3.8l3.8-3.8c0.1-0.1,0.3-0.2,0.5-0.2
	c0.2,0,0.3,0.1,0.4,0.2l0.9,0.9c0.1,0.1,0.2,0.3,0.2,0.4s-0.1,0.3-0.2,0.5l-3.8,3.8l3.8,3.8c0.1,0.1,0.2,0.3,0.2,0.5
	C42.5,16.8,42.5,16.9,42.3,17.1z M33.9,19.3C34,19.8,34,20.4,34,21c0,3.1-0.8,5.9-2.3,8.5s-3.6,4.7-6.2,6.2C22.9,37.2,20.1,38,17,38
	c-3.1,0-5.9-0.8-8.5-2.3c-2.6-1.5-4.7-3.6-6.2-6.2S0,24.1,0,21c0-3.1,0.8-5.9,2.3-8.5c1.5-2.6,3.6-4.7,6.2-6.2C11.1,4.8,13.9,4,17,4
	c3.1,0,5.9,0.8,8.5,2.3C28,7.7,30,9.6,31.4,12l-1.8,1.7c0,0,0,0,0-0.1c-1.3-2.2-3.1-4-5.3-5.3c-2.2-1.3-4.7-2-7.3-2
	c-2.6,0-5.1,0.7-7.3,2c-2.2,1.3-4,3.1-5.3,5.3c-1.3,2.2-2,4.7-2,7.3s0.7,5.1,2,7.3c1.3,2.2,3.1,4,5.3,5.3c2.2,1.3,4.7,2,7.3,2
	c2.6,0,5.1-0.7,7.3-2c2.2-1.3,4-3.1,5.3-5.3c1.2-2,1.8-4.2,1.9-6.6L33.9,19.3z"/>
</svg>
