<?xml version="1.0" encoding="utf-8"?>
<!-- Generator: Adobe Illustrator 21.1.0, SVG Export Plug-In . SVG Version: 6.00 Build 0)  -->
<svg version="1.1" id="Ebene_1" xmlns="http://www.w3.org/2000/svg" xmlns:xlink="http://www.w3.org/1999/xlink" x="0px" y="0px"
	 viewBox="0 0 42.5 42.5" style="enable-background:new 0 0 42.5 42.5;" xml:space="preserve">
<path d="M13.1,33h16.5v-4.7H13.1V33z M13.1,21.2h16.5v-7.1h-3c-0.5,0-0.9-0.2-1.3-0.5s-0.5-0.8-0.5-1.3v-3H13.1V21.2z M34.3,22.3
	c0-0.3-0.1-0.6-0.4-0.8c-0.2-0.2-0.5-0.4-0.8-0.4c-0.3,0-0.6,0.1-0.8,0.4C32.1,21.7,32,22,32,22.3s0.1,0.6,0.4,0.8
	c0.2,0.2,0.5,0.4,0.8,0.4c0.3,0,0.6-0.1,0.8-0.4C34.2,22.9,34.3,22.7,34.3,22.3z M36.7,22.3V30c0,0.2-0.1,0.3-0.2,0.4
	c-0.1,0.1-0.3,0.2-0.4,0.2H32v3c0,0.5-0.2,0.9-0.5,1.3s-0.8,0.5-1.3,0.5H12.5c-0.5,0-0.9-0.2-1.3-0.5s-0.5-0.8-0.5-1.3v-3H6.6
	c-0.2,0-0.3-0.1-0.4-0.2S6,30.2,6,30v-7.7c0-1,0.3-1.8,1-2.5s1.5-1,2.5-1h1.2v-10c0-0.5,0.2-0.9,0.5-1.3C11.6,7.2,12,7,12.5,7h12.4
	c0.5,0,1,0.1,1.6,0.4c0.6,0.2,1.1,0.5,1.4,0.9l2.8,2.8c0.3,0.3,0.6,0.8,0.9,1.4c0.2,0.6,0.4,1.1,0.4,1.6v4.7h1.2c1,0,1.8,0.3,2.5,1
	S36.7,21.4,36.7,22.3z"/>
</svg>
