<?xml version="1.0" encoding="utf-8"?>
<svg version="1.1" id="Ebene_1" x="0px" y="0px" viewBox="0 0 42.5 42.5" style="enable-background:new 0 0 42.5 42.5;" xmlns="http://www.w3.org/2000/svg">
  <path id="Pfeil_links_1_" d="M 35.5 21.2 C 35.5 21 35.4 20.7 35.2 20.5 L 22 7.3 C 21.8 7.1 21.6 7 21.4 7 C 21.2 7 20.9 7.1 20.7 7.3 L 19.3 8.7 C 19.1 8.9 19 9.1 19 9.4 C 19 9.6 19.1 9.9 19.3 10.1 L 30.5 21.3 L 19.3 32.3 C 19.1 32.5 19 32.7 19 33 C 19 33.2 19.1 33.5 19.3 33.7 L 20.7 35.1 C 20.9 35.3 21.1 35.4 21.4 35.4 C 21.7 35.4 21.9 35.3 22.1 35.1 L 35.3 21.9 C 35.4 21.6 35.5 21.4 35.5 21.2 Z"/>
  <path id="path-1" d="M 23.608 21.038 C 23.608 20.838 23.508 20.538 23.308 20.338 L 10.108 7.138 C 9.908 6.938 9.708 6.838 9.508 6.838 C 9.308 6.838 9.008 6.938 8.808 7.138 L 7.408 8.538 C 7.208 8.738 7.108 8.938 7.108 9.238 C 7.108 9.438 7.208 9.738 7.408 9.938 L 18.608 21.138 L 7.408 32.138 C 7.208 32.338 7.108 32.538 7.108 32.838 C 7.108 33.038 7.208 33.338 7.408 33.538 L 8.808 34.938 C 9.008 35.138 9.208 35.238 9.508 35.238 C 9.808 35.238 10.008 35.138 10.208 34.938 L 23.408 21.738 C 23.508 21.438 23.608 21.238 23.608 21.038 Z"/>
</svg>