<?xml version="1.0" encoding="utf-8"?>
<!-- Generator: Adobe Illustrator 21.1.0, SVG Export Plug-In . SVG Version: 6.00 Build 0)  -->
<svg version="1.1" id="Ebene_1" xmlns="http://www.w3.org/2000/svg" xmlns:xlink="http://www.w3.org/1999/xlink" x="0px" y="0px"
	 viewBox="0 0 42.5 42.5" style="enable-background:new 0 0 42.5 42.5;" xml:space="preserve">
<path d="M34.7,11.2c0.4,0.4,0.7,0.8,0.9,1.4c0.3,0.6,0.4,1.2,0.4,1.7v21.9c0,0.5-0.2,0.9-0.5,1.3S34.6,38,34.1,38H8.6
	c-0.5,0-0.9-0.2-1.3-0.5s-0.5-0.8-0.5-1.3V5.8c0-0.5,0.2-0.9,0.5-1.3C7.7,4.2,8.1,4,8.6,4h17c0.5,0,1.1,0.1,1.7,0.4
	c0.6,0.3,1.1,0.6,1.4,0.9L34.7,11.2z M26.2,6.6v7.1h7.1c-0.1-0.4-0.3-0.6-0.4-0.8L27,7C26.9,6.8,26.6,6.7,26.2,6.6z M33.5,35.6V16.2
	h-7.9c-0.5,0-0.9-0.2-1.3-0.5c-0.4-0.4-0.5-0.8-0.5-1.3V6.4H9.2v29.2H33.5z M13.8,22.5v-3.9h4V19c0,0.4,0.6,0.8,1.3,0.8h4.8
	c0.7,0,1.3-0.4,1.3-0.8v-0.3h4v3.9H13.8z M25.1,29.7V30c0,0.4-0.6,0.8-1.3,0.8h-4.8c-0.7,0-1.3-0.4-1.3-0.8v-0.3h-4v3.9h15.3v-3.9
	H25.1z M25.1,24.2v0.3c0,0.4-0.6,0.8-1.3,0.8h-4.8c-0.7,0-1.3-0.4-1.3-0.8v-0.3h-4V28h15.3v-3.8H25.1z"/>
</svg>
