<?xml version="1.0" encoding="utf-8"?>
<!-- Generator: Adobe Illustrator 21.1.0, SVG Export Plug-In . SVG Version: 6.00 Build 0)  -->
<svg version="1.1" id="Ebene_1" xmlns="http://www.w3.org/2000/svg" xmlns:xlink="http://www.w3.org/1999/xlink" x="0px" y="0px"
	 viewBox="0 0 42.5 42.5" style="enable-background:new 0 0 42.5 42.5;" xml:space="preserve">
<style type="text/css">
	.st0{clip-path:url(#SVGID_1_);}
</style>
<g>
	<g>
		<defs>
			<rect id="SVGID_3_" x="8" y="4" width="26.6" height="33.8"/>
		</defs>
		<clipPath id="SVGID_1_">
			<use xlink:href="#SVGID_3_"  style="overflow:visible;"/>
		</clipPath>
		<path class="st0" d="M34.2,15.9l-2.6-2.6l0.5-3.6c0.1-0.6-0.3-1.1-0.9-1.2l-3.6-0.6l-1.7-3.3c-0.3-0.5-0.9-0.7-1.4-0.4l-3.3,1.6
			l-3.3-1.6c-0.5-0.2-1.1,0-1.4,0.4l-1.7,3.3l-3.6,0.6c-0.6,0.1-0.9,0.6-0.9,1.2l0.5,3.6l-2.6,2.6c-0.4,0.4-0.4,1,0,1.5l2.6,2.6
			l-0.5,3.6c-0.1,0.6,0.3,1.1,0.9,1.2l2.9,0.5v11.3c0,0.4,0.2,0.7,0.5,0.9c0.2,0.1,0.4,0.2,0.5,0.2c0.2,0,0.3,0,0.5-0.1l5.6-2.8
			l5.6,2.8c0.3,0.2,0.7,0.1,1,0c0.3-0.2,0.5-0.5,0.5-0.9V25.3l2.9-0.5c0.6-0.1,0.9-0.6,0.9-1.2L31.6,20l2.6-2.6
			C34.6,17,34.6,16.3,34.2,15.9L34.2,15.9z M21.7,32.7c-0.3-0.1-0.6-0.1-0.9,0L16.2,35V28l0.4,0.7c0.3,0.5,0.9,0.7,1.4,0.4l3.3-1.6
			l3.3,1.6c0.1,0.1,0.3,0.1,0.5,0.1c0.4,0,0.7-0.2,0.9-0.6l0.4-0.7V35L21.7,32.7z M29.8,18.9c-0.2,0.2-0.3,0.6-0.3,0.9l0.4,3.2
			l-3.1,0.5c-0.3,0.1-0.6,0.3-0.7,0.5l-1.5,2.8l-2.9-1.4c-0.1-0.1-0.3-0.1-0.5-0.1c-0.2,0-0.3,0-0.5,0.1l-2.9,1.4L16.4,24
			c-0.2-0.3-0.4-0.5-0.7-0.5L12.5,23l0.4-3.2c0-0.3-0.1-0.6-0.3-0.9l-2.2-2.3l2.2-2.3c0.2-0.2,0.3-0.6,0.3-0.9l-0.4-3.2l3.1-0.5
			c0.3-0.1,0.6-0.3,0.7-0.5l1.5-2.8l2.9,1.4c0.3,0.1,0.6,0.1,0.9,0l2.9-1.4l1.5,2.8c0.2,0.3,0.4,0.5,0.7,0.5l3.1,0.5l-0.4,3.2
			c0,0.3,0.1,0.6,0.3,0.9l2.2,2.3L29.8,18.9z M29.8,18.9"/>
	</g>
	<path d="M21.2,9.5c-3.9,0-7.1,3.2-7.1,7.1c0,3.9,3.2,7.1,7.1,7.1c3.9,0,7.1-3.2,7.1-7.1C28.4,12.7,25.2,9.5,21.2,9.5L21.2,9.5z
		 M21.2,21.7c-2.8,0-5.1-2.3-5.1-5.1c0-2.8,2.3-5.1,5.1-5.1c2.8,0,5.1,2.3,5.1,5.1C26.3,19.4,24,21.7,21.2,21.7L21.2,21.7z
		 M21.2,21.7"/>
	<path d="M23.4,14"/>
</g>
</svg>
