<?xml version="1.0" encoding="utf-8"?>
<!-- Generator: Adobe Illustrator 23.0.3, SVG Export Plug-In . SVG Version: 6.00 Build 0)  -->
<svg version="1.1" id="Ebene_1" xmlns="http://www.w3.org/2000/svg" xmlns:xlink="http://www.w3.org/1999/xlink" x="0px" y="0px"
	 viewBox="0 0 42.52 42.52" style="enable-background:new 0 0 42.52 42.52;" xml:space="preserve">
<style type="text/css">
	.st0{fill:#020203;}
</style>
<path class="st0" d="M35.84,7.38c0.19,0.19,0.28,0.41,0.28,0.66v6.75c-0.01,0.26-0.1,0.48-0.28,0.66c-0.18,0.18-0.4,0.27-0.66,0.27
	h-0.78c-0.26,0-0.49-0.09-0.67-0.27c-0.18-0.18-0.27-0.41-0.27-0.67v-3.04l-6.66,6.66c-0.18,0.18-0.39,0.26-0.63,0.24
	c-0.24-0.02-0.45-0.12-0.64-0.3l-0.66-0.66c-0.18-0.18-0.28-0.4-0.3-0.64c-0.02-0.24,0.06-0.45,0.24-0.63l6.66-6.66l-3.04-0.01
	c-0.26,0.01-0.48-0.08-0.66-0.27c-0.19-0.19-0.28-0.41-0.27-0.66V8.04c0-0.26,0.09-0.48,0.27-0.66c0.18-0.18,0.41-0.27,0.67-0.27
	h6.75C35.43,7.1,35.65,7.19,35.84,7.38z"/>
<path id="Icon_Zeiterfassung_1_" class="st0" d="M27.5,24.63c0-1.6-0.39-3.07-1.18-4.42c-0.79-1.35-1.86-2.42-3.21-3.21
	c-1.35-0.79-2.83-1.18-4.42-1.18c-1.6,0-3.07,0.39-4.42,1.18s-2.42,1.86-3.21,3.21c-0.79,1.35-1.18,2.83-1.18,4.42
	c0,1.6,0.39,3.07,1.18,4.42c0.79,1.35,1.86,2.42,3.21,3.21c1.35,0.79,2.83,1.18,4.42,1.18c1.6,0,3.07-0.39,4.42-1.18
	c1.35-0.79,2.42-1.86,3.21-3.21C27.1,27.71,27.5,26.23,27.5,24.63z M29.95,24.63c0,2.04-0.5,3.93-1.51,5.66s-2.37,3.09-4.1,4.1
	c-1.73,1.01-3.61,1.51-5.66,1.51s-3.93-0.5-5.66-1.51c-1.73-1.01-3.09-2.37-4.1-4.1s-1.51-3.61-1.51-5.66s0.5-3.93,1.51-5.66
	s2.37-3.09,4.1-4.1s3.61-1.51,5.66-1.51s3.93,0.5,5.66,1.51c1.73,1.01,3.09,2.37,4.1,4.1S29.95,22.59,29.95,24.63z"/>
</svg>
