<?xml version="1.0" encoding="utf-8"?>
<!-- Generator: Adobe Illustrator 21.1.0, SVG Export Plug-In . SVG Version: 6.00 Build 0)  -->
<svg version="1.1" id="Ebene_1" xmlns="http://www.w3.org/2000/svg" xmlns:xlink="http://www.w3.org/1999/xlink" x="0px" y="0px"
	 viewBox="0 0 42.5 42.5" style="enable-background:new 0 0 42.5 42.5;" xml:space="preserve">
<path d="M35.6,21c0-2.6-0.7-5.1-2-7.3s-3.1-4-5.3-5.3s-4.7-2-7.3-2s-5.1,0.7-7.3,2s-4,3.1-5.3,5.3s-2,4.7-2,7.3s0.7,5.1,2,7.3
	s3.1,4,5.3,5.3s4.7,2,7.3,2s5.1-0.7,7.3-2s4-3.1,5.3-5.3S35.6,23.6,35.6,21z M38,21c0,3.1-0.8,5.9-2.3,8.5c-1.5,2.6-3.6,4.7-6.2,6.2
	C26.9,37.2,24.1,38,21,38c-3.1,0-5.9-0.8-8.5-2.3c-2.6-1.5-4.7-3.6-6.2-6.2S4,24.1,4,21c0-3.1,0.8-5.9,2.3-8.5s3.6-4.7,6.2-6.2
	S17.9,4,21,4c3.1,0,5.9,0.8,8.5,2.3s4.7,3.6,6.2,6.2C37.2,15.1,38,17.9,38,21z M21.7,30.8h-1.4c-0.2,0-0.4-0.1-0.5-0.2
	c-0.1-0.1-0.2-0.3-0.2-0.5v-7.7h-7.7c-0.2,0-0.4-0.1-0.5-0.2c-0.1-0.1-0.2-0.3-0.2-0.5v-1.4c0-0.2,0.1-0.4,0.2-0.5
	c0.1-0.1,0.3-0.2,0.5-0.2h7.7v-7.7c0-0.2,0.1-0.4,0.2-0.5c0.1-0.1,0.3-0.2,0.5-0.2h1.4c0.2,0,0.4,0.1,0.5,0.2
	c0.1,0.1,0.2,0.3,0.2,0.5v7.7h7.7c0.2,0,0.4,0.1,0.5,0.2c0.1,0.1,0.2,0.3,0.2,0.5v1.4c0,0.2-0.1,0.4-0.2,0.5s-0.3,0.2-0.5,0.2h-7.7
	v7.7c0,0.2-0.1,0.4-0.2,0.5S21.9,30.8,21.7,30.8z"/>
</svg>
