<?xml version="1.0" encoding="utf-8"?>
<!-- Generator: Adobe Illustrator 21.1.0, SVG Export Plug-In . SVG Version: 6.00 Build 0)  -->
<svg version="1.1" id="Ebene_1" xmlns="http://www.w3.org/2000/svg" xmlns:xlink="http://www.w3.org/1999/xlink" x="0px" y="0px"
	 viewBox="0 0 42.5 42.5" style="enable-background:new 0 0 42.5 42.5;" xml:space="preserve">
<path d="M31.1,16.5h-2.4V11c0-3.9-3.2-7-7.2-7s-7.2,3.1-7.2,7v5.5H12c-2.2,0-4,1.8-4,4V34c0,2.2,1.8,4,4,4h19.1c2.2,0,4-1.8,4-4
	V20.5C35.1,18.3,33.3,16.5,31.1,16.5z M17,11c0-2.4,2-4.4,4.5-4.4S26,8.6,26,11v5.5h-9V11L17,11z M32.4,34c0,0.7-0.6,1.3-1.3,1.3H12
	c-0.7,0-1.3-0.6-1.3-1.3V20.5c0-0.7,0.6-1.3,1.3-1.3h19.1c0.7,0,1.3,0.6,1.3,1.3V34z"/>
<path d="M21.5,23L21.5,23c-1.4,0-2.5,1.1-2.5,2.5l0,0c0,0.9,0.4,1.6,1.1,2.1v2.9c0,0.7,0.6,1.3,1.3,1.3c0.7,0,1.3-0.6,1.3-1.3v-2.9
	c0.7-0.4,1.1-1.2,1.1-2.1l0,0C24,24.1,22.9,23,21.5,23z"/>
</svg>
