<?xml version="1.0" encoding="utf-8"?>
<!-- Generator: Adobe Illustrator 23.0.1, SVG Export Plug-In . SVG Version: 6.00 Build 0)  -->
<svg version="1.1" id="Ebene_1" xmlns="http://www.w3.org/2000/svg" xmlns:xlink="http://www.w3.org/1999/xlink" x="0px" y="0px"
	 viewBox="0 0 42.52 42.52" style="enable-background:new 0 0 42.52 42.52;" xml:space="preserve">
<g>
	<path d="M10.41,33.67h4.03c0.05,0.35,0.35,0.63,0.71,0.63h9.15c0.37,0,0.66-0.27,0.71-0.63h4.03c0.68,0,1.23-0.55,1.23-1.23H9.18
		C9.18,33.11,9.73,33.67,10.41,33.67L10.41,33.67z M10.41,33.67"/>
	<path d="M35.14,20.99c-1.03-0.83-2.47-0.85-3.42-0.74c0.03-0.66,0.04-1.34,0.04-2.05H6.65c0,6.79,1.03,12.36,7.53,14.19h10.05
		c2.57-0.72,4.28-2.62,5.41-4.23c2.47-0.05,6.43-1.02,6.58-4.43C36.29,22.25,35.67,21.43,35.14,20.99L35.14,20.99z M30.68,26.22
		c0.44-1.12,0.7-2.39,0.84-3.78c0.62-0.11,1.68-0.17,2.22,0.27c0.1,0.08,0.41,0.33,0.37,1.14C34.04,25.49,32.01,26.03,30.68,26.22
		L30.68,26.22z M30.68,26.22"/>
	<path d="M17.96,17.26c0,0,4.78-0.35,2.59-4.38c-1.75-3.23-1.35-5.13,0.89-6.85c0,0-7.37,1.88-3.07,7.69
		C19.95,16.25,17.96,17.26,17.96,17.26L17.96,17.26z M16.88,17.26"/>
	<path d="M21.18,16.93c0,0,3.83-0.81,1.75-3.89c-0.75-1.33,0.29-1.81,0.29-1.81s-2.47,0.08-1.43,2.19
		C22.62,15.13,22.37,16.1,21.18,16.93L21.18,16.93z M21.18,16.93"/>
	<path d="M15.14,16.93c0,0,3.45-0.57,1.75-2.95c-0.73-1.02-0.71-2.38-0.71-2.38s-1.47,1.06-0.43,2.66
		C16.58,15.57,16.33,16.3,15.14,16.93L15.14,16.93z"/>
</g>
</svg>
