<?xml version="1.0" encoding="utf-8"?>
<!-- Generator: Adobe Illustrator 21.1.0, SVG Export Plug-In . SVG Version: 6.00 Build 0)  -->
<svg version="1.1" id="Ebene_1" xmlns="http://www.w3.org/2000/svg" xmlns:xlink="http://www.w3.org/1999/xlink" x="0px" y="0px"
	 viewBox="0 0 42.5 42.5" style="enable-background:new 0 0 42.5 42.5;" xml:space="preserve">
<style type="text/css">
	.st0{clip-path:url(#SVGID_2_);}
</style>
<g>
	<g>
		<defs>
			<rect id="SVGID_1_" x="1" y="7" width="40.7" height="29.3"/>
		</defs>
		<clipPath id="SVGID_2_">
			<use xlink:href="#SVGID_1_"  style="overflow:visible;"/>
		</clipPath>
		<path class="st0" d="M37.5,12.4c0,0-2.2-1.9-4.1-0.9c-1.5,0.8-10.7,5.5-14.9,7.6l-5.8-3.3c0.6-1.1,0.7-2.4,0.4-3.7
			c-0.4-1.6-1.6-3.1-3.3-4.1c-3-1.7-6.7-1.1-8.1,1.5c-0.6,1.1-0.8,2.4-0.4,3.7c0.4,1.6,1.6,3.1,3.3,4.1c0.7,0.4,1.5,0.7,2.3,0.8
			c0,0,0,0,0,0c0.1,0,0.1,0,0.2,0c4.8,0.7,7.3,2.1,8.5,3c-1.2,1-3.7,2.3-8.5,3c-0.1,0-0.1,0-0.2,0c0,0,0,0,0,0
			C6,24.3,5.2,24.6,4.5,25c-1.7,1-2.8,2.5-3.3,4.1c-0.3,1.3-0.2,2.6,0.4,3.7c1.5,2.6,5.1,3.2,8.1,1.5c1.7-1,2.8-2.5,3.3-4.1
			c0.3-1.3,0.2-2.6-0.4-3.7l5.8-3.3c4.1,2.1,13.4,6.7,14.9,7.6c1.9,1.1,4.1-0.9,4.1-0.9l-15.4-8.8L37.5,12.4z M10.1,14.3
			c-0.7,1.2-2.6,1.3-4.2,0.4c-1-0.5-1.7-1.4-1.9-2.3c-0.1-0.4-0.2-1,0.1-1.5c0.7-1.2,2.6-1.3,4.2-0.4c1,0.6,1.7,1.4,1.9,2.3
			C10.4,13.2,10.4,13.8,10.1,14.3L10.1,14.3z M10.3,29.5c-0.3,0.9-1,1.8-1.9,2.3c-1.6,0.9-3.6,0.7-4.2-0.4c-0.3-0.5-0.2-1.1-0.1-1.5
			c0.2-0.9,1-1.8,1.9-2.3c1.6-0.9,3.6-0.7,4.2,0.4C10.4,28.5,10.4,29.1,10.3,29.5L10.3,29.5z M10.3,29.5"/>
	</g>
</g>
</svg>
