<?xml version="1.0" encoding="utf-8"?>
<!-- Generator: Adobe Illustrator 21.1.0, SVG Export Plug-In . SVG Version: 6.00 Build 0)  -->
<svg version="1.1" id="Ebene_1" xmlns="http://www.w3.org/2000/svg" xmlns:xlink="http://www.w3.org/1999/xlink" x="0px" y="0px"
	 viewBox="0 0 42.5 42.5" style="enable-background:new 0 0 42.5 42.5;" xml:space="preserve">
<path d="M39.6,7.9c-0.3-0.3-0.7-0.5-1.2-0.5h-9.9V5.6c0-0.5-0.2-0.8-0.5-1.2S27.4,4,27,4H11.6c-0.5,0-1,0.1-1.5,0.3
	c-0.5,0.2-1,0.5-1.3,0.8l-5.3,5.3c-0.3,0.3-0.6,0.8-0.8,1.3c-0.2,0.5-0.3,1-0.3,1.5V33c0,0.5,0.2,0.8,0.5,1.2s0.7,0.5,1.2,0.5h9.9
	v1.7c0,0.5,0.2,0.8,0.5,1.2S15,38,15.5,38h23c0.5,0,0.8-0.2,1.2-0.5s0.5-0.7,0.5-1.2V9C40.1,8.6,39.9,8.2,39.6,7.9z M5,12.1l5.4-5.4
	c0.1-0.1,0.4-0.3,0.7-0.4v6.4H4.6C4.8,12.4,4.9,12.2,5,12.1z M15,13.9c-0.3,0.3-0.6,0.8-0.8,1.3c-0.2,0.5-0.3,1-0.3,1.5v15.8H4.5V15
	h7.1c0.5,0,0.8-0.2,1.2-0.5s0.5-0.7,0.5-1.2V6.2h13.1v1.2h-3.3c-0.5,0-1,0.1-1.5,0.3c-0.5,0.2-1,0.5-1.3,0.8L15,13.9z M22.6,9.7v6.4
	h-6.4c0.1-0.3,0.2-0.6,0.4-0.7l5.4-5.4C22.1,9.9,22.3,9.8,22.6,9.7z M38,35.8H16V18.3h7.1c0.5,0,0.8-0.2,1.2-0.5s0.5-0.7,0.5-1.2
	V9.5H38V35.8z"/>
<path d="M26.4,20.7c0.1-0.1,0.3-0.2,0.4-0.2h1.2c0.2,0,0.3,0.1,0.4,0.2s0.2,0.3,0.2,0.4v4.3h4.3c0.2,0,0.3,0.1,0.4,0.2
	s0.2,0.3,0.2,0.4v1.2c0,0.2-0.1,0.3-0.2,0.4s-0.3,0.2-0.4,0.2h-4.3V32c0,0.2-0.1,0.3-0.2,0.4s-0.3,0.2-0.4,0.2h-1.2
	c-0.2,0-0.3-0.1-0.4-0.2s-0.2-0.3-0.2-0.4v-4.3H22c-0.2,0-0.3-0.1-0.4-0.2s-0.2-0.3-0.2-0.4V26c0-0.2,0.1-0.3,0.2-0.4
	s0.3-0.2,0.4-0.2h4.3v-4.3C26.3,20.9,26.3,20.8,26.4,20.7z"/>
</svg>
