<?xml version="1.0" encoding="utf-8"?>
<!-- Generator: Adobe Illustrator 23.0.3, SVG Export Plug-In . SVG Version: 6.00 Build 0)  -->
<svg version="1.1" id="Ebene_1" xmlns="http://www.w3.org/2000/svg" xmlns:xlink="http://www.w3.org/1999/xlink" x="0px" y="0px"
	 viewBox="0 0 42.52 42.52" style="enable-background:new 0 0 42.52 42.52;" xml:space="preserve">
<style type="text/css">
	.st0{fill:#020203;}
</style>
<path class="st0" d="M35.84,1.38c0.19,0.19,0.28,0.41,0.28,0.66v6.75c-0.01,0.26-0.1,0.48-0.28,0.66c-0.18,0.18-0.4,0.27-0.66,0.27
	h-0.78c-0.26,0-0.49-0.09-0.67-0.27c-0.18-0.18-0.27-0.41-0.27-0.67V5.75l-6.66,6.66c-0.18,0.18-0.39,0.26-0.63,0.24
	c-0.24-0.02-0.45-0.12-0.64-0.3l-0.66-0.66c-0.18-0.18-0.28-0.4-0.3-0.64c-0.02-0.24,0.06-0.45,0.24-0.63l6.66-6.66l-3.04-0.01
	c-0.26,0.01-0.48-0.08-0.66-0.27c-0.19-0.19-0.28-0.41-0.27-0.66V2.04c0-0.26,0.09-0.48,0.27-0.66c0.18-0.18,0.41-0.27,0.67-0.27
	h6.75C35.43,1.1,35.65,1.19,35.84,1.38z"/>
<path id="Icon_Zeiterfassung_15_" class="st0" d="M27.5,18.63c0-1.6-0.39-3.07-1.18-4.42S24.45,11.79,23.1,11
	c-1.35-0.79-2.83-1.18-4.42-1.18c-1.6,0-3.07,0.39-4.42,1.18s-2.42,1.86-3.21,3.21s-1.18,2.83-1.18,4.42c0,1.6,0.39,3.07,1.18,4.42
	c0.79,1.35,1.86,2.42,3.21,3.21c1.35,0.79,2.83,1.18,4.42,1.18c1.6,0,3.07-0.39,4.42-1.18c1.35-0.79,2.42-1.86,3.21-3.21
	C27.1,21.71,27.5,20.23,27.5,18.63z M29.95,18.63c0,2.04-0.5,3.93-1.51,5.66c-1.01,1.73-2.37,3.09-4.1,4.1
	c-1.73,1.01-3.61,1.51-5.66,1.51s-3.93-0.5-5.66-1.51s-3.09-2.37-4.1-4.1c-1.01-1.73-1.51-3.61-1.51-5.66s0.5-3.93,1.51-5.66
	s2.37-3.09,4.1-4.1s3.61-1.51,5.66-1.51s3.93,0.5,5.66,1.51c1.73,1.01,3.09,2.37,4.1,4.1S29.95,16.59,29.95,18.63z"/>
<path class="st0" d="M19.54,41.32h-1.4c-0.2,0-0.37-0.07-0.5-0.2c-0.13-0.13-0.2-0.3-0.2-0.5v-3.51h-4.41c-0.2,0-0.37-0.07-0.5-0.2
	c-0.13-0.13-0.2-0.3-0.2-0.5v-1.4c0-0.2,0.07-0.37,0.2-0.5c0.13-0.13,0.3-0.2,0.5-0.2h4.41v-5.94c0-0.2,0.07-0.37,0.2-0.5
	c0.13-0.13,0.3-0.2,0.5-0.2h1.4c0.2,0,0.37,0.07,0.5,0.2c0.13,0.13,0.2,0.3,0.2,0.5v5.94h4.11c0.2,0,0.37,0.07,0.5,0.2
	c0.13,0.13,0.2,0.3,0.2,0.5v1.4c0,0.2-0.07,0.37-0.2,0.5c-0.13,0.13-0.3,0.2-0.5,0.2h-4.11v3.51c0,0.2-0.07,0.37-0.2,0.5
	C19.91,41.26,19.74,41.32,19.54,41.32z"/>
</svg>
