<?xml version="1.0" encoding="utf-8"?>
<!-- Generator: Adobe Illustrator 21.1.0, SVG Export Plug-In . SVG Version: 6.00 Build 0)  -->
<svg version="1.1" id="Ebene_1" xmlns="http://www.w3.org/2000/svg" xmlns:xlink="http://www.w3.org/1999/xlink" x="0px" y="0px"
	 viewBox="0 0 42.5 42.5" style="enable-background:new 0 0 42.5 42.5;" xml:space="preserve">
<style type="text/css">
	.st0{fill:#050505;}
</style>
<g>
	<g>
		<path class="st0" d="M40.6,23.4V23c0-6.6-5.3-11.9-11.9-11.9H11.7v-3c0-0.9-1-1.4-1.7-0.9l-8.5,5.9c-0.6,0.4-0.6,1.4,0,1.8
			l8.5,5.9c0.7,0.5,1.7,0,1.7-0.9V17h16.9c3.3,0,6,2.7,6,6v0.4c0,3.3-2.7,6-6,6l-26.3,0c-0.7,0-1.2,0.6-1.2,1.3c0,1.1,0,2.6,0,3.6
			c0,0.6,0.5,1.1,1.1,1.1h26.4C35.2,35.3,40.6,30,40.6,23.4L40.6,23.4z M40.6,23.4"/>
	</g>
</g>
</svg>
