<?xml version="1.0" encoding="utf-8"?>
<!-- Generator: Adobe Illustrator 21.1.0, SVG Export Plug-In . SVG Version: 6.00 Build 0)  -->
<svg version="1.1" id="Ebene_1" xmlns="http://www.w3.org/2000/svg" xmlns:xlink="http://www.w3.org/1999/xlink" x="0px" y="0px"
	 viewBox="0 0 42.5 42.5" style="enable-background:new 0 0 42.5 42.5;" xml:space="preserve">
<path d="M35.5,12.8c-0.3-0.6-0.6-1.1-0.9-1.4l-5.9-5.9c-0.4-0.4-0.8-0.7-1.4-0.9c-0.6-0.3-1.2-0.4-1.7-0.4h-17
	C8,4.1,7.6,4.3,7.2,4.7C6.9,5,6.7,5.4,6.7,6v30.4c0,0.5,0.2,0.9,0.5,1.3s0.8,0.5,1.3,0.5H34c0.5,0,0.9-0.2,1.3-0.5
	c0.4-0.4,0.5-0.8,0.5-1.3V14.5C35.9,14,35.7,13.4,35.5,12.8z M26.1,6.7c0.4,0.1,0.6,0.3,0.8,0.4l5.9,5.9c0.2,0.2,0.3,0.4,0.4,0.8
	h-7.1V6.7z M33.4,35.7h-4.2l0.6,0.8c0.2,0.3,0.1,0.7-0.2,0.9c-0.1,0.1-0.3,0.1-0.4,0.1c-0.2,0-0.9-0.1-1-0.3l-1.1-1.5H15.7l-1.1,1.5
	c-0.1,0.2-0.9,0.3-1.1,0.3c-0.1,0-0.3,0-0.4-0.1c-0.3-0.2-0.4-0.6-0.2-0.9l0.6-0.8H9.1V6.6h14.6v7.9c0,0.5,0.2,0.9,0.5,1.3
	c0.4,0.4,0.8,0.5,1.3,0.5h7.9V35.7z M29.2,31.8c0.4,0,0.7-0.3,0.7-0.7v-7.9h1.2c0.4,0,0.7-0.3,0.7-0.7V19c0-0.4-0.3-0.7-0.7-0.7
	H11.6c-0.4,0-0.7,0.3-0.7,0.7v3.5c0,0.4,0.3,0.7,0.7,0.7h1.2v7.9c0,0.4,0.3,0.7,0.7,0.7h2.7l-2.8,4l-0.6,0.8
	c-0.2,0.3-0.1,0.7,0.2,0.9c0.1,0.1,0.3,0.1,0.4,0.1c0.2,0,1-0.1,1.1-0.3l1.1-1.5l2.8-4h5.8l2.8,4l1.1,1.5c0.1,0.2,0.8,0.3,1,0.3
	c0.1,0,0.3,0,0.4-0.1c0.3-0.2,0.5-0.6,0.2-0.9l-0.5-0.9l-2.8-4L29.2,31.8L29.2,31.8z M12.6,21.7v-1.8h17.6v1.8H12.6z M14.5,30.2v-7
	h13.8v7H14.5z M23.3,24.5c0.3,0.2,0.3,0.7,0.1,1l-2.2,2.7c-0.2,0.2-0.4,0.3-0.7,0.2l-2.2-0.6l-1.1,1.1c-0.1,0.1-0.3,0.2-0.5,0.2
	s-0.3-0.1-0.5-0.2c-0.3-0.3-0.3-0.7,0-1l1.4-1.4c0.2-0.2,0.4-0.2,0.6-0.2l2.2,0.6l2-2.4C22.6,24.3,23.1,24.3,23.3,24.5z"/>
</svg>
