<?xml version="1.0" encoding="utf-8"?>
<!-- Generator: Adobe Illustrator 24.1.0, SVG Export Plug-In . SVG Version: 6.00 Build 0)  -->
<svg version="1.1" id="Ebene_1" xmlns="http://www.w3.org/2000/svg" xmlns:xlink="http://www.w3.org/1999/xlink" x="0px" y="0px"
	 viewBox="0 0 42.5 42.5" style="enable-background:new 0 0 42.5 42.5;" xml:space="preserve">
<style type="text/css">
	.st0{fill:#04BAEE;}
</style>
<path class="st0" d="M18.3,22.8h-2.6v-2.3h2.6V22.8z M22.2,20.5h-2.6v2.3h2.6V20.5z M26,20.5h-2.6v2.3H26V20.5z M29.8,20.5h-2.6v2.3
	h2.6V20.5z M33.7,20.5h-2.6v2.3h2.6V20.5z M10.7,24.2H8v2.3h2.6V24.2z M14.5,24.2h-2.6v2.3h2.6V24.2z M18.3,24.2h-2.6v2.3h2.6V24.2z
	 M22.2,24.2h-2.6v2.3h2.6V24.2z M26,24.2h-2.6v2.3H26V24.2z M29.8,24.2h-2.6v2.3h2.6V24.2z M33.7,24.2h-2.6v2.3h2.6V24.2z M10.7,28
	H8v2.3h2.6V28z M14.5,28h-2.6v2.3h2.6V28z M18.3,28h-2.6v2.3h2.6V28z M22.2,28h-2.6v2.3h2.6V28z"/>
<path d="M10.7,19H8v-2.3h2.6V19z M14.5,16.7h-2.6V19h2.6V16.7z M18.3,16.7h-2.6V19h2.6V16.7z M22.2,16.7h-2.6V19h2.6V16.7z M26,16.7
	h-2.6V19H26V16.7z M29.8,16.7h-2.6V19h2.6V16.7z M33.7,16.7h-2.6V19h2.6V16.7z M10.7,20.5H8v2.3h2.6V20.5z M14.5,20.5h-2.6v2.3h2.6
	V20.5z M26,28h-2.6v2.3H26V28z M29.8,28h-2.6v2.3h2.6V28z M33.7,28h-2.6v2.3h2.6V28z M10.7,31.8H8v2.3h2.6V31.8z M14.5,31.8h-2.6
	v2.3h2.6V31.8z M18.3,31.8h-2.6v2.3h2.6V31.8z M6.5,14.8h28.7v20.8H6.5V14.8z M14.5,12.9c-0.1,0.1-0.3,0.2-0.4,0.2h-1.2
	c-0.2,0-0.3-0.1-0.4-0.2c-0.1-0.1-0.2-0.3-0.2-0.4V7c0-0.2,0.1-0.3,0.2-0.4c0.1-0.1,0.3-0.2,0.4-0.2h1.2c0.2,0,0.3,0.1,0.4,0.2
	s0.2,0.3,0.2,0.4v5.5C14.7,12.7,14.7,12.8,14.5,12.9z M29.1,12.9c-0.1,0.1-0.3,0.2-0.4,0.2h-1.2c-0.2,0-0.3-0.1-0.4-0.2
	s-0.2-0.3-0.2-0.4V7c0-0.2,0.1-0.3,0.2-0.4s0.3-0.2,0.4-0.2h1.2c0.2,0,0.3,0.1,0.4,0.2s0.2,0.3,0.2,0.4v5.5
	C29.3,12.7,29.2,12.8,29.1,12.9z M35.9,9.6c-0.5-0.5-1.1-0.7-1.7-0.7h-2.4V7c0-0.8-0.3-1.6-0.9-2.1S29.5,4,28.7,4h-1.2
	c-0.8,0-1.6,0.3-2.1,0.9c-0.6,0.6-0.9,1.3-0.9,2.1v1.8h-7.3V7c0-0.8-0.3-1.6-0.9-2.1C15.7,4.3,14.9,4,14.1,4h-1.2
	c-0.8,0-1.6,0.3-2.1,0.9S9.9,6.2,9.9,7v1.8H7.4c-0.7,0-1.2,0.2-1.7,0.7S5,10.6,5,11.3v24.3c0,0.7,0.2,1.2,0.7,1.7
	C6.2,37.8,6.8,38,7.4,38h26.7c0.7,0,1.2-0.2,1.7-0.7c0.5-0.5,0.7-1.1,0.7-1.7V11.3C36.6,10.6,36.3,10.1,35.9,9.6z"/>
</svg>
