<?xml version="1.0" encoding="utf-8"?>
<!-- Generator: Adobe Illustrator 21.1.0, SVG Export Plug-In . SVG Version: 6.00 Build 0)  -->
<svg version="1.1" id="Ebene_1" xmlns="http://www.w3.org/2000/svg" xmlns:xlink="http://www.w3.org/1999/xlink" x="0px" y="0px"
	 viewBox="0 0 42.5 42.5" style="enable-background:new 0 0 42.5 42.5;" xml:space="preserve">
<path d="M31.5,24v6c0,1.5-0.5,2.8-1.6,3.8s-2.3,1.6-3.8,1.6H5.4c-1.5,0-2.8-0.5-3.8-1.6S0,31.4,0,30V12.4c0-1.5,0.5-2.8,1.6-3.8
	S3.9,7,5.4,7h20.6c0.8,0,1.5,0.2,2.2,0.5c0.2,0.1,0.3,0.2,0.3,0.4c0,0.2,0,0.4-0.2,0.5l-0.9,0.9c-0.1,0.1-0.3,0.2-0.4,0.2
	c0,0-0.1,0-0.2,0c-0.3-0.1-0.6-0.1-0.8-0.1H5.4c-0.8,0-1.5,0.3-2.1,0.9s-0.9,1.3-0.9,2.1V30c0,0.8,0.3,1.5,0.9,2.1
	C3.9,32.7,4.6,33,5.4,33h20.6c0.8,0,1.5-0.3,2.1-0.9c0.6-0.6,0.9-1.3,0.9-2.1v-4.8c0-0.2,0.1-0.3,0.2-0.4l1.2-1.2
	c0.1-0.1,0.3-0.2,0.4-0.2c0.1,0,0.2,0,0.2,0.1C31.3,23.6,31.5,23.7,31.5,24z M28.4,15.6L15.7,28.4c-0.3,0.3-0.6,0.4-1,0.4
	c-0.4,0-0.7-0.1-1-0.4l-6.1-6.1c-0.3-0.3-0.4-0.6-0.4-1s0.1-0.7,0.4-1l0.4-0.4c0.3-0.3,0.6-0.4,1-0.4c0.4,0,0.7,0.1,1,0.4l4.6,4.6
	L26,13.1c0.3-0.3,0.6-0.4,1-0.4s0.7,0.1,1,0.4l0.5,0.5c0.3,0.3,0.4,0.6,0.4,1C28.9,15,28.7,15.3,28.4,15.6z M36.3,25.4h-1
	c-0.1,0-0.3,0-0.3-0.1c-0.1-0.1-0.1-0.2-0.1-0.3v-5.3h-5.3c-0.1,0-0.3,0-0.3-0.1c-0.1-0.1-0.1-0.2-0.1-0.3v-1c0-0.1,0-0.3,0.1-0.3
	c0.1-0.1,0.2-0.1,0.3-0.1h5.3v-5.3c0-0.1,0-0.3,0.1-0.3c0.1-0.1,0.2-0.1,0.3-0.1h1c0.1,0,0.3,0,0.3,0.1c0.1,0.1,0.1,0.2,0.1,0.3v5.3
	H42c0.1,0,0.3,0,0.3,0.1c0.1,0.1,0.1,0.2,0.1,0.3v1c0,0.1,0,0.3-0.1,0.3c-0.1,0.1-0.2,0.1-0.3,0.1h-5.3v5.3c0,0.1,0,0.3-0.1,0.3
	C36.6,25.3,36.4,25.4,36.3,25.4z"/>
</svg>
