<?xml version="1.0" encoding="utf-8"?>
<svg version="1.1" id="Ebene_1" x="0px" y="0px" viewBox="0 0 42.5 42.5" style="enable-background:new 0 0 42.5 42.5;" xmlns="http://www.w3.org/2000/svg">
  <path id="Pfeil_links_3_" d="M 21.2 35.5 C 21 35.5 20.7 35.4 20.5 35.2 L 7.3 22 C 7.1 21.8 7 21.6 7 21.4 C 7 21.2 7.1 20.9 7.3 20.7 L 8.7 19.3 C 8.9 19.1 9.1 19 9.4 19 C 9.6 19 9.9 19.1 10.1 19.3 L 21.3 30.5 L 32.5 19.3 C 32.7 19.1 32.9 19 33.2 19 C 33.5 19 33.7 19.1 33.9 19.3 L 35.3 20.7 C 35.5 20.9 35.6 21.1 35.6 21.4 C 35.6 21.7 35.2 21.8 35 22 L 21.8 35.2 C 21.6 35.4 21.4 35.5 21.2 35.5 Z"/>
  <path id="path-1" d="M 21.43 23.659 C 21.23 23.659 20.93 23.559 20.73 23.359 L 7.53 10.159 C 7.33 9.959 7.23 9.759 7.23 9.559 C 7.23 9.359 7.33 9.059 7.53 8.859 L 8.93 7.459 C 9.13 7.259 9.33 7.159 9.63 7.159 C 9.83 7.159 10.13 7.259 10.33 7.459 L 21.53 18.659 L 32.73 7.459 C 32.93 7.259 33.13 7.159 33.43 7.159 C 33.73 7.159 33.93 7.259 34.13 7.459 L 35.53 8.859 C 35.73 9.059 35.83 9.259 35.83 9.559 C 35.83 9.859 35.43 9.959 35.23 10.159 L 22.03 23.359 C 21.83 23.559 21.63 23.659 21.43 23.659 Z"/>
</svg>