<?xml version="1.0" encoding="utf-8"?>
<!-- Generator: Adobe Illustrator 21.1.0, SVG Export Plug-In . SVG Version: 6.00 Build 0)  -->
<svg version="1.1" id="Ebene_1" xmlns="http://www.w3.org/2000/svg" xmlns:xlink="http://www.w3.org/1999/xlink" x="0px" y="0px"
	 viewBox="0 0 42.5 42.5" style="enable-background:new 0 0 42.5 42.5;" xml:space="preserve">
<path d="M21.1,27.9c-1,0-1.9,0.9-1.9,1.9c0,1,0.9,1.9,1.9,1.9c1,0,1.9-0.9,1.9-1.9C23.1,28.7,22.2,27.9,21.1,27.9L21.1,27.9z
	 M21.1,27.9 M38.8,34.6c1.2-2.1,1.2-4.5,0-6.6l-12-20.7C25.7,5.3,23.6,4,21.2,4s-4.5,1.2-5.7,3.3l-12,20.7c-1.2,2.1-1.2,4.6,0,6.6
	c1.2,2,3.3,3.3,5.7,3.3h23.9C35.5,38,37.6,36.7,38.8,34.6L38.8,34.6z M36.2,33.1c-0.7,1.1-1.8,1.8-3.2,1.8H9.2
	c-1.3,0-2.5-0.7-3.1-1.8c-0.7-1.1-0.7-2.5,0-3.6L18,8.8C18.7,7.7,19.8,7,21.2,7c1.3,0,2.5,0.7,3.1,1.8l12,20.7
	C36.9,30.7,36.9,32,36.2,33.1L36.2,33.1z M36.2,33.1 M20.7,14.5c-0.9,0.3-1.5,1.1-1.5,2.1c0,0.6,0.1,1.2,0.1,1.8
	c0.1,2.3,0.3,4.6,0.4,6.8c0,0.8,0.6,1.3,1.4,1.3s1.4-0.6,1.4-1.4c0-0.5,0-0.9,0-1.4c0.1-1.5,0.2-2.9,0.3-4.4c0-1,0.1-1.9,0.2-2.9
	c0-0.3,0-0.6-0.2-1C22.5,14.7,21.6,14.3,20.7,14.5L20.7,14.5z M20.7,14.5"/>
</svg>
