<?xml version="1.0" encoding="utf-8"?>
<!-- Generator: Adobe Illustrator 25.1.0, SVG Export Plug-In . SVG Version: 6.00 Build 0)  -->
<svg version="1.1" id="Ebene_1" xmlns="http://www.w3.org/2000/svg" xmlns:xlink="http://www.w3.org/1999/xlink" x="0px" y="0px"
	 viewBox="0 0 42.5 42.5" style="enable-background:new 0 0 42.5 42.5;" xml:space="preserve">
<path d="M16.3,17.4h-3.6l-0.6,2.4H9.3l4-12.9h2.5l4,12.9h-2.8L16.3,17.4z M13.3,15h2.3l-1.2-4.5L13.3,15z"/>
<path d="M13,32.9h6.7v2.4H9.2v-1.6l6.3-8.8H9.3v-2.4h10.5V24L13,32.9z"/>
<path d="M28,35.2c-0.3,0-0.5-0.1-0.7-0.3l-5.2-5.2c-0.2-0.2-0.3-0.4-0.3-0.7c0-0.3,0.1-0.5,0.3-0.7l0.6-0.6c0.2-0.2,0.4-0.3,0.7-0.3
	s0.5,0.1,0.7,0.3l2.3,2.3V8c0-0.3,0.1-0.5,0.3-0.7c0.2-0.2,0.4-0.3,0.7-0.3h1c0.3,0,0.5,0.1,0.7,0.3c0.2,0.2,0.3,0.4,0.3,0.7v22
	l2.3-2.3c0.2-0.2,0.4-0.3,0.7-0.3c0.3,0,0.5,0.1,0.7,0.3l0.6,0.6c0.2,0.2,0.3,0.4,0.3,0.7c0,0.3-0.1,0.5-0.3,0.7l-5.2,5.2
	C28.6,35.1,28.3,35.2,28,35.2z"/>
</svg>
