<?xml version="1.0" encoding="utf-8"?>
<!-- Generator: Adobe Illustrator 21.1.0, SVG Export Plug-In . SVG Version: 6.00 Build 0)  -->
<svg version="1.1" id="Ebene_1" xmlns="http://www.w3.org/2000/svg" xmlns:xlink="http://www.w3.org/1999/xlink" x="0px" y="0px"
	 viewBox="0 0 42.5 42.5" style="enable-background:new 0 0 42.5 42.5;" xml:space="preserve">
<path d="M40.6,18.2c0,2.6-0.9,4.9-2.7,7.1s-4.2,3.9-7.2,5.2c-3,1.3-6.4,1.9-10,1.9c-1,0-2.1-0.1-3.2-0.2c-2.9,2.6-6.3,4.4-10.2,5.4
	c-0.7,0.2-1.6,0.4-2.5,0.5H4.8c-0.2,0-0.4-0.1-0.6-0.2c-0.2-0.2-0.3-0.4-0.4-0.6v0c0-0.1,0-0.1,0-0.3c0-0.1,0.1-0.2,0-0.2
	s0-0.1,0.1-0.2l0.1-0.2L4.3,36l0.2-0.2c0.1-0.1,0.3-0.4,0.7-0.8c0.4-0.4,0.6-0.7,0.8-0.8c0.2-0.2,0.4-0.5,0.7-0.9
	c0.3-0.4,0.5-0.8,0.7-1.1c0.2-0.3,0.4-0.8,0.6-1.3c0.2-0.5,0.4-1.1,0.6-1.7c-2.3-1.3-4.1-2.9-5.5-4.9s-2-4-2-6.2
	c0-2.6,0.9-4.9,2.7-7.1s4.2-3.9,7.2-5.2S17.2,4,20.8,4s6.9,0.6,10,1.9s5.4,3,7.2,5.2S40.6,15.6,40.6,18.2z"/>
</svg>
