<?xml version="1.0" encoding="utf-8"?>
<!-- Generator: Adobe Illustrator 21.1.0, SVG Export Plug-In . SVG Version: 6.00 Build 0)  -->
<svg version="1.1" id="Ebene_1" xmlns="http://www.w3.org/2000/svg" xmlns:xlink="http://www.w3.org/1999/xlink" x="0px" y="0px"
	 viewBox="0 0 42.5 42.5" style="enable-background:new 0 0 42.5 42.5;" xml:space="preserve">
<path d="M33.9,11.2c0.4,0.4,0.7,0.8,0.9,1.4c0.3,0.6,0.4,1.2,0.4,1.7v21.9c0,0.5-0.2,0.9-0.5,1.3S33.8,38,33.3,38H7.8
	c-0.5,0-0.9-0.2-1.3-0.5C6.2,37.1,6,36.7,6,36.2V5.8c0-0.5,0.2-0.9,0.5-1.3C6.9,4.2,7.3,4,7.8,4h17c0.5,0,1.1,0.1,1.7,0.4
	c0.6,0.3,1.1,0.6,1.4,0.9L33.9,11.2z M25.4,6.6v7.1h7.1c-0.1-0.4-0.3-0.6-0.4-0.8L26.2,7C26.1,6.8,25.8,6.7,25.4,6.6z M32.7,35.6
	V16.2h-7.9c-0.5,0-0.9-0.2-1.3-0.5c-0.4-0.4-0.5-0.8-0.5-1.3V6.4H8.4v29.2H32.7z M27,23.4c-0.3,0-1.3,0.1-2.5,0.3
	c-0.8-0.6-1.6-1.3-2.1-1.8c-0.7-0.7-1.2-1.3-1.8-1.9c0.8-2.5,1.1-3.7,1.1-4.4c0-2.9-1-3.5-2.6-3.5c-1.2,0-2.6,0.6-2.6,3.6
	c0,1.3,0.7,2.9,2.1,4.7c-0.3,1-0.7,2.3-1.2,3.6c-0.2,0.7-0.5,1.3-0.7,1.8c-0.2,0.1-0.4,0.2-0.6,0.3c-0.7,0.3-1.3,0.7-2,0.9
	c-2.8,1.3-4.6,2.2-4.6,3.9c0,1.2,1.4,2,2.6,2c1.6,0,4-2.2,5.8-5.8c1.8-0.7,4.1-1.3,6-1.6c1.5,1.1,3.1,2.2,3.8,2.2
	c2.1,0,2.6-1.2,2.6-2.3C30.5,23.4,28.1,23.4,27,23.4z M12.3,31.2c-0.5,0-0.8-0.2-0.9-0.3c0-0.6,1.8-1.5,3.6-2.3
	c0.1-0.1,0.2-0.1,0.3-0.2C14.1,30.4,12.8,31.2,12.3,31.2z M18.3,15.7c0-1.8,0.6-1.8,0.9-1.8c0.6,0,0.9,0,0.9,1.7
	c0,0.4-0.2,1.3-0.7,2.7C18.7,17.3,18.3,16.4,18.3,15.7z M19,25c0.1-0.2,0.1-0.3,0.2-0.5c0.3-1,0.6-1.8,0.9-2.6
	c0.4,0.4,0.7,0.8,1.2,1.2c0.2,0.2,0.6,0.5,1.1,1C21.2,24.4,20.1,24.7,19,25z M27.9,26c-0.2-0.1-0.8-0.4-1.5-0.8c0.2,0,0.4,0,0.5,0
	c1.3,0,1.6,0.1,1.7,0.3C28.7,25.9,28.7,26,27.9,26z"/>
</svg>
