<?xml version="1.0" encoding="utf-8"?>
<!-- Generator: Adobe Illustrator 21.1.0, SVG Export Plug-In . SVG Version: 6.00 Build 0)  -->
<svg version="1.1" id="Ebene_1" xmlns="http://www.w3.org/2000/svg" xmlns:xlink="http://www.w3.org/1999/xlink" x="0px" y="0px"
	 viewBox="0 0 42.5 42.5" style="enable-background:new 0 0 42.5 42.5;" xml:space="preserve">
<path d="M32.2,17.1h-0.7v-3.3c0,0,0,0,0-0.1c0-0.1,0-0.3-0.1-0.4l-5.5-6.2c0,0,0,0,0,0c0,0-0.1-0.1-0.1-0.1c0,0,0,0,0,0
	c0,0-0.1,0-0.1,0c0,0,0,0,0,0c0,0-0.1,0-0.1,0H12.1C11.5,7,11,7.5,11,8.1v9h-0.7c-0.9,0-1.6,0.7-1.6,1.6V27c0,0.9,0.7,1.6,1.6,1.6
	H11v5.7c0,0.6,0.5,1.1,1.1,1.1h18.3c0.6,0,1.1-0.5,1.1-1.1v-5.7h0.7c0.9,0,1.6-0.7,1.6-1.6v-8.3C33.8,17.8,33.1,17.1,32.2,17.1
	L32.2,17.1z M12.1,8.1H25v5.7c0,0.3,0.2,0.6,0.6,0.6h4.9v2.8H12.1V8.1z M30.4,33.9H12.1v-5.4h18.3V33.9z M28.5,26.3 M14.2,21.7
	l0.9-2.6h1.5L15,22.9l1.5,3.8H15l-0.9-2.6l-0.9,2.6h-1.5l1.5-3.8l-1.5-3.8h1.5L14.2,21.7z M18.5,25.4h2.3v1.3h-3.6v-7.6h1.3V25.4z
	 M24.2,24.7c0-0.3-0.1-0.5-0.2-0.7c-0.1-0.2-0.4-0.3-0.7-0.5c-0.6-0.3-1.1-0.6-1.4-1c-0.3-0.4-0.4-0.8-0.4-1.4
	c0-0.6,0.2-1.1,0.6-1.5c0.4-0.4,0.9-0.6,1.5-0.6c0.4,0,0.7,0.1,1.1,0.3c0.3,0.2,0.5,0.5,0.7,0.8c0.2,0.4,0.2,0.8,0.2,1.2h-1.3
	c0-0.4-0.1-0.6-0.2-0.8c-0.1-0.2-0.3-0.3-0.6-0.3c-0.2,0-0.4,0.1-0.5,0.2c-0.1,0.2-0.2,0.4-0.2,0.6c0,0.2,0.1,0.4,0.2,0.6
	s0.4,0.3,0.7,0.5c0.6,0.3,1.1,0.6,1.4,1s0.4,0.9,0.4,1.5c0,0.7-0.2,1.2-0.5,1.5c-0.4,0.4-0.8,0.6-1.4,0.6c-0.4,0-0.8-0.1-1.1-0.3
	c-0.3-0.2-0.6-0.5-0.8-0.9c-0.2-0.4-0.3-0.8-0.3-1.3h1.3c0,0.4,0.1,0.8,0.2,1c0.1,0.2,0.4,0.3,0.7,0.3C24,25.6,24.2,25.3,24.2,24.7z
	 M28.4,21.7l0.9-2.6h1.5l-1.5,3.8l1.5,3.8h-1.5l-0.9-2.6l-0.9,2.6H26l1.5-3.8L26,19.1h1.5L28.4,21.7z"/>
</svg>
