<?xml version="1.0" encoding="utf-8"?>
<!-- Generator: Adobe Illustrator 21.1.0, SVG Export Plug-In . SVG Version: 6.00 Build 0)  -->
<svg version="1.1" id="Ebene_1" xmlns="http://www.w3.org/2000/svg" xmlns:xlink="http://www.w3.org/1999/xlink" x="0px" y="0px"
	 viewBox="0 0 42.5 42.5" style="enable-background:new 0 0 42.5 42.5;" xml:space="preserve">
<path d="M15.1,18.3c0.9,2.9,3.1,5.8,6.1,5.8s5.3-3,6.1-5.8c0.7-0.3,1.4-1,1.6-2c0.3-1.3-0.2-2.5-1.1-2.9c0.1-0.3-0.3-1.7-0.4-2.1
	C26.2,8.4,24.9,7,21,7c-3.9,0-5.6,2.5-6.5,4.9c-0.2,0.4-0.5,1.3-0.4,1.7c-0.7,0.5-1,1.6-0.7,2.7C13.7,17.3,14.3,18,15.1,18.3
	L15.1,18.3z M14.6,14.6c0.1-0.2,0.2-0.3,0.4-0.3c0,0,0.1,0,0.1,0c0,0,0.1,0,0.1,0l0.5,0l0.1-0.5c0.1-1,0.5-1.9,0.9-2.6
	c0.8,0.9,2.4,1.5,4.3,1.5c0.4,0,1.3-0.1,1.7-0.2c0.3-0.1-1-2-1.8-3c-0.2-0.2,2.3,0.4,3,2.5c0.2,0.5,1.3-0.8,1.6-1.3
	c0.6,0.8,1,1.9,1.1,3l0.1,0.5l0.5,0c0.1,0,0.1,0,0.2,0c0,0,0.1,0,0.1,0c0.4,0.2,0.7,1,0.5,1.7c-0.2,0.8-0.7,1.2-1.1,1.3l-0.3,0
	l-0.1,0.3c-0.7,2.7-2.8,5.4-5.2,5.4s-4.5-2.7-5.2-5.4l-0.1-0.3l-0.3,0c-0.4-0.1-0.9-0.5-1.1-1.3C14.3,15.5,14.4,15,14.6,14.6
	L14.6,14.6z M14.6,14.6 M27.2,22.8c-0.6,1.1-1.4,2-2.4,2.5c-2.1,1-5.2,1.1-7.2,0c-1-0.5-1.7-1.4-2.4-2.5c-3,1.2-5.2,4.1-5.2,6.5v6
	h22.3v-6C32.3,26.9,30.2,24.1,27.2,22.8L27.2,22.8z M27.2,22.8"/>
</svg>
