<?xml version="1.0" encoding="utf-8"?>
<!-- Generator: Adobe Illustrator 21.1.0, SVG Export Plug-In . SVG Version: 6.00 Build 0)  -->
<svg version="1.1" id="Ebene_1" xmlns="http://www.w3.org/2000/svg" xmlns:xlink="http://www.w3.org/1999/xlink" x="0px" y="0px"
	 viewBox="0 0 42.5 42.5" style="enable-background:new 0 0 42.5 42.5;" xml:space="preserve">
<path d="M17.4,18.2v10.6c0,0.2-0.1,0.3-0.2,0.4c-0.1,0.1-0.3,0.2-0.4,0.2h-1.2c-0.2,0-0.3-0.1-0.4-0.2c-0.1-0.1-0.2-0.3-0.2-0.4
	V18.2c0-0.2,0.1-0.3,0.2-0.4c0.1-0.1,0.3-0.2,0.4-0.2h1.2c0.2,0,0.3,0.1,0.4,0.2C17.4,17.9,17.4,18,17.4,18.2z M22.2,18.2v10.6
	c0,0.2-0.1,0.3-0.2,0.4c-0.1,0.1-0.3,0.2-0.4,0.2h-1.2c-0.2,0-0.3-0.1-0.4-0.2c-0.1-0.1-0.2-0.3-0.2-0.4V18.2c0-0.2,0.1-0.3,0.2-0.4
	c0.1-0.1,0.3-0.2,0.4-0.2h1.2c0.2,0,0.3,0.1,0.4,0.2C22.1,17.9,22.2,18,22.2,18.2z M26.9,18.2v10.6c0,0.2-0.1,0.3-0.2,0.4
	c-0.1,0.1-0.3,0.2-0.4,0.2h-1.2c-0.2,0-0.3-0.1-0.4-0.2c-0.1-0.1-0.2-0.3-0.2-0.4V18.2c0-0.2,0.1-0.3,0.2-0.4
	c0.1-0.1,0.3-0.2,0.4-0.2h1.2c0.2,0,0.3,0.1,0.4,0.2C26.8,17.9,26.9,18,26.9,18.2z M29.3,31.6V14.1H12.7v17.5c0,0.3,0,0.5,0.1,0.7
	c0.1,0.2,0.2,0.4,0.3,0.5c0.1,0.1,0.2,0.2,0.2,0.2h15.4c0,0,0.1-0.1,0.2-0.2c0.1-0.1,0.2-0.3,0.3-0.5C29.2,32.1,29.3,31.9,29.3,31.6
	z M16.9,11.7h8.3l-0.9-2.2c-0.1-0.1-0.2-0.2-0.3-0.2h-5.9c-0.1,0-0.2,0.1-0.3,0.2L16.9,11.7z M34,12.3v1.2c0,0.2-0.1,0.3-0.2,0.4
	c-0.1,0.1-0.3,0.2-0.4,0.2h-1.8v17.5c0,1-0.3,1.9-0.9,2.6s-1.3,1.1-2.1,1.1H13.3c-0.8,0-1.5-0.4-2.1-1.1c-0.6-0.7-0.9-1.6-0.9-2.6
	V14.1H8.6c-0.2,0-0.3-0.1-0.4-0.2S8,13.7,8,13.5v-1.2c0-0.2,0.1-0.3,0.2-0.4s0.3-0.2,0.4-0.2h5.7l1.3-3.1c0.2-0.5,0.5-0.8,1-1.2
	C17.1,7.2,17.5,7,18,7h5.9c0.5,0,1,0.2,1.5,0.5c0.5,0.3,0.8,0.7,1,1.2l1.3,3.1h5.7c0.2,0,0.3,0.1,0.4,0.2C33.9,12,34,12.1,34,12.3z"
	/>
</svg>
