<?xml version="1.0" encoding="utf-8"?>
<!-- Generator: Adobe Illustrator 21.1.0, SVG Export Plug-In . SVG Version: 6.00 Build 0)  -->
<svg version="1.1" id="Ebene_1" xmlns="http://www.w3.org/2000/svg" xmlns:xlink="http://www.w3.org/1999/xlink" x="0px" y="0px"
	 viewBox="0 0 42.5 42.5" style="enable-background:new 0 0 42.5 42.5;" xml:space="preserve">
<path d="M35.6,21c0-2.6-0.7-5.1-2-7.3s-3.1-4-5.3-5.3s-4.7-2-7.3-2s-5.1,0.7-7.3,2s-4,3.1-5.3,5.3s-2,4.7-2,7.3s0.7,5.1,2,7.3
	s3.1,4,5.3,5.3s4.7,2,7.3,2s5.1-0.7,7.3-2s4-3.1,5.3-5.3S35.6,23.6,35.6,21z M38,21c0,3.1-0.8,5.9-2.3,8.5c-1.5,2.6-3.6,4.7-6.2,6.2
	C26.9,37.2,24.1,38,21,38c-3.1,0-5.9-0.8-8.5-2.3c-2.6-1.5-4.7-3.6-6.2-6.2S4,24.1,4,21c0-3.1,0.8-5.9,2.3-8.5s3.6-4.7,6.2-6.2
	S17.9,4,21,4c3.1,0,5.9,0.8,8.5,2.3s4.7,3.6,6.2,6.2C37.2,15.1,38,17.9,38,21z M22.7,26.2v2.9c0,0.2-0.1,0.3-0.2,0.4
	c-0.1,0.1-0.2,0.2-0.4,0.2h-2.9c-0.2,0-0.3-0.1-0.4-0.2c-0.1-0.1-0.2-0.2-0.2-0.4v-2.9c0-0.2,0.1-0.3,0.2-0.4
	c0.1-0.1,0.2-0.2,0.4-0.2h2.9c0.2,0,0.3,0.1,0.4,0.2C22.7,25.9,22.7,26,22.7,26.2z M27.3,17.3c0,0.6-0.1,1.1-0.3,1.6
	s-0.5,0.9-0.8,1.2c-0.4,0.3-0.7,0.6-0.9,0.8c-0.3,0.2-0.6,0.4-1.1,0.6c-0.4,0.2-0.7,0.4-0.8,0.5c-0.2,0.1-0.3,0.3-0.5,0.4
	c-0.1,0.2-0.2,0.3-0.2,0.5v0.6c0,0.2-0.1,0.3-0.2,0.4c-0.1,0.1-0.2,0.2-0.4,0.2h-2.9c-0.2,0-0.3-0.1-0.4-0.2
	c-0.1-0.1-0.2-0.2-0.2-0.4v-1.2c0-0.4,0.1-0.8,0.2-1.2s0.3-0.6,0.4-0.9c0.2-0.2,0.4-0.4,0.7-0.6c0.3-0.2,0.6-0.4,0.7-0.5
	s0.5-0.2,0.8-0.4c0.6-0.3,1.1-0.6,1.3-0.8c0.3-0.2,0.4-0.5,0.4-0.9c0-0.5-0.3-0.9-0.8-1.3c-0.5-0.4-1.1-0.5-1.7-0.5
	c-0.7,0-1.2,0.2-1.7,0.5c-0.3,0.2-0.8,0.7-1.4,1.5c-0.1,0.1-0.3,0.2-0.4,0.2c-0.1,0-0.2,0-0.3-0.1L14.9,16c-0.1-0.1-0.2-0.2-0.2-0.4
	c0-0.2,0-0.3,0.1-0.4c1.5-2.3,3.5-3.4,6.3-3.4c1.5,0,3,0.5,4.3,1.6S27.3,15.8,27.3,17.3z"/>
</svg>
