<?xml version="1.0" encoding="utf-8"?>
<!-- Generator: Adobe Illustrator 21.1.0, SVG Export Plug-In . SVG Version: 6.00 Build 0)  -->
<svg version="1.1" id="Ebene_1" xmlns="http://www.w3.org/2000/svg" xmlns:xlink="http://www.w3.org/1999/xlink" x="0px" y="0px"
	 viewBox="0 0 42.5 42.5" style="enable-background:new 0 0 42.5 42.5;" xml:space="preserve">
<path d="M27.2,20.2c0.9,0.9,1.4,2.1,1.4,3.4s-0.5,2.5-1.4,3.4c-0.9,0.9-2.1,1.4-3.4,1.4s-2.5-0.5-3.4-1.4c-0.9-0.9-1.4-2.1-1.4-3.4
	s0.5-2.5,1.4-3.4c0.9-0.9,2.1-1.4,3.4-1.4S26.2,19.3,27.2,20.2z M13.8,15c0.4-0.7,0.9-1.3,1.4-1.9c-0.4-0.2-0.8-0.3-1.3-0.3
	c-1.1,1.1-2.4,1.6-3.9,1.6c-1.5,0-2.8-0.5-3.9-1.6c-0.6,0-1.2,0.1-1.7,0.4c-0.5,0.3-0.9,0.7-1.2,1.1c-0.3,0.5-0.5,1-0.7,1.6
	c-0.2,0.6-0.3,1.3-0.4,1.9C2,18.5,2,19.2,2,19.9c0,0.9,0.3,1.7,0.8,2.3c0.5,0.7,1.1,1,1.9,1h7.7c-0.1-0.6-0.2-1.3-0.2-2
	C12.2,19,12.7,16.9,13.8,15z M10,13.6c1.3,0,2.5-0.5,3.4-1.4c0.9-0.9,1.4-2.1,1.4-3.4s-0.5-2.5-1.4-3.4C12.5,4.5,11.3,4,10,4
	S7.6,4.5,6.6,5.4C5.7,6.3,5.2,7.5,5.2,8.8s0.5,2.5,1.4,3.4C7.6,13.1,8.7,13.6,10,13.6z M17.2,22.3c0.5-0.7,0.8-1.4,0.8-2.3
	c0-0.7,0-1.4-0.1-2c-0.1-0.6-0.2-1.3-0.4-1.9c-0.2-0.6-0.4-1.1-0.7-1.6c-0.7,0.8-1.3,1.8-1.8,2.8c-0.5,1.3-0.8,2.6-0.8,4
	c0,0.7,0.1,1.3,0.2,2h0.9C16.1,23.2,16.7,22.9,17.2,22.3z M29.4,28c-0.5-0.3-1-0.4-1.7-0.4c-1.1,1.1-2.4,1.6-3.9,1.6
	s-2.8-0.5-3.9-1.6c-0.6,0-1.2,0.1-1.7,0.4c-0.3,0.2-0.6,0.4-0.8,0.6c0.9,0.8,1.9,1.5,3.1,2c1.3,0.5,2.6,0.8,4,0.8
	c1.4,0,2.7-0.3,4-0.8c0.8-0.3,1.5-0.8,2.2-1.3c-0.1-0.1-0.1-0.2-0.2-0.3C30.3,28.7,29.9,28.3,29.4,28z M30.7,29.5
	c-0.7,0.5-1.4,0.9-2.2,1.3c-1.3,0.5-2.6,0.8-4,0.8c-1.4,0-2.7-0.3-4-0.8c-1.2-0.5-2.2-1.2-3.1-2c-0.1,0.1-0.3,0.3-0.4,0.5
	c-0.3,0.4-0.5,0.9-0.6,1.4c0.6,0.5,1.2,1,1.9,1.4c1.9,1.1,4,1.7,6.2,1.7c2.2,0,4.3-0.6,6.2-1.7c0.3-0.2,0.5-0.3,0.7-0.5
	c-0.1-0.2-0.1-0.4-0.2-0.7C31.1,30.3,30.9,29.8,30.7,29.5z M14.2,21.2c0-1.4,0.3-2.7,0.8-4c0.5-1.1,1.1-2,1.8-2.8c0,0,0,0,0-0.1
	c-0.3-0.5-0.7-0.8-1.2-1.1c-0.1-0.1-0.2-0.1-0.4-0.2c-0.5,0.6-1,1.2-1.4,1.9c-1.1,1.9-1.7,4-1.7,6.2c0,0.7,0.1,1.3,0.2,2h2.1
	C14.3,22.6,14.2,21.9,14.2,21.2z M17.4,28.7c-0.1-0.1-0.1-0.1-0.2-0.1c-0.9-0.9-1.7-2-2.2-3.3c-0.3-0.7-0.5-1.3-0.6-2h-2.1
	c0.2,1.5,0.7,2.9,1.5,4.2c0.7,1.2,1.6,2.2,2.6,3.1c0.2-0.5,0.4-1,0.6-1.4C17.1,29,17.3,28.8,17.4,28.7z M24.5,33.6
	c-2.2,0-4.3-0.6-6.2-1.7c-0.7-0.4-1.3-0.9-1.9-1.4c0,0.1-0.1,0.2-0.1,0.3c-0.2,0.6-0.3,1.3-0.4,1.9s-0.1,1.3-0.1,2
	c0,0.9,0.3,1.7,0.8,2.3s1.1,1,1.9,1h10.7c0.7,0,1.4-0.3,1.9-1s0.8-1.4,0.8-2.3c0-0.7,0-1.4-0.1-2c0-0.4-0.1-0.8-0.2-1.2
	c-0.2,0.2-0.5,0.3-0.7,0.5C28.8,33.1,26.8,33.6,24.5,33.6z M34.8,21.2c0,1.4-0.3,2.7-0.8,4s-1.3,2.4-2.2,3.3
	c-0.3,0.3-0.7,0.6-1.1,0.9c0.2,0.4,0.4,0.8,0.6,1.3c0.1,0.2,0.1,0.4,0.2,0.7c1.5-1,2.8-2.4,3.8-4c1.1-1.9,1.7-4,1.7-6.2
	c0-0.3,0-0.7,0-1h-2.1C34.8,20.6,34.8,20.9,34.8,21.2z M24.5,8.9c-2.2,0-4.3,0.6-6.2,1.7c-1.2,0.7-2.2,1.6-3.1,2.6
	c0.1,0.1,0.3,0.1,0.4,0.2c0.5,0.3,0.9,0.7,1.2,1.1c0,0,0,0,0,0.1c0.1-0.2,0.3-0.3,0.4-0.5c0.9-0.9,2-1.7,3.3-2.2
	c1.3-0.5,2.6-0.8,4-0.8c0.4,0,0.8,0,1.2,0.1V9C25.3,8.9,24.9,8.9,24.5,8.9z M39.6,17.8l-0.9,0.9c-0.1,0.1-0.3,0.2-0.4,0.2
	c-0.2,0-0.3-0.1-0.5-0.2l-3.8-3.8l-3.8,3.8c-0.1,0.1-0.3,0.2-0.5,0.2s-0.3-0.1-0.4-0.2l-0.9-0.9c-0.1-0.1-0.2-0.3-0.2-0.4
	c0-0.2,0.1-0.3,0.2-0.5l3.8-3.8l-3.8-3.8c-0.1-0.1-0.2-0.3-0.2-0.5c0-0.2,0.1-0.3,0.2-0.4l0.9-0.9c0.1-0.1,0.3-0.2,0.4-0.2
	s0.3,0.1,0.5,0.2l3.8,3.8l3.8-3.8c0.1-0.1,0.3-0.2,0.5-0.2c0.2,0,0.3,0.1,0.4,0.2l0.9,0.9c0.1,0.1,0.2,0.3,0.2,0.4
	c0,0.2-0.1,0.3-0.2,0.5l-3.8,3.8l3.8,3.8c0.1,0.1,0.2,0.3,0.2,0.5C39.7,17.6,39.7,17.7,39.6,17.8z"/>
</svg>
