<?xml version="1.0" encoding="utf-8"?>
<!-- Generator: Adobe Illustrator 21.1.0, SVG Export Plug-In . SVG Version: 6.00 Build 0)  -->
<svg version="1.1" id="Ebene_1" xmlns="http://www.w3.org/2000/svg" xmlns:xlink="http://www.w3.org/1999/xlink" x="0px" y="0px"
	 viewBox="0 0 42.5 42.5" style="enable-background:new 0 0 42.5 42.5;" xml:space="preserve">
<path d="M29.5,13.6c1.3,0,2.5-0.5,3.4-1.4s1.4-2.1,1.4-3.4c0-1.3-0.5-2.4-1.4-3.4c-1-0.9-2.1-1.4-3.4-1.4c-1.4,0-2.5,0.5-3.4,1.4
	s-1.4,2.1-1.4,3.4c0,1.3,0.5,2.5,1.4,3.4S28.2,13.6,29.5,13.6z M27.3,6.6c0.6-0.6,1.3-0.9,2.2-0.9c0.9,0,1.6,0.3,2.2,0.9
	c0.6,0.7,0.9,1.4,0.9,2.2c0,0.9-0.3,1.6-0.9,2.2c-0.6,0.6-1.4,0.9-2.2,0.9c-0.9,0-1.6-0.3-2.2-0.9c-0.6-0.6-0.9-1.4-0.9-2.2
	C26.4,8,26.7,7.2,27.3,6.6z M31.5,31.1c0.1,0.7,0.1,1.4,0.1,2c0,1.5-0.5,2.7-1.4,3.6S28.1,38,26.5,38H10.1c-1.5,0-2.7-0.4-3.7-1.3
	C5.5,35.8,5,34.6,5,33.1c0-0.7,0-1.3,0.1-2c0.1-0.7,0.1-1.3,0.3-2.1c0.1-0.7,0.3-1.4,0.5-2s0.5-1.2,0.8-1.8s0.7-1.1,1.2-1.5
	c0.4-0.4,1-0.8,1.6-1c0.6-0.2,1.3-0.4,2.1-0.4c0.1,0,0.4,0.1,0.8,0.4s0.9,0.6,1.4,0.9c0.5,0.3,1.2,0.6,2,0.9
	c0.8,0.3,1.7,0.4,2.5,0.4s1.7-0.1,2.5-0.4c0.8-0.3,1.5-0.6,2-0.9s1-0.6,1.4-0.9c0.4-0.3,0.7-0.4,0.8-0.4c0.8,0,1.5,0.1,2.1,0.4
	s1.2,0.6,1.6,1c0.4,0.4,0.8,0.9,1.2,1.5c0.3,0.6,0.6,1.2,0.8,1.8c0.2,0.6,0.4,1.3,0.5,2C31.3,29.7,31.4,30.4,31.5,31.1z M13.8,20.6
	c-1.3-1.3-1.9-2.8-1.9-4.5s0.6-3.3,1.9-4.5c1.3-1.2,2.8-1.9,4.5-1.9c1.8,0,3.3,0.6,4.5,1.9c1.3,1.2,1.9,2.7,1.9,4.5
	s-0.6,3.3-1.9,4.5c-1.3,1.3-2.8,1.9-4.5,1.9C16.5,22.5,15,21.9,13.8,20.6z M34.2,13.7c-0.1,0-0.3,0.1-0.8,0.4
	c-0.4,0.3-1,0.5-1.8,0.8c-0.7,0.3-1.5,0.4-2.2,0.4c-0.8,0-1.7-0.1-2.5-0.4c0.1,0.4,0.1,0.8,0.1,1.2c0,1.7-0.5,3.3-1.5,4.8
	c2,0,3.7,0.9,5,2.4H33c1,0,1.9-0.3,2.6-0.8c0.7-0.5,1.1-1.2,1.1-2.2C36.7,15.9,35.9,13.7,34.2,13.7z M34.4,21.3
	c-0.5,0.3-1.1,0.5-1.7,0.5H31c-0.9-1-2-1.6-3.3-1.6c0.7-1,1-2,1-3.2c0-0.3,0-0.5-0.1-0.8c0.5,0.2,1.1,0.3,1.6,0.3
	c0.5,0,1-0.1,1.5-0.3c0.5-0.2,0.9-0.3,1.2-0.5c0.3-0.2,0.5-0.3,0.5-0.3c1.1,0,1.6,1.5,1.6,4.4C35.1,20.5,34.9,21,34.4,21.3z"/>
</svg>
