<?xml version="1.0" encoding="utf-8"?>
<!-- Generator: Adobe Illustrator 21.1.0, SVG Export Plug-In . SVG Version: 6.00 Build 0)  -->
<svg version="1.1" id="Ebene_1" xmlns="http://www.w3.org/2000/svg" xmlns:xlink="http://www.w3.org/1999/xlink" x="0px" y="0px"
	 viewBox="0 0 42.5 42.5" style="enable-background:new 0 0 42.5 42.5;" xml:space="preserve">
<path d="M41.3,27.3c0-0.2-0.1-0.3-0.2-0.5L29.9,15.7c0.4-1,0.7-2.2,0.7-3.3c0-2.3-0.9-4.4-2.5-6c-1.6-1.6-3.7-2.5-6-2.5
	c-2.3,0-4.4,0.9-6,2.5c-3.3,3.3-3.3,8.7,0,12c1.6,1.6,3.7,2.5,6,2.5c1.2,0,2.3-0.2,3.3-0.7l3.7,3.7c0.2,0.2,0.4,0.2,0.6,0.2l2-0.1
	l-0.1,2c0,0.2,0.1,0.4,0.2,0.6c0.1,0.2,0.4,0.2,0.6,0.2l2-0.1l-0.1,2c0,0.2,0.1,0.4,0.2,0.6c0.2,0.2,0.3,0.2,0.6,0.2l2-0.1l-0.1,2
	c0,0.2,0.1,0.4,0.2,0.6c0.1,0.1,0.3,0.2,0.5,0.2c0,0,0.1,0,0.1,0l3.1-0.3c0.4,0,0.7-0.4,0.7-0.8L41.3,27.3z M21.1,11.3
	c-0.9,0.9-2.5,0.9-3.4,0c-0.9-0.9-0.9-2.5,0-3.4c0.9-0.9,2.5-0.9,3.4,0C22,8.9,22,10.4,21.1,11.3z M38.6,27.6
	c-0.1,0.1-0.3,0.2-0.4,0.2c-0.1,0-0.3-0.1-0.4-0.2l-9.5-9.5c0.3-0.3,0.5-0.6,0.7-0.9l9.6,9.6C38.9,27,38.9,27.3,38.6,27.6z"/>
<path d="M18.9,34.3C19,34.1,19,34,19,33.8l-3.6-15.4c0.9-0.6,1.7-1.5,2.3-2.5c1.2-1.9,1.6-4.2,1.1-6.4c-0.5-2.2-1.9-4.1-3.8-5.3
	c-1.9-1.2-4.2-1.6-6.4-1C4,4.3,1.2,8.9,2.2,13.4c0.5,2.2,1.9,4.1,3.8,5.3c1,0.6,2.1,1,3.2,1.2l1.2,5.1c0.1,0.2,0.2,0.4,0.4,0.5
	l1.7,1l-1.1,1.7c-0.1,0.2-0.2,0.4-0.1,0.6c0,0.2,0.2,0.4,0.4,0.5l1.7,1l-1.1,1.7c-0.1,0.2-0.2,0.4-0.1,0.6c0.1,0.2,0.2,0.4,0.4,0.5
	l1.7,1l-1.1,1.7C13,35.7,13,36,13,36.2c0.1,0.2,0.2,0.3,0.3,0.4c0,0,0,0,0.1,0l2.8,1.3c0.4,0.2,0.8,0,1-0.3L18.9,34.3z M10.1,10.1
	c-1.3,0.3-2.6-0.5-2.9-1.8C6.9,7,7.7,5.7,9,5.4c1.3-0.3,2.6,0.5,2.9,1.8C12.2,8.5,11.4,9.8,10.1,10.1z M16.5,33.1
	c-0.2,0-0.3,0-0.4-0.1c-0.1-0.1-0.2-0.2-0.3-0.4l-3.1-13.1c0.4-0.1,0.7-0.2,1.1-0.4L17,32.4C17,32.7,16.9,33.1,16.5,33.1z"/>
</svg>
