<?xml version="1.0" encoding="utf-8"?>
<!-- Generator: Adobe Illustrator 25.2.1, SVG Export Plug-In . SVG Version: 6.00 Build 0)  -->
<svg version="1.1" id="Ebene_1" xmlns="http://www.w3.org/2000/svg" xmlns:xlink="http://www.w3.org/1999/xlink" x="0px" y="0px"
	 viewBox="0 0 42.5 42.5" style="enable-background:new 0 0 42.5 42.5;" xml:space="preserve">
<path d="M20.2,22.5h7.7c0.5,0.4,0.8,0.8,1.2,1.2c0.9,1.2,1.4,2.6,1.4,4.2c0,2.2-0.8,4-2.4,5.4s-3.7,2.2-6.2,2.2
	c-1.3,0-2.6-0.2-4-0.7c-1.4-0.5-2.2-0.7-2.4-0.7c-0.5,0-0.8,0.1-1,0.4c-0.2,0.3-0.3,0.6-0.3,0.9h-0.9l-1.2-8.8h0.9
	c0.7,1.8,1.5,3.3,2.4,4.4c1.6,1.9,3.7,2.9,6.1,2.9c1.3,0,2.4-0.4,3.4-1.2s1.4-2,1.4-3.5c0-1.3-0.5-2.5-1.4-3.5c-0.6-0.6-2-1.6-4-2.8
	L20.2,22.5z M36.3,20.6H6.2v1.2h30.1V20.6z M20.7,17.6c-1.4-0.8-2.3-1.6-3-2.4c-0.6-0.7-1-1.7-1-2.7c0-1.2,0.4-2.1,1.3-2.8
	c0.8-0.7,1.8-1,2.9-1c1.4,0,2.9,0.5,4.4,1.6c1.5,1,2.6,2.9,3.2,5.5h1l-0.9-8.8h-0.8c-0.1,0.4-0.3,0.8-0.5,1
	c-0.2,0.2-0.5,0.4-1.1,0.4c-0.2,0-0.9-0.2-2.3-0.7s-2.4-0.7-3.4-0.7c-2.3,0-4.1,0.7-5.5,2.1c-1.4,1.4-2.1,3.1-2.1,5.2
	c0,1.6,0.6,3,1.7,4.3c0.4,0.4,0.8,0.8,1.3,1.2h8.1L20.7,17.6z"/>
</svg>
