<?xml version="1.0" encoding="utf-8"?>
<!-- Generator: Adobe Illustrator 21.1.0, SVG Export Plug-In . SVG Version: 6.00 Build 0)  -->
<svg version="1.1" id="Ebene_1" xmlns="http://www.w3.org/2000/svg" xmlns:xlink="http://www.w3.org/1999/xlink" x="0px" y="0px"
	 viewBox="0 0 42.5 42.5" style="enable-background:new 0 0 42.5 42.5;" xml:space="preserve">
<path id="edit_1_" d="M32.5,24v6c0,1.5-0.5,2.8-1.6,3.8s-2.3,1.6-3.8,1.6H6.4c-1.5,0-2.8-0.5-3.8-1.6S1,31.4,1,30V12.4
	c0-1.5,0.5-2.8,1.6-3.8S4.9,7,6.4,7h20.6c0.8,0,1.5,0.2,2.2,0.5c0.2,0.1,0.3,0.2,0.3,0.4c0,0.2,0,0.4-0.2,0.5l-0.9,0.9
	c-0.1,0.1-0.3,0.2-0.4,0.2c0,0-0.1,0-0.2,0c-0.3-0.1-0.6-0.1-0.8-0.1H6.4c-0.8,0-1.5,0.3-2.1,0.9c-0.6,0.6-0.9,1.3-0.9,2.1V30
	c0,0.8,0.3,1.5,0.9,2.1C4.9,32.7,5.6,33,6.4,33h20.6c0.8,0,1.5-0.3,2.1-0.9c0.6-0.6,0.9-1.3,0.9-2.1v-4.8c0-0.2,0.1-0.3,0.2-0.4
	l1.2-1.2c0.1-0.1,0.3-0.2,0.4-0.2c0.1,0,0.2,0,0.2,0.1C32.3,23.6,32.5,23.7,32.5,24z M16.5,12.8l-6.3,6.3c-0.1,0.1-0.3,0.2-0.5,0.2
	c-0.2,0-0.4-0.1-0.5-0.2l-3-3C6.1,16,6,15.8,6,15.6c0-0.2,0.1-0.4,0.2-0.5L6.4,15c0.1-0.1,0.3-0.2,0.5-0.2c0.2,0,0.4,0.1,0.5,0.2
	l2.3,2.3l5.6-5.6c0.1-0.1,0.3-0.2,0.5-0.2c0.2,0,0.4,0.1,0.5,0.2l0.2,0.2c0.1,0.1,0.2,0.3,0.2,0.5S16.7,12.7,16.5,12.8z M16.5,22.1
	l-6.3,6.3c-0.1,0.1-0.3,0.2-0.5,0.2c-0.2,0-0.4-0.1-0.5-0.2l-3-3C6.1,25.3,6,25.1,6,24.9s0.1-0.4,0.2-0.5l0.2-0.2
	C6.6,24.1,6.7,24,6.9,24c0.2,0,0.4,0.1,0.5,0.2l2.3,2.3l5.6-5.6c0.1-0.1,0.3-0.2,0.5-0.2c0.2,0,0.4,0.1,0.5,0.2l0.2,0.2
	c0.1,0.1,0.2,0.3,0.2,0.5C16.7,21.8,16.7,22,16.5,22.1z"/>
<path d="M26.5,23.4l2-1.8L26.1,19l-2,1.8l0,0.9l1.6,0.1l-0.1,1.6L26.5,23.4z M34.2,12.1c-0.2-0.2-0.3-0.2-0.5,0l-6,5.4
	c-0.2,0.2-0.2,0.4,0,0.5c0.2,0.2,0.3,0.2,0.5,0l6-5.4C34.4,12.5,34.4,12.3,34.2,12.1z M34.1,9.8l4.4,4.9L27,25l-4.7-0.2l0.2-4.7
	L34.1,9.8z M41.1,12.3l-1.6,1.4l-4.4-4.9l1.6-1.4C37,7.1,37.4,7,37.8,7c0.4,0,0.8,0.2,1.1,0.5l2.3,2.6c0.3,0.3,0.4,0.7,0.4,1.1
	S41.4,12,41.1,12.3z"/>
</svg>
