<?xml version="1.0" encoding="utf-8"?>
<!-- Generator: Adobe Illustrator 21.1.0, SVG Export Plug-In . SVG Version: 6.00 Build 0)  -->
<svg version="1.1" id="Ebene_1" xmlns="http://www.w3.org/2000/svg" xmlns:xlink="http://www.w3.org/1999/xlink" x="0px" y="0px"
	 viewBox="0 0 43 43" style="enable-background:new 0 0 43 43;" xml:space="preserve">
<path d="M32.9,24.4c-0.5,0-1-0.2-1.4-0.6c-5.4-5.4-14.2-5.4-19.6,0c-0.8,0.8-2,0.8-2.8,0c-0.8-0.8-0.8-2,0-2.8c7-7,18.3-7,25.2,0
	c0.8,0.8,0.8,2,0,2.8C33.9,24.2,33.4,24.4,32.9,24.4L32.9,24.4z M32.9,24.4 M27.5,29.8c-0.5,0-1-0.2-1.4-0.6
	c-1.2-1.2-2.7-1.8-4.4-1.8c-1.6,0-3.2,0.6-4.4,1.8c-0.8,0.8-2,0.8-2.8,0c-0.8-0.8-0.8-2,0-2.8c1.9-1.9,4.5-3,7.2-3s5.3,1.1,7.2,3
	c0.8,0.8,0.8,2,0,2.8C28.5,29.6,28,29.8,27.5,29.8L27.5,29.8z M27.5,29.8 M24.3,33.6c0,1.5-1.2,2.7-2.7,2.7c-1.5,0-2.7-1.2-2.7-2.7
	c0-1.5,1.2-2.7,2.7-2.7C23.1,30.9,24.3,32.1,24.3,33.6L24.3,33.6z M24.3,33.6 M38.4,18.9c-0.5,0-1-0.2-1.4-0.6
	c-8.4-8.4-22.1-8.4-30.5,0c-0.8,0.8-2,0.8-2.8,0c-0.8-0.8-0.8-2,0-2.8C8.4,10.7,14.8,8,21.7,8c6.8,0,13.3,2.7,18.1,7.5
	c0.8,0.8,0.8,2,0,2.8C39.4,18.7,38.9,18.9,38.4,18.9L38.4,18.9z M38.4,18.9"/>
</svg>
