<?xml version="1.0" encoding="utf-8"?>
<!-- Generator: Adobe Illustrator 21.1.0, SVG Export Plug-In . SVG Version: 6.00 Build 0)  -->
<svg version="1.1" id="Ebene_1" xmlns="http://www.w3.org/2000/svg" xmlns:xlink="http://www.w3.org/1999/xlink" x="0px" y="0px"
	 viewBox="0 0 42.5 42.5" style="enable-background:new 0 0 42.5 42.5;" xml:space="preserve">
<g>
	<g>
		<path d="M36.3,27.1c-0.3-0.7-1.1-1.2-1.8-0.9l-7.2,2.6c-1.2-1.8-3.3-2.8-5.5-2.5L15.2,9.1c-0.2-0.6-0.7-0.9-1.3-0.9H6.5
			C5.7,8.2,5,8.8,5,9.6c0,0.8,0.7,1.5,1.5,1.5H13l6.2,16.2c-1.9,1.3-3,3.6-2.5,6c0.6,3.2,3.7,5.3,6.9,4.6c3-0.6,5.1-3.4,4.7-6.4
			l7.1-2.5C36.1,28.6,36.6,27.8,36.3,27.1L36.3,27.1z M23,35.1c-1.6,0.3-3.3-0.8-3.6-2.4c-0.3-1.6,0.8-3.3,2.4-3.6
			c1.6-0.3,3.2,0.7,3.6,2.4C25.8,33.2,24.7,34.8,23,35.1L23,35.1z M23,35.1"/>
		<path d="M24.7,24.4c0.3,0.7,1,1.2,1.8,0.8l6.6-2.5c0.7-0.2,1.1-1,0.8-1.8l-6.2-16c-0.3-0.7-1.1-1.1-1.8-0.8l-6.7,2.5
			c-0.7,0.2-1.1,1-0.8,1.8L24.7,24.4z M25.6,7.2l5.1,13.4l-4,1.5L21.6,8.7L25.6,7.2z M25.6,7.2"/>
	</g>
</g>
</svg>
