<?xml version="1.0" encoding="utf-8"?>
<!-- Generator: Adobe Illustrator 21.1.0, SVG Export Plug-In . SVG Version: 6.00 Build 0)  -->
<svg version="1.1" id="Ebene_1" xmlns="http://www.w3.org/2000/svg" xmlns:xlink="http://www.w3.org/1999/xlink" x="0px" y="0px"
	 viewBox="0 0 42.5 42.5" style="enable-background:new 0 0 42.5 42.5;" xml:space="preserve">
<path d="M34.9,30.8V16.7c0-0.5-0.2-1-0.6-1.4s-0.8-0.6-1.4-0.6H18.8c-0.5,0-1-0.2-1.4-0.6c-0.4-0.4-0.6-0.8-0.6-1.4v-1.3
	c0-0.5-0.2-1-0.6-1.4c-0.4-0.4-0.8-0.6-1.4-0.6H8.5c-0.5,0-1,0.2-1.4,0.6S6.6,11,6.6,11.5v19.3c0,0.5,0.2,1,0.6,1.4s0.8,0.6,1.4,0.6
	H33c0.5,0,1-0.2,1.4-0.6S34.9,31.4,34.9,30.8z M37.5,16.7v14.2c0,1.2-0.4,2.3-1.3,3.2c-0.9,0.9-1.9,1.3-3.2,1.3H8.5
	c-1.2,0-2.3-0.4-3.2-1.3S4,32.1,4,30.8V11.5c0-1.2,0.4-2.3,1.3-3.2S7.3,7,8.5,7H15c1.2,0,2.3,0.4,3.2,1.3c0.9,0.9,1.3,1.9,1.3,3.2
	v0.6H33c1.2,0,2.3,0.4,3.2,1.3C37.1,14.4,37.5,15.4,37.5,16.7z"/>
<path d="M29.6,29.3v-8.1c-0.2,0.2-0.8,0.6-1,0.8c-2,1.4-3.6,2.5-4.7,3.4c-0.4,0.3-0.7,0.5-0.9,0.7c-0.2,0.2-0.6,0.3-1,0.5
	c-0.4,0.2-0.8,0.2-1.1,0.2h0c-0.4,0-0.7-0.1-1.1-0.2c-0.4-0.2-0.7-0.3-1-0.5c-0.2-0.2-0.5-0.4-0.9-0.7c-1.2-0.9-2.8-2-4.7-3.4
	c-0.3-0.2-0.8-0.6-1.1-0.8v8.1c0,0.1,0,0.2,0.1,0.2c0.1,0.1,0.2,0.1,0.3,0.1h16.9c0.1,0,0.2,0,0.3-0.1
	C29.5,29.5,29.6,29.4,29.6,29.3z M29.6,18.5v-0.4l0,0l0-0.2l-0.1-0.1l-0.1-0.1l-0.2,0H12.3c-0.1,0-0.2,0-0.3,0.1
	c-0.1,0.1-0.1,0.1-0.1,0.2c0,1.2,0.8,2.3,1.9,3.1c1.4,1.1,2.9,2.2,4.5,3.3c0,0,0.2,0.1,0.4,0.3c0.2,0.2,0.4,0.3,0.5,0.4
	c0.1,0.1,0.3,0.2,0.5,0.3c0.2,0.1,0.4,0.2,0.6,0.3c0.2,0.1,0.3,0.1,0.5,0.1h0c0.1,0,0.3,0,0.5-0.1c0.2-0.1,0.4-0.2,0.6-0.3
	s0.4-0.2,0.5-0.3c0.1-0.1,0.3-0.2,0.5-0.4c0.2-0.2,0.3-0.3,0.4-0.3c1.5-1.1,3-2.2,4.5-3.3c0.4-0.3,1.1-0.9,1.4-1.4
	C29.4,19.2,29.6,19,29.6,18.5z M30.7,18.1v11.1c0,0.4-0.2,0.8-0.5,1.1c-0.3,0.3-0.8,0.5-1.3,0.5H12.6c-0.5,0-0.9-0.2-1.3-0.5
	c-0.3-0.3-0.5-0.7-0.5-1.1V18.1c0-0.4,0.2-0.8,0.5-1.1c0.3-0.3,0.8-0.5,1.3-0.5h16.4c0.5,0,0.9,0.2,1.3,0.5
	C30.6,17.3,30.7,17.7,30.7,18.1z"/>
</svg>
