<?xml version="1.0" encoding="utf-8"?>
<!-- Generator: Adobe Illustrator 23.0.3, SVG Export Plug-In . SVG Version: 6.00 Build 0)  -->
<svg version="1.1" id="Ebene_1" xmlns="http://www.w3.org/2000/svg" xmlns:xlink="http://www.w3.org/1999/xlink" x="0px" y="0px"
	 viewBox="0 0 42.52 42.52" style="enable-background:new 0 0 42.52 42.52;" xml:space="preserve">
<style type="text/css">
	.st0{fill:#020203;}
	.st1{fill:#FFFFFF;}
	.st2{fill:none;stroke:#020203;stroke-width:0.5;stroke-linecap:round;stroke-linejoin:bevel;stroke-miterlimit:10;}
</style>
<path class="st0" d="M29.72,11H8.34C5.39,11,3,13.39,3,16.34v11.88c0,0.33,0.27,0.59,0.59,0.59h2.42c0.29,2.04,2.04,3.56,4.11,3.56
	s3.82-1.52,4.11-3.56h14.35c0.29,2.04,2.04,3.56,4.11,3.56c2.06,0,3.82-1.52,4.11-3.56h2.42c0.33,0,0.59-0.27,0.59-0.59V21.1
	C39.81,15.52,35.3,11.01,29.72,11z"/>
<path class="st1" d="M11.31,28.22c0,0.66-0.53,1.19-1.19,1.19s-1.19-0.53-1.19-1.19c0-0.66,0.53-1.19,1.19-1.19
	S11.31,27.57,11.31,28.22z M33.88,28.22c0,0.66-0.53,1.19-1.19,1.19c-0.66,0-1.19-0.53-1.19-1.19c0-0.66,0.53-1.19,1.19-1.19
	C33.35,27.03,33.88,27.57,33.88,28.22z M26.72,13.38h-5.75c-0.35,0-0.64,0.27-0.64,0.59v4.16c0,0.33,0.29,0.59,0.64,0.59h5.75
	c0.35,0,0.64-0.27,0.64-0.59v-4.16C27.36,13.64,27.07,13.38,26.72,13.38z M38.77,13.38h-9.15c-0.56,0-1.02,0.27-1.02,0.59v4.16
	c0,0.33,0.46,0.59,1.02,0.59h9.15c0.56,0,1.02-0.27,1.02-0.59v-4.16C39.79,13.64,39.33,13.38,38.77,13.38z M19.05,13.38h-5.75
	c-0.35,0-0.64,0.27-0.64,0.59v4.16c0,0.33,0.29,0.59,0.64,0.59h5.75c0.35,0,0.64-0.27,0.64-0.59v-4.16
	C19.69,13.64,19.41,13.38,19.05,13.38z M11.39,13.38H5.64c-0.35,0-0.64,0.27-0.64,0.59v4.16c0,0.33,0.29,0.59,0.64,0.59h5.75
	c0.35,0,0.64-0.27,0.64-0.59v-4.16C12.03,13.64,11.74,13.38,11.39,13.38z"/>
<path class="st2" d="M39.29,18.79c-0.79-2.8-2.54-5.19-5.11-6.44 M30.21,11.63H30"/>
</svg>
