<?xml version="1.0" encoding="utf-8"?>
<!-- Generator: Adobe Illustrator 21.1.0, SVG Export Plug-In . SVG Version: 6.00 Build 0)  -->
<svg version="1.1" id="Ebene_1" xmlns="http://www.w3.org/2000/svg" xmlns:xlink="http://www.w3.org/1999/xlink" x="0px" y="0px"
	 viewBox="0 0 42.5 42.5" style="enable-background:new 0 0 42.5 42.5;" xml:space="preserve">
<path id="Lizence" d="M21.3,29.9v2.4H3.7c-0.4,0-0.8-0.1-1.1-0.4c-0.3-0.3-0.4-0.7-0.4-1.1V5.5c0-0.4,0.1-0.8,0.4-1.1
	C3,4.1,3.3,4,3.7,4h14.2c0.4,0,0.9,0.1,1.4,0.3c0.5,0.2,0.9,0.5,1.2,0.8l3,3l-1.1,2.1l-3.3-3.3c-0.1-0.1-0.3-0.3-0.8-0.3l-1.9,0H4.6
	v23.4H21.3z M16.7,16.7c0-0.1,0-0.3-0.1-0.4s-0.2-0.1-0.3-0.1h-9c-0.1,0-0.2,0-0.3,0.1s-0.1,0.2-0.1,0.4v1c0,0.1,0,0.3,0.1,0.4
	s0.2,0.1,0.3,0.1h9l0.4-0.4c0,0,0,0,0-0.1V16.7z M6.9,25.8c0,0.1,0,0.3,0.1,0.4s0.2,0.1,0.3,0.1h9c0.1,0,0.2,0,0.3-0.1
	s0.1-0.2,0.1-0.4v-1c0-0.1,0-0.3-0.1-0.4s-0.2-0.1-0.3-0.1h-9c-0.1,0-0.2,0-0.3,0.1s-0.1,0.2-0.1,0.4V25.8z M16.3,20.2
	c0.1,0,0.2,0,0.3,0.1c0.1,0.1,0.1,0.2,0.1,0.4v1c0,0.1,0,0.3-0.1,0.4c-0.1,0.1-0.2,0.1-0.3,0.1h-9c-0.1,0-0.2,0-0.3-0.1
	c-0.1-0.1-0.1-0.2-0.1-0.4v-1c0-0.1,0-0.3,0.1-0.4c0.1-0.1,0.2-0.1,0.3-0.1H16.3z M40.4,19.3L38.2,17l0.4-3.1c0.1-0.5-0.3-0.9-0.7-1
	l-3.1-0.5l-1.5-2.8c-0.2-0.4-0.7-0.6-1.2-0.4l-2.8,1.4l-2.8-1.4c-0.4-0.2-1,0-1.2,0.4l-1.5,2.8l-3.1,0.5c-0.5,0.1-0.8,0.5-0.7,1
	l0.4,3.1l-2.2,2.3c-0.3,0.3-0.3,0.9,0,1.2l2.2,2.3L20,25.9c-0.1,0.5,0.3,0.9,0.7,1l2.5,0.4v9.6c0,0.3,0.2,0.6,0.4,0.8
	c0.1,0.1,0.3,0.1,0.5,0.1c0.1,0,0.3,0,0.4-0.1l4.8-2.4l4.8,2.4c0.3,0.1,0.6,0.1,0.9,0c0.3-0.2,0.4-0.4,0.4-0.8v-9.6l2.5-0.4
	c0.5-0.1,0.8-0.5,0.7-1l-0.4-3.1l2.2-2.3C40.7,20.2,40.7,19.6,40.4,19.3L40.4,19.3z M29.7,33.4c-0.2-0.1-0.5-0.1-0.7,0l-3.4,1.7
	v-5.2l0.3,0.5c0.2,0.4,0.7,0.5,1,0.3l2.5-1.2l2.5,1.2c0.1,0.1,0.2,0.1,0.3,0.1c0.3,0,0.6-0.2,0.7-0.4l0.3-0.5v5.2L29.7,33.4z
	 M35.8,21.6c-0.2,0.2-0.2,0.4-0.2,0.7l0.3,2.4l-2.4,0.4c-0.2,0-0.4,0.2-0.6,0.4l-1.1,2.1l-2.2-1.1c-0.1-0.1-0.2-0.1-0.3-0.1
	c-0.1,0-0.2,0-0.3,0.1l-2.2,1.1l-1.1-2.1c-0.1-0.2-0.3-0.4-0.6-0.4l-2.4-0.4l0.3-2.4c0-0.2,0-0.5-0.2-0.7l-1.7-1.7l1.7-1.7
	c0.2-0.2,0.2-0.4,0.2-0.7l-0.3-2.4l2.4-0.4c0.2,0,0.4-0.2,0.6-0.4l1.1-2.1l2.2,1.1c0.2,0.1,0.5,0.1,0.7,0l2.2-1.1l1.1,2.1
	c0.1,0.2,0.3,0.4,0.6,0.4l2.4,0.4l-0.3,2.4c0,0.2,0,0.5,0.2,0.7l1.7,1.7L35.8,21.6z M36.6,21.8"/>
</svg>
