<?xml version="1.0" encoding="utf-8"?>
<!-- Generator: Adobe Illustrator 21.1.0, SVG Export Plug-In . SVG Version: 6.00 Build 0)  -->
<svg version="1.1" id="Ebene_1" xmlns="http://www.w3.org/2000/svg" xmlns:xlink="http://www.w3.org/1999/xlink" x="0px" y="0px"
	 viewBox="0 0 42.5 42.5" style="enable-background:new 0 0 42.5 42.5;" xml:space="preserve">
<path d="M6.4,35.6h27.2V16.1H6.4V35.6z M13.7,12.5V7c0-0.2-0.1-0.3-0.2-0.4s-0.3-0.2-0.4-0.2h-1.2c-0.2,0-0.3,0.1-0.4,0.2
	c-0.1,0.1-0.2,0.3-0.2,0.4v5.5c0,0.2,0.1,0.3,0.2,0.4c0.1,0.1,0.3,0.2,0.4,0.2h1.2c0.2,0,0.3-0.1,0.4-0.2S13.7,12.7,13.7,12.5z
	 M28.3,12.5V7c0-0.2-0.1-0.3-0.2-0.4s-0.3-0.2-0.4-0.2h-1.2c-0.2,0-0.3,0.1-0.4,0.2S25.9,6.9,25.9,7v5.5c0,0.2,0.1,0.3,0.2,0.4
	s0.3,0.2,0.4,0.2h1.2c0.2,0,0.3-0.1,0.4-0.2S28.3,12.7,28.3,12.5z M35.6,11.3v24.3c0,0.7-0.2,1.2-0.7,1.7c-0.5,0.5-1.1,0.7-1.7,0.7
	H6.4c-0.7,0-1.2-0.2-1.7-0.7C4.2,36.8,4,36.2,4,35.6V11.3c0-0.7,0.2-1.2,0.7-1.7s1.1-0.7,1.7-0.7h2.4V7c0-0.8,0.3-1.6,0.9-2.1
	S11.1,4,11.9,4h1.2c0.8,0,1.6,0.3,2.1,0.9c0.6,0.6,0.9,1.3,0.9,2.1v1.8h7.3V7c0-0.8,0.3-1.6,0.9-2.1C24.9,4.3,25.6,4,26.5,4h1.2
	c0.8,0,1.6,0.3,2.1,0.9s0.9,1.3,0.9,2.1v1.8h2.4c0.7,0,1.2,0.2,1.7,0.7C35.3,10.1,35.6,10.6,35.6,11.3z M17.1,32.1h-3.1v-9.8l-3,0.9
	v-2.3l5.8-2h0.3V32.1z M29.1,22.4c0,0.6-0.2,1.2-0.5,1.7c-0.3,0.5-0.8,0.9-1.3,1.2c0.6,0.3,1.1,0.7,1.5,1.3s0.6,1.2,0.6,1.9
	c0,1.2-0.4,2.1-1.2,2.8s-1.9,1-3.4,1c-1.4,0-2.6-0.3-3.4-1s-1.2-1.6-1.2-2.8c0-0.7,0.2-1.3,0.5-1.9c0.4-0.5,0.9-1,1.5-1.3
	c-0.6-0.3-1-0.7-1.3-1.2c-0.3-0.5-0.5-1.1-0.5-1.7c0-1.2,0.4-2.1,1.2-2.7c0.8-0.7,1.8-1,3.2-1c1.3,0,2.4,0.3,3.2,1
	C28.7,20.3,29.1,21.2,29.1,22.4z M26.3,28.2c0-0.5-0.1-1-0.4-1.3c-0.3-0.3-0.7-0.4-1.1-0.4c-0.5,0-0.8,0.1-1.1,0.4
	c-0.3,0.3-0.4,0.7-0.4,1.3c0,0.5,0.1,0.9,0.4,1.2c0.3,0.3,0.7,0.5,1.1,0.5c0.5,0,0.8-0.2,1.1-0.5C26.2,29.1,26.3,28.7,26.3,28.2z
	 M24.8,21c-0.4,0-0.7,0.1-0.9,0.4s-0.3,0.6-0.3,1.1c0,0.5,0.1,0.9,0.3,1.1c0.2,0.3,0.5,0.4,1,0.4c0.4,0,0.7-0.1,0.9-0.4
	S26,23,26,22.5c0-0.5-0.1-0.8-0.3-1.1C25.5,21.1,25.2,21,24.8,21z"/>
</svg>
