<?xml version="1.0" encoding="utf-8"?>
<!-- Generator: Adobe Illustrator 23.0.1, SVG Export Plug-In . SVG Version: 6.00 Build 0)  -->
<svg version="1.1" id="Ebene_1" xmlns="http://www.w3.org/2000/svg" xmlns:xlink="http://www.w3.org/1999/xlink" x="0px" y="0px"
	 viewBox="0 0 42.52 42.52" style="enable-background:new 0 0 42.52 42.52;" xml:space="preserve">
<path d="M25.78,29.21H2.53c-0.16,0-0.3-0.05-0.42-0.16c-0.12-0.11-0.18-0.24-0.18-0.39V14.98c0.4,0.41,1.32,1.06,1.78,1.41
	c3.36,2.36,6.04,4.3,8.02,5.81c0.64,0.49,1.16,0.88,1.56,1.15c0.4,0.28,0.94,0.55,1.63,0.83s1.33,0.42,1.93,0.42h0.04
	c0.6,0,1.25-0.14,1.93-0.42s1.23-0.56,1.63-0.83c0.4-0.28,0.92-0.66,1.56-1.15c1.98-1.51,4.66-3.45,8.02-5.81
	c0.46-0.34,1.35-1,1.75-1.41v1.51c0.13-0.1,0.54-0.44,0.79-0.53c0.59-0.21,0.65-0.24,1.17-0.27V9.75c0-0.76-0.29-1.4-0.88-1.94
	C32.26,7.27,31.56,7,30.73,7H3.01C2.18,7,1.47,7.27,0.88,7.81C0.29,8.35,0,9,0,9.75v18.71c0,0.76,0.29,1.4,0.88,1.94
	c0.59,0.54,1.3,0.81,2.13,0.81H25.6c0-0.05-0.01-0.09-0.01-0.14C25.59,30.43,25.66,29.82,25.78,29.21z M2.11,9.17
	c0.12-0.11,0.26-0.17,0.42-0.17h28.65l0.26,0.04l0.17,0.13l0.1,0.16l0.06,0.42l0.01,0.03v0.63c0,0.69-0.21,1.18-0.79,2.03
	c-0.58,0.85-1.75,1.81-2.43,2.32c-2.42,1.79-4.94,3.65-7.55,5.59c-0.08,0.06-0.29,0.23-0.66,0.52c-0.36,0.29-0.65,0.51-0.87,0.66
	c-0.21,0.15-0.49,0.34-0.84,0.56c-0.35,0.22-0.66,0.38-0.95,0.48c-0.29,0.11-0.56,0.16-0.81,0.16h-0.04c-0.25,0-0.52-0.05-0.81-0.16
	c-0.29-0.11-0.61-0.27-0.95-0.48c-0.35-0.22-0.62-0.4-0.84-0.56c-0.21-0.15-0.5-0.37-0.87-0.66c-0.36-0.29-0.58-0.46-0.66-0.52
	c-2.61-1.94-5.13-3.8-7.55-5.59c-1.85-1.36-3.25-3.23-3.25-5.2C1.93,9.42,1.99,9.29,2.11,9.17z"/>
<path d="M42.36,32.19c0,0.87-0.25,1.62-0.75,2.25s-1.1,0.94-1.81,0.94H29.53c-0.71,0-1.31-0.31-1.81-0.94s-0.75-1.37-0.75-2.25
	c0-0.68,0.03-1.32,0.1-1.93c0.07-0.61,0.19-1.21,0.38-1.83s0.42-1.14,0.7-1.58c0.28-0.44,0.66-0.79,1.13-1.07
	c0.47-0.28,1.01-0.41,1.62-0.41c1.05,1.03,2.3,1.54,3.76,1.54s2.71-0.51,3.76-1.54c0.61,0,1.15,0.14,1.62,0.41
	c0.47,0.28,0.85,0.63,1.13,1.07s0.52,0.96,0.7,1.58c0.18,0.61,0.31,1.22,0.38,1.83C42.33,30.87,42.36,31.51,42.36,32.19z"/>
<path d="M39.28,21.53c0,1.27-0.45,2.36-1.35,3.26c-0.9,0.9-1.99,1.35-3.26,1.35c-1.27,0-2.36-0.45-3.26-1.35
	c-0.9-0.9-1.35-1.99-1.35-3.26c0-1.27,0.45-2.36,1.35-3.26c0.9-0.9,1.99-1.35,3.26-1.35c1.27,0,2.36,0.45,3.26,1.35
	C38.83,19.17,39.28,20.25,39.28,21.53z"/>
</svg>
