<?xml version="1.0" encoding="utf-8"?>
<!-- Generator: Adobe Illustrator 21.1.0, SVG Export Plug-In . SVG Version: 6.00 Build 0)  -->
<svg version="1.1" id="Ebene_1" xmlns="http://www.w3.org/2000/svg" xmlns:xlink="http://www.w3.org/1999/xlink" x="0px" y="0px"
	 viewBox="0 0 42.5 42.5" style="enable-background:new 0 0 42.5 42.5;" xml:space="preserve">
<path id="clear_1_" d="M36.5,24v6c0,1.5-0.5,2.8-1.6,3.8s-2.3,1.6-3.8,1.6H10.4c-1.5,0-2.8-0.5-3.8-1.6S5,31.4,5,30V12.4
	c0-1.5,0.5-2.8,1.6-3.8S8.9,7,10.4,7h20.6c0.8,0,1.5,0.2,2.2,0.5c0.2,0.1,0.3,0.2,0.3,0.4c0,0.2,0,0.4-0.2,0.5l-0.9,0.9
	c-0.1,0.1-0.3,0.2-0.4,0.2c0,0-0.1,0-0.2,0c-0.3-0.1-0.6-0.1-0.8-0.1H10.4c-0.8,0-1.5,0.3-2.1,0.9c-0.6,0.6-0.9,1.3-0.9,2.1V30
	c0,0.8,0.3,1.5,0.9,2.1c0.6,0.6,1.3,0.9,2.1,0.9h20.6c0.8,0,1.5-0.3,2.1-0.9c0.6-0.6,0.9-1.3,0.9-2.1v-4.8c0-0.2,0.1-0.3,0.2-0.4
	l1.2-1.2c0.1-0.1,0.3-0.2,0.4-0.2c0.1,0,0.2,0,0.2,0.1C36.3,23.6,36.5,23.7,36.5,24z"/>
<path id="clear_2_" d="M28.2,27.4l-1.2,1.2c-0.2,0.2-0.4,0.2-0.6,0.2c-0.2,0-0.4-0.1-0.6-0.2l-5-5l-5,5c-0.2,0.2-0.4,0.2-0.6,0.2
	c-0.2,0-0.4-0.1-0.6-0.2l-1.2-1.2c-0.2-0.2-0.2-0.4-0.2-0.6s0.1-0.4,0.2-0.6l5-5l-5-5c-0.2-0.2-0.2-0.4-0.2-0.6
	c0-0.2,0.1-0.4,0.2-0.6l1.2-1.2c0.2-0.2,0.4-0.2,0.6-0.2c0.2,0,0.4,0.1,0.6,0.2l5,5l5-5c0.2-0.2,0.4-0.2,0.6-0.2
	c0.2,0,0.4,0.1,0.6,0.2l1.2,1.2c0.2,0.2,0.2,0.4,0.2,0.6c0,0.2-0.1,0.4-0.2,0.6l-5,5l5,5c0.2,0.2,0.2,0.4,0.2,0.6
	S28.3,27.2,28.2,27.4z"/>
</svg>
