<?xml version="1.0" encoding="utf-8"?>
<!-- Generator: Adobe Illustrator 21.1.0, SVG Export Plug-In . SVG Version: 6.00 Build 0)  -->
<svg version="1.1" id="Ebene_1" xmlns="http://www.w3.org/2000/svg" xmlns:xlink="http://www.w3.org/1999/xlink" x="0px" y="0px"
	 viewBox="0 0 42.5 42.5" style="enable-background:new 0 0 42.5 42.5;" xml:space="preserve">
<path d="M17.7,33H6.2V6.2h13.4v7.3c0,0.5,0.2,0.9,0.5,1.2s0.7,0.5,1.2,0.5h7.3v1.2c0.8,0,1.5,0.1,2.2,0.3v-3.1c0-0.5-0.1-1-0.3-1.5
	c-0.2-0.6-0.5-1-0.8-1.3l-5.4-5.4C24,5.1,23.5,4.8,23,4.6C22.3,4.1,21.8,4,21.3,4H5.7C5.2,4,4.8,4.2,4.5,4.5S4,5.2,4,5.7v27.9
	c0,0.5,0.2,0.9,0.5,1.2s0.7,0.5,1.2,0.5H19c-0.3-0.4-0.7-0.9-0.9-1.4C17.9,33.6,17.8,33.3,17.7,33z M21.9,6.4
	c0.3,0.1,0.6,0.2,0.7,0.4l5.5,5.5c0.1,0.1,0.3,0.4,0.4,0.7h-6.6V6.4z M30.8,23.6v7.9c0,0.2-0.1,0.3-0.2,0.4s-0.2,0.2-0.4,0.2h-5.7
	c-0.2,0-0.3-0.1-0.4-0.2s-0.2-0.2-0.2-0.4v-1.1c0-0.2,0.1-0.3,0.2-0.4s0.2-0.2,0.4-0.2h4v-6.2c0-0.2,0.1-0.3,0.2-0.4
	s0.2-0.2,0.4-0.2h1.1c0.2,0,0.3,0.1,0.4,0.2C30.8,23.3,30.8,23.4,30.8,23.6z M36.2,27.9c0-1.4-0.4-2.7-1.1-3.9
	c-0.7-1.2-1.7-2.2-2.9-2.9S29.7,20,28.3,20s-2.7,0.4-3.9,1.1c-1.2,0.7-2.2,1.7-2.9,2.9c-0.7,1.2-1.1,2.5-1.1,3.9s0.4,2.7,1.1,3.9
	c0.7,1.2,1.7,2.2,2.9,2.9c1.2,0.7,2.5,1.1,3.9,1.1s2.7-0.4,3.9-1.1c1.2-0.7,2.2-1.7,2.9-2.9C35.8,30.7,36.2,29.4,36.2,27.9z
	 M38.2,27.9c0,1.8-0.4,3.4-1.3,5c-0.9,1.5-2.1,2.7-3.6,3.6c-1.5,0.9-3.2,1.3-5,1.3s-3.4-0.4-5-1.3c-1.5-0.9-2.7-2.1-3.6-3.6
	s-1.3-3.2-1.3-5s0.4-3.4,1.3-5c0.9-1.5,2.1-2.7,3.6-3.6s3.2-1.3,5-1.3s3.4,0.4,5,1.3c1.6,0.9,2.7,2.1,3.6,3.6
	C37.8,24.5,38.2,26.2,38.2,27.9z M15.1,25.3h-1c-0.1,0-0.3,0-0.4-0.1s-0.1-0.2-0.1-0.4v-5.4H8.2c-0.1,0-0.3,0-0.4-0.1
	S7.7,19,7.7,18.9v-1c0-0.1,0-0.3,0.1-0.4s0.2-0.1,0.4-0.1h5.4V12c0-0.1,0-0.3,0.1-0.4c0.1-0.1,0.2-0.1,0.4-0.1h1
	c0.1,0,0.3,0,0.4,0.1c0.1,0.1,0.1,0.2,0.1,0.4v5.4H21c0.1,0,0.3,0,0.4,0.1s0.1,0.2,0.1,0.4v1c0,0.1,0,0.3-0.1,0.4s-0.2,0.1-0.4,0.1
	h-5.4v5.4c0,0.1,0,0.3-0.1,0.4S15.2,25.3,15.1,25.3z"/>
</svg>
