<?xml version="1.0" encoding="utf-8"?>
<!-- Generator: Adobe Illustrator 21.1.0, SVG Export Plug-In . SVG Version: 6.00 Build 0)  -->
<svg version="1.1" id="Ebene_1" xmlns="http://www.w3.org/2000/svg" xmlns:xlink="http://www.w3.org/1999/xlink" x="0px" y="0px"
	 viewBox="0 0 42.5 42.5" style="enable-background:new 0 0 42.5 42.5;" xml:space="preserve">
<path d="M34.6,11.2c0.4,0.4,0.7,0.8,0.9,1.4c0.3,0.6,0.4,1.2,0.4,1.7v21.9c0,0.5-0.2,0.9-0.5,1.3S34.5,38,34,38H8.5
	c-0.5,0-0.9-0.2-1.3-0.5s-0.5-0.8-0.5-1.3V5.8c0-0.5,0.2-0.9,0.5-1.3C7.6,4.2,8,4,8.5,4h17c0.5,0,1.1,0.1,1.7,0.4
	c0.6,0.3,1.1,0.6,1.4,0.9L34.6,11.2z M26.1,6.6v7.1h7.1c-0.1-0.4-0.3-0.6-0.4-0.8L26.9,7C26.8,6.8,26.5,6.7,26.1,6.6z M33.4,35.6
	V16.2h-7.9c-0.5,0-0.9-0.2-1.3-0.5s-0.5-0.8-0.5-1.3V6.4H9.1v29.2H33.4z"/>
<path id="spreadsheet_neu" d="M30.7,22.8H19.3v-8.6c0-0.4-0.4-0.8-0.8-0.8h-6.6c-0.4,0-0.8,0.4-0.8,0.8v14.1c0,0.4,0.4,0.8,0.8,0.8
	h5.8V33c0,0.4,0.4,0.8,0.8,0.8h5.2c0.4,0,0.8-0.4,0.8-0.8v-4h5.4v3.2h-2.2c-0.4,0-0.8,0.4-0.8,0.8c0,0.4,0.4,0.8,0.8,0.8h3
	c0.4,0,0.8-0.4,0.8-0.8v-9.5C31.5,23.1,31.1,22.8,30.7,22.8z M12.6,22.8v-3.1h5v3.1H12.6z M17.7,15V18h-5V15H17.7z M17.7,29.1v-1.6
	h-5v-3.1h5c0,0,0,0,0,0v3.1h6.8v1.6H17.7z M24.5,27.5v-3.1h5.4v3.1H24.5z"/>
</svg>
