<?xml version="1.0" encoding="utf-8"?>
<!-- Generator: Adobe Illustrator 22.1.0, SVG Export Plug-In . SVG Version: 6.00 Build 0)  -->
<svg version="1.1" id="Ebene_1" xmlns="http://www.w3.org/2000/svg" xmlns:xlink="http://www.w3.org/1999/xlink" x="0px" y="0px"
	 viewBox="0 0 42.5 42.5" style="enable-background:new 0 0 42.5 42.5;" xml:space="preserve">
<g id="Absent">
	<path d="M33.9,32.5l-2-2l2-2c0.3-0.3,0.3-0.7,0-0.9c-0.3-0.3-0.7-0.3-0.9,0l-2,2l-2-2c-0.3-0.3-0.7-0.3-0.9,0
		c-0.3,0.3-0.3,0.7,0,0.9l2,2l-2,2c-0.3,0.3-0.3,0.7,0,0.9c0.1,0.1,0.3,0.2,0.5,0.2c0.2,0,0.3-0.1,0.5-0.2l2-2l2,2
		c0.1,0.1,0.3,0.2,0.5,0.2c0.2,0,0.3-0.1,0.5-0.2C34.1,33.2,34.1,32.8,33.9,32.5z"/>
	<path d="M17,18.9c2,0,3.8-0.7,5.3-2.2c1.4-1.4,2.2-3.2,2.2-5.3c0-2-0.7-3.8-2.2-5.3C20.8,4.7,19,4,17,4c-2,0-3.8,0.7-5.3,2.2
		c-1.4,1.4-2.2,3.2-2.2,5.3c0,2,0.7,3.8,2.2,5.3C13.1,18.2,14.9,18.9,17,18.9z M13.1,7.6c1.1-1.1,2.3-1.6,3.8-1.6
		c1.5,0,2.7,0.5,3.8,1.6c1.1,1.1,1.6,2.3,1.6,3.8c0,1.5-0.5,2.7-1.6,3.8c-1.1,1.1-2.3,1.6-3.8,1.6s-2.7-0.5-3.8-1.6
		c-1.1-1.1-1.6-2.3-1.6-3.8C11.6,9.9,12.1,8.7,13.1,7.6z"/>
	<path d="M27.7,25.7c-0.1-0.4-0.2-0.9-0.3-1.2c0-0.1-0.1-0.3-0.2-0.4c-2.2,1.3-3.7,3.7-3.7,6.5c0,0.9,0.2,1.7,0.4,2.5h0.6
		c0.4,0,0.8-0.1,1.1-0.1c-0.3-0.7-0.5-1.5-0.5-2.3C25.1,28.5,26.1,26.7,27.7,25.7z"/>
	<path d="M30.9,23c-0.7,0-1.3,0.1-1.9,0.3c0.1,0.2,0.2,0.4,0.2,0.6c0.1,0.3,0.2,0.7,0.3,1c0.5-0.1,0.9-0.2,1.4-0.2
		c3.2,0,5.8,2.6,5.8,5.8c0,3.2-2.6,5.8-5.8,5.8c-1.6,0-3.1-0.7-4.2-1.8c-0.6,0.2-1.2,0.3-1.9,0.3c1.4,1.9,3.6,3.1,6.1,3.1
		c4.1,0,7.5-3.4,7.5-7.5C38.4,26.4,35.1,23,30.9,23z"/>
	<path d="M9.8,33c-1.1,0-2-0.3-2.6-0.9c-0.6-0.6-0.9-1.4-0.9-2.5c0-0.6,0-1.1,0.1-1.7c0-0.5,0.1-1.1,0.2-1.7C6.7,25.6,6.8,25,7,24.5
		c0.2-0.5,0.4-1,0.6-1.5c0.3-0.5,0.6-0.8,0.9-1.2c0.3-0.3,0.7-0.5,1.1-0.7c0.4-0.2,0.9-0.3,1.4-0.3c0.1,0,0.2,0.1,0.4,0.2
		c0.4,0.2,0.8,0.5,1.3,0.8c0.5,0.3,1.2,0.6,2,0.9c0.8,0.3,1.7,0.4,2.5,0.4c0.8,0,1.7-0.1,2.5-0.4c0.8-0.3,1.5-0.6,2-0.9
		c0.5-0.3,0.9-0.6,1.3-0.8c0.2-0.1,0.3-0.2,0.4-0.2c0.5,0,1,0.1,1.4,0.3c0.5,0.2,0.8,0.4,1.1,0.7c0.3,0.3,0.6,0.7,0.9,1.2
		c0.2,0.3,0.3,0.7,0.5,1c0.6-0.3,1.2-0.6,1.9-0.8c-0.2-0.4-0.4-0.8-0.6-1.2c-0.3-0.6-0.8-1.1-1.2-1.6c-0.5-0.5-1.1-0.8-1.7-1.1
		c-0.7-0.3-1.4-0.4-2.2-0.4c-0.3,0-0.6,0.1-1.2,0.5c-0.4,0.2-0.8,0.5-1.3,0.8c-0.4,0.3-1,0.5-1.6,0.7c-0.7,0.2-1.3,0.3-2,0.3
		c-0.7,0-1.3-0.1-2-0.3c-0.7-0.2-1.2-0.5-1.6-0.7c-0.5-0.3-0.9-0.6-1.3-0.8c-0.6-0.4-0.9-0.5-1.2-0.5c-0.8,0-1.6,0.1-2.2,0.4
		c-0.7,0.3-1.3,0.6-1.7,1.1c-0.5,0.4-0.9,1-1.2,1.6c-0.3,0.6-0.6,1.2-0.8,1.8c-0.2,0.6-0.4,1.3-0.5,2c-0.1,0.7-0.2,1.4-0.3,2
		c0,0.6-0.1,1.2-0.1,1.8c0,1.6,0.5,2.9,1.5,3.9c1,1,2.3,1.4,3.9,1.4h14.9c0.1,0,0.2,0,0.3,0c-0.4-0.6-0.8-1.2-1-1.9H9.8z"/>
	<path d="M25.6,32.9c-0.3,0.1-0.7,0.1-1.1,0.1h-0.6c0.2,0.7,0.6,1.3,1,1.9c0.7,0,1.3-0.1,1.9-0.3C26.3,34.1,25.9,33.5,25.6,32.9z"/>
	<path d="M27.3,24.5c0.1,0.4,0.2,0.8,0.3,1.2c0.6-0.4,1.2-0.7,1.9-0.8c-0.1-0.3-0.2-0.7-0.3-1c-0.1-0.2-0.1-0.4-0.2-0.6
		c-0.7,0.2-1.3,0.4-1.9,0.8C27.2,24.2,27.3,24.3,27.3,24.5z"/>
</g>
</svg>
