<?xml version="1.0" encoding="utf-8"?>
<!-- Generator: Adobe Illustrator 21.1.0, SVG Export Plug-In . SVG Version: 6.00 Build 0)  -->
<svg version="1.1" id="Ebene_1" xmlns="http://www.w3.org/2000/svg" xmlns:xlink="http://www.w3.org/1999/xlink" x="0px" y="0px"
	 viewBox="0 0 42.5 42.5" style="enable-background:new 0 0 42.5 42.5;" xml:space="preserve">
<path d="M34.8,12.7h-3.9v-0.8H34c0.4,0,0.8-0.4,0.8-0.8V4.8C34.8,4.4,34.5,4,34,4H6.8C6.3,4,6,4.4,6,4.8v32.4C6,37.6,6.3,38,6.8,38
	h28c0.4,0,0.8-0.3,0.8-0.8v-6.3c0-0.4-0.4-0.8-0.8-0.8h-3.9v-0.8h3.9c0.4,0,0.8-0.3,0.8-0.8v-6.3c0-0.4-0.4-0.8-0.8-0.8h-3.9v-0.8
	h3.9c0.4,0,0.8-0.3,0.8-0.8v-6.3C35.6,13,35.2,12.7,34.8,12.7z M7.9,5.9h3.3v30.4H7.9V5.9z M28.9,11.1v25.3H13V5.9h20v4.4h-3.3
	C29.3,10.3,28.9,10.7,28.9,11.1z M34,31.6v4.7h-3.1v-4.7C30.9,31.6,34,31.6,34,31.6z M34,23v4.7h-3.1V23H34z M34,19h-3.1v-4.7H34V19
	z M26.2,20.7c-0.2-0.5-0.5-0.9-1-1.2S24.3,19,23.7,19c-0.1,0-0.2,0.1-0.5,0.3c-0.3,0.1-0.4,0.3-0.6,0.3c-0.1,0.1-0.3,0.2-0.6,0.3
	c-0.2,0.1-0.5,0.2-0.7,0.2s-0.4,0.1-0.7,0.1c-0.2,0-0.4,0-0.7-0.1c-0.2,0-0.4-0.1-0.7-0.2c-0.2-0.1-0.4-0.2-0.6-0.3
	c-0.1-0.1-0.3-0.2-0.6-0.3c0-0.2-0.2-0.3-0.2-0.3c-0.6,0-1.1,0.1-1.5,0.4s-0.7,0.7-1,1.2c-0.2,0.5-0.4,1.1-0.5,1.6
	c-0.1,0.6-0.1,1.2-0.1,1.8c0,0.7,0.2,1.2,0.6,1.7c0.4,0.4,0.9,0.7,1.4,0.7h8.1c0.6,0,1-0.2,1.4-0.7c0.4-0.4,0.6-1,0.6-1.7
	s0-1.3-0.1-1.8C26.6,21.7,26.4,21.2,26.2,20.7z M20.7,19.5c1,0,1.8-0.3,2.5-1s1-1.5,1-2.5s-0.3-1.8-1-2.5s-1.5-1-2.5-1
	s-1.8,0.3-2.5,1s-1,1.5-1,2.5s0.3,1.8,1,2.5C18.9,19.2,19.8,19.5,20.7,19.5z"/>
</svg>
