<?xml version="1.0" encoding="utf-8"?>
<!-- Generator: Adobe Illustrator 21.1.0, SVG Export Plug-In . SVG Version: 6.00 Build 0)  -->
<svg version="1.1" id="Ebene_1" xmlns="http://www.w3.org/2000/svg" xmlns:xlink="http://www.w3.org/1999/xlink" x="0px" y="0px"
	 viewBox="0 0 42.5 42.5" style="enable-background:new 0 0 42.5 42.5;" xml:space="preserve">
<path d="M37.4,19.1H5.7c-0.2,0-0.4,0.1-0.5,0.2C5,19.4,5,19.6,5,19.8l2.7,14.4c0.1,0.3,0.3,0.5,0.7,0.5h26.3c0.4,0,0.6-0.2,0.7-0.5
	l2.7-14.4c0-0.2,0-0.3-0.2-0.5C37.8,19.2,37.7,19.1,37.4,19.1z M33,31.8c-0.1,0.3-0.3,0.5-0.7,0.5l-21.5,0c-0.3,0-0.6-0.2-0.7-0.5
	l-1.8-9.2c0-0.2,0-0.3,0.2-0.5C8.6,22,8.8,21.9,9,21.9h25.2c0.2,0,0.4,0.1,0.5,0.2c0.1,0.1,0.2,0.3,0.2,0.5L33,31.8z M9.8,18.1H7.2
	V8.1c0-0.5,0.4-0.8,1-0.8h7.6c0.3,0,0.7,0.2,0.8,0.4l1.4,2h17c0.5,0,1,0.4,1,0.8v7.7h-2.8v-5.8H9.8V18.1z"/>
</svg>
