<?xml version="1.0" encoding="utf-8"?>
<!-- Generator: Adobe Illustrator 21.1.0, SVG Export Plug-In . SVG Version: 6.00 Build 0)  -->
<svg version="1.1" id="Ebene_1" xmlns="http://www.w3.org/2000/svg" xmlns:xlink="http://www.w3.org/1999/xlink" x="0px" y="0px"
	 viewBox="0 0 42.5 42.5" style="enable-background:new 0 0 42.5 42.5;" xml:space="preserve">
<path d="M12.3,33.1c0-0.7-0.2-1.2-0.7-1.7c-0.5-0.5-1-0.7-1.7-0.7c-0.7,0-1.2,0.2-1.7,0.7c-0.5,0.5-0.7,1-0.7,1.7s0.2,1.2,0.7,1.7
	c0.5,0.5,1,0.7,1.7,0.7c0.7,0,1.2-0.2,1.7-0.7C12,34.4,12.3,33.8,12.3,33.1z M19.6,33.1c0-0.7-0.2-1.2-0.7-1.7
	c-0.5-0.5-1-0.7-1.7-0.7c-0.7,0-1.2,0.2-1.7,0.7c-0.5,0.5-0.7,1-0.7,1.7s0.2,1.2,0.7,1.7c0.5,0.5,1,0.7,1.7,0.7
	c0.7,0,1.2-0.2,1.7-0.7C19.3,34.4,19.6,33.8,19.6,33.1z M12.3,25.8c0-0.7-0.2-1.2-0.7-1.7c-0.5-0.5-1-0.7-1.7-0.7
	c-0.7,0-1.2,0.2-1.7,0.7c-0.5,0.5-0.7,1-0.7,1.7s0.2,1.2,0.7,1.7c0.5,0.5,1,0.7,1.7,0.7c0.7,0,1.2-0.2,1.7-0.7
	C12,27.1,12.3,26.5,12.3,25.8z M26.8,33.1c0-0.7-0.2-1.2-0.7-1.7c-0.5-0.5-1-0.7-1.7-0.7s-1.2,0.2-1.7,0.7c-0.5,0.5-0.7,1-0.7,1.7
	s0.2,1.2,0.7,1.7c0.5,0.5,1,0.7,1.7,0.7s1.2-0.2,1.7-0.7C26.6,34.4,26.8,33.8,26.8,33.1z M19.6,25.8c0-0.7-0.2-1.2-0.7-1.7
	c-0.5-0.5-1-0.7-1.7-0.7c-0.7,0-1.2,0.2-1.7,0.7c-0.5,0.5-0.7,1-0.7,1.7s0.2,1.2,0.7,1.7c0.5,0.5,1,0.7,1.7,0.7
	c0.7,0,1.2-0.2,1.7-0.7C19.3,27.1,19.6,26.5,19.6,25.8z M12.3,18.6c0-0.7-0.2-1.2-0.7-1.7c-0.5-0.5-1-0.7-1.7-0.7
	c-0.7,0-1.2,0.2-1.7,0.7c-0.5,0.5-0.7,1-0.7,1.7c0,0.7,0.2,1.2,0.7,1.7c0.5,0.5,1,0.7,1.7,0.7c0.7,0,1.2-0.2,1.7-0.7
	C12,19.8,12.3,19.2,12.3,18.6z M26.8,25.8c0-0.7-0.2-1.2-0.7-1.7c-0.5-0.5-1-0.7-1.7-0.7s-1.2,0.2-1.7,0.7c-0.5,0.5-0.7,1-0.7,1.7
	s0.2,1.2,0.7,1.7c0.5,0.5,1,0.7,1.7,0.7s1.2-0.2,1.7-0.7C26.6,27.1,26.8,26.5,26.8,25.8z M19.6,18.6c0-0.7-0.2-1.2-0.7-1.7
	c-0.5-0.5-1-0.7-1.7-0.7c-0.7,0-1.2,0.2-1.7,0.7c-0.5,0.5-0.7,1-0.7,1.7c0,0.7,0.2,1.2,0.7,1.7c0.5,0.5,1,0.7,1.7,0.7
	c0.7,0,1.2-0.2,1.7-0.7C19.3,19.8,19.6,19.2,19.6,18.6z M34.1,33.1v-7.3c0-0.7-0.2-1.2-0.7-1.7c-0.5-0.5-1-0.7-1.7-0.7
	s-1.2,0.2-1.7,0.7c-0.5,0.5-0.7,1-0.7,1.7v7.3c0,0.7,0.2,1.2,0.7,1.7c0.5,0.5,1,0.7,1.7,0.7s1.2-0.2,1.7-0.7
	C33.9,34.4,34.1,33.8,34.1,33.1z M26.8,18.6c0-0.7-0.2-1.2-0.7-1.7c-0.5-0.5-1-0.7-1.7-0.7s-1.2,0.2-1.7,0.7c-0.5,0.5-0.7,1-0.7,1.7
	c0,0.7,0.2,1.2,0.7,1.7c0.5,0.5,1,0.7,1.7,0.7s1.2-0.2,1.7-0.7C26.6,19.8,26.8,19.2,26.8,18.6z M34.1,12.5V7.6
	c0-0.3-0.1-0.6-0.4-0.9c-0.2-0.2-0.5-0.4-0.9-0.4H8.6C8.3,6.4,8,6.5,7.8,6.8C7.5,7,7.4,7.3,7.4,7.6v4.9c0,0.3,0.1,0.6,0.4,0.9
	s0.5,0.4,0.9,0.4h24.3c0.3,0,0.6-0.1,0.9-0.4C34,13.1,34.1,12.8,34.1,12.5z M34.1,18.6c0-0.7-0.2-1.2-0.7-1.7
	c-0.5-0.5-1-0.7-1.7-0.7s-1.2,0.2-1.7,0.7c-0.5,0.5-0.7,1-0.7,1.7c0,0.7,0.2,1.2,0.7,1.7c0.5,0.5,1,0.7,1.7,0.7s1.2-0.2,1.7-0.7
	C33.9,19.8,34.1,19.2,34.1,18.6z M36.6,6.4v29.1c0,0.7-0.2,1.2-0.7,1.7c-0.5,0.5-1,0.7-1.7,0.7H7.4c-0.7,0-1.2-0.2-1.7-0.7
	c-0.5-0.5-0.7-1-0.7-1.7V6.4c0-0.7,0.2-1.2,0.7-1.7S6.8,4,7.4,4h26.7c0.7,0,1.2,0.2,1.7,0.7C36.3,5.2,36.6,5.8,36.6,6.4z"/>
</svg>
