<?xml version="1.0" encoding="utf-8"?>
<!-- Generator: Adobe Illustrator 23.0.1, SVG Export Plug-In . SVG Version: 6.00 Build 0)  -->
<svg version="1.1" id="Ebene_1" xmlns="http://www.w3.org/2000/svg" xmlns:xlink="http://www.w3.org/1999/xlink" x="0px" y="0px"
	 viewBox="0 0 42.52 42.52" style="enable-background:new 0 0 42.52 42.52;" xml:space="preserve">
<path d="M38.41,8.43c-0.59-0.54-1.3-0.81-2.13-0.81H8.57c-0.83,0-1.54,0.27-2.13,0.81C6.19,8.66,6,8.92,5.86,9.19H34.5
	c0.87,0,1.62,0.28,2.24,0.85c0.62,0.57,0.93,1.25,0.93,2.05v19.44c0.26-0.13,0.51-0.28,0.74-0.49c0.59-0.54,0.88-1.19,0.88-1.94
	V10.38C39.29,9.62,39,8.97,38.41,8.43z"/>
<path d="M34.9,31.6V17.92c-0.4,0.41-1.29,1.06-1.75,1.41c-3.36,2.36-6.04,4.3-8.02,5.81c-0.64,0.49-1.16,0.88-1.56,1.15
	s-0.94,0.55-1.63,0.83c-0.68,0.28-1.33,0.42-1.93,0.42h-0.04c-0.6,0-1.25-0.14-1.93-0.42c-0.68-0.28-1.23-0.56-1.63-0.83
	c-0.4-0.28-0.92-0.66-1.56-1.15c-1.98-1.51-4.66-3.45-8.02-5.81c-0.46-0.34-1.38-1-1.78-1.41V31.6c0,0.15,0.06,0.28,0.18,0.39
	c0.12,0.11,0.26,0.16,0.42,0.16H34.3c0.16,0,0.3-0.05,0.42-0.16C34.84,31.88,34.9,31.75,34.9,31.6z M34.9,13.36v-0.63l-0.01-0.03
	l-0.06-0.42l-0.1-0.16l-0.17-0.13l-0.26-0.04H5.65c-0.16,0-0.3,0.06-0.42,0.17s-0.18,0.24-0.18,0.4c0,1.97,1.4,3.84,3.25,5.2
	c2.42,1.79,4.94,3.65,7.55,5.59c0.08,0.06,0.29,0.23,0.66,0.52s0.65,0.51,0.87,0.66c0.21,0.15,0.49,0.34,0.84,0.56
	c0.35,0.22,0.66,0.38,0.95,0.48c0.29,0.11,0.56,0.16,0.81,0.16h0.04c0.25,0,0.52-0.05,0.81-0.16s0.61-0.27,0.95-0.48
	c0.35-0.22,0.62-0.4,0.84-0.56c0.21-0.15,0.5-0.37,0.87-0.66s0.58-0.46,0.66-0.52c2.61-1.94,5.13-3.8,7.55-5.59
	c0.68-0.51,1.85-1.47,2.43-2.32C34.69,14.54,34.9,14.05,34.9,13.36z M36.86,12.69V31.4c0,0.76-0.29,1.4-0.88,1.94
	c-0.59,0.54-1.3,0.81-2.13,0.81H6.13c-0.83,0-1.54-0.27-2.13-0.81s-0.88-1.19-0.88-1.94V12.69c0-0.76,0.29-1.4,0.88-1.94
	c0.59-0.54,1.3-0.81,2.13-0.81h27.71c0.83,0,1.54,0.27,2.13,0.81C36.56,11.28,36.86,11.93,36.86,12.69z"/>
<path d="M17.47,19.58h2.24c0.44,0,0.84,0.01,1.19,0.04c0.35,0.03,0.7,0.08,1.05,0.15c0.35,0.07,0.65,0.17,0.91,0.29
	c0.26,0.12,0.5,0.28,0.72,0.47c0.22,0.19,0.4,0.42,0.54,0.69c0.14,0.27,0.25,0.58,0.33,0.94c0.08,0.36,0.12,0.77,0.12,1.23
	c0,0.25-0.01,0.53-0.03,0.84c0,0.03-0.01,0.08-0.02,0.16c-0.01,0.08-0.02,0.14-0.02,0.18c0,0.07,0.02,0.12,0.06,0.17
	c0.04,0.05,0.09,0.07,0.16,0.07c0.07,0,0.14-0.04,0.19-0.12c0.03-0.04,0.06-0.09,0.09-0.15c0.03-0.06,0.06-0.13,0.09-0.2
	c0.03-0.08,0.06-0.13,0.07-0.16c0.58-1.29,0.86-2.32,0.86-3.07c0-0.9-0.12-1.66-0.36-2.27c-0.73-1.83-2.72-2.74-5.95-2.74h-2.24
	 M13.96,17.53"/>
<path d="M17.77,18.87l1.78,1.78c0.15,0.15,0.23,0.33,0.23,0.55s-0.08,0.4-0.23,0.55l-0.45,0.45c-0.15,0.15-0.34,0.23-0.55,0.23
	c-0.21,0-0.4-0.08-0.55-0.23l-3.95-3.95c-0.15-0.14-0.22-0.32-0.22-0.55c0-0.22,0.07-0.4,0.22-0.55L18,13.2
	c0.16-0.15,0.34-0.22,0.55-0.22c0.21,0,0.39,0.07,0.55,0.22l0.45,0.45c0.15,0.15,0.23,0.34,0.23,0.55s-0.08,0.4-0.23,0.55
	l-1.78,1.78"/>
</svg>
