<?xml version="1.0" encoding="utf-8"?>
<!-- Generator: Adobe Illustrator 25.0.1, SVG Export Plug-In . SVG Version: 6.00 Build 0)  -->
<svg version="1.1" id="Ebene_1" xmlns="http://www.w3.org/2000/svg" xmlns:xlink="http://www.w3.org/1999/xlink" x="0px" y="0px"
	 viewBox="0 0 42.5 42.5" style="enable-background:new 0 0 42.5 42.5;" xml:space="preserve">
<path d="M30.7,7.1c-2.7-1.9-5.9-3-9.4-3.1v9.9c1.3,0.1,2.6,0.5,3.6,1.2L30.7,7.1z"/>
<path d="M27.7,18.5l9.4-3.1c-1.1-3.2-3.2-6-5.8-8l-5.8,8C26.4,16.2,27.2,17.3,27.7,18.5z"/>
<path d="M37.3,16.1L35,16.9c0.4,1.3,0.6,2.7,0.6,4.1c0,2.6-0.7,5.1-2,7.3c-1.3,2.2-3.1,4-5.3,5.3c-2.2,1.3-4.7,2-7.3,2
	c-2.6,0-5.1-0.7-7.3-2c-2.2-1.3-4-3.1-5.3-5.3c-1.3-2.2-2-4.7-2-7.3s0.7-5.1,2-7.3c1.3-2.2,3.1-4,5.3-5.3c2.2-1.3,4.5-1.9,7.1-1.9
	l0-2.4c-3,0-5.7,0.8-8.3,2.3c-2.6,1.5-4.7,3.6-6.2,6.2C4.8,15.1,4,17.9,4,21c0,3.1,0.8,5.9,2.3,8.5s3.6,4.7,6.2,6.2
	c2.6,1.5,5.5,2.3,8.5,2.3c3.1,0,5.9-0.8,8.5-2.3c2.6-1.5,4.7-3.6,6.2-6.2S38,24.1,38,21C38,19.3,37.8,17.7,37.3,16.1z"/>
</svg>
