<?xml version="1.0" encoding="utf-8"?>
<!-- Generator: Adobe Illustrator 21.1.0, SVG Export Plug-In . SVG Version: 6.00 Build 0)  -->
<svg version="1.1" id="Ebene_1" xmlns="http://www.w3.org/2000/svg" xmlns:xlink="http://www.w3.org/1999/xlink" x="0px" y="0px"
	 viewBox="0 0 42.5 42.5" style="enable-background:new 0 0 42.5 42.5;" xml:space="preserve">
<path d="M12.5,35.2h17v-8.5h-17V35.2z M32.3,35.2h2.8V15.3c0-0.2-0.1-0.5-0.2-0.9s-0.3-0.6-0.4-0.8l-6.2-6.2
	c-0.1-0.1-0.4-0.3-0.8-0.4c-0.4-0.1-0.6-0.2-0.9-0.2V16c0,0.6-0.2,1.1-0.6,1.5c-0.4,0.4-0.9,0.6-1.5,0.6H11.8
	c-0.6,0-1.1-0.2-1.5-0.6c-0.4-0.4-0.6-0.9-0.6-1.5V6.8H6.8v28.3h2.8V26c0-0.6,0.2-1.1,0.6-1.5c0.4-0.4,0.9-0.6,1.5-0.6h18.4
	c0.6,0,1.1,0.2,1.5,0.6s0.6,0.9,0.6,1.5V35.2z M23.8,14.6V7.5c0-0.2-0.1-0.4-0.2-0.5c-0.1-0.1-0.3-0.2-0.5-0.2h-4.3
	c-0.2,0-0.4,0.1-0.5,0.2c-0.1,0.1-0.2,0.3-0.2,0.5v7.1c0,0.2,0.1,0.4,0.2,0.5c0.1,0.1,0.3,0.2,0.5,0.2h4.3c0.2,0,0.4-0.1,0.5-0.2
	C23.8,15,23.8,14.8,23.8,14.6z M38,15.3v20.6c0,0.6-0.2,1.1-0.6,1.5C37,37.8,36.5,38,35.9,38H6.1c-0.6,0-1.1-0.2-1.5-0.6
	C4.2,37,4,36.5,4,35.9V6.1C4,5.5,4.2,5,4.6,4.6C5,4.2,5.5,4,6.1,4h20.6c0.6,0,1.2,0.1,1.9,0.4c0.7,0.3,1.3,0.6,1.7,1.1l6.2,6.2
	c0.4,0.4,0.8,1,1.1,1.7S38,14.7,38,15.3z"/>
</svg>
