<?xml version="1.0" encoding="utf-8"?>
<!-- Generator: Adobe Illustrator 21.1.0, SVG Export Plug-In . SVG Version: 6.00 Build 0)  -->
<svg version="1.1" id="Ebene_1" xmlns="http://www.w3.org/2000/svg" xmlns:xlink="http://www.w3.org/1999/xlink" x="0px" y="0px"
	 viewBox="0 0 42.5 42.5" style="enable-background:new 0 0 42.5 42.5;" xml:space="preserve">
<style type="text/css">
	.st0{fill:#FFED00;}
</style>
<rect x="3.1" y="10.2" class="st0" width="27.6" height="22"/>
<path d="M7.4,24.4c0.8-0.5,2.4-1.2,4.7-2.1v-1.1c0-0.9-0.1-1.5-0.3-1.8c-0.3-0.6-0.9-0.9-1.8-0.9c-0.4,0-0.9,0.1-1.2,0.3
	c-0.4,0.2-0.6,0.5-0.6,1c0,0.1,0,0.3,0.1,0.5c0,0.2,0.1,0.4,0.1,0.5c0,0.5-0.2,0.8-0.5,1C7.7,21.9,7.5,22,7.2,22
	c-0.4,0-0.7-0.1-0.9-0.4C6.1,21.4,6,21.1,6,20.8c0-0.6,0.4-1.2,1.1-1.9c0.7-0.7,1.8-1,3.3-1c1.7,0,2.8,0.5,3.4,1.6
	c0.3,0.6,0.5,1.5,0.5,2.6v5.2c0,0.5,0,0.8,0.1,1c0.1,0.3,0.3,0.5,0.7,0.5c0.2,0,0.4,0,0.5-0.1c0.1-0.1,0.4-0.2,0.7-0.4V29
	c-0.3,0.3-0.6,0.6-0.9,0.8c-0.5,0.3-1,0.5-1.5,0.5c-0.6,0-1-0.2-1.3-0.6s-0.4-0.8-0.4-1.4c-0.7,0.6-1.2,1-1.7,1.3
	c-0.8,0.5-1.5,0.7-2.2,0.7c-0.7,0-1.4-0.3-1.9-0.8c-0.5-0.5-0.8-1.2-0.8-2C5.5,26.3,6.2,25.3,7.4,24.4z M12.1,23
	c-1,0.3-1.8,0.7-2.4,1.1c-1.2,0.8-1.9,1.6-1.9,2.6c0,0.8,0.3,1.4,0.8,1.7c0.3,0.2,0.7,0.4,1.1,0.4c0.6,0,1.1-0.2,1.6-0.5
	s0.8-0.7,0.8-1.2V23z M16.4,13.7v-0.4c1-0.2,1.9-0.5,2.6-0.7c0.8-0.3,1.2-0.4,1.3-0.4c0,0.1,0,0.1,0,0.2v7.8c0.2-0.4,0.6-0.8,1-1.2
	c0.8-0.6,1.7-1,2.7-1c1.3,0,2.3,0.5,3.2,1.6s1.3,2.4,1.3,4.1c0,1.8-0.6,3.4-1.7,4.7c-1.2,1.3-2.7,1.9-4.6,1.9c-1,0-1.9-0.2-2.8-0.6
	c-0.9-0.4-1.4-0.8-1.4-1.1V15.1c0-0.5-0.1-0.9-0.2-1.1c-0.1-0.2-0.5-0.3-1-0.3L16.4,13.7z M21.3,29.2c0.6,0.2,1.1,0.3,1.6,0.3
	c1.2,0,2.1-0.4,2.7-1.3c0.6-0.9,0.9-2,0.9-3.3s-0.3-2.5-0.8-3.5c-0.5-1.1-1.4-1.6-2.6-1.6c-0.6,0-1.2,0.2-1.8,0.6
	c-0.6,0.4-0.9,0.8-0.9,1.4v6.6C20.3,28.7,20.7,29,21.3,29.2z M35,22.8c0.1,0,0.3,0,0.3-0.1l3.5-3.5c0.1-0.1,0.1-0.2,0.1-0.3
	s0-0.3-0.1-0.3c-0.1-0.1-0.2-0.1-0.3-0.1h-7c-0.1,0-0.3,0-0.3,0.1c-0.1,0.1-0.1,0.2-0.1,0.3s0,0.3,0.1,0.3l3.5,3.5
	C34.8,22.8,34.9,22.8,35,22.8z"/>
</svg>
