<?xml version="1.0" encoding="utf-8"?>
<!-- Generator: Adobe Illustrator 21.1.0, SVG Export Plug-In . SVG Version: 6.00 Build 0)  -->
<svg version="1.1" id="Ebene_1" xmlns="http://www.w3.org/2000/svg" xmlns:xlink="http://www.w3.org/1999/xlink" x="0px" y="0px"
	 viewBox="0 0 42.5 42.5" style="enable-background:new 0 0 42.5 42.5;" xml:space="preserve">
<path d="M30.6,26.3c-1-0.2-1.2-0.1-1.2-0.1c0.1-0.2,1.1-6.4,1.1-10.5C30.5,9.2,26.3,4,21.2,4c-1.9,0-3.6,0.7-5.1,1.9
	c-0.3,0.2-0.5,0.4-0.7,0.6c-2.2,2.1-3.6,5.5-3.6,9.2c0,4.4,0.9,10.1,0.8,10.1c-3,1.1-4.3,4.1-4.3,6.3V38H34v-5.9
	C34,29.7,32.7,26.7,30.6,26.3z M14.7,10.7h12.8l0,0.9l-12.8,0.1V10.7z M23.7,31h-1.2v2.4h-2.2V31h-1.2v-2.2h1.2v-1.2h2.2v1.2h1.2V31
	z M27.1,16.5c-0.6,2.1-1.7,3.8-3.3,5.1c-0.8,0.7-1.7,1.1-2.6,1.1c-0.9,0-1.8-0.4-2.6-1.1c-1.6-1.3-2.8-3.5-3.4-5.7
	c0,0-0.5-2.5-0.5-3.1c0-0.1,12.9,0,12.9,0C27.6,14.6,27.1,16.5,27.1,16.5z"/>
</svg>
