<?xml version="1.0" encoding="utf-8"?>
<!-- Generator: Adobe Illustrator 21.1.0, SVG Export Plug-In . SVG Version: 6.00 Build 0)  -->
<svg version="1.1" id="Ebene_1" xmlns="http://www.w3.org/2000/svg" xmlns:xlink="http://www.w3.org/1999/xlink" x="0px" y="0px"
	 viewBox="0 0 42.5 42.5" style="enable-background:new 0 0 42.5 42.5;" xml:space="preserve">
<path d="M32.5,17.1h-0.7v-3.3c0,0,0,0,0-0.1c0-0.1,0-0.3-0.1-0.4l-5.5-6.2c0,0,0,0,0,0c0,0-0.1-0.1-0.1-0.1c0,0,0,0,0,0
	c0,0-0.1,0-0.1,0c0,0,0,0,0,0c0,0-0.1,0-0.1,0H12.4c-0.6,0-1.1,0.5-1.1,1.1v9h-0.7c-0.9,0-1.6,0.7-1.6,1.6V27c0,0.9,0.7,1.6,1.6,1.6
	h0.7v5.7c0,0.6,0.5,1.1,1.1,1.1h18.3c0.6,0,1.1-0.5,1.1-1.1v-5.7h0.7c0.9,0,1.6-0.7,1.6-1.6v-8.3C34.1,17.8,33.4,17.1,32.5,17.1
	L32.5,17.1z M12.4,8.1h12.9v5.7c0,0.3,0.2,0.6,0.6,0.6h4.9v2.8H12.4V8.1z M25.8,22.3c0,1.4-0.5,2.4-1.2,3c-0.8,0.7-2,1-3.4,1
	c-0.9,0-1.5-0.1-1.9-0.1v-7.3c0.6-0.1,1.4-0.2,2.3-0.2c1.4,0,2.3,0.3,3.1,0.8C25.4,20.1,25.8,21,25.8,22.3L25.8,22.3z M10.9,22.5
	c0-2.2,1.4-3.9,3.6-3.9c2.3,0,3.5,1.7,3.5,3.8c0,2.5-1.5,3.9-3.7,3.9C12.2,26.3,10.9,24.7,10.9,22.5L10.9,22.5z M30.7,33.9H12.4
	v-5.4h18.3V33.9z M28.8,26.3c-0.9,0-1.7-0.2-2.1-0.5l0.3-1.4c0.5,0.2,1.2,0.5,1.9,0.5c0.8,0,1.2-0.3,1.2-0.8c0-0.5-0.4-0.7-1.3-1.1
	c-1.2-0.4-2.1-1.1-2.1-2.2c0-1.3,1.1-2.3,2.8-2.3c0.8,0,1.5,0.2,1.9,0.4l-0.4,1.4c-0.3-0.1-0.8-0.4-1.6-0.4c-0.7,0-1.1,0.3-1.1,0.7
	c0,0.5,0.4,0.7,1.4,1.1c1.3,0.5,1.9,1.2,1.9,2.2C31.8,25.3,30.8,26.3,28.8,26.3L28.8,26.3z M28.8,26.3 M21.7,20
	c-0.4,0-0.6,0-0.8,0.1v4.9c0.1,0,0.4,0,0.6,0c1.5,0,2.5-0.8,2.5-2.6C24.1,20.8,23.1,20,21.7,20L21.7,20z M21.7,20 M16.3,22.5
	c0-1.3-0.6-2.5-1.8-2.5c-1.1,0-1.8,1.1-1.8,2.5c0,1.5,0.7,2.5,1.8,2.5C15.7,25,16.3,23.9,16.3,22.5L16.3,22.5z M16.3,22.5"/>
</svg>
