<?xml version="1.0" encoding="utf-8"?>
<!-- Generator: Adobe Illustrator 21.1.0, SVG Export Plug-In . SVG Version: 6.00 Build 0)  -->
<svg version="1.1" id="Ebene_1" xmlns="http://www.w3.org/2000/svg" xmlns:xlink="http://www.w3.org/1999/xlink" x="0px" y="0px"
	 viewBox="0 0 42.5 42.5" style="enable-background:new 0 0 42.5 42.5;" xml:space="preserve">
<path d="M19.8,32.9c-0.8-1.3-1.2-2.8-1.3-4.4h-7.2c-0.2,0-0.3-0.1-0.4-0.2c-0.1-0.1-0.2-0.2-0.2-0.4v-1.1c0-0.2,0.1-0.3,0.2-0.4
	c0.1-0.1,0.2-0.2,0.4-0.2h7.3c0.1-0.8,0.3-1.5,0.6-2.2h-7.9c-0.2,0-0.3-0.1-0.4-0.2c-0.1-0.1-0.2-0.2-0.2-0.4v-1.1
	c0-0.2,0.1-0.3,0.2-0.4c0.1-0.1,0.2-0.2,0.4-0.2h9.3c0.7-0.9,1.5-1.6,2.5-2.2H11.3c-0.2,0-0.3-0.1-0.4-0.2c-0.1-0.1-0.2-0.2-0.2-0.4
	v-1.1c0-0.2,0.1-0.3,0.2-0.4c0.1-0.1,0.2-0.2,0.4-0.2h12.3c0.2,0,0.3,0.1,0.4,0.2c0.1,0.1,0.2,0.2,0.2,0.4V19
	c1.3-0.6,2.7-0.9,4.2-0.9c0.9,0,1.7,0.1,2.5,0.3v-4.9c0-0.5-0.1-1-0.3-1.5c-0.2-0.6-0.5-1-0.8-1.3l-5.4-5.4
	c-0.3-0.3-0.8-0.6-1.3-0.8S21.8,4,21.3,4H5.7C5.2,4,4.8,4.2,4.5,4.5C4.2,4.8,4,5.2,4,5.7v27.9c0,0.5,0.2,0.9,0.5,1.2
	c0.3,0.3,0.7,0.5,1.2,0.5h16C20.9,34.6,20.3,33.8,19.8,32.9z M21.9,6.4c0.3,0.1,0.6,0.2,0.7,0.4l5.5,5.5c0.1,0.1,0.3,0.4,0.4,0.7
	h-6.6V6.4z M38.2,27.9c0,1.8-0.4,3.4-1.3,5s-2.1,2.7-3.6,3.6c-1.5,0.9-3.2,1.3-5,1.3c-1.8,0-3.4-0.4-5-1.3c-0.6-0.4-1.2-0.8-1.7-1.2
	h3.8c0.9,0.4,1.9,0.5,2.9,0.5c1.4,0,2.7-0.4,3.9-1.1s2.2-1.7,2.9-2.9s1.1-2.5,1.1-3.9c0-1.4-0.4-2.7-1.1-3.9s-1.7-2.2-2.9-2.9
	c-0.5-0.3-1-0.5-1.4-0.6v-2.1c0.9,0.2,1.7,0.6,2.5,1c1.5,0.9,2.7,2.1,3.6,3.6C37.8,24.5,38.2,26.2,38.2,27.9z M28.3,18.1
	c0.9,0,1.7,0.1,2.5,0.3v2.1c-0.8-0.3-1.6-0.4-2.5-0.4c-1.4,0-2.7,0.4-3.9,1.1c-0.4,0.2-0.7,0.4-1,0.7h-2.8c0.7-0.9,1.5-1.6,2.5-2.2
	h0.5c0.2,0,0.3-0.1,0.4-0.2c0.1-0.1,0.2-0.2,0.2-0.4v0C25.4,18.4,26.8,18.1,28.3,18.1z M20.6,26.3h-2.1c0.1-0.8,0.3-1.5,0.6-2.2h2.3
	C21.1,24.8,20.8,25.5,20.6,26.3z M30.8,23.5v8.2c0,0.1-0.1,0.2-0.1,0.3c-0.1,0.1-0.2,0.2-0.4,0.2h-5.7c-0.2,0-0.3-0.1-0.4-0.2
	S24,31.7,24,31.5v-1.1c0-0.2,0.1-0.3,0.2-0.4s0.2-0.2,0.4-0.2h4v-6.2c0-0.2,0.1-0.3,0.2-0.4S29,23,29.1,23h1.1
	c0.2,0,0.3,0.1,0.4,0.2C30.7,23.2,30.8,23.4,30.8,23.5z M25.4,35.3h-3.8c-0.7-0.7-1.4-1.5-1.9-2.3c-0.8-1.3-1.2-2.8-1.3-4.4h2
	c0.1,1.2,0.4,2.3,1,3.3c0.7,1.2,1.7,2.2,2.9,2.9C24.7,35,25.1,35.1,25.4,35.3z M21.5,24.1h-2.3c0.2-0.4,0.3-0.7,0.5-1.1
	c0.2-0.4,0.5-0.8,0.8-1.1h2.8C22.6,22.4,22,23.2,21.5,24.1C21.5,24,21.5,24.1,21.5,24.1z M20.5,27.9c0,0.2,0,0.4,0,0.6h-2
	c0-0.2,0-0.4,0-0.6c0-0.6,0.1-1.1,0.1-1.6h2.1C20.5,26.8,20.5,27.4,20.5,27.9z"/>
</svg>
