<?xml version="1.0" encoding="utf-8"?>
<!-- Generator: Adobe Illustrator 21.1.0, SVG Export Plug-In . SVG Version: 6.00 Build 0)  -->
<svg version="1.1" id="Ebene_1" xmlns="http://www.w3.org/2000/svg" xmlns:xlink="http://www.w3.org/1999/xlink" x="0px" y="0px"
	 viewBox="0 0 42.5 42.5" style="enable-background:new 0 0 42.5 42.5;" xml:space="preserve">
<path d="M33,21c0-2.2-0.5-4.2-1.6-6c-1.1-1.8-2.5-3.3-4.4-4.4S23.2,9,21,9s-4.2,0.5-6,1.6s-3.3,2.5-4.4,4.4S9,18.8,9,21
	s0.5,4.2,1.6,6s2.5,3.3,4.4,4.4c1.8,1.1,3.9,1.6,6,1.6s4.2-0.5,6-1.6c1.8-1.1,3.3-2.5,4.4-4.4C32.5,25.2,33,23.2,33,21z M38,21
	c0,3.1-0.8,5.9-2.3,8.5c-1.5,2.6-3.6,4.7-6.2,6.2C26.9,37.2,24.1,38,21,38c-3.1,0-5.9-0.8-8.5-2.3c-2.6-1.5-4.7-3.6-6.2-6.2
	S4,24.1,4,21c0-3.1,0.8-5.9,2.3-8.5s3.6-4.7,6.2-6.2S17.9,4,21,4c3.1,0,5.9,0.8,8.5,2.3s4.7,3.6,6.2,6.2C37.2,15.1,38,17.9,38,21z
	 M32,13.7L13.2,32.5L10,29.3l18.9-18.9L32,13.7z"/>
</svg>
