<?xml version="1.0" encoding="utf-8"?>
<!-- Generator: Adobe Illustrator 21.1.0, SVG Export Plug-In . SVG Version: 6.00 Build 0)  -->
<svg version="1.1" id="Ebene_1" xmlns="http://www.w3.org/2000/svg" xmlns:xlink="http://www.w3.org/1999/xlink" x="0px" y="0px"
	 viewBox="0 0 42.5 42.5" style="enable-background:new 0 0 42.5 42.5;" xml:space="preserve">
<path d="M21.6,32.3c3,0,5.3-0.2,8.4-1c2.8-0.7,4.8-1.6,6.2-3.2v5c0,0.9-0.7,1.7-2,2.4s-3.1,1.3-5.3,1.8S24.2,38,21.6,38
	s-5.1-0.2-7.3-0.7s-4-1-5.3-1.8S7,34,7,33.1v-5.3c0.7,1.2,2.3,2.4,6,3.5C15.7,32,18.6,32.3,21.6,32.3z M21.6,4
	c2.6,0,5.1,0.2,7.3,0.7c2.2,0.4,4,1,5.3,1.8s2,1.6,2,2.4v2.4c0,0.9-0.7,1.7-2,2.4c-1.3,0.7-3.1,1.3-5.3,1.8s-4.7,0.7-7.3,0.7
	s-5.1-0.2-7.3-0.7s-4-1-5.3-1.8c-1.3-0.7-2-1.6-2-2.4V8.9C7,8,7.7,7.2,9,6.4s3.1-1.3,5.3-1.8C16.5,4.2,18.9,4,21.6,4z M21.6,24.9
	c3,0,5.3-0.2,8.4-1c2.8-0.7,4.8-1.6,6.2-3.2v5.1c0,0.9-0.7,1.7-2,2.4s-3.1,1.3-5.3,1.8c-2.2,0.4-4.7,0.7-7.3,0.7s-5.1-0.2-7.3-0.7
	c-2.2-0.4-4-1-5.3-1.8s-2-1.6-2-2.4v-5.4c0.7,1.2,2.3,2.4,6,3.5C15.7,24.6,18.6,24.9,21.6,24.9z M21.6,17.7c3,0,5.3-0.2,8.4-1
	c2.8-0.7,4.8-1.6,6.2-3.2v5c0,0.9-0.7,1.7-2,2.4s-3.1,1.3-5.3,1.8c-2.2,0.4-4.7,0.7-7.3,0.7s-5.1-0.2-7.3-0.7c-2.2-0.4-4-1-5.3-1.8
	s-2-1.6-2-2.4v-5.3c0.7,1.2,2.3,2.4,6,3.5C15.7,17.4,18.6,17.7,21.6,17.7z"/>
</svg>
