<?xml version="1.0" encoding="utf-8"?>
<!-- Generator: Adobe Illustrator 21.1.0, SVG Export Plug-In . SVG Version: 6.00 Build 0)  -->
<svg version="1.1" id="Ebene_1" xmlns="http://www.w3.org/2000/svg" xmlns:xlink="http://www.w3.org/1999/xlink" x="0px" y="0px"
	 viewBox="0 0 42.5 42.5" style="enable-background:new 0 0 42.5 42.5;" xml:space="preserve">
<path d="M33.8,11.9c-0.1-0.1-0.3-0.2-0.4-0.2h-5.7l-1.3-3.1c-0.2-0.5-0.5-0.8-1-1.2c-0.5-0.3-1-0.5-1.5-0.5H18c-0.5,0-1,0.2-1.5,0.5
	c-0.5,0.3-0.8,0.7-1,1.2l-1.3,3.1H8.6c-0.2,0-0.3,0.1-0.4,0.2S8,12.1,8,12.3v1.2c0,0.2,0.1,0.3,0.2,0.4c0.1,0.1,0.3,0.2,0.4,0.2h1.8
	v17.6c0,1,0.3,1.9,0.9,2.6s1.3,1.1,2.1,1.1h15.4c0.8,0,1.5-0.4,2.1-1.1s0.9-1.6,0.9-2.6V14.1h1.8c0.2,0,0.3-0.1,0.4-0.2
	c0.1-0.1,0.2-0.3,0.2-0.4v-1.2C34,12.1,33.9,12,33.8,11.9z M17.8,9.6c0.1-0.1,0.2-0.2,0.3-0.2h5.9c0.1,0,0.2,0.1,0.3,0.2l0.9,2.2
	h-8.3L17.8,9.6z M17.4,28.5c0,0.2-0.1,0.3-0.2,0.4s-0.3,0.2-0.4,0.2h-1.2c-0.2,0-0.3-0.1-0.4-0.2c-0.1-0.1-0.2-0.3-0.2-0.4V17.9
	c0-0.2,0.1-0.3,0.2-0.4c0.1-0.1,0.3-0.2,0.4-0.2h1.2c0.2,0,0.3,0.1,0.4,0.2s0.2,0.3,0.2,0.4V28.5z M22.2,28.5c0,0.2-0.1,0.3-0.2,0.4
	s-0.3,0.2-0.4,0.2h-1.2c-0.2,0-0.3-0.1-0.4-0.2s-0.2-0.3-0.2-0.4V17.9c0-0.2,0.1-0.3,0.2-0.4s0.3-0.2,0.4-0.2h1.2
	c0.2,0,0.3,0.1,0.4,0.2s0.2,0.3,0.2,0.4V28.5z M26.9,28.5c0,0.2-0.1,0.3-0.2,0.4c-0.1,0.1-0.3,0.2-0.4,0.2h-1.2
	c-0.2,0-0.3-0.1-0.4-0.2s-0.2-0.3-0.2-0.4V17.9c0-0.2,0.1-0.3,0.2-0.4s0.3-0.2,0.4-0.2h1.2c0.2,0,0.3,0.1,0.4,0.2
	c0.1,0.1,0.2,0.3,0.2,0.4V28.5z"/>
</svg>
