<?xml version="1.0" encoding="utf-8"?>
<!-- Generator: Adobe Illustrator 21.1.0, SVG Export Plug-In . SVG Version: 6.00 Build 0)  -->
<svg version="1.1" id="Ebene_1" xmlns="http://www.w3.org/2000/svg" xmlns:xlink="http://www.w3.org/1999/xlink" x="0px" y="0px"
	 viewBox="0 0 42.5 42.5" style="enable-background:new 0 0 42.5 42.5;" xml:space="preserve">
<path d="M13.7,19.7h19v-4c0-0.7-0.2-1.2-0.7-1.7c-0.5-0.5-1-0.7-1.7-0.7H16c-0.7,0-1.2-0.2-1.7-0.7c-0.5-0.5-0.7-1-0.7-1.7V9.4
	c0-0.7-0.2-1.2-0.7-1.7C12.5,7.2,12,7,11.3,7H3.4C2.7,7,2.2,7.2,1.7,7.7S1,8.7,1,9.4v21.1l6.3-7.8c0.7-0.9,1.7-1.6,2.9-2.2
	C11.4,19.9,12.5,19.7,13.7,19.7z M20.5,30.5c0.3,0,0.6,0,1-0.1c0.4-0.1,0.8-0.1,1.2-0.3c0.4-0.1,0.8-0.2,1.2-0.3
	c0.3-0.1,0.7-0.2,1.2-0.4c0.5-0.1,0.8-0.2,1-0.3c1.4-0.4,5-1.4,10.7-3.1c1.1-0.3,2.1-0.7,3.1-1.2c0.9-0.5,1.6-0.9,2-1.4
	c0.3-0.4,0.3-0.8,0-1.1c-0.3-0.3-0.9-0.4-1.7-0.5L14,21.9c-0.9,0-1.7,0.2-2.5,0.5c-0.7,0.3-1.3,0.7-1.7,1.2c-0.3,0.4-0.3,0.8,0,1.3
	c0.3,0.5,0.7,0.8,1.2,1.1l0,0c0.3,0.2,1.2,0.6,2.6,1.4c1.4,0.8,2.6,1.3,3.3,1.7c0.1,0,0.3,0.1,0.5,0.3c0.3,0.2,0.5,0.3,0.7,0.4
	c0.2,0.1,0.4,0.2,0.7,0.3c0.3,0.1,0.5,0.2,0.8,0.3 M11,26 M37.9,27.1c-5.1,1.4-8.7,2.7-11.4,3.5c-0.9,0.3-1.6,0.5-2.2,0.6
	c-0.5,0.1-1.2,0.3-2.1,0.5c-0.8,0.2-1.8,0.3-2.4,0.3l0,0c-0.6,0-1.2-0.1-1.8-0.2c-0.6-0.2-1-0.3-1.4-0.5c-0.3-0.1-0.7-0.4-1.2-0.6
	c-1.1-0.6-3.3-1.7-6.5-3.3c-0.5-0.2-0.9-0.5-1.2-0.8l-5.9,7.2c-0.3,0.4-0.3,0.8,0,1.1c0.3,0.3,0.9,0.4,1.7,0.5l26.8,0.1
	c0.8,0,1.6-0.1,2.4-0.4c0.8-0.3,1.4-0.7,1.7-1.1l5.9-7.5C39.7,26.6,38.8,26.9,37.9,27.1L37.9,27.1z M37.9,27.1"/>
</svg>
