<?xml version="1.0" encoding="utf-8"?>
<!-- Generator: Adobe Illustrator 21.1.0, SVG Export Plug-In . SVG Version: 6.00 Build 0)  -->
<svg version="1.1" id="Ebene_1" xmlns="http://www.w3.org/2000/svg" xmlns:xlink="http://www.w3.org/1999/xlink" x="0px" y="0px"
	 viewBox="0 0 42.5 42.5" style="enable-background:new 0 0 42.5 42.5;" xml:space="preserve">
<path d="M32.5,17.1h-0.7v-3.3c0,0,0,0,0-0.1c0-0.1,0-0.3-0.1-0.4l-5.5-6.2c0,0,0,0,0,0c0,0-0.1-0.1-0.1-0.1c0,0,0,0,0,0
	c0,0-0.1,0-0.1,0c0,0,0,0,0,0c0,0-0.1,0-0.1,0H12.4c-0.6,0-1.1,0.5-1.1,1.1v9h-0.7c-0.9,0-1.6,0.7-1.6,1.6V27c0,0.9,0.7,1.6,1.6,1.6
	h0.7v5.7c0,0.6,0.5,1.1,1.1,1.1h18.3c0.6,0,1.1-0.5,1.1-1.1v-5.7h0.7c0.9,0,1.6-0.7,1.6-1.6v-8.3C34.1,17.8,33.4,17.1,32.5,17.1z
	 M23.6,8.2c0.4,0.1,0.6,0.3,0.8,0.4l5.3,5.9c0.2,0.2,0.3,0.4,0.4,0.8h-6.5V8.2z M14.1,26.2h-3.7v-7.6h3.7v1.3h-2.4v1.8h2V23h-2v2
	h2.4V26.2z M17.7,26.2l-0.9-2.6l-0.9,2.6h-1.5l1.5-3.8l-1.5-3.8h1.5l0.9,2.6l0.9-2.6h1.5l-1.5,3.8l1.5,3.8H17.7z M21.1,24.7
	c0.1,0.3,0.4,0.4,0.7,0.4c0.3,0,0.6-0.1,0.7-0.3c0.1-0.2,0.2-0.5,0.2-1.1h1.3c0,0.9-0.2,1.5-0.6,2s-0.9,0.7-1.6,0.7
	c-0.7,0-1.3-0.3-1.7-0.8c-0.4-0.6-0.6-1.4-0.6-2.4v-1.3c0-1,0.2-1.8,0.6-2.4s1-0.8,1.7-0.8c0.7,0,1.2,0.2,1.6,0.7
	c0.4,0.5,0.6,1.1,0.6,2h-1.3c0-0.5-0.1-0.9-0.2-1.1c-0.1-0.2-0.4-0.3-0.7-0.3c-0.3,0-0.6,0.1-0.7,0.4s-0.2,0.8-0.2,1.4v1.4
	C20.9,23.9,21,24.4,21.1,24.7z M28.5,26.2h-3.7v-7.6h3.7v1.3h-2.4v1.8h2V23h-2v2h2.4V26.2z M32.8,26.2h-3.6v-7.6h1.3V25h2.3V26.2z"
	/>
</svg>
