<?xml version="1.0" encoding="utf-8"?>
<!-- Generator: Adobe Illustrator 21.1.0, SVG Export Plug-In . SVG Version: 6.00 Build 0)  -->
<svg version="1.1" id="Ebene_1" xmlns="http://www.w3.org/2000/svg" xmlns:xlink="http://www.w3.org/1999/xlink" x="0px" y="0px"
	 viewBox="0 0 42.5 42.5" style="enable-background:new 0 0 42.5 42.5;" xml:space="preserve">
<path id="Icon_FileManager" d="M41.7,23c0-0.6-0.4-0.9-1.3-0.9H13.6c-0.7,0-1.4,0.2-2.1,0.5c-0.7,0.4-1.3,0.8-1.8,1.3l-7.2,8.9
	c-0.3,0.4-0.4,0.7-0.4,1c0,0.6,0.4,0.9,1.3,0.9h26.8c0.7,0,1.4-0.2,2.1-0.5c0.8-0.4,1.3-0.8,1.7-1.3l7.2-8.9
	C41.5,23.6,41.7,23.3,41.7,23z M13.6,19.6h18.9v-3.9c0-0.7-0.2-1.2-0.7-1.7s-1-0.7-1.7-0.7H16c-0.7,0-1.2-0.2-1.7-0.7
	s-0.7-1-0.7-1.7V9.4c0-0.7-0.2-1.2-0.7-1.7S11.9,7,11.2,7H3.4C2.7,7,2.1,7.2,1.7,7.7S1,8.7,1,9.4v21l6.3-7.8C8,21.7,9,21,10.2,20.4
	S12.5,19.6,13.6,19.6z"/>
</svg>
