<?xml version="1.0" encoding="utf-8"?>
<!-- Generator: Adobe Illustrator 21.1.0, SVG Export Plug-In . SVG Version: 6.00 Build 0)  -->
<svg version="1.1" id="Ebene_1" xmlns="http://www.w3.org/2000/svg" xmlns:xlink="http://www.w3.org/1999/xlink" x="0px" y="0px"
	 viewBox="0 0 42.5 42.5" style="enable-background:new 0 0 42.5 42.5;" xml:space="preserve">
<path d="M34.6,15.5v-4.2c0-0.7-0.2-1.2-0.7-1.7s-1.1-0.7-1.7-0.7h-2.4V7c0-0.8-0.3-1.6-0.9-2.1C28.2,4.3,27.5,4,26.7,4h-1.2
	c-0.8,0-1.6,0.3-2.1,0.9S22.4,6.2,22.4,7v1.8h-7.3V7c0-0.8-0.3-1.6-0.9-2.1C13.7,4.3,12.9,4,12.1,4h-1.2c-0.8,0-1.6,0.3-2.1,0.9
	C8.2,5.5,7.9,6.2,7.9,7v1.8H5.4c-0.7,0-1.2,0.2-1.7,0.7S3,10.6,3,11.3v24.3c0,0.7,0.2,1.2,0.7,1.7C4.2,37.8,4.8,38,5.4,38h26.7
	c0.7,0,1.2-0.2,1.7-0.7c0.5-0.5,0.7-1.1,0.7-1.7v-7.2l-9.7,7.4l-7.8-0.5l0.9-6.8L34.6,15.5z M12.7,12.5c0,0.2-0.1,0.3-0.2,0.4
	s-0.3,0.2-0.4,0.2h-1.2c-0.2,0-0.3-0.1-0.4-0.2s-0.2-0.3-0.2-0.4V7c0-0.2,0.1-0.3,0.2-0.4s0.3-0.2,0.4-0.2h1.2
	c0.2,0,0.3,0.1,0.4,0.2s0.2,0.3,0.2,0.4V12.5z M27.3,12.5c0,0.2-0.1,0.3-0.2,0.4s-0.3,0.2-0.4,0.2h-1.2c-0.2,0-0.3-0.1-0.4-0.2
	s-0.2-0.3-0.2-0.4V7c0-0.2,0.1-0.3,0.2-0.4s0.3-0.2,0.4-0.2h1.2c0.2,0,0.3,0.1,0.4,0.2s0.2,0.3,0.2,0.4V12.5z M23.7,32.5l2.1-1.6
	l-2.1-2.7l-2.1,1.6l-0.1,0.9l1.5,0.2l-0.2,1.5L23.7,32.5z M32.2,21.8c-0.2-0.2-0.3-0.2-0.5,0l-6.3,4.9c-0.2,0.2-0.2,0.3-0.1,0.5
	c0.2,0.2,0.3,0.2,0.5,0l6.3-4.9C32.3,22.2,32.3,22,32.2,21.8z M32.2,19.5l4.1,5.2l-12.1,9.5l-4.6-0.6l0.6-4.6L32.2,19.5z M39.1,22.5
	l-1.7,1.3l-4.1-5.2l1.7-1.3c0.3-0.3,0.7-0.4,1.1-0.3c0.4,0.1,0.8,0.2,1,0.6l2.1,2.7c0.3,0.3,0.4,0.7,0.3,1.1S39.4,22.2,39.1,22.5z
	 M14,34.1H6.8v-5.2H14V34.1z M14,27.9H6.8v-5.2H14V27.9z M14,21.6H6.8v-5.2H14V21.6z M22.3,21.6h-7.2v-5.2h7.2V21.6z"/>
</svg>
