<?xml version="1.0" encoding="utf-8"?>
<!-- Generator: Adobe Illustrator 21.1.0, SVG Export Plug-In . SVG Version: 6.00 Build 0)  -->
<svg version="1.1" id="Ebene_1" xmlns="http://www.w3.org/2000/svg" xmlns:xlink="http://www.w3.org/1999/xlink" x="0px" y="0px"
	 viewBox="0 0 42.5 42.5" style="enable-background:new 0 0 42.5 42.5;" xml:space="preserve">
<path d="M27.8,28.5c1.4,0,2.7,0.2,3.9,0.5s2.6,0.9,4.4,1.8L34,11.6c-1.9-1-4-1.5-6.2-1.5c-2.5,0-4.6,0.9-6.3,2.7
	c-1.7-1.8-3.8-2.7-6.3-2.7c-2.2,0-4.3,0.5-6.2,1.5L7,30.8c1.2-0.5,2.1-0.9,2.8-1.2c0.7-0.3,1.5-0.5,2.5-0.7c1-0.2,2-0.3,3-0.3
	c2.3,0,4.3,0.7,6.3,2C23.5,29.2,25.5,28.5,27.8,28.5z M26.7,26.2c-2.3-0.1-3.4,0.6-5.3,1.9c-1.8-1.3-3.9-1.9-6.3-1.9
	c-3.1-0.1-4.1,1-5.5,1.7l1.8-14.5c1.2-0.6,1.8-1,3.7-1c2.5,0,4.6,1,6.3,2.9c1.8-1.7,2.1-1.9,4.4-2.5L26.7,26.2L26.7,26.2z"/>
</svg>
