<?xml version="1.0" encoding="utf-8"?>
<!-- Generator: Adobe Illustrator 21.1.0, SVG Export Plug-In . SVG Version: 6.00 Build 0)  -->
<svg version="1.1" id="Ebene_1" xmlns="http://www.w3.org/2000/svg" xmlns:xlink="http://www.w3.org/1999/xlink" x="0px" y="0px"
	 viewBox="0 0 42.5 42.5" style="enable-background:new 0 0 42.5 42.5;" xml:space="preserve">
<path d="M39.9,15.8l-6.6,0l0-2.1c0-0.4,0.1-0.8,0.5-1.1c0.3-0.3,0.7-0.5,1.1-0.5l3.5,0c0.4,0,0.8,0.1,1.1,0.5
	c0.3,0.3,0.5,0.7,0.5,1.1L39.9,15.8z M40,32.7L36.7,36l-3.3-3.3l-0.1-15.4l6.6,0L40,32.7z M35.2,27.6c0.2,0,0.4-0.1,0.4-0.4l0-8
	c0-0.3-0.1-0.4-0.4-0.4c-0.2,0-0.4,0.1-0.4,0.4l0,8C34.9,27.4,35,27.6,35.2,27.6z M38.4,32l0-2.7l-3.5,0l0,2.7l0.6,0.6l1.1-1.1
	l1.1,1.1L38.4,32z M30.8,12.6c0.3,0.6,0.4,1.2,0.4,1.7V33v3.2c0,0.5-0.2,0.9-0.5,1.3S29.8,38,29.3,38H3.8c-0.5,0-0.9-0.2-1.3-0.5
	S2,36.7,2,36.2V5.8c0-0.5,0.2-0.9,0.5-1.3C2.9,4.1,3.3,4,3.8,4h17c0.5,0,1.1,0.1,1.7,0.4c0.6,0.3,1.1,0.6,1.4,0.9l5.9,5.9
	C30.2,11.5,30.5,12,30.8,12.6z M21.7,32.4c-1.6,0-3-0.4-4.6-0.1c0-0.1,0-0.2-0.1-0.4c-0.3-0.5-0.7-0.7-1.1-0.6c0-0.1,0-0.1-0.1-0.2
	c-0.1-0.2-0.2-0.2-0.4-0.3c0.5-0.8,0.7-1.6,0.4-2.3c-0.1-0.2-0.3-0.3-0.5-0.3c-0.9,0-1.6,0.9-2.1,1.4c-1.4,1.3-2.6,2.9-3.8,4.4
	c-0.5,0.7,0.6,1.3,1.1,0.6c1-1.4,2.1-2.7,3.3-3.9c-0.3,0.5-0.6,0.9-0.9,1.4c-0.5,0.7,0.6,1.3,1.1,0.6c0.1-0.2,0.3-0.3,0.4-0.4
	c0,0.1-0.1,0.2-0.1,0.2c0,0,0,0,0,0c0,0.1,0,0.1-0.1,0.1c-0.3,0.7,0.8,1,1.2,0.5c0.1-0.1,0.2-0.3,0.3-0.4c0,0.1,0,0.2,0,0.4
	c0.1,0.3,0.5,0.4,0.7,0.6c0.3,0.1,0.6-0.1,0.8-0.2c1.3-0.6,3.1,0.1,4.5,0.1C22.5,33.7,22.5,32.4,21.7,32.4z M23.9,23
	c0-0.2-0.1-0.3-0.2-0.4c-0.1-0.1-0.3-0.2-0.4-0.2H9.9c-0.2,0-0.3,0.1-0.4,0.2c-0.1,0.1-0.2,0.3-0.2,0.4v1.2c0,0.2,0.1,0.3,0.2,0.4
	c0.1,0.1,0.3,0.2,0.4,0.2h13.4c0.2,0,0.3-0.1,0.4-0.2c0.1-0.1,0.2-0.3,0.2-0.4V23z M23.9,18.2c0-0.2-0.1-0.3-0.2-0.4
	c-0.1-0.1-0.3-0.2-0.4-0.2H9.9c-0.2,0-0.3,0.1-0.4,0.2c-0.1,0.1-0.2,0.3-0.2,0.4v1.2c0,0.2,0.1,0.3,0.2,0.4C9.6,19.9,9.7,20,9.9,20
	h13.4c0.2,0,0.3-0.1,0.4-0.2c0.1-0.1,0.2-0.3,0.2-0.4V18.2z M28.2,13.8c-0.1-0.4-0.3-0.6-0.4-0.8L21.8,7c-0.2-0.2-0.4-0.3-0.8-0.4
	v7.1H28.2z"/>
</svg>
