<?xml version="1.0" encoding="utf-8"?>
<!-- Generator: Adobe Illustrator 21.1.0, SVG Export Plug-In . SVG Version: 6.00 Build 0)  -->
<svg version="1.1" id="Ebene_1" xmlns="http://www.w3.org/2000/svg" xmlns:xlink="http://www.w3.org/1999/xlink" x="0px" y="0px"
	 viewBox="0 0 42.5 42.5" style="enable-background:new 0 0 42.5 42.5;" xml:space="preserve">
<path d="M32.6,13.8c1.3,0,2.5-0.5,3.4-1.4c0.9-0.9,1.4-2.1,1.4-3.4S36.9,6.6,36,5.6c-1-0.9-2.1-1.4-3.4-1.4c-1.4,0-2.5,0.5-3.4,1.4
	c-0.9,0.9-1.4,2.1-1.4,3.4s0.5,2.5,1.4,3.4C30.1,13.3,31.3,13.8,32.6,13.8z M32.6,6.1c1.7,0,3.1,1.4,3.1,3.1c0,1.7-1.4,3.1-3.1,3.1
	c-1.7,0-3.1-1.4-3.1-3.1C29.5,7.5,30.9,6.1,32.6,6.1z M10.3,13.8c1.3,0,2.5-0.5,3.4-1.4c0.9-0.9,1.4-2.1,1.4-3.4s-0.6-2.5-1.5-3.4
	c-0.9-0.9-2.1-1.4-3.4-1.4S7.8,4.8,6.9,5.6C6,6.5,5.5,7.8,5.5,9s0.5,2.5,1.4,3.4C7.8,13.3,9,13.8,10.3,13.8z M10.3,6.1
	c1.7,0,3.1,1.4,3.1,3.1c0,1.7-1.4,3.1-3.1,3.1s-3.1-1.4-3.1-3.1C7.2,7.5,8.6,6.1,10.3,6.1z M14.2,21.1c-1-1.5-1.5-3.1-1.7-4.9
	c0-0.3,0-0.7,0.1-1.2c-0.8,0.3-1.7,0.4-2.5,0.4c-0.7,0-1.4-0.1-2.2-0.4c-0.7-0.3-1.3-0.5-1.8-0.8s-0.7-0.4-0.8-0.4
	c-1.5,0-2.3,2.3-2.3,6.7c0,1,0.4,1.8,1.1,2.2c0.7,0.5,1.6,0.8,2.6,0.8h2.5C10.5,22,12.2,21.2,14.2,21.1z M7.3,21.9
	c-0.6,0-1.1-0.2-1.5-0.5c-0.4-0.3-0.7-0.8-0.7-1.4c0-2.8,0.5-4,1.4-4c0.1,0,0.2,0.1,0.5,0.3s0.7,0.3,1.1,0.5
	c0.5,0.2,0.9,0.3,1.3,0.3c0.5,0,1-0.1,1.5-0.3c-0.1,0.3-0.1,0.6-0.1,0.8c0.1,1.1,0.4,1.9,1,2.8c-1.2,0.1-2.2,0.6-3,1.5H7.3z
	 M16.9,20.8c1.2,1.3,2.7,1.9,4.5,1.9c1.7,0,3.2-0.6,4.5-1.9c1.3-1.2,1.9-2.7,1.9-4.5s-0.6-3.3-1.9-4.5c-1.2-1.3-2.7-1.9-4.5-1.9
	c-1.7,0-3.2,0.7-4.5,1.9C15.6,13,15,14.6,15,16.3S15.6,19.5,16.9,20.8z M21.4,12.5c2.3,0,4.1,1.8,4.1,4.1s-1.8,4.1-4.1,4.1
	c-2.3,0-4.1-1.8-4.1-4.1S19.1,12.5,21.4,12.5z M34.3,29.2c-0.1-0.7-0.3-1.4-0.5-2c-0.2-0.6-0.5-1.2-0.8-1.8
	c-0.4-0.6-0.8-1.1-1.2-1.5c-0.4-0.4-1-0.7-1.6-1c-0.6-0.3-1.3-0.4-2.1-0.4c-0.1,0-0.4,0.1-0.8,0.4c-0.4,0.3-0.9,0.6-1.4,0.9
	s-1.2,0.6-2,0.9c-0.8,0.3-1.7,0.4-2.5,0.4c-0.8,0-1.7-0.1-2.5-0.4c-0.8-0.3-1.5-0.6-2-0.9s-1-0.6-1.4-0.9c-0.4-0.3-0.7-0.4-0.8-0.4
	c-0.8,0-1.5,0.2-2.1,0.4c-0.6,0.2-1.2,0.6-1.6,1c-0.5,0.4-0.9,0.9-1.2,1.5C9.5,26,9.2,26.6,9,27.2c-0.2,0.6-0.4,1.3-0.5,2
	c-0.2,0.8-0.2,1.4-0.3,2.1c-0.1,0.7-0.1,1.3-0.1,2c0,1.5,0.5,2.7,1.4,3.6c1,0.9,2.2,1.3,3.7,1.3h16.4c1.6,0,2.8-0.4,3.7-1.3
	c0.9-0.9,1.4-2.1,1.4-3.6c0-0.6,0-1.3-0.1-2C34.5,30.6,34.4,30,34.3,29.2z M31.3,35.5c-0.7,0.6-1.7,0.9-3,0.9H14.9
	c-1.2,0-2.2-0.3-3-0.9c-0.7-0.6-1.1-1.5-1.1-2.5c0-0.5,0-0.9,0.1-1.4c0.1-0.5,0.1-0.9,0.2-1.5c0.1-0.5,0.2-1,0.4-1.4
	c0.2-0.4,0.4-0.8,0.7-1.3s0.6-0.8,1-1.1c0.3-0.3,0.8-0.6,1.3-0.7c0.5-0.1,1.1-0.3,1.7-0.3c0.1,0,0.3,0.1,0.7,0.3
	c0.3,0.2,0.7,0.4,1.1,0.6s1,0.4,1.6,0.6c0.7,0.2,1.4,0.3,2,0.3s1.4-0.1,2-0.3c0.7-0.2,1.2-0.4,1.6-0.6s0.8-0.4,1.1-0.6
	c0.3-0.2,0.6-0.3,0.7-0.3c0.7,0,1.2,0.1,1.7,0.3c0.5,0.2,1,0.4,1.3,0.7c0.3,0.3,0.7,0.6,1,1.1c0.2,0.4,0.5,0.8,0.7,1.3
	c0.2,0.4,0.3,0.9,0.4,1.4s0.2,1,0.2,1.5c0.1,0.5,0.1,1,0.1,1.4C32.4,34,32,34.9,31.3,35.5z M37.3,14c-0.1,0-0.3,0.1-0.8,0.4
	c-0.4,0.3-1,0.5-1.8,0.8c-0.7,0.3-1.5,0.4-2.2,0.4c-0.8,0-1.7-0.1-2.5-0.4c0.1,0.4,0.1,0.8,0.1,1.2c0,1.7-0.5,3.3-1.5,4.8
	c2,0,3.7,0.9,5,2.4h2.5c1,0,1.9-0.3,2.6-0.8s1.1-1.2,1.1-2.2C39.8,16.1,39,14,37.3,14z M37.3,21.4c-0.4,0.3-0.9,0.5-1.5,0.5h-1.5
	c-0.8-0.9-1.8-1.5-3-1.5c0.6-0.9,0.9-1.7,1-2.8c0-0.2,0-0.4-0.1-0.8c0.5,0.2,1,0.3,1.5,0.3c0.4,0,0.8-0.1,1.3-0.3
	c0.4-0.2,0.8-0.3,1.1-0.5s0.4-0.3,0.5-0.3c0.9,0,1.4,1.2,1.4,4C37.9,20.7,37.7,21.2,37.3,21.4z"/>
</svg>
