<?xml version="1.0" encoding="utf-8"?>
<!-- Generator: Adobe Illustrator 21.1.0, SVG Export Plug-In . SVG Version: 6.00 Build 0)  -->
<svg version="1.1" id="Ebene_1" xmlns="http://www.w3.org/2000/svg" xmlns:xlink="http://www.w3.org/1999/xlink" x="0px" y="0px"
	 viewBox="0 0 42.5 42.5" style="enable-background:new 0 0 42.5 42.5;" xml:space="preserve">
<path d="M21.2,4c-2.3,0-4.3,0.8-6,2.5s-2.5,3.7-2.5,6s0.8,4.3,2.5,6s3.7,2.5,6,2.5s4.3-0.8,6-2.5s2.5-3.7,2.5-6s-0.8-4.3-2.5-6
	S23.5,4,21.2,4z M30.6,38c1.3,0,2.4-0.5,3.3-1.6s1.4-2.3,1.4-3.8c0-3.5-0.6-6.3-1.7-8.3s-2.8-3.1-5-3.2c-2.1,1.9-4.6,2.8-7.4,2.8
	s-5.3-0.9-7.4-2.8c-2.2,0.1-3.8,1.2-5,3.2S7,29,7,32.5c0,1.5,0.5,2.8,1.4,3.8s2,1.6,3.3,1.6H30.6z"/>
</svg>
