<?xml version="1.0" encoding="utf-8"?>
<!-- Generator: Adobe Illustrator 21.1.0, SVG Export Plug-In . SVG Version: 6.00 Build 0)  -->
<svg version="1.1" id="Ebene_1" xmlns="http://www.w3.org/2000/svg" xmlns:xlink="http://www.w3.org/1999/xlink" x="0px" y="0px"
	 viewBox="0 0 42.5 42.5" style="enable-background:new 0 0 42.5 42.5;" xml:space="preserve">
<path d="M29.8,18.9c0.6,0.2,1.2,0.4,1.7,0.7c0.5,0.3,1.1,0.8,1.7,1.4s1.1,1.3,1.5,2.2s0.8,1.9,1,3.3c0.3,1.3,0.4,2.8,0.4,4.5
	c0,1.9-0.6,3.6-1.9,5c-1.3,1.4-2.8,2.1-4.6,2.1H13.5c-1.8,0-3.3-0.7-4.6-2.1c-1.3-1.4-1.9-3-1.9-5c0-1.7,0.1-3.1,0.4-4.5
	c0.3-1.3,0.6-2.4,1-3.3S9.4,21.6,10,21c0.6-0.6,1.1-1.1,1.7-1.4c0.5-0.3,1.1-0.5,1.7-0.7c-1-1.6-1.5-3.3-1.5-5.2
	c0-1.3,0.3-2.6,0.8-3.8s1.2-2.2,2.1-3.1c0.9-0.9,1.9-1.6,3.1-2.1S20.2,4,21.5,4s2.6,0.3,3.8,0.8c1.2,0.5,2.2,1.2,3.1,2.1
	c0.9,0.9,1.6,1.9,2.1,3.1c0.5,1.2,0.8,2.4,0.8,3.8C31.2,15.6,30.7,17.3,29.8,18.9z M21.5,6.4c-2,0-3.7,0.7-5.1,2.1
	c-1.4,1.4-2.1,3.1-2.1,5.1s0.7,3.7,2.1,5.1c1.4,1.4,3.1,2.1,5.1,2.1s3.7-0.7,5.1-2.1c1.4-1.4,2.1-3.1,2.1-5.1s-0.7-3.7-2.1-5.1
	C25.3,7.1,23.6,6.4,21.5,6.4z M29.6,35.5c1.1,0,2.1-0.5,2.9-1.4c0.8-0.9,1.2-2,1.2-3.3c0-3-0.5-5.4-1.5-7.1c-1-1.7-2.4-2.7-4.3-2.7
	c-1.8,1.6-4,2.4-6.4,2.4S17,22.6,15.2,21c-1.9,0.1-3.3,1-4.3,2.7c-1,1.7-1.5,4.1-1.5,7.1c0,1.3,0.4,2.4,1.2,3.3
	c0.8,0.9,1.7,1.4,2.9,1.4H29.6z"/>
</svg>
