<?xml version="1.0" encoding="utf-8"?>
<!-- Generator: Adobe Illustrator 22.1.0, SVG Export Plug-In . SVG Version: 6.00 Build 0)  -->
<svg version="1.1" id="Ebene_1" xmlns="http://www.w3.org/2000/svg" xmlns:xlink="http://www.w3.org/1999/xlink" x="0px" y="0px"
	 viewBox="0 0 42.5 42.5" style="enable-background:new 0 0 42.5 42.5;" xml:space="preserve">
<path fill="#008bd0" d="M39.8,32.3V9.7c0-3.1-2.5-5.7-5.7-5.7H15.9c-3.1,0-5.7,2.5-5.7,5.7v3.7c0,0.6,0.5,1.1,1.1,1.1c0.6,0,1.1-0.5,1.1-1.1V9.7
	c0-1.9,1.5-3.4,3.4-3.4h18.3c1.9,0,3.4,1.5,3.4,3.4v22.6c0,1.9-1.5,3.4-3.4,3.4H15.9c-1.9,0-3.4-1.5-3.4-3.4v-3.7
	c0-0.6-0.5-1.1-1.1-1.1c-0.6,0-1.1,0.5-1.1,1.1v3.7c0,3.1,2.5,5.7,5.7,5.7h18.3C37.3,38,39.8,35.4,39.8,32.3L39.8,32.3z M39.8,32.3"
	/>
<path d="M27.5,21.8c0.4-0.4,0.4-1.1,0-1.6l-7.6-7.6c-0.4-0.4-1.1-0.4-1.6,0c-0.4,0.4-0.4,1.1,0,1.6l5.7,5.7H3
	c-0.6,0-1.1,0.5-1.1,1.1c0,0.6,0.5,1.1,1.1,1.1h21l-5.7,5.7c-0.4,0.4-0.4,1.1,0,1.6c0.2,0.2,0.5,0.3,0.8,0.3c0.3,0,0.6-0.1,0.8-0.3
	L27.5,21.8L27.5,21.8z M-4.6,21.8"/>
</svg>
