<?xml version="1.0" encoding="utf-8"?>
<!-- Generator: Adobe Illustrator 22.1.0, SVG Export Plug-In . SVG Version: 6.00 Build 0)  -->
<svg version="1.1" id="Ebene_1" xmlns="http://www.w3.org/2000/svg" xmlns:xlink="http://www.w3.org/1999/xlink" x="0px" y="0px"
	 viewBox="0 0 42.5 42.5" style="enable-background:new 0 0 42.5 42.5;" xml:space="preserve">
<g id="Info_1_">
	<path d="M20.9,4C11.6,4,4,11.6,4,20.9c0,9.3,7.6,16.9,16.9,16.9c9.3,0,16.9-7.6,16.9-16.9C37.9,11.6,30.3,4,20.9,4L20.9,4z
		 M20.9,35.8c-8.2,0-14.9-6.7-14.9-14.9S12.8,6.1,20.9,6.1s14.9,6.7,14.9,14.9S29.1,35.8,20.9,35.8L20.9,35.8z M20.9,35.8"/>
	<path d="M22.5,14.2c0,1-0.8,1.7-1.7,1.7c-1,0-1.7-0.8-1.7-1.7c0-1,0.8-1.7,1.7-1.7C21.7,12.4,22.5,13.2,22.5,14.2L22.5,14.2z
		 M22.5,14.2 M20.8,18.8c-0.6,0-1,0.5-1,1v8.9c0,0.6,0.5,1,1,1c0.6,0,1-0.5,1-1v-8.9C21.8,19.2,21.3,18.8,20.8,18.8L20.8,18.8z
		 M20.8,18.8"/>
</g>
</svg>
