<?xml version="1.0" encoding="utf-8"?>
<svg version="1.1" id="Ebene_1" x="0px" y="0px" viewBox="0 0 42.5 42.5" style="enable-background:new 0 0 42.5 42.5;" xmlns="http://www.w3.org/2000/svg">
  <path d="M 10.7 26.2 L 10.7 16.6 L 16.8 16.6 L 16.8 18 L 12.1 18 L 12.1 20.8 L 16.1 20.8 L 16.1 22.1 L 12.1 22.1 L 12.1 25 L 16.8 25 L 16.8 26.3 L 10.7 26.3 L 10.7 26.2 Z M 24.2 23.5 C 24.2 23.9 24.1 24.3 23.9 24.7 C 23.7 25 23.5 25.3 23.2 25.6 C 22.9 25.8 22.5 26 22.1 26.2 C 21.7 26.3 21.2 26.4 20.7 26.4 C 20 26.4 19.3 26.3 18.8 26.1 C 18.3 25.9 17.8 25.6 17.3 25.1 L 18.3 24.1 C 18.6 24.4 19 24.7 19.4 24.8 C 19.8 24.9 20.2 25 20.7 25 C 21.3 25 21.8 24.9 22.2 24.6 C 22.5 24.3 22.7 24 22.7 23.5 C 22.7 23.1 22.6 22.7 22.3 22.5 C 22.2 22.4 22 22.3 21.9 22.2 C 21.8 22.1 21.5 22.1 21.3 22.1 L 20.2 22 C 19.4 21.9 18.8 21.6 18.4 21.2 C 17.9 20.8 17.7 20.2 17.7 19.4 C 17.7 19 17.8 18.6 17.9 18.3 C 18 18 18.3 17.7 18.5 17.4 C 18.8 17.1 19.1 17 19.5 16.8 C 19.9 16.7 20.3 16.6 20.8 16.6 C 21.4 16.6 22 16.7 22.5 16.9 C 23 17.1 23.4 17.3 23.8 17.7 L 22.9 18.6 C 22.6 18.3 22.3 18.1 21.9 18 C 21.6 17.9 21.2 17.8 20.8 17.8 C 20.2 17.8 19.8 17.9 19.5 18.2 C 19.2 18.5 19.1 18.8 19.1 19.3 C 19.1 19.5 19.1 19.6 19.2 19.8 C 19.3 19.9 19.4 20.1 19.5 20.2 C 19.8 20.4 20.1 20.6 20.6 20.6 L 21.7 20.8 C 22.1 20.9 22.5 21 22.8 21.1 C 23.1 21.2 23.3 21.4 23.5 21.5 C 23.8 21.7 24 22 24.1 22.3 C 24.1 22.7 24.2 23.1 24.2 23.5 Z M 32.1 23.4 C 32 23.9 31.9 24.3 31.7 24.7 C 31.5 25.1 31.2 25.4 30.9 25.6 C 30.6 25.9 30.3 26 29.9 26.2 C 29.5 26.3 29.1 26.4 28.7 26.4 C 28.2 26.4 27.7 26.3 27.3 26.1 C 26.9 25.9 26.5 25.7 26.2 25.3 C 26 25.1 25.8 24.8 25.7 24.6 C 25.6 24.3 25.5 24.1 25.4 23.8 C 25.3 23.5 25.3 23.2 25.3 22.8 C 25.3 22.4 25.3 22 25.3 21.6 C 25.3 21.1 25.3 20.7 25.3 20.4 C 25.3 20 25.3 19.7 25.4 19.4 C 25.5 19.1 25.6 18.8 25.7 18.6 C 25.8 18.3 26 18.1 26.2 17.9 C 26.5 17.6 26.9 17.3 27.3 17.1 C 27.7 16.9 28.2 16.8 28.7 16.8 C 29.6 16.8 30.3 17.1 30.9 17.6 C 31.5 18.1 31.9 18.8 32.1 19.8 L 30.6 19.8 C 30.5 19.3 30.3 18.9 29.9 18.6 C 29.6 18.3 29.2 18.1 28.6 18.1 C 28.3 18.1 28 18.2 27.8 18.3 C 27.6 18.4 27.4 18.5 27.2 18.7 C 27.1 18.8 27 19 26.9 19.1 C 26.8 19.2 26.8 19.4 26.7 19.7 C 26.7 19.9 26.6 20.2 26.6 20.5 C 26.6 20.8 26.6 21.2 26.6 21.7 C 26.6 22.2 26.6 22.6 26.6 22.9 C 26.6 23.2 26.6 23.5 26.7 23.7 C 26.7 23.9 26.8 24.1 26.9 24.3 C 27 24.4 27.1 24.6 27.2 24.7 C 27.4 24.9 27.6 25 27.8 25.1 C 28 25.2 28.3 25.3 28.6 25.3 C 29.1 25.3 29.6 25.1 29.9 24.8 C 30.2 24.5 30.4 24.1 30.6 23.6 L 32.1 23.6 L 32.1 23.4 Z"/>
  <path fill="#008bd0" d="M 20.932 4.35 C 11.632 4.35 4.032 11.95 4.032 21.25 C 4.032 30.55 11.632 38.15 20.932 38.15 C 30.232 38.15 37.832 30.55 37.832 21.25 C 37.932 11.95 30.332 4.35 20.932 4.35 Z M 20.932 36.15 C 12.732 36.15 6.032 29.45 6.032 21.25 C 6.032 13.05 12.832 6.45 20.932 6.45 C 29.032 6.45 35.832 13.15 35.832 21.35 C 35.832 29.55 29.132 36.15 20.932 36.15 Z M 20.932 36.15"/>
</svg>