<?xml version="1.0" encoding="utf-8"?>
<!-- Generator: Adobe Illustrator 22.1.0, SVG Export Plug-In . SVG Version: 6.00 Build 0)  -->
<svg version="1.1" id="Ebene_1" xmlns="http://www.w3.org/2000/svg" xmlns:xlink="http://www.w3.org/1999/xlink" x="0px" y="0px"
	 viewBox="0 0 42.5 42.5" style="enable-background:new 0 0 42.5 42.5;" xml:space="preserve">
<path d="M0,32.3C0,35.5,2.5,38,5.7,38H24c3.1,0,5.7-2.5,5.7-5.7v-3.7c0-0.6-0.5-1.1-1.1-1.1c-0.6,0-1.1,0.5-1.1,1.1v3.7
	c0,1.9-1.5,3.4-3.4,3.4H5.7c-1.9,0-3.4-1.5-3.4-3.4V9.7c0-1.9,1.5-3.4,3.4-3.4H24c1.9,0,3.4,1.5,3.4,3.4v3.7c0,0.6,0.5,1.1,1.1,1.1
	c0.6,0,1.1-0.5,1.1-1.1V9.7C29.7,6.5,27.1,4,24,4H5.7C2.5,4,0,6.5,0,9.7L0,32.3L0,32.3z M0,32.3"/>
<path d="M41.7,21.8c0.4-0.4,0.4-1.2,0-1.6l-7.7-7.7c-0.4-0.4-1.1-0.4-1.6,0s-0.4,1.1,0,1.6l5.8,5.8h-21c-0.6,0-1.1,0.5-1.1,1.1
	c0,0.6,0.5,1.1,1.1,1.1h21l-5.8,5.8c-0.4,0.4-0.4,1.1,0,1.6c0.2,0.2,0.5,0.3,0.8,0.3c0.3,0,0.6-0.1,0.8-0.3L41.7,21.8L41.7,21.8z
	 M44.4,21.8"/>
</svg>
