<?xml version="1.0" encoding="utf-8"?>
<!-- Generator: Adobe Illustrator 22.1.0, SVG Export Plug-In . SVG Version: 6.00 Build 0)  -->
<svg version="1.1" id="Ebene_1" xmlns="http://www.w3.org/2000/svg" xmlns:xlink="http://www.w3.org/1999/xlink" x="0px" y="0px"
	 viewBox="0 0 42.5 42.5" style="enable-background:new 0 0 42.5 42.5;" xml:space="preserve">
<g id="Menu">
	<path d="M20.9,4C11.6,4,4,11.6,4,20.9c0,9.3,7.6,16.9,16.9,16.9s16.9-7.6,16.9-16.9C37.9,11.6,30.3,4,20.9,4z M20.9,35.8
		c-8.2,0-14.9-6.7-14.9-14.9S12.8,6.1,20.9,6.1s14.9,6.7,14.9,14.9S29.1,35.8,20.9,35.8z"/>
	<path d="M28.8,22.1H13.1c-0.4,0-0.7-0.5-0.7-1.2c0-0.7,0.3-1.2,0.7-1.2h15.8c0.4,0,0.7,0.5,0.7,1.2C29.5,21.6,29.2,22.1,28.8,22.1z
		 M29.5,14.7c0-0.7-0.3-1.2-0.7-1.2H13.1c-0.4,0-0.7,0.5-0.7,1.2c0,0.7,0.3,1.2,0.7,1.2h15.8C29.2,15.9,29.5,15.3,29.5,14.7z
		 M29.5,27.2c0-0.7-0.3-1.2-0.7-1.2H13.1c-0.4,0-0.7,0.5-0.7,1.2c0,0.7,0.3,1.2,0.7,1.2h15.8C29.2,28.4,29.5,27.9,29.5,27.2z"/>
</g>
</svg>
