<?xml version="1.0" encoding="utf-8"?>
<!-- Generator: Adobe Illustrator 21.1.0, SVG Export Plug-In . SVG Version: 6.00 Build 0)  -->
<svg version="1.1" id="Ebene_1" xmlns="http://www.w3.org/2000/svg" xmlns:xlink="http://www.w3.org/1999/xlink" x="0px" y="0px"
	 viewBox="0 0 42.5 42.5" style="enable-background:new 0 0 42.5 42.5;" xml:space="preserve">
<g>
	<path d="M26.5,10.9c-1.4,0-2.7,0.3-4,0.8c-1.3,0.5-2.4,1.3-3.3,2.2c-0.9,0.9-1.7,2-2.2,3.3s-0.8,2.6-0.8,4s0.3,2.7,0.8,4
		s1.3,2.4,2.2,3.3c0.9,0.9,2,1.7,3.3,2.2c1.3,0.5,2.6,0.8,4,0.8s2.7-0.3,4-0.8c1.3-0.5,2.4-1.3,3.3-2.2c0.9-0.9,1.7-2,2.2-3.3
		s0.8-2.6,0.8-4s-0.3-2.7-0.8-4s-1.3-2.4-2.2-3.3c-0.9-0.9-2-1.7-3.3-2.2C29.3,11.2,27.9,10.9,26.5,10.9z M38.9,21.2
		c0,2.2-0.6,4.3-1.7,6.2c-1.1,1.9-2.6,3.4-4.5,4.5c-1.9,1.1-4,1.7-6.2,1.7s-4.3-0.6-6.2-1.7s-3.4-2.6-4.5-4.5
		c-1.1-1.9-1.7-4-1.7-6.2s0.6-4.3,1.7-6.2s2.6-3.4,4.5-4.5s4-1.7,6.2-1.7s4.3,0.6,6.2,1.7c1.9,1.1,3.4,2.6,4.5,4.5
		C38.3,16.9,38.9,19,38.9,21.2z"/>
	<path d="M20,19.9c0,0.9-0.3,1.7-0.8,2.3c-0.5,0.7-1.1,1-1.9,1H6.7c-0.7,0-1.4-0.3-1.9-1S4,20.8,4,19.9c0-0.7,0-1.4,0.1-2
		c0.1-0.6,0.2-1.3,0.4-1.9c0.2-0.6,0.4-1.2,0.7-1.6c0.3-0.5,0.7-0.8,1.2-1.1c0.5-0.3,1-0.4,1.7-0.4c1.1,1.1,2.4,1.6,3.9,1.6
		s2.8-0.5,3.9-1.6c0.6,0,1.2,0.1,1.7,0.4c0.5,0.3,0.9,0.7,1.2,1.1s0.5,1,0.7,1.6c0.2,0.6,0.3,1.3,0.4,1.9C20,18.5,20,19.2,20,19.9z
		 M16.8,8.8c0,1.3-0.5,2.5-1.4,3.4s-2.1,1.4-3.4,1.4s-2.5-0.5-3.4-1.4s-1.4-2.1-1.4-3.4s0.5-2.5,1.4-3.4S10.7,4,12,4
		s2.5,0.5,3.4,1.4S16.8,7.5,16.8,8.8z"/>
	<path d="M33.8,34.7c0,0.9-0.3,1.7-0.8,2.3c-0.5,0.7-1.1,1-1.9,1H20.4c-0.7,0-1.4-0.3-1.9-1c-0.5-0.7-0.8-1.4-0.8-2.3
		c0-0.7,0-1.4,0.1-2s0.2-1.3,0.4-1.9c0.2-0.6,0.4-1.2,0.7-1.6s0.7-0.8,1.2-1.1c0.5-0.3,1-0.4,1.7-0.4c1.1,1.1,2.4,1.6,3.9,1.6
		c1.5,0,2.8-0.5,3.9-1.6c0.6,0,1.2,0.1,1.7,0.4c0.5,0.3,0.9,0.7,1.2,1.1s0.5,1,0.7,1.6s0.3,1.3,0.4,1.9S33.8,34,33.8,34.7z
		 M30.6,23.6c0,1.3-0.5,2.5-1.4,3.4c-0.9,0.9-2.1,1.4-3.4,1.4c-1.3,0-2.5-0.5-3.4-1.4c-0.9-0.9-1.4-2.1-1.4-3.4s0.5-2.5,1.4-3.4
		c0.9-0.9,2.1-1.4,3.4-1.4c1.3,0,2.5,0.5,3.4,1.4C30.1,21.1,30.6,22.3,30.6,23.6z"/>
</g>
</svg>
