<?xml version="1.0" encoding="utf-8"?>
<!-- Generator: Adobe Illustrator 21.1.0, SVG Export Plug-In . SVG Version: 6.00 Build 0)  -->
<svg version="1.1" id="Ebene_1" xmlns="http://www.w3.org/2000/svg" xmlns:xlink="http://www.w3.org/1999/xlink" x="0px" y="0px"
	 viewBox="0 0 42.5 42.5" style="enable-background:new 0 0 42.5 42.5;" xml:space="preserve">
<path d="M31.3,20.3l0.3,5c0,0.7-0.4,1.4-1.3,2c-0.9,0.6-2.2,1.1-3.8,1.5c-1.6,0.4-3.3,0.6-5.2,0.6c-1.9,0-3.6-0.2-5.2-0.6
	s-2.8-0.9-3.8-1.5c-0.9-0.6-1.4-1.3-1.3-2l0.3-5l9.2,2.9c0.2,0.1,0.5,0.1,0.8,0.1c0.3,0,0.5,0,0.8-0.1L31.3,20.3z M39.8,15.1
	c0,0.2-0.1,0.4-0.4,0.5l-17.9,5.6c0,0-0.1,0-0.2,0c-0.1,0-0.1,0-0.2,0L10.8,18c-0.5,0.4-0.8,1-1.1,1.8c-0.3,0.8-0.5,1.8-0.5,2.9
	c0.7,0.4,1,1,1,1.7c0,0.7-0.3,1.3-0.9,1.7l0.9,6.9c0,0.1,0,0.3-0.1,0.4c-0.1,0.1-0.2,0.2-0.4,0.2H6.6c-0.2,0-0.3-0.1-0.4-0.2
	C6.1,33.2,6,33.1,6.1,33L7,26c-0.6-0.4-0.9-1-0.9-1.7c0-0.8,0.3-1.4,1-1.8c0.1-2.2,0.6-4,1.6-5.3l-5.3-1.7C3.1,15.5,3,15.4,3,15.1
	c0-0.2,0.1-0.4,0.4-0.5L21.2,9c0,0,0.1,0,0.2,0c0.1,0,0.1,0,0.2,0l17.9,5.6C39.7,14.7,39.8,14.9,39.8,15.1z"/>
</svg>
