<?xml version="1.0" encoding="utf-8"?>
<!-- Generator: Adobe Illustrator 21.1.0, SVG Export Plug-In . SVG Version: 6.00 Build 0)  -->
<svg version="1.1" id="Ebene_1" xmlns="http://www.w3.org/2000/svg" xmlns:xlink="http://www.w3.org/1999/xlink" x="0px" y="0px"
	 viewBox="0 0 42.5 42.5" style="enable-background:new 0 0 42.5 42.5;" xml:space="preserve">
<path d="M26.8,33.8v1.1c0,0.2-0.1,0.3-0.2,0.4c-0.1,0.1-0.3,0.1-0.4,0.1H15.6c-0.2,0-0.3,0-0.4-0.1C15,35.1,15,35,15,34.8v-1.1
	c0-0.2,0.1-0.3,0.2-0.4c0.1-0.1,0.3-0.1,0.4-0.1h10.6c0.2,0,0.3,0,0.4,0.1C26.7,33.5,26.8,33.6,26.8,33.8z M37.4,29.3V9.8
	c0-0.1-0.1-0.3-0.2-0.4c-0.1-0.1-0.3-0.2-0.4-0.2H5c-0.2,0-0.3,0.1-0.4,0.2S4.4,9.7,4.4,9.8v19.5c0,0.1,0.1,0.3,0.2,0.4
	c0.1,0.1,0.3,0.2,0.4,0.2h31.9c0.2,0,0.3-0.1,0.4-0.2C37.4,29.6,37.4,29.5,37.4,29.3z M39.8,9.6v20c0,0.7-0.3,1.3-0.9,1.9
	c-0.6,0.5-1.3,0.8-2.1,0.8H5c-0.8,0-1.5-0.3-2.1-0.8S2,30.3,2,29.6v-20c0-0.7,0.3-1.3,0.9-1.9S4.1,7,5,7h31.9c0.8,0,1.5,0.3,2.1,0.8
	C39.5,8.3,39.8,8.9,39.8,9.6z M15.4,25.2l-0.7,0.6c-0.1,0.1-0.2,0.1-0.3,0.1c-0.1,0-0.2,0-0.3-0.1l-6.7-6c-0.1-0.1-0.1-0.2-0.1-0.3
	c0-0.1,0-0.2,0.1-0.3l6.7-6c0.1-0.1,0.2-0.1,0.3-0.1c0.1,0,0.2,0,0.3,0.1l0.7,0.6c0.1,0.1,0.1,0.2,0.1,0.3s0,0.2-0.1,0.3l-5.7,5
	l5.7,5c0.1,0.1,0.1,0.2,0.1,0.3C15.6,25,15.5,25.1,15.4,25.2z M23.9,11.5l-5.4,16.6c0,0.1-0.1,0.2-0.2,0.3c-0.1,0.1-0.2,0.1-0.3,0
	l-0.9-0.2c-0.1,0-0.2-0.1-0.3-0.2c-0.1-0.1-0.1-0.2,0-0.3l5.4-16.6c0-0.1,0.1-0.2,0.2-0.3c0.1-0.1,0.2-0.1,0.3,0l0.9,0.2
	c0.1,0,0.2,0.1,0.3,0.2C24,11.3,24,11.4,23.9,11.5z M33.4,19.9l-6.7,6c-0.1,0.1-0.2,0.1-0.3,0.1s-0.2,0-0.3-0.1l-0.7-0.6
	c-0.1-0.1-0.1-0.2-0.1-0.3c0-0.1,0-0.2,0.1-0.3l5.7-5l-5.7-5c-0.1-0.1-0.1-0.2-0.1-0.3s0-0.2,0.1-0.3l0.7-0.6
	c0.1-0.1,0.2-0.1,0.3-0.1s0.2,0,0.3,0.1l6.7,6c0.1,0.1,0.1,0.2,0.1,0.3C33.6,19.7,33.5,19.8,33.4,19.9z"/>
</svg>
