<?xml version="1.0" encoding="utf-8"?>
<!-- Generator: Adobe Illustrator 21.1.0, SVG Export Plug-In . SVG Version: 6.00 Build 0)  -->
<svg version="1.1" id="Ebene_1" xmlns="http://www.w3.org/2000/svg" xmlns:xlink="http://www.w3.org/1999/xlink" x="0px" y="0px"
	 viewBox="0 0 42.5 42.5" style="enable-background:new 0 0 42.5 42.5;" xml:space="preserve">
<path d="M26.4,15.8c-0.4-0.3-1-0.3-1.5-0.1c-0.9,0.4-1.8,0.6-2.7,0.7v-1.5c1.9-0.5,3.2-2.2,3.2-4.2c0-0.9-0.5-2.1-1.6-3.7
	C23.1,6,22.3,5,22,4.6c-0.2-0.2-0.5-0.4-0.8-0.4c0,0,0,0,0,0c-0.3,0-0.6,0.1-0.8,0.4C20,5,19.2,6,18.5,7c-1.1,1.5-1.6,2.7-1.6,3.7
	c0,2.1,1.4,3.8,3.4,4.2v1.5c-0.9-0.1-1.8-0.3-2.7-0.7c-0.5-0.2-1-0.2-1.5,0.1c-0.4,0.3-0.7,0.8-0.7,1.3v18.8c0,1.3,1.1,2.4,2.4,2.4
	h6.9c1.3,0,2.4-1.1,2.4-2.4V17.1C27.1,16.6,26.8,16.1,26.4,15.8z M18.9,10.7c0-0.7,0.9-2.3,2.3-4c1.4,1.7,2.3,3.3,2.3,4
	c0,0.9-0.5,1.7-1.3,2.1v-1.2c0-0.5-0.4-1-1-1c-0.5,0-1,0.4-1,1v1.3C19.4,12.5,18.9,11.7,18.9,10.7z M25.1,35.9
	c0,0.2-0.2,0.4-0.4,0.4h-6.9c-0.2,0-0.4-0.2-0.4-0.4V17.8c1.2,0.5,2.5,0.7,3.8,0.7c0,0,0,0,0,0c0,0,0,0,0,0c1.3,0,2.6-0.2,3.8-0.7
	V35.9z"/>
</svg>
