<?xml version="1.0" encoding="utf-8"?>
<!-- Generator: Adobe Illustrator 21.1.0, SVG Export Plug-In . SVG Version: 6.00 Build 0)  -->
<svg version="1.1" id="Ebene_1" xmlns="http://www.w3.org/2000/svg" xmlns:xlink="http://www.w3.org/1999/xlink" x="0px" y="0px"
	 viewBox="0 0 42.5 42.5" style="enable-background:new 0 0 42.5 42.5;" xml:space="preserve">
<path d="M14.8,32c0.1,0.3,0.5,0.4,0.7,0.6c0.3,0.1,0.6-0.1,0.8-0.2c1.3-0.6,3.1,0.1,4.5,0.1c0.8,0,0.8-1.3,0-1.3
	c-1.6,0-3-0.4-4.6-0.1c0-0.1,0-0.2-0.1-0.4c-0.3-0.5-0.7-0.7-1.1-0.6c0-0.1,0-0.1-0.1-0.2c-0.1-0.2-0.2-0.2-0.4-0.3
	c0.5-0.8,0.7-1.6,0.4-2.3c-0.1-0.2-0.3-0.3-0.6-0.3c-0.9,0-1.6,0.9-2.1,1.4c-1.4,1.3-2.6,2.9-3.8,4.4c-0.5,0.7,0.6,1.3,1.1,0.6
	c1-1.4,2.1-2.7,3.3-3.9c-0.3,0.5-0.6,0.9-0.9,1.4c-0.5,0.7,0.6,1.3,1.1,0.6c0.1-0.2,0.3-0.3,0.4-0.4c0,0.1-0.1,0.2-0.1,0.2
	c0,0,0,0,0,0c0,0.1-0.1,0.1-0.1,0.1c-0.3,0.7,0.8,1,1.2,0.5c0.1-0.1,0.2-0.3,0.3-0.4C14.8,31.7,14.8,31.9,14.8,32L14.8,32z
	 M27.9,35.6H3.6V6.4h14.6v7.9c0,0.5,0.2,0.9,0.5,1.3c0.4,0.4,0.8,0.5,1.3,0.5h7.9v2h2.4v-3.8c0-0.5-0.1-1.1-0.4-1.7
	c-0.3-0.6-0.6-1.1-0.9-1.4l-5.9-5.9c-0.4-0.4-0.8-0.7-1.4-0.9C21.1,4.1,20.5,4,20,4H3C2.5,4,2.1,4.2,1.7,4.5
	C1.4,4.9,1.2,5.3,1.2,5.8v30.4c0,0.5,0.2,0.9,0.5,1.3S2.5,38,3,38h25.5c0.5,0,0.9-0.2,1.3-0.5s0.5-0.8,0.5-1.3V33h-2.4V35.6z
	 M20.6,6.6C21,6.7,21.3,6.8,21.4,7l5.9,5.9c0.2,0.2,0.3,0.4,0.4,0.8h-7.1V6.6z M22.9,17.7c0.1,0.1,0.2,0.3,0.2,0.4v1.2
	c0,0.2-0.1,0.3-0.2,0.4c-0.1,0.1-0.3,0.2-0.4,0.2H9.1c-0.2,0-0.3-0.1-0.4-0.2c-0.1-0.1-0.2-0.3-0.2-0.4v-1.2c0-0.2,0.1-0.3,0.2-0.4
	c0.1-0.1,0.3-0.2,0.4-0.2h13.4C22.6,17.6,22.8,17.6,22.9,17.7z M22.9,22.6c0.1,0.1,0.2,0.3,0.2,0.4v1.2c0,0.2-0.1,0.3-0.2,0.4
	c-0.1,0.1-0.3,0.2-0.4,0.2H9.1c-0.2,0-0.3-0.1-0.4-0.2c-0.1-0.1-0.2-0.3-0.2-0.4V23c0-0.2,0.1-0.3,0.2-0.4c0.1-0.1,0.3-0.2,0.4-0.2
	h13.4C22.6,22.4,22.8,22.5,22.9,22.6z M26.8,29.9l2-1.8l-2.3-2.6l-2,1.8l0,0.9l1.6,0.1l-0.1,1.6L26.8,29.9z M34.5,18.7
	c-0.2-0.2-0.3-0.2-0.5,0L28,24c-0.2,0.2-0.2,0.4,0,0.5c0.2,0.2,0.3,0.2,0.5,0l6-5.4C34.7,19,34.7,18.8,34.5,18.7z M34.4,16.3
	l4.4,4.9L27.4,31.5l-4.7-0.2l0.2-4.7L34.4,16.3z M41.4,18.8l-1.6,1.4l-4.4-4.9l1.6-1.4c0.3-0.3,0.7-0.4,1.1-0.4
	c0.4,0,0.8,0.2,1.1,0.5l2.3,2.6c0.3,0.3,0.4,0.7,0.4,1.1C41.9,18.2,41.8,18.5,41.4,18.8z"/>
</svg>
