<?xml version="1.0" encoding="utf-8"?>
<!-- Generator: Adobe Illustrator 21.1.0, SVG Export Plug-In . SVG Version: 6.00 Build 0)  -->
<svg version="1.1" id="Ebene_1" xmlns="http://www.w3.org/2000/svg" xmlns:xlink="http://www.w3.org/1999/xlink" x="0px" y="0px"
	 viewBox="0 0 42.5 42.5" style="enable-background:new 0 0 42.5 42.5;" xml:space="preserve">
<path id="Icon_Zeiterfassung" d="M23.8,14.2v9.9c0,0.2-0.1,0.4-0.2,0.5s-0.3,0.2-0.5,0.2H16c-0.2,0-0.4-0.1-0.5-0.2
	s-0.2-0.3-0.2-0.5v-1.4c0-0.2,0.1-0.4,0.2-0.5S15.8,22,16,22h5v-7.8c0-0.2,0.1-0.4,0.2-0.5s0.3-0.2,0.5-0.2h1.4
	c0.2,0,0.4,0.1,0.5,0.2S23.8,14,23.8,14.2z M35.6,22c0-2.6-0.7-5.1-2-7.3s-3.1-4-5.3-5.3s-4.7-2-7.3-2s-5.1,0.7-7.3,2
	s-4,3.1-5.3,5.3s-2,4.7-2,7.3s0.7,5.1,2,7.3s3.1,4,5.3,5.3s4.7,2,7.3,2s5.1-0.7,7.3-2s4-3.1,5.3-5.3S35.6,24.6,35.6,22z M38,22
	c0,3.1-0.8,5.9-2.3,8.5c-1.5,2.6-3.6,4.7-6.2,6.2C26.9,38.2,24.1,39,21,39c-3.1,0-5.9-0.8-8.5-2.3c-2.6-1.5-4.7-3.6-6.2-6.2
	S4,25.1,4,22c0-3.1,0.8-5.9,2.3-8.5s3.6-4.7,6.2-6.2S17.9,5,21,5c3.1,0,5.9,0.8,8.5,2.3s4.7,3.6,6.2,6.2C37.2,16.1,38,18.9,38,22z"
	/>
</svg>
