<?xml version="1.0" encoding="utf-8"?>
<!-- Generator: Adobe Illustrator 21.1.0, SVG Export Plug-In . SVG Version: 6.00 Build 0)  -->
<svg version="1.1" id="Ebene_1" xmlns="http://www.w3.org/2000/svg" xmlns:xlink="http://www.w3.org/1999/xlink" x="0px" y="0px"
	 viewBox="0 0 42.5 42.5" style="enable-background:new 0 0 42.5 42.5;" xml:space="preserve">
<path d="M7.9,20.6H9v3.8c0,0.7,0.4,1.9,2.8,1.9H13c0,0,0,0,0,0c0,0,0,0,0,0h6.7v7.4h-7.9c-0.3,0-0.6,0.3-0.6,0.6s0.3,0.6,0.6,0.6
	h0.6v0.1c-0.2-0.1-0.4-0.1-0.6-0.1c-0.9,0-1.7,0.8-1.7,1.7c0,0.9,0.8,1.7,1.7,1.7s1.7-0.8,1.7-1.7c0-0.1,0-0.3,0-0.4
	c0-0.1,0-0.1,0-0.2v-1.1h6.7c0,0,0.1,0,0.1,0v1.1c0,0.1,0,0.1,0,0.2c0,0.1,0,0.2,0,0.4c0,0.9,0.8,1.7,1.7,1.7c0.9,0,1.7-0.8,1.7-1.7
	c0-0.9-0.6-1.6-1.5-1.7h0.4c0,0,0.1,0,0.1,0h6.1v1.1c0,0.1,0,0.1,0,0.2c0,0.1,0,0.2,0,0.4c0,0.9,0.8,1.7,1.7,1.7s1.7-0.8,1.7-1.7
	s-0.8-1.7-1.7-1.7c-0.2,0-0.4,0-0.6,0.1v-0.1h0.6c0.3,0,0.6-0.3,0.6-0.6s-0.3-0.6-0.6-0.6h-7.3v-7.4h6.7c0,0,0,0,0,0c0,0,0,0,0,0
	h1.1c0.7,0,2.8,0,2.8-2.3v-3.4h1.1c0.3,0,0.6-0.3,0.6-0.6v-1.7c0-0.3-0.3-0.6-0.6-0.6h-3.4c-0.3,0-0.6,0.3-0.6,0.6v1.7
	c0,0.3,0.3,0.6,0.6,0.6h1.1V24c0,0.5,0,1-1.2,1.1c0.1-0.2,0.1-0.4,0.1-0.6v-0.5c0-1-0.8-1.8-1.8-1.8h-6.7v-5.7H27
	c1.6,0,2.9-1.3,2.9-2.9V8.2c0-2.2-1.8-4-4-4h-9c-2.2,0-4,1.8-4,4v5.5c0,1.6,1.3,2.9,2.9,2.9h3.9v5.7H13c-1,0-1.8,0.8-1.8,1.8v0.5
	c0,0.2,0,0.4,0.1,0.6c-1.2-0.1-1.2-0.6-1.2-0.8v-3.8h1.1c0.3,0,0.6-0.3,0.6-0.6v-1.7c0-0.3-0.3-0.6-0.6-0.6H7.9
	c-0.3,0-0.6,0.3-0.6,0.6v1.7C7.3,20.4,7.6,20.6,7.9,20.6z M21.5,34.9L21.5,34.9l0.4-0.1C21.7,34.8,21.6,34.9,21.5,34.9z"/>
</svg>
