<?xml version="1.0" encoding="utf-8"?>
<!-- Generator: Adobe Illustrator 21.1.0, SVG Export Plug-In . SVG Version: 6.00 Build 0)  -->
<svg version="1.1" id="Ebene_1" xmlns="http://www.w3.org/2000/svg" xmlns:xlink="http://www.w3.org/1999/xlink" x="0px" y="0px"
	 viewBox="0 0 42.5 42.5" style="enable-background:new 0 0 42.5 42.5;" xml:space="preserve">
<path d="M40.1,32.2V15.7c-0.5,0.5-1.6,1.3-2.2,1.7c-4.2,2.9-7.6,5.2-10.1,7c-0.8,0.6-1.5,1.1-2,1.4c-0.5,0.3-1.2,0.7-2.1,1
	c-0.9,0.3-1.7,0.5-2.4,0.5h0c-0.8,0-1.6-0.2-2.4-0.5c-0.9-0.3-1.5-0.7-2.1-1c-0.5-0.3-1.2-0.8-2-1.4c-2.5-1.8-5.9-4.2-10.1-7
	c-0.6-0.4-1.7-1.2-2.2-1.7v16.6c0,0.2,0.1,0.3,0.2,0.5c0.2,0.1,0.3,0.2,0.5,0.2h36.1c0.2,0,0.4-0.1,0.5-0.2
	C40,32.6,40.1,32.4,40.1,32.2z M40.1,10.1V9.4l0,0L40,8.8l-0.1-0.2l-0.2-0.2l-0.3-0.1H3.2C3,8.4,2.8,8.5,2.7,8.6
	C2.5,8.8,2.4,8.9,2.4,9.1c0,2.4,1.8,4.7,4.1,6.3c3.1,2.2,6.2,4.4,9.5,6.8c0.1,0.1,0.4,0.3,0.8,0.6c0.5,0.3,0.8,0.6,1.1,0.8
	c0.3,0.2,0.6,0.4,1.1,0.7c0.4,0.3,0.8,0.5,1.2,0.6c0.4,0.1,0.7,0.2,1,0.2h0c0.3,0,0.7-0.1,1-0.2c0.4-0.1,0.8-0.3,1.2-0.6
	c0.4-0.3,0.8-0.5,1.1-0.7c0.3-0.2,0.6-0.5,1.1-0.8s0.7-0.6,0.8-0.6c3.3-2.3,6.5-4.6,9.5-6.8c0.9-0.6,2.3-1.8,3.1-2.8
	C39.8,11.6,40.1,11,40.1,10.1z M42.5,9.3V32c0,0.9-0.4,1.7-1.1,2.4c-0.7,0.7-1.6,1-2.7,1H3.8c-1,0-1.9-0.3-2.7-1S0,32.9,0,32V9.3
	C0,8.4,0.4,7.6,1.1,7s1.6-1,2.7-1h34.9c1,0,1.9,0.3,2.7,1C42.1,7.6,42.5,8.4,42.5,9.3z"/>
</svg>
