<?xml version="1.0" encoding="utf-8"?>
<!-- Generator: Adobe Illustrator 21.1.0, SVG Export Plug-In . SVG Version: 6.00 Build 0)  -->
<svg version="1.1" id="Ebene_1" xmlns="http://www.w3.org/2000/svg" xmlns:xlink="http://www.w3.org/1999/xlink" x="0px" y="0px"
	 viewBox="0 0 42.5 42.5" style="enable-background:new 0 0 42.5 42.5;" xml:space="preserve">
<path d="M29.8,34.2c0,1-0.3,1.9-0.9,2.7c-0.6,0.7-1.3,1.1-2.2,1.1H14.4c-0.8,0-1.6-0.4-2.2-1.1c-0.6-0.7-0.9-1.6-0.9-2.7
	c0-0.8,0-1.6,0.1-2.3c0.1-0.7,0.2-1.5,0.5-2.2c0.2-0.7,0.5-1.4,0.8-1.9c0.3-0.5,0.8-0.9,1.3-1.3c0.6-0.3,1.2-0.5,1.9-0.5
	c1.3,1.2,2.8,1.8,4.5,1.8s3.2-0.6,4.5-1.8c0.7,0,1.4,0.2,1.9,0.5c0.6,0.3,1,0.8,1.3,1.3s0.6,1.1,0.8,1.9s0.4,1.5,0.5,2.2
	C29.7,32.7,29.8,33.4,29.8,34.2z M35.5,17.1c-0.4-0.4-1.1-0.4-1.5,0c-0.4,0.4-0.4,1.1,0,1.5l1.1,1.1h-4.9c-0.5-4.4-4-8-8.5-8.5V8.1
	l1.1,1.1c0.2,0.2,0.5,0.3,0.8,0.3c0.3,0,0.5-0.1,0.8-0.3c0.4-0.4,0.4-1.1,0-1.5L20.6,4l-3.7,3.7c-0.4,0.4-0.4,1.1,0,1.5
	c0.4,0.4,1.1,0.4,1.5,0l1.1-1.1v3.2c-4.4,0.5-8,4-8.5,8.5H6.1l1.1-1.1c0.4-0.4,0.4-1.1,0-1.5c-0.4-0.4-1.1-0.4-1.5,0L2,20.8l3.7,3.7
	c0.2,0.2,0.5,0.3,0.8,0.3c0.3,0,0.5-0.1,0.8-0.3c0.4-0.4,0.4-1.1,0-1.5l-1.1-1.1l7.1,0c-0.6-4.6,2.9-8.5,7.4-8.5s8,3.9,7.4,8.5
	l7.1,0l-1.1,1.1c-0.4,0.4-0.4,1.1,0,1.5c0.2,0.2,0.5,0.3,0.8,0.3c0.3,0,0.5-0.1,0.8-0.3l3.6-3.7L35.5,17.1z M40.8,21 M20.6,25.8
	c2.8,0,5.1-2.3,5.1-5.1s-2.3-5.1-5.1-5.1s-5.1,2.3-5.1,5.1S17.7,25.8,20.6,25.8z"/>
</svg>
