<?xml version="1.0" encoding="utf-8"?>
<!-- Generator: Adobe Illustrator 21.1.0, SVG Export Plug-In . SVG Version: 6.00 Build 0)  -->
<svg version="1.1" id="Ebene_1" xmlns="http://www.w3.org/2000/svg" xmlns:xlink="http://www.w3.org/1999/xlink" x="0px" y="0px"
	 viewBox="0 0 42.5 42.5" style="enable-background:new 0 0 42.5 42.5;" xml:space="preserve">
<path d="M30.9,9.6c-0.5-0.5-1.1-0.7-1.7-0.7h-2.4V7c0-0.8-0.3-1.6-0.9-2.1C25.2,4.3,24.5,4,23.7,4h-1.2c-0.8,0-1.6,0.3-2.1,0.9
	S19.4,6.2,19.4,7v1.8h-7.3V7c0-0.8-0.3-1.6-0.9-2.1C10.7,4.3,9.9,4,9.1,4H7.9C7.1,4,6.3,4.3,5.8,4.9C5.2,5.5,4.9,6.2,4.9,7v1.8H2.4
	c-0.7,0-1.2,0.2-1.7,0.7S0,10.6,0,11.3v24.3c0,0.7,0.2,1.2,0.7,1.7C1.2,37.8,1.8,38,2.4,38h26.7c0.7,0,1.2-0.2,1.7-0.7
	c0.5-0.5,0.7-1.1,0.7-1.7h-7.9V16.1h7.9v-4.8C31.6,10.6,31.3,10.1,30.9,9.6z M7.9,35.6H2.4v-5.5h5.5V35.6z M7.9,28.9H2.4v-6.1h5.5
	V28.9z M7.9,21.6H2.4v-5.5h5.5V21.6z M7.5,12.9c-0.1-0.1-0.2-0.3-0.2-0.4V7c0-0.2,0.1-0.3,0.2-0.4c0.1-0.1,0.3-0.2,0.4-0.2h1.2
	c0.2,0,0.3,0.1,0.4,0.2C9.7,6.7,9.7,6.9,9.7,7v5.5c0,0.2-0.1,0.3-0.2,0.4c-0.1,0.1-0.3,0.2-0.4,0.2H7.9C7.7,13.1,7.6,13.1,7.5,12.9z
	 M15.2,35.6H9.1v-5.5h6.1V35.6z M15.2,28.9H9.1v-6.1h6.1V28.9z M15.2,21.6H9.1v-5.5h6.1V21.6z M22.5,35.6h-6.1v-5.5h6.1V35.6z
	 M22.5,28.9h-6.1v-6.1h6.1V28.9z M22.5,21.6h-6.1v-5.5h6.1V21.6z M24.3,12.5c0,0.2-0.1,0.3-0.2,0.4c-0.1,0.1-0.3,0.2-0.4,0.2h-1.2
	c-0.2,0-0.3-0.1-0.4-0.2c-0.1-0.1-0.2-0.3-0.2-0.4V7c0-0.2,0.1-0.3,0.2-0.4c0.1-0.1,0.3-0.2,0.4-0.2h1.2c0.2,0,0.3,0.1,0.4,0.2
	c0.1,0.1,0.2,0.3,0.2,0.4V12.5z M42.5,31.4c0,0.9-0.3,1.7-0.8,2.2c-0.6,0.5-1.3,0.8-2.2,0.8H29.3c-0.9,0-1.7-0.3-2.2-0.8
	c-0.6-0.5-0.8-1.3-0.8-2.2c0-0.4,0-0.8,0-1.2c0-0.4,0.1-0.8,0.2-1.3c0.1-0.5,0.2-0.9,0.3-1.3c0.1-0.4,0.3-0.8,0.5-1.1
	c0.2-0.4,0.4-0.7,0.7-0.9c0.3-0.3,0.6-0.5,1-0.6c0.4-0.2,0.8-0.2,1.3-0.2c0.1,0,0.2,0.1,0.5,0.2s0.5,0.4,0.8,0.6
	c0.3,0.2,0.7,0.4,1.2,0.6c0.5,0.2,1,0.2,1.6,0.2c0.5,0,1-0.1,1.6-0.2s0.9-0.4,1.2-0.6c0.3-0.2,0.6-0.4,0.8-0.6s0.4-0.2,0.5-0.2
	c0.5,0,0.9,0.1,1.3,0.2c0.4,0.2,0.7,0.4,1,0.6c0.3,0.3,0.5,0.6,0.7,0.9c0.2,0.4,0.4,0.7,0.5,1.1c0.1,0.4,0.2,0.8,0.3,1.3
	c0.1,0.5,0.1,0.9,0.2,1.3C42.5,30.6,42.5,31,42.5,31.4z M38.3,20.9c0,1.1-0.4,2-1.1,2.8c-0.8,0.8-1.7,1.1-2.8,1.1
	c-1.1,0-2-0.4-2.8-1.1c-0.8-0.8-1.1-1.7-1.1-2.8c0-1.1,0.4-2,1.1-2.8c0.8-0.8,1.7-1.1,2.8-1.1c1.1,0,2,0.4,2.8,1.1
	C37.9,18.9,38.3,19.9,38.3,20.9z M14.1,20.4l-0.3,0.3c0,0-0.1,0.1-0.1,0.1s-0.1,0-0.2-0.1l-1.2-1.2L11,20.7c0,0-0.1,0.1-0.2,0.1
	s-0.1,0-0.1-0.1l-0.3-0.3c0,0-0.1-0.1-0.1-0.1c0-0.1,0-0.1,0.1-0.2l1.2-1.2l-1.2-1.2c0,0-0.1-0.1-0.1-0.2c0-0.1,0-0.1,0.1-0.1
	l0.3-0.3c0,0,0.1-0.1,0.1-0.1s0.1,0,0.2,0.1l1.2,1.2l1.2-1.2c0,0,0.1-0.1,0.2-0.1s0.1,0,0.1,0.1l0.3,0.3c0,0,0.1,0.1,0.1,0.1
	c0,0.1,0,0.1-0.1,0.2l-1.2,1.2l1.2,1.2c0,0,0.1,0.1,0.1,0.2C14.2,20.3,14.1,20.4,14.1,20.4z M21.4,20.5l-0.3,0.3
	c0,0-0.1,0.1-0.1,0.1c-0.1,0-0.1,0-0.2-0.1l-1.2-1.2l-1.2,1.2c0,0-0.1,0.1-0.2,0.1c-0.1,0-0.1,0-0.1-0.1l-0.3-0.3
	c0,0-0.1-0.1-0.1-0.1s0-0.1,0.1-0.2L19,19l-1.2-1.2c0,0-0.1-0.1-0.1-0.2c0-0.1,0-0.1,0.1-0.1l0.3-0.3c0,0,0.1-0.1,0.1-0.1
	c0.1,0,0.1,0,0.2,0.1l1.2,1.2l1.2-1.2c0,0,0.1-0.1,0.2-0.1c0.1,0,0.1,0,0.1,0.1l0.3,0.3c0,0,0.1,0.1,0.1,0.1c0,0.1,0,0.1-0.1,0.2
	L20.1,19l1.2,1.2c0,0,0.1,0.1,0.1,0.2S21.4,20.5,21.4,20.5z M14,27.3l-0.3,0.3c0,0-0.1,0.1-0.1,0.1s-0.1,0-0.2-0.1l-1.2-1.2
	l-1.2,1.2c0,0-0.1,0.1-0.2,0.1c-0.1,0-0.1,0-0.1-0.1l-0.3-0.3c0,0-0.1-0.1-0.1-0.1c0-0.1,0-0.1,0.1-0.2l1.2-1.2l-1.2-1.2
	c0,0-0.1-0.1-0.1-0.2c0-0.1,0-0.1,0.1-0.1l0.3-0.3c0,0,0.1-0.1,0.1-0.1c0.1,0,0.1,0,0.2,0.1l1.2,1.2l1.2-1.2c0,0,0.1-0.1,0.2-0.1
	s0.1,0,0.1,0.1l0.3,0.3c0,0,0.1,0.1,0.1,0.1c0,0.1,0,0.1-0.1,0.2l-1.2,1.2L14,27c0,0,0.1,0.1,0.1,0.2C14.1,27.2,14.1,27.3,14,27.3z
	 M21.4,34.4l-0.3,0.3c0,0-0.1,0.1-0.1,0.1c-0.1,0-0.1,0-0.2-0.1l-1.2-1.2l-1.2,1.2c0,0-0.1,0.1-0.2,0.1c-0.1,0-0.1,0-0.1-0.1
	l-0.3-0.3c0,0-0.1-0.1-0.1-0.1s0-0.1,0.1-0.2l1.2-1.2l-1.2-1.2c0,0-0.1-0.1-0.1-0.2c0-0.1,0-0.1,0.1-0.1l0.3-0.3
	c0,0,0.1-0.1,0.1-0.1c0.1,0,0.1,0,0.2,0.1l1.2,1.2l1.2-1.2c0,0,0.1-0.1,0.2-0.1c0.1,0,0.1,0,0.1,0.1l0.3,0.3c0,0,0.1,0.1,0.1,0.1
	c0,0.1,0,0.1-0.1,0.2l-1.2,1.2l1.2,1.2c0,0,0.1,0.1,0.1,0.2S21.4,34.4,21.4,34.4z"/>
</svg>
