<?xml version="1.0" encoding="utf-8"?>
<!-- Generator: Adobe Illustrator 21.1.0, SVG Export Plug-In . SVG Version: 6.00 Build 0)  -->
<svg version="1.1" id="Ebene_1" xmlns="http://www.w3.org/2000/svg" xmlns:xlink="http://www.w3.org/1999/xlink" x="0px" y="0px"
	 viewBox="0 0 42.5 42.5" style="enable-background:new 0 0 42.5 42.5;" xml:space="preserve">
<path d="M38.2,22.4c0-0.5-0.7-0.5-1.4-0.5H14.9c-0.5,0-1.1,0.1-1.7,0.4c-0.6,0.3-1.1,0.6-1.4,1.1l-5.9,7.3c-0.2,0.3-0.4,0.6-0.4,0.8
	c0,0.5,0.4,0.7,1.1,0.7h21.9c0.5,0,1.2,0.1,1.8-0.2c0.6-0.3,1-0.9,1.3-1.3l6.3-7.3C38.1,23.1,38.2,22.6,38.2,22.4z M14.9,19.3h15.5
	v-3.2c0-0.5-0.2-1-0.6-1.4c-0.4-0.4-0.8-0.6-1.4-0.6H16.9c-0.5,0-1-0.2-1.4-0.6s-0.6-0.8-0.6-1.4v-1.3c0-0.5-0.2-1-0.6-1.4
	C14,9.2,13.5,9,13,9H6.5C6,9,5.6,9.2,5.2,9.6c-0.4,0.4-0.6,0.8-0.6,1.4v17.2l5.2-6.3c0.6-0.7,1.4-1.3,2.3-1.8S14,19.3,14.9,19.3z
	 M40.5,22.6c0,0.8-0.3,1.6-0.9,2.4l-5.9,7.3c-0.6,0.7-1.4,1.3-2.3,1.8c-1,0.5-1.9,0.7-2.8,0.7H6.5c-1.2,0-2.3-0.4-3.2-1.3
	S2,31.5,2,30.2V10.9c0-1.2,0.4-2.3,1.3-3.2s1.9-1.3,3.2-1.3H13c1.2,0,2.3,0.4,3.2,1.3c0.9,0.9,1.3,1.9,1.3,3.2v0.6h11
	c1.2,0,2.3,0.4,3.2,1.3c0.9,0.9,1.3,1.9,1.3,3.2v3.2h3.9c0.7,0,1.4,0.2,2,0.5c0.6,0.3,1.1,0.8,1.3,1.4
	C40.4,21.6,40.5,22.1,40.5,22.6z M30.5,31.9l6.2-7.2c-0.5,0.2-2,0.7-2.6,0.9c-3.9,1.2-7,2.2-9.4,3c-0.8,0.3-1.4,0.4-1.8,0.6
	c-0.5,0.1-1,0.3-1.8,0.4c-0.7,0.1-1.3,0.2-1.8,0.2l0,0c-0.5,0-1-0.1-1.5-0.2c-0.5-0.1-0.8-0.3-1.1-0.4c-0.2-0.1-0.5-0.3-0.9-0.6
	c-1.1-0.8-2.6-1.8-4.5-3c-0.3-0.2-0.8-0.5-0.9-0.7l-5.7,7c-0.1,0.1-0.1,0.1,0,0.2s0.2,0.1,0.3,0.1l24.7,0c0.1,0,0.3,0,0.4-0.1
	C30.3,32,30.4,31.9,30.5,31.9z M38.2,22.6c0-0.2,0-0.2,0-0.3c0-0.1-0.2-0.3-0.3-0.3c-0.1,0-0.4-0.1-0.5-0.1s-22.8,0-22.8,0
	c-0.1,0-0.3,0-0.4,0.1c-0.1,0.1-0.5,0-1.2,0.5c-1.1,0.7-0.8,1.5,0.3,2.4c1.4,1.1,3.9,3,4.9,3.4c1,0.5,2.5,0,3.7-0.3
	c1.1-0.3,3.7-1.1,4.1-1.3c0.3-0.1,9.7-3,10.6-3.3C37.9,22.9,38.2,22.8,38.2,22.6z M32.2,31.8c-0.3,0.4-0.8,0.7-1.6,1
	c-0.7,0.3-1.5,0.4-2.2,0.4l-23.9,0c-0.7,0-1.2-0.1-1.5-0.4s-0.3-0.6,0.1-1l7.8-9.5c0.3-0.4,0.8-0.7,1.6-1c0.7-0.3,1.5-0.4,2.2-0.4
	l23.9,0c0.7,0,1.2,0.1,1.5,0.4s0.3,0.6-0.1,1"/>
</svg>
