<?xml version="1.0" encoding="utf-8"?>
<!-- Generator: Adobe Illustrator 21.1.0, SVG Export Plug-In . SVG Version: 6.00 Build 0)  -->
<svg version="1.1" id="Ebene_1" xmlns="http://www.w3.org/2000/svg" xmlns:xlink="http://www.w3.org/1999/xlink" x="0px" y="0px"
	 viewBox="0 0 42.5 42.5" style="enable-background:new 0 0 42.5 42.5;" xml:space="preserve">
<path id="Icon_Phone" d="M35.3,29.4c0,0.4-0.1,0.8-0.2,1.4c-0.1,0.6-0.3,1-0.4,1.4c-0.3,0.7-1.1,1.4-2.5,2.1c-1.3,0.7-2.5,1-3.7,1
	c-0.4,0-0.7,0-1.1-0.1s-0.7-0.1-1.2-0.3s-0.7-0.2-0.9-0.3c-0.2-0.1-0.6-0.2-1.1-0.4s-0.9-0.3-1-0.4c-1.3-0.5-2.5-1-3.5-1.7
	c-1.7-1.1-3.5-2.5-5.3-4.3c-1.8-1.8-3.3-3.6-4.3-5.3c-0.6-1-1.2-2.2-1.7-3.5c0-0.1-0.2-0.4-0.4-1c-0.2-0.5-0.3-0.9-0.4-1.1
	S7.4,16.5,7.3,16c-0.1-0.4-0.2-0.8-0.3-1.2C7,14.5,7,14.2,7,13.8c0-1.2,0.3-2.5,1-3.7c0.8-1.4,1.5-2.2,2.1-2.5
	c0.3-0.1,0.8-0.3,1.4-0.4S12.6,7,13,7c0.2,0,0.3,0,0.4,0.1c0.2,0.1,0.6,0.6,1.1,1.5c0.1,0.3,0.3,0.6,0.6,1.1
	c0.3,0.5,0.5,0.9,0.7,1.3c0.2,0.4,0.4,0.7,0.6,1.1c0,0.1,0.2,0.2,0.4,0.5c0.2,0.3,0.3,0.5,0.4,0.7s0.1,0.4,0.1,0.6
	c0,0.3-0.2,0.6-0.6,1c-0.4,0.4-0.8,0.8-1.2,1.1s-0.9,0.7-1.2,1.1c-0.4,0.4-0.6,0.7-0.6,0.9c0,0.1,0,0.3,0.1,0.5
	c0.1,0.2,0.1,0.3,0.2,0.4s0.1,0.3,0.3,0.5c0.1,0.2,0.2,0.4,0.2,0.4c1,1.8,2.2,3.4,3.5,4.7c1.3,1.3,2.9,2.5,4.7,3.5
	c0,0,0.2,0.1,0.4,0.2c0.2,0.1,0.4,0.2,0.5,0.3s0.2,0.1,0.4,0.2c0.2,0.1,0.3,0.1,0.5,0.1c0.2,0,0.6-0.2,0.9-0.6
	c0.4-0.4,0.7-0.8,1.1-1.2c0.3-0.4,0.7-0.9,1.1-1.2c0.4-0.4,0.7-0.6,1-0.6c0.2,0,0.4,0,0.6,0.1s0.4,0.2,0.7,0.4s0.4,0.3,0.5,0.4
	c0.3,0.2,0.7,0.4,1.1,0.6c0.4,0.2,0.8,0.4,1.3,0.7c0.5,0.3,0.8,0.5,1.1,0.6c0.9,0.5,1.4,0.8,1.5,1.1C35.3,29.1,35.3,29.2,35.3,29.4z
	"/>
</svg>
