<?xml version="1.0" encoding="utf-8"?>
<!-- Generator: Adobe Illustrator 21.1.0, SVG Export Plug-In . SVG Version: 6.00 Build 0)  -->
<svg version="1.1" id="Ebene_1" xmlns="http://www.w3.org/2000/svg" xmlns:xlink="http://www.w3.org/1999/xlink" x="0px" y="0px"
	 viewBox="0 0 42.5 42.5" style="enable-background:new 0 0 42.5 42.5;" xml:space="preserve">
<path d="M31.6,4c1.8,0,3.3,0.6,4.5,1.9c1.2,1.2,1.9,2.7,1.9,4.5v21.2c0,1.8-0.6,3.3-1.9,4.5c-1.2,1.2-2.7,1.9-4.5,1.9H10.4
	c-1.8,0-3.3-0.6-4.5-1.9C4.6,34.9,4,33.4,4,31.6V10.4c0-1.8,0.6-3.3,1.9-4.5S8.6,4,10.4,4H31.6z M34.8,28.8V17
	c-0.6,0.6-1.1,1.1-1.7,1.5c-0.6,0.4-1.8,1.2-3.6,2.3c-1.8,1.1-3.1,2-4.1,2.7c-1.8,1.2-3.2,1.9-4.4,1.9s-2.7-0.6-4.4-1.9
	c-0.8-0.6-2.1-1.4-3.8-2.5s-3-1.9-3.8-2.5c-0.2-0.1-0.5-0.4-0.9-0.7c-0.4-0.3-0.7-0.6-0.8-0.7v11.8c0,0.7,0.3,1.3,0.8,1.8
	s1.1,0.8,1.8,0.8h22.5c0.7,0,1.3-0.3,1.8-0.8C34.6,30.1,34.8,29.5,34.8,28.8z M34.8,13.3c0-0.7-0.2-1.4-0.7-1.9
	c-0.5-0.5-1.1-0.8-1.9-0.8H9.8c-0.7,0-1.3,0.3-1.8,0.8s-0.8,1.1-0.8,1.8c0,0.7,0.3,1.4,0.8,2.1C8.5,16,9.1,16.6,9.8,17
	c0.8,0.6,2.1,1.4,3.7,2.4c1.6,1,2.8,1.8,3.5,2.2c0.1,0,0.2,0.1,0.5,0.3c0.3,0.2,0.4,0.3,0.6,0.4c0.1,0.1,0.3,0.2,0.6,0.4
	c0.3,0.2,0.5,0.3,0.6,0.4c0.2,0.1,0.4,0.2,0.6,0.3s0.4,0.2,0.6,0.2c0.2,0,0.4,0.1,0.6,0.1s0.4,0,0.6-0.1s0.4-0.1,0.6-0.2
	s0.4-0.2,0.6-0.3s0.4-0.2,0.6-0.4c0.3-0.2,0.4-0.3,0.6-0.4s0.3-0.2,0.6-0.4c0.3-0.2,0.4-0.3,0.5-0.3l7.2-4.7c0.6-0.4,1.2-1,1.8-1.7
	C34.5,14.6,34.8,13.9,34.8,13.3z"/>
</svg>
