<?xml version="1.0" encoding="utf-8"?>
<!-- Generator: Adobe Illustrator 21.1.0, SVG Export Plug-In . SVG Version: 6.00 Build 0)  -->
<svg version="1.1" id="Ebene_1" xmlns="http://www.w3.org/2000/svg" xmlns:xlink="http://www.w3.org/1999/xlink" x="0px" y="0px"
	 viewBox="0 0 42.5 42.5" style="enable-background:new 0 0 42.5 42.5;" xml:space="preserve">
<path id="Icon_Passwort" d="M12.5,19.5h16.7v-4.4c0-2.4-0.8-4.4-2.5-6.1c-1.7-1.7-3.3-2.5-5.7-2.5S16.7,7.3,15,9s-2.5,3.7-2.5,6.1
	V19.5z M34.8,21.8v13.9c0,0.6-0.2,1.2-0.7,1.6c-0.5,0.5-1,0.7-1.6,0.7H9.3c-0.6,0-1.2-0.2-1.6-0.7c-0.5-0.5-0.7-1-0.7-1.6V21.8
	c0-0.6,0.2-1.2,0.7-1.6c0.5-0.5,1-0.7,1.6-0.7h0.8v-4.6c0-3,1.1-5.5,3.2-7.6S17.9,4,20.9,4s5.5,1.1,7.6,3.2s3.2,4.7,3.2,7.6v4.6h0.8
	c0.6,0,1.2,0.2,1.6,0.7C34.6,20.6,34.8,21.1,34.8,21.8z"/>
</svg>
