<?xml version="1.0" encoding="utf-8"?>
<!-- Generator: Adobe Illustrator 21.1.0, SVG Export Plug-In . SVG Version: 6.00 Build 0)  -->
<svg version="1.1" id="Ebene_1" xmlns="http://www.w3.org/2000/svg" xmlns:xlink="http://www.w3.org/1999/xlink" x="0px" y="0px"
	 viewBox="0 0 42.5 42.5" style="enable-background:new 0 0 42.5 42.5;" xml:space="preserve">
<g>
	<path d="M15.9,26c-1.4-1.4-2.1-3.1-2.1-5.1c0-2,0.7-3.7,2.1-5.1c1.4-1.4,3.1-2.1,5.1-2.1c2,0,3.7,0.7,5.1,2.1
		c0.8,0.8,1.4,1.7,1.7,2.7l6.1,6.1l3.4-0.5c0.2,0,0.3-0.1,0.4-0.3c0.1-0.2,0.2-0.3,0.2-0.5v-4.9c0-0.2-0.1-0.4-0.2-0.5
		c-0.1-0.2-0.3-0.2-0.5-0.3l-4-0.6c-0.2-0.7-0.5-1.4-0.9-2.2c0.3-0.4,0.7-0.9,1.2-1.6c0.5-0.7,0.9-1.2,1.1-1.5
		c0.1-0.2,0.2-0.3,0.2-0.5c0-0.2-0.1-0.4-0.2-0.5c-0.5-0.8-1.7-2-3.6-3.8C30.8,7.1,30.7,7,30.5,7c-0.2,0-0.4,0.1-0.5,0.2l-3.1,2.4
		c-0.6-0.3-1.3-0.6-2-0.8l-0.6-4.1c0-0.2-0.1-0.3-0.3-0.5C23.8,4.1,23.6,4,23.4,4h-4.9c-0.4,0-0.7,0.2-0.8,0.6
		c-0.2,0.7-0.4,2.1-0.6,4.1c-0.7,0.2-1.4,0.5-2,0.8l-3-2.4C11.8,7.1,11.6,7,11.4,7c-0.3,0-1,0.5-2.1,1.6c-1.1,1.1-1.8,1.8-2.2,2.4
		C7,11.1,7,11.3,7,11.4c0,0.2,0.1,0.4,0.2,0.5c1,1.2,1.8,2.2,2.4,3c-0.4,0.7-0.7,1.4-0.9,2l-4.1,0.6c-0.2,0-0.3,0.1-0.4,0.3
		S4,18.3,4,18.5v4.9c0,0.2,0.1,0.4,0.2,0.5c0.1,0.2,0.3,0.2,0.5,0.3l4,0.6c0.2,0.7,0.5,1.4,0.9,2.2c-0.3,0.4-0.7,0.9-1.2,1.6
		c-0.5,0.7-0.9,1.2-1.1,1.5c-0.1,0.2-0.2,0.3-0.2,0.5c0,0.2,0.1,0.4,0.2,0.5c0.6,0.8,1.8,2,3.6,3.7c0.2,0.2,0.3,0.2,0.6,0.2
		c0.2,0,0.4-0.1,0.6-0.2l3.1-2.4c0.6,0.3,1.3,0.6,2,0.8l0.6,4.1c0,0.2,0.1,0.3,0.3,0.5c0.2,0.1,0.3,0.2,0.5,0.2h4.9
		c0.4,0,0.7-0.2,0.8-0.6c0.2-0.7,0.4-1.9,0.6-3.7L19,27.9C17.8,27.6,16.8,26.9,15.9,26z"/>
</g>
<path d="M35.7,32.8c0-0.3-0.1-0.6-0.3-0.8l-2.4-2.4c-0.2-0.2-0.5-0.3-0.8-0.3c-0.3,0-0.6,0.1-0.8,0.4c0,0,0.1,0.1,0.2,0.2
	c0.1,0.1,0.2,0.2,0.3,0.3c0,0,0.1,0.1,0.2,0.2c0.1,0.1,0.1,0.2,0.2,0.3c0,0.1,0,0.2,0,0.3c0,0.3-0.1,0.6-0.3,0.8s-0.5,0.3-0.8,0.3
	c-0.1,0-0.2,0-0.3,0c-0.1,0-0.2-0.1-0.3-0.2c-0.1-0.1-0.2-0.1-0.2-0.2c0,0-0.1-0.1-0.3-0.3s-0.2-0.2-0.2-0.2
	c-0.3,0.2-0.4,0.5-0.4,0.9c0,0.3,0.1,0.6,0.3,0.8l2.4,2.4c0.2,0.2,0.5,0.3,0.8,0.3c0.3,0,0.6-0.1,0.8-0.3l1.7-1.7
	C35.5,33.4,35.7,33.2,35.7,32.8z M27.4,24.6c0-0.3-0.1-0.6-0.3-0.8l-2.4-2.4c-0.2-0.2-0.5-0.3-0.8-0.3c-0.3,0-0.6,0.1-0.8,0.3
	l-1.7,1.7c-0.2,0.2-0.3,0.5-0.3,0.8c0,0.3,0.1,0.6,0.3,0.8l2.4,2.4c0.2,0.2,0.5,0.3,0.8,0.3c0.3,0,0.6-0.1,0.8-0.4
	c0,0-0.1-0.1-0.2-0.2c-0.1-0.1-0.2-0.2-0.3-0.3c0,0-0.1-0.1-0.2-0.2c-0.1-0.1-0.1-0.2-0.2-0.3c0-0.1,0-0.2,0-0.3
	c0-0.3,0.1-0.6,0.3-0.8s0.5-0.3,0.8-0.3c0.1,0,0.2,0,0.3,0c0.1,0,0.2,0.1,0.3,0.2c0.1,0.1,0.2,0.1,0.2,0.2c0,0,0.1,0.1,0.3,0.3
	c0.1,0.1,0.2,0.2,0.2,0.2C27.3,25.2,27.4,24.9,27.4,24.6z M37.9,32.8c0,0.9-0.3,1.7-1,2.4l-1.7,1.7c-0.6,0.6-1.4,1-2.4,1
	c-0.9,0-1.7-0.3-2.4-1L28,34.5c-0.6-0.6-1-1.4-1-2.4c0-1,0.3-1.8,1-2.4l-1-1c-0.7,0.7-1.5,1-2.4,1c-0.9,0-1.7-0.3-2.4-1l-2.4-2.4
	c-0.7-0.7-1-1.4-1-2.4c0-0.9,0.3-1.7,1-2.4l1.7-1.7c0.6-0.6,1.4-1,2.4-1c0.9,0,1.7,0.3,2.4,1l2.4,2.4c0.6,0.6,1,1.4,1,2.4
	c0,1-0.3,1.8-1,2.4l1,1c0.7-0.7,1.5-1,2.4-1c0.9,0,1.7,0.3,2.4,1l2.4,2.4C37.6,31.1,37.9,31.9,37.9,32.8z"/>
</svg>
