<?xml version="1.0" encoding="utf-8"?>
<!-- Generator: Adobe Illustrator 21.1.0, SVG Export Plug-In . SVG Version: 6.00 Build 0)  -->
<svg version="1.1" id="Ebene_1" xmlns="http://www.w3.org/2000/svg" xmlns:xlink="http://www.w3.org/1999/xlink" x="0px" y="0px"
	 viewBox="0 0 42.5 42.5" style="enable-background:new 0 0 42.5 42.5;" xml:space="preserve">
<path id="Pfeil_links_1_" d="M29.5,21.2c0-0.2-0.1-0.5-0.3-0.7L16,7.3C15.8,7.1,15.6,7,15.4,7s-0.5,0.1-0.7,0.3l-1.4,1.4
	C13.1,8.9,13,9.1,13,9.4c0,0.2,0.1,0.5,0.3,0.7l11.2,11.2L13.3,32.3C13.1,32.5,13,32.7,13,33c0,0.2,0.1,0.5,0.3,0.7l1.4,1.4
	c0.2,0.2,0.4,0.3,0.7,0.3s0.5-0.1,0.7-0.3l13.2-13.2C29.4,21.6,29.5,21.4,29.5,21.2z"/>
</svg>
