<?xml version="1.0" encoding="utf-8"?>
<!-- Generator: Adobe Illustrator 21.1.0, SVG Export Plug-In . SVG Version: 6.00 Build 0)  -->
<svg version="1.1" id="Ebene_1" xmlns="http://www.w3.org/2000/svg" xmlns:xlink="http://www.w3.org/1999/xlink" x="0px" y="0px"
	 viewBox="0 0 42.5 42.5" style="enable-background:new 0 0 42.5 42.5;" xml:space="preserve">
<path d="M11.1,35c-0.1-0.3-0.1-0.5,0.1-0.7l3.2-3.9c0.1-0.1,0.3-0.2,0.5-0.2h6.4V17.3h-3.9c-0.5,0-0.9-0.2-1.2-0.7
	c-0.2-0.5-0.2-1,0.2-1.4l6.4-7.7c0.2-0.3,0.6-0.4,1-0.4c0.4,0,0.7,0.1,1,0.4l6.4,7.7c0.4,0.4,0.4,0.9,0.2,1.4s-0.6,0.7-1.2,0.7h-3.9
	v17.4c0,0.2-0.1,0.3-0.2,0.5c-0.1,0.1-0.3,0.2-0.5,0.2H11.7C11.4,35.3,11.2,35.2,11.1,35z"/>
</svg>
