<?xml version="1.0" encoding="utf-8"?>
<!-- Generator: Adobe Illustrator 21.1.0, SVG Export Plug-In . SVG Version: 6.00 Build 0)  -->
<svg version="1.1" id="Ebene_1" xmlns="http://www.w3.org/2000/svg" xmlns:xlink="http://www.w3.org/1999/xlink" x="0px" y="0px"
	 viewBox="0 0 42.5 42.5" style="enable-background:new 0 0 42.5 42.5;" xml:space="preserve">
<path d="M31.3,15.9L18.5,28.7c-0.3,0.3-0.6,0.4-1,0.4s-0.7-0.1-1-0.4l-6.1-6.1c-0.3-0.3-0.4-0.6-0.4-1s0.1-0.7,0.4-1l0.4-0.4
	c0.3-0.3,0.6-0.4,1-0.4c0.4,0,0.7,0.1,1,0.4l4.6,4.6l11.4-11.4c0.3-0.3,0.6-0.4,1-0.4s0.7,0.1,1,0.4l0.5,0.5c0.3,0.3,0.4,0.6,0.4,1
	C31.7,15.3,31.6,15.6,31.3,15.9z"/>
</svg>
