<?xml version="1.0" encoding="utf-8"?>
<!-- Generator: Adobe Illustrator 21.1.0, SVG Export Plug-In . SVG Version: 6.00 Build 0)  -->
<svg version="1.1" id="Ebene_1" xmlns="http://www.w3.org/2000/svg" xmlns:xlink="http://www.w3.org/1999/xlink" x="0px" y="0px"
	 viewBox="0 0 42.5 42.5" style="enable-background:new 0 0 42.5 42.5;" xml:space="preserve">
<path d="M28.2,32.1L27,33.3c-0.2,0.2-0.4,0.2-0.6,0.2s-0.4-0.1-0.6-0.2l-5-5l-5,5c-0.2,0.2-0.4,0.2-0.6,0.2c-0.2,0-0.4-0.1-0.6-0.2
	l-1.2-1.2c-0.2-0.2-0.2-0.4-0.2-0.6c0-0.2,0.1-0.4,0.2-0.6l5-5l-5-5c-0.2-0.2-0.2-0.4-0.2-0.6s0.1-0.4,0.2-0.6l1.2-1.2
	c0.2-0.2,0.4-0.2,0.6-0.2c0.2,0,0.4,0.1,0.6,0.2l5,5l5-5c0.2-0.2,0.4-0.2,0.6-0.2s0.4,0.1,0.6,0.2l1.2,1.2c0.2,0.2,0.2,0.4,0.2,0.6
	s-0.1,0.4-0.2,0.6l-5,5l5,5c0.2,0.2,0.2,0.4,0.2,0.6C28.5,31.7,28.4,31.9,28.2,32.1z M7.4,35.6h26.7V16.1H7.4V35.6z M14.7,12.5V7
	c0-0.2-0.1-0.3-0.2-0.4c-0.1-0.1-0.3-0.2-0.4-0.2h-1.2c-0.2,0-0.3,0.1-0.4,0.2c-0.1,0.1-0.2,0.3-0.2,0.4v5.5c0,0.2,0.1,0.3,0.2,0.4
	c0.1,0.1,0.3,0.2,0.4,0.2h1.2c0.2,0,0.3-0.1,0.4-0.2C14.7,12.8,14.7,12.7,14.7,12.5z M29.3,12.5V7c0-0.2-0.1-0.3-0.2-0.4
	s-0.3-0.2-0.4-0.2h-1.2c-0.2,0-0.3,0.1-0.4,0.2S26.9,6.9,26.9,7v5.5c0,0.2,0.1,0.3,0.2,0.4c0.1,0.1,0.3,0.2,0.4,0.2h1.2
	c0.2,0,0.3-0.1,0.4-0.2C29.2,12.8,29.3,12.7,29.3,12.5z M36.6,11.3v24.3c0,0.7-0.2,1.2-0.7,1.7c-0.5,0.5-1.1,0.7-1.7,0.7H7.4
	c-0.7,0-1.2-0.2-1.7-0.7C5.2,36.8,5,36.2,5,35.6V11.3c0-0.7,0.2-1.2,0.7-1.7s1.1-0.7,1.7-0.7h2.4V7c0-0.8,0.3-1.6,0.9-2.1
	S12.1,4,12.9,4h1.2c0.8,0,1.6,0.3,2.1,0.9c0.6,0.6,0.9,1.3,0.9,2.1v1.8h7.3V7c0-0.8,0.3-1.6,0.9-2.1C25.9,4.3,26.6,4,27.5,4h1.2
	c0.8,0,1.6,0.3,2.1,0.9s0.9,1.3,0.9,2.1v1.8h2.4c0.7,0,1.2,0.2,1.7,0.7C36.3,10.1,36.6,10.6,36.6,11.3z"/>
</svg>
