<?xml version="1.0" encoding="utf-8"?>
<!-- Generator: Adobe Illustrator 21.1.0, SVG Export Plug-In . SVG Version: 6.00 Build 0)  -->
<svg version="1.1" id="Ebene_1" xmlns="http://www.w3.org/2000/svg" xmlns:xlink="http://www.w3.org/1999/xlink" x="0px" y="0px"
	 viewBox="0 0 42.5 42.5" style="enable-background:new 0 0 42.5 42.5;" xml:space="preserve">
<path d="M27.6,20.9c0.1,0.1,0.1,0.2,0.1,0.4v1c0,0.2,0,0.3-0.1,0.4c-0.1,0.1-0.2,0.1-0.4,0.1H15.7c-0.2,0-0.3,0-0.4-0.1
	c-0.1-0.1-0.1-0.2-0.1-0.4v-1c0-0.2,0-0.3,0.1-0.4c0.1-0.1,0.2-0.1,0.4-0.1h11.5C27.4,20.7,27.5,20.8,27.6,20.9z M27.6,16.7
	c-0.1-0.1-0.2-0.1-0.4-0.1H15.7c-0.2,0-0.3,0-0.4,0.1c-0.1,0.1-0.1,0.2-0.1,0.4v1c0,0.2,0,0.3,0.1,0.4c0.1,0.1,0.2,0.1,0.4,0.1h11.5
	c0.2,0,0.3,0,0.4-0.1c0.1-0.1,0.1-0.2,0.1-0.4v-1C27.7,16.9,27.7,16.8,27.6,16.7z M11,6.1h12.5v6.8c0,0.4,0.2,0.8,0.5,1.1
	s0.7,0.5,1.1,0.5h6.8v9.2H34V12.9c0-0.4-0.1-0.9-0.3-1.4c-0.2-0.5-0.5-0.9-0.8-1.2l-5.1-5.1c-0.3-0.3-0.7-0.6-1.2-0.8
	C26,4.1,25.5,4,25.1,4H10.5C10,4,9.7,4.2,9.4,4.5C9.1,4.8,8.9,5.1,8.9,5.6v18.1H11V6.1z M25.6,6.2c0.3,0.1,0.5,0.2,0.7,0.4l5.1,5.1
	c0.1,0.1,0.3,0.4,0.4,0.7h-6.1V6.2z"/>
<path d="M7.9,38h26.6c0.8,0,1.5-0.3,2-0.8c0.6-0.5,0.9-1.1,0.9-1.9v-18c0-0.7-0.3-1.3-0.9-1.9c-0.3-0.3-0.7-0.5-1-0.6v2.4l0,0l0,0.1
	V18c0,0.7-0.2,1.1-0.8,2c-0.6,0.8-1.7,1.7-2.3,2.2c-2.3,1.7-4.7,3.5-7.3,5.4c-0.1,0.1-0.3,0.2-0.6,0.5c-0.3,0.3-0.6,0.5-0.8,0.6
	c-0.2,0.1-0.5,0.3-0.8,0.5c-0.3,0.2-0.6,0.4-0.9,0.5c-0.3,0.1-0.5,0.2-0.8,0.2h0c-0.2,0-0.5-0.1-0.8-0.2c-0.3-0.1-0.6-0.3-0.9-0.5
	c-0.3-0.2-0.6-0.4-0.8-0.5c-0.2-0.1-0.5-0.4-0.8-0.6c-0.3-0.3-0.6-0.4-0.6-0.5c-2.5-1.9-4.9-3.7-7.3-5.4c-1.7-1.3-3.1-3-3.1-4.9h0
	v-0.1c0,0,0,0,0,0c0,0,0,0,0,0v-2.3c-0.4,0.1-0.7,0.3-1,0.6C5.3,16,5,16.6,5,17.4v18c0,0.7,0.3,1.3,0.9,1.9C6.4,37.7,7.1,38,7.9,38z
	 M6.9,22.4c0.4,0.4,1.3,1,1.7,1.4c3.2,2.3,5.8,4.1,7.7,5.6c0.6,0.5,1.1,0.8,1.5,1.1c0.4,0.3,0.9,0.5,1.6,0.8
	c0.7,0.3,1.3,0.4,1.9,0.4h0c0.6,0,1.2-0.1,1.9-0.4c0.7-0.3,1.2-0.5,1.6-0.8c0.4-0.3,0.9-0.6,1.5-1.1c1.9-1.5,4.5-3.3,7.7-5.6
	c0.4-0.3,1.3-1,1.7-1.4v13.1c0,0.1-0.1,0.3-0.2,0.4c-0.1,0.1-0.3,0.2-0.4,0.2H7.4c-0.2,0-0.3-0.1-0.4-0.2c-0.1-0.1-0.2-0.2-0.2-0.4
	V22.4z"/>
</svg>
