<?xml version="1.0" encoding="utf-8"?>
<!-- Generator: Adobe Illustrator 21.1.0, SVG Export Plug-In . SVG Version: 6.00 Build 0)  -->
<svg version="1.1" id="Ebene_1" xmlns="http://www.w3.org/2000/svg" xmlns:xlink="http://www.w3.org/1999/xlink" x="0px" y="0px"
	 viewBox="0 0 42.5 42.5" style="enable-background:new 0 0 42.5 42.5;" xml:space="preserve">
<style type="text/css">
	.st0{fill:#1D1D1B;}
</style>
<path class="st0" d="M35.9,9.6c-0.5-0.5-1.1-0.7-1.7-0.7h-2.4V7c0-0.8-0.3-1.6-0.9-2.1C30.2,4.3,29.5,4,28.7,4h-1.2
	c-0.8,0-1.6,0.3-2.1,0.9S24.4,6.2,24.4,7v1.8h-7.3V7c0-0.8-0.3-1.6-0.9-2.1C15.7,4.3,14.9,4,14.1,4h-1.2c-0.8,0-1.6,0.3-2.1,0.9
	C10.2,5.5,9.9,6.2,9.9,7v1.8H7.4c-0.7,0-1.2,0.2-1.7,0.7S5,10.6,5,11.3v24.3c0,0.7,0.2,1.2,0.7,1.7C6.2,37.8,6.8,38,7.4,38h26.7
	c0.7,0,1.2-0.2,1.7-0.7c0.5-0.5,0.7-1.1,0.7-1.7V11.3C36.6,10.6,36.3,10.1,35.9,9.6z M26.9,7c0-0.2,0.1-0.3,0.2-0.4s0.3-0.2,0.4-0.2
	h1.2c0.2,0,0.3,0.1,0.4,0.2s0.2,0.3,0.2,0.4v5.5c0,0.2-0.1,0.3-0.2,0.4s-0.3,0.2-0.4,0.2h-1.2c-0.2,0-0.3-0.1-0.4-0.2
	s-0.2-0.3-0.2-0.4V7z M12.3,7c0-0.2,0.1-0.3,0.2-0.4s0.3-0.2,0.4-0.2h1.2c0.2,0,0.3,0.1,0.4,0.2s0.2,0.3,0.2,0.4v5.5
	c0,0.2-0.1,0.3-0.2,0.4s-0.3,0.2-0.4,0.2h-1.2c-0.2,0-0.3-0.1-0.4-0.2s-0.2-0.3-0.2-0.4V7z M34.2,35.6H7.4V16.1h26.7V35.6z
	 M14.9,26.9c-0.1-0.1-0.2-0.3-0.2-0.4v-1.2c0-0.2,0.1-0.3,0.2-0.4s0.3-0.2,0.4-0.2h4.3v-4.3c0-0.2,0.1-0.3,0.2-0.4s0.3-0.2,0.4-0.2
	h1.2c0.2,0,0.3,0.1,0.4,0.2s0.2,0.3,0.2,0.4v4.3h4.3c0.2,0,0.3,0.1,0.4,0.2s0.2,0.3,0.2,0.4v1.2c0,0.2-0.1,0.3-0.2,0.4
	s-0.3,0.2-0.4,0.2H22v4.3c0,0.2-0.1,0.3-0.2,0.4s-0.3,0.2-0.4,0.2h-1.2c-0.2,0-0.3-0.1-0.4-0.2s-0.2-0.3-0.2-0.4v-4.3h-4.3
	C15.1,27.1,15,27,14.9,26.9z"/>
</svg>
